<?xml version="1.0" encoding="utf-8"?>
<!-- Generator: Adobe Illustrator 24.1.2, SVG Export Plug-In . SVG Version: 6.00 Build 0)  -->
<svg version="1.1" id="Layer_1" xmlns="http://www.w3.org/2000/svg" xmlns:xlink="http://www.w3.org/1999/xlink" x="0px" y="0px"
	 width="1100.5px" height="472.4px" viewBox="0 0 1100.5 472.4" style="enable-background:new 0 0 1100.5 472.4;"
	 xml:space="preserve">
<style type="text/css">
	.st0{fill:#E6E5E3;}
	.st1{fill:#FAF9F6;}
	.st2{fill:#B2DAE7;}
	.st3{fill:#E5E5E2;}
	.st4{fill:#F28F1D;}
	.st5{fill:#F0804C;}
	.st6{fill:#F07F4C;}
	.st7{fill:#212121;}
	.st8{fill:#EA7D02;}
	.st9{fill:#FAF8F6;}
	.st10{fill:#E5E4E2;}
	.st11{fill:#202121;}
	.st12{fill:#DBDAD7;}
	.st13{fill:#030303;}
	.st14{fill:#279758;}
	.st15{fill:#24723E;}
	.st16{fill:#FBF9F7;}
	.st17{fill:#F9F7F6;}
	.st18{fill:#070707;}
	.st19{fill:#1C1C1C;}
	.st20{fill:#F9FAF9;}
	.st21{fill:#1C1111;}
	.st22{fill:#279859;}
	.st23{fill:#1E6FA8;}
	.st24{fill:#2A3182;}
	.st25{fill:#E7413F;}
	.st26{fill:#E7413E;}
	.st27{fill:#FDC731;}
	.st28{fill:#1E6FA9;}
	.st29{fill:#CA142D;}
	.st30{fill:#90452A;}
	.st31{fill:#984A2E;}
	.st32{fill:#EE7E49;}
	.st33{fill:#F28252;}
	.st34{fill:#F28250;}
	.st35{fill:#EF7F4A;}
	.st36{fill:#F9642E;}
	.st37{fill:#F6AD92;}
	.st38{fill:#F5946C;}
	.st39{fill:#F57557;}
	.st40{fill:#EF7E4B;}
	.st41{fill:#FDC730;}
	.st42{fill:#F4F6D7;}
	.st43{fill:#212120;}
	.st44{fill:#8F3C27;}
	.st45{fill:#F6845E;}
	.st46{fill:#F48B63;}
	.st47{fill:#FDC72F;}
	.st48{fill:#F57657;}
	.st49{fill:#202120;}
	.st50{fill:#0E1316;}
	.st51{fill:#E97943;}
	.st52{fill:#95472B;}
	.st53{fill:#249857;}
	.st54{fill:#222020;}
	.st55{fill:#1F1F20;}
	.st56{fill:#1B1E1F;}
	.st57{fill:#1B1D1F;}
	.st58{fill:#1E1D1E;}
	.st59{fill:#1D1B1C;}
	.st60{fill:#181A1D;}
	.st61{fill:#141115;}
	.st62{fill:#1B1312;}
	.st63{fill:#E16B46;}
	.st64{fill:#33B6B3;}
	.st65{fill:#FAF8F5;}
	.st66{fill:#B7592E;}
	.st67{fill:#212020;}
	.st68{fill:#FAF8F7;}
	.st69{fill:#F9F7F5;}
	.st70{fill:#010101;}
	.st71{fill:#060606;}
	.st72{fill:#FCC631;}
	.st73{fill:#ED7D49;}
	.st74{fill:#657FBF;}
	.st75{fill:#0C0A16;}
	.st76{fill:#120D0D;}
	.st77{fill:#120D0C;}
	.st78{fill:#2C8653;}
	.st79{fill:#24713D;}
	.st80{fill:#B6582E;}
	.st81{fill:#0E161D;}
	.st82{fill:#1B080F;}
	.st83{fill:#F8F7F5;}
	.st84{fill:#1B1E20;}
	.st85{fill:#1A0C11;}
	.st86{fill:#1D0E12;}
	.st87{fill:#ECEBEC;}
	.st88{fill:#1D9664;}
	.st89{fill:#1D0F14;}
	.st90{fill:#F48861;}
	.st91{fill:#0B1311;}
	.st92{fill:#0D1412;}
	.st93{fill:#0E1412;}
	.st94{fill:#0B091C;}
	.st95{fill:#100C19;}
	.st96{fill:#1C191F;}
	.st97{fill:#B0DBE7;}
	.st98{fill:#220D08;}
	.st99{fill:#270D08;}
	.st100{fill:#EDEAE9;}
	.st101{fill:#C6C7C7;}
	.st102{fill:#EB4340;}
	.st103{fill:#101219;}
	.st104{fill:#1B0E0F;}
	.st105{fill:#1B1213;}
	.st106{fill:#201814;}
	.st107{fill:#12141C;}
	.st108{fill:#10131B;}
	.st109{fill:#231412;}
	.st110{fill:#0D1118;}
	.st111{fill:#14171E;}
	.st112{fill:#0A0A0A;}
	.st113{fill:#1E1E1F;}
	.st114{fill:#0C0E11;}
	.st115{fill:#1B1A1A;}
	.st116{fill:#121114;}
	.st117{fill:#151414;}
	.st118{fill:#F3F4F3;}
	.st119{fill:#0B0F16;}
	.st120{fill:#111318;}
	.st121{fill:#151418;}
	.st122{fill:#101117;}
	.st123{fill:#111419;}
	.st124{fill:#0E1017;}
	.st125{fill:#13141B;}
	.st126{fill:#1C1A1C;}
	.st127{fill:#241E1F;}
	.st128{fill:#29191A;}
	.st129{fill:#0F1117;}
	.st130{fill:#0B0E16;}
	.st131{fill:#1B171A;}
	.st132{fill:#1D191A;}
	.st133{fill:#131317;}
	.st134{fill:#F4F4F4;}
	.st135{fill:#0E171C;}
	.st136{fill:#0F1213;}
	.st137{fill:#151A1F;}
	.st138{fill:#171B1E;}
	.st139{fill:#181D1F;}
	.st140{fill:#161D1F;}
	.st141{fill:#0C181E;}
	.st142{fill:#181E20;}
	.st143{fill:#181D20;}
	.st144{fill:#161C20;}
	.st145{fill:#191819;}
	.st146{fill:#0F0E12;}
	.st147{fill:#161416;}
	.st148{fill:#181415;}
	.st149{fill:#171312;}
	.st150{fill:#121416;}
	.st151{fill:#181013;}
	.st152{fill:#180F13;}
	.st153{fill:#1A1115;}
	.st154{fill:#141C20;}
	.st155{fill:#0D181E;}
	.st156{fill:#241817;}
	.st157{fill:#101013;}
	.st158{fill:#100B0A;}
	.st159{fill:#2A1A15;}
	.st160{fill:#F47657;}
	.st161{fill:#F57958;}
	.st162{fill:#FAF9F7;}
	.st163{fill:#2A1F1B;}
	.st164{fill:#1E1310;}
	.st165{fill:#180E0F;}
	.st166{fill:#1C1210;}
	.st167{fill:#181011;}
	.st168{fill:#1E1212;}
	.st169{fill:#111211;}
	.st170{fill:#191918;}
	.st171{fill:#1D9A5F;}
	.st172{fill:#14191E;}
	.st173{fill:#B6592E;}
	.st174{fill:#B9592E;}
	.st175{fill:#289C5B;}
	.st176{fill:#1C1112;}
	.st177{fill:#201312;}
	.st178{fill:#251410;}
	.st179{fill:#1D1513;}
	.st180{fill:#1D1410;}
	.st181{fill:#140E0F;}
	.st182{fill:#1D1310;}
	.st183{fill:#171011;}
	.st184{fill:#151516;}
	.st185{fill:#1B1A19;}
	.st186{fill:#15171D;}
</style>
<path class="st0" d="M799.2,470.6c-32.1,0-64.1,0-96.2,0c-10.9-0.9-21.6-2.7-32.3-4.4c-13.9-2.2-27.7-4.4-41.6-6.5
	c-21-3.1-42-6.5-63-9.7c-17.6-2.7-35.1-5.4-52.6-8.2c-16.5-2.7-33.1-5-49.6-7.6c-15.3-2.4-30.6-4.7-46-7.1c-18-2.8-36-5.4-54-8.2
	c-18.1-2.8-36.2-5.6-54.3-8.4c-17.4-2.7-34.9-5.4-52.3-8.2c-0.9-0.1-1.8-0.2-2.5-0.9c-0.5-0.1,0.4-0.8-0.6-1
	c-8.5-0.9-16.8-2.5-25.3-3.6c-0.6-0.1-1.1-0.2-1.6-0.4c-1.5-0.5-3.3-0.7-3.3-2.7c0-1.9,1.4-2.9,3.1-3.4c1.8-0.5,3.7-1.2,5.6-1.2
	c6.9-0.1,13.5-2.3,20.3-3c0.4,0,0.5-0.4,0.4-0.7c6.3-2.5,12.7-4.6,19.5-5.4c5.9,1.1,11.8,1.6,17.8,1.6c8.2,0,16.4,1,24.7,0.6
	c8.2-0.3,16.4-0.6,24.6-1.1c2.2-0.1,4.2-0.8,5.8-2.3c2.5-0.9,5.1-0.7,7.6-0.4c3.2,0.4,6.5,0.5,9.7,0.2c1.9,0.2,2.8,2,4.4,2.8
	c3.8,1.5,7.9,1.3,11.9,1.5c8.3,0.3,16.5,1,24.8,0.9c2.4,0.8,4.8,0.4,7.3,0.5c6,0,12,0.3,17.9,0c26.5-1.4,53-0.3,79.5-0.6
	c3.3,0,5.9-1.3,8-3.6c2.4-3,2.9-6.6,4-10.1c1.1-3.2,1.2-6.7,3.4-9.6c2.9-5.6,2.9-5.5,9.7-4.8c2.2,0.2,4.5,0.4,6.7,0.4
	c11.7,0.5,23.4,0.6,35.1,1.6c2.1,0.2,4.3,0.4,6.3,1.2c1.4,1.5-0.2,2-1.1,2.2c-5.2,1.4-10.6,3.4-15.9,1.9
	c-10.9-3.1-19.7,0.7-27.9,7.1c-0.9,0.7-1.7,1.5-2.3,2.4c-2.4,3-2.2,3.5,0.7,6c1.1,0.9,2.6,1.5,3.3,2.8c1,1.8,2.6,2,4.4,1.7
	c3.6-0.6,7.1-1,10.6-2.2c2.5-0.9,5.1-1,7.7-0.6c4.5,0.7,9,0.7,13.5-0.2c8.1-1.7,16.3-3.6,24.6-4.4c7.2-1,14.5-1.5,21.6-3.2
	c5.2-1.2,10.3-2.5,14.5-5.9c0.7-0.6,1.6-0.8,2.5-0.8c3.4,0.2,6.8,0.9,10.3,1.1c14.4,1.7,28.8,3.6,43.2,5.3
	c15.6,1.6,31.1,3.7,46.6,5.4c11.1,1.6,22.2,2.6,33.3,4c1.4,0.2,2.9,0.4,4.3,0.7c6.2,1.4,12.5,2.8,18.9,2.4c6.5,1.9,13.3,1.7,20,2.6
	c8.5,1.1,17,1.7,25.3,3.5c0.4,0.1,0.7,0.3,1,0.5c0.6,0.8,0.1,1.3-0.6,1.5c-4.3,1.2-8,3.9-12.2,5.4c-3.4,1.2-6.8,0.9-10.3,0.1
	c-3.1-0.7-6.2-1.1-9.3-1.8c-7.1-1.8-13.8-1-20.6,1.4c-11.7,4.1-23.6,7.9-34.7,12.1c3.2,0,6.7,1.1,10.2,1.8c14.9,2.9,29.8,5.9,44.7,9
	c4.1,0.8,8,0.6,11.9-1.1c4.3-1.8,8.6-3.9,13.5-1.7c9.1-2.9,18.4-4.1,28.1-4.7c7.1-0.5,14.3-1.4,21.5-1.4c13.9,0.2,27.7-0.7,41.5-1.4
	c5.2-0.3,9.6-2,13.5-5.3c1.3-0.6,2.6-0.6,4-0.4c5.7,0.9,11.4,1.4,17,2.7c3.8,0.9,3.9,0.8,4.6-3c0.2-1.1,0.2-2.2,1.1-3.1
	c2.5,0.7,1.8,2.8,1.7,4.4c-0.2,2.6,0.9,3.4,3.3,3.9c4.4,0.8,9,0.5,13.3,2c2.9,1,3.2,1.7,1.9,4.6c-5,2.8-10.6,3.6-16,5.2
	c-17,5.1-34,10.2-51.1,15.1c-20.3,5.8-40.6,11.7-60.9,17.6c-16.5,4.8-33,9.6-49.5,14.6C804.9,469.5,802,469.7,799.2,470.6z"/>
<path class="st1" d="M253.2,386c0.1,0.2,1.6,0.4,0.3,0.7c-6.5,1.5-13.1,3.1-19.8,3.4c-2.5,0.1-4.8,1.1-7.2,1.4
	c-1.3,0.2-1.9,1.4-2,2.4c-0.1,1.4,1.2,1.4,2.2,1.5c6.8,1.1,13.7,2.2,20.5,3.3c3,0.5,5.9,1,9.7,1.6c-1.3,0.3-1.8,0.4-2.3,0.5
	c-0.7,0.7-1.6,0.7-2.5,0.6c-7.9-1.2-15.7-2.6-22.8-3.6c6.4,1.1,13.6,2.2,20.8,3.3c31.2,5.1,62.4,9.9,93.7,14.7
	c22.8,3.5,45.6,6.9,68.4,10.5c1.1,0.2,2.2,0.2,3.2,0.9c-1,2.7-3.3,1.7-5,1.5c-7.4-1.1-14.7-2.2-22.1-3.3
	c-23.6-3.6-47.2-7.2-70.8-10.9c-21.8-3.4-43.6-6.7-65.4-10.3c-7-1.1-14-2.4-21-3.2c-1.3-0.1-3-1.3-3.6,1c-0.6,2.1,0.7,4.4,2.8,5
	c1.4,0.4,2.9,0.5,4.3,0.8c1.4,0.3,2.6,0.7,3.3,2.1c0.9,4.8,1,9.7,1.7,14.5c1,6.3,3.8,11.6,9.4,15.1c2.5,1.5,3.1,3.4,2.6,6.2
	c-1.2,7.1-2.3,14.2-3.5,21.3c-0.2,1.4-0.3,2.9-1.8,3.7c-14.7,0-29.3,0-44,0c-1.2-1.3-1.1-2.9-1.1-4.4c-0.1-16.7,0.7-33.3,1.2-50
	c0.2-7.4,0.7-14.8,0.8-22.2c0-1.7-0.1-3.3,0.6-4.9c1.5-2.1,3.9-1.8,6.1-2.1c9-1.3,8.8-0.2,7.7-9.3c-2.6-22.9-5.5-45.7-8.5-68.5
	c-0.7-5-1.5-10.1-2.2-15.1c-1.5-9.9-4.4-19.4-8.1-28.7c-0.2-1.8-0.2-3.5,1.1-5c0.3-0.3,0.6-0.4,1-0.4c3.3,1,6.4,2.6,9.8,3.5
	c10.5,2.5,17.9-3.1,17.6-13.6c-0.2-8.1-2.4-15.9-4.7-23.7c-0.7-2.3-1.7-4.6-1.3-7.1c0.6-0.9,1.4-1.3,2.4-0.7
	c1.6,3.3,2.8,6.7,5.1,9.7c8,10.1,22,9.6,29-1.3c0.1-0.2,0.2-0.4,0.3-0.6c0.5-0.7,0.8-1.9,1.8-1.6c1.1,0.3,1.1,1.6,1,2.6
	c-0.3,2.6-0.5,5.3-0.8,7.9c-0.5,5.7-1.1,11.5-1.1,17.2c0,4.4-1.5,8.8-0.2,13.2c-0.2,7.6-1,15.2-1.4,22.8c-0.1,3-0.3,6-0.4,8.9
	c-0.2,3.4-0.1,6.8-0.1,10.2c0,2.2-1,3.4-3.3,3.8c-4.2,0.6-8.5,0.9-12.6,2c-3.6,1-6.9,2.5-9.3,5.6c-2.3,3.9-2.5,8.1-2.1,12.5
	c0.4,4.3,0.4,8.6,0.7,12.9c1,13.9,2.3,27.7,3.5,41.5c0.2,2.1,1.1,2.3,2.8,2.1c4.1-0.5,8.2-1.4,12.3-2.1
	C250.9,385.5,252.1,385,253.2,386z"/>
<path class="st2" d="M984.8,415.8c1.3-2,0.6-2.7-1.6-3.3c-5.2-1.4-10.6-1.1-15.9-2.3c-1.6-0.4-1.9-0.6-1.7-2.2
	c0.3-2.1,0.7-4.4-0.4-6.4c-1.3-1.1-0.7-2.4-0.6-3.7c0.6-9,2.2-17.9,2.3-27c0.1-6.9-2.9-11.3-9.2-13.8c-1.8-0.7-3.7-1.2-5-2.6
	c-0.8-1.3-0.8-2.8-0.7-4.2c0.4-10.7-1.2-21-7.3-30.2c-0.2-0.4-0.3-0.8-0.3-1.3c0.7-2.3-8.6-4.9-7.8-7.1
	c-6.2-6.8-19.1-11.1-23.9-16.4c-1.9-2.1,4.5-1.6,2.7-3.6c-1.3-1.4-22.7-7,22.1-7.9c1.3-0.4,2.7-0.4,4-0.4
	c13.1-0.3,26.3,0.6,39.4-0.6c1.8-0.2,3.6-0.2,5.3,0.4c1.3,0.7,1.5,1.9,1.5,3.1c0.1,8.4,0.2,16.7-4.2,24.5
	c-3.2,5.6-4.8,11.9-4.5,18.5c0.1,1.2-0.5,3.1,1.2,3.4c1.7,0.3,2.2-1.5,2.9-2.8c0.7-1.2,0.3-3.2,2.4-3.5c0.9,0.9,0.8,2,0.9,3.1
	c0,4.5-1.1,8.9-1.6,13.3c-0.2,1.8,0,3.1,2.2,3.1c0.3,0,0.6,0.1,0.9,0.2c1.4,2.4,3.2,1.4,4.9,0.6c0.3,0,0.6,0.1,0.9,0.3
	c1.3,1.4,2.3,0.9,3.2-0.4c0.7-0.9,1.1-2.2,2.6-2.3c0.3,0.1,0.5,0.3,0.6,0.6c0.3,0.8,0.9,1.4,1.4,2.1c2.3,0.6,1.5,2.5,1.5,3.9
	c0,40,0,80.1,0,120.1c-12.6,0-25.3,0-37.9,0c-0.9-1-1.1-2.2-1.1-3.4c0.2-10-1.2-20.1-0.7-30.1c0.1-1.2,0-2.4,0.4-3.6
	c0.7-1.7,2.3-1.9,3.8-2.3c3.4-0.7,6.7-1.9,9.9-3c6-2.2,6.6-3.1,6.3-9.5C983.4,417.5,984.6,416.8,984.8,415.8z"/>
<path class="st3" d="M236.9,410c-1.7-2.2-4.3-1.5-6.4-1.9c-3.1-0.6-5.9-5-4.7-7.8c0.6-1.4,2-0.9,3-0.8c9.5,1.5,19,3,28.5,4.6
	c11.3,1.8,22.5,3.6,33.8,5.3c17.8,2.6,35.5,5.7,53.4,8.1c12,1.6,23.8,4,35.8,5.7c10.3,1.5,20.6,3,30.8,4.7c1.4,0.2,2.9,0.5,4.2-0.5
	c0.5-0.6,1.1-0.7,1.8-0.6c10.4,1.8,20.8,3.2,31.2,4.8c11.2,1.7,22.4,3.5,33.6,5.1c9,1.3,17.9,2.7,26.9,4.2
	c9.3,1.5,18.6,2.9,27.9,4.4c10.9,1.8,21.9,3.4,32.8,5.1c12.1,1.8,24.1,3.7,36.2,5.6c13.8,2.2,27.7,4.3,41.5,6.4
	c10.7,1.7,21.5,3.4,32.2,4.9c4.3,0.6,8.6,1.4,13,2c0.7,0.1,1.3,0.4,1.2,1.2c-31.6,0-63.2,0-94.8,0c-0.6-0.6-0.8-1.3-0.9-2.1
	c-0.3-3.1-2.9-2.5-4.8-2.8c-2.1-0.3-2.1,1.4-2.2,2.8c-0.1,0.8-0.3,1.5-0.9,2.1c-3.6,0-7.2,0-10.8,0c-0.8-1-0.6-2.1-0.5-3.2
	c0.2-3.6-0.1-4-3.6-4.6c-11.3-1.7-22.6-3.6-34-5.3c-6.1-0.9-12.2-2-18.3-2.8c-0.9-0.1-1.7-0.5-2.6-0.6c-1-0.1-2-0.2-2.7-1.1
	c-6.2-1.7-12.5-2.4-18.8-3.3c-12.4-1.7-24.9-2.8-37.3-4.2c-9.4-1.9-18.8-3.2-28.3-4.7c-2.4-0.4-4.9-0.6-7.3-1.3
	c-1.8-0.2-3.7-0.3-5.5-0.6c-13.1-2.4-26.4-4.1-39.6-6.2c-10.3-1.6-20.6-3.3-30.9-4.9c-15.3-2.4-30.6-4.7-45.9-7
	c-1.4-0.2-2.9-0.4-4.3-0.7c-6.3-1.1-12.5-2-18.8-2.9c-6.4-1-12.8-2-19.1-3.1C253.3,412.9,245.1,411.7,236.9,410z"/>
<path class="st4" d="M299.3,419.4c12.3,1.8,24.5,3.6,36.8,5.6c4.5,0.7,9.1,1,13.5,2.3c0.8,1,2.1,0.4,3,1.1
	c7.5,2.8,11.8,8.4,13.9,15.8c0.5,1.7,1.1,3.3,1.5,5.1c0.8,6.1,1.8,12.1,0.8,18.3c-0.2,1.1-0.3,2.2-1.1,3c-14.2,0-28.4,0-42.7,0
	c-1.6-2.9-1.3-6.2-1.6-9.3c-0.2-1.6-0.4-3-1.7-4.1c-1.6-1.7-3.7-2.4-5.9-3.1c-4.8-1.5-9.6-3.3-14.4-4.7c-2.3-0.7-3.5-2.1-3.8-4.5
	c-0.6-4.3-0.9-8.6-0.2-12.9c0.5-3,0.4-5.9,0-8.9C297.3,421.4,297.2,419.9,299.3,419.4z"/>
<path class="st5" d="M119.3,470.6c-1.5-27.1-0.7-54.1,2.2-81c0.6-0.8,1.5-1,2.4-0.9c10.3,0.4,20.6,1.2,30.9,1.1
	c0.8,0,1.6,0.2,2.3,0.6c1.4,1.1,1.2,2.6,0.9,4c-4.5,24.1-7.5,48.5-12.3,72.6c-0.3,1.4-0.6,2.8-1.9,3.8
	C135.5,470.6,127.4,470.6,119.3,470.6z"/>
<path class="st6" d="M204,388.8c-0.6,19.2-1.3,38.3-1.8,57.5c-0.2,8.1-0.2,16.2-0.3,24.3c-8.6,0-17.2,0-25.7,0
	c-1.1-1.1-1.3-2.6-1.4-4c-2.2-18.4-5.2-36.7-5.9-55.2c-0.2-5.4-0.6-10.8-0.5-16.3c0-1.5-0.1-3.1,0.7-4.5c1.3-1.6,3.2-1.6,5-1.5
	c8.9,0.2,17.7-0.6,26.6-1.1C201.9,387.8,203.1,387.7,204,388.8z"/>
<path class="st7" d="M299.3,419.4c-0.5,0.7-1.4,1.2-1.1,2.3c1.2,5.4-0.2,10.8,0,16.2c0.1,2.6,0.4,5.3,0.5,7.9c0,1.8,1.4,2.1,2.6,2.5
	c5.7,1.9,11.5,3.8,17.2,5.6c1.6,0.5,3.2,1,4,2.8c1.3,4.7,1.9,9.3-0.1,13.9c-2.5,0-5,0-7.4,0c-1.8-2.6-0.9-5.6-1-8.4
	c-0.2-5.4-0.1-5.4-5.2-6.6c-2.3-0.5-4.6-0.9-6.9-1.5c-2.1-0.6-2.9,0.1-2.8,2.2c0.1,3.5,0,7.1,0,10.6c0,1.3,0,2.7-1,3.7
	c-6.1,0-12.2,0-18.3,0c-1.1-1.2-1-2.7-1-4.1c0-4.3-0.1-8.6,0-12.9c0-2.5-0.9-3.9-3.5-4.4c-4.5-0.8-9-2-13.4-3.2
	c-2.3-0.6-3.3,0-3.6,2.3c-0.9,6-2.1,12-3.2,18c-0.3,1.5-0.5,3.1-1.7,4.3c-2.5,0-5,0-7.4,0c1.1-6.5,2.2-13,3.3-19.5
	c0.1-0.8,0.2-1.5,0.4-2.3c1.2-4.2,1.2-7.3-3.5-10.2c-6.4-3.9-7.7-11-8.4-18c-0.3-3.5-0.6-7-0.9-10.6c1.8-1.7,3.6-0.1,5.3,0.1
	c6.4,0.8,12.8,2.1,19.2,3.3c-0.1,6.9,1.7,13.4,5.2,19.2c2.2,3.7,6.5,5,10.5,6.1c2,0.5,1.7-1.3,1.7-2.4c0-5.8,0-11.5,0-17.3
	c0-1.1-0.8-3,1.7-2.6C286.8,417.5,293.1,418.5,299.3,419.4z"/>
<path class="st8" d="M367.2,448.7c-1.5-3.1-1.9-6.5-3.4-9.6c-2.5-5-6.9-7.9-11.6-10.5c1.2-0.7,2.4-0.4,3.6-0.2
	c19.7,3.3,39.5,6.2,59.3,9.1c5.3,0.8,5.3,0.9,4.6,6.1c-1.1,7.7-2.5,15.3-3.5,22.9c-0.2,1.5-0.6,2.8-1.6,3.9c-13.3,0-26.6,0-40,0
	c-1.2-1.3-1-2.9-1-4.4c0-4-0.1-7.9,0-11.9c0.1-2.4-0.5-4.1-3.4-4.2C369.1,450.1,368,449.6,367.2,448.7z"/>
<path class="st9" d="M169.4,390.7c-0.3,22.3,2.1,44.4,5.2,66.4c0.6,4.5,1,9,1.5,13.5c-10.8,0-21.7,0-32.5,0
	c2.7-12.4,4.7-24.9,6.8-37.4c2.1-13,4.3-26.1,6.5-39.1c0.2-1.1,0.2-2.2,0.4-3.3C161.3,388.9,165.3,389.2,169.4,390.7z"/>
<path class="st10" d="M984,417.9c2,4.7,0.4,8.4-4.2,10.2c-5,2-10,3.8-15.4,4.5c-0.7,0.8-1.2,2-2.6,1.9c-4.6-0.5-8.7,1.7-13,2.8
	c-3.4,0.9-6.9,1.5-10.1,3.1c-1.7,1.9-4.1,2-6.3,2.7c-3.1,1-6.2,1.7-9.3,2.7c-6.5,1.7-12.9,3.9-19.3,5.6
	c-18.7,5.5-37.5,10.9-56.2,16.7c-3.4,1.1-6.9,1.7-10.5,2.3c-10.8,0-21.7,0-32.5,0c0-1.6,1.5-1.6,2.4-1.9c18.5-5.4,37-10.9,55.5-16.3
	c16.5-4.8,32.9-9.5,49.4-14.3c22.6-6.6,45.1-13.2,67.7-19.9C980.9,417.9,982.4,416.7,984,417.9z"/>
<path class="st11" d="M903.6,450.8c6.4-1.9,12.9-3.8,19.3-5.6c1.8,0.2,1.1,1.6,1.1,2.5c0,4.6,0,9.3,0,13.9c0,3.9,0.4,4.1,4,2.2
	c8.2-4.2,11.7-11.3,12.9-19.8c0.2-1.6-1.1-2.6-1.1-4.1c6.2-2.6,12.8-3.9,19.2-5.9c1.4-0.4,2,0.4,1.8,1.5c-1.1,8.6-1.5,17.4-5.5,25.4
	c-2.2,4.4-6.2,6.9-10,9.6c-13.5,0-27.1,0-40.6,0c-0.8-0.9-1-1.9-1-3.1C903.7,461.9,903.9,456.4,903.6,450.8z"/>
<path class="st12" d="M425.4,438.6c9.8,1.6,19.6,2.9,29.3,4.8c2.2,0.4,5-0.8,6.6,1.9c0.8,0.7,1,1.7,1,2.7c0.2,6.8,0.1,13.7-0.8,20.5
	c-0.1,0.8-0.4,1.5-1,2.1c-11.1,0-22.1,0-33.2,0c-1.7-2.3-1.3-5.1-1.5-7.7c-0.6-6.5-0.9-13-1.5-19.5
	C424.2,441.7,424.2,440,425.4,438.6z"/>
<path class="st13" d="M693.6,470.6c-6.5-1.1-13-2.3-19.5-3.3c-18.2-2.9-36.4-5.7-54.6-8.5c-20.8-3.2-41.5-6.3-62.3-9.5
	c-19.2-3-38.4-6.1-57.6-9.1c-18.1-2.8-36.2-5.5-54.3-8.2c-10-1.5-20-3-30-4.5c-13.1-2-26.2-4.1-39.3-6.1c-9.5-1.4-19.1-2.6-28.7-4.1
	c-7.8-1.2-15.5-2.7-23.3-3.9c-9.5-1.5-19.1-2.7-28.7-4.1c-7.2-1.1-14.4-2.5-21.7-3.6c-8-1.3-16.2-2.2-24.1-3.7
	c-7.9-1.5-15.9-2.6-23.8-3.9c-0.7-0.1-1.4-0.5-1.3-1.2c0.3-1.3,1.2-0.4,1.8-0.3c9.5,1.4,18.9,2.8,28.4,4.2
	c7.6,1.3,15.2,2.7,22.9,3.9c19.6,3.1,39.3,6.2,58.9,9.2c21,3.2,42,6.3,63,9.5c19.7,3,39.3,6.1,59,9.1c19.3,3,38.7,5.9,58,8.8
	c17.7,2.7,35.3,5.5,52.9,8.3c18.2,2.8,36.4,5.6,54.6,8.4c20.8,3.2,41.5,6.5,62.3,9.7c5.6,0.9,11.3,1.2,16.8,2.8
	C699.9,470.6,696.7,470.6,693.6,470.6z"/>
<path class="st14" d="M522,453.9c8.6,0.7,17.1,2.4,25.6,3.7c9.2,1.4,18.3,2.9,27.5,4.3c5.3,0.8,5.3,0.7,4.5,5.8
	c-0.2,1-0.4,2-0.5,2.9c-18.1,0-36.1,0-54.2,0c-1-0.5-1.4-1.3-1.6-2.4c-0.6-3.7-1.3-7.3-2-11C521.2,456.1,520.8,454.8,522,453.9z"/>
<path class="st15" d="M903.6,450.8c1.3,0.7,1.3,1.9,1.2,3.1c0,5.6,0,11.1,0,16.7c-22.6,0-45.1,0-67.7,0c12.2-4.4,24.8-7.5,37.2-11.3
	C884.1,456.3,893.9,453.6,903.6,450.8z"/>
<path class="st9" d="M460.6,470.6c0.5-8.4,0.8-16.8,0.7-25.3c3-1.8,6.1-0.5,8.9,0.2c10.2,2.3,20.7,1.5,30.8,3.8
	c5.9,1.3,11.9,2,17.9,2.9c-0.1,0.1-0.3,0.3-0.4,0.4c-0.3,0.1-0.7,0.1-1,0.1c-1.4,1.2-2.9,0.8-4.5,0.5c-7.1-1.1-14.2-2.3-21.2-3.5
	c-3.7-0.6-4-0.4-3.6,3.3c0.4,4.2,0.5,8.4,1,12.5c0.2,1.7,0.6,3.5-0.7,5.1C479.1,470.6,469.9,470.6,460.6,470.6z"/>
<path class="st14" d="M488.4,470.6c-0.7-7.1-0.7-14.3-1.9-21.4c-0.2-1.3,0.3-1.3,1.2-1.2c8.5,1.4,16.9,2.8,25.4,4.2
	c1.4,0.2,2.9,0.3,4.3,0.5c1,0.3,1.9,0.5,2.9,0.8c2.1,3,1.6,6.7,2.5,10c0.6,2.3,1.2,4.7,0.8,7.1C511.8,470.6,500.1,470.6,488.4,470.6
	z"/>
<path class="st9" d="M253.4,470.6c1.4-8.2,2.8-16.4,4.2-24.7c0.2-1.3,0.7-1.7,2.2-1.3c6.2,1.5,12.4,2.9,18.5,4.3
	c1,0.2,1.8,0.6,1.8,1.9c-0.2,6.6,0.3,13.2-0.3,19.8C271,470.6,262.2,470.6,253.4,470.6z"/>
<path class="st16" d="M945.5,470.6c-0.3-0.9,0.3-1.5,1-1.9c7.6-4,10.3-11,11.6-18.7c0.9-5.2,1.5-10.4,2.3-16
	c-6.9,2.1-13.6,4.1-20.2,6.1c-0.4,0.3-0.8,0.3-1.2,0.1c-0.8-0.8,0.1-0.8,0.5-0.9c6.4-1.9,12.9-3.9,19.4-5.7c1.8-0.5,3.9,0.7,5.6-0.9
	c-0.4,12.7,0.9,25.3,0.7,37.9C958.6,470.6,952,470.6,945.5,470.6z"/>
<path class="st13" d="M984,417.9c-9.4,2.2-18.5,5.3-27.7,8c-41.3,12-82.7,24-123.9,36.1c-9.3,2.7-18.7,5.1-27.7,8.6
	c-1.8,0-3.6,0-5.4,0c9.2-3.5,18.7-5.9,28.1-8.6c51.5-15.1,103.1-30.1,154.6-45.2c1-0.3,1.9-0.6,2.9-1
	C986.3,417.1,984.1,417.2,984,417.9z"/>
<path class="st9" d="M298.1,470.6c0-6,0-11.9,0-18.3c5.3,1.1,10.3,2.2,15.4,3.3c1.4,0.3,1.6,1.2,1.5,2.4c-0.1,4.2,0,8.4,0,12.6
	C309.4,470.6,303.7,470.6,298.1,470.6z"/>
<path class="st9" d="M425.4,438.6c0.7,10.6,1.4,21.3,2,31.9c-3.8,0-7.7,0-11.5,0c-1.1-1.2-0.4-2.6-0.3-3.8c1.3-8.7,2.8-17.4,4-26.1
	c0.1-0.8,0.3-1.5,1.1-2C422.3,438,423.8,439,425.4,438.6z"/>
<path class="st17" d="M367.2,448.7c7.3,0.7,7.3,0.7,7.3,7.7c0,4.7,0,9.4,0.1,14.2c-2.3,0-4.5,0-6.8,0
	C368.6,463.3,368.3,456,367.2,448.7z"/>
<path class="st18" d="M420.8,438.6c-1.9,10.6-3.9,21.2-4.9,31.9c-0.5,0-0.9,0-1.4,0c1.6-9.6,3.1-19.3,4.7-28.9
	c0.3-1.6,0.2-2.8-2.2-3.1c-11.4-1.6-22.7-3.4-34.1-5.2c-9.3-1.5-18.5-3-27.8-4.5c-1-0.2-2-0.1-3-0.2c-0.9-0.2-2-0.4-2.8-0.8
	c-1.3-0.6,0.3-0.4,0.3-0.7c11,1.7,21.9,3.4,32.9,5c11.3,1.7,22.6,3.4,33.9,5.1C417.9,437.6,419.5,437.5,420.8,438.6z"/>
<path class="st19" d="M590,470.6c0-6,0-5.7,6-5.4c4.9,0.2,2,3.6,2.8,5.4C595.8,470.6,592.9,470.6,590,470.6z"/>
<path class="st20" d="M322.5,470.6c0-4.6,0-9.3,0.1-13.9c1.6,0.3,1.6,1.7,1.8,2.8c0.4,3.7,0.6,7.4,0.9,11.1
	C324.3,470.6,323.4,470.6,322.5,470.6z"/>
<path class="st21" d="M523.6,470.6c-1.1-5.7-2.2-11.4-3.3-17.2c0.7-0.2,1.3,0,1.8,0.4c0.5,5.7,1.6,11.2,2.9,16.7
	C524.5,470.6,524,470.6,523.6,470.6z"/>
<path class="st22" d="M346,379.3c-0.6,2.2-2.1,2.8-4.4,3c-18.9,1.5-37.7,1.3-56.6,0.4c-4.3-0.2-8.8-0.2-12.9-2
	c-1.1-0.5-2.2,0.4-3.2-0.1c-5.5-2.5-7.9-7.2-8.8-12.6c-1.4-8.3-1.2-16.7-0.6-25.2c0.6-7.7,1.1-15.5,2.4-23.1
	c0.5-3.2,1.1-6.3,2.2-9.4c0.2-0.3,0.4-0.5,0.8-0.6c-3.6-0.8-1.6-1.9-0.2-3.1c1.2-1.1,1.4-2.7,1.9-4.2c1.6-4.5,2.9-9.1,5.2-13.3
	c3.8-6.6,9.6-11,16.3-14.4c3.2-1.6,6.6-2.9,9.5-5.1c1.9-1.4,4.7-0.8,6.6-2.2c4.7-1.1,9.3-2.9,14.2-2.5c1.7,0.9,2.4,2.6,3.2,4.1
	c5.2,9.2,13.2,15.9,20.6,23.1c1,0.9,2.4,1.8,3.1-0.3c1.5-4.8,5.5-8,8.3-12c1.3-1.2,2.4-2.7,4.1-3.5c14.5-0.7,20.3-12.4,22.5-22.3
	c0.3-1.5,0.5-3.1,1.2-4.5c0.6-1,1.7-1.4,2.6-2.1c4.6-3.3,5.1-11.2,0.9-15c-0.7-0.6-1.4-1.1-1.7-2c-0.6-2.6-0.4-5.2-0.1-7.8
	c0.3-1.1,0.6-2.1,0.5-3.3c-0.2-2.7,0.5-4.9,2.6-6.8c2-1.8,2.4-4.2,1.7-6.7c-1.4-4.8-1.7-8.3-1.1-13.5c-0.3,1.9-0.2,3.9-0.2,5.8
	c-0.1,3.3-0.8,3.8-3.8,2.1c-5.3-2.8-10.7-5.3-16.4-7c-4.3-1.3-8.7-2.3-13.2-2.6c-1.4-0.1-2.7-0.3-3.5-1.6c-0.6-4.6,0.2-9,2.5-13
	c3.7-9.4,10.6-15.7,19.6-20.3c9.1-4.6,18.6-8,28.4-10.7c2.2,0.6,2.8,2.7,4.1,4.2c3.4,4.1,7.4,7.3,12.9,8.4
	c7.9,1.6,14.1-1.5,17.4-8.9c0.2-0.6,0.4-1.2,1.2-1.4c2,2,4.7,1.7,7.1,2.3c11,2.9,21.4,6.7,29.3,15.2c3.7,3.9,6.5,8.4,9.3,13
	c2.3,3.9,4.9,7.7,8.1,11.3c3.4-6.9,6.8-13.7,10.1-20.5c1.9-4,3.9-7.9,5.6-12c0.9-2,2-2.7,4-1.8c0.7-0.5,1.5-0.5,2.3-0.3
	c6.5,1.8,13.1,3.1,19.6,5c1,0.3,1.9,0.6,2.6,1.4c1.1,0.4,2.3,0.4,1.6,2.4c-6.7,18.4-13,37-22.1,54.5c-4,7.6-10,12.7-19.1,13.4
	c-6.8,0.5-12.5-2-17.8-5.8c-4.4-3.1-8.2-6.9-11.9-10.8c-0.6-0.7-1.1-2.1-2.3-1.5c-0.5,0.3-0.7,1.5-0.8,2.4c-0.7,7-1.5,14.1-2,21.1
	c-0.6,7.9-0.9,15.9-1.2,23.9c-0.1,1.9-0.4,2.8-2.7,3.1c-8.6,1.1-17.3,1.7-26,2c-7,0.3-14,0.3-21,0c-5.3-0.3-10.7,0-16-0.9
	c-2.5-0.4-4,0.4-3.6,3.3c0.7,5.5,0.7,11,0.7,16.5c-1.7,2-4.4,1.2-6.5,2.3c3.8,6.2,7.3,12.5,10.7,18.9c4.6,8.8,8.5,18,12.2,27.2
	c1,2.5,2.4,4.2,5.1,5.2c4.6,1.7,9.1,3.8,13.5,6.1c1,0.5,2.1,0.9,2.7,2c0.1,0.2,0.2,0.4,0.2,0.6c-1.4,7.7-3.4,15.2-6,22.6
	c-0.1,0.4-0.5,0.7-0.9,0.9c-4.5,0.6-8.9,1.4-13.5,0.8c-3-3.1-5.1-6.9-8.2-9.9c-5.6-5.5-11.9-8.4-19.9-7.2c-1.4,0.2-2.9,0.2-4.3-0.4
	c-3.4-4.4-7-8.7-7.3-14.6c3.2-10.8,6.3-21.7,7.9-32.9c-1.6,10.2-4.2,20.2-7.2,30.1c-0.4,1.2-1.1,2.5-0.7,3.8
	c-0.7,5.8-2.4,11.3-4.1,16.9c-2.9,2.3-6.3,1.9-9.6,1.9c-4.2,0.1-4.4,0.2-4.4,4.2c0.1,4.2-0.7,8.3-1.5,12.4
	C347.5,377.1,347.2,378.4,346,379.3z"/>
<path class="st23" d="M169.4,390.7c-4,0.1-8,0.1-12.1,0.2c-12,0-23.9-0.5-35.9-1.3c-3.8-0.5-7.6-1-11.4-1.3
	c-1.8-0.1-2.3-0.7-2.1-2.4c1.4-19,2.4-38,4-57c1.4-16.1,3.2-32.3,7.9-48c1.5-5.1,3.6-10,6.9-14.2c0.1-0.3,0.2-0.7,0.6-0.7
	c4.9-0.6,9.7-1.9,14.5-2.7c2.8,1.4,5.6,1.1,8.4,0.2c1.1-0.3,2-1,3.1-0.2c1.8,1.1,3.8,1.4,5.8,1.3c11.9-0.2,23.8,0.6,35.7-0.5
	c1.4-0.1,2.9-0.2,4.1,1c7.3,14.9,9,31,11.1,47.1c1.7,13.1,3.6,26.2,5.2,39.4c1.3,10.8,2.4,21.7,3.6,32.6c0.2,1.8,0,2.7-2.3,2.9
	c-4.2,0.4-8.4,1.2-12.6,1.8C192.5,389.5,180.9,390.1,169.4,390.7z"/>
<path class="st24" d="M986.9,283.5c-16.7,1.1-33.4,1.1-50.1,0.8c-0.7-0.4-30.7,1.6-30.8,0.9c-1.3-7.3,11.6-18.3,5.6-22.2
	c-1.7-1.1,8,2.1,7,0.1c-0.2-1.2,0.2-2.4,0.5-3.6c1.5-6.4,2-12.9,1.7-19.4c-0.3-6.5-2.4-12.5-6.8-17.3c-2.7-3-3.6-6.1-2.9-9.7
	c1-5.6,0.4-11.2,0.9-16.8c0-0.3,0.1-0.6,0-0.4c0.1,2.7-0.6,5.8-0.3,8.9c0.3,3.6-0.7,7-0.8,10.6c0,2.6-1.8,2.1-3.3,1.4
	c-3-1.3-5.9-2.7-9.1-3.6c-1.6-0.5-3.3-0.8-4.9-1.1c-1.2-0.2-2.5-0.3-3-1.8c2.1-9.5,3.9-19.2,8-28.2c3.9-8.5,10.2-14.3,18.9-17.8
	c5.3-2.1,10.6-4,16.2-5.2c1.5,0.6,1.8,2.2,2.5,3.4c2.7,4.5,6.8,6.4,11.9,5.5c7.4-1.3,12.9-5.3,17.1-11.3c0.7-1.1,1.1-2.5,2.6-2.9
	c13.1,2.5,25.8,5.9,36.6,13.9c8.9,6.5,12.8,15.9,14.7,26.3c1.9,9.9,2.4,19.9,2.9,30c0.1,2.6-0.6,3.6-3.2,3.4c-2.9,2.2-6.4,1.7-9.7,2
	c-5.6,0.6-11.2,0.9-16.9,0.8c-4.4,0-4.6,0.6-4.6,4.8c0.1,14.7,1.3,29.4,0.8,44.2C988.5,280.7,988.7,282.5,986.9,283.5z"/>
<path class="st25" d="M821,166.5c2.6,2.3,5.4,4.5,7.8,7.1c7.5,7.9,10.3,17.9,12.4,28.1c3.5,17,4.7,34.2,2.7,51.4
	c-1.2,11-4,21.7-6.4,32.4c-0.4,1.9-0.9,3.8-1.4,5.8c-0.2,0.7-0.8,0.7-1.4,0.7c-6.7-0.4-13.1-2.1-19.6-3.4c-4.8-2.9-5.2-3.7-4.3-9.2
	c0.6-3.7,1.2-7.4,1.7-11.2c0.4-3.4,0-4-3.5-3.6c-5.4,0.6-10.8,0.5-16.2,0.6c-12.3,0.3-24.5-0.9-36.6-2.6c-1.6-0.4-2.4-1.5-2.5-3.1
	c-0.1-2.8-0.8-5.6-0.4-8.5c1.2-7.9,1.2-15.9-1.2-23.6c-3.3-11.1-2.7-22.2-1.1-33.4c-1.7,11.2-2.3,22.3,1.1,33.3
	c2.2,7,1.8,14.2,1.7,21.4c0,0.8-0.4,1.5-0.6,2.2c-1,2.8-3.4,2.1-5.4,1.9c-7.5-0.5-13.7-4-19.2-8.7c-4.7-4-8.5-8.8-12.2-13.7
	c-2.1-2.9-2-3.6,1-5.9c6-3.6,10.5-8.4,12.5-15.2c0.1-0.3,0.4-0.4,0.8-0.3c2.7,2.8,6.3,3.9,10,6.2c-0.1-8.7,1.4-16.6,3.7-24.3
	c2.8-9.6,6.8-18.5,16.6-23.5c2.7-1.4,5.5-2.6,8.4-3.2c1,0.7,1.2,1.8,1.5,2.9c1.1,3.8,3.9,5.6,7.8,5.7c8.6,0,15.7-3.1,21.1-9.8
	c0.7-0.9,1.2-1.9,2.3-2.4c0.6-0.3,1.3-0.4,2-0.3C809.9,161.8,815.7,163.6,821,166.5z"/>
<path class="st26" d="M638.1,366.2c-6,4-12.6,6.4-19.7,7.6c-6.2,1.1-12.5,2.2-18.8,2.4c-0.7,0.2-1.8,0.6-2.1-0.2
	c-0.3-1.2,1-1.2,1.8-1.3c6.3-1,12.7-1.7,19-2.8c2.9-0.5,5.6-1.7,8.5-1.7c-3.8-0.1-4.7-0.8-5.5-4.6c-1.2-5.2-2.8-10.2-6.1-14.6
	c-0.6-0.7-1.1-1.5-2-1.6c-3.9-0.4-7.8-1.1-11.5,1.2c-3.8,2.4-7.5,4.9-11.5,6.9c-2.4,1.2-4.8,3-7.9,2c-13-1.5-26.2-1.8-39.3-2.2
	c-1.1,0-2.2-0.4-3.3-0.6c-1.5-1.6-1.5-3.6-1.7-5.6c-0.5-3.2-1.1-6.3-1.4-9.5c-0.4-5.9-1.7-11.8-1.4-17.8c0.1-3,0-6,0.8-8.9
	c0.7-2.6-0.1-4.7-2.8-5.6c-1.9-0.7-2.1-1.9-1.8-3.6c0.7-3.4,1.4-6.9,2.1-10.4c-0.8,3.7-1.6,7.3-2.2,11c-0.2,1.3-0.9,2.4-2.3,2.6
	c-5.1,0.5-10.3,0.7-15.4-0.2c-0.3-0.1-0.5-0.4-0.7-0.7c3.8-12.5,7.2-25.1,15.2-35.9c2.1-2.8,5.2-4.5,7.5-7c4.6-3.6,9.7-6.2,15.6-7
	c0.3,0.3,0.6,0.7,0.6,1.2c-0.1,5.6,3.2,9.4,7.5,12.1c4.5,2.8,9.6,2.1,14.3,0.6c8-2.6,15.1-6.8,20.4-13.4c0.9-1.1,1.7-2.4,3-3.1
	c7,1.1,13.5,3.7,19.7,7.1c1.4,0.8,2.6,1.8,4.1,2.3c12.2,11.3,16.5,26,18.5,41.7c0.2,1.9,0.7,3.7,0.8,5.6c1.8,8.4,1.9,16.9,2,25.4
	c0.1,7.6,0.8,15.3-1,22.8C640.9,362.5,640.7,365,638.1,366.2z"/>
<path class="st27" d="M352.3,176c-0.6,4.4-2,8.7-2.1,13.1c-2,1.4-4.4,0.8-6.5,1.4c-0.5,0.2-1.1,0.1-1.7,0.2
	c-13.7,1.8-19.9,8.4-20.6,22c-0.1,1.2,0,2.4-0.3,3.6c-0.6,2.4-0.6,4.9,0,7.3c0.2,1.1,0.3,2.1,0.1,3.2c-0.3,1.3-1.1,2.4-1.4,3.7
	c-1,4.2-0.7,8.1,2.8,11.2c1,0.9,1.9,1.9,2,3.3c0.3,2.2-0.7,4.3-0.7,6.5c-0.7,3.7-1.7,7.4-2.8,11c-0.4,1.2-0.6,2.7-2.2,3
	c-5.1,0.1-9.8,1.9-14.7,2.8c-4.6,1.2-9.3,1.2-14,1c-9.2-0.4-18.4-0.9-27.4-2.5c-1.5-0.3-2.9-0.5-3.9-1.7c-1.4-2.5-0.6-5.2-0.4-7.8
	c0.7-10.8,1.1-21.6,2.4-32.4c-2.1,4-4.9,7.3-9,9.4c-6.1,3.1-12,2.6-17.6-0.8c-5.7-3.5-9.1-8.7-10-15.4c-0.6-0.7-0.6-1.5,0-2.2
	c0-16.3,1.9-32.3,6.9-47.9c0.2-0.6,0.5-1.2,0.8-1.8c1.3-0.5,2.4,0,3.6,0.4c5.8,2,11.7,3.8,17.9,3.5c0.8,0,1.6,0,2,0.9
	c-0.1,8.3-0.3,16.6-0.9,24.8c-0.3,3.8-0.1,7.5-0.2,11.3c-0.1,1.7,0.2,3.3-0.3,4.9c-0.1-15.2,2-30.3,1.3-45.4c0-1.3,0-2.6,1.2-3.5
	c9.2-5.4,19-9.5,29.4-11.9c1.2,0.3,1.6,1.5,2.2,2.4c5.1,7.2,12.3,9.6,20.8,8.8c4.9-0.4,7.7-3.1,8.7-7.8c0.2-1,0.3-2,1.2-2.7
	c0.3-0.2,0.6-0.3,1-0.1c2.6,1.8,5.9,1.9,8.8,2.7c6,1.7,11.8,4,16.6,8.3C349,166.4,351.6,170.6,352.3,176z"/>
<path class="st28" d="M944.8,318.4c7.7,10.8,8.8,23.1,8,35.7c1.1,5.8-0.3,11.3-1.3,16.9c-0.4,2.3-2.5,1.6-4.1,1.4
	c-8.9-1.5-17.8-2.6-26.8-2.8c-2.9-0.1-3.8,0.9-4.2,3.4c-0.7,4-1.2,8.1-1.9,12.1c-0.8,3.9-1.4,4.7-5.4,5.1
	c-13.3,1.3-26.6,3.4-39.8,5.6c-7.9,1.3-15.1-1.3-22.2-4.3c-1.2-3.1-1.1-6.5-1.6-9.7c-0.7-4.8-1.1-9.6-1.8-14.4
	c-0.3-1.9-0.2-3.7,0.5-5.5c-1.1-10.6,0.4-20.9,3.4-31.8c-3.1,10.7-4.3,20.8-3.6,31.2c0.1,1.7-0.9,2.1-2.4,2.1
	c-3.6-1.4-6.5-4-9.2-6.6c-4.7-4.3-9.7-8.3-14.1-12.8c-0.9-1.4-0.1-2.5,0.7-3.6c1.6-2.1,3.2-4.2,4.7-6.3c2.2-2,3.5-4.7,5.5-6.9
	c2.7-1.7,4-4.6,5.8-7.1c1.1-1.5,1.9-3.3,4-3.7c5.6-6.3,12-11.4,19.9-14.6c3.7-1.5,7.6-2.4,11.5-3.4c1,1.2,0.7,2.7,0.7,4.1
	c0.3,6.4,3.5,9.5,10,9.5c8.8,0,15-4.4,19.9-11.1c0.8-1.2,1.2-2.6,2.4-3.6c2.4-1.6,4.9-0.7,7.3-0.3c4.2,0.9,8.2,2.6,12.2,4
	c7.2,3.2,13.8,7.3,19.1,13.1C943.3,315.3,944.7,316.5,944.8,318.4z"/>
<path class="st7" d="M620.8,265.4c-0.4,0.2-0.8,0.3-1.2,0c-6.6-5-14.4-7.2-22.2-9.6c-5-1.4-8.9-5.8-9-10.7c-0.1-5.2,0-10.4,0-15.6
	c0-2.3,0.9-3.7,3.3-4.2c5.9-1,7.9-6.5,6.5-11.9c-1.2-4.4-6.4-5.6-9.2-2c-2,2.5-3.7,1.9-5.7,0.5c-10.4-7.8-20.8-15.6-28.1-26.6
	c-1.1-1.7-2-1.4-3.2-0.3c-6.8,6.1-13.6,12.1-14.7,21.9c-0.1,1-0.2,2-1.3,2.5c-0.9-6.1-1.8-12.2-0.1-18.3
	c3.5-12.3,12.7-18.5,24.6-21.1c9.2-2,18.3-0.9,26.8,3.4c3.8,0.3,5.9,3.3,8.7,5.4c2.3-4.2,3.3-8.7,4.6-13.1c0.5-1.8,0.9-3.7,2.1-5.2
	c5.6-2.7,11.6-4.4,17.6-6c0.7,0.4,1,1.2,1.2,1.9c2.8,8.5,8.8,9.9,17.3,8.1c6.2-1.3,11.1-4.7,14.3-10.3c1.2-0.4,2.4-0.6,3.3,0.7
	c6.5,2,13.1,3.9,19.2,7.1c0.4,0.8-0.1,1.3-0.6,1.8c-5.2,5.7-6.6,12.8-7,20c-0.8,14.7,0.9,29.2,4.7,43.5c1,3.7,1.5,7.4,1.3,11.2
	c-0.6,3.8-0.3,7.9-2.8,11.2c-4.6,2.1-9.7,2-14.6,2.3c-7.2,0.4-14.4,1.1-21.6,0.9c-4.1-0.1-8.1-0.7-12.1-0.8c-2.7-0.1-3,0.7-2.6,3
	C621.2,258.4,622.3,261.8,620.8,265.4z"/>
<path class="st7" d="M513.1,308.1c5.2,0,10.3-0.1,15.5,0c1.8,0,2.2-0.7,2.4-2.3c0.8-4.7,1.8-9.3,2.8-13.9c1.3,0.3,1.1,1,1,1.8
	c-0.9,4.2-1.6,8.4-2.5,12.6c-0.3,1.3-0.2,1.7,1.2,1.9c3.1,0.5,4.6,2.7,4,5.5c-1.9,8.7-1.1,17.3,0.4,25.9c0.1,0.5-0.1,1.1-0.1,1.6
	c-2.8-0.1-1.7-2.7-2.6-4c-0.4-3.4-1.5-6.8-0.2-9.9c-1.6,8.9-5.2,17.7-7.6,26.8c-1.1,2-1.3,4.3-2.4,6.3c-1.5,5-3.1,10.1-4.5,15.1
	c-0.5,1.6-1,3.1-2.1,4.4c-3.5,3.8-7.8,4.5-12.8,4.4c-20.1-0.2-40.1,0-60.2-0.1c-7.4,0-14.8,0.5-22.2,0.7c-8.8,0.3-17.5-0.5-26.3-0.8
	c-7.9-0.3-15.7-0.5-23.6-1.1c-2.3-0.2-4.5-0.3-6.5-1.2c-0.9-0.8-1.9-1.7-2.8-2.5c-0.2-2.1,1.5-2.9,2.9-3.6
	c6.7-3.2,13.5-5.1,20.4-0.3c1.4,1,3.6,2.6,4.8,0.9c1-1.4-1.5-2.6-2.6-3.6c-2.3-2.1-4.9-3.8-8-4.9c-1.1-0.4-2.9-0.8-2.5-2.2
	c0.5-1.6,2.3-0.7,3.5-0.4c3,0.8,5.4,2.6,7.8,4.5c2.6,2,4.7,4.9,8.8,5c-5.5-3.7-9-9.5-15.2-12c-0.5-0.2-1.1-0.6-0.9-1.2
	c0.2-0.7,1-0.8,1.7-0.9c1.7-0.1,3,0.8,4.3,1.7c5.2,3.5,9.6,7.9,14.1,12.8c0.4-2.5-2.1-3.2-2.1-5c0.1-0.5,0.4-0.9,0.9-1.1
	c1.7,0.1,2.2,1.8,3.6,2.3c4.1,0.5,8.2,0.4,12.2-0.1c1.2-0.2,2.5-0.3,3.2-1.4c2.1-7.9,4.1-15.8,6.2-23.8c-0.3-1.2-0.1-2.4,0.2-3.6
	c2.6-8.9,5-17.9,8-26.7c0.5-1.5,0.9-3,2.5-3.8c2.4-3.6,6-4.2,10-4.2c20.7,0.1,41.3,0.1,62,0.2C510.7,308.2,511.9,308.1,513.1,308.1z
	"/>
<path class="st29" d="M224.1,215.9c0,0.7,0,1.5,0,2.2c-0.6,0.4-1.2,0.8-1.9,1.2c-4.4,3.4-9.3,5.6-15.1,5.1c-0.8-1.6,0.1-3,0.5-4.5
	c0.9-3.5,2.3-6.9,3-10.7c-1.3-0.2-2.7,0.1-3.9-0.5c-1.8-2.8-2-6.2-3.5-9.5c1,2.6,1.6,4.9,2.4,7.2c0.4,1.1,0.2,1.9-0.9,2.5
	c-1.6,0.6-3.3,0.4-5,0.4c-10.2,0-20.5,0-30.7,0c-4.2,0-4.4,0.2-5.3,4.3c-1.4,6.4-2.3,12.8-4.5,19c-0.3,0.4-0.5,0.8-1,0.9
	c-6.1,2.2-11.4,5.8-17.1,8.6c-4.5,2.2-9.9,1.4-14.9,0.3c-0.3-0.3-0.5-0.6-0.5-1c-0.2-2.8,0.8-5.5,0.7-8.3c-0.2-4.2-1-5-5.1-5.5
	c-5.9-0.7-11.8-1.6-17.6-3c-1.3-0.3-2.7-0.5-3.5-1.7c-2.1-0.4-2.8-1.2-2-3.5c3.3-10,6.6-20,10.9-29.6c3.3-7.6,8.3-13.7,15.5-18.1
	c0.1-0.4,0.3-0.9,0.7-1.1c6.1-2.8,12.2-5.4,19-6.2c4.6,3.4,8.8,7.3,14.2,9.4c5.4,2.1,11,3.3,16.9,2.7c5-0.5,8.7-2.9,10.4-7.7
	c0.4-1,0.7-2.1,1.7-2.8c0.7-0.4,1.5-0.5,2.3-0.3c6.2,2.1,12.4,4.3,17.1,9.1c9.3,10.9,12.5,24.2,16.2,37.4
	C223.3,213.6,223.7,214.7,224.1,215.9z"/>
<path class="st30" d="M673.4,238.3c0.2-8.7-3.4-16.8-4.5-25.3c-1.8-12.9-3.2-25.9-0.2-38.8c1.1-4.7,2.7-9.4,7.1-12.3
	c8.1,3.4,13.1,9.7,16.5,17.4c0.7,1.5,1.4,3,2.1,4.5c0.4,1.5,0.1,3,0.2,4.6c-0.2,0.5-0.5,0.8-0.9,1.1c-1.6,0.5-2.7,1.2-1.3,3
	c0.9,1.2,1.9,2.5-0.8,2.9c-1.3,0.2-0.9,1.3-0.6,2.1c0.5,1.3,1.6,2,2.6,2.9c2.4,2.2,5.2,4.3,6.4,7.5c1.5,5.5,1.7,11.2,2,16.8
	c0.7,12.7,0.4,25.5-3.4,37.9c-0.3,1.1-0.6,2.1-0.8,3.2c-2.3,9.3-5,18.3-3.3,28.4c1.5,8.6,0.3,17.5-2.9,25.8
	c-0.8,2.2-1.7,4.3-3.1,6.2c-1.5,1.2-2.5,3.7-5.1,1.6c2.8-5.4,5.1-11.1,5.9-16.7c-1.1,4.9-2.2,10.4-5.4,15.1
	c-1.1,1.5-1.7,3.3-3.4,4.3c-1.4,0.8-2.7,1.6-3.9-0.2c-0.1-2.5,2.2-3.7,2.9-5.8c1.7-4.3,2.9-8.8,3.8-13.3c-0.9,4.5-2.1,9-4,13.3
	c-0.6,1.3-1.1,2.7-2.3,3.6c-1.2,1.2-2.4,2.4-4.3,1.9c-1.5-0.4-2.3-1.3-1.6-2.9c3.2-4.9,4.3-10.6,6-16c0.2-0.6,0.3-1.3,0.3-1.4
	c-1,4.5-2.7,9.5-4.5,14.3c-0.4,1.1-1,2.2-1.9,3.1c-1.1,1.1-2.4,1.3-3.7,0.6c-1.5-0.8-1.7-2.3-1.5-3.8c0.6-4.9,1.3-9.9,2.4-14.7
	c0-2.1,1.3-4,1.1-6.3c0,1.4-0.2,2.6-0.9,3.7c-0.5,2.4-1.1,4.8-2.7,6.7c-1,1.3-2.3,2.2-4,1.8c-1.9-0.5-2.1-2.1-2.2-3.7
	c-0.5-7.3,1.5-14.4,5.1-20.4c4.5-7.4,5.5-15.3,6.2-23.4c0.5-6.3,1.5-12.5,1.6-18.8C672.6,245.4,674.1,242,673.4,238.3z"/>
<path class="st3" d="M437.4,312.2c-4.3,10.7-6.9,21.9-10.1,32.9c-0.1,0.4-0.4,0.8-0.6,1.2c-6.4-2.5-12.2-6-18.7-8.2
	c-1.4-0.5-1.7-1.7-2.1-2.8c-4.1-9.8-8.1-19.5-13-29c2.4-2.3,2.6-5,1.8-8c-0.9-3.2-2.2-6.3-3.7-9.3c-0.5-1.1-1.7-2.2-0.7-3.6
	c0.8-3.3-0.7-6.5-0.3-9.8c0.3-2.5,0.2-5.1,0-7.6c-0.1-2.2,1-2.7,2.9-2.5c12.4,1.4,24.9,1.6,37.4,1.2c8.2-0.3,16.3-1,24.4-2.1
	c3.2-0.5,3.5,1,3.7,3c0.2,2.3,0.5,4.6,0.7,6.9c0.6,7.7,1,15.4,1.4,23.1c0.1,2.1,0.8,4.1,0.8,6.2c0,2.4-0.9,3-3.2,3
	c-4.2-0.1-8.3,0-12.5,0c-3.4,0-6.1,1.3-8.2,3.8C437,311.2,436.9,311.7,437.4,312.2z"/>
<path class="st31" d="M903.5,297.6c-3,9.4-15.3,16.8-25,15.1c-5-0.9-7.8-4-8.1-9.1c-0.1-1.8,0.1-3.5,0.1-5.3
	c0.6-1.1,1.3-2.3,1.9-3.4c0.8-0.8,1.8-0.8,2.8-0.9c4.6-0.4,8-2.7,10.5-6.6c-4.8,2.5-9.3,5.1-14.9,4c-3.6,0-7.2,0.2-10.5-1.5
	c-4.3-2.2-7-5.8-8.5-10.3c-4.2-12.6-3.8-25.3,0-38c1.9,0.4,3.8,0.5,5.8,0.3c-1.7-1.8-3.9,0.2-5.6-1c1.8-4.7,3.6-9.3,5.4-14
	c2.5,0.1,4.5,1.8,7,2.2c5.9,0.9,11.9,1.1,17.8,0.4c0.3,0,0.7-0.1,1-0.1c7.2-0.7,8.4,0.2,8.2,7.4c-0.2,5.4,0.6,10.6,3.5,15.3
	c0.9,1.5,1.8,2.4,3.2,0.5c3.7-4.7,11.5-2.5,13.7,3.6c1.8,4.9,0.2,11.2-4.3,13.9c-3.4,2-4.2,4.5-3.9,7.9c0.1,0.9,0,1.8,0.1,2.7
	C903.7,286.4,904.4,292,903.5,297.6z"/>
<path class="st32" d="M536.1,209.3c0.9-12.4,8.8-20.4,18.2-27.2c7.6,12.6,19,21.3,30.6,29.7c1.3,0.9,2.3,1.2,3.1-0.6
	c1.2-2.7,3.6-3.2,6.2-2.8c2.8,0.4,4.5,2.4,5,4.8c1.6,6.9-2,12.7-8.2,13c-1.6,0.1-1.8,0.7-1.8,2c0.1,5.9,0,11.7,0.1,17.6
	c0,2.1,0.6,4.1,2.6,5.4c1.9,1.3,3.7,2.9,5.5,4.4c-7.3,10.7-17.5,16.9-30.4,18.3c-7.5,0.8-17.3-6.8-15.7-15.8c1.6-2.2,3.9-4,4.4-7
	c0.2-0.9,1.3-1.1,2.3-1.2c4.9-0.2,9.2-2.1,12.6-5c-0.1,0,0.5-0.3,0.3-0.2c-14.3,6-25,2.7-31.5-11.6c-1.5-3.4-2.4-6.9-2.4-10.6
	C536.7,218.3,536.4,213.8,536.1,209.3z"/>
<path class="st33" d="M986.9,283.5c0.7-2.1,0.6-4.4,0.5-6.6c-0.2-13.6-0.4-27.2-0.6-40.8c0-0.3,0-0.7,0-1c-0.5-5.7-0.5-5.8,5.3-5.8
	c9-0.1,18-0.9,26.9-1.9c-0.4,8.3-0.7,16.6-1.5,24.9c-1.3,14.7-3.7,29.2-7.2,43.5c-1.2,4.8-0.8,9.4-0.3,14.1
	c1.3,11.2-0.2,22.1-5.2,32.3c-0.8,1.7-1.9,3.2-3.3,4.6c-1.8,0.5-2.3-0.3-1.8-1.9c1.5-2.5,2.8-5,3.7-7.7c0.8-2.6,1.4-5.2,1.9-8.1
	c-1.2,5.5-1.8,10.9-5.7,15.2c-1.7,0.8-1.4,2.8-2.7,3.9c-0.8,0.6-1.6,1.2-2.7,0.9c-1.1-0.3-0.7-1.1-0.6-1.9
	c2.5-5.7,5.3-11.4,6.1-17.7c0-0.5-0.5,0.1-0.1,0c1.5-0.5-4.3,14.6-6.7,17.3c-1.1,1-2.1,2.5-3.8,2c-1.2-0.4-1-1.7-0.9-2.8
	c1.8-6,3.8-12,5.6-18c-1.6,5-3.2,10.1-4.8,15.1c-0.3,1.1-0.7,2.1-1.7,2.8c-0.8,0.7-1.6,1.8-2.9,1c-1.1-0.8-1.1-2-1-3.3
	c0.7-4.5,1.3-9.1,2-13.6c0.6-2.3,0.3-4.7,0.6-6.9c-0.3,1-0.2,2.2-0.9,3.2c-0.7,2-1.2,4-2,5.9c-0.7,1.6-2,2.5-3.8,2.1
	c-1.7-0.4-1.5-2-1.5-3.3c-0.3-8.1,1.8-15.6,5.6-22.6c1.7-3.2,2.8-6.4,2.9-10C986.6,293.2,986.9,288.3,986.9,283.5z"/>
<path class="st34" d="M967.9,153.7c-3.9,7.6-9.8,12.8-18.4,14.7c-7.5,1.7-12-0.7-15-7.6c-0.3-0.6-0.5-1.2-0.8-1.8
	c0.1-0.5,0.2-1.1,0.3-1.6c1-1.2,2.4-1.1,3.7-1.3c5.5-0.8,10-3.3,13.5-8.4c-4.3,2.7-8.3,4.9-12.8,5.8c-2,0.4-4,0.9-5.9-0.3
	c-6.5-0.3-10.8-3.8-14.1-8.9c-3.3-5.2-4.9-11-5.3-16.9c-0.5-6.6-0.4-13.2,0.1-19.9c0.5-7,2.1-13.6,4.3-20.2c1.1-1.1,2.4-0.5,3.5-0.1
	c7,2.5,13.9,2.1,20.9,0.2c2.2-0.6,4.3-1.3,6.6-0.9c2.6,0.4,4,1.6,4,4.4c0,5,0,10,0,14.9c0,3.2,0.9,6.1,2.4,8.9
	c0.7,1.4,1.5,1.5,2.4,0.1c0.5-0.8,0.9-1.6,1.3-2.3c2.1-3.2,5.5-4.4,9.8-3.4c3.3,0.8,5.4,3.3,5.7,7c0.3,4.6-1.5,8.2-5.4,10.7
	c-1.2,0.6-2.4,0.9-3.6,1.4c-0.4,0-0.1,0.7-0.1,0.3c0-0.1,0.1-0.1,0.2-0.2c1-0.4,1.7,0.2,2.4,0.6c2,2.7,1.6,5.5,0.5,8.3
	C968,142.9,968,148.3,967.9,153.7z"/>
<path class="st35" d="M187.6,166.3c-2,9.8-9.6,12.4-17.4,11.5c-10.3-1.1-19.1-5-26-12.8c7.4-5.9,6.9-14.6,8-22.7c0.1-1-0.1-2,0.1-3
	c0.5-2.2-0.2-3.2-2.5-3.7c-4.1-1.1-6.3-4-7-8.1c-0.6-3.8,0.6-7,3.8-9.4c3.3-2.5,7.1-2.1,9.5,1.1c0.9,1.2,1.4,1.4,2.6,0.6
	c9.7-6.6,19.3-13.2,25.2-23.6c1.4-2.4,2.6-2.7,4.9-0.8c4.5,3.7,8.9,7.6,12,12.6c0.8,1.3,2,2.8,1,4.3c-0.9,1.4-2.5-0.1-3.8,0
	c-0.4,0-0.9-0.1-1.5,0.1c4.4,0.4,7.4,2.3,7.8,6.9c0,3,0,6,0,9c-0.8,4.1,0.3,8.3-1.2,12.4c-1.9,5-3.9,9.9-8.4,13.3
	c-8.3,6.1-16.8,4.5-24.9,1.2c2.4,2.2,5.8,3.8,9.7,4.7c1.6,0.4,3,1,3,3c0,1.3,1.1,1.5,2.1,1.8C185.8,165,187,165.1,187.6,166.3z"/>
<path class="st36" d="M821,166.5c-5.4-0.9-10.2-3.6-15.4-5c-1.2-0.3-2.4-0.4-3.6-0.4c-5.4-5.3-7.4-11.7-6.6-19
	c0.2-1.6,0.8-3.2,1.2-4.8c0.5-2.2,1.6-3.3,4-3.8c6.3-1.2,9.5-9.3,5.9-14.6c-1.5-2.2-4.2-3.1-6.8-0.9c-5,4.1-9.2,1.8-13.5-0.8
	c-2.2-1.3-4.6-2.4-6.8-3.7c-1.5-1.3-3.3-1.9-5.1-2.6c-0.8-0.5,0.9-1-0.4-2c-4.6-3.5-6.9-8.8-9.5-13.8c-0.4-0.8-0.4-1.7-1.5-2.4
	c-1.8,1.5-3.4,3.3-5.2,4.9c-1.3,1.1-1.3,1.1-2.6,0.2c-1.4-4.5-0.7-7.5,3.1-9.4c11.6-5.9,24-8.5,36.9-5.5
	c11.7,2.7,18.2,11.2,22.3,21.7c1.9,4.9,3.3,10.1,3.7,15.4c0.2,2.4,1.7,4,3.3,5.6c3.6,3.8,7.6,7.2,10.4,11.7
	c7.6,12.3,1.9,24.3-11.5,28.9C822.4,166.6,821.7,166.5,821,166.5z"/>
<path class="st31" d="M653.7,154.4c-3.1,8.4-15.4,12.8-23.7,11.3c-5.2-1-8.7-5.1-9.6-11.4c0,0,0,0.1,0,0.1c0.6-0.8,1.4-1.4,2.5-1.5
	c5.2-0.5,9.2-3.2,13.8-6.6c-6,3.2-11.7,4.7-17.8,4.1c-0.4-0.3-0.7-0.7-1.1-0.7c-11.5-1.9-15.4-10.5-17.4-20.1
	c-1.8-8.7-1.7-17.5,1.1-26.1c2.1-1.9,4.7-2.3,7.5-2.3c-1.4-1.7-3.6-0.2-5-1.5c-0.5-1.6,0.7-2.5,1.6-3.4c3.8-4.2,8.9-6.8,13.7-9.6
	c2.1-1.2,3.4,0.1,4.5,1.6c5,6.6,10.5,12.7,15.8,19.1c0.6,0.7,1.1,1.4,1.8,2c3.4,3.6,3.4,3.6,7.3,0.6c2.8-2.1,7-2.3,9.5-0.5
	c3.6,2.6,5,7.3,3.2,11.6c-1,2.5-2.6,4.5-4.9,5.8c-2.1,1.2-2.6,2.7-2.6,4.9C653.8,139.3,654.1,146.9,653.7,154.4z"/>
<path class="st37" d="M319,151.8c-0.2,0.5-0.4,1-0.6,1.6c-1.4,7.2-4.7,10.4-12.1,10.2c-9.2-0.2-16.9-3.4-20.8-12.4
	c0-6.2,0-12.5,0-18.7c0-1.1,0.4-2.2-0.5-3.1c-0.1-2-1.2-3-3.1-3.8c-6-2.5-8.4-11.3-4.5-15.6c3.5-3.9,8.7-3.7,12,0.4
	c1.1,1.3,1.7,3.9,3.7,3.2c1.8-0.5,1.3-3.1,1.6-4.8c0.5-2.5,0.7-5.1,0.8-7.6c0.2-6.2,4.7-8.6,9.2-11.1c0.8-0.4,1.8-0.7,2.6-0.3
	c3.1,1.4,6.1,0.5,9.2,0.2c4.3-0.4,8.7,0.2,13.1,0.2c1.4,0,4-0.4,4.4,0.8c0.7,2.1-0.1,5.9,0.4,8.1c0.7,2.9-2.7,2.2-4.2,2.4
	c-1.4,0.1-2.9-0.2-4.3,1.2c3.1,1.6,6.7,0.4,9.2,2.6c1,9.3,1.6,18.5-0.9,27.7c-1.9,7.1-5.5,12.5-13.2,14.4c-3.7,1.8-7.3,0.2-10.8-0.4
	c-2.9-0.5-5.4-2-8.1-3.3c3.4,4.2,7.9,6,13.1,6.7C316.7,150.4,318.3,150.1,319,151.8z"/>
<path class="st38" d="M779.6,112.6c3.8,2.1,7.6,4.2,11.5,6.1c2.2,1.1,4.3,1.5,6.6-0.7c3-3,7.2-2.9,9.2-0.1c2.5,3.4,2.5,7.3,0.9,11
	c-1.4,3.1-3.7,5.7-7.6,5.6c-1.5,0-1.9,0.6-2.4,2c-3,8-1.7,15.4,3.1,22.3c0.5,0.7,0.8,1.5,1.3,2.3c-4.7,8.3-12.3,12-21.5,12.6
	c-7.3,0.5-10-2.1-11.1-9.4c0.2-1,0.4-2.1,0.6-3.1c0.7-1.2,2-1.3,3.1-1.7c2.9-1,5.3-2.7,7.5-4.9c-2.7,1.2-5.5,2-8.3,2.5
	c-1.2,0.2-2.4,0.3-3.5-0.6c-7.2,1.2-11.8-2.4-15-8.2c-3.9-7-4.9-14.7-4.9-22.4c0-8.5,1.4-16.9,4.6-25c0.4-1.1,0.6-2.4,1.8-3.1
	c1.6,0.8,2-0.9,2.8-1.6c1.9-1.7,3.6-3.6,5.7-5.8c2.6,7.2,6,13.4,11.3,18.4c0.9,0.8-0.1,1-0.5,1.4c0.8,1.8,2.8,2.3,4.2,3.4
	C779.3,114.3,778.9,112.7,779.6,112.6z"/>
<path class="st7" d="M204.5,119.2c-1.4-4.1-4.2-6.4-8.8-6c-0.9,0.1-1.8-0.2-1.8-1.1c0-1,1-1,1.8-1c2-0.2,4,0,6.5,1.7
	c-3.5-8.6-9.9-13.5-16.2-18.6c-6.5,12.9-17.9,20.3-29.2,27.8c-2.5-4.6-4.4-5.6-8-4.2c-4,1.5-6.3,6.1-5,10.4c1.1,3.8,3.5,6.4,7.7,6.8
	c1.2,0.1,2.2,0,2,1.8c-0.7,6.6-0.9,13.3-2.8,19.7c-1.1,3.6-2.3,7.2-6.7,8.4c-6.7,1.8-13.4,3.9-19.7,6.9c-0.5-0.2-1-0.5-1.5-0.7
	c-4.6-2.1-4.6-2.3-2.7-6.6c5.9-13.1,9.3-26.9,12.5-40.8c1.8-8,3.5-16.1,7.6-23.4c7-12.5,17.5-19.5,32.4-19.1
	c15.8,0.4,30.2,12.7,32.3,26C205.7,111.4,205.1,115.2,204.5,119.2z"/>
<path class="st39" d="M435.6,147.9c-1.4,7-9.2,12-16.5,11c-7-1-12-4.7-16-10c-0.9-1.2-1.8-2.5-2.8-3.8c-0.8-7.5-0.3-15-0.3-22.6
	c0-2-0.2-3-2.6-3.6c-6.4-1.5-9.7-9.2-7.2-15.5c0.5-1.3,1.6-2.4,1.6-4c4.5-4.4,12.2-1.1,14,6.3c0.9-0.9,0.5-2.3,1.5-2.8
	c2.2-1,4.2,0,6.3,0.4c1.5,0.3,1.7,1.5,1.9,2.8c1,6.4,3.6,9.2,8.7,9.5c4.9,0.3,9.3-3.3,10.8-8.8c0.2-0.6,0.3-1.3,0.4-1.9
	c0.3-1.2,0.8-2.1,2.2-2.2c1.2-0.1,2.4,0.2,2.9,1.3c1.5,3.5,3.4,6.7,5,10.1c1.4,2.9-0.4,5.5-3.5,6.4c-1,0.3-2,0.2-3.1,0.4
	c1.8,0.2,3.3-0.1,4.8-0.8c0.9-0.4,1.6-1.1,2.2-2c0.7-1.1-0.7-3,1-3.6c1.8-0.6,3.8,0.1,5.7,0.2c0.3,0,0.6,0.3,0.7,0.6
	c0,4.7-0.6,9.4-1.8,14c-1.8,7.3-5.7,12.8-13.7,14.5c-4,1.3-8,0.1-11.9-0.4c-3.5-0.4-6.7-1.7-10.1-3.2c4.4,5.3,10.4,6.5,16.6,7.2
	C433.4,147.7,434.5,147.5,435.6,147.9z"/>
<path class="st40" d="M100.1,223.2c7.7,1.6,15.3,3.4,23.1,3.9c2.4,0.2,3.8,1.2,3.9,3.8c0.2,3.7,0.4,7.4-1.3,10.9
	c-2.7,1.6-5.9,0.5-9.2,2c0.2-0.1,1.1,0.1,0.7-0.2c2.9-1,5.9-0.9,8.9-1.1c0.2,0,0.5,0,0.7,0c8.5,0.8,16.2-0.7,23-6.1
	c2.4-1.9,5.8-2.4,8.8-3.3c3.9-1.9,8.1-2,12.3-1.4c2.5,0.4,3.2,2.2,2.1,4.4c-0.8,0.9-1.8,1.2-3,1.3c-3.2,0.3-6.2,1.2-8.2,1.6
	c2.8-1.1,7.1-1.1,11.1-2.3c1.9,0.2,3.3,1.1,3,3.1c-0.2,1.9-1.2,3.5-3.6,3.6c-1-0.8-2-0.6-3.2-0.3c-3.1,0.8-6.1,1.6-9.2,2.2
	c3.8-0.7,7.4-2,11.3-2.5c1.7,2.3,1.5,2.7-1.8,4.8c-2.6,1.6-5.8,2-8.6,3.4c2.8-1.4,6-1.8,8.7-3.5c2.3,0.7,1.9,2.1,0.9,3.6
	c-0.6,0.8-1.5,1.3-2.4,1.8c-5.4,2.5-10.4,5.5-15.6,8.4c-3.7-0.2-6.8,2-10.4,2.2c-4.9,2.1-10.1,2.7-15.4,3.2
	c-4.8,0.4-9.6,0.8-14.4-0.1c-9.1-1.7-14.2-6.8-14.7-15.9C97.1,241.4,97.5,232.2,100.1,223.2z"/>
<path class="st41" d="M653.7,154.4c-0.8-0.8-0.7-1.8-0.7-2.8c0-7.3,0.1-14.6-0.1-21.9c0-1.8,0.8-2.4,2.3-3c4.8-2.2,7.2-7.3,5.8-12.1
	c-0.7-2.6-2.5-4.6-5.1-5.3c-3.5-0.9-6.7,0.4-8.6,3.3c-1.7,2.5-2.6,1.6-4.1,0c-7.3-7.7-14.1-15.8-20.5-24.2c-1.1-1.4-1.7-1.7-3.3-0.7
	c-4.4,2.8-9.2,5.1-12.9,9c-0.9,1-2,1.8-2.4,3.2c-0.4,0.8-1.1,0.8-1.8,0.5c3-15.5,20.7-27.3,36.3-24.6c16.5,2.8,25.6,12.8,29.2,28.2
	c3.4,14.8,6.4,29.7,9.6,44.6c0.3,1.6-0.4,2.2-1.7,2.7c-3.9,1.5-8,2.2-12.1,2.6c-2.4,0.2-4.7,0.6-7,1
	C655.6,154.7,654.6,154.5,653.7,154.4z"/>
<path class="st7" d="M903,280.1c0-1.4,0.1-2.9-0.1-4.3c-0.3-2.8,0.2-4.5,3.4-6c6.4-3,7.4-12.5,2.3-16.9c-3.7-3.2-8.3-2.6-10.4,1.7
	c-0.9,1.9-1.6,1.5-2.5,0.3c-3-3.9-5-8.1-5-13.1c0-2.7,0.1-5.3,0.2-8c0.1-3-1.1-4.1-4.3-3.7c-7,0.9-14.1,1.4-21.2,0.2
	c-2.9-0.5-5.8-1-7.8-3.4c-0.5-7.8,1.1-10,8.4-12.8c7.9-3.1,16.2-4,24.6-3.9c6.7,1.3,13.3,3.1,19.6,6.9c0.5-8,1-15.5,1.4-23
	c0.8,5.4,0.8,10.7,0.3,16.1c-0.1,0.8-0.2,1.5-0.3,2.3c-0.4,3.6,0.3,6.5,3,9.5c7.5,8.4,7.9,18.7,6.8,29.1c-0.5,4.2-1.5,8.2-2.3,12.4
	c-0.6,0.8-0.2,5.3-1.1,5.2c-1.4,1-0.4,1.3-2.6,2.9c-0.3,2.6-4,2.4-5.7,4.6C907.7,278,906.2,280.4,903,280.1z"/>
<path class="st42" d="M968,126.5c4.2-2.9,6.1-6.7,5-11.7c-0.6-2.8-2.3-4.6-5.2-4.9c-3.3-0.3-6.6-0.5-8.4,3.2c-0.8,1.8-1.9,3.4-3,5.4
	c-3.1-3.4-4.5-7.2-4.8-11.3c-0.2-4.5-0.1-9.1,0-13.6c0-6.4-1.2-7.4-7.7-5.7c-4.9,1.3-9.8,2.2-14.9,2c-4-0.1-7.5-2.1-11.4-2.6
	c-3.2-1.1-5.6-3.2-7.4-6c-0.9-1.4-0.9-3-0.3-4.4c0.7-1.5,2.2-1.3,3.6-1.1c10.1,1.6,19.9-1,29.8-2.3c8.6-1.1,17.1-0.7,25,3.4
	c9.8,5.1,14.9,13.1,15.4,24c0.5,10.7-2.2,20.6-7.8,29.7c-1.8,2.9-4.4,5.3-7.7,6.7c-0.1-1.7-0.2-3.5-0.2-5.2c0-1.2-0.1-2.4-1.5-3
	C965.6,127.5,967.1,127.2,968,126.5z"/>
<path class="st43" d="M335.2,105.2c-3-0.3-6-0.8-9-1c-1-0.1-1.1-0.6-1.1-1.2c0-0.7-0.7-1.6,0.5-1.9c0.5-0.2,1.1-0.3,1.6-0.4
	c1.7-0.3,7.2,1,7.6-0.5c-0.5-3.4-1-5.7-0.9-8.3c1.8-2.4-6.6-0.9-8.4-0.8c-4.5,0.3-9.1-1.5-13.5,0.9c-0.7,0.4-1.8,0.2-2.6-0.4
	c-3.3-2.4-5.5,0-8.1,1.5c-4.9,2.8-5,7.5-5.3,12.2c-0.2,3-0.3,6-1.4,8.8c-0.6,1.6-1.4,2.2-2.9,0.7c-1-1-2-2.1-2.7-3.4
	c-1.6-3.1-4.5-3.6-7.5-3.1c-2.8,0.4-5.1,3.7-5.3,6.6c-0.3,5.7,2.1,9.1,7.6,10.5c3.1,0.7,2.3,2.3,1.2,4.1c-2.4,0.4-3.9-0.7-4.7-2.8
	c-1.1-2.8-4.1-4.3-4.8-7.4c-0.3-1.6-0.8-3.2-0.7-4.9c0.1-1.5,0.1-3.1-1.4-4.2c-0.4-0.3-0.8-0.9-0.8-1.4c-0.3-6.5-3.4-12.7,0.6-19.6
	c2.4-4.1,5.4-7.8,8-11.6c2.2-3.3,6.4-6.2,10.8-7.2c1.9-0.4,3.8-0.2,5.1-1.9c0.5-0.6,1.4-0.7,1.9-0.4c2.5,1.9,5.5-0.4,7.4,0.3
	c3.8,1.3,8,0,11.5,1.9c1.4,0.7,2.8-0.1,3.8,0.6c3.4,2.2,6.6,4.6,9.9,7c0.3,0.2,0.2,0.9,0.5,1.2c4.5,3.3,3.9,7.4,2.7,12.2
	c-0.8,3.1-0.2,6.1-0.5,9.5C334.3,101.9,335.2,103.9,335.2,105.2z"/>
<path class="st44" d="M407.1,103.3c-0.3,1.5,0.9,4.1-1.1,4.3c-1.7,0.2-1.2-2.4-1.7-3.7c-1.7-4.7-7.4-7.5-11.3-4.5
	c-0.3,0.2-0.8,0-1.2,0c-0.6-7.2-1.2-14.3,1.1-21.3c2.5-7.6,9.2-13,17.4-13.5c4.4-0.3,8.8-0.3,13.1,0.4c6.1,1,11.5-1,16.9-3.3
	c3-1.3,6-2.6,9.3-2.2c7.9,0.9,11.9,7.5,9.2,15.1c-1.6,4.4-4.4,8.1-7.6,11.5c-1.1-3.1-2.9-3.3-6-2.5c-8,1.8-15.8,0.1-23.5-2.2
	c-2.4-0.7-4.7-1.6-7.2-1.7c-3.4-0.2-4.9,1-5.6,4.3c-1.2,5.2-0.4,10.6-0.9,15.8C407.6,101,407.4,102.1,407.1,103.3z"/>
<path class="st37" d="M254.7,170.5c-3.4,1.5-6.9,0.5-10.2-0.2c-4.4-0.9-8.7-2.2-12.7-4.1c1.8-3.6,1.4-7.1,0.1-10.8
	c-3-8.9-5.1-18-6.9-27.2c0-0.2-0.1-0.4-0.1-0.7c0.2-1.8-1.5-4.3,1.7-4.9c2.9-0.5,2.9,2.1,3.5,4.4c0.6-2.5-0.7-4.3-0.8-6.3
	c-0.2-1.8-1.8-4.2,1.3-5c3.1-0.8,3.4,1.6,3.9,3.7c0.1,0.3,0.2,0.6,0.6,0.8c-0.1-1.1,0-2.2-0.4-3.1c-0.8-2-0.1-3.3,1.8-3.9
	c2-0.6,3.1,0.6,3.7,2.5c0.7,2.2,0.8,4.5,2.3,7.1c-0.3-1.9-0.4-3.3-0.7-4.6c-0.3-1.2-0.5-2.2,0.9-2.8c1.3-0.5,2.5-0.3,3.3,0.9
	c0.3,0.3,0.5,0.7,0.7,1.1c2.3,6.8,4.7,13.5,6,20.5c-0.3,1.1-0.7,2-1.5,2.8c-2.3,2.6-3.8,5.7-4.2,9.9c0.6-4.3,2.1-7.4,4.5-10.1
	c0.7-0.8,1-1.6,1.2-2.6c2.4-1.7,2.8-4.6,4.3-6.9c1.2-1.8,2.4-3.8,5-2.7c2.5,1,2.3,3.1,1.7,5.4c-1.5,6.5-3.3,12.8-5.9,18.9
	c-1.5,3.5-2,6.9-1.6,10.6c-0.1,1.2-0.2,2.3-0.3,3.5C255.4,167.8,255.9,169.5,254.7,170.5z"/>
<path class="st45" d="M533.8,161.1c-8.1-2-16.3-4.1-24.4-6.1c-1.1-7.9-3.7-15.4-5.1-23.2c-0.1-0.8-0.3-1.5-0.4-2.3
	c-0.2-1.3,0-2.4,1.3-3.1c1.3-0.8,2.4-0.1,3.4,0.6c2.5,1.8,4.1,4.3,6.3,6.8c1.1-1.7,1.4-3.4,1.7-5.2c1-5.1,2.6-10,4.1-15
	c0.8-2.6,2.2-3.8,5-2.6c0.9,0.4,1.5,0.8,2-0.5c0.5-1.4,1.9-1.4,3.2-1.1c1.6,0.4,2,1.6,1.6,3.4c1.4-0.6,2.7-1.4,4.1-0.7
	c1.7,0.8,1.2,2.5,1.1,3.8c-0.1,1.5,0.7,1,1.6,1c2.5-0.1,3.8,1,3.5,3.6C541.1,134.2,538.7,147.9,533.8,161.1z"/>
<path class="st46" d="M694.3,188.3c-0.9-1.5-0.8-3.1,0-4.6c0.3-0.1,0.9-0.2,0.9-0.3c0-4.2,0.7-4.8,4.4-3.1c7.1,3.3,13.2,8,16.8,15.1
	c1.1,3.9-1.8,7.8-0.1,10.8c-0.7-3-0.4-6.8,1.1-10.6c1.1-1.2,0.4-2.5,0.4-3.8c0-0.6-0.4-1.3-0.4-1.9c0-2.3-1.3-5.6,2-6.2
	c2.7-0.5,2.6,2.8,3.2,4.6c2.4,7,4.8,13.9,8.1,20.6c-1.6,7.3-6.2,12.3-12.6,15.9c-0.2,0-0.5,0-0.7-0.2c-6.5-5.6-12.5-11.8-18.5-17.9
	c-2.1-2.1-4.2-4.2-6.3-6.4c-0.8-0.8-1.6-1.6-2.3-2.4c-1-1.1-1.3-2.4-0.5-3.7c0.8-1.3,2,0,3.2,0.1c-0.4-2.1-4-2.5-2.3-5
	c0.7-1.1,1.7-1.3,2.9-0.8c3.3,1.4,6,3.5,8.4,5.4C700.2,191.9,696.3,191.3,694.3,188.3z"/>
<path class="st47" d="M601.6,28.5c-5.7,0.1-11.4-0.2-17,0.2c0.1-8.1,0.1-16.1,0-24.2c0-2.3,1-2.9,3.6-2.7c7.2,0.5,14.4,0.6,21.5,0
	c2.7-0.2,3.5,0.5,3.5,2.8c-0.1,7-0.3,13.9,0,20.9c0.1,2.5-0.9,3.1-3,3.1C607.3,28.5,604.5,28.5,601.6,28.5z"/>
<path class="st47" d="M963.7,37.8c-5.7,0.1-11.4-0.2-17,0.2c0.1-8.1,0.1-16.1,0-24.2c0-2.3,1-2.9,3.6-2.7c7.2,0.5,14.4,0.6,21.5,0
	c2.7-0.2,3.5,0.5,3.5,2.8c-0.1,7-0.3,13.9,0,20.9c0.1,2.5-0.9,3.1-3,3.1C969.4,37.8,966.5,37.7,963.7,37.8z"/>
<path class="st47" d="M707.2,126.7c-3.8,0.1-7.7-0.1-11.5,0.1c0.1-5.4,0.1-10.9,0-16.3c0-1.5,0.6-1.9,2.4-1.8
	c4.8,0.4,9.7,0.4,14.5,0c1.8-0.1,2.4,0.4,2.4,1.9c-0.1,4.7-0.2,9.4,0,14.1c0.1,1.7-0.6,2.1-2,2.1
	C711.1,126.7,709.1,126.6,707.2,126.7z"/>
<path class="st47" d="M506.9,255.6c-3.8,0.1-7.7-0.1-11.5,0.1c0.1-5.4,0.1-10.9,0-16.3c0-1.5,0.6-1.9,2.4-1.8
	c4.8,0.4,9.7,0.4,14.5,0c1.8-0.1,2.4,0.4,2.4,1.9c-0.1,4.7-0.2,9.4,0,14.1c0.1,1.7-0.6,2.1-2,2.1
	C510.8,255.6,508.8,255.6,506.9,255.6z"/>
<path class="st47" d="M99.6,147.6c-3.8,0.1-7.7-0.1-11.5,0.1c0.1-5.4,0.1-10.9,0-16.3c0-1.5,0.6-1.9,2.4-1.8c4.8,0.4,9.7,0.4,14.5,0
	c1.8-0.1,2.4,0.4,2.4,1.9c-0.1,4.7-0.2,9.4,0,14.1c0.1,1.7-0.6,2.1-2,2.1C103.5,147.6,101.6,147.5,99.6,147.6z"/>
<path class="st47" d="M878.8,166.4c-3.8,0.1-7.7-0.1-11.5,0.1c0.1-5.4,0.1-10.9,0-16.3c0-1.5,0.6-1.9,2.4-1.8
	c4.8,0.4,9.7,0.4,14.5,0c1.8-0.1,2.4,0.4,2.4,1.9c-0.1,4.7-0.2,9.4,0,14.1c0.1,1.7-0.6,2.1-2,2.1
	C882.7,166.4,880.8,166.4,878.8,166.4z"/>
<path class="st47" d="M227.3,58.3c-3.7,0.1-7.5-0.1-11.2,0.1c0.1-5.3,0.1-10.6,0-15.9c0-1.5,0.6-1.9,2.3-1.7c4.7,0.4,9.4,0.4,14.1,0
	c1.8-0.1,2.3,0.4,2.3,1.8c-0.1,4.6-0.2,9.1,0,13.7c0.1,1.6-0.6,2-1.9,2C231,58.3,229.1,58.3,227.3,58.3z"/>
<path class="st48" d="M407.2,100.5c-0.2-5.6-0.2-11.3,0.7-16.9c0.5-3.6,2.2-5,5.9-4.9c2.8,0,5.3,1,7.9,1.8
	c7.8,2.3,15.7,4.1,23.9,2.3c0.2,0,0.4-0.1,0.7-0.1c4.7-1.3,4.7-1.3,5.1,3.6c0.1,2.6-0.3,5.1,0.5,7.6c-0.8,1.2-2.2,0.9-3.3,1.3
	c-2.8,0.9-5.4,1.9-7,4.7c-1.8,3.3-5.4,3.3-7.4,0c-2.1-3.4-5.1-4.8-8.9-4.9c-3.7-0.1-6.5,1.4-8.4,4.5
	C414.1,103.4,411,103.8,407.2,100.5z"/>
<path class="st49" d="M187.6,166.3c-1.3-0.4-2.6-0.8-3.9-1.1c-1.7-0.4-3.3-0.5-1.8-3c1-1.7-1.2-1.2-1.8-1.3
	c-5.4-1.1-9.9-3.7-13.1-8.3c4.5,2.7,9.4,4.1,14.6,4.4c8.2,0.5,15.2-3.7,18.8-11.4c2.2-4.5,3.4-9.3,3.6-14.3c0-1.1-0.4-2.2,0.6-3.1
	c0.3,5.4,0.7,10.8,0.7,16.2c0,10.3,0.8,20.5,1.5,30.7c-5.1-2.9-10.1-5.9-15.6-7.8C190,166.9,188.8,166.6,187.6,166.3z"/>
<path class="st49" d="M537,222.8c1.4,1.9,1.3,4.4,1.8,6.5c4.4,17.9,21.9,21.7,34.6,13.2c-1.9,4.4-8.4,8.4-14.4,8.4
	c-2.3,0-3.4,0.7-3.2,2.8c0.3,3.3-2.8,3.2-4.4,4.6c-5.2,2.3-10.3,4.5-15.5,6.8c-0.6-11.9,0.6-23.7,0.7-35.5
	C536.6,227.4,535.7,225,537,222.8z"/>
<path class="st50" d="M407.2,100.5c0.7,0.2,1.5,0.5,2.2,0.7c2.9,0.9,5.2,1.4,6.8-2.5c1.4-3.5,5-4.9,8.9-4.7c4,0.1,7.6,1.3,9.5,5
	c0.8,1.5,1.3,2.4,3.3,2.4c2,0.1,2.2-1.2,2.9-2.4c2.3-4.3,6.5-5,10.9-5.2c6.3,1.5,9.5,5,9.6,10.4c0.1,5.9-2.7,9.7-8.2,11.2
	c-2,0.2-4,0.2-6.3-0.5c0.4,2.5,0.3,4.7-2.3,5.9c-2.7,1.3-6.8,1.3-8.9,0c1.4-1.5,3.2-0.8,4.8-0.9c4.6-0.4,5.9-2.9,3.5-6.8
	c-1.6-2.5-3.2-5.1-3.8-8.1c-0.3-1.6-1.4-1.8-2.8-1.8c-1.8,0-1.1,1.3-1.2,2.1c-0.8,8.1-8.6,13.2-15.7,10.3c-3.7-1.5-6.1-4.3-6-8.4
	c0-2.3-0.2-3.8-3.1-3.6c-1.4,0.1-2.9-0.3-4.3-0.5C406.3,102.3,406.1,101.4,407.2,100.5z"/>
<path class="st51" d="M390.4,285.5c2.4,5.1,5.4,10,5.6,15.8c0.1,2.3,0.1,4.6-3,5c-3.7-6.7-7.4-13.3-11.2-20.1c2.6-0.5,5.2-1,7.8-1.5
	C389.8,285,390.1,285.3,390.4,285.5z"/>
<path class="st52" d="M602.8,160.4c-1.4,6.8-3.4,13.4-6.5,20c-2.8-2.9-5.6-5.3-8.9-7.1c2.4-2.3,3.7-5.4,6.3-7.6
	C596.4,163.4,599.2,161.2,602.8,160.4z"/>
<path class="st53" d="M839.1,316.4c-2.5,2.5-4.3,5.6-6.3,8.5c-0.9,1.2-1.8,2.1-3.1,2.8c-1-1.4-0.4-2.8,0-4.1
	c2.3-8.1,3.1-16.4,3.7-24.8c0.2-2.5,0.1-5.1,1.7-7.3c0.3-0.1,0.7-0.1,1-0.2C837.1,299.7,838.1,308,839.1,316.4z"/>
<path class="st54" d="M435.6,147.9c-7.2,1.9-19.6-2.5-21.6-9.3c7.5,4.3,15.6,4.6,23.7,5.3c-0.6,1.2-1.2,2.4-1.9,3.5
	C435.6,147.5,435.5,147.7,435.6,147.9z"/>
<path class="st55" d="M932.6,153.3c8.1-0.4,8.9-0.7,20.6-7.7c-1,3.4-2.9,5.5-5.3,7.4c-4,3.2-8.8,4.2-13.8,4.5
	C933.6,156.1,933.1,154.7,932.6,153.3z"/>
<path class="st56" d="M319,151.8c-1.9-1.1-4.2-0.7-6.2-1.2c-5.6-1.2-9.9-3.8-13.1-9.7c7,4.6,14,6.4,21.4,6.3c-0.5,1.5-1,3-1.6,4.5
	C319.4,151.7,319.2,151.7,319,151.8z"/>
<path class="st57" d="M618.8,150.5c1.8-1.5,3.9-0.5,5.8-0.8c4.9-0.8,9.5-2.4,13.8-4.9c-3.8,4.9-8.7,8-14.9,9c-1.1,0.2-2.3,0-3.2,0.7
	C619.8,153.2,619.3,151.8,618.8,150.5z"/>
<path class="st58" d="M870.8,291.5c5.9-0.6,11.4-2.3,16.5-6.2c-2.2,6.8-7.2,9.9-14.9,9.7C871.9,293.8,871.3,292.6,870.8,291.5z"/>
<path class="st59" d="M768.7,156.6c5.2-0.3,8.9-1.3,13.3-3.7c-1.5,4.3-4.4,6.3-12,8.3C769.5,159.7,769.1,158.1,768.7,156.6z"/>
<path class="st60" d="M602.2,100.3c0.6-0.2,1.2-0.4,1.8-0.5c1.8-0.2,3.6-0.3,5.3,0.2c0.9,0.3,1.7,0.7,1.4,1.8
	c-0.3,1.1-1.3,0.8-1.9,0.6c-2.7-0.9-4.9,1-7.4,1.3C601.7,102.5,601.9,101.4,602.2,100.3z"/>
<path class="st61" d="M852.1,241c2.8-0.5,5.7-1.8,8.5,2.1c-3,0-5.4,0-7.8,0c-1,0-0.8-0.8-0.9-1.4C852,241.5,852.1,241.2,852.1,241z"
	/>
<path class="st62" d="M717.4,195.8c0.1,4.1-1.7,8.2-0.2,12.3c-2.8-4.1-1.6-8.3-0.8-12.6C716.7,195.7,717,195.7,717.4,195.8z"/>
<path class="st3" d="M408.5,265.8c7,0,14,0,21,0C422.5,266.7,415.5,266.6,408.5,265.8z"/>
<path class="st9" d="M698.9,207c7,5.3,13.1,11.6,19.2,18c-3.1,1.3-2.7,2.9-0.9,5.3c4.7,6,9.4,11.9,15.8,16.3
	c5.9,4,12.1,6.6,19.5,5.1c0.4-0.5,0.8-0.5,1.3,0c0.2,2.5,0.5,5,0.7,7.5c0.1,1.3,0.2,2.4,1.7,2.8c0.5,0.8,0.3,1.7,0.1,2.6
	c-2.1,7.4-3.1,14.9-4.6,22.4c-0.4,1-1.1,0.9-1.9,0.5c-2.8-1.1-2.5,0.6-2.2,2.3c0.4,2.4,2,4.5,1.7,7c-0.2,0.2-0.5,0.4-0.8,0.5
	c-6.6-2.5-12.2-6.6-17.4-11.3c-0.7-0.6-1.3-1.3-2-1.8c-2.2-1.8-2.9-1.6-3.6,1c-0.4,1.4-0.9,2.1-2.5,1.7c-1.9-0.5-1.9,0.7-1.4,1.9
	c0.6,1.4,0.8,2.4-1.3,2.8c-2.1,0.4-1,1.9-0.3,2.8c1.1,1.3,1.8,2.2,0.2,3.9c-1.4,1.4,0.5,2.6,1.4,3.5c6.1,6.4,12.6,12.4,20.1,17.2
	c1.6,1,3.2,2.1,3.4,4.3c-0.9,10.5-2.5,20.9-3.5,31.4c-0.6,6-1.1,11.9-1.8,17.9c-0.2,2-0.2,4-1.6,5.7c-7.3-0.2-14.4-1.6-21.7-2.3
	c-6.6-0.6-13.1-1.5-19.6-2.3c-1.9-0.2-3.8-0.5-5.7-0.7c-1.4-1.2-1.4-2.9-1.6-4.5c-1.2-12.4-2-24.9-3.2-37.3
	c-0.1-1.6-0.2-3.1,0.8-4.5c6.9-12.7,7.5-26.1,5.1-40c-0.3-1.9-0.3-3.7,0.2-5.6c2.8-11.3,6.3-22.5,8-34.1c1.1-7.7,0.7-15.5,0.1-23.2
	C700.4,218,700.1,212.5,698.9,207z"/>
<path class="st41" d="M687.4,326.4c1.2,14.6,2.4,29.2,3.6,43.7c0.1,0.9,0.3,1.7,0.4,2.6c-14.4-1.8-28.8-3.5-43.1-5.3
	c-1.7-2.8-0.3-5.6-0.2-8.4c0.7-10.9,1.4-21.8,1.1-32.7c-0.1-2.1-0.5-4.2-1-6.2c-0.8-2.9-2.5-5.2-5.4-6.4c-1.2-0.5-2.5-1.1-3.3-2.1
	c-1.5-9.5-2.7-19.1-6.4-28.1c-2.4-5.7-5.6-10.9-10.1-15.2c-0.9-0.8-1.8-1.7-2-3c-0.4-4.9-1-9.8-2.1-14.9c12.1,1.3,24,1.4,35.8,0.5
	c5.6-0.4,11.2-0.8,16.7-1.9c0.6-0.2,1.2-0.8,1.9-0.1c-0.1,9.2-1.9,18.3-2.2,27.4c-0.2,5-2.4,9-4.7,13.2c-3.6,6.7-6,13.8-6,21.5
	c0,1.4-0.3,3.2,1.5,3.6c1.6,0.4,2.6-0.9,3.5-2.1c1.5-1.9,1.3-4.4,2.5-6.4c0.9,0.6,0.4,2,1.3,2.6c-0.8,4.6-1.5,9.2-2.3,13.7
	c-0.8,4.9-0.3,5.4,4.4,4.3l0,0c0.4,2.9,1.4,3.5,3.8,2c0.6-0.4,1.3-0.9,1.9-1.3c0.4,0.9,0,1.7-0.2,2.6c1.8,1.7,2.9,0.1,4.1-0.8
	c1.1-0.9,1.2-2.6,2.7-3.1c0.5,0.4,0.4,0.8,0.1,1.2C685.5,329.6,686.1,326.6,687.4,326.4z"/>
<path class="st31" d="M847.3,391.2c1.5,0.4,3.1,0.7,4.5,1.2c7.9,2.7,15.8,3.2,24.1,1.3c11.5-2.6,23.3-3.4,35-4.8
	c1.5-0.2,2-0.6,2.2-2.1c0.7-5.4,1.7-10.7,2.6-16c0.2-1.3,0.2-2.8,2.6-2.5c8.4,1,16.8,1,25.2,2.6c1.4,0.3,2.8,0.6,4.3,0.9
	c0.8,0.9,0.8,2.1,0.6,3.2c-1.5,8.8-2.9,17.6-6.1,26c-0.7,1.8-1.4,3.5-3.3,4.4c-3.7,4.6-8.8,5.8-14.4,6.1
	c-16.1,0.9-32.2,1.6-48.3,1.3c-4-0.1-7.9,0.1-11.7,1.2c-3.7,1.1-7.6,1.3-11.4,0.7c-3.9-0.6-7.3,0.5-10.7,1.9c-3,1.2-6.1,2.2-9.4,2.3
	c-2.2-2.8-6.2-1.5-8.6-3.9c-0.1-0.1-0.5-0.1-0.6-0.2c-2.2-2-3.7-4.5-6-6.5c-0.9-0.8-0.1-2.6,0.7-3.7c2.6-3.3,5.5-6.1,9.8-7.2
	c4.1-2.4,8.4-4.5,13-5.8C843.2,390,845.2,389.6,847.3,391.2z"/>
<path class="st63" d="M582.5,359.5c7.2-1.5,12.7-5.9,18.7-9.6c4.3-2.7,8.6-1.6,13.1-1.3c0.7,0,1.5,0.7,1.8,1.3
	c2.4,4.6,5.1,9,6.1,14.3c1,5.2,1.2,5.2,6.3,5.7c-9.7,3.7-20.1,4.4-30.4,5.9c0.3,0.7,1,0.3,1.5,0.5c-9.7,1.1-19.1,3.9-28.8,5.2
	c-3.1,0.4-6.3,0.3-9.4-0.3c-2.5-0.5-4.9-0.5-7.3,0.5c-3.8,1.5-7.8,2-11.8,2.5c-1.9,0.2-3.5,0.1-4.6-2.3c-0.5-1.1-2.4-2.4-3.9-2.9
	c-2.8-0.9-2.5-2.5-1.5-4.3c1.2-2.3,3-4.2,5-5.7c8.4-6.3,17.4-9.6,28.3-6.7C571.2,363.5,577.1,361.8,582.5,359.5z"/>
<path class="st64" d="M738.4,378.1c0.5-5.3,0.9-10.7,1.5-16c1.2-11.1,2.5-22.1,3.8-33.2c0.3-2.3,0.6-4.6,0.8-6.9
	c4.6,0.1,7.4,3.1,9.9,6.1c6.6,7.5,13.2,14.8,19.5,22.6c1.8,2.3,3.7,4.5,5.6,6.6c0.9,1,1.9,1.9,1.8,3.4c-0.9,6.7-2.4,13.3-3.8,19.9
	c-0.2,0.9-0.5,1.7-1.3,2.3c-8.8-1-17.5-2-26.3-3.1C746.1,379.2,742.1,379.3,738.4,378.1z"/>
<path class="st65" d="M828.3,397.3c-3.4,1.8-6.3,4.2-8.7,7.1c-2.4,2.8-1.6,5.2,2,5.5c1.7,0.1,1.6,0.3,1,1.4
	c-0.4,0.7-0.6,1.8,0.2,2.1c2,0.7,4,2.9,5.5,2.6c2.9-0.4,3.5,1.4,4.8,2.8c-5.2-2.8-9.6,0.4-14,2.2c-5.4,2.2-10.7,0.5-15.9-0.5
	c-16.2-3.2-32.4-6.5-48.6-9.8c-1-0.2-1.9-0.5-3.6-1.1c6.5-2.3,12.2-4.5,18.1-6.3c9.3-2.9,18.2-7,27.8-8.8c5-1,9.5,0.7,14.3,1.2
	c3.8,0.4,7.5,1.3,11.2,2.3C824.4,398.6,826.2,396.6,828.3,397.3z"/>
<path class="st66" d="M401.2,370c0.4,1.2,1.5,1.9,2.3,2.8c0.7,0.8,2,1.3,0.5,2.6c-1.2,1-1.5,0.6-2.7-0.5c-4.5-4.5-8.8-9.2-14.3-12.6
	c-1.2-0.7-2.4-1.3-4.3-0.7c8.1,2.8,12.3,9.6,18.3,14.4c-4.5-0.2-7.9-2.1-11-5.1c-3-2.9-6.5-5-10.9-5.4c0,1.3,1,1.1,1.6,1.3
	c5.3,1.6,9.1,5.1,12.8,8.9c1,1.1,0.5,1.3-0.5,1.8c-2.7,1.3-4.8-0.3-6.9-1.5c-6.9-3.8-16.1-2.7-21.8,2.6c-0.2,0.2-0.3,0.5-0.5,0.8
	c-5.9,1.3-11.8-0.3-17.7-0.1c1.4-6.5,2.6-12.9,2.3-19.6c-0.1-1.7,0.8-1.6,2.1-1.6c4.2,0,8.5,0.4,12.6-1.3c3.6-1.9,7.2-3.7,11.5-3.4
	c3.8,0.4,7.5-0.8,11.4,0c10.3,2.1,16.3,8.8,20.9,17.4c-0.2,1.2-0.9,1.7-2.1,1.6c-1.3-0.6-1.9-1.9-2.9-2.9
	c-4.5-3.6-7.8-8.5-12.6-10.7C393.5,361.4,397.8,365.2,401.2,370z"/>
<path class="st7" d="M938.9,405.2c4.9-8.4,6.1-17.8,7.9-27c0.4-2.1,0.6-4.3,0.9-6.5c2.1,0.5,3.2,0.3,3.4-2.5
	c0.2-5,1.1-10.1,1.7-15.1c0.1,0,0.2,0,0.3,0c15.3,5,15.7,9.7,14.3,25.6c-0.6,7.2-1.5,14.5-2.2,21.7c-0.2,1.5-0.8,3.2-0.6,4.5
	c0.5,4.2-1.8,3.4-4.3,2.8C953.3,406.9,946.1,406.2,938.9,405.2z"/>
<path class="st22" d="M840.3,391.3c-13.5-2.1-27-3.5-40.6-4.7c-1.9-0.2-4.2,0.4-5.2-2c-2-3.4-2.2-7-1.9-10.8
	c0.8-1.2,1.6-0.4,2.2,0.2c1.4,1.3,3,2.4,4.4,3.6c5,4.5,10.7,5.2,16.9,3.1c7-2.5,12.6-7.2,18-11.9c1.2-1.1,2.1-3.1,4.4-1.8
	c1.5,2.2,1.1,4.7,1.4,7.1c0.6,4.5,0.9,9,1.4,13.6C841.5,389,841.6,390.4,840.3,391.3z"/>
<path class="st67" d="M639.4,311.6c7.8,1.8,10.4,5.2,10.7,14.4c0.4,13.8-0.3,27.6-1.9,41.4c-3.4-0.1-6.8-0.5-10.1-1.2
	c2.5-4.2,3.1-8.9,3.2-13.6C641.6,338.8,641.5,325.2,639.4,311.6z"/>
<path class="st65" d="M793.1,373.5c0.5,3.7,0.9,7.4,1.4,11.1c-0.1,0.9-0.6,1.5-1.5,1.4c-5.2-0.8-10.5-1.6-15.7-2.5
	c-0.4-0.1-0.7-0.5-1-0.8c1.6-7.6,3.1-15.1,4.7-22.7c0.2-0.1,0.5-0.2,0.6,0C785.5,364.4,789.6,368.8,793.1,373.5z"/>
<path class="st68" d="M840.3,391.3c0.1-6-0.9-11.8-1.5-17.7c-0.2-2.3,0.1-4.7-1-6.8c0.5-2,2-3.1,3.7-4c1,0.2,1.7-0.4,2.3-1.1
	c0.1-0.4,0.3-0.4,0.5-0.2c1,9.9,2,19.8,2.9,29.7c-2-0.5-4,0.2-6.1,0.2C840.9,391.4,840.6,391.4,840.3,391.3z"/>
<path class="st69" d="M535.9,337.5c1.3,1-0.5,3.3,1.8,3.8c0.7,5.1,1.5,10.3,2.2,15.4c-2.2,0-4.4,0.2-6.5,0c-5.5-0.7-5.5-0.8-7.8,4
	c0,0.1-0.2,0.2-0.2,0.2c-0.2-0.1-0.4-0.2-0.6-0.3c0.6-2.2,1.1-4.4,1.7-6.5c3.1-4.5,6.1-9,7.6-14.3
	C534.3,338.8,534.7,337.7,535.9,337.5z"/>
<path class="st70" d="M366.5,381.9c14.9,1.7,29.9,1.5,44.8,2.4c6.9,0.4,13.6-0.2,20.4-0.2c24.9,0,49.8,0,74.7,0
	c4.1,0,7.8-0.6,10.6-3.9c0.3-0.4,0.7-0.6,1.1-0.1c-2.1,3.2-5.1,4.8-9,4.8c-5.9,0-11.7-0.1-17.6-0.1c-18.1,0-36.3-0.1-54.4,0.3
	c-8.7,0.2-17.3,0.3-26,0.2c-2.3-0.6-4.7,0.2-7-0.4c-11.6,0-23.2-0.8-34.8-1.4C368,383.3,367.3,382.6,366.5,381.9z"/>
<path class="st71" d="M269.6,380.2c0.8,0.1,1.8-0.4,2.5,0.5c-6.3,1.8-12.6,3.6-18.9,5.4c-5.7,1-11.5,1.9-17.2,3.1
	c-1.8,0.4-2.2,0.3-2.4-1.6c-1-12.4-2.3-24.8-3.1-37.3c-0.5-8.5-1.7-16.9-0.9-25.5c0.2-2.3,0.8-4.5,2.2-6.4c1.4,0.3,1,1.4,0.7,2.1
	c-2.5,8.2-0.8,16.5-0.3,24.7c0.6,10.2,1.6,20.3,2.4,30.4c0.2,2.5,0.6,5.1,0.8,7.6c0.3,3.3,0.9,3.7,4.4,3.1
	c7.9-1.3,15.7-2.9,23.4-5.2C265.4,380.4,267.5,379.9,269.6,380.2z"/>
<path class="st7" d="M404.2,384.8c2.4-0.2,4.7-0.6,7,0.4C408.8,385.3,406.5,385.4,404.2,384.8z"/>
<path class="st11" d="M269.6,380.2c-10.6,3.5-21.6,5.8-32.6,7.6c-1.4,0.2-1.8-0.2-2-1.4c-0.4-2.9-1.1-5.9-1.2-8.8
	c-0.4-9.9-1.8-19.8-2.2-29.7c-0.3-6.6-1.1-13.2-1.3-19.8c-0.1-3.4,1.6-6.5,1.6-9.9c2.1-3.6,5.9-4.9,9.6-6c4.1-1.3,8.4-1.6,12.6-1.9
	c2.4-0.2,2.7-1.1,2.7-3c0-3.2,0.1-6.4,0.2-9.6c1.5,0,1.5,1.2,1.5,2.1c0.2,3.3,0.4,6.6-0.3,9.7c2.2-1.9,4.6-0.4,6.9,0
	c-3.2,13.8-4.4,27.9-4.8,42.1c-0.1,5.1-0.1,10.2,0.7,15.2C261.7,372.6,264.2,377.3,269.6,380.2z"/>
<path class="st72" d="M152.3,260.9c4.8-3.8,10.5-6.2,15.9-9c1.8-0.9,4.1-1.9,1.2-4.2l0,0c0.1-1.8,3.7-2,2.1-4.6
	c0.1,0,0.2-0.1,0.4-0.1c2.3,0.1,3.1-1.6,3.5-3.3c0.4-1.7-1.3-2-2.5-2.5c-0.7,0.4-0.8,0-0.9-0.6c1.3-3.4,0.9-4.2-2.8-4.2
	c-3.6,0.1-7.1,0.4-10.7,0.7c1.6-7.3,3.3-14.6,4.6-21.9c0.4-2.4,1.4-2.7,3.5-2.7c11.5,0.1,22.9,0,34.4,0c1.5,0,2.9-0.1,4.4-0.2
	c0.4-0.3,0.8-0.2,1.2,0.1c5.4,0.3,5.4,0.3,3.9,5.4c-1,3.6-2.1,7.2-3.2,10.8c0.3,0.7,0.1,1.3-0.1,1.9c-1,2.7-1.4,5.7-3.1,8.2
	c-0.9,0.6-1.9,0.3-2.9,0.2c-3.5-0.4-6.3,1-8.5,3.7c-0.4,0.6-0.7,1.1-0.6,1.8c0.4,3.7,0.5,7.4,1.1,11c0.4,2.7,2.3,4.7,4.4,6.5
	c0.9,0.8,2.2,1.3,2.4,2.6c-0.8,1.5-0.6,3.1-1,4.7c-14,0.7-28.1,0.5-42.1,0.3c-1.6,0-4.4,1.1-4.5-2.3
	C151.8,262.4,151.8,261.6,152.3,260.9z"/>
<path class="st73" d="M206.6,225.6c0.2-0.4,0.5-0.8,0.7-1.2c5.3-0.8,10-3.2,14.9-5.1c3.2,9.3,5.5,18.9,6.7,28.6
	c0.7,5.7-0.5,11-5.8,14.6c-2.4,1.6-4.9,2.7-7.8,2.5c-5.4-0.3-10.4-1.6-14.8-4.7c-2.2-2.5-5.4-4-6.9-7.2c-0.5-1.1-1.5-2.2-0.6-3.4
	c1-1.2,2.1-0.1,3.1,0.2c1.7,0.4,3.4,1.1,5,1.8c-2-0.8-4-1.5-6-2.2c-1.4-0.5-2.3-1.5-2.8-2.7c-0.4-1-0.9-2.1,0-3.1
	c0.9-1,1.8-0.3,2.8-0.1c3,0.5,5.7,1.7,8.5,2.7c-2.8-1.1-5.6-2.1-8.6-2.8c-1.8-0.4-3.7-1.3-2.9-3.7c0.7-2,2.4-2.2,4.4-1.5
	c3,1,6.1,1.5,9,2.6c-2.7-1.1-5.5-1.7-8.3-2.4c-1-0.2-2-0.7-1.9-2c0.1-1.1,0.9-1.4,1.9-1.5c6.1-1,11.5,0.1,16.2,4.1
	c1.6,1.3,3,2.9,4.4,4.3c-2.7-2.6-5.2-5.5-8.6-7.4C206.6,233,206.8,229.3,206.6,225.6z"/>
<path class="st74" d="M265,309.5c-2.5-0.2-5.9,1.3-7.2-0.3c-1.3-1.6-0.3-4.8-0.4-7.3c-0.1-1.4,0.5-2.8-0.5-4.1
	c-0.1-10.9,1-21.8,2-32.6c15,2.7,30.2,3.2,45.4,3.2c-3.5,1.5-7,2.9-10.4,4.7c-6.5,3.5-13.2,6.5-18.1,12.3c-4.1,4.9-5.7,10.9-8,16.6
	c-0.9,2.3-0.5,5.2-3.8,6.5C262.9,308.8,265.6,308.1,265,309.5z"/>
<path class="st75" d="M210,235.7c4.4,2.2,7.1,6.2,11.1,9.7c-3,0.1-4-1.9-5.2-3.2c-4-4.4-9-6.5-14.9-6.8c-0.3,0-0.7-0.1-1-0.1
	c-1.4,0.3-3.8-0.5-4,1.3c-0.2,1.9,2.2,1.4,3.5,2c2.8,1.1,6.1,1,8.3,3.5c-3.9-1.1-7.9-2.1-11.7-3.3c-1.8-0.6-3-0.2-3.5,1.4
	c-0.4,1.6,0.9,2.4,2.3,2.7c3.8,0.9,7.4,2.3,11.7,3.9c-2.9,0.8-4.6-0.8-6.5-1.2c-1.4-0.3-2.8-1-4.2-1.2c-1.1-0.2-2.5-1.7-3.2,0
	c-0.7,1.7,0.1,3.4,1.8,4.2c2.5,1.2,5.2,2.1,7.8,3c0.6,0.2,1.3,0.3,1.6,1.3c-3.1-0.2-5.7-2.1-8.6-2.6c-0.6-0.1-1.3-0.9-1.8-0.2
	c-0.6,0.7-0.2,1.4,0.3,2.1c1.5,2.4,3.7,4.2,5.7,6c0.6,0.6,1.6,1,1.1,2.1c0,0-0.3,0-0.3,0s-0.3,0-0.3,0c-2.7-1.5-4.8-3.6-6.6-6.1
	c-2.2-3.1-1.1-6.8-2-10.2c-0.2-0.8,0.2-2-0.2-3.1c-0.9-2.3,2.3-5.7,5.6-6.6c2.4-0.6,4.7-0.2,7-0.1C206.4,232.8,208,235,210,235.7z"
	/>
<path class="st76" d="M987.4,345.6c2.9-6.3,4.1-13.1,6.9-19.4c-1.5,6.6-3.1,13.2-6,19.5C988,345.7,987.7,345.7,987.4,345.6z"/>
<path class="st77" d="M993,346.6c3.3-5.7,5.1-12,7.2-18.2c-0.9,6.6-3,12.9-6.6,18.6C993.4,346.8,993.2,346.7,993,346.6z"/>
<path class="st76" d="M999.6,344.1c3.1-5,4.4-10.6,5.8-16.2c-0.6,6.1-1.4,12-5.7,16.9C999.7,344.5,999.7,344.3,999.6,344.1z"/>
<path class="st78" d="M985.2,326c-0.7-2.2,0.6-4.2,0.8-6.3c1,3.4,0.9,6.7-0.5,10C985.4,328.4,985.3,327.2,985.2,326z"/>
<path class="st4" d="M280.6,416.5c-0.8,0.2-0.8,0.6-0.8,1.4c0.1,6.6,0,13.3,0.2,19.9c0.1,2.5-0.8,2.5-2.9,2
	c-11-2.4-14.4-10.6-16.1-20.1c-0.2-1.3-0.4-2.6-0.8-3.9c-0.5-1.4,0.3-1.9,1.3-2.5C267.8,414.5,274.2,415.5,280.6,416.5z"/>
<path class="st79" d="M939,440.1c0.4,0,0.8-0.1,1.2-0.1c1.5,0.6,2.2,1.6,1.9,3.3c-1.3,10.3-5.7,18.4-16.5,22.7
	c-2.2,0.9-2.5,0.1-2.5-1.8c0-6.4-0.1-12.7-0.2-19.1C928.3,443.5,933.6,441.8,939,440.1z"/>
<path class="st66" d="M323.9,245.1c0-0.7-0.2-1.2-0.8-1.7c-5.8-5.3-6.5-9.5-2.7-16.3c1.5-3.2,3.9-4.2,7.3-2.9
	c3.7,1.3,5.3,4.6,6.9,7.7c0.6,1.1,0.5,2.9,2.3,2.8c1.6-0.1,2.4-1.4,2.9-2.9c0.4-1.1,1-2,2.3-2c1-0.1,2,0.3,3,0.5
	c2.5,0.5,3.6,1.6,3,4.4c-1.1,4.6,1,8,5.3,9.4c5.4,1.8,9.7,0.5,12-3.7c0.3-0.5,0.5-1,0.7-1.5c0.5-1.1,0.8-2.5,2.4-2.5
	c1.5,0,2.5,1,3,2.3c1.2,2.8,2.5,5.5,3.5,8.3c1.4,3.8-0.5,6.8-4.6,7.6c-1.8,0.3-3.5,0.7-6.1,0.7c3.2,0.5,5.6-0.1,8-0.8
	c1.2-0.4,2.1-1,2.7-2.3c1.9-4,3-4.3,7.2-2.5c-0.8,7.1-3.1,13.6-7.4,19.3c-4.2,5.5-9.7,8.4-16.9,7.9c-7.1,0.6-12.5-3.1-17.7-6.7
	c2.9,4.1,6.3,8.2,12.1,9.3c0.8,0.1,1.6,0.2,2,1c-2.7,4.5-7.5,7.8-8.6,13.3c-0.3,1.5-1.2,0.8-2,0.4c-2.9-1.6-5-4.1-7.3-6.4
	c-6.9-6.5-13.4-13.4-17.5-22.1c2.3-4.4,2.7-9.4,4.3-13.9C323.9,249.5,325.4,247.4,323.9,245.1z"/>
<path class="st7" d="M342.1,230.2c-1.3,0-1.3,0.9-1.3,1.8c-0.1,1.6-1.1,2.5-2.5,3.3c-2,1.2-3.1,1.2-3.8-1.3
	c-0.6-2.4-1.7-4.5-3.3-6.5c-3.3-4-7.3-4.2-10.8-0.5c-0.1-1.1-0.1-2.2-0.2-3.3c-0.3-2.4-0.3-4.9,0-7.3c0-4.1,0.5-8.1,1.6-12.1
	c2.6-8.5,9.5-13.6,19.9-14.6c2.8-0.3,5.6-0.4,8.4-0.6c8.4,1.1,16.7,2.5,24.4,6c3.7,1.7,7.6,3.2,11.4,6c0.3-4.1-0.2-7.7,1.5-11
	c0,1.9,0,3.8,0,5.7c0,3.2-0.6,6.3,1.4,9.5c1.7,2.6,0.9,6-1.6,7.9c-2.3,1.7-2.5,3.6-2.5,6c0,1.2,0.2,2.5-0.7,3.5
	c-1.3-1.4-0.8-3.1-0.9-4.7c-0.1-1.4-0.6-2.1-2.1-1.8c-7.1,1.4-13.5-1.4-20-3.5c-2.9-0.9-5.7-2-8.7-2.5c-3-0.5-5.3,0.4-6.7,3.2
	c-1.3,2.6-2.4,5.2-3.2,8c-0.9,2.9-0.8,5.4,1.9,7.3C344.5,230.5,342.9,229.8,342.1,230.2z"/>
<path class="st80" d="M344.2,228.8c-3.3-0.4-4-2.2-3.2-5.3c1-4,2.3-7.8,4.2-11.5c1.3-2.5,3.2-3.5,6-3c3.1,0.5,6.1,1.4,9.1,2.5
	c3.8,1.5,7.7,2.6,11.6,3.5c3.2,0.8,6.5,1.2,9.6,0c2.3-0.8,2.7,0,2.5,2.1c-0.2,1.9,0,3.8,0,5.6c-0.1,2.8-0.2,5.5-0.2,8.3
	c-0.7,0.8-1.7,0.5-2.6,0.4c-3.3-0.4-6.1,0.3-8.4,3c-1.9,2.2-4.6,1.5-5.9-1.2c-1-2-2.2-3.8-4.2-5c-4.5-2.7-7.7-2.5-11.8,0.7
	C348.3,230.9,347,230.9,344.2,228.8z"/>
<path class="st81" d="M344.2,228.8c2.6,0.9,4.6,0.8,7.1-1.3c5-4.3,13.7-1.4,16,4.8c1.1,3,3.2,3.5,5.1,1.1c3.1-3.9,7.1-3.5,11.3-2.5
	c3.7,1.4,5.3,4,5.1,8c-0.2,5-2,8.7-6.8,10.7c-0.9,0-1.8,0.1-2.7-0.1c-2.1-0.4-3.4,0.1-3.4,2.5c0,1.5-0.9,2.4-2.3,2.9
	c-3.3,1.2-6.8,1.4-10.3,1.1c-0.7,0-1.5-0.2-1.5-1c0-0.9,1-0.7,1.6-0.8c2.1-0.2,4.3-0.3,6.4-0.6c4.1-0.6,5.7-3,4.3-6.8
	c-1.1-2.9-2.4-5.7-3.5-8.6c-0.4-1-1.1-1.4-2-1.5c-1.3-0.1-1.3,1-1.5,1.8c-2.3,7.5-8.8,8.4-15.2,5.7c-4.2-1.7-6.2-5.4-4.7-9.4
	c1-2.9,0.1-3.6-2.5-4c-0.9-0.1-1.7-0.5-2.6-0.7C342.7,229.5,343.9,229.8,344.2,228.8z"/>
<path class="st82" d="M307.5,311.2c-0.5,3.4-0.9,6.8-1.5,10.2c-1.6,9.1-3.3,18.3-5.1,27.4c-0.4,2.1,0.2,2.6,2.3,2.9
	c13.8,1.9,27.7,3.1,41.6,4.4c0.6,0.1,1.1,0,1.7,1c-19-0.6-37.6-2.9-56-6.1c2.3-1.1,4.4,0,6.6,0.1c1.7,0.1,2.3-0.3,2.6-2
	c1.9-11.1,3.9-22.2,6-33.3c0.3-1.5,0.7-3.1,1-4.6C306.9,311.1,307.2,311.1,307.5,311.2z"/>
<path class="st83" d="M374.4,353.4c-3.9,0.8-7.4,3-11.5,3.4c0.6-5.8,2.7-11.2,4-16.7c0-0.4,0.2-0.6,0.6-0.5c0.4,4.1,3.7,7,5.1,10.7
	C373.2,351.3,373.9,352.3,374.4,353.4z"/>
<path class="st84" d="M354.3,280.4c-8.2-0.5-12.7-5.7-15.9-12.6c5.6,5,12.2,7.7,19.5,9C356.9,278.2,355.9,279.5,354.3,280.4z"/>
<path class="st85" d="M367.6,339.5c-0.2,0.2-0.4,0.4-0.6,0.5c-0.5-0.4-0.6-0.9-0.4-1.5c3.6-10.7,6.2-21.7,8-32.8
	c0.1-0.7,0.3-1.3,1.4-1.9C374.8,316.3,371.6,328,367.6,339.5z"/>
<path class="st86" d="M466.6,179.4c-1.3,10.9-2.5,21.8-3.8,32.7c-0.3,0-0.6-0.1-0.9-0.1c0.3-11,2.4-21.8,3.6-32.7
	C465.9,179.4,466.2,179.4,466.6,179.4z"/>
<path class="st87" d="M404.6,372.4c0.7-0.5,1.4-1.1,2.1-1.6c4.6-0.2,9.3-0.5,13.9-0.7c-0.1,1,0.5,2.5-1.3,2.4
	C414.4,372.2,409.5,373.4,404.6,372.4z"/>
<path class="st88" d="M152.3,260.9c0,0.7,0,1.5,0,2.2c-3,3-6.7,1.3-10.2,1.6c0-0.4,0-0.8-0.1-1.3C145.3,261.8,148.5,260,152.3,260.9
	z"/>
<path class="st89" d="M981.9,194.1c0.9,11,0.5,22.1,1.1,33.1C981,216.2,981.5,205.1,981.9,194.1z"/>
<path class="st64" d="M751,287.7c0.8-8.7,2.4-17.3,5.2-25.7c3.3-0.5,6.4,0.7,9.6,1c14.8,1.6,29.6,1.8,44.4,0.7
	c4.1-0.3,4.1-0.2,3.5,3.6c-0.7,4.7-1.1,9.4-2.3,14c-1,4.1,2.4,4.9,4.3,6.9c0.7,1.6-0.3,2.8-0.9,4c-2.5,5.2-5.2,10.3-8.1,15.3
	c-0.9,1.5-1.6,3.2-2,4.9c-0.2,1-0.6,2.1,0.4,2.7c1.2,0.7,2.1-0.4,2.8-1.1c1.1-1.1,1.9-2.4,2.9-3.7c0.6-0.8,1.1-1.9,2.3-1.6
	c1.3,0.4,0.8,1.6,0.8,2.6c-0.4,5.5-1.6,10.9-2.5,16.4c-0.2,1.4-0.9,3.1,1.8,2.7c0.3,0,0.6,0.1,0.9,0.2c0.8,1.6,1.6,2.2,3.8,1.8
	c2-0.3,5.2-1.7,6.7,1.6c-1,2.8-3.4,4.6-4.9,7c-0.5,0.8-1.3,1.5-0.7,2.6c-1.1,3.1-3.5,5.4-5.3,8c-1.5,2.1-3.1,2.2-5.1,0.5
	c-5.6-4.8-11.2-9.5-16.7-14.4c-1.2-1-2.4-2-3.6-3c-1.3-1.2-2.8-2.2-3-4.2c-0.3-7.5-1.7-14.8-3.3-22c-0.2-0.4-0.7,0.2-0.3,0
	c0.1-0.1,0.2,0,0.3,0.2c1.5,6.7,3.1,13.5,2.9,20.4c-1.3,1.4-2.2,0.1-3-0.6c-5.4-4.7-10.5-9.6-16-14.2c-1.4-1.2-2.3-2.7-2.9-4.4
	c-2.3-7-5.7-13.4-10.7-19C751.4,290,750.3,289.1,751,287.7z"/>
<path class="st90" d="M824.4,334c-0.3-0.6-1.1-1.4-1.5-1.1c-2.1,1.5-4.4-1-6.8,0.9c-1.4,1.1-3.1-0.6-2.2-2.8c1.5-4,3.1-8,3.7-11.6
	c0.1-1.2-0.7-0.7-0.2-0.7c0.2,0,0.3,0,0.3,0.2c-1.2,4.1-1.4,8.6-4.6,12c-0.8,0.4-1.4,1.8-2.5,1c-1-0.8-0.5-2.1-0.4-3.1
	c1.1-6.5,2.4-13,3.1-20.4c-1.7,2.3-2.9,4.1-4.3,5.7c-1.2,1.4-2.5,3.5-4.6,2.5c-2.1-1-1.1-3.3-0.6-5.1c1.6-5.2,5.3-9.4,7.6-14.4
	c1.4-3,2.9-6,4.3-9c6.6,0.6,12.9,2.4,19.5,3.3c-1,12.2-1.8,24.4-5.5,36.1C828,329.8,827,332.5,824.4,334z"/>
<path class="st91" d="M753.8,251.7c-0.4,0-0.9,0-1.3,0c1.9-9.1,0.8-18-1.7-26.8c-2.9-10.4-1.8-20.8-0.2-31.2
	c0.1-0.6,0.6-1.1,1.2-2.5c-0.2,5.1-1.2,9.3-1.5,13.6c-0.8,10.1,2,19.7,3.7,29.5C755,240,755.4,245.9,753.8,251.7z"/>
<path class="st92" d="M814.8,252.7c-0.1-16.6-2.6-32.9-4.3-49.4C813.6,219.7,816,236.1,814.8,252.7z"/>
<path class="st93" d="M604.1,300.6c1.9,2.2,1.6,4.8,1.9,7.2c1.5,11.5,2.7,23.1,3.3,34.7c0.1,2.1,0.6,2.8,2.8,2.2
	c1.7-0.5,3.5-0.5,6.1-0.9c-3.1,2.5-6.4,1.5-9.1,2.5c-1.1,0.4-0.9-0.9-1-1.6c-0.6-7.8-1.2-15.7-1.9-23.5c-0.4-4.8-1.2-9.7-1.7-14.5
	C604.3,304.6,604.3,302.6,604.1,300.6z"/>
<path class="st94" d="M254.7,170.5c0.4-1.3,0.1-2.9,1.3-4c0.3,10.1-0.5,20.1-1,30.2c-0.3,5.3,0.3,10.8-1.3,16.1
	C253,198.7,254.4,184.6,254.7,170.5z"/>
<path class="st95" d="M269,197.8c-1.8,8.5-2.8,17.3-7.1,25.1C264.6,214.7,265.8,206,269,197.8z"/>
<path class="st96" d="M323.9,245.1c2.2,1.5,1.9,3.7-0.7,6.5C323.4,249.4,323.7,247.2,323.9,245.1z"/>
<path class="st66" d="M320.3,216.4c0,2.4,0,4.9,0,7.3C319.7,221.2,319.6,218.8,320.3,216.4z"/>
<path class="st31" d="M785.5,330.8c7.7,7.6,16.2,14.4,24.4,21.4c1.1,1,1.7,0.7,2.6-0.5c2.1-2.7,3.7-5.8,6.3-8.1
	c5.4,4.8,10.9,9.6,16.4,14.4c2,1.7,4.2,3.2,6.4,4.8c-0.7,1.8-2.4,2.7-3.7,4c-4.9,4.4-9.9,8.8-15.7,12.2c-10.7,6.3-19.6,4.9-27.8-4.3
	c-0.4-0.4-0.8-0.8-1.2-1.2c-4.8-3.9-8.5-8.7-12.3-13.5c-9.1-10.6-18.3-21.3-27.4-31.9c-2.4-2.8-5.5-4.8-9-6.2
	c-8.4-6-16.8-11.9-23.6-19.7c-0.7-0.7-1.5-1.4-1.9-2.3c-0.9-1.7-0.8-3.2,1.7-3.4c-0.9-1.8-3.6-2.9-2.5-5.4c0.7-1.6,2.3-0.8,3.6-0.5
	c-0.4-1.8-2.7-3-1.2-4.9c1.3-1.6,2.6,0.3,3.9,0.5c0.5-1.5-0.7-3.5,1.4-4.3c2.1-0.8,3.3,0.9,4.5,2.1c4.5,4.2,9.3,8,14.9,10.8
	c1.1,0.5,2,1.4,3,2.1c1.2,2.8,0.7,5.8,0.8,8.7c0,1.6,0,3.2,0.3,4.8c-0.3-4.5-0.4-9.1-0.3-13.6c-0.8-2.2-1.6-4.3-2.3-6.5
	c-0.5-1.6-1.3-3.4,0.4-4.5c1.9-1.3,2.6,1,3.8,1.7c0.1,1.5,1.4,2.2,2.3,3.2c4.5,5.1,7.8,10.8,9.7,17.2c1,3.1,2.8,5.3,5.3,7.4
	c5.5,4.7,10.8,9.6,16.2,14.4C785,329.9,785.4,330.2,785.5,330.8z"/>
<path class="st65" d="M908.7,276.3c0.9,5,0.7,10.1,0.8,15.2c1,1.9,0.5,4.3,2.1,5.9c0,0-0.1,0.2-0.2,0.2c-0.2,0.1-0.4,0.1-0.6,0
	c-2.4-0.2-4.9-1-7.3,0c-1.2-5.8-0.3-11.7-0.6-17.5C905.2,279.3,907,277.9,908.7,276.3z"/>
<path class="st97" d="M910.9,297.6c-2.2-1.7-1.5-4-1.3-6.1c-3-12.2,7.1,0.4,13.4,9.4C918.9,299.5,915,299.1,910.9,297.6z"/>
<path class="st98" d="M844.4,361.5c-0.2,0-0.4,0.1-0.5,0.2c-1.4-7.6-0.4-15.1,1-22.6c0.8-3.9,1.8-7.8,2.7-11.6
	c0.3,0.1,0.6,0.1,0.9,0.2c-0.8,3.8-1.6,7.6-2.5,11.4C844.1,346.5,844.7,354,844.4,361.5z"/>
<path class="st99" d="M913.8,367.1c0.7-8.9,1.5-17.8,2.2-26.7c0.4,0,0.7,0,1.1,0.1c-0.7,8.9-1.4,17.8-2.1,26.7
	C914.5,367.2,914.1,367.1,913.8,367.1z"/>
<path class="st100" d="M673.2,249c-0.6,0-1.3,0.1-1.9,0.1c1.4-3.4,1.5-7.1,2.1-10.7C674.8,241.9,673,245.4,673.2,249z"/>
<path class="st101" d="M482.2,351.6c-3,0-5.3-2.3-5.2-5.3c0.1-2.9,2.9-5.6,5.9-5.7c3,0,5.3,2.2,5.4,5.2
	C488.4,348.8,485.4,351.6,482.2,351.6z"/>
<path class="st102" d="M535.9,337.5c-1.6,4.5-3.3,9-6,13c-0.9,1.4-1.9,2.7-3.4,3.5c2.7-9.1,5.4-18.2,8.3-28.1
	C535.2,330.4,535.6,333.9,535.9,337.5z"/>
<path class="st103" d="M401.2,370c-4.3-4.7-8.7-9.2-14.4-12.4c6.5,2,10.7,6.8,14.8,11.8C401.5,369.7,401.4,369.9,401.2,370z"/>
<path class="st104" d="M138.4,200.8c-2.1,9.1-3,18.5-6.5,27.3C134.1,219,134.8,209.6,138.4,200.8z"/>
<path class="st105" d="M206.6,208.3c-0.4,0-0.8,0-1.2-0.1c-1-3.8-2.7-7.5-2.7-11.6C204.4,200.4,205.9,204.2,206.6,208.3z"/>
<path class="st106" d="M126.1,242.5c-3.5,0.5-7,1.1-10.4,1.6c3-2.4,6.8-1.4,10.1-2.3C125.9,242,126,242.2,126.1,242.5z"/>
<path class="st107" d="M676.6,330.1c0.1-0.9,0.2-1.7,0.2-2.6c3-4,4-8.8,5.2-13.4c0.4-1.7,0.8-3.3,1.6-4.8
	C682.8,316.7,680.8,323.8,676.6,330.1z"/>
<path class="st108" d="M671.2,326.9c2.5-6.2,4.3-12.6,6.6-18.9C676.2,314.5,675.6,321.3,671.2,326.9
	C671.2,326.8,671.2,326.9,671.2,326.9z"/>
<path class="st103" d="M683.5,327.4c0-0.4-0.1-0.8-0.1-1.2c3-5,4.4-10.5,5.9-16C688.5,316.3,687.2,322.2,683.5,327.4z"/>
<path class="st109" d="M694.3,188.3c3.3,2.6,7.4,4.3,9.8,8c-3.3-2.7-7-4.9-10.5-7.3C693.8,188.8,694.1,188.6,694.3,188.3z"/>
<path class="st110" d="M669.1,308.8c-2.5,0.1-0.8-1.8-1.3-2.6c1.3-1.7,0.1-4.2,2.3-6.1C670.7,303.4,668.8,306,669.1,308.8z"/>
<path class="st111" d="M676.2,240.3c1.8-1.6,3.9-1.9,7-1.9C680.6,240.1,678.4,240.1,676.2,240.3z"/>
<path class="st112" d="M416.8,334.4c-0.3-13.9,3-27.3,5.9-40.8C421.1,307.3,418.2,320.7,416.8,334.4z"/>
<path class="st113" d="M877,272.6c-3.1,8.4-9.5,9.6-18.8,3.1C865.5,277.7,870.9,273.8,877,272.6z"/>
<path class="st114" d="M864.1,252.7c-2,3.6-3.6,6.6-5.4,9.4c-1.5,2.5-0.8,3.8,1.9,4.5c1.5,0.4,2.9,1,4.2,1.9c-2.8,0.7-5.5,0.2-8-1.1
	c-1.3-0.7-1.9-2.1-1.2-3.4c2.1-3.6,4.4-7.2,6.6-10.7C862.3,253,862.9,253,864.1,252.7z"/>
<path class="st115" d="M856.2,252.9c-0.1,1-0.3,2.3-1.6,2.4c-1,0-1.3-1.1-1.3-2.1c0-1.1,0.3-2.2,1.4-2.3
	C856,250.7,856.2,251.8,856.2,252.9z"/>
<path class="st116" d="M880.5,250.8c-1.9-3.7-4.6-4.7-7.6-5c-0.8-0.1-1.8,0.1-1.7-1c0.1-1,1-1,1.8-1.1
	C877.1,243.1,879.7,245.2,880.5,250.8z"/>
<path class="st117" d="M871.7,254.9c0.1-1.1-0.2-2.5,1.4-2.5c1,0,1.2,1.2,1.2,2c-0.1,1.2-0.1,2.8-1.6,2.9
	C871.5,257.4,871.7,255.9,871.7,254.9z"/>
<path class="st118" d="M565.7,231.1c-5,5.6-10.8,6.2-16.2,1.8c0.1-0.5,0.2-1,0.2-1.5c4.8,0.9,9.5,0.8,13.9-1.7
	C564.7,229.6,565.2,230.2,565.7,231.1z"/>
<path class="st119" d="M552,210.1c-0.1,3.1-1,6-1.9,8.9c-0.9,3-0.4,4.9,3.1,5.4c0.7,0.1,1.4,0.5,2.6,1c-2.9,0.9-5.2,0.8-7.3-0.9
	c-2-1.6-1-3.6-0.5-5.5c1-3.1,2-6.1,3-9.2C551.4,210,551.7,210.1,552,210.1z"/>
<path class="st120" d="M569.1,204.5c-2.7-2.2-5.4-3.7-8.8-3.4c-0.7,0.1-1.3-0.1-1.4-1c0-0.5,0.1-0.8,0.6-1
	C562.9,197.2,568.3,200.1,569.1,204.5z"/>
<path class="st121" d="M546,199.1c-0.2,0,0.5,0,1.1,0.1c0.7,0.2,1.1,0.8,1,1.5c-0.1,0.9-0.7,0.9-1.5,0.9c-2-0.1-4,0.1-5.8,1.1
	c-0.4,0.2-0.8,0.5-1.1,0c-0.4-0.5-0.2-1.1,0.1-1.5C541.1,199.3,543,199,546,199.1z"/>
<path class="st122" d="M543.2,210.6c0-0.8-0.1-2,0.8-2c1.2,0.1,1.2,1.4,1.2,2.5c0,0.8,0.1,2-0.8,2
	C543.2,213,543.2,211.6,543.2,210.6z"/>
<path class="st123" d="M560.8,210.8c0-1-0.1-2.3,1-2.2c1.5,0.1,1.7,1.6,1.7,2.8c0,0.9,0.3,2.4-1.2,2.2
	C560.9,213.4,560.9,211.9,560.8,210.8z"/>
<path class="st67" d="M932.3,141.2c-1.7,0.1-3-0.8-4.4-1.4c-1.3-0.6-2.7-1.6-2.4-2.9c0.4-1.6,2.1-0.6,3.2-0.6c2.8-0.2,5.4-1.1,8-2.3
	c1.2-0.6,2.7-1.6,3.7-0.5c1.1,1.2-0.5,2.4-1,3.5C937.9,139.8,935.4,141,932.3,141.2z"/>
<path class="st124" d="M925,113.4c0.2,2.9-0.8,5.5-1.7,8.2c-1.1,3.1-0.4,4.8,2.9,5.4c0.5,0.1,1.4,0,1.6,1.2
	c-1.8,0.9-3.8,0.7-5.6,0.1c-1.4-0.5-2.7-1.7-2.2-3.3c1.2-3.9,2.7-7.8,4.1-11.7C924.4,113.2,924.7,113.3,925,113.4z"/>
<path class="st125" d="M942,106.6c-2.1-1.9-4.3-2.8-6.9-2.7c-0.9,0-1.9,0.2-1.8-1.2c0.1-1.1,0.8-1.3,1.8-1.5
	C939,100.7,941.8,102.7,942,106.6z"/>
<path class="st125" d="M915.1,106.6c2.4-1.9,4.8-2.8,7.6-2.7c1,0,2.1,0.2,2-1.2c-0.1-1.1-0.9-1.3-2-1.5
	C918.3,100.7,915.2,102.7,915.1,106.6z"/>
<path class="st126" d="M919.9,112.5c-0.1,1,0,2.4-1.3,2.4c-1.3,0.1-1.4-1.3-1.4-2.4c0-1.1,0.2-2.5,1.4-2.5
	C919.8,110,919.9,111.3,919.9,112.5z"/>
<path class="st127" d="M933.4,113.4c0.3-1.2,0.2-2.8,1.5-2.9c1.3-0.1,1.6,1.3,1.5,2.5c-0.1,1.2-0.1,2.8-1.5,2.9
	C933.5,115.9,933.8,114.2,933.4,113.4z"/>
<path class="st128" d="M968,126.5c-0.6,0.8-1.6,1.4-1.6,2.7c-0.9,0.1-1.7-0.3-2.3-1.1C965.5,127.7,966.4,126.5,968,126.5z"/>
<path class="st129" d="M177.4,140.7c5.2,2.3,10.2,3,15.7,2.3C188.4,146.8,179.9,145.8,177.4,140.7z"/>
<path class="st130" d="M189.5,137c5.8-3,3.7-6.7,1.7-10.6c-0.6-1.3-1.6-2.6-0.8-4.4c2.1,3.6,5,7,4.9,11.2
	C195.2,135.6,192.7,137,189.5,137z"/>
<path class="st131" d="M173.1,116c0.4-4.1,4.7-6.5,8-4.9c0.7,0.3,1.1,0.7,1,1.5c-0.1,0.6-0.6,0.6-1,0.6c-1.4,0.1-2.9-0.2-4.3,0.6
	C175.7,114.5,174.5,115.2,173.1,116z"/>
<path class="st132" d="M181.1,122.8c-0.1,1-0.1,2.3-1.3,2.3c-1.8,0-1.8-1.7-1.9-2.9c-0.1-0.9,0.1-2.3,1.3-2.2
	C181,119.9,180.9,121.6,181.1,122.8z"/>
<path class="st132" d="M198.2,122.7c-0.1,1,0,2.2-1.1,2.2c-1.5,0-1.4-1.7-1.6-2.8c-0.1-0.9,0.1-2.2,1.1-2.1
	C198.1,119.9,198,121.5,198.2,122.7z"/>
<path class="st133" d="M779.6,112.6c0.2,1,0.4,2.1,0.7,3.6c-2.3-1.7-4.1-3.4-6.4-4.3c-1.2-0.5-0.3-1.1,0.4-1.5
	C776.4,110.2,778.2,111.1,779.6,112.6z"/>
<path class="st134" d="M628.8,130.4c-3.5,6.4-11.3,8.7-18.4,5.4c-0.2-0.8-1.8-0.7-1.4-2c7.1,1.3,13.5-0.9,19.7-4
	C628.6,130.1,628.7,130.2,628.8,130.4z"/>
<path class="st135" d="M614.3,127.7c-1.5,0.4-3.1,0.4-4.6,0c-2.3-0.6-4.1-1.9-3.4-4.5c1.1-3.8,3-7.3,5-10.8c0.1-0.2,0.6-0.2,1.2-0.4
	c-0.2,2.8-1.6,4.9-2.6,7.1c-2.2,5.1-2.1,5.4,3.2,7.4C613.5,126.9,614.2,127,614.3,127.7z"/>
<path class="st136" d="M628.6,129.9c-3.4,2.7-7.2,4.4-11.6,5.1c-2.8,0.4-5.5,0.2-8.1-1.1c0.5-0.9,1.3-0.7,2.1-0.6
	c5.8,0.3,11.2-1,16.2-3.6C627.8,129.3,628.3,129.3,628.6,129.9z"/>
<path class="st137" d="M630.3,105.4c-2.5-1.7-4.9-2.5-7.7-2.4c-0.6,0-1.2-0.3-1.3-0.8c-0.1-0.3,0.2-1,0.4-1.1c1.9-0.8,4-0.8,5.8,0.1
	C629.2,101.9,630.8,102.8,630.3,105.4z"/>
<path class="st138" d="M606.8,111.1c0,1.6-0.3,3.2-1.8,3.3c-1.3,0.1-1.5-1.4-1.6-2.6c0-1.5,0.2-3,1.8-3.1
	C606.7,108.6,606.7,110.1,606.8,111.1z"/>
<path class="st139" d="M621.8,112.2c0.2-1.2,0.2-2.8,1.6-2.8c1.6,0,1.7,1.7,1.7,3c0,1.2,0,2.8-1.6,2.6
	C622,115,622,113.4,621.8,112.2z"/>
<path class="st140" d="M324.8,133.1c-4.6,4.5-11.6,4.9-16.3,1.1c-0.3-0.3-0.7-0.6-1-0.9c-0.6-0.6-0.9-1.4-0.5-2.1
	c0.6-1.2,1.3-0.1,1.9,0.2c3.6,1.7,7.2,2.9,11.3,2.6C321.8,133.8,323.3,133.6,324.8,133.1z"/>
<path class="st141" d="M320.8,127.6c0.3-0.4,0.3-0.5,0.4-0.6c8.2-3.9,5.4-4.8,2.4-10.1c-0.9-1.6-2.1-3.1-3.2-4.7
	c-0.3-0.4-0.8-0.9-0.2-1.4c0.6-0.4,1.1-0.1,1.4,0.4c2.4,3.5,5.3,6.7,6.6,10.8C329.5,125.7,326.4,128,320.8,127.6z"/>
<path class="st142" d="M313.7,103.2c0.2,1.6-0.6,1.9-1.8,1.9c-2.1-0.1-4,0.1-5.9,1.1c-0.9,0.5-2,0.4-1.6-1c0.5-1.6,1.8-2.4,3.5-2.7
	c1.9-0.3,3.7-1.1,5.5,0C313.6,102.6,313.6,103.1,313.7,103.2z"/>
<path class="st143" d="M329.3,111.7c-0.1,0.9-0.4,2.1-1.3,1.9c-1.4-0.2-1.3-1.7-1.4-2.8c-0.1-0.8,0.2-1.7,1.2-1.6
	C329.2,109.5,329.1,110.8,329.3,111.7z"/>
<path class="st144" d="M312.9,112.8c-0.2,1.3-0.3,2.5-1.4,2.3c-1.5-0.2-1.9-1.6-1.9-3c0-0.9,0.2-2,1.3-1.9
	C312.8,110.2,312.2,112.1,312.9,112.8z"/>
<path class="st145" d="M759.2,141.7c5.9,1.6,10.7-0.4,15.1-4c0.4,2.8-1.2,5.5-3.9,6.8C767.1,146.2,762.5,145.1,759.2,141.7z"/>
<path class="st146" d="M765.4,134.5c-1.8,0-3.1,0.1-4.4,0c-4.4-0.5-5.6-3-3.5-6.7c1.6-2.9,3.5-5.7,4.6-8.8c0.2-0.6,0.7-1.4,1.4-1
	c0.9,0.4,0.4,1.1,0.1,1.7c-1.3,2.6-2.5,5.2-3.8,7.7c-1.6,3.2-1.4,3.8,2.1,5.3C762.9,133.1,764.2,133,765.4,134.5z"/>
<path class="st147" d="M757.8,119.2c-0.1,1.1-0.2,2.5-1.4,2.6c-1,0-1.2-1.3-1.2-2.3c0-1.1,0.2-2.4,1.3-2.5
	C757.5,116.8,757.8,118,757.8,119.2z"/>
<path class="st148" d="M752.6,110c-0.5-2,0.5-3,2-3.2c1.8-0.3,3.8-1,5.4,0.6c0.3,0.3,0.5,1,0.4,1.5c-0.1,0.6-0.8,0.7-1.4,0.5
	C756.8,108.4,754.8,109.3,752.6,110z"/>
<path class="st149" d="M771.3,120.8c0.2-0.9-0.2-2.2,1.3-2.1c2,0.1,1.4,1.6,1.4,2.6c0,0.8,0.2,2.2-1.2,2.1
	C771.1,123.2,771.5,121.7,771.3,120.8z"/>
<path class="st150" d="M442.2,128.8c-2.6,3.4-5.5,4.1-10,2.5c-2-0.7-4-1.6-5.4-3.2c-1-1.1-3-2.4-1.9-3.7c1.3-1.3,2.2,1.1,3.2,1.8
	C432.6,129.6,434.7,130.1,442.2,128.8z"/>
<path class="st151" d="M172,236.5c0.3,0.2,0.6,0.4,0.9,0.6c-0.1,0.1-0.1,0.3-0.2,0.3c-4.9,1-9.7,1.9-14.7,2.6
	C162.4,237.6,167.3,237.5,172,236.5z"/>
<path class="st152" d="M171.9,242.9c-0.1,0-0.3,0-0.4,0.1c-4.3,0.6-8.3,2.5-12.8,2.4C163.1,244.5,167.1,241.8,171.9,242.9z"/>
<path class="st153" d="M169.5,247.6c-2.7,2.8-6.7,2.4-9.9,4.1C162.5,249.4,166.1,248.7,169.5,247.6
	C169.4,247.6,169.5,247.6,169.5,247.6z"/>
<path class="st154" d="M242.1,123.3c0.8,2.7,1.6,4.8,1.9,6.9c0.3,2.8,2.6,3,5.5,4.2c-6.1,1.5-11.2,2.9-15.4,6.7
	c-0.6-2.6-1.2-4.8-1.9-7.6c1.8,1.6,1.3,3.6,2.5,4.8c2.6-1.4,5-2.9,7.6-4c1.7-0.7,1.6-1.4,1.2-3C242.8,128.8,241.6,126.5,242.1,123.3
	z"/>
<path class="st155" d="M252.7,137.8c0.1,0.6,0.9,1.1,0.3,1.8c-2.9,3.4-5,7.3-5.9,11.6C245.8,145.5,249.3,141.7,252.7,137.8
	C252.7,137.8,252.7,137.8,252.7,137.8z"/>
<path class="st156" d="M533.7,133.1c0.4,0.5,1.1,1,0.6,1.7c-0.6,0.8-1.2,0-1.7-0.4c-2.5-1.8-5.2-3-8.3-3.3c-2.3-0.2-1.6-1.9-1.4-3
	c0.9-4.6,1.9-9.2,3.2-13.7c-0.1,4.4-1.1,8.7-2.3,12.9c-0.9,3,1.4,2.2,2.6,2.7c1.7,0.7,2.3,0.1,2.6-1.7c0.8-4.7,1.9-9.3,3-13.9
	c0.4,4.1-0.9,8.1-1.9,12C529.2,130.4,530.2,132.2,533.7,133.1L533.7,133.1z"/>
<path class="st157" d="M516.2,134.9c5.3,2,7.7,6.2,8.5,11.4C523,141.7,519.4,138.5,516.2,134.9z"/>
<path class="st156" d="M533.7,133.2c1.5-4.5,1.3-9.4,3.5-13.7c-0.8,4.4-1.6,8.8-2.4,13.1C534.8,132.8,534.1,133,533.7,133.2
	C533.7,133.1,533.7,133.2,533.7,133.2z"/>
<path class="st158" d="M708.4,193.6c-1.3-1.6-2.7-3.3-4-4.9C706.1,189.9,707.3,191.7,708.4,193.6z"/>
<path class="st159" d="M700.6,200.6c-1.7-1.3-3.4-2.5-5.1-3.8C697.9,197.1,699.5,198.5,700.6,200.6z"/>
<path class="st160" d="M416.6,105.5c0-5.8,3.4-9.7,8.3-9.6c5.2,0.1,9.2,3.8,9.2,8.6c0,5.1-4.8,10.1-9.4,9.9
	C419.6,114.3,416.5,111,416.6,105.5z"/>
<path class="st161" d="M453.1,113.1c-6.8,0.5-12-5.1-10.9-11.8c0.6-3.6,3.6-4.5,6.6-5.3c1.4-0.3,2.9-0.5,4.2,0.2
	c0.8,4.7,0.6,9.4,1.1,14.1C454.2,111.4,453.9,112.4,453.1,113.1z"/>
<path class="st162" d="M453.1,113.1c-0.2-4.6-0.4-9.1-0.5-13.7c0-1-0.6-2.2,0.5-3.1c4.4,1.7,6.3,4.5,6.2,8.9
	C459.1,109.2,457.1,111.7,453.1,113.1z"/>
<path class="st163" d="M749.1,296.9c1.1,4.7-0.1,9.6,0.9,14.4c-2.7-4.5-1.5-9.5-1.7-14.3C748.5,297,748.8,296.9,749.1,296.9z"/>
<path class="st164" d="M844.6,404c-6.8,1.9-12.6,5.7-18.5,9.4C829.6,409.1,840.4,403.5,844.6,404z"/>
<path class="st165" d="M839.4,399.6c-4.9,1.9-9,5.1-13.9,8.1C828.6,403.9,836,399.7,839.4,399.6z"/>
<path class="st166" d="M836,414c3.3-2.6,6.8-5,11.4-5.1C843.6,410.5,839.8,412,836,414z"/>
<path class="st167" d="M540.1,379.2c5.3-3.2,10.9-5.7,17.1-6.6C551.5,374.5,545.8,376.7,540.1,379.2z"/>
<path class="st168" d="M554.5,367.4c-4.7,1.6-9.3,3.6-13.7,5.9C544.8,370.1,549.2,367.9,554.5,367.4z"/>
<path class="st169" d="M788.4,407.2c4.5,1.8,9.5,1.7,14.1,3.2C797.4,410.7,792.6,410.3,788.4,407.2z"/>
<path class="st170" d="M815.6,405.8c-4.6,1.4-13.1-0.5-15.7-3.3C805,404.4,809.9,404.9,815.6,405.8z"/>
<path class="st171" d="M210,235.7c-2.1-0.5-4.1-1-6.2-1.5c0.9-2.9,1.9-5.7,2.8-8.6c1.3,2.4,1.1,5.2,1.9,7.7
	C208.9,234.2,209.3,235,210,235.7z"/>
<path class="st172" d="M352.9,256.8c3.9,4.3,8.1,8,14.8,6.2c-2.6,3.3-6.9,3.5-11.8,0.7C352.5,261.8,351.6,259.8,352.9,256.8z"/>
<path class="st173" d="M357.6,227.6c4.5,0.1,8.3,3.4,8.2,7.1c-0.1,5.1-3.7,9.1-8,9c-5.4-0.2-8.9-2.8-8.9-6.6
	C349,231.5,352.7,227.4,357.6,227.6z"/>
<path class="st174" d="M382.6,247.1c-4.4,1.1-5.6,0.6-7.4-3.1c-0.5-1-1-2-1.4-3c-2.1-5.4,0.7-9.1,6.6-8.6c1.1,0.1,2.2,0.5,3.3,0.7
	C385.1,237.9,384.5,242.6,382.6,247.1z"/>
<path class="st175" d="M382.6,247.1c0.4-4.7,0.7-9.3,1.1-14C388.6,235.9,388,244,382.6,247.1z"/>
<path class="st176" d="M785.5,330.8c-0.3-0.3-0.7-0.7-1-1c-0.2-7.6-2.2-15-2.8-22.6c2.1,4,2.3,8.5,3.2,12.7c0.6,3.1,0.9,6.3,1.3,9.5
	C786.2,330,786.1,330.5,785.5,330.8z"/>
<path class="st177" d="M813.1,330.8c2.6-3.9,3-8.6,4.8-12.9c-0.3,4.6-1.6,9-4,13C813.7,330.9,813.4,330.9,813.1,330.8z"/>
<path class="st178" d="M823.1,319.2c-0.1,3.9-1.3,7.4-3.6,10.6C820.7,326.3,821.9,322.7,823.1,319.2z"/>
<path class="st179" d="M827.9,319.8c0.3,3.2-1.1,6-3,8.6C825.9,325.6,826.9,322.7,827.9,319.8z"/>
<path class="st180" d="M727.6,294.7c2.4,1.5,4.8,3,6.2,5.7c-2.2-1.8-4.4-3.5-6.5-5.3C727.1,294.8,727.3,294.7,727.6,294.7z"/>
<path class="st181" d="M733,292.7c1.8,0.8,3.1,2.1,3.7,4.2c-1.4-1.3-2.7-2.6-4.1-3.8C732.5,292.8,732.7,292.7,733,292.7z"/>
<path class="st182" d="M732.6,293.1c-1.6-0.8-2.6-2-3.4-3.7c1.2,1.1,2.5,2.2,3.7,3.3C732.9,292.9,732.8,293,732.6,293.1z"/>
<path class="st183" d="M727.2,295.1c-1.5-0.8-2.7-2-3.4-3.8c1.2,1.1,2.5,2.3,3.7,3.4C727.5,294.8,727.4,295,727.2,295.1z"/>
<path class="st184" d="M429.7,104.2c-0.3,1.2,0.4,2.9-1.4,2.9c-1.9,0-1.8-1.8-1.8-3c0-1.1-0.2-2.9,1.5-2.9
	C429.8,101.2,429.4,103.1,429.7,104.2z"/>
<path class="st185" d="M450,103.1c-0.4,1.2-0.1,3.2-1.7,3.4c-1.3,0.2-1.2-1.2-1.3-2.3c0-1.6,0.2-3.2,1.7-3.4
	C449.8,100.6,449.9,102,450,103.1z"/>
<path class="st172" d="M361,234.9c-0.6,1.5-0.6,3.5-2.6,4c-1.2,0.3-1.5-0.8-1.3-1.8c0.3-1.6,0.4-3.5,2.4-4
	C360.5,232.8,360.8,234,361,234.9z"/>
<path class="st186" d="M380.5,239.1c-0.6,1.4-0.5,3.6-2.7,3.6c-1.2,0-1.3-1.4-1.1-2.4c0.4-1.6,0.6-3.5,2.6-3.6
	C380.3,236.7,380.6,238.1,380.5,239.1z"/>
<path class="st47" d="M532.8,62.9c-5.7,0.1-11.4-0.2-17,0.2c0.1-8.1,0.1-16.1,0-24.2c0-2.3,1-2.9,3.6-2.7c7.2,0.5,14.4,0.6,21.5,0
	c2.7-0.2,3.5,0.5,3.5,2.8c-0.1,7-0.3,13.9,0,20.9c0.1,2.5-0.9,3.1-3,3.1C538.6,62.9,535.7,62.8,532.8,62.9z"/>
<path class="st47" d="M134.5,46.6c-5.7,0.1-11.4-0.2-17,0.2c0.1-8.1,0.1-16.1,0-24.2c0-2.3,1-2.9,3.6-2.7c7.2,0.5,14.4,0.6,21.5,0
	c2.7-0.2,3.5,0.5,3.5,2.8c-0.1,7-0.3,13.9,0,20.9c0.1,2.5-0.9,3.1-3,3.1C140.3,46.6,137.4,46.6,134.5,46.6z"/>
</svg>
