<?xml version="1.0" encoding="utf-8"?>
<!-- Generator: Adobe Illustrator 24.1.2, SVG Export Plug-In . SVG Version: 6.00 Build 0)  -->
<svg version="1.1" id="Layer_1" xmlns="http://www.w3.org/2000/svg" xmlns:xlink="http://www.w3.org/1999/xlink" x="0px" y="0px"
	 width="613.3px" height="301.4px" viewBox="0 0 613.3 301.4" style="enable-background:new 0 0 613.3 301.4;" xml:space="preserve"
	>
<style type="text/css">
	.st0{fill:#E6E5E3;}
	.st1{fill:#FAF9F6;}
	.st2{fill:#B2DAE7;}
	.st3{fill:#E5E5E2;}
	.st4{fill:#F28F1D;}
	.st5{fill:#F0804C;}
	.st6{fill:#F07F4C;}
	.st7{fill:#212121;}
	.st8{fill:#EA7D02;}
	.st9{fill:#FAF8F6;}
	.st10{fill:#E5E4E2;}
	.st11{fill:#202121;}
	.st12{fill:#DBDAD7;}
	.st13{fill:#030303;}
	.st14{fill:#279758;}
	.st15{fill:#24723E;}
	.st16{fill:#FBF9F7;}
	.st17{fill:#F9F7F6;}
	.st18{fill:#070707;}
	.st19{fill:#1C1C1C;}
	.st20{fill:#F9FAF9;}
	.st21{fill:#1C1111;}
	.st22{fill:#279859;}
	.st23{fill:#1E6FA8;}
	.st24{fill:#2A3182;}
	.st25{fill:#E7413F;}
	.st26{fill:#E7413E;}
	.st27{fill:#FDC731;}
	.st28{fill:#1E6FA9;}
	.st29{fill:#CA142D;}
	.st30{fill:#90452A;}
	.st31{fill:#984A2E;}
	.st32{fill:#EE7E49;}
	.st33{fill:#F28252;}
	.st34{fill:#F28250;}
	.st35{fill:#EF7F4A;}
	.st36{fill:#F9642E;}
	.st37{fill:#F6AD92;}
	.st38{fill:#F5946C;}
	.st39{fill:#F57557;}
	.st40{fill:#EF7E4B;}
	.st41{fill:#FDC730;}
	.st42{fill:#F4F6D7;}
	.st43{fill:#212120;}
	.st44{fill:#8F3C27;}
	.st45{fill:#F6845E;}
	.st46{fill:#F48B63;}
	.st47{fill:#FDC72F;}
	.st48{fill:#F57657;}
	.st49{fill:#202120;}
	.st50{fill:#0E1316;}
	.st51{fill:#E97943;}
	.st52{fill:#95472B;}
	.st53{fill:#249857;}
	.st54{fill:#222020;}
	.st55{fill:#1F1F20;}
	.st56{fill:#1B1E1F;}
	.st57{fill:#1B1D1F;}
	.st58{fill:#1E1D1E;}
	.st59{fill:#1D1B1C;}
	.st60{fill:#181A1D;}
	.st61{fill:#141115;}
	.st62{fill:#1B1312;}
	.st63{fill:#E16B46;}
	.st64{fill:#33B6B3;}
	.st65{fill:#FAF8F5;}
	.st66{fill:#B7592E;}
	.st67{fill:#212020;}
	.st68{fill:#FAF8F7;}
	.st69{fill:#F9F7F5;}
	.st70{fill:#010101;}
	.st71{fill:#060606;}
	.st72{fill:#FCC631;}
	.st73{fill:#ED7D49;}
	.st74{fill:#657FBF;}
	.st75{fill:#0C0A16;}
	.st76{fill:#120D0D;}
	.st77{fill:#120D0C;}
	.st78{fill:#2C8653;}
	.st79{fill:#24713D;}
	.st80{fill:#B6582E;}
	.st81{fill:#0E161D;}
	.st82{fill:#1B080F;}
	.st83{fill:#F8F7F5;}
	.st84{fill:#1B1E20;}
	.st85{fill:#1A0C11;}
	.st86{fill:#1D0E12;}
	.st87{fill:#ECEBEC;}
	.st88{fill:#1D9664;}
	.st89{fill:#1D0F14;}
	.st90{fill:#F48861;}
	.st91{fill:#0B1311;}
	.st92{fill:#0D1412;}
	.st93{fill:#0E1412;}
	.st94{fill:#0B091C;}
	.st95{fill:#100C19;}
	.st96{fill:#1C191F;}
	.st97{fill:#B0DBE7;}
	.st98{fill:#220D08;}
	.st99{fill:#270D08;}
	.st100{fill:#EDEAE9;}
	.st101{fill:#C6C7C7;}
	.st102{fill:#EB4340;}
	.st103{fill:#101219;}
	.st104{fill:#1B0E0F;}
	.st105{fill:#1B1213;}
	.st106{fill:#201814;}
	.st107{fill:#12141C;}
	.st108{fill:#10131B;}
	.st109{fill:#231412;}
	.st110{fill:#0D1118;}
	.st111{fill:#14171E;}
	.st112{fill:#0A0A0A;}
	.st113{fill:#1E1E1F;}
	.st114{fill:#0C0E11;}
	.st115{fill:#1B1A1A;}
	.st116{fill:#121114;}
	.st117{fill:#151414;}
	.st118{fill:#F3F4F3;}
	.st119{fill:#0B0F16;}
	.st120{fill:#111318;}
	.st121{fill:#151418;}
	.st122{fill:#101117;}
	.st123{fill:#111419;}
	.st124{fill:#0E1017;}
	.st125{fill:#13141B;}
	.st126{fill:#1C1A1C;}
	.st127{fill:#241E1F;}
	.st128{fill:#29191A;}
	.st129{fill:#0F1117;}
	.st130{fill:#0B0E16;}
	.st131{fill:#1B171A;}
	.st132{fill:#1D191A;}
	.st133{fill:#131317;}
	.st134{fill:#F4F4F4;}
	.st135{fill:#0E171C;}
	.st136{fill:#0F1213;}
	.st137{fill:#151A1F;}
	.st138{fill:#171B1E;}
	.st139{fill:#181D1F;}
	.st140{fill:#161D1F;}
	.st141{fill:#0C181E;}
	.st142{fill:#181E20;}
	.st143{fill:#181D20;}
	.st144{fill:#161C20;}
	.st145{fill:#191819;}
	.st146{fill:#0F0E12;}
	.st147{fill:#161416;}
	.st148{fill:#181415;}
	.st149{fill:#171312;}
	.st150{fill:#121416;}
	.st151{fill:#181013;}
	.st152{fill:#180F13;}
	.st153{fill:#1A1115;}
	.st154{fill:#141C20;}
	.st155{fill:#0D181E;}
	.st156{fill:#241817;}
	.st157{fill:#101013;}
	.st158{fill:#100B0A;}
	.st159{fill:#2A1A15;}
	.st160{fill:#F47657;}
	.st161{fill:#F57958;}
	.st162{fill:#FAF9F7;}
	.st163{fill:#2A1F1B;}
	.st164{fill:#1E1310;}
	.st165{fill:#180E0F;}
	.st166{fill:#1C1210;}
	.st167{fill:#181011;}
	.st168{fill:#1E1212;}
	.st169{fill:#111211;}
	.st170{fill:#191918;}
	.st171{fill:#1D9A5F;}
	.st172{fill:#14191E;}
	.st173{fill:#B6592E;}
	.st174{fill:#B9592E;}
	.st175{fill:#289C5B;}
	.st176{fill:#1C1112;}
	.st177{fill:#201312;}
	.st178{fill:#251410;}
	.st179{fill:#1D1513;}
	.st180{fill:#1D1410;}
	.st181{fill:#140E0F;}
	.st182{fill:#1D1310;}
	.st183{fill:#171011;}
	.st184{fill:#151516;}
	.st185{fill:#1B1A19;}
	.st186{fill:#15171D;}
</style>
<path class="st0" d="M444.3,301.4c-18.8,0-37.6,0-56.3,0c-6.4-0.6-12.7-1.6-18.9-2.6c-8.1-1.3-16.2-2.6-24.4-3.9
	c-12.3-1.8-24.6-3.9-36.9-5.8c-10.3-1.6-20.6-3.2-30.8-4.9c-9.7-1.6-19.4-3-29.1-4.5c-9-1.4-18-2.8-26.9-4.2
	c-10.5-1.7-21.1-3.2-31.6-4.9c-10.6-1.7-21.2-3.3-31.8-5c-10.2-1.6-20.4-3.2-30.6-4.9c-0.5-0.1-1-0.1-1.5-0.5
	c-0.3-0.1,0.2-0.5-0.4-0.6c-5-0.5-9.9-1.5-14.8-2.2c-0.3,0-0.6-0.1-1-0.2c-0.9-0.3-1.9-0.4-2-1.6c0-1.2,0.8-1.7,1.8-2
	c1.1-0.3,2.2-0.7,3.3-0.7c4-0.1,7.9-1.3,11.9-1.8c0.2,0,0.3-0.2,0.2-0.4c3.7-1.5,7.5-2.8,11.5-3.2c3.4,0.7,6.9,1,10.4,1
	c4.8,0,9.6,0.6,14.5,0.4c4.8-0.2,9.6-0.4,14.4-0.7c1.3-0.1,2.4-0.5,3.4-1.4c1.5-0.5,3-0.4,4.5-0.2c1.9,0.2,3.8,0.3,5.7,0.1
	c1.1,0.1,1.6,1.2,2.6,1.7c2.2,0.9,4.6,0.8,7,0.9c4.8,0.2,9.7,0.6,14.5,0.6c1.4,0.5,2.8,0.2,4.3,0.3c3.5,0,7,0.2,10.5,0
	c15.5-0.8,31.1-0.2,46.6-0.4c1.9,0,3.4-0.7,4.7-2.1c1.4-1.8,1.7-4,2.4-6c0.6-1.9,0.7-4,2-5.7c1.7-3.3,1.7-3.3,5.7-2.9
	c1.3,0.1,2.6,0.2,3.9,0.2c6.9,0.3,13.7,0.3,20.6,1c1.2,0.1,2.5,0.2,3.7,0.7c0.8,0.9-0.1,1.2-0.6,1.3c-3,0.8-6.2,2-9.3,1.1
	c-6.4-1.8-11.5,0.4-16.3,4.2c-0.5,0.4-1,0.9-1.4,1.4c-1.4,1.8-1.3,2.1,0.4,3.6c0.6,0.6,1.5,0.9,1.9,1.6c0.6,1.1,1.5,1.2,2.6,1
	c2.1-0.3,4.2-0.6,6.2-1.3c1.5-0.5,3-0.6,4.5-0.4c2.6,0.4,5.3,0.4,7.9-0.1c4.8-1,9.5-2.1,14.4-2.6c4.2-0.6,8.5-0.9,12.7-1.9
	c3-0.7,6-1.5,8.5-3.5c0.4-0.3,0.9-0.5,1.5-0.5c2,0.1,4,0.5,6,0.6c8.4,1,16.9,2.1,25.3,3.1c9.1,1,18.2,2.2,27.3,3.2
	c6.5,1,13,1.5,19.5,2.4c0.8,0.1,1.7,0.2,2.5,0.4c3.7,0.8,7.3,1.7,11.1,1.5c3.8,1.2,7.8,1,11.7,1.5c5,0.7,9.9,1,14.8,2.1
	c0.2,0.1,0.4,0.2,0.6,0.3c0.3,0.5,0.1,0.8-0.3,0.9c-2.5,0.7-4.7,2.3-7.1,3.2c-2,0.7-4,0.5-6,0.1c-1.8-0.4-3.7-0.6-5.4-1.1
	c-4.1-1.1-8.1-0.6-12,0.8c-6.9,2.4-13.8,4.7-20.3,7.2c1.9,0,3.9,0.7,6,1.1c8.7,1.7,17.5,3.5,26.2,5.4c2.4,0.5,4.7,0.3,7-0.6
	c2.5-1.1,5.1-2.3,7.9-1c5.4-1.7,10.8-2.4,16.4-2.8c4.2-0.3,8.4-0.9,12.6-0.8c8.1,0.1,16.2-0.4,24.3-0.8c3-0.2,5.6-1.2,7.9-3.2
	c0.7-0.4,1.5-0.3,2.3-0.2c3.3,0.5,6.7,0.8,10,1.6c2.2,0.5,2.3,0.4,2.7-1.8c0.1-0.6,0.1-1.3,0.6-1.8c1.5,0.4,1,1.7,1,2.6
	c-0.1,1.6,0.5,2,1.9,2.3c2.6,0.5,5.3,0.3,7.8,1.2c1.7,0.6,1.9,1,1.1,2.8c-2.9,1.7-6.2,2.1-9.4,3.1c-10,3.1-19.9,6.1-30,9
	c-11.9,3.5-23.8,7-35.7,10.5c-9.7,2.9-19.4,5.7-29,8.7C447.7,300.8,446,300.9,444.3,301.4z"/>
<path class="st1" d="M124.4,251c0.1,0.1,0.9,0.2,0.2,0.4c-3.8,0.9-7.7,1.8-11.6,2c-1.5,0.1-2.8,0.6-4.2,0.9
	c-0.8,0.1-1.1,0.8-1.1,1.5c-0.1,0.8,0.7,0.8,1.3,0.9c4,0.6,8,1.3,12,2c1.7,0.3,3.5,0.6,5.7,1c-0.8,0.2-1.1,0.2-1.4,0.3
	c-0.4,0.4-0.9,0.4-1.5,0.3c-4.6-0.7-9.2-1.5-13.4-2.1c3.8,0.6,8,1.3,12.2,2c18.3,3.1,36.6,5.9,54.9,8.8c13.4,2.1,26.7,4.1,40.1,6.3
	c0.7,0.1,1.3,0.1,1.9,0.5c-0.6,1.6-1.9,1-3,0.9c-4.3-0.7-8.6-1.3-12.9-2c-13.8-2.2-27.7-4.3-41.5-6.5c-12.8-2-25.6-4-38.3-6.1
	c-4.1-0.7-8.2-1.4-12.3-1.9c-0.7-0.1-1.8-0.7-2.1,0.6c-0.3,1.3,0.4,2.6,1.6,3c0.8,0.2,1.7,0.3,2.5,0.5c0.8,0.2,1.5,0.4,1.9,1.2
	c0.5,2.9,0.6,5.8,1,8.6c0.6,3.8,2.2,6.9,5.5,9c1.4,0.9,1.8,2,1.5,3.7c-0.7,4.2-1.4,8.5-2,12.7c-0.1,0.8-0.2,1.7-1.1,2.2
	c-8.6,0-17.2,0-25.8,0c-0.7-0.8-0.6-1.7-0.6-2.6c0-9.9,0.4-19.9,0.7-29.8c0.1-4.4,0.4-8.8,0.5-13.2c0-1-0.1-2,0.3-2.9
	c0.9-1.3,2.3-1.1,3.6-1.3c5.3-0.8,5.1-0.1,4.5-5.6c-1.5-13.6-3.2-27.2-5-40.9c-0.4-3-0.9-6-1.3-9c-0.9-5.9-2.6-11.6-4.7-17.1
	c-0.1-1.1-0.1-2.1,0.7-3c0.2-0.2,0.4-0.2,0.6-0.2c2,0.6,3.8,1.6,5.8,2.1c6.1,1.5,10.5-1.8,10.3-8.1c-0.1-4.8-1.4-9.5-2.7-14.1
	c-0.4-1.4-1-2.7-0.8-4.2c0.4-0.5,0.8-0.8,1.4-0.4c1,1.9,1.6,4,3,5.8c4.7,6,12.9,5.7,17-0.8c0.1-0.1,0.1-0.2,0.2-0.3
	c0.3-0.4,0.5-1.1,1.1-1c0.7,0.2,0.7,1,0.6,1.5c-0.2,1.6-0.3,3.2-0.4,4.7c-0.3,3.4-0.6,6.8-0.7,10.3c0,2.6-0.9,5.2-0.1,7.9
	c-0.1,4.5-0.6,9.1-0.8,13.6c-0.1,1.8-0.2,3.5-0.2,5.3c-0.1,2,0,4.1-0.1,6.1c0,1.3-0.6,2-1.9,2.2c-2.5,0.4-5,0.5-7.4,1.2
	c-2.1,0.6-4.1,1.5-5.4,3.3c-1.3,2.3-1.5,4.9-1.2,7.4c0.2,2.6,0.2,5.1,0.4,7.7c0.6,8.3,1.4,16.5,2,24.7c0.1,1.2,0.7,1.4,1.7,1.3
	c2.4-0.3,4.8-0.8,7.2-1.3C123.1,250.7,123.8,250.4,124.4,251z"/>
<path class="st2" d="M553.1,268.8c0.7-1.2,0.4-1.6-1-2c-3-0.9-6.2-0.7-9.3-1.4c-0.9-0.2-1.1-0.3-1-1.3c0.2-1.3,0.4-2.6-0.2-3.8
	c-0.8-0.6-0.4-1.4-0.4-2.2c0.4-5.4,1.3-10.7,1.4-16.1c0-4.1-1.7-6.7-5.4-8.2c-1-0.4-2.1-0.7-2.9-1.5c-0.5-0.8-0.5-1.6-0.4-2.5
	c0.2-6.4-0.7-12.5-4.3-18c-0.1-0.2-0.2-0.5-0.2-0.8c0.4-1.4-5-2.9-4.5-4.2c-3.6-4.1-11.2-6.6-14-9.8c-1.1-1.2,2.7-0.9,1.6-2.2
	c-0.7-0.8-13.3-4.2,13-4.7c0.8-0.2,1.6-0.2,2.4-0.2c7.7-0.2,15.4,0.4,23.1-0.4c1-0.1,2.1-0.1,3.1,0.3c0.8,0.4,0.9,1.1,0.9,1.9
	c0.1,5,0.1,9.9-2.5,14.6c-1.9,3.3-2.8,7.1-2.6,11c0,0.7-0.3,1.8,0.7,2c1,0.2,1.3-0.9,1.7-1.7c0.4-0.7,0.2-1.9,1.4-2.1
	c0.5,0.5,0.5,1.2,0.5,1.8c0,2.7-0.7,5.3-1,7.9c-0.1,1,0,1.9,1.3,1.8c0.2,0,0.4,0.1,0.6,0.1c0.8,1.4,1.9,0.8,2.9,0.4
	c0.2,0,0.4,0.1,0.5,0.2c0.7,0.8,1.3,0.5,1.9-0.3c0.4-0.6,0.6-1.3,1.5-1.4c0.2,0.1,0.3,0.2,0.4,0.3c0.2,0.5,0.5,0.8,0.8,1.2
	c1.4,0.4,0.9,1.5,0.9,2.3c0,23.9,0,47.7,0,71.6c-7.4,0-14.8,0-22.2,0c-0.5-0.6-0.6-1.3-0.6-2c0.1-6-0.7-12-0.4-18
	c0-0.7,0-1.4,0.2-2.2c0.4-1,1.3-1.2,2.2-1.4c2-0.4,3.9-1.1,5.8-1.8c3.5-1.3,3.9-1.9,3.7-5.6C552.2,269.8,552.9,269.4,553.1,268.8z"
	/>
<path class="st3" d="M114.8,265.3c-1-1.3-2.5-0.9-3.8-1.2c-1.8-0.4-3.5-3-2.7-4.7c0.4-0.8,1.1-0.6,1.7-0.5
	c5.6,0.9,11.1,1.8,16.7,2.7c6.6,1.1,13.2,2.2,19.8,3.2c10.4,1.6,20.8,3.4,31.3,4.8c7,1,14,2.4,21,3.4c6,0.9,12.1,1.8,18.1,2.8
	c0.8,0.1,1.7,0.3,2.5-0.3c0.3-0.3,0.7-0.4,1.1-0.4c6.1,1,12.2,1.9,18.3,2.9c6.6,1,13.1,2.1,19.7,3c5.3,0.8,10.5,1.6,15.8,2.5
	c5.4,0.9,10.9,1.7,16.3,2.6c6.4,1.1,12.8,2,19.2,3c7.1,1.1,14.1,2.2,21.2,3.3c8.1,1.3,16.2,2.6,24.3,3.8c6.3,1,12.6,2,18.9,2.9
	c2.5,0.4,5.1,0.8,7.6,1.2c0.4,0.1,0.8,0.2,0.7,0.7c-18.5,0-37,0-55.6,0c-0.3-0.3-0.5-0.8-0.5-1.2c-0.2-1.8-1.7-1.5-2.8-1.7
	c-1.2-0.2-1.2,0.8-1.3,1.7c0,0.5-0.2,0.9-0.5,1.2c-2.1,0-4.2,0-6.3,0c-0.5-0.6-0.3-1.2-0.3-1.9c0.1-2.1,0-2.4-2.1-2.7
	c-6.6-1-13.3-2.1-19.9-3.1c-3.6-0.6-7.1-1.2-10.7-1.7c-0.5-0.1-1-0.3-1.5-0.3c-0.6-0.1-1.2-0.1-1.6-0.7c-3.6-1-7.3-1.5-11-2
	c-7.3-1-14.6-1.7-21.9-2.5c-5.5-1.1-11-1.9-16.6-2.8c-1.4-0.2-2.9-0.4-4.3-0.8c-1.1-0.1-2.2-0.2-3.2-0.4c-7.7-1.4-15.5-2.4-23.2-3.7
	c-6-1-12.1-2-18.1-2.9c-9-1.4-17.9-2.8-26.9-4.2c-0.8-0.1-1.7-0.2-2.5-0.4c-3.7-0.7-7.3-1.2-11-1.8c-3.7-0.6-7.5-1.2-11.2-1.8
	C124.4,267.1,119.6,266.3,114.8,265.3z"/>
<path class="st4" d="M151.4,270.9c7.2,1.1,14.4,2.2,21.6,3.3c2.6,0.4,5.3,0.6,7.9,1.3c0.5,0.6,1.3,0.3,1.8,0.7
	c4.4,1.7,6.9,5,8.2,9.4c0.3,1,0.7,2,0.9,3c0.5,3.6,1.1,7.2,0.5,10.9c-0.1,0.6-0.2,1.3-0.6,1.8c-8.3,0-16.7,0-25,0
	c-0.9-1.8-0.8-3.7-0.9-5.6c-0.1-1-0.3-1.8-1-2.5c-0.9-1-2.2-1.4-3.4-1.8c-2.8-0.9-5.6-1.9-8.4-2.8c-1.3-0.4-2-1.2-2.2-2.7
	c-0.4-2.6-0.5-5.1-0.1-7.7c0.3-1.8,0.2-3.5,0-5.3C150.2,272.1,150.2,271.2,151.4,270.9z"/>
<path class="st5" d="M45.9,301.4c-0.9-16.1-0.4-32.2,1.3-48.3c0.3-0.5,0.9-0.6,1.4-0.5c6,0.2,12,0.7,18.1,0.7c0.5,0,0.9,0.1,1.3,0.3
	c0.8,0.6,0.7,1.5,0.5,2.4c-2.6,14.4-4.4,28.9-7.2,43.3c-0.2,0.9-0.4,1.7-1.1,2.2C55.4,301.4,50.7,301.4,45.9,301.4z"/>
<path class="st6" d="M95.6,252.7c-0.4,11.4-0.8,22.8-1.1,34.3c-0.1,4.8-0.1,9.6-0.1,14.5c-5,0-10.1,0-15.1,0
	c-0.6-0.7-0.7-1.6-0.8-2.4c-1.3-11-3.1-21.9-3.4-32.9c-0.1-3.2-0.3-6.5-0.3-9.7c0-0.9-0.1-1.9,0.4-2.7c0.8-0.9,1.9-0.9,2.9-0.9
	c5.2,0.1,10.4-0.3,15.6-0.7C94.3,252.1,95,252,95.6,252.7z"/>
<path class="st7" d="M151.4,270.9c-0.3,0.4-0.8,0.7-0.7,1.3c0.7,3.2-0.1,6.4,0,9.6c0,1.6,0.2,3.1,0.3,4.7c0,1.1,0.8,1.2,1.5,1.5
	c3.4,1.1,6.7,2.2,10.1,3.4c0.9,0.3,1.9,0.6,2.3,1.6c0.8,2.8,1.1,5.5,0,8.3c-1.5,0-2.9,0-4.4,0c-1-1.6-0.5-3.3-0.6-5
	c-0.1-3.2,0-3.2-3.1-3.9c-1.3-0.3-2.7-0.5-4-0.9c-1.2-0.4-1.7,0-1.7,1.3c0,2.1,0,4.2,0,6.3c0,0.8,0,1.6-0.6,2.2c-3.6,0-7.1,0-10.7,0
	c-0.6-0.7-0.6-1.6-0.6-2.4c0-2.6,0-5.1,0-7.7c0-1.5-0.5-2.3-2.1-2.6c-2.7-0.5-5.3-1.2-7.9-1.9c-1.3-0.4-1.9,0-2.1,1.4
	c-0.5,3.6-1.2,7.1-1.9,10.7c-0.2,0.9-0.3,1.8-1,2.5c-1.5,0-2.9,0-4.4,0c0.7-3.9,1.3-7.8,2-11.6c0.1-0.5,0.1-0.9,0.2-1.4
	c0.7-2.5,0.7-4.4-2.1-6.1c-3.7-2.3-4.5-6.6-4.9-10.7c-0.2-2.1-0.3-4.2-0.5-6.3c1-1,2.1-0.1,3.1,0.1c3.8,0.5,7.5,1.3,11.2,2
	c0,4.1,1,8,3,11.5c1.3,2.2,3.8,3,6.2,3.6c1.2,0.3,1-0.8,1-1.4c0-3.4,0-6.9,0-10.3c0-0.6-0.5-1.8,1-1.5
	C144.1,269.8,147.7,270.4,151.4,270.9z"/>
<path class="st8" d="M191.2,288.4c-0.9-1.8-1.1-3.9-2-5.7c-1.5-3-4-4.7-6.8-6.2c0.7-0.4,1.4-0.2,2.1-0.1c11.6,2,23.2,3.7,34.8,5.5
	c3.1,0.5,3.1,0.5,2.7,3.6c-0.6,4.6-1.5,9.1-2,13.7c-0.1,0.9-0.3,1.7-1,2.3c-7.8,0-15.6,0-23.4,0c-0.7-0.8-0.6-1.7-0.6-2.6
	c0-2.4,0-4.7,0-7.1c0-1.4-0.3-2.4-2-2.5C192.3,289.2,191.7,288.9,191.2,288.4z"/>
<path class="st9" d="M75.3,253.8c-0.2,13.3,1.2,26.5,3.1,39.6c0.4,2.7,0.6,5.4,0.9,8c-6.3,0-12.7,0-19,0c1.6-7.4,2.8-14.8,4-22.3
	c1.3-7.8,2.5-15.5,3.8-23.3c0.1-0.6,0.1-1.3,0.2-2C70.5,252.8,72.9,252.9,75.3,253.8z"/>
<path class="st10" d="M552.6,270c1.1,2.8,0.2,5-2.5,6.1c-2.9,1.2-5.9,2.2-9,2.7c-0.4,0.5-0.7,1.2-1.5,1.1c-2.7-0.3-5.1,1-7.6,1.7
	c-2,0.5-4.1,0.9-5.9,1.9c-1,1.1-2.4,1.2-3.7,1.6c-1.8,0.6-3.7,1-5.4,1.6c-3.8,1-7.5,2.3-11.3,3.4c-11,3.3-22,6.5-32.9,9.9
	c-2,0.6-4.1,1-6.1,1.4c-6.3,0-12.7,0-19,0c0-1,0.9-0.9,1.4-1.1c10.8-3.2,21.7-6.5,32.5-9.7c9.6-2.9,19.3-5.7,28.9-8.5
	c13.2-3.9,26.4-7.9,39.7-11.9C550.8,270,551.7,269.3,552.6,270z"/>
<path class="st11" d="M505.5,289.6c3.8-1.1,7.6-2.2,11.3-3.4c1.1,0.1,0.7,0.9,0.6,1.5c0,2.8,0,5.5,0,8.3c0,2.3,0.2,2.4,2.3,1.3
	c4.8-2.5,6.9-6.7,7.6-11.8c0.1-0.9-0.6-1.6-0.6-2.4c3.6-1.6,7.5-2.3,11.2-3.5c0.8-0.3,1.1,0.2,1.1,0.9c-0.6,5.1-0.9,10.4-3.2,15.2
	c-1.3,2.6-3.6,4.1-5.9,5.7c-7.9,0-15.9,0-23.8,0c-0.5-0.5-0.6-1.2-0.6-1.8C505.6,296.3,505.7,293,505.5,289.6z"/>
<path class="st12" d="M225.3,282.4c5.7,0.9,11.5,1.8,17.2,2.9c1.3,0.2,3-0.5,3.9,1.1c0.5,0.4,0.6,1,0.6,1.6
	c0.1,4.1,0.1,8.1-0.4,12.2c-0.1,0.5-0.2,0.9-0.6,1.2c-6.5,0-13,0-19.4,0c-1-1.4-0.7-3.1-0.9-4.6c-0.3-3.9-0.5-7.8-0.9-11.6
	C224.6,284.2,224.6,283.2,225.3,282.4z"/>
<path class="st13" d="M382.4,301.4c-3.8-0.7-7.6-1.4-11.4-2c-10.7-1.7-21.3-3.4-32-5.1c-12.2-1.9-24.3-3.8-36.5-5.7
	c-11.3-1.8-22.5-3.6-33.7-5.4c-10.6-1.7-21.2-3.3-31.8-4.9c-5.9-0.9-11.7-1.8-17.6-2.7c-7.7-1.2-15.4-2.4-23-3.6
	c-5.6-0.9-11.2-1.6-16.8-2.4c-4.6-0.7-9.1-1.6-13.6-2.3c-5.6-0.9-11.2-1.6-16.8-2.5c-4.2-0.7-8.5-1.5-12.7-2.2
	c-4.7-0.8-9.5-1.3-14.2-2.2c-4.6-0.9-9.3-1.6-14-2.3c-0.4-0.1-0.8-0.3-0.7-0.7c0.2-0.8,0.7-0.2,1.1-0.2c5.5,0.8,11.1,1.7,16.6,2.5
	c4.5,0.8,8.9,1.6,13.4,2.3c11.5,1.9,23,3.7,34.5,5.5c12.3,1.9,24.6,3.8,36.9,5.7c11.5,1.8,23,3.6,34.5,5.4c11.3,1.8,22.7,3.5,34,5.3
	c10.3,1.6,20.7,3.3,31,4.9c10.7,1.7,21.3,3.3,32,5c12.2,1.9,24.3,3.9,36.5,5.8c3.3,0.5,6.7,0.7,9.9,1.7
	C386.1,301.4,384.3,301.4,382.4,301.4z"/>
<path class="st14" d="M281.9,291.5c5,0.4,10,1.4,15,2.2c5.4,0.8,10.8,1.7,16.1,2.6c3.1,0.5,3.1,0.4,2.6,3.5
	c-0.1,0.6-0.2,1.2-0.3,1.7c-10.6,0-21.2,0-31.7,0c-0.6-0.3-0.8-0.8-0.9-1.4c-0.3-2.2-0.8-4.4-1.2-6.6
	C281.4,292.8,281.2,292,281.9,291.5z"/>
<path class="st15" d="M505.5,289.6c0.7,0.4,0.7,1.1,0.7,1.9c0,3.3,0,6.6,0,10c-13.2,0-26.5,0-39.7,0c7.2-2.6,14.5-4.5,21.8-6.7
	C494,292.9,499.8,291.3,505.5,289.6z"/>
<path class="st9" d="M245.9,301.4c0.3-5,0.5-10,0.4-15.1c1.7-1.1,3.6-0.3,5.2,0.1c6,1.4,12.1,0.9,18.1,2.2c3.4,0.8,7,1.2,10.5,1.7
	c-0.1,0.1-0.2,0.2-0.3,0.2c-0.2,0.1-0.4,0.1-0.6,0.1c-0.8,0.7-1.7,0.5-2.6,0.3c-4.2-0.7-8.3-1.4-12.5-2.1c-2.1-0.4-2.3-0.3-2.1,2
	c0.2,2.5,0.3,5,0.6,7.5c0.1,1,0.4,2.1-0.4,3C256.8,301.4,251.3,301.4,245.9,301.4z"/>
<path class="st14" d="M262.2,301.4c-0.4-4.3-0.4-8.5-1.1-12.8c-0.1-0.8,0.2-0.8,0.7-0.7c5,0.8,9.9,1.7,14.9,2.5
	c0.8,0.1,1.7,0.2,2.5,0.3c0.6,0.2,1.1,0.3,1.7,0.5c1.3,1.8,0.9,4,1.5,6c0.3,1.4,0.7,2.8,0.5,4.2
	C275.9,301.4,269.1,301.4,262.2,301.4z"/>
<path class="st9" d="M124.5,301.4c0.8-4.9,1.6-9.8,2.5-14.7c0.1-0.8,0.4-1,1.3-0.8c3.6,0.9,7.2,1.7,10.9,2.5c0.6,0.1,1.1,0.3,1,1.1
	c-0.1,3.9,0.2,7.9-0.2,11.8C134.8,301.4,129.7,301.4,124.5,301.4z"/>
<path class="st16" d="M530,301.4c-0.2-0.6,0.2-0.9,0.6-1.1c4.5-2.4,6-6.5,6.8-11.1c0.5-3.1,0.9-6.2,1.4-9.5c-4.1,1.2-8,2.4-11.9,3.6
	c-0.2,0.2-0.5,0.2-0.7,0c-0.5-0.5,0-0.5,0.3-0.5c3.8-1.1,7.5-2.3,11.3-3.4c1-0.3,2.3,0.4,3.3-0.5c-0.2,7.5,0.5,15.1,0.4,22.6
	C537.7,301.4,533.9,301.4,530,301.4z"/>
<path class="st13" d="M552.6,270c-5.5,1.3-10.8,3.2-16.2,4.8c-24.2,7.2-48.4,14.3-72.6,21.5c-5.4,1.6-11,3-16.3,5.1
	c-1.1,0-2.1,0-3.2,0c5.4-2.1,11-3.5,16.5-5.1c30.2-9,60.4-18,90.6-27c0.6-0.2,1.1-0.4,1.7-0.6C554,269.6,552.7,269.6,552.6,270z"/>
<path class="st9" d="M150.7,301.4c0-3.6,0-7.1,0-10.9c3.1,0.7,6,1.3,9,1.9c0.8,0.2,0.9,0.7,0.9,1.4c0,2.5,0,5,0,7.5
	C157.3,301.4,154,301.4,150.7,301.4z"/>
<path class="st9" d="M225.3,282.4c0.4,6.3,0.8,12.7,1.2,19c-2.2,0-4.5,0-6.7,0c-0.6-0.7-0.3-1.6-0.2-2.3c0.8-5.2,1.7-10.4,2.4-15.6
	c0.1-0.5,0.2-0.9,0.6-1.2C223.5,282,224.4,282.6,225.3,282.4z"/>
<path class="st17" d="M191.2,288.4c4.3,0.4,4.3,0.4,4.3,4.6c0,2.8,0,5.6,0,8.4c-1.3,0-2.6,0-4,0C192,297.1,191.8,292.7,191.2,288.4z
	"/>
<path class="st18" d="M222.6,282.4c-1.1,6.3-2.3,12.6-2.8,19c-0.3,0-0.5,0-0.8,0c0.9-5.7,1.8-11.5,2.7-17.2c0.2-1,0.1-1.7-1.3-1.9
	c-6.7-1-13.3-2-20-3.1c-5.4-0.9-10.8-1.8-16.3-2.7c-0.6-0.1-1.2-0.1-1.8-0.1c-0.6-0.1-1.2-0.2-1.7-0.5c-0.7-0.4,0.2-0.2,0.2-0.4
	c6.4,1,12.8,2,19.3,3c6.6,1,13.2,2,19.9,3.1C220.9,281.8,221.9,281.7,222.6,282.4z"/>
<path class="st19" d="M321.7,301.4c0-3.6,0-3.4,3.5-3.2c2.8,0.1,1.2,2.1,1.6,3.2C325.1,301.4,323.4,301.4,321.7,301.4z"/>
<path class="st20" d="M165,301.4c0-2.8,0-5.5,0-8.3c0.9,0.2,1,1,1,1.7c0.2,2.2,0.4,4.4,0.5,6.6C166,301.4,165.5,301.4,165,301.4z"/>
<path class="st21" d="M282.8,301.4c-0.6-3.4-1.3-6.8-1.9-10.2c0.4-0.1,0.7,0,1,0.3c0.3,3.4,1,6.7,1.7,10
	C283.3,301.4,283.1,301.4,282.8,301.4z"/>
<path class="st22" d="M178.8,247c-0.4,1.3-1.2,1.7-2.6,1.8c-11.1,0.9-22.1,0.8-33.2,0.2c-2.5-0.1-5.1-0.1-7.6-1.2
	c-0.6-0.3-1.3,0.2-1.9-0.1c-3.2-1.5-4.6-4.3-5.2-7.5c-0.8-5-0.7-10-0.3-15c0.3-4.6,0.6-9.2,1.4-13.8c0.3-1.9,0.6-3.8,1.3-5.6
	c0.1-0.2,0.3-0.3,0.5-0.3c-2.1-0.5-0.9-1.1-0.1-1.9c0.7-0.6,0.8-1.6,1.1-2.5c0.9-2.7,1.7-5.4,3.1-7.9c2.2-4,5.6-6.5,9.6-8.6
	c1.9-1,3.8-1.7,5.5-3c1.1-0.9,2.7-0.5,3.9-1.3c2.7-0.7,5.4-1.7,8.3-1.5c1,0.5,1.4,1.5,1.9,2.5c3,5.5,7.7,9.5,12.1,13.7
	c0.6,0.6,1.4,1.1,1.8-0.2c0.9-2.9,3.2-4.8,4.9-7.1c0.8-0.7,1.4-1.6,2.4-2.1c8.5-0.4,11.9-7.4,13.2-13.3c0.2-0.9,0.3-1.8,0.7-2.7
	c0.4-0.6,1-0.8,1.5-1.2c2.7-1.9,3-6.7,0.5-8.9c-0.4-0.4-0.8-0.7-1-1.2c-0.3-1.5-0.3-3.1-0.1-4.7c0.2-0.6,0.4-1.3,0.3-1.9
	c-0.1-1.6,0.3-2.9,1.5-4.1c1.1-1.1,1.4-2.5,1-4c-0.8-2.9-1-4.9-0.7-8.1c-0.2,1.1-0.1,2.3-0.1,3.4c-0.1,2-0.5,2.2-2.3,1.3
	c-3.1-1.7-6.2-3.2-9.6-4.2c-2.5-0.8-5.1-1.4-7.8-1.6c-0.8-0.1-1.6-0.2-2.1-0.9c-0.4-2.8,0.1-5.3,1.5-7.8c2.1-5.6,6.2-9.4,11.5-12.1
	c5.3-2.7,10.9-4.8,16.6-6.4c1.3,0.4,1.7,1.6,2.4,2.5c2,2.4,4.3,4.4,7.5,5c4.7,0.9,8.3-0.9,10.2-5.3c0.1-0.4,0.2-0.7,0.7-0.8
	c1.2,1.2,2.8,1,4.2,1.4c6.4,1.7,12.5,4,17.2,9.1c2.1,2.3,3.8,5,5.4,7.7c1.4,2.3,2.9,4.6,4.8,6.8c2-4.1,4-8.2,5.9-12.2
	c1.1-2.4,2.3-4.7,3.3-7.2c0.5-1.2,1.2-1.6,2.4-1.1c0.4-0.3,0.9-0.3,1.3-0.2c3.8,1.1,7.7,1.9,11.5,3c0.6,0.2,1.1,0.3,1.5,0.8
	c0.6,0.3,1.4,0.2,0.9,1.4c-3.9,11-7.6,22.1-13,32.5c-2.3,4.5-5.9,7.6-11.2,8c-4,0.3-7.3-1.2-10.4-3.5c-2.6-1.9-4.8-4.1-7-6.5
	c-0.4-0.4-0.7-1.2-1.3-0.9c-0.3,0.2-0.4,0.9-0.5,1.4c-0.4,4.2-0.9,8.4-1.2,12.6c-0.3,4.7-0.5,9.5-0.7,14.2c0,1.2-0.3,1.7-1.6,1.9
	c-5.1,0.7-10.1,1-15.2,1.2c-4.1,0.2-8.2,0.2-12.3,0c-3.1-0.2-6.3,0-9.4-0.5c-1.5-0.3-2.3,0.2-2.1,2c0.4,3.3,0.4,6.6,0.4,9.8
	c-1,1.2-2.6,0.7-3.8,1.4c2.2,3.7,4.2,7.5,6.2,11.2c2.7,5.3,5,10.7,7.2,16.2c0.6,1.5,1.4,2.5,3,3.1c2.7,1,5.3,2.3,7.9,3.6
	c0.6,0.3,1.2,0.5,1.6,1.2c0,0.1,0.1,0.3,0.1,0.4c-0.8,4.6-2,9.1-3.5,13.5c-0.1,0.2-0.3,0.4-0.5,0.6c-2.6,0.3-5.2,0.8-7.9,0.5
	c-1.7-1.8-3-4.1-4.8-5.9c-3.3-3.3-7-5-11.7-4.3c-0.8,0.1-1.7,0.1-2.5-0.2c-2-2.6-4.1-5.2-4.3-8.7c1.9-6.5,3.7-12.9,4.7-19.6
	c-0.9,6.1-2.4,12-4.2,17.9c-0.2,0.7-0.6,1.5-0.4,2.3c-0.4,3.5-1.4,6.8-2.4,10.1c-1.7,1.4-3.7,1.1-5.6,1.2c-2.5,0.1-2.6,0.1-2.6,2.5
	c0,2.5-0.4,5-0.9,7.4C179.6,245.7,179.5,246.5,178.8,247z"/>
<path class="st23" d="M75.3,253.8c-2.4,0-4.7,0.1-7.1,0.1c-7,0-14-0.3-21-0.8c-2.2-0.3-4.4-0.6-6.7-0.8c-1.1-0.1-1.3-0.4-1.3-1.5
	c0.8-11.3,1.4-22.7,2.4-34c0.8-9.6,1.9-19.3,4.6-28.6c0.9-3,2.1-5.9,4-8.5c0.1-0.2,0.1-0.4,0.3-0.4c2.9-0.3,5.7-1.1,8.5-1.6
	c1.6,0.8,3.3,0.6,4.9,0.1c0.6-0.2,1.2-0.6,1.8-0.1c1,0.7,2.2,0.8,3.4,0.8c7-0.1,13.9,0.4,20.9-0.3c0.8-0.1,1.7-0.1,2.4,0.6
	c4.3,8.9,5.3,18.5,6.5,28.1c1,7.8,2.1,15.6,3,23.5c0.8,6.5,1.4,13,2.1,19.4c0.1,1.1,0,1.6-1.3,1.7c-2.5,0.2-4.9,0.7-7.4,1.1
	C88.8,253.1,82,253.4,75.3,253.8z"/>
<path class="st24" d="M554.3,189.9c-9.8,0.7-19.6,0.7-29.4,0.5c-0.4-0.2-18,0.9-18,0.6c-0.8-4.4,6.8-10.9,3.3-13.3
	c-1-0.7,4.7,1.3,4.1,0c-0.1-0.7,0.1-1.4,0.3-2.1c0.9-3.8,1.2-7.7,1-11.6c-0.2-3.9-1.4-7.5-4-10.3c-1.6-1.8-2.1-3.6-1.7-5.8
	c0.6-3.3,0.2-6.7,0.6-10c0-0.2,0.1-0.3,0-0.3c0.1,1.6-0.3,3.5-0.2,5.3c0.2,2.1-0.4,4.2-0.4,6.3c0,1.5-1.1,1.2-2,0.9
	c-1.7-0.8-3.5-1.6-5.3-2.2c-0.9-0.3-1.9-0.5-2.9-0.6c-0.7-0.1-1.5-0.2-1.7-1c1.2-5.7,2.3-11.4,4.7-16.8c2.3-5.1,6-8.5,11.1-10.6
	c3.1-1.3,6.2-2.4,9.5-3.1c0.9,0.4,1,1.3,1.5,2c1.6,2.7,4,3.8,7,3.3c4.3-0.8,7.6-3.2,10-6.8c0.4-0.6,0.7-1.5,1.5-1.7
	c7.6,1.5,15.1,3.5,21.5,8.3c5.2,3.9,7.5,9.5,8.6,15.7c1.1,5.9,1.4,11.9,1.7,17.9c0.1,1.5-0.4,2.2-1.9,2c-1.7,1.3-3.8,1-5.7,1.2
	c-3.3,0.3-6.6,0.5-9.9,0.5c-2.6,0-2.7,0.3-2.7,2.8c0,8.8,0.7,17.5,0.5,26.3C555.2,188.2,555.4,189.3,554.3,189.9z"/>
<path class="st25" d="M457.1,120.1c1.5,1.4,3.2,2.7,4.6,4.2c4.4,4.7,6,10.7,7.3,16.8c2.1,10.1,2.7,20.4,1.6,30.7
	c-0.7,6.5-2.3,12.9-3.7,19.3c-0.3,1.2-0.6,2.3-0.8,3.4c-0.1,0.4-0.5,0.4-0.8,0.4c-3.9-0.3-7.7-1.3-11.5-2c-2.8-1.7-3.1-2.2-2.5-5.5
	c0.4-2.2,0.7-4.4,1-6.7c0.2-2,0-2.4-2.1-2.2c-3.2,0.4-6.3,0.3-9.5,0.3c-7.2,0.1-14.3-0.5-21.5-1.5c-0.9-0.2-1.4-0.9-1.4-1.8
	c-0.1-1.7-0.5-3.3-0.2-5c0.7-4.7,0.7-9.5-0.7-14.1c-1.9-6.6-1.6-13.2-0.6-19.9c-1,6.7-1.4,13.3,0.6,19.9c1.3,4.2,1,8.5,1,12.7
	c0,0.5-0.3,0.9-0.4,1.3c-0.6,1.7-2,1.2-3.2,1.2c-4.4-0.3-8-2.4-11.2-5.2c-2.7-2.4-5-5.2-7.1-8.1c-1.3-1.7-1.1-2.1,0.6-3.5
	c3.5-2.2,6.2-5,7.3-9.1c0.1-0.2,0.3-0.3,0.5-0.2c1.6,1.6,3.7,2.4,5.8,3.7c-0.1-5.2,0.8-9.9,2.2-14.5c1.6-5.7,4-11.1,9.7-14
	c1.6-0.8,3.2-1.5,4.9-1.9c0.6,0.4,0.7,1.1,0.9,1.7c0.7,2.3,2.3,3.4,4.6,3.4c5,0,9.2-1.9,12.4-5.8c0.4-0.5,0.7-1.1,1.3-1.4
	c0.4-0.2,0.8-0.3,1.2-0.2C450.6,117.3,454,118.4,457.1,120.1z"/>
<path class="st26" d="M349.9,239.2c-3.5,2.4-7.4,3.8-11.5,4.5c-3.7,0.6-7.3,1.3-11,1.4c-0.4,0.1-1.1,0.4-1.2-0.1
	c-0.2-0.7,0.6-0.7,1.1-0.8c3.7-0.6,7.5-1,11.2-1.7c1.7-0.3,3.3-1,5-1c-2.2-0.1-2.7-0.5-3.2-2.7c-0.7-3.1-1.7-6.1-3.6-8.7
	c-0.3-0.4-0.6-0.9-1.2-1c-2.3-0.2-4.6-0.7-6.7,0.7c-2.2,1.4-4.4,2.9-6.8,4.1c-1.4,0.7-2.8,1.8-4.6,1.2c-7.6-0.9-15.3-1.1-23-1.3
	c-0.6,0-1.3-0.2-1.9-0.3c-0.9-0.9-0.9-2.2-1-3.3c-0.3-1.9-0.6-3.8-0.8-5.7c-0.2-3.5-1-7-0.8-10.6c0.1-1.8,0-3.6,0.5-5.3
	c0.4-1.6-0.1-2.8-1.6-3.4c-1.1-0.4-1.2-1.1-1-2.2c0.4-2.1,0.8-4.1,1.2-6.2c-0.4,2.2-0.9,4.4-1.3,6.5c-0.1,0.8-0.5,1.5-1.3,1.5
	c-3,0.3-6,0.4-9-0.1c-0.2,0-0.3-0.2-0.4-0.4c2.2-7.4,4.2-15,8.9-21.4c1.2-1.7,3-2.7,4.4-4.2c2.7-2.1,5.7-3.7,9.1-4.2
	c0.2,0.2,0.4,0.4,0.4,0.7c-0.1,3.4,1.8,5.6,4.4,7.2c2.6,1.7,5.6,1.3,8.4,0.4c4.7-1.5,8.8-4,12-8c0.5-0.7,1-1.4,1.7-1.9
	c4.1,0.6,7.9,2.2,11.5,4.3c0.8,0.5,1.5,1.1,2.4,1.4c7.1,6.7,9.7,15.5,10.8,24.8c0.1,1.1,0.4,2.2,0.5,3.3c1,5,1.1,10.1,1.2,15.1
	c0.1,4.5,0.5,9.1-0.6,13.6C351.5,237,351.4,238.5,349.9,239.2z"/>
<path class="st27" d="M182.4,125.8c-0.3,2.6-1.2,5.2-1.2,7.8c-1.2,0.8-2.6,0.4-3.8,0.8c-0.3,0.1-0.7,0.1-1,0.1
	c-8,1.1-11.6,5-12.1,13.1c0,0.7,0,1.5-0.2,2.2c-0.4,1.4-0.4,2.9,0,4.3c0.1,0.6,0.2,1.3,0.1,1.9c-0.2,0.8-0.6,1.4-0.8,2.2
	c-0.6,2.5-0.4,4.8,1.7,6.7c0.6,0.5,1.1,1.1,1.2,2c0.2,1.3-0.4,2.6-0.4,3.9c-0.4,2.2-1,4.4-1.6,6.5c-0.2,0.7-0.3,1.6-1.3,1.8
	c-3,0.1-5.7,1.1-8.6,1.6c-2.7,0.7-5.5,0.7-8.2,0.6c-5.4-0.3-10.8-0.5-16.1-1.5c-0.9-0.2-1.7-0.3-2.3-1c-0.8-1.5-0.3-3.1-0.2-4.6
	c0.4-6.4,0.6-12.9,1.4-19.3c-1.2,2.4-2.9,4.3-5.3,5.6c-3.6,1.8-7.1,1.5-10.3-0.5c-3.3-2.1-5.3-5.2-5.9-9.2c-0.3-0.4-0.3-0.9,0-1.3
	c0-9.7,1.1-19.3,4-28.6c0.1-0.4,0.3-0.7,0.4-1.1c0.7-0.3,1.4,0,2.1,0.3c3.4,1.2,6.8,2.3,10.5,2.1c0.5,0,0.9,0,1.2,0.5
	c-0.1,4.9-0.2,9.9-0.6,14.8c-0.2,2.2,0,4.5-0.1,6.7c0,1,0.1,2-0.2,2.9c0-9,1.2-18,0.8-27.1c0-0.8,0-1.6,0.7-2.1
	c5.4-3.2,11.1-5.7,17.2-7.1c0.7,0.2,0.9,0.9,1.3,1.4c3,4.3,7.2,5.7,12.2,5.3c2.9-0.2,4.5-1.9,5.1-4.7c0.1-0.6,0.2-1.2,0.7-1.6
	c0.2-0.1,0.4-0.2,0.6-0.1c1.5,1.1,3.4,1.1,5.2,1.6c3.5,1,6.9,2.4,9.7,4.9C180.5,120,182,122.6,182.4,125.8z"/>
<path class="st28" d="M529.6,210.7c4.5,6.4,5.1,13.7,4.7,21.3c0.7,3.4-0.2,6.8-0.8,10.1c-0.2,1.4-1.5,1-2.4,0.8
	c-5.2-0.9-10.4-1.5-15.7-1.7c-1.7-0.1-2.2,0.5-2.5,2c-0.4,2.4-0.7,4.8-1.1,7.2c-0.4,2.3-0.8,2.8-3.2,3c-7.8,0.8-15.6,2-23.3,3.3
	c-4.6,0.8-8.8-0.8-13-2.6c-0.7-1.9-0.6-3.9-0.9-5.8c-0.4-2.9-0.7-5.7-1-8.6c-0.1-1.1-0.1-2.2,0.3-3.3c-0.6-6.3,0.2-12.4,2-19
	c-1.8,6.4-2.5,12.4-2.1,18.6c0.1,1-0.5,1.3-1.4,1.3c-2.1-0.8-3.8-2.4-5.4-3.9c-2.7-2.6-5.7-4.9-8.2-7.7c-0.5-0.8-0.1-1.5,0.4-2.1
	c0.9-1.3,1.9-2.5,2.8-3.8c1.3-1.2,2.1-2.8,3.2-4.1c1.6-1,2.3-2.8,3.4-4.2c0.6-0.9,1.1-1.9,2.3-2.2c3.3-3.8,7-6.8,11.7-8.7
	c2.2-0.9,4.5-1.4,6.7-2c0.6,0.7,0.4,1.6,0.4,2.5c0.2,3.8,2,5.7,5.9,5.7c5.1,0,8.8-2.6,11.6-6.6c0.5-0.7,0.7-1.6,1.4-2.1
	c1.4-1,2.8-0.4,4.3-0.2c2.5,0.6,4.8,1.6,7.2,2.4c4.2,1.9,8.1,4.4,11.2,7.8C528.7,208.8,529.6,209.5,529.6,210.7z"/>
<path class="st7" d="M339.8,179.1c-0.2,0.1-0.5,0.2-0.7,0c-3.9-3-8.5-4.3-13-5.7c-2.9-0.8-5.2-3.5-5.3-6.4c-0.1-3.1,0-6.2,0-9.3
	c0-1.4,0.5-2.2,2-2.5c3.4-0.6,4.6-3.9,3.8-7.1c-0.7-2.6-3.7-3.3-5.4-1.2c-1.2,1.5-2.2,1.2-3.3,0.3c-6.1-4.7-12.2-9.3-16.4-15.9
	c-0.6-1-1.2-0.8-1.9-0.2c-4,3.6-8,7.2-8.6,13.1c-0.1,0.6-0.1,1.2-0.8,1.5c-0.5-3.6-1.1-7.3,0-10.9c2.1-7.3,7.4-11,14.4-12.6
	c5.4-1.2,10.7-0.5,15.7,2c2.2,0.2,3.5,2,5.1,3.2c1.3-2.5,1.9-5.2,2.7-7.8c0.3-1.1,0.5-2.2,1.3-3.1c3.3-1.6,6.8-2.6,10.3-3.6
	c0.4,0.3,0.6,0.7,0.7,1.1c1.6,5.1,5.2,5.9,10.2,4.8c3.6-0.8,6.5-2.8,8.4-6.1c0.7-0.2,1.4-0.4,1.9,0.4c3.8,1.2,7.7,2.3,11.3,4.2
	c0.2,0.5-0.1,0.8-0.3,1c-3.1,3.4-3.9,7.6-4.1,11.9c-0.4,8.8,0.5,17.4,2.8,25.9c0.6,2.2,0.9,4.4,0.8,6.7c-0.4,2.3-0.2,4.7-1.7,6.7
	c-2.7,1.3-5.7,1.2-8.5,1.4c-4.2,0.3-8.4,0.7-12.7,0.5c-2.4-0.1-4.7-0.4-7.1-0.5c-1.6,0-1.8,0.4-1.5,1.8
	C340,174.9,340.6,177,339.8,179.1z"/>
<path class="st7" d="M276.7,204.5c3,0,6.1,0,9.1,0c1,0,1.3-0.4,1.4-1.4c0.5-2.8,1.1-5.5,1.6-8.3c0.8,0.2,0.7,0.6,0.6,1.1
	c-0.5,2.5-0.9,5-1.5,7.5c-0.2,0.7-0.1,1,0.7,1.2c1.8,0.3,2.7,1.6,2.3,3.3c-1.1,5.2-0.6,10.3,0.2,15.5c0.1,0.3,0,0.7-0.1,1
	c-1.7-0.1-1-1.6-1.5-2.4c-0.2-2-0.9-4.1-0.1-5.9c-0.9,5.3-3,10.6-4.5,16c-0.7,1.2-0.8,2.6-1.4,3.8c-0.9,3-1.8,6-2.7,9
	c-0.3,0.9-0.6,1.9-1.2,2.6c-2,2.2-4.6,2.7-7.5,2.6c-11.8-0.1-23.5,0-35.3-0.1c-4.3,0-8.7,0.3-13,0.4c-5.1,0.2-10.3-0.3-15.4-0.5
	c-4.6-0.2-9.2-0.3-13.8-0.7c-1.3-0.1-2.6-0.2-3.8-0.7c-0.5-0.5-1.1-1-1.6-1.5c-0.1-1.3,0.9-1.7,1.7-2.1c3.9-1.9,7.9-3,12-0.2
	c0.8,0.6,2.1,1.5,2.8,0.6c0.6-0.8-0.9-1.6-1.5-2.2c-1.4-1.3-2.9-2.3-4.7-2.9c-0.7-0.2-1.7-0.5-1.5-1.3c0.3-1,1.4-0.4,2.1-0.2
	c1.8,0.4,3.2,1.5,4.6,2.7c1.5,1.2,2.7,2.9,5.2,3c-3.2-2.2-5.2-5.7-8.9-7.1c-0.3-0.1-0.6-0.4-0.5-0.7c0.1-0.4,0.6-0.5,1-0.5
	c1-0.1,1.7,0.5,2.5,1c3.1,2.1,5.6,4.7,8.3,7.6c0.2-1.5-1.3-1.9-1.2-3c0.1-0.3,0.2-0.5,0.5-0.6c1,0,1.3,1.1,2.1,1.4
	c2.4,0.3,4.8,0.3,7.2-0.1c0.7-0.1,1.4-0.2,1.9-0.9c1.2-4.7,2.4-9.4,3.6-14.2c-0.2-0.7-0.1-1.4,0.1-2.1c1.5-5.3,3-10.7,4.7-15.9
	c0.3-0.9,0.5-1.8,1.4-2.3c1.4-2.2,3.5-2.5,5.9-2.5c12.1,0.1,24.2,0.1,36.3,0.1C275.2,204.6,276,204.6,276.7,204.5z"/>
<path class="st29" d="M107.3,149.6c0,0.4,0,0.9,0,1.3c-0.4,0.2-0.7,0.5-1.1,0.7c-2.6,2-5.5,3.3-8.8,3.1c-0.5-0.9,0.1-1.8,0.3-2.7
	c0.5-2.1,1.3-4.1,1.8-6.4c-0.8-0.1-1.6,0.1-2.3-0.3c-1.1-1.7-1.2-3.7-2.1-5.7c0.6,1.5,0.9,3,1.4,4.3c0.2,0.6,0.1,1.2-0.6,1.5
	c-1,0.3-2,0.2-2.9,0.2c-6,0-12,0-18,0c-2.5,0-2.6,0.1-3.1,2.6c-0.8,3.8-1.4,7.7-2.6,11.4c-0.1,0.2-0.3,0.5-0.6,0.5
	c-3.6,1.3-6.7,3.5-10,5.1c-2.7,1.3-5.8,0.8-8.7,0.2c-0.2-0.2-0.3-0.4-0.3-0.6c-0.1-1.7,0.5-3.3,0.4-4.9c-0.1-2.5-0.6-3-3-3.3
	c-3.5-0.4-6.9-0.9-10.3-1.8c-0.8-0.2-1.6-0.3-2.1-1c-1.2-0.2-1.6-0.7-1.2-2.1c1.9-6,3.9-11.9,6.4-17.7c2-4.5,4.9-8.2,9.1-10.8
	c0.1-0.3,0.2-0.5,0.4-0.6c3.6-1.7,7.2-3.2,11.1-3.7c2.7,2,5.1,4.3,8.3,5.6c3.2,1.3,6.5,2,9.9,1.6c2.9-0.3,5.1-1.7,6.1-4.6
	c0.2-0.6,0.4-1.3,1-1.7c0.4-0.2,0.9-0.3,1.3-0.2c3.6,1.3,7.2,2.6,10,5.4c5.4,6.5,7.3,14.5,9.5,22.3
	C106.9,148.2,107.1,148.9,107.3,149.6z"/>
<path class="st30" d="M370.6,163c0.1-5.2-2-10-2.7-15.1c-1.1-7.7-1.9-15.4-0.1-23.1c0.6-2.8,1.6-5.6,4.2-7.4
	c4.7,2.1,7.7,5.8,9.7,10.4c0.4,0.9,0.8,1.8,1.2,2.7c0.3,0.9,0.1,1.8,0.1,2.7c-0.1,0.3-0.3,0.5-0.5,0.6c-0.9,0.3-1.6,0.7-0.8,1.8
	c0.5,0.7,1.1,1.5-0.5,1.7c-0.8,0.1-0.6,0.8-0.3,1.3c0.3,0.8,1,1.2,1.5,1.8c1.4,1.3,3,2.5,3.7,4.5c0.9,3.3,1,6.7,1.2,10
	c0.4,7.6,0.2,15.2-2,22.6c-0.2,0.6-0.3,1.3-0.5,1.9c-1.4,5.5-3,10.9-1.9,16.9c0.9,5.1,0.2,10.4-1.7,15.4c-0.5,1.3-1,2.6-1.8,3.7
	c-0.9,0.7-1.5,2.2-3,1c1.6-3.2,3-6.6,3.4-9.9c-0.7,2.9-1.3,6.2-3.2,9c-0.6,0.9-1,2-2,2.6c-0.8,0.5-1.6,1-2.3-0.1
	c-0.1-1.5,1.3-2.2,1.7-3.4c1-2.6,1.7-5.2,2.3-7.9c-0.5,2.7-1.2,5.4-2.3,7.9c-0.3,0.8-0.6,1.6-1.4,2.1c-0.7,0.7-1.4,1.4-2.5,1.1
	c-0.9-0.2-1.3-0.8-1-1.7c1.9-2.9,2.5-6.3,3.5-9.6c0.1-0.4,0.1-0.8,0.2-0.8c-0.6,2.7-1.6,5.6-2.6,8.6c-0.2,0.7-0.6,1.3-1.1,1.9
	c-0.6,0.7-1.4,0.8-2.2,0.4c-0.9-0.5-1-1.4-0.9-2.2c0.4-2.9,0.8-5.9,1.4-8.8c0-1.2,0.7-2.4,0.7-3.8c0,0.9-0.1,1.6-0.5,2.2
	c-0.3,1.4-0.6,2.8-1.6,4c-0.6,0.8-1.3,1.3-2.4,1.1c-1.1-0.3-1.2-1.3-1.3-2.2c-0.3-4.4,0.9-8.6,3-12.1c2.6-4.4,3.2-9.1,3.6-14
	c0.3-3.7,0.9-7.5,0.9-11.2C370.1,167.2,371,165.1,370.6,163z"/>
<path class="st3" d="M232.3,207c-2.5,6.4-4.1,13.1-5.9,19.6c-0.1,0.2-0.2,0.5-0.3,0.7c-3.7-1.5-7.1-3.6-11-4.9c-0.8-0.3-1-1-1.2-1.7
	c-2.4-5.8-4.8-11.6-7.6-17.3c1.4-1.3,1.5-3,1-4.7c-0.5-1.9-1.3-3.7-2.2-5.5c-0.3-0.7-1-1.3-0.4-2.2c0.5-2-0.4-3.9-0.2-5.8
	c0.2-1.5,0.1-3,0-4.6c-0.1-1.3,0.6-1.6,1.7-1.5c7.3,0.8,14.6,0.9,21.9,0.7c4.8-0.1,9.6-0.6,14.3-1.3c1.9-0.3,2.1,0.6,2.1,1.8
	c0.1,1.4,0.3,2.7,0.4,4.1c0.4,4.6,0.6,9.2,0.8,13.8c0.1,1.3,0.4,2.4,0.5,3.7c0,1.4-0.5,1.8-1.9,1.8c-2.4-0.1-4.9,0-7.3,0
	c-2,0-3.6,0.8-4.8,2.3C232.1,206.4,232,206.7,232.3,207z"/>
<path class="st31" d="M505.4,198.3c-1.8,5.6-9,10-14.7,9c-2.9-0.5-4.6-2.4-4.7-5.4c0-1.1,0-2.1,0.1-3.2c0.4-0.7,0.7-1.3,1.1-2
	c0.4-0.5,1.1-0.5,1.6-0.5c2.7-0.2,4.7-1.6,6.2-3.9c-2.8,1.5-5.5,3.1-8.7,2.4c-2.1,0-4.2,0.1-6.1-0.9c-2.5-1.3-4.1-3.5-5-6.1
	c-2.5-7.5-2.2-15.1,0-22.6c1.1,0.2,2.2,0.3,3.4,0.2c-1-1-2.3,0.1-3.3-0.6c1.1-2.8,2.1-5.6,3.2-8.3c1.5,0,2.6,1.1,4.1,1.3
	c3.5,0.6,6.9,0.7,10.4,0.2c0.2,0,0.4-0.1,0.6-0.1c4.2-0.4,4.9,0.1,4.8,4.4c-0.1,3.2,0.4,6.3,2,9.1c0.5,0.9,1,1.4,1.9,0.3
	c2.2-2.8,6.7-1.5,8,2.1c1.1,2.9,0.1,6.7-2.5,8.3c-2,1.2-2.5,2.7-2.3,4.7c0.1,0.5,0,1.1,0,1.6C505.5,191.6,505.9,195,505.4,198.3z"/>
<path class="st32" d="M290.1,145.7c0.6-7.4,5.1-12.1,10.7-16.2c4.5,7.5,11.1,12.7,17.9,17.7c0.8,0.6,1.3,0.7,1.8-0.4
	c0.7-1.6,2.1-1.9,3.7-1.7c1.6,0.3,2.6,1.4,3,2.9c1,4.1-1.2,7.6-4.8,7.7c-0.9,0-1.1,0.4-1.1,1.2c0,3.5,0,7,0.1,10.5
	c0,1.3,0.3,2.4,1.5,3.2c1.1,0.8,2.1,1.7,3.2,2.6c-4.2,6.4-10.2,10.1-17.8,10.9c-4.4,0.5-10.1-4-9.2-9.4c1-1.3,2.3-2.4,2.6-4.2
	c0.1-0.5,0.8-0.7,1.3-0.7c2.9-0.1,5.4-1.2,7.4-3c-0.1,0,0.3-0.2,0.2-0.1c-8.4,3.6-14.6,1.6-18.4-6.9c-0.9-2-1.4-4.1-1.4-6.3
	C290.5,151,290.3,148.3,290.1,145.7z"/>
<path class="st33" d="M554.3,189.9c0.4-1.3,0.3-2.6,0.3-3.9c-0.1-8.1-0.2-16.2-0.4-24.4c0-0.2,0-0.4,0-0.6c-0.3-3.4-0.3-3.4,3.1-3.5
	c5.3-0.1,10.5-0.6,15.8-1.2c-0.2,4.9-0.4,9.9-0.9,14.8c-0.8,8.8-2.2,17.4-4.2,25.9c-0.7,2.9-0.5,5.6-0.2,8.4
	c0.8,6.7-0.1,13.1-3,19.3c-0.5,1-1.1,1.9-1.9,2.7c-1.1,0.3-1.3-0.2-1.1-1.1c0.9-1.5,1.7-3,2.2-4.6c0.5-1.6,0.8-3.1,1.1-4.8
	c-0.7,3.3-1.1,6.5-3.3,9.1c-1,0.5-0.8,1.7-1.6,2.3c-0.5,0.4-0.9,0.7-1.6,0.5c-0.6-0.2-0.4-0.7-0.4-1.1c1.5-3.4,3.1-6.8,3.6-10.5
	c0-0.3-0.3,0.1,0,0c0.9-0.3-2.5,8.7-3.9,10.3c-0.6,0.6-1.2,1.5-2.2,1.2c-0.7-0.2-0.6-1-0.5-1.7c1.1-3.6,2.2-7.2,3.3-10.7
	c-1,3-1.9,6-2.8,9c-0.2,0.6-0.4,1.3-1,1.6c-0.5,0.4-1,1.1-1.7,0.6c-0.7-0.5-0.7-1.2-0.6-2c0.4-2.7,0.8-5.4,1.1-8.1
	c0.4-1.4,0.2-2.8,0.3-4.1c-0.2,0.6-0.1,1.3-0.5,1.9c-0.4,1.2-0.7,2.4-1.2,3.5c-0.4,0.9-1.2,1.5-2.2,1.2c-1-0.2-0.9-1.2-0.9-2
	c-0.2-4.8,1.1-9.3,3.3-13.5c1-1.9,1.6-3.8,1.7-6C554.1,195.7,554.3,192.8,554.3,189.9z"/>
<path class="st34" d="M543.2,112.5c-2.3,4.5-5.8,7.6-10.8,8.8c-4.4,1-7-0.4-8.8-4.5c-0.2-0.4-0.3-0.7-0.5-1.1
	c0.1-0.3,0.1-0.6,0.2-0.9c0.6-0.7,1.4-0.6,2.2-0.8c3.2-0.5,5.8-2,7.9-5c-2.5,1.6-4.9,2.9-7.5,3.4c-1.2,0.2-2.3,0.5-3.4-0.2
	c-3.8-0.2-6.4-2.3-8.3-5.3c-1.9-3.1-2.9-6.5-3.1-10.1c-0.3-3.9-0.2-7.9,0.1-11.9c0.3-4.1,1.2-8.1,2.5-12c0.7-0.6,1.4-0.3,2-0.1
	c4.1,1.5,8.2,1.2,12.3,0.1c1.3-0.3,2.5-0.8,3.9-0.5c1.5,0.2,2.4,1,2.4,2.6c0,3,0,5.9,0,8.9c0,1.9,0.5,3.6,1.4,5.3
	c0.4,0.8,0.9,0.9,1.4,0.1c0.3-0.5,0.5-0.9,0.8-1.4c1.2-1.9,3.2-2.6,5.7-2c1.9,0.5,3.2,2,3.3,4.2c0.2,2.7-0.9,4.9-3.2,6.4
	c-0.7,0.3-1.4,0.6-2.1,0.8c-0.3,0,0,0.4-0.1,0.2c0-0.1,0-0.1,0.1-0.1c0.6-0.2,1,0.1,1.4,0.4c1.2,1.6,0.9,3.3,0.3,5
	C543.2,106,543.2,109.3,543.2,112.5z"/>
<path class="st35" d="M85.9,120c-1.2,5.8-5.6,7.4-10.2,6.9c-6-0.7-11.2-3-15.2-7.6c4.3-3.5,4.1-8.7,4.7-13.5
	c0.1-0.6-0.1-1.2,0.1-1.8c0.3-1.3-0.1-1.9-1.4-2.2c-2.4-0.6-3.7-2.4-4.1-4.8c-0.3-2.3,0.3-4.2,2.2-5.6c1.9-1.5,4.1-1.3,5.6,0.7
	c0.5,0.7,0.8,0.9,1.5,0.3c5.7-3.9,11.3-7.9,14.8-14.1c0.8-1.4,1.5-1.6,2.9-0.5c2.6,2.2,5.2,4.5,7,7.5c0.5,0.8,1.2,1.7,0.6,2.5
	c-0.5,0.8-1.4,0-2.2,0c-0.3,0-0.5,0-0.9,0c2.6,0.2,4.4,1.3,4.6,4.1c0,1.8,0,3.6,0,5.3c-0.4,2.4,0.2,5-0.7,7.4
	c-1.1,3-2.3,5.9-4.9,7.9c-4.9,3.6-9.9,2.7-14.6,0.7c1.4,1.3,3.4,2.3,5.7,2.8c0.9,0.2,1.8,0.6,1.7,1.8c0,0.8,0.6,0.9,1.2,1.1
	C84.9,119.2,85.6,119.3,85.9,120z"/>
<path class="st36" d="M457.1,120.1c-3.2-0.6-6-2.2-9-3c-0.7-0.2-1.4-0.2-2.1-0.2c-3.2-3.1-4.3-7-3.9-11.3c0.1-1,0.5-1.9,0.7-2.9
	c0.3-1.3,0.9-2,2.3-2.3c3.7-0.7,5.6-5.6,3.5-8.7c-0.9-1.3-2.5-1.8-4-0.6c-2.9,2.5-5.4,1.1-7.9-0.5c-1.3-0.8-2.7-1.4-4-2.2
	c-0.9-0.8-1.9-1.1-3-1.6c-0.5-0.3,0.5-0.6-0.2-1.2c-2.7-2.1-4.1-5.2-5.6-8.2c-0.2-0.4-0.2-1-0.9-1.4c-1.1,0.9-2,2-3,2.9
	c-0.7,0.7-0.8,0.6-1.5,0.1c-0.8-2.7-0.4-4.5,1.8-5.6c6.8-3.5,14-5.1,21.6-3.3c6.9,1.6,10.7,6.7,13,12.9c1.1,2.9,1.9,6,2.1,9.2
	c0.1,1.5,1,2.4,1.9,3.3c2.1,2.2,4.5,4.3,6.1,7c4.5,7.3,1.1,14.5-6.8,17.3C457.9,120.2,457.5,120.1,457.1,120.1z"/>
<path class="st31" d="M359,112.9c-1.8,5-9,7.6-13.9,6.7c-3.1-0.6-5.1-3.1-5.6-6.8c0,0,0,0.1,0,0.1c0.4-0.5,0.8-0.8,1.5-0.9
	c3-0.3,5.4-1.9,8.1-3.9c-3.5,1.9-6.8,2.8-10.4,2.4c-0.2-0.2-0.4-0.4-0.6-0.4c-6.7-1.2-9-6.2-10.2-12c-1.1-5.2-1-10.4,0.6-15.5
	c1.2-1.1,2.7-1.4,4.4-1.4c-0.8-1-2.1-0.1-2.9-0.9c-0.3-0.9,0.4-1.5,0.9-2c2.2-2.5,5.2-4,8-5.7c1.3-0.7,2,0,2.6,0.9
	c2.9,3.9,6.2,7.6,9.2,11.4c0.3,0.4,0.7,0.8,1,1.2c2,2.1,2,2.1,4.3,0.4c1.6-1.2,4.1-1.4,5.6-0.3c2.1,1.5,2.9,4.3,1.9,6.9
	c-0.6,1.5-1.5,2.7-2.9,3.4c-1.2,0.7-1.5,1.6-1.5,2.9C359.1,103.9,359.3,108.4,359,112.9z"/>
<path class="st37" d="M163,111.4c-0.1,0.3-0.3,0.6-0.3,0.9c-0.8,4.3-2.7,6.2-7.1,6.1c-5.4-0.1-9.9-2-12.2-7.4c0-3.7,0-7.4,0-11.1
	c0-0.6,0.2-1.3-0.3-1.9c-0.1-1.2-0.7-1.8-1.8-2.3c-3.5-1.5-4.9-6.7-2.6-9.3c2-2.3,5.1-2.2,7,0.2c0.6,0.8,1,2.3,2.2,1.9
	c1-0.3,0.7-1.8,0.9-2.8c0.3-1.5,0.4-3,0.4-4.5c0.1-3.7,2.7-5.1,5.4-6.6c0.5-0.3,1-0.4,1.5-0.2c1.8,0.9,3.6,0.3,5.4,0.1
	c2.5-0.2,5.1,0.1,7.7,0.1c0.8,0,2.3-0.3,2.6,0.5c0.4,1.3,0,3.5,0.2,4.8c0.4,1.7-1.6,1.3-2.5,1.4c-0.8,0.1-1.7-0.1-2.5,0.7
	c1.8,0.9,3.9,0.2,5.4,1.5c0.6,5.5,0.9,11-0.5,16.5c-1.1,4.2-3.2,7.4-7.7,8.6c-2.2,1.1-4.3,0.1-6.3-0.3c-1.7-0.3-3.2-1.2-4.7-2
	c2,2.5,4.6,3.6,7.7,4C161.6,110.5,162.6,110.3,163,111.4z"/>
<path class="st38" d="M432.8,88c2.2,1.2,4.5,2.5,6.7,3.7c1.3,0.7,2.5,0.9,3.9-0.4c1.8-1.8,4.2-1.7,5.4-0.1c1.4,2,1.5,4.4,0.5,6.6
	c-0.8,1.9-2.1,3.4-4.5,3.4c-0.9,0-1.1,0.4-1.4,1.2c-1.8,4.8-1,9.2,1.8,13.3c0.3,0.4,0.5,0.9,0.7,1.4c-2.8,4.9-7.2,7.1-12.6,7.5
	c-4.3,0.3-5.8-1.3-6.5-5.6c0.1-0.6,0.2-1.2,0.3-1.8c0.4-0.7,1.2-0.8,1.8-1c1.7-0.6,3.1-1.6,4.4-2.9c-1.6,0.7-3.2,1.2-4.9,1.5
	c-0.7,0.1-1.4,0.2-2.1-0.3c-4.2,0.7-6.9-1.4-8.8-4.9c-2.3-4.2-2.9-8.8-2.9-13.4c0-5.1,0.8-10.1,2.7-14.9c0.3-0.7,0.4-1.4,1-1.9
	c1,0.5,1.2-0.5,1.6-0.9c1.1-1,2.1-2.2,3.3-3.4c1.5,4.3,3.5,8,6.6,11c0.5,0.5-0.1,0.6-0.3,0.8c0.5,1.1,1.7,1.4,2.5,2
	C432.6,89,432.4,88.1,432.8,88z"/>
<path class="st7" d="M95.9,91.9c-0.8-2.5-2.4-3.8-5.1-3.6c-0.5,0-1-0.1-1-0.6c0-0.6,0.6-0.6,1.1-0.6c1.2-0.1,2.3,0,3.8,1
	c-2-5.1-5.8-8-9.5-11.1C81.3,84.7,74.6,89.2,68,93.7c-1.5-2.7-2.6-3.3-4.7-2.5c-2.4,0.9-3.7,3.6-2.9,6.2c0.6,2.3,2,3.8,4.5,4.1
	c0.7,0.1,1.3,0,1.2,1c-0.4,3.9-0.5,7.9-1.6,11.7c-0.6,2.1-1.4,4.3-3.9,5c-3.9,1.1-7.8,2.4-11.6,4.1c-0.3-0.1-0.6-0.3-0.9-0.4
	c-2.7-1.2-2.7-1.4-1.6-3.9c3.5-7.8,5.5-16.1,7.3-24.3c1.1-4.8,2.1-9.6,4.4-13.9c4.1-7.5,10.3-11.7,19-11.4
	c9.3,0.3,17.7,7.6,18.9,15.5C96.5,87.2,96.2,89.6,95.9,91.9z"/>
<path class="st39" d="M231.3,109c-0.8,4.2-5.4,7.2-9.7,6.6c-4.1-0.6-7-2.8-9.4-6c-0.6-0.7-1.1-1.5-1.6-2.2c-0.5-4.5-0.2-9-0.2-13.5
	c0-1.2-0.1-1.8-1.5-2.2c-3.7-0.9-5.7-5.5-4.2-9.3c0.3-0.8,0.9-1.5,1-2.4c2.6-2.6,7.1-0.7,8.2,3.8c0.5-0.5,0.3-1.4,0.9-1.7
	c1.3-0.6,2.5,0,3.7,0.2c0.9,0.2,1,0.9,1.1,1.7c0.6,3.8,2.1,5.5,5.1,5.7c2.9,0.2,5.5-2,6.3-5.2c0.1-0.4,0.2-0.8,0.2-1.2
	c0.2-0.7,0.5-1.2,1.3-1.3c0.7-0.1,1.4,0.1,1.7,0.8c0.9,2.1,2,4,2.9,6c0.8,1.7-0.2,3.3-2.1,3.8c-0.6,0.2-1.2,0.1-1.8,0.2
	c1,0.1,2,0,2.8-0.5c0.6-0.3,1-0.7,1.3-1.2c0.4-0.7-0.4-1.8,0.6-2.1c1.1-0.4,2.2,0,3.3,0.1c0.2,0,0.3,0.2,0.4,0.4
	c0,2.8-0.4,5.6-1,8.3c-1.1,4.4-3.3,7.6-8,8.7c-2.4,0.8-4.7,0-7-0.2c-2-0.2-3.9-1-5.9-1.9c2.6,3.2,6.1,3.9,9.7,4.3
	C230,108.9,230.6,108.8,231.3,109z"/>
<path class="st40" d="M34.7,153.9c4.5,1,9,2,13.5,2.3c1.4,0.1,2.2,0.7,2.3,2.2c0.1,2.2,0.2,4.4-0.8,6.5c-1.6,0.9-3.4,0.3-5.4,1.2
	c0.1,0,0.6,0.1,0.4-0.1c1.7-0.6,3.4-0.6,5.2-0.6c0.1,0,0.3,0,0.4,0c5,0.5,9.5-0.4,13.5-3.7c1.4-1.1,3.4-1.4,5.1-2
	c2.3-1.1,4.8-1.2,7.2-0.8c1.5,0.2,1.9,1.3,1.2,2.6c-0.4,0.6-1,0.7-1.7,0.8c-1.9,0.1-3.7,0.7-4.8,0.9c1.6-0.7,4.2-0.7,6.5-1.3
	c1.1,0.1,1.9,0.7,1.8,1.9c-0.1,1.1-0.7,2.1-2.1,2.1c-0.6-0.5-1.2-0.4-1.9-0.2c-1.8,0.5-3.6,1-5.4,1.3c2.2-0.4,4.3-1.2,6.6-1.5
	c1,1.4,0.9,1.6-1.1,2.9c-1.6,1-3.4,1.2-5,2c1.6-0.8,3.5-1.1,5.1-2.1c1.3,0.4,1.1,1.2,0.6,2.1c-0.3,0.5-0.9,0.8-1.4,1.1
	c-3.1,1.5-6.1,3.3-9.1,5c-2.2-0.1-4,1.2-6.1,1.3c-2.9,1.3-5.9,1.6-9,1.9c-2.8,0.2-5.6,0.5-8.4,0c-5.4-1-8.3-4.1-8.6-9.5
	C32.9,164.8,33.2,159.3,34.7,153.9z"/>
<path class="st41" d="M359,112.9c-0.4-0.5-0.4-1.1-0.4-1.7c0-4.4,0-8.7-0.1-13.1c0-1.1,0.5-1.4,1.3-1.8c2.8-1.3,4.2-4.3,3.4-7.2
	c-0.4-1.5-1.4-2.8-3-3.1c-2.1-0.5-3.9,0.3-5,1.9c-1,1.5-1.5,1-2.4,0c-4.3-4.6-8.2-9.4-12-14.5c-0.6-0.9-1-1-1.9-0.4
	c-2.6,1.7-5.4,3-7.6,5.3c-0.5,0.6-1.2,1.1-1.4,1.9c-0.3,0.4-0.6,0.5-1.1,0.3c1.7-9.2,12.1-16.3,21.3-14.7c9.6,1.7,15,7.6,17.1,16.8
	c2,8.8,3.7,17.7,5.6,26.6c0.2,0.9-0.2,1.3-1,1.6c-2.3,0.9-4.7,1.3-7.1,1.6c-1.4,0.1-2.7,0.4-4.1,0.6
	C360.1,113.1,359.6,113,359,112.9z"/>
<path class="st7" d="M505.1,187.9c0-0.9,0-1.7,0-2.6c-0.1-1.7,0.1-2.7,2-3.6c3.8-1.8,4.4-7.5,1.3-10.1c-2.2-1.9-4.9-1.5-6.1,1
	c-0.6,1.2-0.9,0.9-1.4,0.2c-1.7-2.3-3-4.8-3-7.8c0-1.6,0-3.2,0.1-4.8c0.1-1.8-0.7-2.4-2.5-2.2c-4.1,0.5-8.3,0.9-12.4,0.1
	c-1.7-0.3-3.4-0.6-4.6-2c-0.3-4.6,0.6-5.9,4.9-7.7c4.7-1.9,9.5-2.4,14.4-2.4c3.9,0.8,7.8,1.8,11.5,4.1c0.3-4.8,0.6-9.2,0.8-13.7
	c0.5,3.2,0.5,6.4,0.2,9.6c0,0.5-0.1,0.9-0.1,1.4c-0.3,2.1,0.2,3.9,1.7,5.7c4.4,5,4.7,11.1,4,17.4c-0.3,2.5-0.9,4.9-1.4,7.4
	c-0.4,0.5-0.1,3.2-0.7,3.1c-0.8,0.6-0.3,0.8-1.5,1.7c-0.2,1.6-2.3,1.4-3.3,2.7C507.9,186.6,507,188.1,505.1,187.9z"/>
<path class="st42" d="M543.2,96.3c2.4-1.7,3.6-4,2.9-7c-0.3-1.6-1.3-2.8-3-2.9c-1.9-0.2-3.9-0.3-4.9,1.9c-0.5,1-1.1,2-1.7,3.2
	c-1.8-2-2.7-4.3-2.8-6.7c-0.1-2.7,0-5.4,0-8.1c0-3.8-0.7-4.4-4.5-3.4c-2.9,0.8-5.7,1.3-8.8,1.2c-2.4-0.1-4.4-1.2-6.7-1.6
	c-1.9-0.7-3.3-1.9-4.3-3.6c-0.6-0.9-0.5-1.8-0.2-2.6c0.4-0.9,1.3-0.8,2.1-0.6c5.9,1,11.7-0.6,17.5-1.4c5-0.6,10-0.4,14.6,2
	c5.7,3,8.7,7.8,9,14.3c0.3,6.4-1.3,12.3-4.6,17.7c-1.1,1.8-2.6,3.2-4.5,4c0-1-0.1-2.1-0.1-3.1c0-0.7,0-1.5-0.9-1.8
	C541.8,96.9,542.7,96.7,543.2,96.3z"/>
<path class="st43" d="M172.4,83.6c-1.8-0.2-3.5-0.5-5.3-0.6c-0.6,0-0.6-0.3-0.6-0.7c0-0.4-0.4-0.9,0.3-1.2c0.3-0.1,0.6-0.2,0.9-0.2
	c1-0.2,4.2,0.6,4.4-0.3c-0.3-2-0.6-3.4-0.5-5c1.1-1.4-3.9-0.5-4.9-0.5c-2.6,0.2-5.4-0.9-7.9,0.5c-0.4,0.2-1.1,0.1-1.5-0.2
	c-1.9-1.4-3.2,0-4.7,0.9c-2.9,1.7-2.9,4.5-3.1,7.3c-0.1,1.8-0.2,3.6-0.8,5.2c-0.4,0.9-0.8,1.3-1.7,0.4c-0.6-0.6-1.2-1.3-1.6-2
	c-1-1.8-2.6-2.1-4.4-1.9c-1.6,0.2-3,2.2-3.1,3.9c-0.2,3.4,1.3,5.5,4.5,6.2c1.8,0.4,1.3,1.4,0.7,2.4c-1.4,0.2-2.3-0.4-2.7-1.7
	c-0.6-1.7-2.4-2.6-2.8-4.4c-0.2-1-0.5-1.9-0.4-2.9c0.1-0.9,0.1-1.8-0.8-2.5c-0.2-0.2-0.5-0.5-0.5-0.8c-0.2-3.9-2-7.6,0.4-11.7
	c1.4-2.4,3.2-4.6,4.7-6.9c1.3-2,3.8-3.7,6.3-4.3c1.1-0.2,2.2-0.1,3-1.1c0.3-0.4,0.8-0.4,1.1-0.2c1.5,1.2,3.2-0.2,4.3,0.2
	c2.3,0.8,4.7,0,6.7,1.1c0.8,0.4,1.6-0.1,2.2,0.3c2,1.3,3.9,2.8,5.8,4.2c0.2,0.1,0.1,0.6,0.3,0.7c2.6,2,2.3,4.4,1.6,7.2
	c-0.5,1.9-0.1,3.6-0.3,5.7C171.9,81.6,172.4,82.8,172.4,83.6z"/>
<path class="st44" d="M214.6,82.4c-0.2,0.9,0.5,2.4-0.7,2.6c-1,0.1-0.7-1.4-1-2.2c-1-2.8-4.3-4.5-6.6-2.7c-0.2,0.1-0.5,0-0.7,0
	c-0.4-4.3-0.7-8.5,0.6-12.7c1.4-4.5,5.4-7.7,10.2-8c2.6-0.2,5.1-0.2,7.7,0.3c3.6,0.6,6.7-0.6,9.9-2c1.8-0.8,3.5-1.6,5.5-1.3
	c4.6,0.6,7,4.5,5.4,9c-0.9,2.6-2.6,4.9-4.4,6.9c-0.6-1.8-1.7-1.9-3.5-1.5c-4.7,1.1-9.3,0.1-13.8-1.3c-1.4-0.4-2.7-0.9-4.2-1
	c-2-0.1-2.9,0.6-3.3,2.6c-0.7,3.1-0.2,6.3-0.5,9.4C214.9,81.1,214.7,81.7,214.6,82.4z"/>
<path class="st37" d="M125.2,122.5c-2,0.9-4,0.3-6-0.1c-2.6-0.5-5.1-1.3-7.4-2.5c1.1-2.1,0.8-4.2,0.1-6.5c-1.7-5.3-3-10.7-4-16.2
	c0-0.1-0.1-0.3-0.1-0.4c0.1-1.1-0.9-2.6,1-2.9c1.7-0.3,1.7,1.2,2.1,2.6c0.3-1.5-0.4-2.6-0.5-3.7c-0.1-1.1-1-2.5,0.8-3
	c1.8-0.5,2,0.9,2.3,2.2c0,0.2,0.1,0.3,0.4,0.5c-0.1-0.6,0-1.3-0.2-1.9c-0.4-1.2-0.1-2,1.1-2.3c1.2-0.3,1.8,0.4,2.1,1.5
	c0.4,1.3,0.5,2.7,1.3,4.2c-0.2-1.1-0.2-2-0.4-2.8c-0.2-0.7-0.3-1.3,0.5-1.6c0.7-0.3,1.4-0.2,2,0.5c0.2,0.2,0.3,0.4,0.4,0.7
	c1.4,4,2.8,8,3.5,12.2c-0.2,0.6-0.4,1.2-0.9,1.7c-1.4,1.6-2.2,3.4-2.5,5.9c0.3-2.6,1.3-4.4,2.7-6c0.4-0.5,0.6-1,0.7-1.6
	c1.4-1,1.6-2.8,2.5-4.1c0.7-1,1.4-2.3,2.9-1.6c1.5,0.6,1.3,1.9,1,3.2c-0.9,3.8-1.9,7.6-3.5,11.3c-0.9,2.1-1.2,4.1-0.9,6.3
	c-0.1,0.7-0.1,1.4-0.2,2.1C125.7,120.9,126,121.9,125.2,122.5z"/>
<path class="st45" d="M288.8,116.9c-4.8-1.2-9.5-2.4-14.3-3.6c-0.6-4.7-2.2-9.2-3-13.9c-0.1-0.5-0.2-0.9-0.2-1.4
	c-0.1-0.8,0-1.4,0.8-1.9c0.8-0.5,1.4-0.1,2,0.3c1.4,1.1,2.4,2.6,3.7,4.1c0.7-1,0.8-2.1,1-3.1c0.6-3,1.5-6,2.4-8.9
	c0.5-1.5,1.3-2.3,2.9-1.6c0.5,0.2,0.9,0.5,1.2-0.3c0.3-0.8,1.1-0.9,1.9-0.7c0.9,0.2,1.2,1,1,2c0.8-0.4,1.6-0.8,2.4-0.4
	c1,0.5,0.7,1.5,0.6,2.3c0,0.9,0.4,0.6,1,0.6c1.4-0.1,2.3,0.6,2,2.2C293.1,100.9,291.6,109,288.8,116.9z"/>
<path class="st46" d="M382.8,133.1c-0.6-0.9-0.5-1.8,0-2.7c0.2,0,0.5-0.1,0.5-0.2c0-2.5,0.4-2.9,2.6-1.8c4.2,2,7.7,4.8,9.8,9
	c0.6,2.3-1,4.7,0,6.4c-0.4-1.8-0.2-4.1,0.6-6.3c0.6-0.7,0.2-1.5,0.2-2.3c0-0.4-0.3-0.8-0.3-1.1c0-1.4-0.7-3.3,1.2-3.7
	c1.6-0.3,1.5,1.7,1.9,2.8c1.4,4.2,2.8,8.3,4.8,12.3c-1,4.3-3.6,7.3-7.4,9.5c-0.1,0-0.3,0-0.4-0.1c-3.8-3.4-7.3-7-10.9-10.7
	c-1.2-1.3-2.5-2.5-3.7-3.8c-0.5-0.5-0.9-0.9-1.4-1.4c-0.6-0.7-0.7-1.4-0.3-2.2c0.5-0.8,1.1,0,1.9,0.1c-0.2-1.2-2.3-1.5-1.4-3
	c0.4-0.6,1-0.8,1.7-0.5c1.9,0.8,3.5,2.1,4.9,3.2C386.3,135.3,384,134.9,382.8,133.1z"/>
<path class="st47" d="M328.5,37.9c-3.3,0-6.7-0.1-10,0.1c0.1-4.8,0.1-9.6,0-14.4c0-1.4,0.6-1.7,2.1-1.6c4.2,0.3,8.4,0.3,12.6,0
	c1.6-0.1,2.1,0.3,2,1.7c-0.1,4.2-0.2,8.3,0,12.5c0.1,1.5-0.5,1.8-1.7,1.8C331.9,37.9,330.2,37.8,328.5,37.9z"/>
<path class="st47" d="M540.7,43.4c-3.3,0-6.7-0.1-10,0.1c0.1-4.8,0.1-9.6,0-14.4c0-1.4,0.6-1.7,2.1-1.6c4.2,0.3,8.4,0.3,12.6,0
	c1.6-0.1,2.1,0.3,2,1.7c-0.1,4.2-0.2,8.3,0,12.5c0.1,1.5-0.5,1.8-1.7,1.8C544.1,43.4,542.4,43.3,540.7,43.4z"/>
<path class="st47" d="M390.4,96.4c-2.2,0-4.5-0.1-6.7,0.1c0.1-3.2,0.1-6.5,0-9.7c0-0.9,0.4-1.1,1.4-1.1c2.8,0.2,5.7,0.2,8.5,0
	c1.1-0.1,1.4,0.2,1.4,1.1c-0.1,2.8-0.1,5.6,0,8.4c0,1-0.3,1.2-1.2,1.2C392.7,96.4,391.5,96.3,390.4,96.4z"/>
<path class="st47" d="M273,173.3c-2.2,0-4.5-0.1-6.7,0.1c0.1-3.2,0.1-6.5,0-9.7c0-0.9,0.4-1.1,1.4-1.1c2.8,0.2,5.7,0.2,8.5,0
	c1.1-0.1,1.4,0.2,1.4,1.1c-0.1,2.8-0.1,5.6,0,8.4c0,1-0.3,1.2-1.2,1.2C275.3,173.3,274.2,173.3,273,173.3z"/>
<path class="st47" d="M34.4,108.8c-2.2,0-4.5-0.1-6.7,0.1c0.1-3.2,0.1-6.5,0-9.7c0-0.9,0.4-1.1,1.4-1.1c2.8,0.2,5.7,0.2,8.5,0
	c1.1-0.1,1.4,0.2,1.4,1.1c-0.1,2.8-0.1,5.6,0,8.4c0,1-0.3,1.2-1.2,1.2C36.7,108.8,35.5,108.8,34.4,108.8z"/>
<path class="st47" d="M491,120.1c-2.2,0-4.5-0.1-6.7,0.1c0.1-3.2,0.1-6.5,0-9.7c0-0.9,0.4-1.1,1.4-1.1c2.8,0.2,5.7,0.2,8.5,0
	c1.1-0.1,1.4,0.2,1.4,1.1c-0.1,2.8-0.1,5.6,0,8.4c0,1-0.3,1.2-1.2,1.2C493.2,120.1,492.1,120.1,491,120.1z"/>
<path class="st47" d="M109.2,55.6c-2.2,0-4.4-0.1-6.5,0.1c0-3.2,0.1-6.3,0-9.5c0-0.9,0.4-1.1,1.4-1c2.8,0.2,5.5,0.2,8.3,0
	c1-0.1,1.4,0.2,1.3,1.1c-0.1,2.7-0.1,5.5,0,8.2c0,1-0.3,1.2-1.1,1.2C111.4,55.6,110.3,55.6,109.2,55.6z"/>
<path class="st48" d="M214.6,80.7c-0.1-3.4-0.1-6.7,0.4-10.1c0.3-2.1,1.3-3,3.4-2.9c1.6,0,3.1,0.6,4.6,1c4.6,1.4,9.2,2.5,14,1.4
	c0.1,0,0.3,0,0.4-0.1c2.8-0.8,2.8-0.8,3,2.1c0,1.5-0.2,3.1,0.3,4.6c-0.5,0.7-1.3,0.6-1.9,0.8c-1.7,0.5-3.2,1.1-4.1,2.8
	c-1.1,2-3.2,1.9-4.3,0c-1.2-2-3-2.8-5.2-2.9c-2.2-0.1-3.8,0.9-4.9,2.7C218.7,82.5,216.8,82.7,214.6,80.7z"/>
<path class="st49" d="M85.9,120c-0.8-0.2-1.5-0.5-2.3-0.6c-1-0.2-1.9-0.3-1.1-1.8c0.6-1-0.7-0.7-1.1-0.8c-3.2-0.7-5.8-2.2-7.6-4.9
	c2.6,1.6,5.5,2.4,8.5,2.6c4.8,0.3,8.9-2.2,11-6.8c1.3-2.7,2-5.6,2.1-8.6c0-0.6-0.2-1.3,0.3-1.9c0.1,3.2,0.4,6.4,0.4,9.7
	c0,6.1,0.4,12.2,0.9,18.3c-3-1.7-5.9-3.5-9.2-4.6C87.3,120.3,86.6,120.2,85.9,120z"/>
<path class="st49" d="M290.7,153.7c0.8,1.2,0.7,2.6,1,3.9c2.6,10.7,12.8,13,20.3,7.9c-1.1,2.7-4.9,5-8.5,5c-1.3,0-2,0.4-1.9,1.7
	c0.2,2-1.7,1.9-2.6,2.7c-3,1.4-6.1,2.7-9.1,4.1c-0.4-7.1,0.4-14.1,0.4-21.2C290.4,156.4,289.9,155,290.7,153.7z"/>
<path class="st50" d="M214.6,80.7c0.4,0.1,0.9,0.3,1.3,0.4c1.7,0.5,3.1,0.9,4-1.5c0.8-2.1,2.9-2.9,5.2-2.8c2.4,0.1,4.4,0.8,5.6,3
	c0.5,0.9,0.8,1.4,2,1.4c1.2,0,1.3-0.7,1.7-1.4c1.4-2.5,3.8-3,6.4-3.1c3.7,0.9,5.6,3,5.6,6.2c0.1,3.5-1.6,5.8-4.8,6.7
	c-1.2,0.1-2.4,0.1-3.7-0.3c0.2,1.5,0.2,2.8-1.3,3.5c-1.6,0.8-4,0.8-5.2,0c0.8-0.9,1.9-0.5,2.8-0.5c2.7-0.3,3.4-1.7,2-4
	c-0.9-1.5-1.9-3-2.2-4.8c-0.2-0.9-0.8-1-1.6-1.1c-1.1,0-0.7,0.8-0.7,1.3c-0.5,4.8-5,7.9-9.2,6.1c-2.2-0.9-3.5-2.5-3.5-5
	c0-1.3-0.1-2.3-1.8-2.1c-0.8,0.1-1.7-0.2-2.5-0.3C214.1,81.9,214,81.3,214.6,80.7z"/>
<path class="st51" d="M204.8,191.1c1.4,3,3.1,6,3.3,9.4c0.1,1.3,0.1,2.7-1.8,3c-2.2-4-4.4-7.9-6.6-12c1.5-0.3,3-0.6,4.6-0.9
	C204.4,190.8,204.6,190.9,204.8,191.1z"/>
<path class="st52" d="M329.2,116.5c-0.8,4-2,8-3.8,11.9c-1.6-1.7-3.3-3.2-5.2-4.2c1.4-1.4,2.2-3.2,3.7-4.5
	C325.5,118.3,327.1,117,329.2,116.5z"/>
<path class="st53" d="M467.7,209.5c-1.5,1.5-2.5,3.3-3.7,5.1c-0.5,0.7-1.1,1.3-1.8,1.7c-0.6-0.8-0.2-1.7,0-2.5
	c1.3-4.8,1.8-9.8,2.2-14.8c0.1-1.5,0-3,1-4.3c0.2,0,0.4-0.1,0.6-0.1C466.5,199.5,467.1,204.5,467.7,209.5z"/>
<path class="st54" d="M231.3,109c-4.2,1.1-11.5-1.5-12.7-5.5c4.4,2.5,9.2,2.7,13.9,3.1c-0.4,0.7-0.7,1.4-1.1,2.1
	C231.3,108.8,231.2,108.9,231.3,109z"/>
<path class="st55" d="M522.5,112.2c4.7-0.2,5.2-0.4,12.1-4.6c-0.6,2-1.7,3.3-3.1,4.4c-2.4,1.9-5.2,2.5-8.1,2.7
	C523,113.9,522.7,113.1,522.5,112.2z"/>
<path class="st56" d="M163,111.4c-1.1-0.7-2.4-0.4-3.6-0.7c-3.3-0.7-5.8-2.3-7.7-5.8c4.1,2.7,8.2,3.8,12.6,3.7
	c-0.3,0.9-0.6,1.8-0.9,2.7C163.2,111.3,163.1,111.3,163,111.4z"/>
<path class="st57" d="M338.6,110.6c1-0.9,2.3-0.3,3.4-0.5c2.9-0.5,5.6-1.4,8.1-2.9c-2.2,2.9-5.1,4.8-8.7,5.4c-0.6,0.1-1.3,0-1.9,0.4
	C339.2,112.2,338.9,111.4,338.6,110.6z"/>
<path class="st58" d="M486.3,194.6c3.4-0.4,6.7-1.4,9.7-3.7c-1.3,4-4.2,5.9-8.7,5.8C486.9,196,486.6,195.3,486.3,194.6z"/>
<path class="st59" d="M426.4,114.2c3-0.2,5.2-0.8,7.8-2.2c-0.9,2.6-2.6,3.8-7,5C426.9,116,426.7,115.1,426.4,114.2z"/>
<path class="st60" d="M328.9,80.6c0.4-0.1,0.7-0.2,1.1-0.3c1-0.1,2.1-0.2,3.1,0.1c0.5,0.2,1,0.4,0.8,1.1c-0.2,0.6-0.7,0.5-1.1,0.3
	c-1.6-0.6-2.9,0.6-4.4,0.7C328.6,82,328.7,81.3,328.9,80.6z"/>
<path class="st61" d="M475.3,164.5c1.6-0.3,3.4-1.1,5,1.3c-1.8,0-3.2,0-4.5,0c-0.6,0-0.5-0.5-0.6-0.8
	C475.2,164.8,475.3,164.7,475.3,164.5z"/>
<path class="st62" d="M396.4,137.6c0.1,2.5-1,4.9-0.1,7.4c-1.6-2.4-0.9-5-0.5-7.5C396,137.5,396.2,137.6,396.4,137.6z"/>
<path class="st3" d="M215.4,179.3c4.1,0,8.2,0,12.3,0C223.6,179.8,219.5,179.8,215.4,179.3z"/>
<path class="st9" d="M385.6,144.3c4.1,3.2,7.7,6.9,11.2,10.7c-1.8,0.8-1.6,1.7-0.5,3.2c2.8,3.6,5.5,7.1,9.2,9.7
	c3.4,2.4,7.1,3.9,11.4,3c0.2-0.3,0.5-0.3,0.7,0c0.1,1.5,0.3,3,0.4,4.4c0,0.8,0.1,1.4,1,1.6c0.3,0.5,0.2,1,0.1,1.5
	c-1.2,4.4-1.8,8.9-2.7,13.4c-0.2,0.6-0.7,0.5-1.1,0.3c-1.6-0.7-1.5,0.4-1.3,1.4c0.2,1.4,1.2,2.7,1,4.2c-0.1,0.1-0.3,0.2-0.5,0.3
	c-3.9-1.5-7.1-4-10.2-6.7c-0.4-0.4-0.7-0.8-1.1-1.1c-1.3-1.1-1.7-1-2.1,0.6c-0.2,0.9-0.5,1.3-1.5,1c-1.1-0.3-1.1,0.4-0.8,1.1
	c0.3,0.9,0.5,1.4-0.7,1.7c-1.2,0.3-0.6,1.1-0.2,1.6c0.6,0.8,1.1,1.3,0.1,2.3c-0.8,0.8,0.3,1.5,0.8,2.1c3.6,3.8,7.4,7.4,11.8,10.2
	c1,0.6,1.9,1.3,2,2.6c-0.5,6.3-1.5,12.5-2,18.7c-0.3,3.6-0.6,7.1-1,10.6c-0.1,1.2-0.1,2.4-0.9,3.4c-4.3-0.1-8.5-1-12.7-1.4
	c-3.8-0.4-7.7-0.9-11.5-1.4c-1.1-0.1-2.2-0.3-3.3-0.4c-0.8-0.7-0.8-1.7-0.9-2.7c-0.7-7.4-1.2-14.8-1.9-22.2
	c-0.1-0.9-0.1-1.8,0.5-2.7c4-7.6,4.4-15.6,3-23.8c-0.2-1.1-0.2-2.2,0.1-3.3c1.6-6.8,3.7-13.4,4.7-20.3c0.6-4.6,0.4-9.2,0.1-13.8
	C386.4,150.8,386.3,147.5,385.6,144.3z"/>
<path class="st41" d="M378.8,215.5c0.7,8.7,1.4,17.4,2.1,26.1c0,0.5,0.2,1,0.3,1.5c-8.4-1.1-16.9-2.1-25.3-3.2c-1-1.6-0.2-3.3-0.1-5
	c0.4-6.5,0.8-13,0.6-19.5c0-1.3-0.3-2.5-0.6-3.7c-0.5-1.7-1.5-3.1-3.2-3.8c-0.7-0.3-1.5-0.6-2-1.3c-0.9-5.7-1.6-11.4-3.8-16.7
	c-1.4-3.4-3.3-6.5-5.9-9c-0.5-0.5-1.1-1-1.2-1.8c-0.2-2.9-0.6-5.9-1.2-8.9c7.1,0.8,14,0.8,21,0.3c3.3-0.2,6.6-0.4,9.8-1.1
	c0.4-0.1,0.7-0.5,1.1-0.1c0,5.5-1.1,10.9-1.3,16.4c-0.1,3-1.4,5.4-2.7,7.9c-2.1,4-3.5,8.2-3.5,12.8c0,0.8-0.2,1.9,0.9,2.1
	c0.9,0.2,1.5-0.6,2.1-1.3c0.9-1.1,0.7-2.6,1.5-3.8c0.5,0.4,0.2,1.2,0.7,1.5c-0.4,2.7-0.9,5.5-1.3,8.2c-0.5,2.9-0.2,3.2,2.6,2.6l0,0
	c0.2,1.7,0.8,2.1,2.2,1.2c0.4-0.2,0.7-0.5,1.1-0.8c0.2,0.5,0,1-0.1,1.5c1,1,1.7,0.1,2.4-0.5c0.7-0.5,0.7-1.5,1.6-1.9
	c0.3,0.2,0.2,0.5,0.1,0.7C377.7,217.4,378,215.6,378.8,215.5z"/>
<path class="st31" d="M472.5,254.1c0.9,0.2,1.8,0.4,2.7,0.7c4.6,1.6,9.2,1.9,14.1,0.8c6.7-1.5,13.7-2,20.5-2.9
	c0.9-0.1,1.1-0.4,1.3-1.3c0.4-3.2,1-6.4,1.5-9.5c0.1-0.8,0.1-1.7,1.5-1.5c4.9,0.6,9.9,0.6,14.7,1.5c0.8,0.2,1.7,0.4,2.5,0.5
	c0.4,0.6,0.5,1.2,0.3,1.9c-0.9,5.2-1.7,10.5-3.6,15.5c-0.4,1-0.8,2.1-1.9,2.6c-2.1,2.7-5.2,3.5-8.4,3.7c-9.4,0.5-18.9,0.9-28.3,0.8
	c-2.3,0-4.6,0.1-6.9,0.7c-2.2,0.6-4.5,0.7-6.7,0.4c-2.3-0.3-4.3,0.3-6.3,1.1c-1.8,0.7-3.6,1.3-5.5,1.4c-1.3-1.7-3.7-0.9-5-2.3
	c-0.1-0.1-0.3-0.1-0.4-0.1c-1.3-1.2-2.2-2.7-3.5-3.9c-0.6-0.5-0.1-1.5,0.4-2.2c1.5-2,3.3-3.6,5.7-4.3c2.4-1.4,4.9-2.7,7.6-3.5
	C470.1,253.4,471.3,253.2,472.5,254.1z"/>
<path class="st63" d="M317.3,235.2c4.2-0.9,7.5-3.5,10.9-5.7c2.5-1.6,5.1-0.9,7.6-0.8c0.4,0,0.9,0.4,1.1,0.8c1.4,2.7,3,5.4,3.6,8.5
	c0.6,3.1,0.7,3.1,3.7,3.4c-5.7,2.2-11.8,2.6-17.8,3.5c0.2,0.4,0.6,0.2,0.9,0.3c-5.7,0.7-11.2,2.3-16.9,3.1c-1.8,0.2-3.7,0.2-5.5-0.2
	c-1.4-0.3-2.8-0.3-4.3,0.3c-2.2,0.9-4.6,1.2-6.9,1.5c-1.1,0.1-2.1,0-2.7-1.4c-0.3-0.7-1.4-1.5-2.3-1.7c-1.6-0.5-1.4-1.5-0.9-2.6
	c0.7-1.4,1.7-2.5,2.9-3.4c4.9-3.8,10.2-5.7,16.6-4C310.7,237.6,314.2,236.6,317.3,235.2z"/>
<path class="st64" d="M408.7,246.3c0.3-3.2,0.5-6.4,0.9-9.6c0.7-6.6,1.5-13.2,2.2-19.8c0.2-1.4,0.3-2.7,0.5-4.1
	c2.7,0,4.3,1.9,5.8,3.6c3.8,4.4,7.7,8.8,11.4,13.4c1.1,1.3,2.2,2.7,3.3,4c0.5,0.6,1.1,1.1,1.1,2c-0.5,4-1.4,7.9-2.2,11.9
	c-0.1,0.5-0.3,1-0.8,1.3c-5.1-0.6-10.3-1.2-15.4-1.8C413.2,247,410.9,247,408.7,246.3z"/>
<path class="st65" d="M461.4,257.7c-2,1.1-3.7,2.5-5.1,4.2c-1.4,1.7-1,3.1,1.2,3.3c1,0.1,0.9,0.2,0.6,0.9c-0.2,0.4-0.3,1.1,0.1,1.2
	c1.2,0.4,2.3,1.7,3.2,1.6c1.7-0.2,2.1,0.8,2.8,1.7c-3.1-1.7-5.6,0.2-8.2,1.3c-3.2,1.3-6.2,0.3-9.3-0.3c-9.5-1.9-19-3.9-28.5-5.8
	c-0.6-0.1-1.1-0.3-2.1-0.6c3.8-1.4,7.2-2.7,10.6-3.8c5.4-1.8,10.6-4.2,16.3-5.3c2.9-0.6,5.6,0.4,8.4,0.7c2.2,0.2,4.4,0.8,6.5,1.4
	C459.1,258.5,460.1,257.3,461.4,257.7z"/>
<path class="st66" d="M211.1,241.5c0.3,0.7,0.9,1.2,1.3,1.7c0.4,0.5,1.2,0.8,0.3,1.5c-0.7,0.6-0.9,0.4-1.6-0.3
	c-2.6-2.7-5.2-5.5-8.4-7.5c-0.7-0.4-1.4-0.8-2.5-0.4c4.7,1.7,7.2,5.7,10.7,8.6c-2.6-0.1-4.6-1.3-6.4-3.1c-1.7-1.7-3.8-3-6.4-3.2
	c0,0.8,0.6,0.7,1,0.8c3.1,0.9,5.4,3,7.5,5.3c0.6,0.6,0.3,0.8-0.3,1.1c-1.6,0.8-2.8-0.2-4-0.9c-4-2.3-9.5-1.6-12.8,1.5
	c-0.1,0.1-0.2,0.3-0.3,0.5c-3.5,0.8-6.9-0.2-10.4-0.1c0.8-3.9,1.5-7.7,1.3-11.7c-0.1-1,0.5-1,1.2-1c2.5,0,5,0.3,7.4-0.8
	c2.1-1.1,4.2-2.2,6.7-2c2.2,0.2,4.4-0.5,6.7,0c6,1.2,9.6,5.3,12.2,10.4c-0.1,0.7-0.5,1-1.2,0.9c-0.8-0.4-1.1-1.2-1.7-1.7
	c-2.6-2.1-4.6-5.1-7.4-6.4C206.6,236.4,209.1,238.6,211.1,241.5z"/>
<path class="st7" d="M526.2,262.5c2.8-5,3.5-10.6,4.6-16.1c0.2-1.3,0.4-2.6,0.6-3.9c1.3,0.3,1.9,0.2,2-1.5c0.1-3,0.7-6,1-9
	c0.1,0,0.1,0,0.2,0c9,3,9.2,5.8,8.4,15.3c-0.4,4.3-0.9,8.6-1.3,12.9c-0.1,0.9-0.5,1.9-0.4,2.7c0.3,2.5-1.1,2-2.5,1.6
	C534.6,263.5,530.4,263.1,526.2,262.5z"/>
<path class="st22" d="M468.4,254.2c-7.9-1.2-15.8-2.1-23.8-2.8c-1.1-0.1-2.4,0.3-3.1-1.2c-1.2-2-1.3-4.2-1.1-6.4
	c0.5-0.7,0.9-0.2,1.3,0.1c0.8,0.8,1.7,1.4,2.6,2.2c2.9,2.7,6.3,3.1,9.9,1.8c4.1-1.5,7.4-4.3,10.6-7.1c0.7-0.6,1.3-1.9,2.6-1.1
	c0.9,1.3,0.6,2.8,0.8,4.2c0.3,2.7,0.5,5.4,0.8,8.1C469.1,252.8,469.2,253.6,468.4,254.2z"/>
<path class="st67" d="M350.7,206.6c4.6,1.1,6.1,3.1,6.3,8.6c0.3,8.2-0.2,16.5-1.1,24.7c-2-0.1-4-0.3-5.9-0.7
	c1.5-2.5,1.8-5.3,1.9-8.1C352,222.9,351.9,214.7,350.7,206.6z"/>
<path class="st65" d="M440.8,243.6c0.3,2.2,0.5,4.4,0.8,6.6c-0.1,0.5-0.3,0.9-0.9,0.8c-3.1-0.5-6.1-1-9.2-1.5
	c-0.2,0-0.4-0.3-0.6-0.5c0.9-4.5,1.8-9,2.7-13.5c0.1-0.1,0.3-0.1,0.4,0C436.3,238.1,438.7,240.7,440.8,243.6z"/>
<path class="st68" d="M468.4,254.2c0.1-3.6-0.5-7.1-0.9-10.6c-0.1-1.4,0-2.8-0.6-4.1c0.3-1.2,1.1-1.9,2.2-2.4c0.6,0.1,1-0.2,1.3-0.6
	c0-0.2,0.1-0.3,0.3-0.1c0.6,5.9,1.2,11.8,1.7,17.7c-1.2-0.3-2.4,0.1-3.6,0.1C468.8,254.2,468.6,254.2,468.4,254.2z"/>
<path class="st69" d="M290,222.1c0.7,0.6-0.3,2,1.1,2.3c0.4,3.1,0.9,6.1,1.3,9.2c-1.3,0-2.6,0.1-3.8,0c-3.2-0.4-3.2-0.5-4.6,2.4
	c0,0-0.1,0.1-0.1,0.1c-0.1,0-0.2-0.1-0.3-0.2c0.3-1.3,0.7-2.6,1-3.9c1.8-2.7,3.6-5.4,4.4-8.5C289.1,222.8,289.3,222.2,290,222.1z"/>
<path class="st70" d="M190.8,248.6c8.7,1,17.5,0.9,26.3,1.4c4,0.2,8-0.1,11.9-0.1c14.6,0,29.2,0,43.8,0c2.4,0,4.6-0.3,6.2-2.3
	c0.2-0.2,0.4-0.4,0.7-0.1c-1.2,1.9-3,2.9-5.3,2.9c-3.4,0-6.9-0.1-10.3-0.1c-10.6,0-21.3-0.1-31.9,0.2c-5.1,0.1-10.1,0.2-15.2,0.1
	c-1.3-0.3-2.7,0.1-4.1-0.3c-6.8,0-13.6-0.5-20.4-0.9C191.7,249.4,191.3,249,190.8,248.6z"/>
<path class="st71" d="M134,247.5c0.5,0,1-0.2,1.5,0.3c-3.7,1.1-7.4,2.1-11,3.2c-3.4,0.6-6.7,1.1-10.1,1.8c-1,0.2-1.3,0.2-1.4-1
	c-0.6-7.4-1.4-14.8-1.8-22.2c-0.3-5.1-1-10.1-0.5-15.2c0.1-1.4,0.4-2.7,1.3-3.8c0.8,0.2,0.6,0.8,0.4,1.3c-1.5,4.9-0.4,9.8-0.2,14.8
	c0.3,6.1,1,12.1,1.4,18.1c0.1,1.5,0.3,3,0.5,4.5c0.2,1.9,0.5,2.2,2.6,1.9c4.6-0.8,9.2-1.7,13.7-3.1
	C131.5,247.6,132.7,247.4,134,247.5z"/>
<path class="st7" d="M212.9,250.3c1.4-0.1,2.8-0.4,4.1,0.3C215.6,250.6,214.2,250.6,212.9,250.3z"/>
<path class="st11" d="M134,247.5c-6.2,2.1-12.6,3.5-19.1,4.6c-0.8,0.1-1.1-0.1-1.2-0.9c-0.2-1.8-0.7-3.5-0.7-5.3
	c-0.2-5.9-1-11.8-1.3-17.7c-0.2-3.9-0.7-7.9-0.8-11.8c-0.1-2.1,0.9-3.9,0.9-5.9c1.3-2.2,3.4-2.9,5.6-3.6c2.4-0.8,4.9-1,7.4-1.1
	c1.4-0.1,1.6-0.7,1.6-1.8c0-1.9,0.1-3.8,0.1-5.7c0.9,0,0.9,0.7,0.9,1.2c0.1,2,0.3,3.9-0.2,5.8c1.3-1.2,2.7-0.2,4,0
	c-1.9,8.3-2.6,16.6-2.8,25.1c-0.1,3,0,6.1,0.4,9.1C129.4,243,130.8,245.8,134,247.5z"/>
<path class="st72" d="M65.3,176.4c2.8-2.3,6.2-3.7,9.3-5.4c1-0.5,2.4-1.2,0.7-2.5l0,0c0.1-1.1,2.2-1.2,1.2-2.7
	c0.1,0,0.1-0.1,0.2-0.1c1.3,0,1.8-0.9,2-2c0.2-1-0.8-1.2-1.4-1.5c-0.4,0.2-0.5,0-0.5-0.3c0.8-2,0.5-2.5-1.6-2.5
	c-2.1,0-4.2,0.3-6.3,0.4c0.9-4.4,1.9-8.7,2.7-13.1c0.2-1.4,0.8-1.6,2-1.6c6.7,0,13.4,0,20.2,0c0.9,0,1.7-0.1,2.6-0.1
	c0.2-0.2,0.5-0.1,0.7,0c3.2,0.2,3.2,0.2,2.3,3.2c-0.6,2.1-1.2,4.3-1.9,6.4c0.2,0.4,0.1,0.8,0,1.1c-0.6,1.6-0.8,3.4-1.8,4.9
	c-0.6,0.4-1.1,0.2-1.7,0.1c-2.1-0.2-3.7,0.6-5,2.2c-0.3,0.3-0.4,0.7-0.4,1.1c0.2,2.2,0.3,4.4,0.6,6.6c0.2,1.6,1.4,2.8,2.6,3.9
	c0.5,0.5,1.3,0.8,1.4,1.6c-0.5,0.9-0.4,1.9-0.6,2.8c-8.2,0.4-16.5,0.3-24.7,0.2c-1,0-2.6,0.6-2.6-1.3C65,177.3,65,176.8,65.3,176.4z
	"/>
<path class="st73" d="M97.1,155.4c0.1-0.2,0.3-0.5,0.4-0.7c3.1-0.5,5.9-1.9,8.7-3.1c1.9,5.6,3.2,11.2,3.9,17.1
	c0.4,3.4-0.3,6.6-3.4,8.7c-1.4,1-2.9,1.6-4.6,1.5c-3.1-0.2-6.1-1-8.7-2.8c-1.3-1.5-3.2-2.4-4-4.3c-0.3-0.6-0.9-1.3-0.4-2
	c0.6-0.7,1.2,0,1.8,0.1c1,0.3,2,0.7,2.9,1.1c-1.2-0.5-2.3-0.9-3.5-1.3c-0.8-0.3-1.4-0.9-1.6-1.6c-0.2-0.6-0.5-1.3,0-1.9
	c0.5-0.6,1.1-0.2,1.7-0.1c1.7,0.3,3.3,1,5,1.6c-1.6-0.7-3.3-1.3-5-1.7c-1-0.2-2.2-0.8-1.7-2.2c0.4-1.2,1.4-1.3,2.6-0.9
	c1.7,0.6,3.6,0.9,5.3,1.6c-1.6-0.6-3.2-1-4.9-1.4c-0.6-0.1-1.2-0.4-1.1-1.2c0.1-0.6,0.5-0.8,1.1-0.9c3.5-0.6,6.8,0.1,9.5,2.5
	c0.9,0.8,1.7,1.7,2.6,2.6c-1.6-1.6-3.1-3.3-5-4.4C97.1,159.8,97.2,157.5,97.1,155.4z"/>
<path class="st74" d="M131.3,205.4c-1.5-0.1-3.5,0.8-4.2-0.2c-0.7-0.9-0.2-2.9-0.2-4.4c0-0.8,0.3-1.7-0.3-2.4c0-6.5,0.6-13,1.2-19.4
	c8.8,1.6,17.7,1.9,26.6,1.9c-2,0.9-4.1,1.7-6.1,2.8c-3.8,2.1-7.7,3.9-10.6,7.3c-2.4,2.9-3.4,6.5-4.7,9.9c-0.5,1.4-0.3,3.1-2.2,3.9
	C130,205,131.6,204.6,131.3,205.4z"/>
<path class="st75" d="M99.1,161.4c2.6,1.3,4.2,3.7,6.5,5.8c-1.8,0.1-2.4-1.1-3.1-1.9c-2.3-2.6-5.3-3.9-8.7-4c-0.2,0-0.4-0.1-0.6,0
	c-0.8,0.2-2.2-0.3-2.4,0.8c-0.1,1.1,1.3,0.9,2,1.2c1.6,0.7,3.5,0.6,4.9,2.1c-2.3-0.6-4.6-1.2-6.9-2c-1-0.3-1.8-0.1-2,0.8
	c-0.3,1,0.5,1.4,1.3,1.6c2.2,0.5,4.3,1.4,6.8,2.3c-1.7,0.5-2.7-0.5-3.8-0.7c-0.8-0.2-1.6-0.6-2.5-0.7c-0.6-0.1-1.5-1-1.9,0
	c-0.4,1,0,2.1,1,2.5c1.5,0.7,3,1.2,4.6,1.8c0.4,0.1,0.8,0.2,0.9,0.8c-1.8-0.1-3.3-1.2-5.1-1.5c-0.4-0.1-0.7-0.5-1.1-0.1
	c-0.4,0.4-0.1,0.8,0.2,1.3c0.9,1.4,2.1,2.5,3.4,3.6c0.4,0.3,1,0.6,0.7,1.3c0,0-0.2,0-0.2,0s-0.2,0-0.2,0c-1.6-0.9-2.8-2.2-3.8-3.7
	c-1.3-1.8-0.7-4.1-1.2-6.1c-0.1-0.5,0.1-1.2-0.1-1.9c-0.5-1.4,1.3-3.4,3.3-4c1.4-0.4,2.7-0.1,4.1-0.1
	C96.9,159.7,97.9,161,99.1,161.4z"/>
<path class="st76" d="M554.6,226.9c1.7-3.7,2.4-7.8,4-11.5c-0.9,4-1.8,7.9-3.5,11.6C554.9,227,554.8,227,554.6,226.9z"/>
<path class="st77" d="M557.8,227.5c1.9-3.4,3-7.2,4.2-10.9c-0.5,4-1.8,7.7-3.9,11.1C558.1,227.7,558,227.6,557.8,227.5z"/>
<path class="st76" d="M561.7,226c1.8-3,2.6-6.3,3.4-9.7c-0.3,3.6-0.8,7.2-3.3,10.1C561.8,226.3,561.8,226.1,561.7,226z"/>
<path class="st78" d="M553.3,215.2c-0.4-1.3,0.3-2.5,0.5-3.7c0.6,2,0.6,4-0.3,6C553.4,216.7,553.4,215.9,553.3,215.2z"/>
<path class="st4" d="M140.4,269.2c-0.5,0.1-0.5,0.4-0.5,0.9c0.1,4,0,7.9,0.1,11.9c0,1.5-0.5,1.5-1.7,1.2c-6.4-1.4-8.4-6.3-9.4-12
	c-0.1-0.8-0.2-1.6-0.5-2.3c-0.3-0.8,0.2-1.1,0.7-1.5C132.9,268,136.7,268.6,140.4,269.2z"/>
<path class="st79" d="M526.2,283.3c0.2,0,0.5,0,0.7,0c0.9,0.4,1.3,0.9,1.1,1.9c-0.8,6.2-3.3,11-9.7,13.6c-1.3,0.5-1.5,0-1.5-1.1
	c0-3.8-0.1-7.6-0.1-11.4C520,285.3,523.1,284.3,526.2,283.3z"/>
<path class="st66" d="M165.8,167c0-0.4-0.1-0.7-0.5-1c-3.4-3.2-3.8-5.7-1.6-9.7c0.9-1.9,2.3-2.5,4.3-1.7c2.2,0.8,3.1,2.7,4.1,4.6
	c0.3,0.6,0.3,1.7,1.4,1.7c1-0.1,1.4-0.9,1.7-1.7c0.2-0.7,0.6-1.2,1.4-1.2c0.6,0,1.2,0.2,1.7,0.3c1.5,0.3,2.1,1,1.7,2.6
	c-0.6,2.7,0.6,4.7,3.1,5.6c3.2,1.1,5.7,0.3,7-2.2c0.2-0.3,0.3-0.6,0.4-0.9c0.3-0.6,0.5-1.5,1.4-1.5c0.9,0,1.5,0.6,1.8,1.4
	c0.7,1.6,1.4,3.3,2,4.9c0.8,2.3-0.3,4.1-2.7,4.5c-1,0.2-2.1,0.4-3.6,0.4c1.9,0.3,3.3,0,4.7-0.5c0.7-0.2,1.3-0.6,1.6-1.3
	c1.1-2.4,1.7-2.6,4.2-1.5c-0.5,4.2-1.8,8.1-4.3,11.5c-2.5,3.3-5.7,5-9.9,4.7c-4.2,0.4-7.3-1.8-10.4-4c1.7,2.5,3.7,4.9,7.1,5.6
	c0.4,0.1,0.9,0.1,1.2,0.6c-1.6,2.7-4.4,4.6-5.1,7.9c-0.2,0.9-0.7,0.5-1.2,0.2c-1.7-0.9-2.9-2.5-4.3-3.8c-4.1-3.9-7.9-8-10.2-13.2
	c1.4-2.6,1.6-5.6,2.5-8.3C165.8,169.6,166.7,168.4,165.8,167z"/>
<path class="st7" d="M176.5,158.1c-0.8,0-0.8,0.6-0.8,1.1c0,1-0.7,1.5-1.5,1.9c-1.1,0.7-1.8,0.7-2.2-0.8c-0.4-1.4-1-2.7-2-3.9
	c-1.9-2.4-4.3-2.5-6.3-0.3c0-0.7-0.1-1.3-0.1-2c-0.1-1.4-0.2-2.9,0-4.3c0-2.4,0.3-4.9,1-7.2c1.5-5.1,5.6-8.1,11.6-8.7
	c1.6-0.2,3.3-0.2,4.9-0.3c4.9,0.6,9.8,1.5,14.3,3.6c2.2,1,4.5,1.9,6.7,3.6c0.2-2.4-0.1-4.6,0.9-6.6c0,1.1,0,2.3,0,3.4
	c0,1.9-0.3,3.8,0.8,5.6c1,1.6,0.5,3.6-0.9,4.7c-1.4,1-1.5,2.2-1.5,3.6c0,0.7,0.1,1.5-0.4,2.1c-0.8-0.8-0.5-1.9-0.5-2.8
	c-0.1-0.8-0.3-1.3-1.2-1.1c-4.2,0.9-7.9-0.8-11.7-2.1c-1.7-0.6-3.3-1.2-5.1-1.5c-1.8-0.3-3.1,0.2-3.9,1.9c-0.8,1.5-1.4,3.1-1.9,4.8
	c-0.5,1.7-0.5,3.2,1.1,4.4C177.9,158.3,177,157.9,176.5,158.1z"/>
<path class="st80" d="M177.7,157.2c-2-0.3-2.3-1.3-1.9-3.2c0.6-2.4,1.3-4.7,2.5-6.8c0.8-1.5,1.9-2.1,3.5-1.8
	c1.8,0.3,3.6,0.8,5.3,1.5c2.2,0.9,4.5,1.5,6.8,2.1c1.9,0.5,3.8,0.7,5.6,0c1.3-0.5,1.6,0,1.5,1.2c-0.1,1.1,0,2.2,0,3.4
	c0,1.6-0.1,3.3-0.1,4.9c-0.4,0.5-1,0.3-1.5,0.2c-2-0.2-3.6,0.2-4.9,1.8c-1.1,1.3-2.7,0.9-3.5-0.7c-0.6-1.2-1.3-2.3-2.5-3
	c-2.6-1.6-4.5-1.5-6.9,0.4C180.1,158.5,179.3,158.5,177.7,157.2z"/>
<path class="st81" d="M177.7,157.2c1.6,0.6,2.7,0.5,4.2-0.8c2.9-2.6,8-0.8,9.4,2.9c0.7,1.8,1.9,2.1,3,0.7c1.8-2.3,4.2-2.1,6.6-1.5
	c2.2,0.8,3.1,2.4,3,4.7c-0.1,3-1.1,5.2-4,6.4c-0.5,0-1.1,0.1-1.6,0c-1.3-0.3-2,0.1-2,1.5c0,0.9-0.6,1.5-1.4,1.8c-2,0.7-4,0.8-6,0.7
	c-0.4,0-0.9-0.1-0.9-0.6c0-0.6,0.6-0.4,0.9-0.5c1.2-0.1,2.5-0.2,3.7-0.4c2.4-0.3,3.3-1.8,2.5-4c-0.6-1.7-1.4-3.4-2-5.1
	c-0.2-0.6-0.6-0.8-1.2-0.9c-0.8-0.1-0.7,0.6-0.9,1c-1.3,4.5-5.1,5-8.9,3.4c-2.4-1-3.6-3.2-2.8-5.6c0.6-1.7,0-2.2-1.4-2.4
	c-0.5-0.1-1-0.3-1.5-0.4C176.8,157.7,177.6,157.9,177.7,157.2z"/>
<path class="st82" d="M156.2,206.4c-0.3,2-0.5,4.1-0.9,6.1c-1,5.4-1.9,10.9-3,16.3c-0.2,1.3,0.1,1.5,1.3,1.7
	c8.1,1.2,16.2,1.8,24.4,2.6c0.3,0,0.7,0,1,0.6c-11.1-0.4-22-1.7-32.8-3.6c1.3-0.7,2.6,0,3.9,0.1c1,0,1.4-0.2,1.5-1.2
	c1.1-6.6,2.3-13.2,3.5-19.8c0.2-0.9,0.4-1.8,0.6-2.7C155.8,206.3,156,206.4,156.2,206.4z"/>
<path class="st83" d="M195.4,231.5c-2.3,0.5-4.3,1.8-6.7,2c0.4-3.4,1.6-6.7,2.4-10c0-0.2,0.1-0.3,0.3-0.3c0.3,2.5,2.1,4.2,3,6.4
	C194.7,230.3,195.1,230.9,195.4,231.5z"/>
<path class="st84" d="M183.6,188c-4.8-0.3-7.4-3.4-9.3-7.5c3.3,3,7.2,4.6,11.4,5.3C185.2,186.7,184.6,187.5,183.6,188z"/>
<path class="st85" d="M191.4,223.3c-0.1,0.1-0.2,0.2-0.3,0.3c-0.3-0.2-0.4-0.5-0.2-0.9c2.1-6.4,3.7-12.9,4.7-19.6
	c0.1-0.4,0.2-0.7,0.8-1.2C195.6,209.5,193.7,216.4,191.4,223.3z"/>
<path class="st86" d="M249.4,127.8c-0.7,6.5-1.5,13-2.2,19.5c-0.2,0-0.4,0-0.5-0.1c0.2-6.5,1.4-13,2.1-19.5
	C249,127.8,249.2,127.8,249.4,127.8z"/>
<path class="st87" d="M213.1,242.9c0.4-0.3,0.8-0.6,1.2-0.9c2.7-0.1,5.4-0.3,8.2-0.4c0,0.6,0.3,1.5-0.8,1.4
	C218.8,242.8,215.9,243.5,213.1,242.9z"/>
<path class="st88" d="M65.3,176.4c0,0.4,0,0.9,0,1.3c-1.7,1.8-4,0.8-6,1c0-0.3,0-0.5,0-0.8C61.2,176.9,63,175.9,65.3,176.4z"/>
<path class="st89" d="M551.4,136.6c0.5,6.6,0.3,13.2,0.6,19.8C550.8,149.8,551.1,143.2,551.4,136.6z"/>
<path class="st64" d="M416.1,192.4c0.5-5.2,1.4-10.3,3-15.3c1.9-0.3,3.7,0.4,5.6,0.6c8.7,0.9,17.3,1,26,0.4c2.4-0.2,2.4-0.1,2,2.2
	c-0.4,2.8-0.7,5.6-1.3,8.4c-0.6,2.4,1.4,2.9,2.5,4.1c0.4,0.9-0.2,1.7-0.5,2.4c-1.5,3.1-3,6.1-4.8,9.1c-0.5,0.9-1,1.9-1.2,2.9
	c-0.1,0.6-0.4,1.3,0.2,1.6c0.7,0.4,1.2-0.2,1.7-0.7c0.6-0.7,1.1-1.5,1.7-2.2c0.3-0.5,0.6-1.2,1.4-0.9c0.8,0.2,0.5,1,0.5,1.5
	c-0.2,3.3-0.9,6.5-1.5,9.8c-0.1,0.8-0.5,1.9,1,1.6c0.2,0,0.4,0,0.5,0.1c0.5,0.9,0.9,1.3,2.2,1.1c1.2-0.2,3-1,3.9,0.9
	c-0.6,1.7-2,2.7-2.9,4.1c-0.3,0.5-0.8,0.9-0.4,1.6c-0.6,1.8-2,3.2-3.1,4.8c-0.8,1.2-1.8,1.3-3,0.3c-3.3-2.8-6.6-5.6-9.8-8.6
	c-0.7-0.6-1.4-1.2-2.1-1.8c-0.8-0.7-1.7-1.3-1.8-2.5c-0.2-4.4-1-8.8-2-13.1c-0.1-0.2-0.4,0.1-0.2,0c0.1-0.1,0.1,0,0.2,0.1
	c0.9,4,1.8,8,1.7,12.2c-0.8,0.8-1.3,0-1.8-0.4c-3.2-2.8-6.2-5.7-9.4-8.5c-0.8-0.7-1.3-1.6-1.7-2.6c-1.3-4.2-3.3-8-6.3-11.3
	C416.3,193.7,415.7,193.2,416.1,192.4z"/>
<path class="st90" d="M459.1,220c-0.2-0.4-0.6-0.9-0.9-0.7c-1.2,0.9-2.6-0.6-4,0.5c-0.8,0.7-1.8-0.3-1.3-1.7
	c0.9-2.4,1.8-4.8,2.2-6.9c0.1-0.7-0.4-0.4-0.1-0.4c0.1,0,0.2,0,0.2,0.1c-0.7,2.5-0.8,5.1-2.7,7.2c-0.5,0.3-0.8,1.1-1.5,0.6
	c-0.6-0.5-0.3-1.2-0.2-1.9c0.6-3.9,1.4-7.7,1.8-12.1c-1,1.4-1.7,2.4-2.5,3.4c-0.7,0.9-1.5,2.1-2.7,1.5c-1.2-0.6-0.7-2-0.3-3
	c1-3.1,3.1-5.6,4.4-8.6c0.8-1.8,1.7-3.6,2.5-5.4c3.9,0.3,7.6,1.4,11.4,2c-0.6,7.3-1,14.5-3.2,21.6
	C461.2,217.5,460.6,219.1,459.1,220z"/>
<path class="st91" d="M417.7,170.9c-0.2,0-0.5,0-0.7,0c1.1-5.4,0.4-10.7-1-16c-1.7-6.2-1.1-12.4-0.1-18.6c0.1-0.4,0.3-0.7,0.7-1.5
	c-0.1,3.1-0.7,5.6-0.9,8.1c-0.5,6,1.2,11.7,2.2,17.6C418.4,164,418.7,167.5,417.7,170.9z"/>
<path class="st92" d="M453.4,171.5c-0.1-9.9-1.5-19.6-2.5-29.4C452.8,151.8,454.2,161.6,453.4,171.5z"/>
<path class="st93" d="M330,200.1c1.1,1.3,0.9,2.9,1.1,4.3c0.9,6.9,1.6,13.7,1.9,20.7c0.1,1.2,0.3,1.7,1.6,1.3c1-0.3,2.1-0.3,3.6-0.5
	c-1.8,1.5-3.7,0.9-5.3,1.5c-0.6,0.2-0.5-0.5-0.6-1c-0.4-4.7-0.7-9.3-1.1-14c-0.3-2.9-0.7-5.8-1-8.6
	C330.1,202.5,330.1,201.3,330,200.1z"/>
<path class="st94" d="M125.2,122.5c0.2-0.8,0.1-1.7,0.8-2.4c0.2,6-0.3,12-0.6,18c-0.2,3.2,0.2,6.4-0.7,9.6
	C124.3,139.3,125.1,130.9,125.2,122.5z"/>
<path class="st95" d="M133.6,138.8c-1,5.1-1.7,10.3-4.2,15C131.1,148.8,131.7,143.6,133.6,138.8z"/>
<path class="st96" d="M165.8,167c1.3,0.9,1.1,2.2-0.4,3.9C165.5,169.6,165.7,168.3,165.8,167z"/>
<path class="st66" d="M163.7,149.9c0,1.4,0,2.9,0,4.3C163.3,152.8,163.3,151.3,163.7,149.9z"/>
<path class="st31" d="M436.3,218.1c4.5,4.5,9.5,8.6,14.3,12.8c0.7,0.6,1,0.4,1.5-0.3c1.3-1.6,2.1-3.5,3.7-4.8
	c3.2,2.9,6.4,5.7,9.6,8.6c1.2,1,2.5,1.9,3.7,2.9c-0.4,1.1-1.4,1.6-2.2,2.4c-2.9,2.7-5.8,5.3-9.2,7.3c-6.3,3.7-11.5,2.9-16.3-2.6
	c-0.2-0.2-0.5-0.5-0.7-0.7c-2.8-2.3-5-5.2-7.2-8c-5.4-6.3-10.7-12.7-16.1-19c-1.4-1.7-3.2-2.9-5.3-3.7c-4.9-3.6-9.8-7.1-13.9-11.7
	c-0.4-0.4-0.9-0.9-1.1-1.4c-0.5-1-0.5-1.9,1-2c-0.5-1.1-2.1-1.7-1.5-3.2c0.4-1,1.3-0.5,2.1-0.3c-0.2-1-1.6-1.8-0.7-2.9
	c0.8-1,1.5,0.2,2.3,0.3c0.3-0.9-0.4-2.1,0.8-2.6c1.2-0.5,1.9,0.5,2.7,1.3c2.6,2.5,5.4,4.8,8.7,6.4c0.6,0.3,1.2,0.8,1.8,1.3
	c0.7,1.7,0.4,3.5,0.5,5.2c0,1,0,1.9,0.2,2.9c-0.2-2.7-0.3-5.4-0.2-8.1c-0.5-1.3-0.9-2.6-1.4-3.9c-0.3-0.9-0.8-2,0.2-2.7
	c1.1-0.8,1.5,0.6,2.2,1c0.1,0.9,0.8,1.3,1.3,1.9c2.6,3,4.5,6.4,5.7,10.2c0.6,1.9,1.6,3.2,3.1,4.4c3.2,2.8,6.3,5.7,9.5,8.6
	C436,217.5,436.2,217.7,436.3,218.1z"/>
<path class="st65" d="M508.5,185.6c0.5,3,0.4,6,0.5,9.1c0.6,1.1,0.3,2.5,1.2,3.5c0,0-0.1,0.1-0.1,0.1c-0.1,0.1-0.2,0.1-0.3,0
	c-1.4-0.1-2.9-0.6-4.3,0c-0.7-3.5-0.2-7-0.3-10.4C506.4,187.4,507.5,186.5,508.5,185.6z"/>
<path class="st97" d="M509.7,198.3c-1.3-1-0.9-2.4-0.8-3.7c-1.7-7.3,4.1,0.2,7.9,5.6C514.4,199.4,512.1,199.2,509.7,198.3z"/>
<path class="st98" d="M470.8,236.4c-0.1,0-0.2,0.1-0.3,0.1c-0.8-4.5-0.3-9,0.6-13.5c0.4-2.3,1.1-4.6,1.6-6.9c0.2,0,0.3,0.1,0.5,0.1
	c-0.5,2.3-0.9,4.5-1.5,6.8C470.6,227.5,471,231.9,470.8,236.4z"/>
<path class="st99" d="M511.4,239.7c0.4-5.3,0.9-10.6,1.3-15.9c0.2,0,0.4,0,0.6,0c-0.4,5.3-0.8,10.6-1.2,15.9
	C511.9,239.8,511.7,239.8,511.4,239.7z"/>
<path class="st100" d="M370.5,169.3c-0.4,0-0.8,0-1.1,0.1c0.8-2.1,0.9-4.3,1.2-6.4C371.4,165.1,370.4,167.2,370.5,169.3z"/>
<path class="st101" d="M258.6,230.5c-1.8,0-3.1-1.4-3-3.2c0.1-1.8,1.7-3.4,3.5-3.4c1.7,0,3.1,1.3,3.2,3.1
	C262.2,228.8,260.4,230.5,258.6,230.5z"/>
<path class="st102" d="M290,222.1c-1,2.7-1.9,5.4-3.5,7.7c-0.5,0.8-1.1,1.6-2,2.1c1.6-5.4,3.2-10.9,4.9-16.8
	C289.6,217.8,289.8,220,290,222.1z"/>
<path class="st103" d="M211.1,241.5c-2.5-2.8-5.1-5.5-8.4-7.4c3.8,1.2,6.3,4.1,8.7,7C211.3,241.3,211.2,241.4,211.1,241.5z"/>
<path class="st104" d="M57.1,140.6c-1.2,5.4-1.7,11-3.8,16.3C54.6,151.4,55,145.8,57.1,140.6z"/>
<path class="st105" d="M97.1,145c-0.2,0-0.5,0-0.7,0c-0.6-2.3-1.6-4.5-1.6-6.9C95.8,140.3,96.7,142.6,97.1,145z"/>
<path class="st106" d="M49.9,165.4c-2,0.3-4.1,0.7-6.1,1c1.8-1.4,4-0.8,5.9-1.4C49.8,165.1,49.9,165.3,49.9,165.4z"/>
<path class="st107" d="M372.5,217.7c0-0.5,0.1-1,0.1-1.5c1.7-2.4,2.4-5.2,3.1-8c0.2-1,0.5-2,0.9-2.9
	C376.1,209.7,375,213.9,372.5,217.7z"/>
<path class="st108" d="M369.3,215.7c1.5-3.7,2.5-7.5,3.8-11.3C372.2,208.3,371.9,212.4,369.3,215.7
	C369.3,215.7,369.3,215.7,369.3,215.7z"/>
<path class="st103" d="M376.5,216.1c0-0.2-0.1-0.5-0.1-0.7c1.8-3,2.6-6.3,3.4-9.5C379.5,209.4,378.7,213,376.5,216.1z"/>
<path class="st109" d="M382.8,133.1c1.9,1.5,4.3,2.6,5.7,4.8c-2-1.6-4.1-2.9-6.1-4.4C382.6,133.4,382.7,133.3,382.8,133.1z"/>
<path class="st110" d="M368.1,205c-1.4,0.1-0.5-1.1-0.7-1.5c0.7-1,0.1-2.5,1.4-3.7C369,201.7,367.9,203.3,368.1,205z"/>
<path class="st111" d="M372.3,164.1c1-1,2.3-1.1,4.1-1.2C374.8,164,373.5,164,372.3,164.1z"/>
<path class="st112" d="M220.3,220.2c-0.2-8.3,1.8-16.3,3.5-24.3C222.8,204.1,221.1,212.1,220.3,220.2z"/>
<path class="st113" d="M489.9,183.4c-1.8,5-5.6,5.7-11,1.9C483.2,186.4,486.3,184.1,489.9,183.4z"/>
<path class="st114" d="M482.4,171.5c-1.2,2.1-2.1,3.9-3.2,5.6c-0.9,1.5-0.5,2.3,1.1,2.7c0.9,0.2,1.7,0.6,2.5,1.1
	c-1.7,0.4-3.2,0.1-4.7-0.7c-0.8-0.4-1.1-1.3-0.7-2c1.2-2.2,2.6-4.3,3.9-6.4C481.3,171.7,481.7,171.7,482.4,171.5z"/>
<path class="st115" d="M477.7,171.6c-0.1,0.6-0.2,1.4-0.9,1.4c-0.6,0-0.8-0.7-0.7-1.3c0-0.6,0.2-1.3,0.8-1.4
	C477.6,170.3,477.7,171,477.7,171.6z"/>
<path class="st116" d="M491.9,170.4c-1.1-2.2-2.7-2.8-4.5-3c-0.4,0-1,0.1-1-0.6c0-0.6,0.6-0.6,1-0.7
	C490,165.8,491.5,167,491.9,170.4z"/>
<path class="st117" d="M486.8,172.8c0-0.6-0.1-1.5,0.8-1.5c0.6,0,0.7,0.7,0.7,1.2c-0.1,0.7-0.1,1.7-0.9,1.7
	C486.7,174.3,486.8,173.4,486.8,172.8z"/>
<path class="st118" d="M307.5,158.6c-2.9,3.3-6.3,3.7-9.5,1.1c0-0.3,0.1-0.6,0.1-0.9c2.8,0.5,5.6,0.4,8.2-1
	C306.9,157.7,307.2,158.1,307.5,158.6z"/>
<path class="st119" d="M299.5,146.1c-0.1,1.8-0.6,3.6-1.1,5.3c-0.5,1.8-0.2,2.9,1.8,3.2c0.4,0.1,0.8,0.3,1.5,0.6
	c-1.7,0.5-3.1,0.5-4.3-0.5c-1.2-1-0.6-2.1-0.3-3.3c0.6-1.8,1.2-3.7,1.7-5.5C299.1,146,299.3,146.1,299.5,146.1z"/>
<path class="st120" d="M309.5,142.8c-1.6-1.3-3.2-2.2-5.2-2c-0.4,0-0.8-0.1-0.8-0.6c0-0.3,0.1-0.5,0.3-0.6
	C305.8,138.5,309,140.2,309.5,142.8z"/>
<path class="st121" d="M295.9,139.6c-0.1,0,0.3,0,0.7,0.1c0.4,0.1,0.6,0.5,0.6,0.9c0,0.5-0.4,0.5-0.9,0.5c-1.2-0.1-2.4,0-3.4,0.6
	c-0.2,0.1-0.5,0.3-0.7,0c-0.2-0.3-0.1-0.7,0.1-0.9C293.1,139.7,294.2,139.5,295.9,139.6z"/>
<path class="st122" d="M294.3,146.4c0-0.5-0.1-1.2,0.5-1.2c0.7,0,0.7,0.8,0.7,1.5c0,0.5,0,1.2-0.5,1.2
	C294.3,147.8,294.3,147,294.3,146.4z"/>
<path class="st123" d="M304.6,146.6c0-0.6-0.1-1.4,0.6-1.3c0.9,0.1,1,1,1,1.7c0,0.6,0.2,1.4-0.7,1.3
	C304.7,148.1,304.7,147.2,304.6,146.6z"/>
<path class="st67" d="M522.3,105c-1,0-1.8-0.5-2.6-0.8c-0.8-0.4-1.6-0.9-1.4-1.7c0.2-1,1.2-0.3,1.9-0.4c1.7-0.1,3.2-0.7,4.7-1.4
	c0.7-0.3,1.6-1,2.2-0.3c0.6,0.7-0.3,1.4-0.6,2.1C525.6,104.2,524.1,104.9,522.3,105z"/>
<path class="st124" d="M518,88.4c0.1,1.7-0.5,3.3-1,4.9c-0.7,1.8-0.3,2.9,1.7,3.2c0.3,0.1,0.8,0,1,0.7c-1.1,0.6-2.2,0.4-3.3,0
	c-0.8-0.3-1.6-1-1.3-2c0.7-2.4,1.6-4.7,2.4-7C517.7,88.4,517.9,88.4,518,88.4z"/>
<path class="st125" d="M528,84.4c-1.3-1.1-2.5-1.7-4-1.6c-0.5,0-1.1,0.1-1.1-0.7c0-0.7,0.5-0.8,1.1-0.9
	C526.3,80.9,527.9,82.1,528,84.4z"/>
<path class="st125" d="M512.2,84.4c1.4-1.1,2.8-1.7,4.5-1.6c0.6,0,1.2,0.1,1.2-0.7c0-0.7-0.5-0.8-1.2-0.9
	C514.1,80.9,512.3,82.1,512.2,84.4z"/>
<path class="st126" d="M515,87.9c-0.1,0.6,0,1.4-0.8,1.5c-0.8,0-0.8-0.8-0.8-1.4c0-0.6,0.1-1.5,0.8-1.5C515,86.4,515,87.2,515,87.9z
	"/>
<path class="st127" d="M522.9,88.4c0.2-0.7,0.1-1.7,0.9-1.7c0.8-0.1,0.9,0.7,0.9,1.5c0,0.7,0,1.7-0.9,1.7
	C523,89.9,523.2,88.9,522.9,88.4z"/>
<path class="st128" d="M543.2,96.3c-0.4,0.5-0.9,0.9-0.9,1.6c-0.5,0-1-0.2-1.4-0.6C541.7,97,542.3,96.3,543.2,96.3z"/>
<path class="st129" d="M80,104.7c3.1,1.4,6,1.8,9.2,1.4C86.4,108.4,81.4,107.8,80,104.7z"/>
<path class="st130" d="M87.1,102.5c3.4-1.8,2.2-4,1-6.3c-0.4-0.8-0.9-1.6-0.5-2.6c1.3,2.1,2.9,4.2,2.9,6.7
	C90.4,101.7,88.9,102.5,87.1,102.5z"/>
<path class="st131" d="M77.5,90c0.3-2.4,2.8-3.9,4.7-2.9c0.4,0.2,0.7,0.4,0.6,0.9c-0.1,0.4-0.3,0.3-0.6,0.4c-0.8,0-1.7-0.1-2.5,0.4
	C79,89.1,78.3,89.5,77.5,90z"/>
<path class="st132" d="M82.2,94.1c-0.1,0.6,0,1.4-0.8,1.4c-1.1,0-1-1-1.1-1.8c-0.1-0.5,0-1.3,0.8-1.3C82.1,92.4,82,93.3,82.2,94.1z"
	/>
<path class="st132" d="M92.2,94c0,0.6,0,1.3-0.6,1.3c-0.9,0-0.8-1-0.9-1.7c-0.1-0.5,0-1.3,0.6-1.3C92.1,92.4,92.1,93.3,92.2,94z"/>
<path class="st133" d="M432.8,88c0.1,0.6,0.2,1.2,0.4,2.1c-1.4-1-2.4-2-3.7-2.6c-0.7-0.3-0.2-0.7,0.2-0.9
	C431,86.6,432,87.1,432.8,88z"/>
<path class="st134" d="M344.4,98.6c-2,3.8-6.6,5.2-10.8,3.2c-0.1-0.5-1-0.4-0.8-1.2c4.2,0.8,7.9-0.5,11.5-2.4
	C344.4,98.4,344.4,98.5,344.4,98.6z"/>
<path class="st135" d="M336,97c-0.9,0.2-1.8,0.3-2.7,0c-1.3-0.3-2.4-1.1-2-2.7c0.6-2.3,1.8-4.4,2.9-6.4c0.1-0.1,0.3-0.1,0.7-0.2
	c-0.1,1.7-0.9,2.9-1.5,4.2c-1.3,3-1.2,3.2,1.8,4.4C335.5,96.5,335.9,96.6,336,97z"/>
<path class="st136" d="M344.4,98.3c-2,1.6-4.2,2.6-6.8,3c-1.7,0.3-3.2,0.1-4.7-0.7c0.3-0.6,0.8-0.4,1.2-0.4c3.4,0.2,6.5-0.6,9.5-2.2
	C343.9,97.9,344.1,97.9,344.4,98.3z"/>
<path class="st137" d="M345.3,83.7c-1.4-1-2.9-1.5-4.5-1.4c-0.3,0-0.7-0.2-0.8-0.5c0-0.2,0.1-0.6,0.2-0.7c1.1-0.5,2.3-0.5,3.4,0.1
	C344.7,81.6,345.6,82.1,345.3,83.7z"/>
<path class="st138" d="M331.6,87.1c0,1-0.2,1.9-1,2c-0.8,0.1-0.9-0.8-0.9-1.6c0-0.9,0.1-1.8,1-1.9C331.5,85.6,331.5,86.5,331.6,87.1
	z"/>
<path class="st139" d="M340.4,87.8c0.1-0.7,0.1-1.7,0.9-1.7c1,0,1,1,1,1.8c0,0.7,0,1.6-1,1.6C340.5,89.4,340.5,88.4,340.4,87.8z"/>
<path class="st140" d="M166.3,100.2c-2.7,2.7-6.8,2.9-9.6,0.7c-0.2-0.2-0.4-0.3-0.6-0.5c-0.4-0.4-0.5-0.8-0.3-1.3
	c0.4-0.7,0.8-0.1,1.1,0.1c2.1,1,4.2,1.7,6.6,1.5C164.6,100.6,165.4,100.5,166.3,100.2z"/>
<path class="st141" d="M164,96.9c0.2-0.2,0.2-0.3,0.2-0.3c4.8-2.3,3.1-2.8,1.4-6c-0.5-1-1.2-1.9-1.9-2.8c-0.2-0.3-0.5-0.6-0.1-0.8
	c0.3-0.2,0.6-0.1,0.8,0.2c1.4,2.1,3.1,4,3.9,6.4C169.1,95.8,167.3,97.2,164,96.9z"/>
<path class="st142" d="M159.8,82.4c0.1,0.9-0.4,1.2-1.1,1.1c-1.2,0-2.4,0.1-3.5,0.7c-0.5,0.3-1.2,0.2-0.9-0.6c0.3-0.9,1-1.5,2.1-1.6
	c1.1-0.2,2.2-0.7,3.2,0C159.8,82,159.8,82.3,159.8,82.4z"/>
<path class="st143" d="M169,87.5c-0.1,0.6-0.2,1.2-0.8,1.1c-0.8-0.1-0.8-1-0.8-1.7c0-0.5,0.1-1,0.7-0.9
	C168.9,86.1,168.9,86.9,169,87.5z"/>
<path class="st144" d="M159.4,88.1c-0.1,0.8-0.2,1.5-0.8,1.4c-0.9-0.1-1.1-1-1.1-1.8c0-0.5,0.1-1.2,0.8-1.2
	C159.3,86.6,159,87.7,159.4,88.1z"/>
<path class="st145" d="M420.9,105.3c3.4,0.9,6.3-0.2,8.8-2.4c0.2,1.7-0.7,3.3-2.3,4.1C425.5,108,422.8,107.4,420.9,105.3z"/>
<path class="st146" d="M424.5,101c-1.1,0-1.8,0.1-2.6,0c-2.6-0.3-3.3-1.8-2.1-4c0.9-1.7,2-3.4,2.7-5.3c0.1-0.4,0.4-0.8,0.8-0.6
	c0.5,0.2,0.2,0.6,0,1c-0.7,1.5-1.5,3.1-2.2,4.6c-1,1.9-0.8,2.3,1.2,3.2C423,100.2,423.8,100.1,424.5,101z"/>
<path class="st147" d="M420.1,91.9c-0.1,0.6-0.1,1.5-0.8,1.5c-0.6,0-0.7-0.8-0.7-1.4c0-0.6,0.1-1.4,0.7-1.5
	C419.9,90.5,420,91.2,420.1,91.9z"/>
<path class="st148" d="M417,86.4c-0.3-1.2,0.3-1.8,1.2-1.9c1.1-0.2,2.2-0.6,3.1,0.4c0.2,0.2,0.3,0.6,0.2,0.9
	c-0.1,0.3-0.5,0.4-0.8,0.3C419.5,85.5,418.3,86,417,86.4z"/>
<path class="st149" d="M428,92.8c0.1-0.5-0.1-1.3,0.8-1.3c1.1,0.1,0.8,1,0.8,1.6c0,0.5,0.1,1.3-0.7,1.3
	C427.9,94.3,428.1,93.4,428,92.8z"/>
<path class="st150" d="M235.1,97.6c-1.5,2-3.2,2.4-5.9,1.5c-1.2-0.4-2.3-0.9-3.2-1.9c-0.6-0.6-1.8-1.5-1.1-2.2
	c0.7-0.8,1.3,0.6,1.9,1.1C229.5,98.1,230.8,98.4,235.1,97.6z"/>
<path class="st151" d="M76.8,161.9c0.2,0.1,0.3,0.2,0.5,0.3c0,0.1-0.1,0.2-0.1,0.2c-2.9,0.6-5.7,1.1-8.6,1.6
	C71.2,162.5,74.1,162.4,76.8,161.9z"/>
<path class="st152" d="M76.7,165.7c-0.1,0-0.2,0-0.2,0.1c-2.5,0.4-4.9,1.5-7.5,1.5C71.6,166.7,73.9,165,76.7,165.7z"/>
<path class="st153" d="M75.3,168.5c-1.6,1.6-3.9,1.4-5.8,2.4C71.2,169.5,73.3,169.1,75.3,168.5C75.3,168.5,75.3,168.5,75.3,168.5z"
	/>
<path class="st154" d="M117.9,94.3c0.4,1.6,1,2.8,1.1,4.1c0.2,1.7,1.5,1.8,3.2,2.5c-3.6,0.9-6.5,1.7-9,4c-0.4-1.5-0.7-2.9-1.1-4.6
	c1,0.9,0.7,2.2,1.4,2.8c1.5-0.8,2.9-1.7,4.5-2.4c1-0.4,1-0.9,0.7-1.8C118.3,97.6,117.6,96.2,117.9,94.3z"/>
<path class="st155" d="M124.1,103c0.1,0.4,0.5,0.7,0.2,1.1c-1.7,2.1-2.9,4.3-3.5,6.9C120,107.6,122.1,105.3,124.1,103
	C124.1,103,124.1,103,124.1,103z"/>
<path class="st156" d="M288.7,100.2c0.2,0.3,0.7,0.6,0.4,1c-0.4,0.5-0.7,0-1-0.2c-1.5-1.1-3.1-1.8-4.9-1.9c-1.4-0.1-0.9-1.1-0.8-1.8
	c0.5-2.7,1.1-5.5,1.9-8.2c0,2.6-0.6,5.2-1.3,7.7c-0.5,1.8,0.8,1.3,1.6,1.6c1,0.4,1.3,0.1,1.5-1c0.5-2.8,1.1-5.5,1.8-8.3
	c0.2,2.5-0.5,4.8-1.1,7.2C286.1,98.6,286.7,99.7,288.7,100.2L288.7,100.2z"/>
<path class="st157" d="M278.5,101.3c3.1,1.2,4.5,3.7,5,6.8C282.5,105.3,280.3,103.4,278.5,101.3z"/>
<path class="st156" d="M288.8,100.3c0.9-2.7,0.8-5.6,2-8.2c-0.5,2.6-0.9,5.2-1.4,7.8C289.4,100.1,289,100.1,288.8,100.3
	C288.7,100.2,288.8,100.3,288.8,100.3z"/>
<path class="st158" d="M391.1,136.3c-0.8-1-1.6-2-2.4-2.9C389.8,134.1,390.5,135.1,391.1,136.3z"/>
<path class="st159" d="M386.5,140.5c-1-0.8-2-1.5-3-2.3C384.9,138.4,385.9,139.2,386.5,140.5z"/>
<path class="st160" d="M220.1,83.8c0-3.5,2-5.8,4.9-5.7c3,0,5.4,2.3,5.4,5.1c0,3-2.8,6-5.5,5.9C221.9,89,220.1,87,220.1,83.8z"/>
<path class="st161" d="M241.5,88.3c-4,0.3-7-3-6.4-7c0.4-2.2,2.1-2.7,3.9-3.1c0.8-0.2,1.7-0.3,2.5,0.1c0.5,2.8,0.4,5.6,0.6,8.4
	C242.2,87.3,242,87.9,241.5,88.3z"/>
<path class="st162" d="M241.5,88.3c-0.1-2.7-0.2-5.5-0.3-8.2c0-0.6-0.3-1.3,0.3-1.8c2.6,1,3.7,2.7,3.6,5.3
	C245,85.9,243.9,87.5,241.5,88.3z"/>
<path class="st163" d="M415,197.9c0.6,2.8,0,5.7,0.5,8.6c-1.6-2.7-0.9-5.7-1-8.5C414.6,197.9,414.8,197.9,415,197.9z"/>
<path class="st164" d="M470.9,261.7c-4,1.1-7.4,3.4-10.8,5.6C462.1,264.8,468.5,261.4,470.9,261.7z"/>
<path class="st165" d="M467.8,259.1c-2.9,1.2-5.3,3.1-8.2,4.8C461.5,261.7,465.9,259.2,467.8,259.1z"/>
<path class="st166" d="M465.9,267.7c1.9-1.6,4-3,6.7-3C470.3,265.6,468.1,266.5,465.9,267.7z"/>
<path class="st167" d="M292.5,246.9c3.1-1.9,6.4-3.4,10-4C299.2,244.2,295.8,245.5,292.5,246.9z"/>
<path class="st168" d="M300.9,239.9c-2.8,1-5.4,2.2-8,3.5C295.2,241.5,297.9,240.2,300.9,239.9z"/>
<path class="st169" d="M438,263.6c2.6,1.1,5.6,1,8.3,1.9C443.3,265.8,440.4,265.5,438,263.6z"/>
<path class="st170" d="M453.9,262.8c-2.7,0.8-7.7-0.3-9.2-1.9C447.7,262,450.6,262.2,453.9,262.8z"/>
<path class="st171" d="M99.1,161.4c-1.2-0.3-2.4-0.6-3.6-0.9c0.5-1.7,1.1-3.4,1.6-5.1c0.8,1.4,0.6,3.1,1.1,4.6
	C98.4,160.5,98.7,161,99.1,161.4z"/>
<path class="st172" d="M182.8,174c2.3,2.6,4.8,4.8,8.7,3.7c-1.5,2-4.1,2.1-6.9,0.4C182.6,177,182,175.7,182.8,174z"/>
<path class="st173" d="M185.5,156.5c2.7,0.1,4.9,2,4.8,4.2c-0.1,3-2.2,5.4-4.7,5.3c-3.2-0.1-5.2-1.7-5.2-4
	C180.5,158.9,182.7,156.5,185.5,156.5z"/>
<path class="st174" d="M200.2,168.2c-2.6,0.6-3.3,0.4-4.3-1.9c-0.3-0.6-0.6-1.2-0.8-1.8c-1.2-3.2,0.4-5.4,3.9-5.1
	c0.6,0.1,1.3,0.3,1.9,0.4C201.7,162.7,201.3,165.5,200.2,168.2z"/>
<path class="st175" d="M200.2,168.2c0.2-2.8,0.4-5.6,0.6-8.3C203.8,161.5,203.4,166.3,200.2,168.2z"/>
<path class="st176" d="M436.3,218.1c-0.2-0.2-0.4-0.4-0.6-0.6c-0.1-4.5-1.3-9-1.6-13.5c1.2,2.4,1.4,5,1.9,7.6
	c0.4,1.9,0.5,3.8,0.8,5.7C436.7,217.6,436.7,217.9,436.3,218.1z"/>
<path class="st177" d="M452.5,218.1c1.5-2.3,1.8-5.2,2.8-7.7c-0.2,2.8-1,5.3-2.3,7.8C452.8,218.2,452.6,218.1,452.5,218.1z"/>
<path class="st178" d="M458.3,211.2c-0.1,2.3-0.8,4.4-2.1,6.3C456.9,215.4,457.6,213.3,458.3,211.2z"/>
<path class="st179" d="M461.1,211.5c0.2,1.9-0.7,3.6-1.7,5.1C460,215,460.5,213.2,461.1,211.5z"/>
<path class="st180" d="M402.4,196.6c1.4,0.9,2.8,1.8,3.6,3.4c-1.3-1.1-2.6-2.1-3.8-3.2C402.1,196.6,402.2,196.5,402.4,196.6z"/>
<path class="st181" d="M405.5,195.4c1,0.5,1.8,1.3,2.2,2.5c-0.8-0.8-1.6-1.5-2.4-2.3C405.3,195.4,405.3,195.3,405.5,195.4z"/>
<path class="st182" d="M405.3,195.6c-0.9-0.4-1.5-1.2-2-2.2c0.7,0.7,1.5,1.3,2.2,2C405.5,195.5,405.4,195.5,405.3,195.6z"/>
<path class="st183" d="M402.1,196.8c-0.9-0.5-1.6-1.2-2-2.2c0.7,0.7,1.5,1.3,2.2,2C402.3,196.7,402.2,196.7,402.1,196.8z"/>
<path class="st184" d="M227.8,83c-0.2,0.7,0.2,1.7-0.8,1.8c-1.1,0-1.1-1-1-1.8c0-0.7-0.1-1.7,0.9-1.7
	C227.9,81.2,227.6,82.3,227.8,83z"/>
<path class="st185" d="M239.7,82.3c-0.3,0.7-0.1,1.9-1,2.1c-0.8,0.1-0.7-0.7-0.7-1.4c0-0.9,0.1-1.9,1-2
	C239.6,80.8,239.6,81.7,239.7,82.3z"/>
<path class="st172" d="M187.6,160.9c-0.4,0.9-0.4,2.1-1.5,2.4c-0.7,0.2-0.9-0.5-0.8-1.1c0.2-0.9,0.3-2.1,1.4-2.4
	C187.3,159.7,187.5,160.3,187.6,160.9z"/>
<path class="st186" d="M199,163.4c-0.4,0.8-0.3,2.1-1.6,2.1c-0.7,0-0.8-0.8-0.6-1.4c0.2-0.9,0.3-2.1,1.5-2.2
	C198.9,162,199,162.8,199,163.4z"/>
<path class="st47" d="M288.2,58.3c-3.3,0-6.7-0.1-10,0.1c0.1-4.8,0.1-9.6,0-14.4c0-1.4,0.6-1.7,2.1-1.6c4.2,0.3,8.4,0.3,12.6,0
	c1.6-0.1,2.1,0.3,2,1.7c-0.1,4.2-0.2,8.3,0,12.5c0.1,1.5-0.5,1.8-1.7,1.8C291.6,58.3,289.9,58.3,288.2,58.3z"/>
<path class="st47" d="M54.9,48.6c-3.3,0-6.7-0.1-10,0.1c0.1-4.8,0.1-9.6,0-14.4c0-1.4,0.6-1.7,2.1-1.6c4.2,0.3,8.4,0.3,12.6,0
	c1.6-0.1,2.1,0.3,2,1.7c-0.1,4.2-0.2,8.3,0,12.5c0.1,1.5-0.5,1.8-1.7,1.8C58.2,48.6,56.5,48.6,54.9,48.6z"/>
</svg>
