<?xml version="1.0" encoding="utf-8"?>
<!-- Generator: Adobe Illustrator 24.1.2, SVG Export Plug-In . SVG Version: 6.00 Build 0)  -->
<svg version="1.1" id="Layer_1" xmlns="http://www.w3.org/2000/svg" xmlns:xlink="http://www.w3.org/1999/xlink" x="0px" y="0px"
	 width="447px" height="409.5px" viewBox="0 0 447 409.5" style="enable-background:new 0 0 447 409.5;" xml:space="preserve">
<style type="text/css">
	.st0{fill:#FFFFFF;}
	.st1{fill:#333E43;}
	.st2{fill:#596062;}
	.st3{fill:#2B3439;}
	.st4{fill:#F3E8DC;}
	.st5{fill:#B78567;}
	.st6{fill:#495054;}
	.st7{fill:#E3D5C6;}
	.st8{fill:#4A5154;}
	.st9{fill:#E4D5C6;}
	.st10{fill:#585F62;}
	.st11{fill:#4C5356;}
	.st12{fill:#B68466;}
	.st13{fill:#B78566;}
	.st14{fill:#5A6163;}
	.st15{fill:#5A6063;}
	.st16{fill:#070D14;}
	.st17{fill:#323C41;}
	.st18{fill:#313C41;}
	.st19{fill:#353F44;}
	.st20{fill:#323D43;}
	.st21{fill:#313C43;}
	.st22{fill:#343E43;}
	.st23{fill:#FDFDFE;}
</style>
<g>
	<g>
		<path class="st0" d="M458.8,230.2c0,80.9,0,161.7,0,242.6c0,1.8-0.4,2.2-2.1,2.2c-155.5,0-311,0-466.5,0c-1.7,0-2.1-0.4-2.1-2.2
			c0-161.9,0-323.7,0-485.6c0-1.8,0.4-2.2,2.1-2.2c155.5,0,311,0,466.5,0c1.7,0,2.1,0.4,2.1,2.2C458.8,68.2,458.8,149.2,458.8,230.2
			z"/>
		<path class="st1" d="M131.4,451.6c-4.3-0.4-4.3-0.4-4.3-5.1c0-3.3,0.1-6.5,0.2-9.8c0-0.8,0.1-1.4-0.7-1.8
			c-7-3.8-7.3-10.5-6.8-17.5c0.3-4.4,1-8.8,1.4-13.2c0.3-2.8-0.8-5.6-0.9-8.5c-0.1-2.5-0.9-3.6-3.4-3.9c-3.1-0.4-5.2-2.8-6.9-5.2
			c-11.9-16.7-20.5-35-23.9-55.6c-2.2-13.3,0.3-26,5.3-38.3c10.6-26,20.9-52.2,32.5-77.8c6.1-13.4,15.7-23.2,29.2-28.7
			c0.6-0.3,1.2-0.6,1.6-1.2c5-7.3,12.3-10.9,20.4-12.9c2.1-0.5,4.2-0.7,6.3-1c1.9-0.2,1.8-2.1,2.9-3.1c-3.3,0.6-6.4,0.1-9.4-0.8
			c-2.4-0.7-4-3.4-6.1-3.8c-2.1-0.3-4.6,0.8-7,0.4c-7.9-1.2-11.6-4.6-13.4-12.7c-0.3-1.2-0.7-1.6-1.9-1.5c-4.3,0.3-8.2-0.8-10.9-4.7
			c-0.9-1.3-1.4-2.8-1.5-4.4c-0.1-2.1,1-2.8,2.8-1.7c2.5,1.4,5.7,0.6,7.5-2c1.9-2.8,2.9-7.6,0.4-11.4c-3.8-5.6-3.3-11.6-0.9-17.7
			c1.1-2.7,2.6-5.2,4.4-7.4c0.9-1.1,1.2-1.6-0.3-2.6c-4.1-2.6-7.5-6.1-9-11c-1.4-4.9,0-9.2,2.8-13.2c4.5-6.4,10.3-11.6,16.2-16.5
			c4.2-3.5,8.6-6.9,13-10.2c1.1-0.8,1.7-1.7,2.1-2.9c2.5-7.5,5.1-14.9,9.4-21.5c4.6-7.1,11.5-10.6,19.1-12.4
			c16.7-3.9,33.5-4.1,50,1.3c7.6,2.5,14.7,6,19.4,13.1c3.9,5.8,5.5,12.6,7,19.4c0.7,3.3,1.3,6.7,1.8,10c0.2,1.1,0.9,1.4,1.5,1.9
			c9.8,8.5,17.9,18.4,23.1,30.6c1.2,2.7,1.8,5.6,1.8,8.5c0.1,5.3-2.9,8.6-6.7,11.5c-1,0.8-2.2,1.4-3.4,2.2c3.5,4.2,6.4,8.7,7.7,14.1
			c2.4,10.1,1.9,19.7-4.1,28.4c-2.8,4.1-6.6,6.8-11.6,7.1c-2.3,0.1-2.4,2.5-4.1,3.8c5,0.7,9.5,1.6,14,2.5
			c14.3,2.9,21.5,12.6,24.1,26.9c0.7,3.7,1.3,7.5,1.5,11.3c0.1,1.6,0.6,3,1.6,4.4c6.1,9.2,10.3,19.4,14.2,29.7
			c7.2,19.4,15.7,38.3,22.6,57.9c2.8,8,5,16.1,5.3,24.7c0.4,10-1.8,19.5-6.6,28.1c-9.9,17.7-22.9,32.5-39.4,43.9
			c-0.8,0.6-1.7,1.1-2.6,1.5c-3.8,2.1-3.8,2.1-3.4,6.5c0.7,7.5,1.2,15.1,1.4,22.6c0.1,4.3-1.5,7.4-5,9.5c-1.4,0.8-1.6,1.7-1.4,3.2
			c0.4,5.1,0.7,10.2,1,15.2c0.1,2.2-0.6,2.7-2.5,1.9c-1.3-1-1-2.6-1-4c0-3.3-0.6-6.5-0.6-9.8c0-2.6-0.5-2.8-2.8-1.8
			c-10.9,4.8-22.2,8.3-33.9,10.2c-8.3,1.4-16.7,2.4-25.1,2.2c-1.1,0-2.3,0-3.4-0.3c-2.3-0.5-3.7-1.9-4-4.3
			c-1.1-8.3-2.2-16.6-2.8-24.9c-0.2-2.7-0.3-2.8-2.9-2.5c-4.5,0.6-9,1-13.5,1c-4.7,0-9.5,0.3-14.2,0c-1.7-0.1-2.4,0.4-2.3,2.5
			c0.3,8.9,1,17.8,2.4,26.6c0.2,1.2,0.5,2.3,0.7,3.5c0.2,1.3,0.4,2.8-1.1,3.2c-1.7,0.5-2.2-1-2.7-2.3c-0.3-0.7-0.4-1.5-0.6-2.3
			c-1.1-6.8-2.1-13.7-2.3-20.6c-0.1-3-0.6-6-0.4-9.1c0.1-1.4-0.6-1.9-2-2c-8.2-0.8-16.3-1.8-24.2-4c-1.5-0.4-2.2,0.1-2.4,1.8
			c-0.6,7.4-1.3,14.8-1.9,22.1c-0.1,0.9-0.2,1.7-0.4,2.6c-1,5.3-2.9,6.7-8.2,6.1c-6-0.7-11.9-2.1-17.7-3.9c-2.7-0.9-5.4-1.8-8-2.9
			c-2-0.9-2.5-0.6-2.7,1.6c-0.2,2.5-0.1,5.1-0.1,7.6c0,1.2,0.7,1.9,1.6,2.4c0.3,0.2,0.7,0.5,0.2,0.9
			C132,451.8,131.7,451.7,131.4,451.6z"/>
		<path class="st2" d="M131.4,451.6c0.1-0.2,1.3-0.3,0.2-0.5c-1.3-0.2-1.7-0.7-1.7-1.9c0-3.6-0.3-7.1,0.3-10.7
			c0.2-1.5,0.7-1.2,1.6-0.8c8.7,3.9,17.8,6.1,27.1,7.5c1.8,0.3,3.5,0.1,5.2-0.4c1.3-0.4,1.7-1.5,2-2.7c0.9-3.2,1-6.6,1.3-9.9
			c0.6-6.2,1-12.5,1.4-18.7c0.1-2.2,1.5-1.5,2.4-1.2c4.8,1.5,9.7,2.2,14.5,3c3.5,0.6,7.1,1,10.7,1.2c1.7,0.1,2.4,0.4,2.4,2.4
			c0,10.2,0.9,20.4,2.7,30.5c0.2,0.9,0.4,1.7,0.7,2.5c0.3,0.7,0.6,1.6,1.6,1.4c1.1-0.3,1.1-1.3,0.9-2.1c-0.7-2.6-1.1-5.3-1.4-7.9
			c-0.5-4.1-0.9-8.2-1.4-12.3c-0.5-4,0.1-8.1-0.8-12.1c-0.3-1.6,0.5-1.8,1.8-1.8c5.4,0.1,10.8,0.1,16.2,0c4.8,0,9.6-0.3,14.3-1.3
			c1.4-0.3,2,0.2,2,1.7c0.3,9,1.9,17.8,2.8,26.7c0.2,2.4,1.7,3.8,4.6,4c6.6,0.3,13.3-0.2,19.9-1c4.8-0.6,9.6-1.3,14.4-2.4
			c9.9-2.3,19.5-5.5,28.9-9.7c0.3-0.1,0.6-0.2,1-0.4c1,5.8,0.8,11.7,1.5,17.4c-10.8,2-21.7,3.3-32.6,4.3c-6.6,0.6-13.2,1.2-19.9,1.4
			c-7.6,0.2-15.3,0.9-22.9,0.6c-5.6-0.4-11.2-0.1-16.8-0.2c-3.6,0-7.1-0.2-10.7,0.1c-6.4-0.2-12.8-0.2-19.2-0.5
			c-6.2-0.3-12.3-0.8-18.5-1.3c-12.1-0.9-24.1-2.4-36.1-4.5C131.6,451.8,131.5,451.7,131.4,451.6z"/>
		<path class="st3" d="M205.6,458.1c1.2-1.1,2.6-0.4,3.9-0.4c7.1-0.1,14.1,0,21.2,0c0.8,0,1.7-0.3,2.4,0.4
			C223.9,458.1,214.8,458.1,205.6,458.1z"/>
		<path class="st2" d="M266.7,348.6c1.7-0.3,2.5-1.9,3.8-2.9c1.2-0.9,1.7-0.8,2.6,0.2c4.5,5,8.8,10.2,12.9,15.5
			c5.5,7.2,10.5,14.7,14.6,22.7c1.3,2.6,2.5,5.3,3.5,8c1.4,3.8,2.8,4.8,6.6,4.1c1-0.2,1.4-0.1,1.5,1c0.5,8.6,1.4,17.1,1.4,25.7
			c0,2.8-1.2,4.9-3.5,6.3c-9.6,5.7-20.1,9-30.8,11.8c-9.4,2.5-19,3.4-28.6,4.1c-2.6,0.2-5.3,0.5-7.9-0.2c-1-0.3-1.6-0.6-1.8-1.7
			c-0.4-3.3-1-6.6-1.3-9.9c-0.8-7.4-1.6-14.8-2.2-22.2c-0.5-5.4-0.6-10.9-1-16.4c-0.8-11.7-1.1-23.5-1.6-35.2
			c-0.4-10.4,0.3-20.8,0.4-31.2c0-6.6,0.4-13.3,0.8-20c0.6-9.2,1.4-18.3,1.7-27.5c0.3-6.5,0.9-13,1.5-19.4
			c0.6-6.6,1.5-13.2,2.5-19.8c1.4-10.2,3.5-20.3,5.7-30.3c1.4-6.2,3.1-12.3,4.2-18.5c1.2-6.4,0.9-12.8-0.3-19.1
			c0-0.2-0.2-0.5-0.2-0.7c-0.2-1.3-0.8-2.9-0.3-3.9c0.6-1.3,2.3,0.2,3.5-0.3c2.8-1,4.4,0.7,6.4,2.4c6.3,5.4,8,12.6,8.8,20.5
			c0.7,6.5,1.4,12.9,2.3,19.3c0.4,2.9-0.1,3.3-2.8,2.5c-2.5-0.8-4.5-2.3-6.7-3.6c-3.4-2.2-6.3-1.9-9.1,1c-3.2,3.3-5.9,7-6.7,11.9
			c-0.1,0.8-0.4,1.7,0.5,2c1.1,0.4,1.4-0.8,1.6-1.5c1.3-3.8,3.3-7.2,6.3-9.8c1.5-1.3,3-2.1,5-1.2c2,1,4,1.8,3.8,4.9
			c-0.1,2.3-0.5,4.6-0.5,6.9c0,11.6,1.3,23,4.1,34.4c3.7,15.3,9.8,29.4,18.6,42.2c3.2,4.6,6.9,8.7,11.2,12.2
			c0.9,0.8,1.5,1.7,1.5,2.8c0,4.6,0.7,9.2,1,13.8c0,0.4-0.1,0.8,0,1.2c1.6,4-0.1,6.7-2.9,9.4c-3.9,3.8-7.7,7.8-11.4,11.8
			c-1.5,1.6-2.4,1.2-3.5-0.3c-2.1-3-4.9-5.4-7.4-8.1c-1.1-1.2-2.2-1.4-3.4,0.1C269.4,345.1,267.2,346.2,266.7,348.6
			c-1.4,2.3-0.6,4.1,0.8,6.1c6.7,9.5,13.7,18.8,19.8,28.7c2.5,4,5.1,8,7.4,12.1c0.9,1.6,1.7,3.7,4.4,3c-4.8-4.2-7.1-10.1-10.4-15.2
			c-6.8-10.5-13.6-21-21-31C266.9,351.2,265.8,350.2,266.7,348.6z"/>
		<path class="st4" d="M232.3,370.6c0.3,7.1,0.6,14.2,1,21.2c0.4,6.6,0.8,13.2,1.4,19.8c0.1,1.2-0.5,1.1-1.1,1.2
			c-5.9,1-11.8,1.3-17.8,1.4c-15,0.2-29.8-1-44.3-4.8c-1.7-0.4-2.3-1.1-2.1-3c1.4-14.9,2.7-29.8,4.1-44.7c1.2-13,2.5-26,3.8-38.9
			c1.2-11.7,2.6-23.4,4-35.1c1.4-12.6,2.8-25.1,4.3-37.7c1.8-15.6,3-31.2,3.7-46.9c0.1-1.1,0.2-2.2,0.4-3.3
			c12.1,14.3,44.5,13.5,57.5,1.5c-1.3,5.3-2.5,10.5-3.7,15.8c-2.7,12.2-4.6,24.5-6,36.9c-3,26-4,52.1-5,78.2c0,0.6,0,1.1,0.1,1.7
			c0.3,5.3,0.1,10.7-0.1,16C232.1,356.8,232.8,363.7,232.3,370.6z"/>
		<path class="st2" d="M297.6,271.6c-0.6-3.2-1.3-6.3-1.8-9.5c-0.9-6.4-1.8-12.8-2.3-19.3c-0.5-6.7-0.7-13.5-0.6-20.3
			c0.1-7.4-0.1-14.8,0.1-22.1c0.1-3.8,0.6-7.6,0.9-11.4c0.1-1.5,1-0.9,1.6-0.7c4,1.2,7.8,3,11.5,5.2c9.3,5.7,15.8,14,20.7,23.9
			c5.5,11,9.7,22.6,14.2,34.1c4.3,11,8.9,21.9,13.1,33c3.4,9,6.8,18,8.5,27.6c1.4,8.2,1,16.2-1.4,24.2c-2.7,8.9-7.4,16.4-12.9,23.6
			c-4.8,6.3-9.9,12.1-15.4,17.7c-2.3,2.4-5,4.4-7.5,6.6c-0.9,0.8-1.5,1-1.7-0.6c-0.5-4.2-1.2-8.5-2.7-12.5
			c-4.4-12.3-11.9-21.5-24-26.1c-0.6-0.2-1.2-0.2-1.8-0.3c-0.1-0.5,0.3-0.7,0.5-1c5.5-5.9,11.2-11.8,16.6-17.8
			c4.1-4.6,9.2-6.4,14.9-6.8c6.1-0.4,12,0.4,17.8,2.7c0.9,0.4,1.6,0.6,2.1-0.5c0.5-1.2-0.4-1.6-1.2-1.9c-3.5-1.5-7.1-2.3-10.9-2.7
			c-5.9-0.7-11.7-0.1-17.3,2.2c-0.4,0.1-0.7,0.3-1.3-0.2c2-3.5,4.8-6.2,8.1-8.3c3.8-2.4,8.1-3.6,12.6-3.7c0.9,0,2.1,0.2,2.1-1.2
			c0-1.4-1.2-1.2-2.1-1.2c-9.4-0.3-16.5,4.2-22.2,11.6c-0.4,0.5-0.7,1-1.2,1.7c-3.7-8.4-9.4-15.5-11.2-24.6
			c-0.1-0.5-0.2-0.9-0.4-1.4c-3.1-6.4-2.7-13.1-2.3-20c0.6-9.9,1.7-19.7,3-29.5c1.6-12.1,4.4-24,10-34.9c0-0.1,0.1-0.1,0.1-0.2
			c0.2-0.7,1.2-1.4,0.1-2c-1-0.5-1.5,0.4-2,1.1c-1.8,3.1-3.4,6.2-4.6,9.6c-3.3,9.3-5.2,18.8-6.6,28.6c-1,7.3-1.7,14.6-2.6,21.9
			c-0.2,1.8,0,3.7,0,5.5C297.9,271.6,297.7,271.6,297.6,271.6z"/>
		<path class="st2" d="M190.6,169.3c3.9,0,3.9,0,3.5,3.6c-0.3,2.4-0.9,4.7-2.2,6.9c-2.8,4.5-4,9.7-4.7,15.1
			c-0.9,7.4-1,14.9-1.5,22.3c-0.6,9.6-1.6,19.1-2.6,28.6c-1.1,11-2.6,22-3.8,33c-0.9,8.6-2.1,17.1-3.1,25.7
			c-0.7,6.6-1.2,13.3-1.9,19.9c-1.1,9.4-1.9,18.9-3,28.3c-0.6,5.6-1.1,11.2-1.6,16.8c-0.5,6.4-1.2,12.8-1.8,19.2
			c-0.4,4.3-0.6,8.5-1,12.8c-0.6,7.4-1.3,14.8-1.8,22.3c-0.3,5.2-1,10.4-1.4,15.6c-0.2,2.9-0.6,3-3.3,2.9c-7.2-0.3-14-2.1-20.7-4.4
			c-4.5-1.5-8.9-3.3-12.9-6c-3-2-4.3-4.9-4.4-8.4c-0.1-5.6,0.5-11.3,1.5-16.8c0.5-2.6,0.1-4.9-0.3-7.3c-1-5.9,0-11.6,1.6-17.1
			c3.2-11.3,8.9-21.2,15.8-30.4c0.9-1.2,1-2.1,0.2-3.5c-2-3.5-3.4-7.1-3.3-11.5c0.3-12.3,1.2-24.6,3.4-36.6
			c0.7-3.8,2.6-7.4,4.1-11.1c5.2-13.3,10.8-26.5,15.3-40.1c3.7-10.9,7.5-21.8,11.3-32.7c0.7-1.9,2.7-2.6,4.3-3.1
			c1.2-0.4,2.2,1.1,3,2.2c1.7,2.4,2.5,5.1,3.2,7.8c0.2,0.8,0.3,2.2,1.6,1.9c1-0.2,0.7-1.4,0.7-2.3c-0.1-4.8-2.4-8.6-5.7-11.8
			c-1.4-1.4-3.4-1.3-5.2-0.5c-1.7,0.7-3.4,1.4-5.1,2.2c-0.5,0.2-1,0.4-1.5-0.1c-0.6-0.5-0.3-1,0-1.5c5.2-10.5,9.1-21.5,13.6-32.2
			c1.4-3.3,3.9-5.8,5.9-8.8C187.9,168.5,189.5,169.5,190.6,169.3z"/>
		<path class="st2" d="M104.1,371.8c-3.8-6.5-6.9-13.1-9.5-20.2c-2.3-6.4-4.4-12.9-5.5-19.6c-1.4-8.4-1.3-16.9,0.7-25.3
			c3-12,8.2-23,12.8-34.4c4.6-11.4,9.4-22.7,14.2-34.1c4.2-10.1,8-20.4,13.8-29.8c4.1-6.7,9.7-12,16.4-15.9c1.1-0.7,2.3-1.3,3.4-2
			c0.3-0.2,0.7-0.4,1.1-0.1c0.4,0.3,0.1,0.7-0.1,1.1c-3.6,8.5-6.2,17.3-8.6,26.1c-1.7,6.2-2.8,12.5-3.9,18.8
			c-1,5.2-1.9,10.4-2.8,15.7c-0.4-2.2-0.9-4.3-1.2-6.5c-0.7-4.3-1.3-8.6-1.9-12.9c-0.1-0.7-0.1-1.9-0.9-1.9c-1.2,0-0.8,1.3-0.9,2.1
			c-0.2,6,1.1,11.8,2,17.7c0.7,5.1,2.9,10.1,2.1,15.5c-0.4,3.1-0.5,6.2-0.4,9.3c0.2,7.2,0.8,14.4,3.1,21.3c0.6,1.9,0.4,3.7,0.2,5.6
			c-0.7,5.1-1.3,10.3-1.9,15.4c-5.6-9.8-13.2-16.8-23.7-20.3c-0.5-0.2-1.1-0.3-1.6-0.2c-0.5,0.1-1.1,0.2-1.2,0.9
			c0,0.5,0.5,0.8,0.9,1c2.2,1.1,4.5,2,6.6,3.3c6.7,3.9,12.5,9,16.3,16.8c-4.5-2.8-8.8-4.7-13.5-5.5c-5.4-1-10.8-1.1-16.1,0.3
			c-0.3,0.1-0.6,0.2-0.9,0.3c-0.8,0.2-1.8,0.6-1.7,1.6c0.3,1.3,1.5,0.9,2.3,0.8c1.4-0.2,2.8-0.6,4.3-0.9c6.6-1.2,12.9,0.4,19,2.5
			c3.3,1.2,5.9,3.5,7.9,6.6c0.4,0.6,0.7,1.2,0.6,2c-0.6,4.3-0.3,8.7-0.3,13.1c0,1.1-0.3,1.2-1.3,1.2c-10.1-0.3-17.4,4.7-23.1,12.9
			C107.2,359.3,105.2,365.3,104.1,371.8z"/>
		<path class="st5" d="M176.2,103.3c4.9,10.4,13.1,12.8,25.5,7.8c0.1,0.8,0.1,1.6,0.3,2.3c0.7,2.9,2.2,5.4,5.1,6.2
			c3.3,0.9,6.5,0.6,9.5-1.4c0.6-0.4,1-1,0.6-1.8c-0.4-0.7-1.1-0.7-1.8-0.5c-1.7,0.6-3.4,1.3-5.3,1.2c-2.1-0.1-4.1-0.8-4.8-3
			c-0.8-2.2-1.7-4.7-0.1-7c2.2-3.3,3.5-6.9,3.3-10.9c-0.1-1.3,0.4-2.1,1.6-2.5c1.7-0.6,3.3-1,5.1-0.6c3.4,0.6,3.8,1,3.8,4.5
			c0.1,9.7,6.7,17,16.3,17.8c8.4,0.7,16.2-5.9,17.6-15c0.1-0.3,0.1-0.6,0.1-1c0.2-3,1-3.7,3.7-2.7c2.1,0.8,4.4,1.4,4.7,4.4
			c0.2,1.4,1.9,1.7,2.8,0.7c0.3-0.3,0.5-0.6,0.7-1c2.8-5.1,8.2-5.1,11.2,0c1.9,3.2,2.2,6.8,1.6,10.4c-0.7,4.8-2.7,9.1-5.7,12.8
			c-3.3,4.1-6.3,4.8-10.8,2.5c-1.6-0.8-1.9,0.4-2.3,1.4c-1.8,4.2-3.5,8.5-5.8,12.5c-6,10.4-13.4,19.6-25.2,22.7
			c-14.9,4-28.2,0.6-39-11.3c-5.7-6.4-10.2-13.5-12-22.2c-1.5-7.2-1.3-14.6-1-21.9C175.9,106.4,176.1,105.1,176.2,103.3z"/>
		<path class="st6" d="M266.3,225.8c0-2.4,0.1-4.8,0-7.2c-0.1-2.2,0.8-2.5,2.4-1.9c0.8,0.3,1.6,0.6,2.4,0.8c3,0.6,4.2-0.5,4.1-3.6
			c-0.1-2.9-0.3-5.9-0.7-8.8c-0.8-6.6-1.8-13.1-2.7-19.7c-0.3-2.5-1.2-4.9-2.2-7.2c-0.7-1.4,0-1.8,1-2.1c2-0.5,4.2-0.5,6.1,0
			c3.8,0.9,7.7,1.7,11.4,3.4c2.9,1.3,3.8,2.2,3.3,5.4c-1,6.3-1.2,12.7-1.7,19.1c-0.3,4.7,0,9.4-0.1,14.1c-0.2,9.4,0.3,18.7,1,28
			c1.2,13.5,3.2,27,6.8,40.1c0.8,2.8,1.5,5.7,2.5,8.4c1.6,4.3,0.7,8.4-0.1,12.6c-0.6,3.2-1.4,3.3-3.7,1.2
			c-4.7-4.3-8.3-9.5-11.7-14.9c-5.1-8.3-9.1-17.2-12-26.6c-2.4-7.7-4.4-15.6-5.4-23.8C266.4,237.3,266.2,231.6,266.3,225.8z"/>
		<path class="st7" d="M276.5,52c-32.4-18.9-66-20.8-100.7-8.2c2.2-6.3,4.5-12.8,8-18.7c3.6-6,8.9-9.6,15.3-11.3
			c17.1-4.8,34.2-4.9,51.3,0.3c13.8,4.2,21.5,13.7,24,28.2C275.1,45.6,275.9,48.9,276.5,52z"/>
		<path class="st5" d="M246.8,154.1c-0.7,10.9,3.1,21.3,2.4,32.1c-0.2,2.8-0.3,5.6-1,8.3c-0.7,2.8-2.9,4.6-5.1,6.3
			c-4.6,3.5-10,5.2-15.5,6.1c-9.8,1.6-19.4,1.3-28.5-3.1c-8.7-4.1-10-7.3-7.2-16.7c0.7-2.3,1.6-4.3,3.1-6.3c1.8-2.6,2-5.9,2.2-9.1
			c0.1-2.3,0-4.5,0-7.1c8.8,9.3,24.9,8.3,35.1,1.1C237.3,162.1,242.6,159,246.8,154.1z"/>
		<path class="st8" d="M140.4,293.3c-2.3-9.3-2.6-18.6-2.1-28.1c0.5-8.3,1.8-16.4,3-24.5c1.5-10.1,3.5-20.1,6.5-29.8
			c1.9-6.1,3.6-12.3,6.2-18.1c2.3-5.1,5.1-9.6,9.7-12.7c4-2.8,8.6-4,13.2-5.1c0.6-0.1,1.5-0.2,2,0.2c0.8,0.6-0.2,1.2-0.5,1.8
			c-4.2,10.2-8.1,20.5-12.8,30.5c-0.7,1.6-1.3,3.2-1.4,5c-0.1,2.2,1,3.6,2.9,3.4c1.9-0.1,1.5,0.7,1.2,1.7c-0.8,2.6-1.8,5.2-2.7,7.8
			c-1.9,5.6-3.7,11.2-5.7,16.8c-1.6,4.6-3.4,9.2-5.1,13.7c-2.8,7.3-5.6,14.6-8.4,21.9C144.5,283,142.4,288.1,140.4,293.3z"/>
		<path class="st9" d="M148.3,69.5c7.5-7.3,15.1-14.3,23.6-20.1c6.1-4.1,13.1-6.1,20.1-7.7c24.8-5.6,49.1-3.8,72.4,7.1
			c16.2,7.6,27.8,20.4,36.6,36.3c0.2,0.4,0.7,0.9,0.5,1.5c-20.9-20.1-45.1-32.6-73.7-35.6C199.2,48,173,54.9,148.3,69.5z"/>
		<path class="st5" d="M258.2,93.9c-0.2,0.1-0.4,0.1-0.5,0.1c-4.2,0.4-5.9-2.3-7.9-5.8c-6-10.4-23-10.5-28.9,1.3
			c-0.8,1.5-1.3,2-2.9,1.3c-2.9-1.3-6-1.3-8.9,0.2c-1.1,0.5-1.3,0.2-1.8-0.8c-2.8-6.9-7.7-10.1-15-10.4c-5.9-0.2-10.4,1.7-13.9,6.6
			c-0.1-1.1,0.8-8.2,1.1-9c0.3-0.7,0.9-1,1.5-1.5c5.4-4.5,10.7-9,14.1-15.5c0.4-0.7,0.9-1.4,1-2.1c0.6-3.4,2.9-4,5.7-4.2
			c8.4-0.7,16.8-0.5,25.2,0c1,0,1.5,0.5,2,1.3c4.7,8.8,11.4,15.2,20.1,19.5c0.5,0.2,1,0.4,1.1,1.1C251.2,82.7,254.3,88.4,258.2,93.9
			z"/>
		<path class="st2" d="M286.9,353.5c1.9-1.9,3.7-3.6,5.3-5.4c0.8-0.8,1.7-1.1,2.7-0.9c6.1,1.7,11.4,4.7,15.6,9.7
			c3.7,4.4,6.6,9.1,8.5,14.6c1.5,4.5,2.7,9.1,2.8,13.9c0.1,1.5-0.4,2.3-1.7,3.1c-2.5,1.5-5.1,3-7.8,4.1c-1.3,0.5-2,1-1.8-1.4
			c0.4-4.5-0.5-9-2.3-13.2c-4.2-10-11-17.6-19.9-23.3C288,354.4,287.6,354,286.9,353.5z"/>
		<path class="st5" d="M191.7,111c-8.2-0.1-13.9-6.3-13.8-15c0.1-8,5.8-13.9,13.6-13.8c8.6,0.1,14.1,5.6,14,14.1
			C205.5,104.5,199.3,111.1,191.7,111z"/>
		<path class="st5" d="M235.9,83.5c7.4-0.6,14.1,5.5,14.1,14.4c0.1,8-6.4,14.5-14.4,14.4c-7.8-0.1-14-6.7-14-14.8
			C221.7,89.2,227.6,83.5,235.9,83.5z"/>
		<path class="st10" d="M106.8,374.4c1-7.7,2.9-15.5,8.3-22c3.2-3.8,6.7-6.6,11.3-8.1c1.7-0.6,3.6-0.8,5.4-0.9
			c2.9-0.2,6.3,2.6,6.5,5.7c0.1,1.6-1.1,2.9-2.6,3.6c-8.1,3.4-13.3,9.9-17,17.7c-2.3,4.8-2.6,10.1-2.3,15.4c0,0.8,0.5,2-0.5,2.3
			c-0.8,0.3-1.5-0.6-2.1-1.3c-2.6-2.9-4.8-6.2-6.7-9.6C106.7,376.5,106.7,375.7,106.8,374.4z"/>
		<path class="st10" d="M163.2,64.6c-3.4,5.9-3.2,12.6-4,19c-0.2,1.6-0.7,2.9-1.6,4.1c-1.9,2.6-4,5.2-5.9,7.9
			c-0.5,0.7-1,0.5-1.6,0.3c-4.9-2.1-9.1-8.4-9-13.8c0.1-4,2.7-6.2,5.5-8.2c4.7-3.1,9.4-6.2,14.6-8.4C162,65.4,162.6,65,163.2,64.6z"
			/>
		<path class="st11" d="M308,172.1c2.2,0.9,3.6,2.7,4.9,4.5c4.2,6,5.9,13,7.1,20.1c0.2,1.4,0.4,2.8,0.7,4.5c-2.5-1.5-4-3.9-6.1-5.5
			c-5.5-4.4-11.4-7.9-18.1-9.9c-2.2-0.7-2.7-1.7-1.5-3.6c2-3,3.6-6.6,7.9-6.9c1.3-0.1,1.1-1.3,1.1-2.3
			C305,171.6,306.6,172.1,308,172.1z"/>
		<path class="st2" d="M308,172.1c-1.4,0.3-2.8,0.6-4.1,1c-3.9-0.3-6.8,1.5-9,4.6c-1,1.4-1.6,1.3-2.9,0.5c-6.5-3.7-13.6-6.4-21-5.4
			c-3.7,0.5-5.5-0.7-7.8-2.9c-1.2-1.1-0.9-1.1,0.2-2c2.1-1.8,3.7-3,6.8-1.8c2.6,1,5.8,0.6,8.7-0.8c2.6-1.3,5.5-0.1,8.1,0.2
			c5.1,0.6,10.1,1.5,14.9,3.4C304.1,169.8,306.2,170.8,308,172.1z"/>
		<path class="st2" d="M280.9,73.1c3.4,2.5,7,4.7,10.1,7.6c3.1,2.9,6.5,5.5,9.2,8.9c4.7,5.9,4,9.7-1.6,14c-5,3.8-3.8,4-6.8-1.7
			c-2.5-4.7-5.4-9.3-6.9-14.5c-1.4-4.6-2.2-9.5-4.4-13.8C280.6,73.3,280.8,73.2,280.9,73.1z"/>
		<path class="st12" d="M286.5,357c8.7,5.5,15.7,12.7,19.6,22.8c0.2,0.6,1.3,1.8,0,2.1c-1.1,0.3-2.5,1.9-3.7-0.4
			C297.7,372.8,292.3,364.8,286.5,357z"/>
		<path class="st13" d="M121.6,384.8c-2.3-3.4-2.7-6.5-1.6-10c2.4-7.4,6.9-13.1,13.2-17.4C128.3,365.9,124,374.7,121.6,384.8z"/>
		<path class="st14" d="M289.2,147.9c0.3,1.6-0.4,3.5-0.5,5.4c-0.1,0.8-0.4,1.6-1.2,1.9c-0.3,0.1-0.8,0.1-1.1,0
			c-0.5-0.2-0.2-0.7-0.1-1c1.7-6.2,1.2-12-2.1-17.5c-0.3-0.5-0.9-1.1-0.2-1.6c0.6-0.5,1.2,0.1,1.5,0.6c2.3,3.2,3.5,6.8,3.6,10.8
			C289.2,146.8,289.2,147.2,289.2,147.9z"/>
		<path class="st15" d="M162.7,158.4c-1.9,0.7-2.8-0.4-3.6-1.6c-1.6-2.7-1.7-5.8-1.2-8.8c0.3-1.7,0.1-3.5,1.2-5
			c0.3-0.4,0.6-1.1,1.2-0.8c0.7,0.3,0.8,0.9,0.5,1.6c-1.4,3.6-1.2,7.2-0.4,10.9C160.8,156.2,161.7,157.3,162.7,158.4z"/>
		<path class="st16" d="M232.3,370.6c-0.5-12.3-0.4-24.5,0-36.8c0.5,0.5,0.4,1.2,0.4,1.8c0,11.1,0,22.1,0,33.2
			C232.7,369.4,232.8,370.1,232.3,370.6z"/>
		<path class="st17" d="M253,429.5c6.8-0.1,13.4-1.8,20.1-2.9c9.7-1.7,19.2-4.4,28.2-8.5c1.7-0.8,3.3-1.7,4.9-2.6
			c0.7-0.4,1.6-1.4,2.2-0.4c0.7,1.1-0.3,1.8-1.2,2.4c-2.7,1.9-5.8,3.1-8.9,4.4c-7.4,3.1-15.2,5.3-23,6.8c-7.4,1.5-14.7,3.2-22.3,3.2
			c-1.3,0-2.5,0.8-3.8,0.1c-0.7-0.3-1.3-0.5-1.2-1.5c0.1-0.9,0.8-1,1.6-1C250.7,429.5,251.9,429.5,253,429.5z"/>
		<path class="st18" d="M266.7,348.6c0.2,2.9,2.4,4.5,3.9,6.6c6.3,8.7,12.2,17.6,17.9,26.7c2.9,4.6,6,9.1,8.6,14
			c0.5,1,1.4,0.8,2.1,1.2c0.5,0.2,1.1,0.4,1,1.1c-0.1,0.7-0.7,0.9-1.2,1c-1.4,0.3-2.5,0-3.4-1.4c-3.8-6.1-7.5-12.2-11.3-18.2
			c-5.5-8.6-11.6-16.7-17.5-25C264.6,351.7,264.6,351.1,266.7,348.6C266.7,348.7,266.7,348.6,266.7,348.6z"/>
		<path class="st19" d="M189.1,386c-1.7,0.2-4.1-0.4-6.5-0.6c-0.9-0.1-1.8-0.4-1.6-1.5c0.2-1.1,1.1-0.9,1.9-0.8
			c12.9,1.5,25.2-0.9,37.1-5.8c0.8-0.3,1.5-0.6,1.9,0.4c0.4,1-0.3,1.4-1.1,1.7c-5.4,2.6-11,4-16.8,5.1
			C199.3,385.4,194.6,385.9,189.1,386z"/>
		<path class="st18" d="M150,348.5c-0.4,2.3-0.9,4.4-2.1,6.3c-8.1,13.2-14.1,27.4-17.8,42.6c-0.3,1.3-0.8,3.4-2.3,3
			c-1.4-0.4-0.5-2.2-0.3-3.4c3.6-15.6,9.6-30.2,18.3-43.3c2-3,2.2-5.2,0.4-8.1c-0.3-0.6-1.2-1.4-0.2-2c1-0.6,1.6,0.3,2.1,1
			C149,345.8,149.6,347.2,150,348.5z"/>
		<path class="st18" d="M125.1,416.9c2.2-0.9,3.5,0.6,4.8,1.4c5.3,3,11,5,16.9,6.5c3.6,0.9,7.2,2.1,11,2c0.6,0,1.2,0.2,1.2,0.9
			c0,0.8-0.6,1.4-1.3,1.4c-1.3,0.1-2.6,0.2-3.9,0c-8.5-1.8-16.8-4.3-24.5-8.7C127.8,419.4,126.5,418.4,125.1,416.9z"/>
		<path class="st20" d="M216,144.8c-11.1-0.1-19.1-6.5-21.7-16.4c-0.6-2.1,0.2-3.1,2.1-2.6c10.2,2.7,20.4,2.7,30.6,0.8
			c2-0.4,3.9-0.7,5.9-1.1c2.4-0.5,3.2,0.3,2.5,2.7c-1.8,5.6-4.8,10.3-9.8,13.4C222.2,143.7,218.6,144.8,216,144.8z"/>
		<path class="st21" d="M264.4,117.8c0.4-1.3,0.8-2.6,1.1-4c0.3-1.7,0.9-3.4-0.9-4.7c-0.7-0.5-0.4-1.5,0-2.2
			c1.4-2.1,3.3-3.2,5.7-3.6c0.8-0.2,1.6,0.2,1.8,1.1c0.3,1-0.4,1.5-1.2,1.7c-2.2,0.5-3.1,1.4-2.5,4.1c0.7,2.9-0.2,5.8-1.3,8.5
			c-0.3,0.8-0.9,1.4-1.8,1.1C264.4,119.5,264.3,118.7,264.4,117.8z"/>
		<path class="st22" d="M196.5,70.2c2,0,3.9,0.3,5.7,1.4c1.3,0.8,1.8,1.9,1.5,3.4c-0.3,1.6-1.4,2.2-2.8,2.3c-0.7,0.1-1.4,0.1-2.1,0
			c-4-0.9-7.9-0.2-11.6,1.2c-0.5,0.2-1.2,0.6-1.7,0c-0.4-0.5-0.3-1.2-0.1-1.8c0.6-2,2.1-3.3,3.7-4.3C191.4,71,193.9,70.1,196.5,70.2
			z"/>
		<path class="st1" d="M232,70.8c4.6,0.2,8.3,1.8,11.4,4.7c0.6,0.6,1.1,1.3,1.5,2.1c0.5,1.2,0.2,1.8-1.2,1.5c-2.3-0.5-4.6-1-7-1.5
			c-2.4-0.5-4.9-0.5-7.3,0c-1.7,0.4-3.4,0.1-4-1.8c-0.7-2.1,0.7-3.3,2.3-4.1C229.2,71,230.8,71.1,232,70.8z"/>
		<path class="st1" d="M191.2,97.3c0-1.2,0.1-2.4,0.8-3.4c0.8-1.2,1.6-2.5,3.2-2.1c1.5,0.3,2.1,1.6,2.4,2.9c0.4,1.9,0.4,3.8-0.7,5.5
			c-0.7,1.2-1.5,2.3-3,2.1c-1.6-0.2-2.2-1.6-2.5-3C191.2,98.6,191.3,98,191.2,97.3z"/>
		<path class="st1" d="M239.1,97.3c0,2.8-2,5.3-4.2,5.4c-2.2,0.1-4-2.1-4-4.8c0-3.2,1.7-5.6,4.1-5.6
			C237.2,92.3,239.1,94.6,239.1,97.3z"/>
		<path class="st23" d="M232.2,128.4c-3.2,8.6-9.8,13.4-17.6,13.2c-7.9-0.2-14.4-4.8-16.9-12.4C209.3,131.5,220.7,131.7,232.2,128.4
			z"/>
	</g>
</g>
</svg>
