<?xml version="1.0" encoding="utf-8"?>
<!-- Generator: Adobe Illustrator 24.1.2, SVG Export Plug-In . SVG Version: 6.00 Build 0)  -->
<svg version="1.1" id="Layer_1" xmlns="http://www.w3.org/2000/svg" xmlns:xlink="http://www.w3.org/1999/xlink" x="0px" y="0px"
	 width="540px" height="441px" viewBox="0 0 540 441" style="enable-background:new 0 0 540 441;" xml:space="preserve">
<style type="text/css">
	.st0{fill:#FFFFFF;}
	.st1{fill:#FFCC26;}
	.st2{fill:#B1DDE9;}
	.st3{fill:#FECC26;}
	.st4{fill:#131316;}
	.st5{fill:#B1DDEA;}
	.st6{fill:#F2E323;}
	.st7{fill:#F3E424;}
	.st8{fill:#131215;}
	.st9{fill:#B24231;}
	.st10{fill:#7694A4;}
	.st11{fill:#B24331;}
	.st12{fill:#161417;}
	.st13{fill:#131317;}
	.st14{fill:#4E403C;}
	.st15{fill:#3596A6;}
	.st16{fill:#F1E325;}
	.st17{fill:#762741;}
	.st18{fill:#B0CA4D;}
	.st19{fill:#DEF0F4;}
	.st20{fill:#F2E324;}
	.st21{fill:#87B1C3;}
	.st22{fill:#DA5038;}
	.st23{fill:#121216;}
	.st24{fill:#121317;}
	.st25{fill:#111317;}
	.st26{fill:#C6E5ED;}
	.st27{fill:#8AB3C6;}
	.st28{fill:#8FBBCE;}
</style>
<g>
	<g>
		<path class="st0" d="M73.2,411.8c0-133.9,0-267.8-0.1-401.8c0-1.8,0.4-2,2.1-2C218.2,8,361.1,8,504,8c1.6,0,2.1,0.2,2.1,2
			c-0.1,96.3-0.1,192.6-0.1,288.9c-0.6,0.5-1.1,0.2-1.5-0.1c-7.8-5-16.5-7.8-24.9-11.3c-3.2-1.4-6.6-2.4-9.6-4.2
			c-0.4-0.8-0.2-1.6,0.1-2.5c5.6-18.4,11.2-36.8,16.8-55.1c3.2-10.4,6.3-20.7,9.5-31.1c1.5-4.8,0.2-6.5-4.8-6.7c-1.5,0-3.1,0-4.6,0
			c-11.5-0.3-23.1-0.7-34.6-0.9c-9.1-0.2-18.3-0.6-27.4-0.8c-5.1-0.2-10.1-0.4-15.2-0.3c-3.8,0-4.4,0.4-5.6,4.1
			c-3.2,9.6-6.2,19.3-9.2,29c-4,12.8-8,25.7-12.1,38.5c-1.7,5.3-3.3,10.6-5,15.9c-0.9,2.7-1.3,3-4.1,3c-4.7,0.1-9.4-0.1-14.1,0.2
			c-1.1-0.3-1.4-1.3-1.9-2.1c-2.6-4.6-6-8.6-9.9-12.2c-4.3-3.9-9.7-5.6-15.1-7.1c-6.9-1.9-13.5-0.1-20.1,1.6
			c-5.9,1.5-11.8,3.4-17.5,5.6c-2.4,0.9-4.9,1.2-7.4,1.4c-6.9,0.7-13.8,1.4-20.7,2.3c-0.7,0.1-1.4,0.1-2.1,0.1
			c-3.3-0.1-6.6,0.3-9.9-0.2c-1.2-0.8-1.1-2.1-1.3-3.2c-1.2-7.5-2.2-15.1-3.7-22.5c-2.2-10.8-3.9-21.6-6.5-32.3
			c-1.7-6.8-3.4-13.6-5.9-20.2c-2.7-7.1-7.2-12.5-13.7-16.3c-2.2-1.2-4.5-2.4-6.9-3.3c-0.8-0.3-1.7-0.5-2.2-1.4
			c-0.3-1.6,0.4-3,0.7-4.5c1.5-2.8,3-5.6,4.2-8.5c0.5-1.1,1-2.2,2.1-2.8c1-0.1,1.8,0.4,2.6,0.7c5.8,2,11.6,2.5,17.6,0.7
			c4.9-1.5,7.8-5.1,10.4-9.1c4.7-7.3,7.4-15.3,9.2-23.7c0.7-3.2,0.7-3.1,3.8-3.8c2.1-0.4,4.3-0.9,6.3-1.7c3-1.2,3.8-3.3,2.4-6.3
			c-0.7-1.5-1.7-2.8-2.8-3.9c-3.1-3.2-5.8-6.7-8.9-9.8c-1.5-1.5-1.6-3.3-2-5.2c-0.1-1.4,0.1-2.9-0.2-4.3c-0.6-4.6-1.6-9.2-3.2-13.5
			c-2.7-7.2-6.2-14-11.1-20c-4.3-5.4-9.8-9.5-16.1-12c-25.2-9.9-48.6-6.4-69.7,10.7c-9.2,7.4-15,17.2-18.3,28.5
			c-2.4,8.1-4.8,16.2-9.8,23.2c-3.7,5.1-8,9.7-12.7,13.8c-8.6,7.5-16.9,15.3-23,25.1c-4.6,7.3-8.1,15.1-9.1,23.7
			c-1.5,12.3,2.1,23.2,10.3,32.6c2.3,2.7,4.8,5.1,7.6,7.3c1.2,0.9,1.4,2,1,3.4c-5.2,16.5-7.6,33.5-9.7,50.5
			c-1.4,10.7-2.3,21.5-3.3,32.3c-0.6,6.5-0.9,13-1.7,19.5c-0.1,0.7-0.2,1.4-0.6,2c-5.5,13.7-9,27.8-10.3,42.5
			c-1.1,12.8-0.7,25.4,2.9,37.8c1.5,5.1,3.4,10,6.8,14.2c0.5,0.7,1.3,1.3,1.1,2.4c-0.8,0.6-1.7,0.5-2.6,0.5
			c-4.7-0.2-9.3,0.4-13.5,2.6C74.3,411.8,73.8,412.1,73.2,411.8z"/>
		<path class="st1" d="M90.9,408.3c-5.8-6.7-8.5-14.7-10.1-23.2c-2-10.3-2.2-20.8-1.3-31.2c1.3-13.9,4.5-27.4,9.6-40.4
			c0.3-0.7,0.2-1.6,0.8-2.3c0.2,0.1,0.4,0.3,0.6,0.4c4.3,1.5,8.8,2.3,13.3,3.2c5.2,1,10.5,1.7,15.8,2.3c4.2,0.4,8.5,0.9,12.8,1.2
			c6.3,0.5,12.6,0.9,18.9,0.8c0.6,0,1.1,0,1.7-0.1c1.1-0.1,1.8,0.7,2.5,1.3c1.9,1.9,3.8,3.7,5.7,5.7c5,5.3,11.3,8.2,18.4,9.6
			c1.5,0.3,2.9,1.1,4.5,0.9c0.6,0,1.2,0,1.8,0.2c3.4,0.4,6.8,0.1,10.1,0.2c2.7,0.2,2.9,0.6,2.5,3.1c-0.5,2.8-0.8,5.7-1.4,8.5
			c-0.4,2.2-1.1,2.8-3.3,2.6c-4.2-0.5-8.4-1-12.6-1.4c-2.4-0.2-4.8-0.4-7.1-0.5c-5.4-0.3-10.8-0.8-16.2-0.5c-0.4,0-0.8,0-1.3,0.1
			c-0.9,0.1-1.4,0.7-1.3,1.6c0,0.8,0.5,1.3,1.3,1.4c1,0.1,2,0.1,3,0.1c13.1-0.1,26,1.6,39,3.2c13.6,1.7,26.7,5.3,39.9,8.8
			c7,1.9,13.5,4.8,19.4,9c3.7,1.8,6.3,4.9,9,7.9c0.8,0.9,1.7,1.8,2,3.1c3.6,5.6,5.9,11.6,6.8,18.2c0.8,6.3,1.4,12.5,0.8,18.9
			c-0.5,5.8-1.5,11.5-2.7,17.2c-0.2,1-0.4,2.1-1,3c-26.8,0-53.5,0-80.3,0c-0.6-0.8-0.1-1.6-0.1-2.4c0.2-1.5,0.6-3,0.9-4.6
			c0.6-3,0.5-3-2.4-3c-8.9,0-17.7-0.1-26.6,0c-12.6,0.2-25-1.3-37.3-3.8c-12.8-2.6-24.3-7.8-34.3-16.3
			C92.1,410.2,91.1,409.6,90.9,408.3z"/>
		<path class="st2" d="M470.1,283.2c4.2,1.1,8.1,3.2,12.1,4.7c6.9,2.7,13.9,5.2,20.3,8.9c1.2,0.7,2.2,1.7,3.6,2.1
			c0,17.1,0,34.1,0,51.2c-3,2-6.2,2.7-9.8,2.5c-1-0.3-2-0.2-2.9-0.2c-69.2,0-138.4,0-207.6,0c-0.9,0-1.8-0.1-2.7,0.1
			c-5.9,0.2-11.1-1.6-15.8-5c-8.5-5.6-13.4-13.8-17.4-22.8c-0.3-0.7-0.5-1.3-0.1-2c0.6-0.8,1.5-1,2.4-1.3
			c9.3-3.2,18.6-6.6,27.8-10.2c1.3-0.5,2.7-0.8,4.1-0.7c3.4,0.1,6.7-0.3,10.1-0.7c5.9-0.7,10.8-3.5,15.6-6.5c0.7-0.4,1.3-0.9,2.1-1
			c1.3,0.4,0.5,0.9,0.1,1.4c-0.6,0.8-2.2,0.7-2,2.2c0,0.2-0.4,0.4-0.6,0.5c-0.9,0.9-0.1,1.4,0.5,1.8c6.5,4.5,12.9,9.1,19.3,13.6
			c1.3,0.9,2.7,1.2,4.2,1c1.7-0.3,3.5-0.3,5.3-0.3c10.8-0.1,21.6-0.8,32.5-0.9c8.9-0.2,17.9-0.5,26.8-0.8c9.9-0.3,19.8-0.5,29.7-0.9
			c8.9-0.3,17.8-0.7,26.8-0.8c3.2,0,3.9-0.5,4.8-3.6c3.1-9.9,6-19.8,9.1-29.7C468.7,285.1,468.7,283.8,470.1,283.2z"/>
		<path class="st0" d="M506.1,352.6c0,28.9,0,57.8,0,86.7c0,1.4-0.3,1.7-1.7,1.7c-33.8-0.1-67.6,0-101.5,0c-0.7-0.8-0.7-1.8-0.7-2.8
			c0-26.7,0-53.5,0-80.2c0-3.1,0.5-3.5,4.1-3.5c28.5,0,57,0,85.5,0c4.1,0,8.2-0.1,12-1.8C504.6,352.3,505.3,352.1,506.1,352.6z"/>
		<path class="st0" d="M249.8,323c2.4,6.3,5.5,12.1,9.9,17.2c2.2,2.6,4.8,4.9,7.6,6.9c1.5,2.9,4,4.4,7,5.5c3.5,1.3,7,1.9,10.8,1.9
			c31.8,0,63.6,0,95.5,0c4.9,0,5,0.1,5,4.9c0,25.9,0,51.8,0,77.7c0,1.3,0.3,2.7-0.7,3.9c-21.1,0-42.3,0-63.4,0
			c-0.8-0.9-0.4-1.9-0.2-2.8c1.8-9.8,3.1-19.6,2.6-29.6c-0.5-9.8-2.1-19.4-7.9-27.6c-3.6-5.2-8.4-9.1-13.8-12.2
			c-9.2-5.2-19.1-8.5-29.3-11.3c-18.9-5.1-38-8.9-57.4-11.3c-2.7-0.3-5.5-0.5-8.2-0.6c-2.2,0-2.6-0.5-2.3-2.7
			c0.3-2.2,0.5-4.5,1.1-6.7c0.1-0.2,0.2-0.4,0.3-0.6c0.6-0.8,1.6-1,2.4-1.1c13-2.6,25.3-7,37.8-11.2
			C247.5,322.9,248.6,322.1,249.8,323z"/>
		<path class="st3" d="M206.3,336.1c-0.4,2.4-0.7,4.8-1.1,7.3c-0.2,0.9-0.3,1.6,1.1,1.6c12.7,0.3,25.1,2.7,37.4,5.1
			c13.1,2.6,26.1,5.5,38.8,9.7c9,3,17.8,6.5,25.5,12.2c7.9,5.9,12.5,13.8,14.5,23.2c2.4,11.2,2.3,22.4,0.5,33.7c-0.6,4-1.2,8-1.8,12
			c-14.4,0-28.7,0-43.1,0c-0.8-2,0.2-3.9,0.6-5.7c1.4-7.3,2.2-14.6,2.2-22c-0.1-9-1.4-17.8-5.7-25.9c-0.7-1.4-1.3-2.8-2.5-3.8
			c-2.3-2-3.8-4.7-6-6.8c-2.7-2.6-5.5-5-8.6-7.1c-0.7-0.5-1.4-0.9-1.9-1.6c-2.2-1.9-4.7-3.1-7.3-4.1c-8.2-3.1-16.7-5.5-25.3-7.3
			c-6.7-1.4-13.5-2.8-20.3-3.8c-1.7-0.3-2.5-1-2.2-2.8c0.5-4,1.1-7.9,1.8-11.9C203.2,336.2,204.1,335.7,206.3,336.1z"/>
		<path class="st4" d="M384.8,441c0-27.8,0-55.7,0-83.5c0-1.8-0.3-2.3-2.2-2.3c-32.5,0.1-65.1,0.1-97.6,0c-5.7,0-11.1-1.2-15.8-4.6
			c-1.1-0.8-2.3-1.7-1.8-3.4c4.1,2.4,8.3,4.3,13.1,4.8c0.7,0.1,1.4,0.1,2.1,0.1c1.5-0.3,2.9,0.1,4.4,0.1c68.6,0,137.3,0,205.9,0
			c1.3,0,2.6-0.3,4-0.1c2.8,0.1,5.4-0.9,8-1.7c0.4-0.1,0.8-0.5,1.4-0.3c0,0.8,0,1.7,0,2.5c-6.2,2.9-12.8,2.6-19.3,2.6
			c-27.3,0-54.5,0-81.8-0.1c-1.7,0-2.2,0.4-2.2,2.1c0.1,27.3,0,54.5,0.1,81.8c0,0.6,0.1,1.3,0.1,1.9C396.9,441,390.8,441,384.8,441z
			"/>
		<path class="st5" d="M90.9,408.3c11.5,10.6,25.2,16.4,40.4,19.2c15,2.7,30,3.2,45.1,3c5.5-0.1,11,0.1,16.5,0
			c1.6,0,1.9,0.5,1.5,1.9c-0.5,2.2-0.9,4.4-1.4,6.6c-0.8,0.8-1.8,0.6-2.8,0.6c-32.3,0-64.6,0.1-96.9,0c-6.9,0-13.2-2.4-18.6-6.9
			c-0.7-0.6-1.2-1.4-1.6-2.2c0-6.2,0-12.4,0-18.6C78.7,408.4,84.8,408.2,90.9,408.3z"/>
		<path class="st4" d="M256.7,367.8c6.2,4.1,11.6,9.1,16,15.2c2.5,2.8,3.9,6.2,5.1,9.6c3,8.2,3.6,16.8,3.2,25.5
			c-0.3,6.2-1,12.3-2.2,18.4c-0.3,1.5-0.3,3.2-1.4,4.5c-1.3,0-2.5,0-3.8,0c-0.6-0.9,0-1.6,0.2-2.4c1.9-8.8,3.4-17.6,2.9-26.7
			c-0.4-8.3-1.4-16.5-5.4-24c-0.9-1.6-1.9-3.1-2.8-4.7c-2.7-3.9-6-7.2-9.9-10c-2.4-1.3-4.4-3-6.8-4.2c-5.1-2.7-10.4-4.5-16-5.9
			c-7.4-1.9-14.8-4-22.2-5.6c-8.3-1.8-16.7-2.8-25.2-3.8c-10.3-1.3-20.5-2-30.9-1.9c-0.2,0-0.4,0-0.6,0c-1.1,0-1.8-0.5-1.8-1.6
			c0-1.2,0.6-1.8,1.8-1.8c6.1-0.1,12.2,0.1,18.3,0.5c6.5,0.4,13,1.1,19.5,2c1.4,0.2,2-0.3,2.2-1.7c0.7-4.1,1.1-8.3,2-12.5
			c0.3-0.5,0.7-0.7,1.2-0.9c1-0.2,2-0.4,2.9,0.2c0.6,2.5-0.4,4.8-0.7,7.2c-0.3,2.4-0.5,4.7-1,7.1c-0.3,1.4,0.2,2,1.6,2.2
			c5.8,0.7,11.6,1.9,17.4,3.1c9.6,2,19,4.4,28.1,7.9C251.3,364.5,254.2,365.8,256.7,367.8z"/>
		<path class="st0" d="M73.2,430.4c3.6,3,7.3,5.7,11.9,7c3.1,0.9,6.3,1.5,9.5,1.5c32.9,0,65.7,0,98.6,0c0.2,0.8-0.3,1.4-0.3,2.1
			c-39.3,0-78.6,0-118,0c-1.5,0-1.8-0.3-1.7-1.7C73.3,436.3,73.2,433.3,73.2,430.4z"/>
		<path class="st6" d="M277.4,441c1.5-5.3,2.4-10.7,2.9-16.2c0.6-6.5,0.7-13,0.1-19.5c-0.7-7.4-2.8-14.3-6.7-20.6
			c-0.3-0.5-0.6-1.1-0.9-1.6c0.9-0.3,1,0.5,1.3,1c4.6,7.5,6.6,15.7,7.3,24.5c0.8,11-0.9,21.8-3,32.5C277.9,441,277.7,441,277.4,441z
			"/>
		<path class="st7" d="M268.5,383.2c4,4.8,5.9,10.5,7.2,16.5c1.4,6.9,1.7,13.9,1.2,21c-0.4,6.4-1.6,12.8-3.2,19
			c-0.1,0.4-0.1,0.8-0.2,1.2c-0.1,0-0.3,0-0.4,0c-0.1-2.7,0.9-5.2,1.4-7.8c1.4-7.2,2.3-14.5,1.9-21.9c-0.4-6.5-1.2-13-3.5-19.1
			c-1-2.6-2.5-5-3.9-7.5C268.8,384.3,268.4,383.8,268.5,383.2z"/>
		<path class="st8" d="M90.1,311.6c0-0.1-0.1-0.2,0-0.4c1.2-2.7,1-5.6,1.2-8.4c0.8-9.7,1.6-19.3,2.5-28.9c0.8-9,1.8-18,3.1-26.9
			c1.9-13.6,4.3-27.1,8.5-40.2c0.5-1.4-0.1-1.8-1-2.5c-7.9-6.4-14-14.1-16.8-24c-3-10.7-1.4-21,3.1-31c4.7-10.6,11.8-19.5,20.2-27.3
			c3.2-3,6.6-6,9.9-8.9c10-8.9,16.4-19.8,19.7-32.7c2-7.9,5.2-15.2,10.3-21.7c9-11.6,20.7-19.4,34.8-23.1
			c16.3-4.3,32.3-3.4,47.5,4.5c5.3,2.7,9.9,6.3,13.6,11.1c-0.7,0.1-1.2,0.3-1.4,1.2c-2.2,9.1-7.1,16.6-13.3,23.5
			c-6.3,7-13.6,12.6-22.2,16.5c-2.2,1-4.5,1.7-6.8,2.4c-1.8,0.5-3.2,0.1-4.4-1.5c-2.7-3.6-6.1-6.2-10.6-7.2
			c-5.1-1.2-10.2,1.6-12.1,6.5c-2.3,6-0.6,15.2,6.4,20.3c2.4,1.8,4.9,3.3,7.7,4.4c0.9,0.4,1.9,0.7,2.7,1.1c0.5,0.3,1,0.6,1,1.2
			c-0.1,0.7-0.6,1-1.2,1c-3.8,0-4.8,2.7-5.9,5.7c-4.1,10.8-10.1,20.6-17.9,29.2c-0.8,0.9-1.1,1.5-0.2,2.5c6.2,6.5,13,12.3,21.6,15.5
			c4.2,1.6,8.6,2.5,13,2c4.6-0.5,8.3-2.5,10.2-7.1c0.3-0.7,0.4-1.5,1.3-1.8c3.1,1.5,6.3,3,9.4,4.5c1.1,2.3,2.6,4.3,3.7,6.6
			c3,6.2,4.3,12.8,5.5,19.4c1.5,8.4,2.5,16.9,2.4,25.4c-0.1,11.5-2,22.8-5.2,33.9c-2.5,8.6-5.8,16.9-8.2,25.6
			c-0.7,2.6-0.5,2.9,2.2,2.5c4-0.6,8-0.4,12-0.6c10.1-0.6,20.2-1.2,30.3-2.1c2.7-0.2,5.3-0.5,8-0.7c6.1-0.4,11.6-2.9,17.2-5
			c8.8-3.3,17.6-6.9,26.4-10.2c3.4-1.3,6.9-1.5,10.4-0.4c0.5,0.2,1.1,0.3,1.6,0.4c8.7,0.7,15.2,5.5,21.2,11.3c2.8,2.7,5.6,5.5,7.9,8
			c-5.6-6.9-11.1-14.5-18.7-20.3c-0.2-0.2,0,0.1-0.2-0.1c-0.8-0.9-2-1.8-0.9-3c1-1.1,2.1-0.1,2.9,0.6c5.8,5,11.1,10.4,15.7,16.5
			c0.2,0.3,0.4,0.6,0.6,0.8c0.9,1.2,1,0.1,1.3-0.5c0.2-0.2,0.5-0.3,0.8-0.4c5.2-0.2,10.4-0.5,15.6,0c3.4,0.3,6.4,2.5,9.5,3.9
			c11.6,5.2,23.3,10.3,34.9,15.4c7.3,3.2,14.6,6.5,22,9.7c2,0.9,2.1,1.4,0.6,2.7c-4.2,0.3-8.3,0.1-12.5,0.2
			c-1.8,0.1-3.6-0.2-5.4,0.3c-2.9,0.3-5.7,0.1-8.6,0.1c-1.7,0.1-3.3-0.2-4.9,0.3c-3,0.3-6,0.1-9,0.1c-1.5,0-3.1-0.2-4.6,0.3
			c-0.3,0-0.6,0.1-0.8,0.1c-7.4-0.2-14.8,0.5-22.3,0.5c-4.3,0-8.5,0.4-12.8,0.3c-1.7,0.1-3.3-0.2-4.9,0.3c-2.5,0.3-5,0.1-7.5,0.1
			c-5.1,0.7-9.4-1.1-13.5-4c-4.7-3.3-9.7-6.2-14.6-9.3c-0.6-0.4-1.3-0.6-1.6-1.3c0.3-1.1,1.3-1.2,2.2-1.3c5.5-0.5,10.9-0.3,16.2,1.8
			c3.5,1.4,7.1,2.8,10.6,4.2c0.8,0.3,1.6,0.7,2.4,0.7c1.3,0,2.1-0.7,2.6-1.9c0.5-1,0.2-1.9-0.6-2.7c-2.2-2-4.4-4-6.7-5.8
			c-4.6-3.7-9.8-5.3-15.6-5.8c-3.2-0.3-6.3-0.7-9.5-0.9c-1,0-2.1-0.2-2.1-1.6c0.1-1.2,1.1-1.6,2.1-1.6c2.5,0,5,0.4,7.6,0.5
			c1.3,0.1,2.6,0.4,4,0.5c7.5,0.6,13.4,4.4,18.8,9.3c1.4,1.2,2.8,2.3,4.1,3.7c0.6,0.6,1.3,1.6,2.3,0.6c0.9-0.8,0.8-1.9,0.1-2.9
			c-1.4-2-3.2-3.8-5-5.4c-3.6-3.1-7.1-6.2-11.1-8.8c-1.2-0.8-2.6-1.5-4-1.9c-5.2-1.3-10.4-2.6-15.8-2.6c-0.4,0-0.7,0-1-0.1
			c-1-0.2-1.8-0.7-1.7-1.8c0.1-1.2,1.1-1.5,2.2-1.5c3.4,0.1,6.7,0.8,10.1,1.2c7.9,0.9,14,5,19.8,10.1c2.1,1.8,4.1,3.6,6,5.6
			c0.4,0.4,0.6,1,1.3,0.9c0.3-0.9-0.3-1.5-0.8-2c-5.3-6.4-11.4-11.9-18-16.8c-0.6-0.5-1.3-0.9-2-1.1c-4.6-1.6-9.4-2.5-14.2-3.3
			c-1.9-0.3-3.8,0.3-5.6,1c-10,3.6-19.9,7.5-29.8,11.5c-6,2.4-12.1,3.5-18.5,4c-6.6,0.6-13.2,1.1-19.8,1.5c-6.7,0.4-13.5,1.1-20.2,1
			c-1.3,0-2.7,0-4,0.4c-10.7,0.1-21.5,0.2-32.2,0c-1.9-0.7-2.9-2.2-3.7-3.9c-3.1-6.9-5.7-13.9-8-21.1c-4.3-13.5-8-27.1-11.5-40.9
			c-2.3-9.2-4.1-18.4-7.2-27.4c-1.9-5.4-4.6-10.3-8.6-14.4c-7.3-7.3-17.4-9.2-27-3.2c-9.3,5.9-14.5,14.6-16.9,25.3
			c-2.1,9.5-1.4,18.9,0.9,28.2c3.8,15.5,9.4,30.3,15.8,44.8c5.1,11.7,10.9,23,17.9,33.7c1.9,2.9,4,5.8,6.2,8.5
			c0.5,0.6,1.4,1.1,0.7,2.1c-0.7,0.6-1.5,0.3-2.2,0.3c-10.3-0.2-20.6-0.7-30.9-2c-9.2-1.1-18.4-2.5-27.4-4.8
			C91.9,312.3,90.9,312.3,90.1,311.6z"/>
		<path class="st9" d="M214.7,166.3c-2.7,9.2-11,10.8-19.5,9c-8.9-1.9-16.1-6.8-22.7-12.8c-1.7-1.6-3.2-3.3-4.9-4.9
			c-0.8-0.7-0.8-1.1-0.1-2c9-9.7,15.8-20.8,19.8-33.5c0.2-0.8,0.6-1.3,1.5-1.4c1.6-0.2,3.1-0.8,4.9-1.2c-1.3-1.3-2.8-1.4-4.1-2
			c-5.3-2.4-10.2-5.2-13-10.6c-2.2-4.3-3.1-8.9-1.7-13.7c2.1-7.1,8.6-10.2,15.5-7.4c3.5,1.4,6.5,3.8,8.6,6.9c1,1.4,2.1,1.6,3.6,1.2
			c7-1.8,13.2-5.2,18.8-9.6c9.5-7.3,17.1-16.3,21.6-27.6c0.9-2.2,1.5-4.4,1.7-6.7c0.8-0.1,1.1,0.6,1.7,0.8c3.2,4.1,6,8.4,8,13.2
			c0.7,1.7,1.7,3.3,2.4,5.1c1.7,4.8,3.2,9.6,3.6,14.7c0.5,1.7-0.2,3.4,0.4,5.1c0.1,3.8,3.2,5.5,5.2,8c2.1,2.6,4.5,5,6.7,7.6
			c1.3,1.5,2.4,3.2,2.5,5.4c0.1,2.2-1,3.4-2.8,4.2c-2.5,1.1-5.1,1.8-7.7,2c-1.8,0.2-2.3,0.9-2.7,2.5c-1.4,7-3.4,13.9-6.8,20.2
			c-1.6,3-3.4,6-5.7,8.6c-4.7,5.5-11,6.6-17.7,6.3c-3.7-0.2-7.1-1.3-10.5-2.8c-2.3,0-4-1.5-5.9-2.5c-0.7-0.4-1.3-1.2-2.1-0.7
			c-0.6,0.4-0.4,1.3-0.4,2c-0.1,3.6,0.8,6.9,2,10.2c0.3,0.7,0.8,1.3,0.4,2.2C215.7,163.6,215.1,165,214.7,166.3z"/>
		<path class="st10" d="M443.8,309.8c1.2-1.2-0.3-1.2-0.7-1.4c-3.9-1.8-7.8-3.5-11.7-5.2c-17.7-7.8-35.3-15.7-53-23.5
			c-1.4-0.6-2.8-0.8-4.3-0.8c-4.6,0.1-9.1,0.2-13.7,0.2c-0.9-0.8-1.4-1.8-1.1-3.1c5.1-0.6,10.3-0.4,15.4-0.4c1.4,0,1.9-0.4,2.3-1.7
			c8.8-28.2,17.6-56.3,26.5-84.5c1.2-3.8,2-4.5,6-4.4c18,0.4,36,0.9,54,1.4c7.9,0.2,15.7,0.6,23.6,0.9c1.3,0.3,2.7,0.1,4,0.3
			c2,0.3,3,1.2,3.2,3.2c0.1,1.1-0.1,2.1-0.4,3.1c-4.3,14.3-8.7,28.6-13,42.9c-4.4,14.5-8.8,29-13.2,43.4
			c-3.3,10.7-6.6,21.4-9.8,32.1c-0.3,1.1-0.5,2.2-1.6,2.9c-0.7,0.6-1.5,1.1-2.5,1c-3.9-0.2-7.7,0.6-11.6,0.5
			c-7.2-0.2-14.3,0.4-21.5,0.5c-8.8,0.2-17.5,0.5-26.3,0.8c-5,0.2-10,0-14.9,0.4c-4.4,0.4-8.7,0.3-13.1,0.3c-0.9,0-1.7,0.2-2.5,0.4
			c-7.7-0.3-15.3,1-23,0.1c0.9,0,1.7,0,2.6,0c0.3,0.1,0.5,0.2,0.4,0.5c-0.2,0.4-0.5,0.5-0.9,0.5c-5.8-0.2-11.9,1.6-17.2-2.8
			c-4.7-3.9-10.1-6.8-15-10.6c-0.4-0.3-1-0.5-1.2-1.1c0.2-1.7,1.8-2,2.7-2.9c0,0,0-0.1-0.1-0.2c0,0-0.1-0.1-0.2-0.1
			c0-0.8,0.6-1,1.1-1.4c1.7-1.1,3.5-2.1,5.3-2.9c0.7-0.3,1.4-0.7,2.2-0.2c6.5,4,13,7.9,19.4,12.1c2.5,1.6,4.9,2.5,7.8,2.1
			c0.6-0.1,1.3,0,1.9,0c-1.5,1.3-3.3,0.1-4.5,0.6c3.9,0.2,8.1-0.5,12.4-0.5c2.9,0,5.9-0.2,8.8-0.3c13.1-0.4,26.3-0.8,39.4-1.3
			c5.3-0.2,10.5-0.4,15.8-0.5c7.1-0.1,14.2-0.5,21.3-0.4C443.2,310.1,443.6,310.2,443.8,309.8z"/>
		<path class="st11" d="M359.3,276c0.5,1,1,2,1.1,3.1c0.5,0.8,0.6,1.8-0.3,2.2c-0.7,0.3-1-0.7-1.4-1.3c-4.8-6.6-10.5-12.5-16.8-17.7
			c-0.6-0.5-1.3-1.5-2.1-0.5c-0.7,0.9,0.3,1.6,0.9,2.1c7.6,5.8,13.3,13.4,19.2,20.6c0.6,0.8,0.6,0.8,0.5,2.8c-1.7-2.3-3.5-4-5.2-5.8
			c-4-4.2-8.4-7.9-13.1-11.3c-3.3-2.4-7.2-2.5-10.8-3.7c-6.2-2.2-11.9-0.8-17.7,1.6c-9.4,3.8-19,7.3-28.4,11.1
			c-5.2,2.1-10.7,2.4-16.1,2.9c-9.2,0.8-18.5,1.4-27.8,2c-6.8,0.4-13.6,0.6-20.6,0.9c1.5-6.3,3.7-12.2,5.7-18.2
			c3.1-9.1,5.8-18.3,7.2-27.9c1.5-9.9,1.8-19.8,0.7-29.9c-0.9-8.1-2.1-16.1-4.4-24c-1.4-4.8-3.3-9.4-6.4-13.4
			c-0.6-0.8-0.7-1.2,0.5-0.9c7.3,3.9,11.6,10.2,14.5,17.7c1.7,4.6,2.9,9.4,4.3,14.2c2,7.2,3.4,14.5,4.8,21.8
			c2.4,12.9,5,25.7,6.7,38.7c0.1,0.7,0.2,1.4,0.3,2.1c0.1,0.1,0.1,0.3,0.2,0.3c3.5,0.1,7.1,0.3,10.6-0.1c8.5-0.9,17.1-1.5,25.5-2.8
			c4-0.6,7.7-2.4,11.6-3.7c7-2.4,14-4.4,21.3-5.3c5.3-0.7,10.3,0.9,15.2,2.6C348.6,259.9,354.5,267.4,359.3,276z"/>
		<path class="st12" d="M456.3,315.1c2.5-6.8,4.4-13.7,6.5-20.6c10.2-33.3,20.3-66.6,30.5-99.9c0.3-0.9,0.6-1.8,0.7-2.6
			c0.3-2.3-0.7-3.5-3-3.9c-1.2-0.2-2.5,0-3.7-0.7c2.4,0,4.8-0.4,7.1,0.3c3,0.8,4,2.4,3,5.4c-4,13.4-8.1,26.7-12.2,40.1
			c-4.9,16.2-9.9,32.4-14.8,48.6c-0.1,0.5-0.2,1-0.3,1.4c-3.1,9.9-6.1,19.8-9.2,29.7c-0.4,1.3-1,2.6-1.2,4c-0.4,2.3-1.9,3-4,3.1
			c-4.5,0.1-9,0.2-13.5,0.3c-16.7,0.6-33.5,0.9-50.2,1.4c-19.6,0.6-39.2,1.3-58.9,2c-1.7,0.1-3.2-0.3-4.7-1.4
			c-6.4-4.6-12.8-9.1-19.2-13.6c-0.6-0.4-1.7-0.7-1.6-1.5c0.1-0.9,1.2-0.9,2-1.3c0.7,0.1,1.2,0.4,1.7,0.7c5.7,4,11.4,7.9,17.1,11.9
			c1.5,1.1,3,1.6,4.9,1.5c3.6-0.2,7.2,0.2,10.7-0.5c2.7-0.6,5.4-0.2,8.1-0.4c3.8-0.3,7.7-0.4,11.5-0.3c0.8,0.1,1.5-0.3,2.3-0.2
			c1.8-0.1,3.6,0.2,5.4-0.2c11.3-0.1,22.7-0.8,34-0.9c0.6,0,1.2-0.2,1.9-0.2c2.2-0.1,4.4,0.2,6.6-0.2c2.5,0,4.9,0,7.4-0.2
			c1.8-0.1,3.6,0.2,5.4-0.2c2.3-0.1,4.6,0.2,7-0.2c2.2-0.2,4.4,0.2,6.6-0.2c3-0.1,5.9,0.1,8.9-0.2c1.7,0,3.3,0.1,5-0.1
			C454.7,316.1,455.7,316,456.3,315.1z"/>
		<path class="st13" d="M215.6,162.1c-2.1-4.3-3.2-8.9-3-13.7c0.1-1.8,0.6-2.1,2.2-1.1c2.2,1.4,4.4,2.7,6.8,3.7
			c-1.8,3-3.1,6.2-4.7,9.3C216.6,160.9,216.3,161.7,215.6,162.1z"/>
		<path class="st14" d="M265.3,265.5c-3.5,0.7-6.9,0.4-10.4,0.2c-0.1,0-0.3-0.3-0.4-0.4C258.1,265.7,261.7,265.3,265.3,265.5z"/>
		<path class="st15" d="M260.9,89c-0.6-1.7-0.5-3.4-0.4-5.1C261.1,85.6,260.9,87.3,260.9,89z"/>
		<path class="st11" d="M320.6,298.3c-3.2,0.9-5.9,2.8-8.7,4.5c-4.5,2.4-8.6,5.9-13.8,6.9c-3.1,0.6-6.2,1.5-9.3,1.4
			c-4.9-0.3-9.4,0.9-13.9,2.7c-8.1,3.2-16.3,6.2-24.6,8.9c-0.2,0.1-0.3,0.2-0.5,0.3c-3.8,0.7-7.3,2.3-10.9,3.5
			c-10.3,3.4-20.7,6.7-31.3,8.8c-0.4,0.1-0.8,0.2-1.1,0.5c-1.1,0.1-2.1,0.8-3.3,0.4c-1,0-2.1,0-3.1,0.1c-4.6,1.4-9.3,0.6-14,0.6
			c-0.7,0-1.4-0.2-2.1,0c-3.4,0-6.6-1.2-9.9-2.2c-4.6-1.4-8.7-3.9-12.2-7.3c-2.8-2.7-5.5-5.4-8.3-8.1c-0.1-0.1-0.2-0.2-0.1-0.2
			c0-0.1,0.1-0.1,0.1-0.1c-9.6-11.3-16.4-24.3-22.7-37.6c-8-17-14.6-34.5-19.1-52.8c-2.7-11.1-2.7-22.2,1.1-33
			c3.4-9.5,9.4-17.2,18.9-21.4c8.9-4,19-1.3,25.4,6.1c5.9,6.8,8.6,15,10.7,23.5c5.3,21.7,10.6,43.3,17.8,64.4
			c1.7,5,3.6,9.9,5.8,14.7c0.7,1.4,1.5,2.7,2.7,3.7c2.3,1,4.8,0.6,7.2,0.5c7-0.3,13.9-0.1,20.9-0.1c2.6,0,5.3,0,8,0
			c-1-0.2-2,0.3-2.9-0.3c1-0.5,2.1-0.3,3.1-0.3c12.6-0.3,25.1-1.6,37.7-2.2c11.7-0.5,22.3-4.7,32.9-9c5.9-2.4,11.9-4.6,17.9-6.9
			c2.8-1.1,5.5-1.4,8.5-0.6c2.1,0.6,4.2,1.1,6.4,1.4c5.4,0.8,9.5,4,13.4,7.5c4.5,3.9,8.8,8.1,12.6,12.7c0.3,0.4,0.7,0.8,0.8,1.2
			c0.3,0.7-0.1,1.5-0.6,1.9c-0.7,0.6-0.9-0.4-1.2-0.8c-4.4-4.8-9.5-8.8-14.8-12.6c-3.9-2.8-8.5-3.1-12.9-4c-2.8-0.6-5.7-0.9-8.6-1.1
			c-0.9-0.1-1.9-0.2-1.9,0.9c-0.1,1.1,0.9,1.2,1.8,1.2c5.1-0.1,10,1.2,15,2.3c2.3,0.5,4.5,1.4,6.5,2.9c5.5,4,10.8,8.3,15.3,13.5
			c0.9,1.1,1.3,2.1,0.6,3.4c-1,1.9-1.8,2-3.3,0.5c-3-3-6.4-5.7-9.8-8.4c-4.4-3.4-9.4-4.5-14.7-5.1c-3.1-0.4-6.2-0.6-9.2-0.8
			c-0.9-0.1-2.5-0.5-2.5,1c0,1.5,1.5,0.9,2.4,1c5.7,0.3,11.4,0.7,16.9,2.3c4.5,1.3,8,4.5,11.6,7.5c0.9,0.8,1.7,1.7,2.6,2.5
			c2,1.8,2.1,2.4,0.8,4.4c-1.1,1.7-2.4,2.1-4.5,1.2c-4.9-2.1-9.8-4.3-15-5.6C330.3,297.2,325.4,297,320.6,298.3z"/>
		<path class="st7" d="M199.1,336.6c-0.7,4.5-1.4,9-2,13.5c-0.1,1.2-0.5,1.4-1.5,1.2c-3.7-0.6-7.4-1-11.1-1.4
			c-5.5-0.5-10.9-1-16.4-1.1c-3.6-0.1-7.2-0.1-10.8-0.1c-1,0-2-0.1-2,1.5c0.1,1.4,1,1.2,1.9,1.2c10.3,0.2,20.6,0.8,30.9,2
			c10.5,1.3,21,2.5,31.2,5.2c8.9,2.3,18,4.2,26.7,7.6c4.5,1.8,8.7,4,12.5,7.2c-0.6,0.1-1.1-0.2-1.5-0.6c-6.5-4.7-13.8-7.4-21.5-9.3
			c-7.4-1.9-14.7-4-22.2-5.6c-5.4-1.2-10.9-1.8-16.3-2.6c-5.4-0.8-10.8-1.4-16.2-2.1c-1.9-0.2-3.9-0.3-5.9-0.4
			c-5.8-0.4-11.6-0.7-17.5-0.5c-1.5,0-2.7-0.2-2.7-2.1c0-1.8,1.1-2.1,2.6-2.2c7.7-0.2,15.3,0.5,22.9,0.9c4.4,0.3,8.8,0.7,13.1,1.6
			c2.4,0.5,2.8,0.1,3.2-2.4c0.5-3,1-6.1,1.6-9.1c0.4-1.9-1-1.6-2.1-1.6c-0.1-0.2-0.1-0.4,0.1-0.6
			C197.3,337.1,198.1,336.1,199.1,336.6z"/>
		<path class="st16" d="M153.5,318.9c0,0.1,0,0.3,0,0.4c-4,0.8-8.1,0.5-12.1,0.2c-3.1-0.3-6.3-0.3-9.4-0.6
			c-8.9-0.8-17.8-1.8-26.6-3.3c-4.6-0.8-9.2-1.8-13.7-3c-0.6-0.2-1.5,0.1-1.6-1c9,2.4,18.2,4.1,27.5,5.2c11.5,1.4,23.1,2.1,34.7,2.2
			C152.7,319,153.1,318.9,153.5,318.9z"/>
		<path class="st17" d="M199.1,336.6c-1,0.1-1.9,0.3-2.9,0.4c-3.6,0.2-7.2,0.3-10.7-0.1c-0.5,0-1.1-0.1-1.6-0.1
			c1-0.6,2.2-0.3,3.3-0.3c4.3,0,8.6,0.2,12.8-0.3C199.7,336.4,199.4,336.5,199.1,336.6z"/>
		<path class="st18" d="M185.5,337c3.6,0,7.2,0,10.7,0.1c0,0.1,0,0.2-0.1,0.3C192.6,337.3,189,337.8,185.5,337z"/>
		<path class="st19" d="M496.8,352.1c-1.3,0.4-2.6,0.3-4,0.3c-68.6,0-137.3,0-205.9,0c-1.5,0-2.9-0.2-4.4-0.3
			c0.7-0.6,1.5-0.3,2.2-0.3c69.9,0,139.9,0,209.8,0C495.3,351.8,496.1,351.5,496.8,352.1z"/>
		<path class="st20" d="M203.1,336.2c1.1,0,2.1-0.7,3.3-0.4c0,0.1,0,0.3-0.1,0.4c-2,0.2-3,1-3.1,3.2c-0.2,3.6-0.9,7.2-1.5,10.8
			c-0.2,1.4,0.3,1.9,1.5,2c5.7,0.7,11.3,1.8,16.9,3c11.3,2.5,22.7,5,33.2,10.1c2.4,1.2,2.9,1.6,3.4,2.5
			c-11.7-6.8-24.8-9.4-37.8-12.3c-5.6-1.3-11.3-2.3-17.1-3.1c-1.8-0.2-1-1.7-0.9-2.5C201.6,345.4,202.4,340.8,203.1,336.2z"/>
		<path class="st21" d="M443.8,309.8c0.3,0.8-0.4,0.5-0.6,0.5c-4.6-0.2-9.3,0.4-13.9,0.4c-7.6-0.1-15.2,0.4-22.7,0.6
			c-8.8,0.2-17.5,0.6-26.3,0.8c-9.1,0.3-18.2,0.7-27.3,0.9c-3.1,0.1-6.1,0.4-9.8,0.3c2.5-0.7,4.6,0.1,6.5-0.7
			c2.6-0.1,5.3-0.1,7.9-0.2c1.6-0.3,3.2,0.1,4.8-0.3c12.1-0.3,24.2-0.7,36.2-1c1.4-0.4,2.9,0.1,4.4-0.3c3-0.1,6.1-0.1,9.1-0.2
			c1.6-0.3,3.2,0.1,4.8-0.3c2.9-0.1,5.8-0.1,8.7-0.2c1.7-0.4,3.5,0.1,5.2-0.3C435.2,309.9,439.5,309.9,443.8,309.8z"/>
		<path class="st22" d="M227.4,286.6c1.4,0,2.9,0,4.3,0c0,0.2,0,0.3,0,0.5c-3.4,0-6.7,0-10.1,0c-5.4,0-10.8-0.1-16.2,0
			c-2.9,0.1-5.8,0.5-8.8,0.4c-0.9,0-1.8-0.2-2.6-0.6c0,0,0-0.1,0-0.2c0-0.1,0.1-0.1,0.1-0.2C205.3,286.6,216.3,286.6,227.4,286.6z"
			/>
		<path class="st10" d="M430.8,310c-1.7,0.7-3.5,0.3-5.2,0.3C427.3,309.9,429.1,309.9,430.8,310z"/>
		<path class="st10" d="M362.4,312.1c-1.6,0.7-3.2,0.3-4.8,0.3C359.1,312,360.7,312,362.4,312.1z"/>
		<path class="st10" d="M416.9,310.4c-1.6,0.7-3.2,0.3-4.8,0.3C413.7,310.2,415.3,310.3,416.9,310.4z"/>
		<path class="st10" d="M402.9,310.8c-1.4,0.7-2.9,0.3-4.3,0.3C400,310.8,401.5,310.7,402.9,310.8z"/>
		<path class="st23" d="M247.4,76.1c2.7-0.1,5.2,0.8,7.3,2.7c0.8,0.7,1.6,1.6,0.9,2.7c-0.7,1.2-1.7,0.8-2.7,0.3
			c-5-2.5-9.4-1.6-13.1,2.9c-0.8,1-1.9,1.4-2.9,0.9c-1.4-0.6-0.6-1.9-0.3-2.8C238,78.6,241.9,76.2,247.4,76.1z"/>
		<path class="st24" d="M250.7,132.8c-5.5,0.1-10.2-1.6-13.5-6.3c-0.1-0.2-0.3-0.3-0.4-0.5c-0.4-0.9-1.4-1.9-0.4-2.8
			c1-0.9,2.1-0.1,2.8,0.6c3.7,3.3,8.1,4.9,12.8,5.9c1.3,0.3,2.5,0.1,3.8,0.2c0.7,0,1.5,0.2,1.7,1c0.1,0.8-0.7,1.1-1.4,1.4
			C254.4,132.9,252.5,132.8,250.7,132.8z"/>
		<path class="st4" d="M245.3,96.1c0.2-1.4-0.2-2.8-0.6-4.2c-0.2-1-0.4-2.1-0.2-3.1c0.2-1,0.8-1.8,1.9-2.1c1.1-0.2,1.9,0.1,2.6,1
			c2,2.5,2.7,9.5,1.1,12.3c-1,1.8-2.9,1.8-4,0.1C245.4,99,245.2,98.4,245.3,96.1z"/>
		<path class="st25" d="M194.1,102.8c0,0.6,0.1,1.2-0.5,1.5c-0.6,0.3-1.3,0.2-1.7-0.3c-0.4-0.4-0.8-0.8-1.1-1.3
			c-1.6-2.6-3.6-5-6.1-6.9c-0.6-0.5-1.5-1.1-0.7-2.1c0.5-0.7,1.3-1,2.2-0.8C189.3,93.7,194,99.5,194.1,102.8z"/>
		<path class="st26" d="M411.2,195.2c11.5,0.4,23.1,0.7,34.7,1.1c11.5,0.4,23.1,0.8,34.6,1.2c2.5,0.1,2.7,0.3,1.9,2.7
			c-4.3,13.8-8.5,27.6-12.8,41.5c-5.5,17.7-10.9,35.4-16.3,53.2c-0.6,2-1.3,2.4-3.3,1.6c-21-8.2-42.1-16.2-63.1-24.3
			c-1.6-0.6-1.9-1.3-1.3-3c7.7-24,15.3-48,22.9-72.1C408.9,195.8,409.3,194.4,411.2,195.2z"/>
		<path class="st27" d="M421.1,317.4c-2.5,0-5,0.1-7.5,0.1c-2.1,0.4-4.3-0.1-6.4,0.3c-12.1,0.3-24.2,0.7-36.2,1
			c-1.7,0.4-3.5-0.1-5.2,0.3c-0.7,0-1.4,0-2.1,0c-0.1-0.1-0.2-0.1-0.1-0.2c0-0.1,0.1-0.1,0.1-0.1c0.8-0.1,1.5-0.4,2.3-0.4
			c8-0.2,16-0.2,24-0.5c9.3-0.4,18.6-0.6,28-0.9c4.1-0.2,8.3-0.2,12.4-0.3c8-0.3,16-0.6,24-0.8c0.9,0,1.2-1.1,2.1-0.8
			c-0.1,1.3-1.1,1.3-2,1.3c-1.7,0.3-3.5-0.1-5.2,0.3c-3.1,0-6.1,0.1-9.2,0.1c-2.1,0.4-4.3-0.1-6.5,0.3c-2.4,0-4.7,0.1-7.1,0.1
			C424.6,317.6,422.8,317,421.1,317.4z"/>
		<path class="st28" d="M363.6,318.8c0,0.1,0,0.2,0,0.3c-6.6,0.2-13.2,0.4-19.8,0.6c-1.5,0-3.1,0-4.6,0
			C347.4,319.4,355.5,318.5,363.6,318.8z"/>
		<path class="st10" d="M433.4,317c2.1-0.7,4.3-0.3,6.5-0.3C437.7,317.2,435.5,317.1,433.4,317z"/>
		<path class="st10" d="M407.2,317.9c2.1-0.7,4.3-0.3,6.4-0.3C411.5,318,409.3,317.9,407.2,317.9z"/>
		<path class="st10" d="M449,316.6c1.7-0.7,3.5-0.3,5.2-0.3C452.5,316.8,450.8,316.6,449,316.6z"/>
		<path class="st10" d="M421.1,317.4c1.7-0.7,3.4-0.3,5.2-0.3C424.6,317.5,422.8,317.5,421.1,317.4z"/>
		<path class="st10" d="M365.7,319.1c1.7-0.7,3.4-0.3,5.2-0.3C369.2,319.3,367.5,319.2,365.7,319.1z"/>
	</g>
</g>
</svg>
