<?xml version="1.0" encoding="utf-8"?>
<!-- Generator: Adobe Illustrator 24.1.2, SVG Export Plug-In . SVG Version: 6.00 Build 0)  -->
<svg version="1.1" id="Layer_1" xmlns="http://www.w3.org/2000/svg" xmlns:xlink="http://www.w3.org/1999/xlink" x="0px" y="0px"
	 width="1015.4px" height="736.9px" viewBox="0 0 1015.4 736.9" style="enable-background:new 0 0 1015.4 736.9;"
	 xml:space="preserve">
<style type="text/css">
	.st0{fill:#FEFEFD;}
	.st1{fill:#FEC6B0;}
	.st2{fill:#FEC2AA;}
	.st3{fill:#070909;}
	.st4{fill:#060707;}
	.st5{fill:#FEC4AD;}
	.st6{fill:#050706;}
	.st7{fill:#0D100F;}
	.st8{fill:#121514;}
	.st9{fill:#FDC6B0;}
	.st10{fill:#141718;}
	.st11{fill:#222626;}
	.st12{fill:#131616;}
	.st13{fill:#111415;}
	.st14{fill:#3A4042;}
	.st15{fill:#3F4648;}
	.st16{fill:#2B3032;}
	.st17{fill:#FCFCFC;}
	.st18{fill:#383F41;}
	.st19{fill:#32383A;}
	.st20{fill:#3D4445;}
	.st21{fill:#3B4244;}
	.st22{fill:#FBC0A8;}
	.st23{fill:#FAC8B0;}
	.st24{fill:#313638;}
	.st25{fill:#5B6262;}
	.st26{fill:#3E4648;}
	.st27{fill:#33393C;}
	.st28{fill:#232829;}
	.st29{fill:#242A2B;}
	.st30{fill:#363D3F;}
	.st31{fill:#3E4547;}
	.st32{fill:#686A62;}
	.st33{fill:#394043;}
	.st34{fill:#353B3C;}
	.st35{fill:#33383A;}
</style>
<g>
	<g>
		<path class="st0" d="M1023.9,384.4c0,169.1,0,338.3,0.1,507.4c0,3.7-0.8,4.6-4.6,4.6c-338.3-0.1-676.5-0.1-1014.8,0
			c-3.7,0-4.6-0.8-4.6-4.6C0.1,553.5,0.1,215.2,0-123c0-3.7,0.8-4.6,4.6-4.6c338.3,0.1,676.5,0.1,1014.8,0c3.7,0,4.6,0.8,4.6,4.6
			C1023.9,46.1,1023.9,215.2,1023.9,384.4z"/>
		<path class="st1" d="M145.5,681.3c-14.2-0.4-26.6-14-27.6-29.1c-1.5-23.9,6.2-45.2,18-65.2c10.5-17.8,22.2-35,35.8-50.8
			c14.1-16.4,29.1-32,44.9-46.8c18.6-17.5,37.5-34.7,56.6-51.7c13.8-12.3,26.4-25.8,39-39.3c19.3-20.8,38.7-41.6,56.6-63.6
			c5.5-6.7,10.4-13.8,17-19.5c7.4,6.2,15.8,5.6,24.5,3.7c19.3-4.3,38.2-10.2,57.5-14.9c5-1.2,9.6-3.7,14.7-4.5
			c14,6.2,22.1,17.3,26.3,31.7c1.9,6.3,0.5,12.5,0.6,18.7c-1.1,3.7-4.4,5.2-7.2,7.2c-9.5,6.7-19.3,13-29.4,18.8
			c-15.6,9-27.7,21.5-37.7,36.2c-0.8,1.2-1.6,2.5-2.6,3.7c-8.2,10.1-15.6,20.8-24.2,30.5c-13.3,14.8-26.9,29.4-42.1,42.4
			c-8.5,7.2-16.1,15.4-25,22.2c-22.8,17.2-47.4,31.5-71.9,46c-12.3,7.2-23.1,15.9-32.8,26.6c-10.9,11.9-21.7,23.8-33,35.4
			c-18.3,18.7-35.7,38-52.3,58.2C149.7,678.9,148.3,681.2,145.5,681.3z"/>
		<path class="st2" d="M503.9,368.3c-5.1,20.9-14.9,39.7-25.7,58.1c-9.8,16.9-22.8,31.3-35.6,46c-27,31-59.7,55-93.7,77.5
			c-26.2,17.3-52.5,34.4-76.8,54.3c-17,13.9-33.6,28.2-51,41.5c-17,13-34.7,25.1-55,32.7c-1.6,0.6-3.1,1.2-4.8,1.1
			c-1.2-1.8,0.3-2.7,1.2-3.7c17.3-19.3,33.2-39.8,51.7-58.1c10.4-10.4,20.5-21.3,30.6-32.1c9.3-10,20.3-17.7,32.3-24
			c23.3-12.3,45.8-26.1,66.1-42.7c18.3-15,36.5-30.3,52.7-47.9c13.9-15.1,26.2-31.4,39.5-46.9c5.8-6.9,10.9-14.2,16.8-21
			c9.9-11.4,22.8-18.7,35.6-26.2c3.6-2.1,7.1-4.3,10.7-6.3C500.2,369.4,501.7,367.8,503.9,368.3z"/>
		<path class="st3" d="M729.9,353.3c-22.6,2.5-39-8.7-53.8-24c-9.7-10-17.4-22.1-30.2-28.9c-2.5-1-4.8-4.5-7.5-0.5
			c-9.4,6.5-19.5,8.6-30.6,5.7c-1.5-3.3,0.6-4.1,3.2-4.5c2.8-0.4,5.6,0.4,8.4-0.4c4.1-2.2,9.2-1.9,13-4.9c3.2-2.6,3.3-3.2-0.5-4.9
			c-5.2-2.3-10.6-4-16.2-5c-5.3-1-7.6-3.3-7.1-6.7c0.7-4.3,4.9-7.5,9.7-6.6c5.5,1.1,11,2.6,16.1,5.1c8.7,4.4,16.5,10.1,23.6,16.7
			c8.8,8.1,17.4,16.5,25.2,25.6c8.5,10,18.9,17.4,31.7,20.7c5.1,1.3,10.4,2.1,15.7-0.1c7.3-3.1,10.8-9.9,7.4-17.1
			c-12.4-26.7-25.9-52.7-50.4-70.8c-1.6-1.2-3.1-2.5-3.9-4.5c-0.2-1.7-1.5-2.9-2.3-4.4c-0.6-1.2-1.3-2.6,0.9-3.1
			c21,15.4,38.8,33.6,50.2,57.3c3.4,6.1,6.7,12.1,10,18.2c-3.2-6.4-6.9-12.5-10.3-18.8c-11.3-23.7-29.6-41.3-49.9-57.1
			c-7.7-6-15.2-12.4-23.6-17.5c-7.9-4.8-16.2-8.3-25.3-9.9c-1.2-0.6-3.4-0.5-3.2-2.4c0.2-1.7,2.3-1.5,3.7-1.6c1.5-0.1,3-0.2,4.4-0.6
			c7-0.4,13.1,2.6,18.8,5.9c15,8.7,28.2,20,41.4,31.3c11.8,10.1,22.2,21.5,30.7,34.6c7.5,11.4,14.2,23.3,20,35.7
			c0.6,1.4,0.9,2.8,1.2,4.3c1.3,5.8,2.2,6.2,7.1,2.9c0.7-0.5,1.3-1,2-1.5c6.2-3.7,8.8-9.4,9.6-16.2c0-16.1-4.1-31.3-9.6-46.1
			c-7.3-19.7-16.6-38.5-29.6-55.2c-2.1-2.6-4.4-5-6.6-7.4c-2.2-2.4-4.8-4.6-5.4-8.2c2.2-2.2,4.1,0.1,6.2,0.4
			c9.1,7.1,16.1,16,21.6,25.9c9.2,16.6,17.7,33.5,23.1,51.8c3.5,12,6.3,24,6.8,36.6c-0.3-11.4-2.5-22.5-5.8-33.3
			c-6.7-22.4-16.2-43.6-29.4-63c-9.2-13.5-21.6-23.8-33.7-34.5c-1-0.9-2.2-1.5-2.7-2.8c-0.1-2.1,1.4-2.5,3-2.7
			c8.3,2.9,14,9.4,20.1,15.2c15.6,15,27,32.9,35.6,52.6c3,6.8,8.2,11.1,14.9,13.9c4.2,1.1,8.2,2.7,12.6,2.5
			c4.7-0.2,8.7-1.7,11.8-5.3c1.7-4.8,1.5-9.7-0.5-14.2c-7.1-15.8-11.5-32.7-20.1-47.8c-11-19.3-22.9-38.2-41-51.6
			c-15.5-11.5-32.8-16.9-51.8-7.4c-0.6,0.3-1.3,0.4-1.9,0.4c-1.4-0.4-3.7,0.3-3.8-1.9c-0.1-2.8,2.6-3.3,4.5-4.4
			c14.7-8.1,29.3-6,43.8,0.6c5.9,2.7,11.8,5.5,14.5,8.3c-16.5-11.1-35.7-20.5-58.6-8.9c-5,3.1-9.5,6.7-13.1,11.4
			c-3.6,4.6-6.1,9.9-9.1,14c1.2-1.7,3.2-2.2,5.6-0.8c1,3-2.2,5.1-1.6,8c-0.2,0.9-0.8,1.8-1.6,1.7c-4.1-0.6-8.4,0.5-12.5-1
			c-0.5-1.1-0.2-2.1,0.3-3.1c6.4-8.6,11.6-18.1,19-26.1c8.1-8.8,17.9-13.1,29.6-13.7c18.9-0.9,34.3,7.7,49.6,18c2-6,4-12.2,6.2-18.2
			c4.1-11.4,11.8-19.8,23.2-23.3c13-4,28.8,5,35.6,19c8.8,18.3,16.9,37,27.7,54.4c7.2,11.5,16.2,21.7,24,32.6
			c16.4,22.8,26.2,48.3,33.4,75.3c6.2,23.5,9.9,47.2,8.8,71.4c-0.9,19.1-2.9,38.1-4,57.2c-0.9,16-2.7,32.1-1.8,48.1
			c0.9,16.1,3.7,31.9,15.1,44.4c7.2,7.9,14.9,15.2,22.5,22.6c10.6,10.3,21.3,20.6,31.9,30.9c1,0.9,2,1.8,2.7,2.9
			c1.7,2.5,2.8,5.1-0.1,7.5c-2.7,2.2-5.3,2.1-7.9-0.6c-12.4-13-26-24.7-38.8-37.2c-9.4-9.1-18.7-18.5-25.6-29.8
			c-7.8-12.7-10.4-27-9.9-41.6c0.7-24.5,2.6-48.9,3.7-73.4c0.5-10.1,0.6-20.3,1.6-30.2c1.9-18.6-0.4-36.8-3.7-54.8
			c-3-16.2-7.7-32.2-14.2-47.6c-8.9-21-22.2-39-36.2-56.7c-10-12.8-17.5-27.2-24.3-41.8c-5.2-11.2-9.5-22.9-17-33
			c-1.2-1.6-2.5-3.1-4-4.5c-14.7-13.4-28.6-3.4-33.9,12.1c-1.9,5.7-4.1,11.4-4.7,17.6c-0.3,3-0.1,5.2,1.4,7.9
			c10.2,17.9,24.3,33.4,32.5,52.6c5.4,12.6,10.5,25.2,16.2,37.7c3.2,7,1.8,14.6-0.6,21.8c-1.3,6.6-6.8,8.8-12.1,11.1
			c-1.8,0.8-3.8,1.1-5.8,1.2c-6.2,1.7-12.2,0.5-18.1-1.4c-1.1-0.3-2.3-1.1-3.3-0.1c-1,1-0.2,2.2,0.1,3.3c1.7,5.7,3.4,11.5,4.6,17.4
			c1.2,5.8,3.3,11.3,4,17.4c1.5,13.3-4.5,22.7-13.7,30.9c-3.7,3.3-7.8,5.8-12.6,6.7c-3.7,0.7-6,2.6-8.2,5.7
			C743.5,348.5,738,353.2,729.9,353.3z"/>
		<path class="st4" d="M654.8,149c0,1.1,0.1,2.3,0.1,3.4c-3.8,2.1-8,3-12,4.6c-13.8,5.4-21.3,16.3-26,29.6
			c-1.7,4.8-2.5,9.8-3.5,14.8c1.6-8.3,3.6-16.4,7.5-24c3.1-6.1,7.6-10.9,12.6-15.3c4.3-3.8,6.3-3.7,9.7-0.7c0.1,1.4-0.8,2.1-1.8,2.8
			c-15.3,10.3-21.3,25.7-23.3,43.2c0.1,3.8-1.9,5-5.5,5.5c-20,2.9-33.6,16.6-36.3,36.1c-0.9,7.3-2.9,14.4-4.3,21.7
			c-1.5,3.9-1.9,7.7,0.6,11.4c1.9,5.8,5.5,10.4,9.5,14.9c0.3,1.8-0.4,3.3-1.3,4.8c-3.5-1.9-6.4-4.6-9.8-7.5
			c-2.7,5.9-5.1,11.7-8.1,17.3c-6.8,12.9-16.4,23.6-27.9,32.5c-0.9,0.7-1.8,1.4-2.8,2.1c-3.1,2.2-3.3,4.6-0.4,7.2
			c5.8,5.1,9.5,11.9,13.9,18.1c0.7,0.6,0.6,1.5,0.9,2.3c0.6,1.4,2.9,2.9,1.1,4.3c-1.9,1.4-3.3-0.9-4.3-2.2
			c-5.3-7-10.7-13.9-14.6-18.9c5.6,6.9,12.2,16.1,19.5,24.8c11.4,13.8,23.1,27.3,33.5,41.9c2.6,3.6,5.5,7,8.5,10.4
			c21.7,28.2,42.9,56.7,68.7,81.4c15.7,15.1,32.7,28.6,51.8,39.5c16.5,9.4,32.2,20.2,44.9,34.5c11.2,12.7,21.8,25.9,32.1,39.4
			c5.9,7.6,11.6,15.3,18,22.6c3.4,4,6.8,8,10.3,12c-3.5-4-7-8-10.4-12.1c-16.1-19.4-31-39.8-47.5-59c-10.9-12.7-23.6-23.4-38.2-31.7
			c-18.3-10.3-35.2-22.6-51.3-36c-11.1-9.3-20.9-20-30.4-30.9c-14.3-16.4-28-33.3-40.9-50.9c-2.2-3.1-4.9-5.9-7.1-8.9
			c-8.1-9.2-14.9-19.4-22.6-28.9c-4.6-5.6-9.4-11.1-14-16.7c-1-1.2-2-2.4-0.9-4c1.1-1.7,2.2-0.6,3.4,0l-0.3,0.2l0.3-0.3
			c1.2,2.1,2.6,3.9,4.6,5.3c11.3,12.1,20.7,25.7,30.9,38.8c16.5,21.1,32.9,42.3,50.7,62.4c17.1,19.3,35.8,36.6,56.9,51.5
			c6.8,4.8,14.5,8.4,21.7,12.6c17.4,10.1,31.9,23.5,44.5,39c9.4,11.7,19.3,23,28.8,34.6c8.2,10.1,15.8,20.8,24.2,30.8
			c7.6,9.1,16.2,17.5,23.1,27.2c1.8,2.5,1.7,4.7-0.4,6.6c-2.2,2-4.8,2.2-7.2,0.3c-0.8-0.6-1.4-1.5-2-2.2
			c-13.9-17-28.3-33.7-41.7-51.2c-15.5-20.2-31.1-40.4-49.9-57.8c-8.7-8.1-18.7-14.8-29.1-20.6c-22.7-12.6-42-29.4-60.5-47.3
			c-23.3-22.6-42.8-48.4-62.6-73.9c-16.5-21.3-32.7-42.9-50.9-62.8c-5.6-6.1-11-12.4-16.4-18.6c-1.9-2.2-3.4-2.7-5.6-0.3
			c-3.5,3.7-8.3,6-11.6,10c-10.2,6.1-20.4,12.1-30.6,18.2c-13,7.9-22.7,19.1-31.6,31.1c-1.8,2.4-3.8,4.5-5.7,6.8
			c-2.8-0.6-3.6-1.6-1.8-3.8c8.1-9.8,13.2-22.1,24.3-29.5c7.8-7.1,17-12.2,26.1-17.3c11.3-6.3,21.4-14,31.2-22.3
			c2.8-2.4,5.7-4.6,8.8-6.5c13-9.1,24.4-19.7,32.8-33.4c3.1-5,5.1-10.3,6.9-14c-7.3,19.5-21.7,35.1-40,47.5
			c-11.3,7.8-21,17.8-32.9,24.8c-9.6,5.6-19.4,10.8-28.3,17.5c-1.6,1.2-3.1,2.5-4.7,3.7c-9.1,5.8-13.5,15.5-19.9,23.5
			c-0.8,1-1.4,2.2-2.3,3.2c-0.8,1-1.9,2.2-3.3,1.5c-1.9-0.8-2-2.4-1-4.1c11.3-18.6,26.6-32.8,45.4-43.6c11-6.3,22.1-12.6,31.6-21.2
			c0.2-1.8,1.6-2.9,2.9-3.8c6.8-4.8,13-10.4,19.4-15.7c12.6-10.3,22.1-22.9,27.4-38.5c3.9-11.9-0.3-22.9-11.4-28.7
			c-2.3-1.2-4-1-5.8,0.7c-12.8,12.2-28.4,20.2-43.3,29.2c-4.5,2.7-8.4,6.7-14.3,6.6c-1.2-0.5-2.5-0.4-3.8-0.2
			c-1.7,0.3-2.8-0.5-2.5-2.5c6.5-4.3,13.9-6.8,20.7-10.7c13.7-7.9,27.1-16.2,38.3-27.5c1.3-1.3,2.6-2.6,3.6-4.2
			c9.3-11,17.1-22.8,21.8-36.5c4.7-13.6,4.7-26.6-3-39.2c7.6,12.7,7.6,25.8,2.8,39.5c-4.8,13.6-12.5,25.2-21.6,36.1
			c-7.6,9.5-17.3,16.4-27.3,22.8c-11.1,7.2-22.6,13.8-35,18.6c-0.9,0.4-1.8,0.9-2.8,0.8c-1.7-0.2-3.1-0.6-3-2.8
			c1.8-3.4-0.6-6.5-1.1-9.7c-2.2-14.2,0.1-27.9,4.2-41.4c5.9-19.7,12.2-39.3,22.7-57.1c5.3-9,11.2-17.4,21.3-22.2
			c9.6-4.6,18.6-4.4,28.3,0.1c14.9,6.9,25.1,22.2,23.5,37.8c-1.4,14.1-6.8,26.8-14,38.8c-1.1,1.8-2.1,3.7-3.3,5.5
			c-1,1.6-3.5,4-3.1,4.6c1.4,2.1,3.6,3.9,5.7,5.3c2.8,1.8,5.3,3.8,7.2,6.7c0.8,1.2,1.7,3.2,3.2,2.7c1.1-0.4,1.2-2.4,1.5-3.9
			c1.9-11.9,5-23.4,11.1-34c5.5-9.5,13.4-15.7,24-18.3c2.3-0.6,3.2-1.5,4.1-3.9c2.4-6.2,2.6-12.8,4.3-19.1
			C617.8,164.4,632.4,152.3,654.8,149z"/>
		<path class="st5" d="M729.9,353.3c7.7-3.4,15.5-6.8,19.1-15.3c0.7-1.6,2.3-1.6,3.8-1.9c17.6-3.1,29.1-18.4,28.1-36.2
			c-0.3-6.2-2.5-11.8-3.9-17.7c3.8-8.8,8.2-16.9,17.8-20.7c7.7-1,13.9-4.4,18.1-11.1c3.3,2.5,6.8,4.7,9.8,7.6
			c6.8,6.8,6.5,15.1,4.5,23.7c-2,8.9-7.6,15.8-13.5,22.3c-8.8,9.5-18.9,17.8-26.4,28.5c-12.1,17.1-14.6,36.2-12.6,56.4
			c1.1,10.8,3,21.3,7.5,31.3c0.9,2.1,0.4,2.9-1.7,3.6c-2.4,0.8-4.5,0.7-6.7-0.5c-17-9-31.9-20.5-41.4-37.6
			C726.5,375.4,726.6,364.4,729.9,353.3z"/>
		<path class="st6" d="M313.7,131.3c5.2-5.9,11.2-10.9,17.6-15.2c9.9-6.6,10.3-15.1,7.2-24.9c-5.5-16.7-16.8-26.7-34.7-27.5
			c-6.7-0.3-13.3,1.8-19.1,5.5c-6.5,4.1-12.4,8.9-18,14c-16.2,14.7-32.4,29.5-48,44.9c-28.9,28.4-51.8,60.7-64.5,99.6
			c-5.8,17.8-8.2,36.2-10.2,54.8c-1.6,15.4-3.9,30.7-6.8,46c-3.1,16.1-6.9,32-11.1,47.8c-7.3,27.3-20.6,51.2-40.6,71.3
			c-16.9,17-36,31.2-55.2,45.4c-2.8,2-5.5,2.2-7.5-0.3c-1.9-2.5,0.1-4.5,2-6.3c10.9-10.7,23.7-19.1,35.4-28.9
			c15.6-13.1,30.1-27.2,40.6-44.8c10.3-17.2,15.6-36.4,20.4-55.7c5.5-22.4,9.5-45,12.2-67.8c1.9-16.3,2.4-32.8,6.7-48.9
			c7.4-27.4,18.3-53.1,34.4-76.5c16.2-23.6,37.1-43,58-62.3C243.5,91,254.6,80.5,265.7,70c15.5-14.4,33-21,54.1-13.9
			c14.9,5,22.4,16.9,28,30.3c2.2,5.3,3.9,11.1,3.6,17.1c-0.1,3.4,2,1.1,2.8,0.8c9.5-3.4,19.1-3.2,28.8-0.9
			c19.5,4.6,33.7,27.5,29.3,47.2c-1,4.3-2.1,8.6-3.5,12.7c-2,1.8-3.6,3.4,0.9,3.5c1.9,0,3.4,0.5,3.4,2.6c0.1,2.1-1.6,2.7-3.3,3
			c-2,0.3-3.9,0.3-5.9,0.5c-5.1,0.5-6-0.8-4.6-6c4.4-5.4,6.5-12,7.8-18.6c2.1-10.3-3.2-31.1-18.6-37.7c-12.6-5.4-25.2-5.2-37.7,0.3
			c-8.2,3.6-15.9,8.2-22.7,14.3c-1.7,1.5-3.5,3.1-5.9,3.6c-1,0.3-1.9-2.3-3.2,0.2C318.3,130.9,316.5,133.1,313.7,131.3z"/>
		<path class="st7" d="M400,167.5c-0.9,3.2-1.3,5.8,3.6,4.3c2-0.6,4.2-0.3,6.4-0.4c1.2-0.1,2.5-0.3,2.3-1.9c-0.2-1.3-1.1-2-2.4-1.9
			c-0.5,0-1,0.1-1.4,0.3c-1.3,0.5-2.8,1.1-3.5-0.4c-0.8-1.7,1.2-2.4,2.1-3.4c0.4-0.4,1.2-0.4,1.8-0.7c-0.7,1.7-1.6,3.3,1.6,3.3
			c3.6,0,7.4-0.6,10.7,1.6c-0.1,2.8,4,1.3,4,4c-0.1,0.1-0.2,0.2-0.3,0.4c-0.1,0.1-0.3,0.2-0.4,0.3c8.4,0.7,14.1,6.3,19.5,11.7
			c7.6,7.6,9.5,17.4,7.8,27.7c-2.9,17.5-11.9,32.3-22,46.5c-6.2,8.7-12.4,17.2-19.2,25.4c-5.7,6.9-10.9,14.2-15.7,19.4
			c6.8-8.1,14.5-17.8,22.2-27.5c4.1-5.2,7.6-10.9,12-15.9c2.8-0.6,3.9,0.4,3,3.3c-9.6,14.6-21.3,27.5-32.2,41.1
			c-1.2,5.7-1.2,5.2,4.3,5c15.7-0.6,29.9-7.7,45.1-10.5c7.3-1.3,14.4-3.7,21.8-4.7c0.3,0.1,0.7,0.1,1,0.2c0.6,1.2,1.6,1.8,3,1.8
			c-2.9,3.9-7.7,4.2-11.7,5.2c-15.6,3.8-30.8,8.8-46.3,12.7c-6.1,1.5-12.3,2.5-16.1,2.2c11.1,0.5,23.7-4.2,36.6-8
			c13-3.8,26.3-6.5,39.1-11.2c0.5-0.2,1-0.1,1.4,0.2c1,3.7,4.3,0.3,6,1.9c0.2,0.9-0.1,1.3-1,1.1c-22.7,7.4-45.8,13.4-69.1,18.9
			c-6.4,1.5-12.7,3.5-19.4,2c-3.6-0.9-7.7-1.3-8.8-6c-0.8-8.1,4.3-13.5,8.8-19.2c13.1-16.8,27.6-32.6,38.4-51.2
			c5.9-10.2,11.8-20.3,13.5-32.3c2.7-19.2-12.4-35-27.8-36.7c-7.7-0.9-15.3,1.6-22.1,5.6c-12.3,7.2-22.5,16.5-31.9,27.2
			c-9.3,10.7-19.8,20.2-29.8,30.2c-5.5,5.5-11.2,11-16.8,16.4c-1.3,1.3-2.6,2.7-4.2,3.4c-2.1,1-4.5,1.6-6.2-0.8
			c-1.6-2.2-1.4-4.3,0.5-6.2c7.7-7.6,15.4-15.2,22.9-22.9c12.9-13,25.6-26.1,38.5-39.1c6.9-6.9,14.1-13.6,21.1-20.4
			c9.6-9.3,13.7-21.1,10.8-33.8c-2.7-11.7-10.3-20.7-22.9-23.7c-8.5-2-16.7-0.2-24.7,3c-16.2,6.4-28.8,17.7-41.1,29.7
			c-13,12.8-26.1,25.4-39.8,37.5c-5.1,4.5-10.3,8.9-15.2,13.5c-0.7,0.7-1.4,1.4-2.3,1.9c-2.8,1.7-5.9,3.3-8.4,0
			c-2.5-3.2-0.7-6,2-8.2c10.9-9,21.4-18.4,31.7-28c8.3-7.7,16.6-15.3,25-22.9c2.6-2.4,5.3-4.8,7.9-7.3c2.3,0.3,3.5-1.4,4.7-2.8
			c1.4-1.6,2.5-1.5,3.7,0c-0.5,3.4-3.6,4.5-5.7,6.5c-6.5,6.2-12.9,12.5-19.4,18.7c-7.6,7.2-15.5,14.1-22.9,21.5
			c-5.6,5.6-11.7,10.9-17.9,15.9c16.6-13.7,31.7-29,47.5-43.6c8.8-8.1,17.1-16.7,26.5-24.2c11.2-9,23.6-16,38.3-16.4
			c15.7-0.5,30.4,5,36.6,22.4c4.6,12.9,3,24.7-4.4,36C400.3,165.9,400,166.6,400,167.5z"/>
		<path class="st8" d="M459,391.4c-9.6,7.8-15.3,18.7-22.7,28.3c-0.9,1.2-4.1,3-0.2,4.7c-20.9,27.8-43.7,53.7-70.1,76.7
			c-19.5,16.9-39.9,32.3-61.6,46.1c-8.4,5.3-17.1,10.2-25.9,14.8c-13.9,7.2-25.9,16.6-36.5,28c-17.6,19-36.2,37.2-53.4,56.5
			c-9.4,10.6-18.1,22-27.3,32.9c-10.2,11.1-20.4,22.2-30.7,33.3c-1.8,1.9-3.8,3.7-6,5.2c-1.7,1.1-4,1.4-5.6-0.1
			c-1.6-1.6-2.6-3.7-1-6.2c0.9-1.4,2-2.7,3.1-3.8c8.5-8.4,16.7-17.1,24.3-26.3c8.8-8.6,16-18.5,24-27.8c11.6-13.5,24.3-26,36.4-39
			c9.9-10.7,20.3-21.1,29.9-32c11.8-13.3,26.1-22.8,41.3-31.6c23.4-13.5,46.9-26.9,67.5-44.4c19.7-16.8,38.9-34.3,56.3-53.6
			c10.1-11.3,19.2-23.3,28.4-35.3c0.7-0.9,1.7-1.5,2.5-2.3c0.2,1.3-0.3,3,1.4,3.4c1.3,0.3,1.9-1.1,2.5-2c3.1-4.5,6.2-8.9,9.2-13.5
			c3.5-5.1,7.7-9.5,12.9-12.8C458.3,390.7,459,390.7,459,391.4z"/>
		<path class="st9" d="M471,294.4c-9.2,4.6-19.5,4.8-29.1,7.9c-5.5,1.8-11.2,2.9-16.6,4.8c-8.4,2.9-17.2,3.5-25.9,4.1
			c-1.1,0.1-2.5,0.9-3.2-0.2c-0.9-1.4,0.7-2.4,1.4-3.4c0.7-1.1,1.6-2,2.4-3.1c1.7,1.7,3.1,0.1,4.5-0.4c18.1-6.7,36.6-11.3,56-11.9
			C464.2,292.2,467.6,293,471,294.4z"/>
		<path class="st6" d="M425,172.4c-1-1.5-2.8-0.6-4-1.2c-2.1-1-2.6-2.1,0.2-2.9c15.1,0.4,35,15.1,35,35.8c0,17.8-7.5,32.8-16.1,47.5
			c-2.4,4.1-5.4,7.9-8.1,11.8c-0.7-1-0.3-2.8-2.1-3.1c0.4-4.8,4-7.8,6.3-11.6c7.6-12.6,14.4-25.6,15.5-40.6
			c0.8-10.5-2.6-19.4-11.1-26.4C435.8,177.9,430.6,174.8,425,172.4z"/>
		<path class="st10" d="M580.8,301.7c-0.9-1.7,0.2-3,1.1-4.3c1.7-0.7,2.7,0.6,4,1.3c12.5,6.7,25.7,9.6,39.7,6.5
			c4.9-1.1,9.8-2.8,13.3-7c2.9-3.1,4-2.8,7,2c-13.6,12.4-29.5,14.2-46.6,9.7C592.8,308.3,585.9,307.1,580.8,301.7z"/>
		<path class="st11" d="M589.9,434.4c-6.6-5.7-11-13.2-16.2-20.1c-9.5-12.6-20.2-24.2-29.9-36.6c-6.4-8.3-13.1-16.4-17.9-26
			c6.9,8.7,13.8,17.5,20.7,26.2c0.4-2.5-1.4-4.2-0.8-6.5c3.4,4.2,6.9,8.4,10.3,12.6c-2.6-0.3-4.5,0.2-2,3
			c11.8,13.2,21.9,27.8,33.3,41.4c1.3,1.5,2.3,3.2,3.4,4.9C590.9,433.9,590.5,434.3,589.9,434.4z"/>
		<path class="st11" d="M560.8,389.4c-2.7-0.8-4.7-2.1-4.6-5.3C558.5,385.2,559.9,387.1,560.8,389.4z"/>
		<path class="st0" d="M483,300.5c0.3-0.4,0.7-0.7,1-1.1c9.7-3.1,17.8-9.3,26.3-14.4c9.1-5.6,18.5-11,26.7-18c0.4-0.3,1-0.4,1.3-0.8
			c1.7-2.2,3.6-5.7,6-5.2c3.3,0.6,6.5,3,9.2,5.3c7.8,6.6,9.6,16.2,6.5,26.1C554,311.5,541,325,526,337c-5.7,4.5-11.4,9-17,13.5
			c-1.5-1.3-1.1-3.1-0.9-4.7c2.3-20.4-7.6-34.1-23.9-44.4C483.7,301.1,483.4,300.8,483,300.5z"/>
		<path class="st0" d="M683.5,247.6c5.2,4.5,10.6,9,15.7,13.7c10.9,10,19.1,22.2,26.3,34.9c4.6,8.2,8.8,16.6,13,24.9
			c2.7,5.4,3,10.8-0.9,15.7c-4,5-9.2,6.7-15.7,6.2c-18.1-1.4-30.3-12.1-41.9-24.7c-13.2-14.3-26.5-28.7-43.9-38.3
			c-5.5-3.1-11.5-4.6-17.5-6.3c-2.1-0.6-4,0.2-5.8,0.9c-2.5,1.1-3.7,3.7-3.5,6.1c0.2,2.1,2.4,3.2,4.8,3.6c8.3,1.3,16.3,3.8,23.6,8.6
			c-4.6,5.8-11.3,6.9-17.8,8.6c-8.4,0.6-16.7,1.1-25-2.1c-9.2-3.5-15.3-9.7-19.3-18.4c-0.8-1.8-1.7-3.8-1.4-5.8
			c2.1-14.8,3-29.9,11.6-42.9c6.9-10.4,16.1-15.8,29-16.5c24.1-1.4,43.2,8.6,60.5,23.8C678.3,242.1,681.6,244.1,683.5,247.6z"/>
		<path class="st0" d="M617,207.2c1.7-19.3,8.9-35.4,26.3-45.6c6.1-4.7,13.2-4.7,20.4-4c19,1.8,34,11.8,47.7,24.1
			c2.3,2,5.4,3.4,6.4,6.8c20.8,21.6,34.8,47.2,44.4,75.3c4.4,12.9,7.8,26,8.1,39.7c0,0.6-0.2,1.2-0.3,1.9c-1.9,1-2.5,2.9-3.2,4.7
			c-1.8,4.4-4,8.5-6.8,12.3c-1.1,1-2.1,2.1-3.3,3c-3.8,2.6-6,1.8-7-2.5c-3-12.4-10.3-22.7-16.4-33.5c-10.2-18.1-24-33.1-39.9-46.2
			c-10.9-9.1-21.9-18.1-33.9-25.8c-6.3-4-13.1-6.9-20.5-7.9c-5.5,0.1-10.9-0.1-16.4-0.5C620.6,208.7,618.5,209,617,207.2z"/>
		<path class="st0" d="M686,124.7c17-11.6,40.9-4.3,54.6,5.9c12,8.9,20.6,20.9,29.3,32.9c12.7,17.3,20.6,36.9,28,56.9
			c2.9,7.9,7.4,15.2,5.8,24.1c-0.1,0.8,0.1,1.7-0.9,2.1c-1.5,0.8-3.1,1.5-4.7,1.2c-7.2-1-14.2,0.5-21.2,1.7
			c-6.4-1.6-11.5-5.4-14.1-11.3c-7.8-17.2-16.9-33.5-29.4-47.6c-7.8-8.8-16.5-17-26.8-23.1c-3.2-0.7-5.6-2.8-8.2-4.5
			c-7.8-5.3-16.2-9-25.5-10.3c-1.8-0.3-3.6-0.7-5-2c-2.6-3.5,2.7-4.3,2.4-7.1c0-0.2-0.2-0.4-0.1-0.5
			C673.3,135,677.9,128.3,686,124.7z"/>
		<path class="st12" d="M617,207.2c5.4,0.4,10.9,0.6,16.3,1.1c1.9,0.2,4-0.8,5.6,1.1c-2.4,1.6-5.2,0.8-8.4,1.1
			c1.4,0.8,2.4,1.3,3.4,1.8c-2.1,2.2-4.3,0.2-6.4,0.1c4.7,1.6,9.8,0.9,14.6,2.5c13.2,4.4,24.1,12.4,34.6,21c1.9,1.5,5,2.2,5.2,5.5
			c-1,1.5,0.3,2.2,1.1,3.1c0.7,0.9,2.2,1.8,0.5,3.1c-7.2-5.5-14.3-11.1-21.5-16.6c-12.7-9.6-27.1-12.8-42.9-13.7
			c-25.8-1.5-35.2,17.4-39.9,34.3c-2.1,7.6-1.6,15.7-3.9,23.3c-0.4,1.2,0.4,2.9,1,4.2c7,15.7,15.7,20,33.8,22.4
			c3.3,0.4,6.6,0.1,9.9,0.1c-2.5,2.3-5.4,0.4-8.1,0.8c-2,0.3-4.2-0.2-3.9,2.9c-1,1.3-2.3,0.8-3.6,0.5c-14.3-2.9-26.2-9.3-32.5-23.4
			c-3.2-3.4-3.3-7.1-1-11.1c2.6-6.7,3.3-13.8,5-20.7c0.2-0.8-0.1-1.6-0.9-2.2c3.1-15.2,10.5-27.4,24.9-34.2
			c3.8-1.8,8.3-2.6,12.4-2.6C615.9,211.5,616.7,209.9,617,207.2z"/>
		<path class="st13" d="M667.9,150.6c14.8,1.2,27.5,7.4,38.7,16.9c-0.9,0.6-1.8,1.2-2.7,1.8c-3.8-0.3-6.3-3.3-9.4-4.9
			c-3.8-2-7.6-4.2-11.6-5.8c14.6,6.5,27.6,15.3,38.4,27.2c0.9,1,2.1,1.8,1.7,3.4c-1.9,1.2-3.3-1.8-5.2-0.7
			c-7.3-5.2-13.5-11.6-20.9-16.8c-10.6-7.4-22.3-11.9-35.1-13.2c-6.3-0.6-12.4,1.5-18.4,3.2c-3.8-2.7-6.7-1-9.7,1.6
			c-11.1,9.2-16.3,21.5-18.6,35.2c-0.4,2.3-0.9,4.5-2.8,6.3c1.8-20.6,11.2-42.8,33.1-50c3.1-1,6-2.9,9.5-2.4
			c3.4-0.8,6.6-2.5,10.2-0.2C666.2,152.9,667.7,152.4,667.9,150.6z"/>
		<path class="st14" d="M863.3,190.7c6.7,7.6,11.2,16,15.8,24.4c14.3,26.1,22.6,54.1,26.9,83.4c1.7,11.5,2.9,23.2,1.9,34.7
			c-1.8,19.5-1.4,39.2-3,58.7c-1.3,16.5-3,33.1-2.9,49.7c0.1,20.2,5.3,38.8,19.6,53.3c11.7,12,23.5,24,36.1,35
			c3.6,3.2,6.9,6.8,10.6,10.5c-2.4,1-2.9-0.4-3.7-1.1c-14.7-14.3-29.7-28.2-43.9-43c-12.1-12.5-18.5-27.7-20-45.5
			c-1.7-19.7,0.9-39.1,2.1-58.6c0.5-7.6,0.8-15.3,1.1-22.9c0.5-12.1,1.5-24.1,2.6-36.2c0.7-7.5-0.1-15.3-0.7-22.9
			c-0.6-7.4-1.1-15-2.9-22.1c-7.9-32.2-16.7-64-36.7-91.3C865,195.1,863.3,193.6,863.3,190.7z"/>
		<path class="st15" d="M723,189.2c-6-6.9-12.7-13.1-20.1-18.5c-7.3-5.3-15.5-9.2-23.4-13.5c9.2,2,16.7,7.5,24.5,12.1
			c26.9,19.6,45.6,45.5,57.9,76.2c6.2,15.6,11.5,31.5,13.8,48.2c0.6,4.4-0.4,8.8,1.2,13.1c-0.5,0-1,0.1-1.4,0.1
			c-0.8-5.1-1.5-10.2-2.2-15.2c-2.3-15.9-6.7-31.2-13.4-45.7c-9.1-19.9-17.8-40.3-34.9-55.2C724.3,190.2,723.6,189.7,723,189.2z"/>
		<path class="st14" d="M850.3,175c-5.5-4.9-8-11.5-11.6-17.3c-9.3-14.8-15.7-31.2-23.9-46.5c-2.6-4.8-5.1-9.8-9.3-13.4
			c-14.6-12.5-27.8-8.9-37.9,6.6c-4.1,6.3-5.1,14-7.6,21c-0.5,1.4-0.9,2.8-1.8,3.9c3.3-14.4,5.3-29.4,19.9-37.9
			c9.8-5.7,22.8-2.5,31.2,7.4c7.5,8.8,11,19.7,16.1,29.7c7.9,15.4,15.4,31,25.1,45.3C850.6,173.9,850.4,174.3,850.3,175z"/>
		<path class="st16" d="M682,241.4c-17.2-14.9-34.9-28.8-59.6-28.6c4-2.7,7.8,0.3,11.6-0.5c12.2,1.1,22.6,7,31.9,14
			c15.9,11.8,31.5,24.3,45.1,38.9c8.9,9.6,17.1,19.8,21.9,32.3c-0.2,0.4-0.5,0.8-1,0.9c-5.5-9.4-11.1-18.7-18.2-27.2
			c-7.9-9.5-16.9-17.7-26.3-25.6C685.6,244.2,683.8,242.8,682,241.4z"/>
		<path class="st17" d="M794.8,261.6c-4,4.1-9.7,6.5-12.1,12.2c-1.3,3.2-3.4,5.9-5.6,8.5c-1.2-6.5-2.9-12.7-5.1-18.9
			c-0.6-1.6-0.6-2.9,0.3-4c1.2-1.5,2.5-0.1,3.5,0.3C782,262,788.2,263.1,794.8,261.6z"/>
		<path class="st18" d="M640.9,289.4c6.8,3.3,12.5,8.2,17.8,13.4c10.2,9.8,19.6,20.4,30.1,29.9c9.9,9,21.5,14.9,35.5,14.7
			c4.1-0.1,7.8-1.2,11.7-2.2c-3.1,3.2-7.3,3.9-11.5,4.1c-11.3,0.7-20.9-4-30.2-9.9c-9.4-6-16.6-14.4-24-22.5
			c-7.5-8.3-15.7-15.7-24.5-22.6C644,292.9,642.1,291.5,640.9,289.4L640.9,289.4z"/>
		<path class="st13" d="M686,124.7c-6.8,4.9-11.6,11.6-15.7,18.8c-3.8-0.9-5.4,2.6-8.1,4c6.1-11.3,11.5-23,23.8-29.1
			c0.4,0.3,1,0.4,1,1.1c-0.5,0.4-1,0.9-1.6,1.2C682,122.6,684.1,123.6,686,124.7z"/>
		<path class="st19" d="M571.8,282.4c2.1-0.1,2.4,1.8,3,3c7,13.5,19.6,17.4,33.1,19.8c11.1,1,21.6-0.3,31-6.9
			c-1.1,2.6-2.2,3.6-5.6,5c-18.2,7.5-35.3,4.9-51.4-5.9C576.9,293.6,573.3,288.7,571.8,282.4z"/>
		<path class="st20" d="M810,233c-13.6-24.1-19.8-51.9-37.4-74C791.8,180.3,798.2,208,810,233z"/>
		<path class="st21" d="M686.9,119.5c-0.3-0.4-0.7-0.7-1-1.1c20.7-10.5,52.8-3.5,65.2,14.9C731.4,118,711.2,108.7,686.9,119.5z"/>
		<path class="st22" d="M777,249.4c5-3.7,10.9-3.4,16.6-3.4c3,0,6.2,0.2,9.3,0.5c-4.8,6.5-11.7,6.5-18.6,5.6
			C781.8,251.8,779.4,250.3,777,249.4z"/>
		<path class="st23" d="M759.9,322.4c1.7-5.9,5.6-10.9,7.2-16.9c0.4-1.7,1.9-0.4,2.8-0.1C769.2,312.6,767.1,319,759.9,322.4z"/>
		<path class="st24" d="M808.4,248c-3.7,8.9-16.5,13-27.6,8.4C791.8,256.7,801.6,257.1,808.4,248z"/>
		<path class="st25" d="M731.9,298.4c0.3-0.3,0.6-0.6,1-0.9c3.7,6.9,8.5,13.3,10.6,21.1C738.7,312.3,735.4,305.3,731.9,298.4z"/>
		<path class="st18" d="M641,289.4c-8.4-3.4-16.1-8.4-25-10.4C625.1,280.4,634.1,282.3,641,289.4C640.9,289.4,641,289.4,641,289.4z"
			/>
		<path class="st14" d="M861,188.9c-3-3.8-6-7.6-8.9-11.4C856.6,180,858.8,184.4,861,188.9z"/>
		<path class="st0" d="M480.9,269.6c-0.4-16.9,5.6-31.2,11.2-45.5c4.7-11.7,9.4-23.4,15.9-34.3c4.8-8,10.2-15.3,20.2-17.5
			c13.2-2.9,21.4,0.8,27.7,12.9c5.6,10.8,5.3,21.7,1,32.7c-9.3,24-25.5,42.5-46.9,56.5c-7.7,5-15.8,9.4-24.1,13.4
			c-3.1,1.5-4.1,0.9-4.1-2.5C482,279.7,480.2,274.2,480.9,269.6z"/>
		<path class="st26" d="M589.9,434.4c0.4-0.4,0.7-0.7,1.1-1.1c22.5,28.8,44.2,58.3,70.9,83.4c15.4,14.4,32,27.4,50.5,37.9
			c21,11.9,39.2,26.9,54.2,46.2c12.2,15.7,24.4,31.5,37.1,46.8c0.9,1.1,2.2,2.1,2.2,3.8l0,0c-7.7-6-12.6-14.4-18.7-21.9
			c-11.7-14.5-22.8-29.4-35.7-42.9c-11.6-12.2-25.4-21.4-39.7-29.9c-25.8-15.2-48.7-34.1-68.7-56.3c-15.8-17.5-30.7-35.9-44.7-54.8
			C595.6,441.7,592.7,438.1,589.9,434.4z"/>
		<path class="st27" d="M553.1,172.7c-3.3-1.3-6.4-3.1-9.8-4.3c-16.5-5.8-32.3,5.6-38.7,17.8c-11.4,21.7-21.3,43.9-26,68.1
			c-2.1,11-4,22.2-0.8,33.5c0.3,0.9,0.4,2-0.8,3.6c-3-6.9-3.5-13.6-2.9-20.5c2.5-30.6,15.2-57.8,28.6-84.8
			c6.2-12.3,16.5-19.5,30.1-21C540.7,164.1,547.2,168,553.1,172.7z"/>
		<path class="st27" d="M478,297.5c-14.4,5.5-29.5,8.9-44.2,13.3c-11.9,3.5-23.7,7.3-36.4,6.7c-1.6-0.1-3.3,0.5-4.7-0.7
			c-0.1-1,0.6-1.2,1.2-1.2c14.3,0.6,27.8-3.3,41.3-7.3c11.7-3.5,23.6-6.5,35.4-9.7c1.6-0.4,3.2-0.8,4.4-2.1c20.3-7,38-18.3,54.4-32
			c3.6-3,7-6,10.5-9l0,0c-2,5.2-6.5,8.4-10.4,11.7C513.9,279.8,496.4,289.5,478,297.5z"/>
		<path class="st27" d="M540,255.4c1.6-4.3,5-7.3,7.5-11c9.4-14,17-28.5,16.6-46.1c-0.2-6.6-2.5-12.3-5.6-17.8
			c-0.8-1.4-2.1-2.5-2-5.2c6.4,6.6,9,14.1,9.5,22.2c1.1,17.5-6.5,32.3-16,46.2C547,247.9,544.2,252.3,540,255.4
			C539.9,255.4,540,255.4,540,255.4z"/>
		<path class="st28" d="M459,391.4c-0.3-0.3-0.7-0.7-1-1c11.9-10.6,26.5-16.9,39.6-25.7c9.2-6.2,16.9-14.5,26.4-20.3
			c0.5,0.2,0.8,0.5,1,0.9c-11.3,8.6-21.6,18.7-34,25.9C480,377.5,469.2,384,459,391.4z"/>
		<path class="st29" d="M525,345.4c-0.3-0.3-0.7-0.6-1-0.9c12.8-9.4,24.6-19.6,32.9-33.4c3.5-5.8,5.9-12.1,9-18.9
			C565.2,306.2,545.2,333.9,525,345.4z"/>
		<path class="st19" d="M575,248.4c2.3-1.1,2.2,0.6,1.9,1.8c-1.6,7.3-3.4,14.6-5.1,21.9c0,0.1-0.2,0.2-0.3,0.2
			c-0.2-0.4-0.5-0.7-0.7-1.1C572.2,263.7,573.6,256.1,575,248.4z"/>
		<path class="st26" d="M805.9,651.3c5.2,3.8,8.8,9.1,12.5,14.2C813.5,661.4,808.9,657.1,805.9,651.3
			C805.9,651.3,805.9,651.3,805.9,651.3z"/>
		<path class="st26" d="M824.3,673.3c3.8,2.2,6.2,5.5,9.1,10.1C828.6,680.4,827.2,676.2,824.3,673.3z"/>
		<path class="st27" d="M134.1,312.4c3.5-18.9,3.1-38.3,6.9-57.2c7.3-36.6,22.2-69.8,44.7-99.6c5.3-7,11.4-13.4,17.5-19.7
			c16.2-16.7,32.4-33.5,49.9-48.9c10.2-9,19.1-19.7,31.8-25.5c21.4-9.7,49.3-1.7,58,22.9c2,5.7,4.5,11.5,3.9,19
			c-2.6-7.7-4.1-14.6-6.9-21c-5.9-13.3-16.7-19.6-30.4-22.1c-16.6-3-29.4,4.5-40.9,15c-17.7,16.2-35.7,32-52.2,49.4
			c-14.1,15-29.2,29.2-40.1,46.9c-17,27.7-29.6,57.2-34.2,89.7c-2.1,14.8-3.2,29.7-5,44.5c-0.4,3.3-1.3,6.4-1.9,9.7
			C134,314.8,135.1,313.2,134.1,312.4z"/>
		<path class="st30" d="M400,167.5c-1.4-1.1-0.3-1.9,0.3-2.9c9.7-16,8.9-31.7-2.4-46.4c-5-6.6-12.5-8.6-20.1-9.7
			c-20.1-3-36.4,5.6-50.5,18.4c-18.4,16.5-35.9,34-54.1,50.7c-6.4,5.9-12.3,12.4-20.7,16.9c0-3.1,2.4-3.5,3.7-4.6
			c19.9-17.9,39.6-36,58.7-54.8c2.4-2.3,5.6-3.7,7.3-6.7c10.5-8.7,21.2-17.3,34.6-21c15.2-4.2,30-3.1,41.5,8.8
			c9.6,9.9,12.7,22.3,9.4,35.8C406.2,157.7,404.3,163.2,400,167.5z"/>
		<path class="st31" d="M129,348.3c-4.6,18.9-9,37.7-17.2,55.5c-6.4,13.8-15.3,25.6-25.4,36.7c-12,13.1-25.6,24.1-39.8,34.6
			c-5.6,4.2-11,8.8-16.7,12.8c4.4-6,10.6-10.1,16.4-14.5c19.4-14.4,37.5-30.2,52-49.7c11.6-15.6,18.1-33.4,22.7-52.1
			c2.1-8.5,4.6-16.9,6.9-25.4C128.9,346.6,128.3,347.8,129,348.3z"/>
		<path class="st32" d="M129,348.3c-1-0.4-0.9-1.3-1.1-2.1c2.1-11.3,4.1-22.5,6.2-33.8c1.3,0.7,0.8,2,1.1,3.1
			C133.5,326.5,131.6,337.5,129,348.3z"/>
		<path class="st33" d="M425,172.4c12.7,3.6,22.2,11,26.3,23.9c3,9.5,0.7,18.9-2.3,28.1c-4.3,13.1-11.8,24.4-19,35.9
			c-6.3,8.3-12.5,16.7-18.9,24.9c-6.1,7.8-12.6,15.3-19.8,24c0.2-3.5,1.4-4.7,2.5-6.1c15.7-19.3,31.9-38.3,44.6-59.8
			c6.5-11.1,11.8-22.7,12.7-35.7c1.1-16.4-11-28.7-25.2-33.5c-0.8-0.3-2.5,0.2-2.3-1.6C423.6,172.4,424.5,172.4,425,172.4z"/>
		<path class="st30" d="M362.1,206c-2.9,3.1-44.2,44.7-48.7,48.5C329.6,238.3,345.9,222.1,362.1,206z"/>
		<path class="st30" d="M392.4,176.1c-7,7.5-15.8,13.1-22.9,20.5C375.7,188.2,384.1,182.2,392.4,176.1z"/>
		<path class="st34" d="M225.2,600.3c1.3-1.6,2.4-3.3,3.8-4.8c13.8-14.5,27-29.6,45.7-38.7c24.8-12.1,48.2-27,69.5-44.5
			c17.9-14.7,35.2-30.3,51-47.5c5.6-6.1,11.3-12,17.7-17.4c-1.8,2.4-3.5,4.8-5.5,7.1c-15.5,17.1-32.3,32.9-49.6,48.2
			c-16.4,14.5-34,27.1-52.3,38.8c-11.2,7.2-23,13.3-34.4,20c-8.2,4.8-16.6,9.1-23,17c-6.6,8.1-14.9,14.8-22.4,22.1
			C225.4,600.5,225.3,600.4,225.2,600.3z"/>
		<path class="st35" d="M124.7,711.6c20.3-21.8,39.1-45,59.2-67C165.4,668,146.3,690.9,124.7,711.6z"/>
	</g>
</g>
</svg>
