<?xml version="1.0" encoding="utf-8"?>
<!-- Generator: Adobe Illustrator 24.1.2, SVG Export Plug-In . SVG Version: 6.00 Build 0)  -->
<svg version="1.1" id="Layer_1" xmlns="http://www.w3.org/2000/svg" xmlns:xlink="http://www.w3.org/1999/xlink" x="0px" y="0px"
	 viewBox="0 0 949.8 824.2" enable-background="new 0 0 949.8 824.2" xml:space="preserve">
<path fill="#F16245" d="M525.8,374.7c-6.1,0-12.2,0-18.4,0c-0.9-1.5-0.6-3.1-0.6-4.7c0-16.8,0-33.6,0-50.4c0-5.2-0.2-5.7-5.3-5.4
	c-15.4,0.8-30.8,0.6-46.3,0.7c-3.6,0-3.8,0.3-3.8,4.4c0,16.9,0,33.8,0,50.7c0,1.6,0.2,3.2-0.6,4.7c-9.8,0.1-19.7,0.1-29.5,0.2
	c-1.5,0-2.1-0.4-2-2c0.1-0.5,0-0.9,0-1.4c0-32.9,0-65.9-0.1-98.8c0-2.5,0.7-4.3,2.7-5.8c3-2.3,5.8-4.8,8.6-7.3
	c0.1-0.3,0.3-0.6,0.5-0.8c3-3.4,6.7-5.9,10-8.9c7-5.1,13.3-11.1,20.1-16.5c5.4-4.4,10.7-8.9,16.1-13.3c1-0.8,1.8-1.8,3.3-1.4
	c7.3,6,14.4,12.2,21.6,18.4c10.6,9.2,21.3,18.2,31.9,27.4c2.8,2.4,6.1,4.4,7.8,8c0.8,5.4,0.1,10.7-0.1,16.1
	c-0.4,11.8,0,23.5-0.1,35.2c-0.2,15.5,0,31-0.2,46.6c-0.1,3.8-0.5,4-4.2,4.1C533.3,374.5,529.5,374,525.8,374.7z"/>
<path fill="#FAA326" d="M343.6,218.9c-23.3,0-46.6,0.1-69.9,0.1c-5,0-10.1-0.1-15.1,0.1c-1.9,0-2.6-0.5-2.6-2.5
	c0.1-20.9,0.1-41.8,0-62.7c0-1.7,0.6-2.8,1.8-3.8c13.5-10.8,27-21.5,40.4-32.3c0.6-0.5,1.3-1,2.2-0.9c4.5,2.3,8.1,5.8,12,9
	c9.4,7.7,19,15.2,28.4,22.9c1.3,1.1,2.7,2.2,3.5,3.7c0.4,0.9,0.6,1.8,0.5,2.7c-0.3,9.3,0.4,18.7-0.4,28c-0.3,2.8,0.5,5.4,0.5,8.2
	c0.1,7.9-0.2,15.7,0,23.6C344.9,216.3,345.1,217.9,343.6,218.9z"/>
<path fill="#035367" d="M574.1,455.6c-2.5,9.5-2.5,18.6-2.9,27.6c-0.1,2.6-0.5,4.1-3.5,3.9c-2.7-0.2-4.3-0.9-4.3-4.3
	c0.2-16.3,0.1-32.7,0.1-49c0-2.4,0-4.7-0.2-7.1c-2.3,6.3-2.7,12.8-3,19.4c-0.3,6.3-0.6,12.5-2.2,18.7c-0.6,2.1-1.3,4.1-2.8,5.8
	c-1.1,1.3-2.4,2.9-4.3,1.5c-1.7-1.3-3.5-2.9-2.2-5.5c1.1-2.2,2.7-4.2,3.7-6.5c2.4-5.6,3.8-11.5,4-17.6c0.3-7.7,1.9-15.2,4.3-22.4
	c3.9-11.6,13.3-18.3,26-18.5c9.4-0.1,18.7,1,28,1.6c10.4,0.7,20.7,1.6,31.1,2.4c2.1,0.2,3.8-0.4,5.7-1.6c6-3.8,12.8-3.8,19.5-2.3
	c0.4,0.1,1,0.3,1.2,0.6c2,3.7,4.6,2.4,7.4,1.2c0.9-0.4,2-0.5,3-0.6c1.8-0.2,3.5,0.2,4.1,2.2c0.6,1.9-0.3,3.4-1.7,4.5
	c-1.7,1.4-3.9,1.8-6,2.2c-2.7,0.6-3.7,1.9-2.2,4.5c1.9,3.5,3.7,7,5.5,10.6c2.8,5.7,0.2,10-6.2,10.2c-4.3,0.2-8.4-0.7-12.5-1.7
	c-2.2-0.6-3.7-0.1-5.2,1.4c-2.3,2.4-4.1,5.2-5.8,8c-2.3,4-4.7,7.9-9.2,9.8c-1.6,0.7-1.1,1.8-1.1,2.8c0,8.9,0.1,17.8,0.2,26.7
	c0,1.6,0.2,3.1-2.1,2.8c-1.8-0.2-4.4,0.8-4.4-2.7c0.1-8,0-16,0-24c-0.7,0-1.3,0-2,0c0,7.8,0,15.7,0,23.5c0,1.3,0.8,3.3-1.8,3.1
	c-2.1-0.2-4.6,0.2-4.6-3.2c-0.1-8.9-0.4-17.8-0.4-26.7c0-2.5-0.4-3.5-3.3-3.4c-8.8,0.1-17.6,0.4-26.4-0.7c-1.8-0.2-2.4,0.4-2.6,2.1
	c-0.3,3-1.8,5.5-4.1,7.2c-1.8,1.3-2.3,2.8-2.3,4.8c-0.1,5.6-0.4,11.2-0.4,16.8c0,1.9-0.3,3.2-2.5,3.1c-2-0.1-4.1,0.3-4.5-2.8
	c-0.7-5.6-0.6-11.2-0.6-16.8c0-1.8-0.1-3.2-2.1-4.1C575.8,462.1,575.1,459.1,574.1,455.6z"/>
<path fill="#FAA325" d="M480.4,219c-4.3,2-7.4,5.6-10.9,8.5c-8.8,7.2-17.5,14.6-26.2,21.9c-0.6,0.5-1.4,0.7-2.1,1.1
	c-1.5-1.7-1.5-3.8-1.6-5.8c-0.1-8.6-0.1-17.1,0-25.7c-0.2-9.5-0.1-19-0.1-28.4c0-1.6,0.3-3.2,1.3-4.5c0.3-7.1-0.3-14.2,0.3-21.4
	c1.4-1,3-1,4.6-1c35.3,0,70.5,0,105.8,0c1.7,0,3.4,0.1,4.9,1.1c0.1,12,0.1,24,0.2,36c0,1.8,0.1,3.6,0.2,5.5c0.2,1.5-0.9,2.5-1.7,3.6
	c-5.3,6.6-6.9,14.2-5.9,22.5c0.1,1.1,0.9,2.5-0.5,3.4c-1.6,0.2-2.5-0.9-3.5-1.8c-4.7-3.9-9.6-7.7-14.2-11.7c-1.9-1.7-4-2.3-6.5-2.3
	c-12.9,0.1-25.7,0-38.6,0C483.9,220,482.1,220,480.4,219z"/>
<path fill="#0B6272" d="M44.6,453.5c-8.1,0-16.2,0-24.4-0.1c-3.4,0-4.1-0.5-3.4-2.5c8.5-25.3,17-50.6,25.4-75.8
	c1.9-5.6,3.4-11.3,5.8-16.8c0.3-0.6,0.4-1.2,0.8-1.8c0.5-0.7,0.4-1.8,1.9-1.8c1.5,0,1.7,1.1,2,1.7c1.7,4.6,3.4,9.3,5,14
	c7.2,21.4,14.4,42.7,21.6,64.1c1.9,5.5,3.9,10.9,5.8,16.4c0.7,2.1,0,2.5-3.6,2.6c-7.9,0-15.8,0-23.7,0.1
	C53.3,454.5,48.9,454.5,44.6,453.5z"/>
<path fill="#0B6272" d="M46.2,395.2c-6.2,0-12.4,0-18.6,0c-2.6,0-3.1-0.4-2.6-1.9c6.5-19.3,13-38.6,19.4-58
	c1.4-4.3,2.6-8.6,4.4-12.8c0.2-0.5,0.3-0.9,0.6-1.4c0.4-0.5,0.3-1.3,1.4-1.4c1.1,0,1.3,0.8,1.5,1.3c1.3,3.5,2.6,7.1,3.8,10.7
	c5.5,16.3,11,32.6,16.5,49c1.4,4.2,3,8.3,4.4,12.5c0.6,1.6,0,1.9-2.8,2c-6,0-12.1,0-18.1,0.1C52.9,395.9,49.6,396,46.2,395.2z"/>
<path fill="#D73D45" d="M525.8,374.7c3.6-1.3,7.4-0.5,11.1-0.5c2.5,0,3.3-0.7,3.3-3.3c-0.1-9.8-0.1-19.6-0.1-29.4
	c0-15.6-0.1-31.2,0-46.8c0-7.8,0.4-15.6,0.6-23.4c1.2-1.4,2.9-1.2,4.5-1.2c13.1,0,26.2,0,39.3,0c1.5,0,3,0,4.3,0.8
	c0.8,0.9,1,2,1,3.2c0.1,4.4,0.1,8.9,0,13.3c0,1-0.2,2.1-0.9,2.9c0.1,27,0,53.9,0.2,80.9c0,3.1-0.9,3.7-3.8,3.7
	C565.6,374.7,545.7,374.7,525.8,374.7z"/>
<path fill="#08727D" d="M207.4,198.9c-10.6-2.9-18.2-9.1-21.7-19.8c-2.2-6.9-1.2-13.8,0.3-20.6c7.8-36.3,15.5-72.6,23.3-109
	c0.1-0.3,0.1-0.7,0.2-1c0.4-0.9,0.4-2.3,1.7-2.3c1.1,0,1.7,1.1,2.1,2c0.6,1.3,1.1,2.7,1.5,4.2c3.8,13.7,6.2,27.8,9.2,41.7
	c4.9,22.8,9.7,45.7,14.2,68.6c3.7,19-4.2,31.2-22.8,36.1c-0.2,0.1-0.4,0.2-0.6,0.3C212.3,200.5,209.8,200.8,207.4,198.9z"/>
<path fill="#FEC354" d="M691,310.1c-15.1,0-30.2,0.1-45.3,0.1c-7.2,0-14.4-0.1-21.6,0.1c-2.2,0-3.2-0.3-3.2-2.9
	c0.1-16.9,0.1-33.8,0-50.8c0-1.6,0.6-2.8,1.6-3.9c7.7-8.5,15.3-17,22.9-25.5c0.1-1.7,1.5-2.5,2.5-3.6c1.7-1.8,3.6-3.5,5.1-5.5
	c0.9-1.3,2.1-2.1,3.8-1.5c1.9,1.1,3.1,3,4.5,4.6c7,7.8,14.1,15.6,21.1,23.3c2.7,2.9,5.1,6.1,8.1,8.9c0.8,0.7,1.2,1.6,1.4,2.7
	c0.5,11.7,0.1,23.5,0.2,35.2c0,4.8,0,9.6,0,14.4C692.2,307.2,692.3,308.8,691,310.1z"/>
<path fill="#10AFA8" d="M64.5,211.8c-6.9,0-13.8-0.1-20.7,0c-4,0.1-4.5-0.5-3.9-1.6c2.2-4.3,4.5-8.7,6.6-13c5.9-12,12.6-24,18.2-36
	c1.5-3.3,2.4-6.7,5.3-9.9c0.3-0.4,0.8-0.7,1.6-1.4c1.7,1.6,1.8,3,2.5,4.4c5.1,9.7,10,19.4,15,29c4.6,8.9,9.2,17.8,13.7,26.7
	c0.9,1.7,0.8,1.7-4.3,1.7c-6.5,0-13,0-19.5,0C74.1,212.4,69.3,212.4,64.5,211.8z"/>
<path fill="#10AFA8" d="M66,178.5c-5.9,0-11.9-0.1-17.8,0c-3.4,0.1-3.9-0.4-3.4-1.3c1.9-3.7,3.9-7.5,5.7-11.2
	c5.1-10.3,10.8-20.6,15.6-31c1.3-2.9,2.1-5.8,4.6-8.5c0.3-0.3,0.7-0.6,1.3-1.2c1.4,1.4,1.5,2.6,2.1,3.8c4.4,8.3,8.6,16.7,12.9,25
	c3.9,7.7,7.9,15.3,11.8,23c0.7,1.5,0.7,1.5-3.7,1.5c-5.6,0-11.2,0-16.8,0C74.3,179.1,70.2,179.1,66,178.5z"/>
<path fill="#10AFA8" d="M66,147.9c-5.9,0-11.9-0.1-17.8,0c-3.4,0.1-3.9-0.4-3.4-1.3c1.9-3.7,3.9-7.5,5.7-11.2
	c5.1-10.3,10.8-20.6,15.6-31c1.3-2.9,2.1-5.8,4.6-8.5c0.3-0.3,0.7-0.6,1.3-1.2c1.4,1.4,1.5,2.6,2.1,3.8c4.4,8.3,8.6,16.7,12.9,25
	c3.9,7.7,7.9,15.3,11.8,23c0.7,1.5,0.7,1.5-3.7,1.5c-5.6,0-11.2,0-16.8,0C74.3,148.4,70.2,148.4,66,147.9z"/>
<path fill="#10AFA8" d="M67.2,120.6c-4.7,0-9.5-0.1-14.2,0c-2.7,0-3.1-0.3-2.7-1.1c1.5-3,3.1-5.9,4.5-8.9
	c4.1-8.2,8.6-16.4,12.5-24.7c1.1-2.3,1.7-4.6,3.6-6.8c0.2-0.3,0.6-0.5,1.1-0.9c1.2,1.1,1.2,2.1,1.7,3c3.5,6.6,6.9,13.3,10.3,19.9
	c3.1,6.1,6.3,12.2,9.4,18.3c0.6,1.2,0.5,1.2-2.9,1.2c-4.5,0-8.9,0-13.4,0C73.8,121,70.5,121,67.2,120.6z"/>
<path fill="#178A91" d="M343.6,218.9c0-21,0-42,0-63c0-1.4-0.1-2.7-0.2-4.1c1.3-1.3,2.9-1.2,4.5-1.2c23.2,0,46.4,0,69.6,0
	c4.7,0,5,0.4,4.9,5.1c-0.1,8.7,0.6,17.4,0.4,26c0,1.4,0.2,2.7-0.3,4.1c-1.3,1.5-3.1,1.2-4.8,1.2c-6.6,0.1-13.1,0-19.7,0
	c-2.5,0.5-4.1,2.4-5.7,4.2c-6,6.7-12,13.4-18.4,19.7c-2,2-3.5,4.5-5.7,6.4c-0.9,0.8-1.6,2-3.1,1.7C357.9,219,350.7,219,343.6,218.9z
	"/>
<path fill="#0C9898" d="M691,310.1c0-18.5-0.1-36.9-0.1-55.4c1.3-1.3,2.9-1.1,4.5-1.1c22.3,0,44.6,0,66.8,0c1.3,0,2.5,0.2,3.7,0.6
	c0.9,0.8,0.6,1.9,0.6,2.9c0,16.8,0,33.5,0.1,50.3c0,1.6,0.2,3-2.3,3C739.9,310.1,715.5,310.1,691,310.1z"/>
<path fill="#F8E3C1" d="M365.1,219.1c6.9-7.3,13.9-14.5,20.8-21.8c2.7-2.9,5.4-5.9,8.2-8.8c0.7-0.8,1.2-2.1,2.7-1.8
	c1.4,0.1,2.3,0.8,3.2,1.8c9.7,10.1,20.4,19.2,30.1,29.3c0.6,0.7,1.3,1.3,1.6,2.2c0.5,1.4,0.5,2.9,0.6,4.4c0,10,0,20.1,0,30.1
	c0,1.7,0,3.4-1.1,4.9c-0.2,0.2-0.3,0.3-0.6,0.3c-12.3,1.2-24.7,0.2-37,0.6c-2.8,0.1-5.7-0.7-8.4,0.6c-1.8-0.4-3.7-0.4-5.5,0
	c-3.2-1.4-6.5-0.5-9.7-0.6c-4.7-0.2-4.7,0-4.7-4.9C365.1,243.2,365.1,231.2,365.1,219.1z"/>
<path fill="#11AEA7" d="M589,290.2c-0.1-6.4-0.2-12.9-0.2-19.3c-1.2-1.3-2.2-2.7-3.7-3.8c-0.9-0.7-2.1-1.4-1.7-2.9
	c2.1-2.4,4.5-4.5,6.7-6.8c1.6-1.7,3-3.4,3.6-5.7c-2.8,1.3-7.5,6.6-9.6,10.9c-0.4,0.8-0.4,1.9-1.6,2c-3.3-1-4.2-3.5-4.2-6.6
	c0-9.8,0-19.6-0.1-29.5c-0.1,8.3,0,16.7-0.1,25c0,1,0,2.1,0,3.1c-0.3,3.2-1.2,3.7-3.8,1.8c-5.1-3.8-9.8-8.3-14.8-12.3
	c-2.8-2.3-5.6-4.7-8.4-7.1c-1.1-0.9-2.4-1.8-2.3-3.6c-2.7-11.2,0.3-20.8,7.9-29.2c6.3-6.2,13.9-9.1,22.8-7.7
	c7.4,1.2,12.5,5.7,16.1,12.1c0.6,1.1,0.9,2.3,2.4,2.5c9.9,1.8,16.6,13.2,14.1,25c-0.6,2.6-1.4,5.1-2.9,7.2c-1.6,2.2-1.5,3.8,0,6.1
	c9.8,14.9,2.4,33.3-14.9,37.6C592.6,289.6,590.8,289.8,589,290.2z"/>
<path fill="#FB9619" d="M612.5,549c9.3,5.2,19.3,4.3,29.3,3.8c5.9-0.3,10.3-2.4,12.7-7.9c2.2-4.9,3-10,0.7-15.2
	c-0.3-0.6-1-1.4-0.3-2c0.7-0.6,1.5-0.1,2.3,0.2c3,1.3,4.8,5.2,4.4,9.7c-0.6,7.3-4.2,12.6-11.4,15.4c3.9,3.9,4.3,8.9,4.8,13.7
	c0.4,3.6,1.9,6.4,4.4,8.9c3.1,3,4.5,6.7,4.1,11c-0.1,0.8-0.2,1.5-0.7,2.1c-0.7,0.8-1.6,1-2.6,0.7c-0.9-0.3-0.9-1.1-0.8-1.8
	c1-5.3-1.7-8.2-6.2-10.1c-2-0.9-4-1.9-6-2.8c-1.5-0.7-2.8-1.6-3.6-3.8c-0.4,2.8-0.3,4.9-0.2,7.1c0.3,4.4-1.7,7.6-5,10.3
	c-0.6,0.4-1.2,0.8-1.9,1.1c-1.3,0.5-2.9,1.1-3.8-0.4c-0.8-1.4,0.8-2,1.6-2.8c0.6-0.7,1.5-1.2,2.1-1.9c1.7-1.7,2.2-3.6,1.1-5.8
	c-1.6-3.4-3.1-6.8-3.5-10.8c-4,1.6-7.9,3.1-12.2,3.6c0.4,1.3,1.4,2.1,2.1,3.1c2.8,3.9,3.6,8.1,2.7,12.8c-0.5,2.4-2,3.2-4,2.1
	c-0.7-0.4-1.1-0.9-0.7-1.8c2.1-5.1-0.3-8.7-4-11.8c-1.3-1.1-2.7-2-4-3c-4.3,5.2-9.2,10-12.6,16c-0.9,1.6-2.4,1.4-3.1-0.4
	c-0.9-2.2-0.1-4.2,1.2-6c1.8-2.6,3.9-5,5.4-7.8c2.4-4.6,2.9-9.1-0.4-13.5c-0.8-1.1-1.7-2.1-2.5-3.1c-0.2-0.7,0.4-0.9,0.8-1.1
	c3.3-1.9,6.3-4,8.6-7.1C611.8,549.3,612.1,549,612.5,549z"/>
<path fill="#075E83" d="M604.7,173.1c-12.1-1.2-20.9-10.3-20.6-21.1c0.1-4.9-0.3-6.4-3.2-10.6c-6.9-10.2-4-24.5,6.5-30.9
	c1.8-1.1,2.3-2.1,2.2-4.2c-0.9-10.9,5-18.5,15.2-20c3.8-0.6,7,0.8,9.6,3.4c1.3,1.3,2.8,2.1,4.6,2.7c7.6,2.2,11.4,10.1,8.7,18.5
	c-0.7,2.2-0.1,2.8,1.6,3.9c13.7,8.3,14.5,26.2,1.6,35.3c-1.5,1.1-1.6,2.3-1.8,3.7c-1.6,10.8-9.2,18.2-19.6,19.3
	c-1.2-1.2-1.1-2.7-1.1-4.2c0-14.4-1.4-28.7-0.8-43.1c-1,1.9-1.2,4-1.2,6.2c0,6.4-0.2,12.8,0,19.2c0.2,6.6-1.1,13.2-0.8,19.8
	C605.7,171.7,606,172.8,604.7,173.1z"/>
<path fill="#F16344" d="M556.4,164.8c-37.5,0-75,0-112.5,0c-0.9,0-1.8-0.1-2.7-0.1c0.3-1.7,1.7-2.6,2.8-3.7
	c17.5-17.6,35.1-35.1,52.5-52.7c1.7-1.7,2.5-1.7,4.2,0c17.7,17.7,35.4,35.4,53.2,53C554.9,162.3,556.2,163.1,556.4,164.8z"/>
<path fill="#10AFA8" d="M894.1,458.4c-5.6-0.8-11.3-1.5-16.4-4.3c-9.3-5-15.7-12.2-15.6-23.5c0.1-9.5,5.5-15.1,15-15.6
	c2.8-0.1,2.1-1.7,1.9-3.2c-1-6.6,0.5-12.7,4.1-18.3c6.4-10.1,17.8-10.4,24.8-0.7c3.9,5.5,5.7,11.6,4.5,18.4c-0.5,2.6-0.2,3.8,3,3.9
	c6.4,0.3,11,5.3,11.9,12.1c1.7,12.7-6.6,24.7-20.1,28.9c-2.8,0.9-5.7,1.5-8.7,1.6c-1.3-1.2-1-2.7-1-4.2c-0.1-4.8,0.1-9.6-0.1-14.4
	c-0.1-3.1,0.6-5.6,3.2-7.5c1.2-0.9,2.1-2,2.7-3.3c-0.5-0.7-0.9-0.3-1.2-0.1c-1.1,0.7-2,2.4-3.4,1.8c-1.7-0.8-1.1-2.8-1.2-4.3
	c-0.3-3.2,0.5-6.6-0.7-10c-1.7,1-1.4,2.5-1.5,3.8c-0.1,2.8,0.2,5.7-0.2,8.6c-0.3,2.4-1.2,2.7-3.1,1.3c-1.3-0.9-2.1-2.4-4.2-3.4
	c1.4,2.9,3.2,4.6,5.1,6.4c1.3,1.2,2.3,2.5,2.4,4.4c0.1,6.3,0.1,12.6,0,18.8C895.2,456.7,895.2,457.8,894.1,458.4z"/>
<path fill="#09859F" d="M392.4,593.5c-1.7-0.6-0.8-1.8-0.6-2.8c4.2-17,8.4-34.1,12.5-51.1c0.5-2,1-4,1.4-6.1
	c0.7-0.7,1.6-0.7,2.5-0.7c5.2,0,10.5,0,15.7,0c1,0,2,0,2.8,0.8c2.3,8.5,4.5,17,6.1,25.7c1.8,9.9,2.7,19.9,3.7,30
	c0.1,1.3,1.2,2.8,0,4.2c-2.4,1.1-4.9,1.1-7.4,0.1c-1-0.3-1.2-1.4-1.5-2.3c-3.8-10.3-7.5-20.5-11.3-30.8c-0.2-0.5-0.4-1-0.6-1.6
	c-2.8,6.4-5.5,12.6-8.3,18.8c-2.1,4.6-4.3,9.2-6.6,13.7c-0.4,0.8-0.7,1.8-1.7,2.1C397,594.6,394.7,594.8,392.4,593.5z"/>
<path fill="#0A5660" d="M766,254.1c-1.2,1-2.6,0.5-4,0.5c-23.7,0.1-47.4,0.1-71.1,0.1c-8.5-8.5-16.2-17.7-24.3-26.5
	c-3.4-3.7-6.7-7.5-10-11.2c1.3-1.4,3.1-1.2,4.8-1.2c21.4,0,42.9,0,64.3,0c1,0,2.1-0.1,3,0.5c3.2,0.7,5,3.2,7.1,5.4
	C745.9,232.5,756,243.3,766,254.1z"/>
<path fill="#0B5C66" d="M422.1,186c0-10.2-0.1-20.3,0.1-30.5c0.1-3-0.8-3.9-3.8-3.9c-25,0.1-50,0.1-75,0.1c-14-11.3-28-22.6-42-33.9
	c-0.3-0.3-0.6-0.7-0.9-1c25,0,50.1,0,75.1-0.1c1.8,0,3.3,0.6,4.7,1.7c13.5,10.5,27.1,21,40.7,31.4c1.3,1,2.1,1.9,2.1,3.6
	c-0.1,4.1-0.1,8.2-0.2,12.3c0.6,6.6,0.1,13.1,0.2,19.7C422.9,186.1,422.6,186.2,422.1,186z"/>
<path fill="#10AFA7" d="M262,528.5c-5.3-0.9-8.7-4.3-11.2-8.7c-4.9-8.4-5.6-17.8-4.1-26.9c3.7-23.1,8.3-46.2,14.1-68.9
	c0.7-2.7,1.8-5.4,2.7-8.1c0.2-0.5,0.6-0.9,1-1.4c2,1.6,2.5,3.9,3.1,6c4.3,15.4,7,31.1,10.3,46.7c1.9,9.2,4.1,18.5,5.2,27.9
	c1.3,11.1,0,21.7-8.8,29.9c-2,1.9-4.3,3.4-7.2,3.5C265.4,529.6,263.7,529.6,262,528.5z"/>
<path fill="#0B858D" d="M143.4,301.3c-17.4-1.2-29.5-17.7-24.4-33.4c2-6.3,6-11,12.2-13.5c1.9-0.8,2.2-1.4,1.6-3.4
	c-2.2-7.2-2.5-14.4,1.5-21.2c5.6-9.5,16.8-9.5,22.4,0c3.9,6.8,3.7,14,1.5,21.2c-0.5,1.7-0.3,2.3,1.3,3c14,6.8,17.8,24.2,8.1,36.5
	c-5.1,6.4-11.9,9.8-19.9,11c-1.3-0.8-1.1-2.2-1.1-3.4c-0.1-3.8,0-7.5,0-11.3c0-2.4,0.9-4.1,2.7-5.6c2.4-2.1,4.7-4.3,6.6-6.9
	c0.7-1,1.5-1.9,1.6-3.7c-2.6,1.3-3.7,3.7-5.3,5.4c-1.3,1.4-2.4,3.8-4.5,3c-1.9-0.7-1.1-3.2-1.1-5c-0.1-6.6,0-13.2,0-19.9
	c0-1.3,0.2-2.7-0.8-4.1c-1.7,1-1.4,2.6-1.4,4c-0.1,6,0,12.1,0,18.1c0,1,0,2.1,0,3.1c-0.1,1.3,0.3,3.1-1.1,3.7c-1.6,0.7-2.6-1-3.6-2
	c-1.6-1.7-2.7-3.9-5-5.7c-0.2,2.4,1.1,3.6,2.1,4.9c1.3,1.6,2.7,3.1,4.4,4.2c2.4,1.5,3.3,3.6,3.2,6.3c-0.1,3.5,0,7.1,0,10.6
	C144.4,298.8,144.6,300.3,143.4,301.3z"/>
<path fill="#11B0A8" d="M310.2,631.3c-14.1,0-28.1-0.1-42.2,0.1c-2.6,0-3.2-0.7-3.2-3.2c0.1-10.4,4.5-17.1,13.1-19.1
	c4.7-1.1,6.6-2.7,9.1-6.8c4.1-6.6,9.7-11.1,17.9-10.6c8,0.5,13.7,4.8,16.5,12.4c0.8,2.1,1.7,1.4,2.9,1c11.8-3.9,23.7,1.7,27.2,12.8
	c0.4,1.3,0.6,2.7,0.8,4c0.3,2.2,0.6,4.2,2.4,5.8c0.9,0.8,1.6,2.2,0.9,3.4c-0.5,0.9-1.9,0.5-2.9,0.5c-14.2,0-28.4,0-42.5,0
	C310.2,631.4,310.2,631.4,310.2,631.3z"/>
<path fill="#067381" d="M823.6,429.8c1.5,7,2.9,14,4.6,20.9c3.3,13.6,9.1,26.4,14.8,39.1c-2.4,2.1-5,4-8.4,4.1
	c-11.5-15.9-20.7-33.1-28.5-51.5c-3.9,7.1-7.1,14.3-10.4,21.5c-4.7,10.4-7.9,21.3-11.4,32.1c-0.2,0.6-0.3,1.3-0.4,2
	c-0.3,5.3-0.3,5.4-5.8,5.4c-4.9,0-9.8-0.2-14.7-0.4c-0.9,0-1.9,0-2.3-1.1c-0.3-1.2,0.4-1.9,1.2-2.6c3-2.3,6.5-3.3,10.1-4
	c1.9-0.4,2.4-1.2,2.6-3.1c1.1-10.1,3.4-20,5.4-29.9c2.2-10.9,4.5-21.9,7.5-32.6c1-0.7,2.1-0.7,3.3-0.7c9.7,0,19.4,0,29.1,0
	C821.4,429.2,822.6,429.2,823.6,429.8z"/>
<path fill="#D1EBE9" d="M414.2,87.3c-12,0-24,0-36,0c-4.5,0-4.3,0-3.6-4.3c1.1-6.2,4.7-10,10.7-11.4c3.1-0.7,4.8-2.4,6.1-5.2
	c2.5-5.2,5.8-10,11.7-11.7c9-2.6,17.3-1.1,21.9,6.4c3.1,5,7.1,6.1,12.1,6.4c9.8,0.7,15.9,6.1,17.7,15.9c0.6,3.4,0.1,4.1-3.3,4.1
	C439.1,87.3,426.7,87.3,414.2,87.3z"/>
<path fill="#096E7A" d="M728.8,216.3c-1.3,0.9-2.9,0.7-4.3,0.7c-22.6,0-45.2,0.1-67.8,0.1c-1.6-0.5-2.2,0.9-3,1.7
	c-2.8,2.8-5.5,5.6-8.2,8.5c-8.5-6.1-11.5-15.3-7.7-24.2c4.8-11.3,19-14.1,28.1-5.4c1,0.9,1.9,2,2.8,3c5.5-8.2,10.2-10.8,16.7-8.9
	c8.3,2.5,10,9.4,10.8,17.3c6.6-5.3,13.7-7.5,21.7-4.5C723.4,206.5,727,210.6,728.8,216.3z"/>
<path fill="#055569" d="M806.1,199.8c7.3-10.3,13.1-21.4,15.8-33.8c1.8-8.3,3.2-16.8,4.9-25.1c0.7-0.9,1.8-1,2.8-0.9
	c6.6,0.6,13.2,0.1,19.8,0.3c1.6,0,3.2-0.2,4.4,1.3c1.7,8,5.1,15.5,8,23.1c1.5,4,2.4,8,2.5,12.3c0,10.1,0.3,20.2,0.4,30.3
	c-2.1,2.2-4.6,1.9-7.2,1.2c-1.2-6.7-2.2-13.5-3.6-20.2c-2.1-10.3-5.4-20-13.5-27.9c-5.2,17.2-15.7,30.9-27.2,44
	C810,204.2,807.6,202.7,806.1,199.8z"/>
<path fill="#74B72B" d="M823.6,429.8c-11.9,0.4-23.8,0.4-35.7,0c0.6-5.7,3-11.1,4.1-16.7c-0.1-1.3,0.6-2.4,1.4-3.4
	c1.5-1.8,0.5-2.3-1.1-2.6c-1.6-0.3-3.1-0.5-4.6-1.1c-1.1-0.4-2.5-0.9-1.8-2.6c3.3-9.7,6.6-19.4,9.9-29.1c1.1-3.3,3.1-6.1,5.4-8.6
	c1.8-3,4.3-4,8.6-3.3c3.6,4.5,6.4,9.5,7.2,15.3c0.1,10,1.6,19.9,2.9,29.8C820.8,415.1,823,422.3,823.6,429.8z"/>
<path fill="#FB9518" d="M426.8,533.7c-7,0-14-0.1-21-0.1c-0.2-4.6,0.6-9.2,1-13.8c0.7-8,1.5-16,3.2-23.8c-0.1-2.3,1.4-3.6,2.7-5
	c0.7-0.8,1.5-1.7,2.4-2.2c1.7-0.1,3.3,0.1,4.4,1.8c0.2,0.1,0.3,0.3,0.5,0.4c1.8,2.6,2.5,5.8,3.8,8.6c1.7,3.9,3.6,7.7,5.6,11.4
	c0.6,2.1,2.3,3.3,3.8,4.7c3.6,3.4,7.5,6.4,10.9,10.1c0.1,1.8-1.2,4.7-2.5,5.8c-4.3-1.1-8.3-3.3-12.4-5c-0.7-0.3-1.4-1-2.3-0.8
	c-2.4-1.2-4.1-3.1-5.5-5.4c-2.4-4-5.2-7.6-7.6-11.5c2.5,4.1,5.2,8.1,7.6,12.3c1.3,2.2,3.4,3.5,5.5,4.7
	C426.9,528.5,426.8,531.1,426.8,533.7z"/>
<path fill="#F7E4C2" d="M450.7,374.6c-0.1-1.1-0.4-2.3-0.4-3.4c0-18.2,0-36.3-0.1-54.5c0-2.5,0.5-3.4,3.2-3.3
	c16.9,0.4,33.8,0.1,50.7-0.4c2.9-0.1,3.7,0.8,3.7,3.6c-0.1,17.7,0,35.4,0,53.1c0,1.6-0.2,3.2-0.3,4.8c-1.4,0-2.9,0.1-4.3,0.1
	c-2-0.8-3-2.8-4.4-4.2c-5.6-5.8-11.6-11.3-16.9-17.5c-2.5-3-3.2-2.8-5.8,0.2c-5.7,6.8-12.5,12.7-18.2,19.4c-0.8,0.9-1.8,1.4-2.8,2
	C453.6,374.7,452.2,374.6,450.7,374.6z"/>
<path fill="#F15A42" d="M853.8,141.7c-9,0-18,0.1-27-0.8c-2.5,0.1-1.9-1.7-1.8-3.1c0.6-11.4,2.2-22.7,5.1-33.7
	c0.2-0.6,0.2-1.3,0.2-2c-0.1-6.4,5-12.4,11.9-13.8c2.6,0.5,5.4,0.3,7.4,2.5c5.2,3.1,5.9,8.3,6.2,13.6c0.3,4.8,0.5,9.6,0.8,14.5
	c2.9-0.5,4.1-3.5,6.8-4.2c1.4,1.1,2.9,2.1,3.2,4c-3.4,4.5-8.2,7.3-12.6,10.6c-4.5,0.4-6.9-2.6-8.8-5.8c-2.8-4.7-5.2-9.6-5.3-13.4
	c0.4,2.8,1.6,7.1,3.6,11.3c2,4,4.3,7.6,9.1,8.5c0.5,0.1,0.8,0.5,1,0.9C854.6,134.3,854.4,138,853.8,141.7z"/>
<path fill="#F39028" d="M317,288.3c0.1,1.4,0.1,2.7,0.2,5.2c2-5.5,4.8-9.1,8.8-11.9c1-0.7,2.1-2,3.3-1.4c1.2,0.6,0.8,2.2,0.9,3.5
	c0.3,2.7,0.6,5.4,0.3,8.2c-0.9,6.8-4.5,11.4-11.1,13.4c-1.7,0.5-2.5,1.2-2.4,3c0.1,2.9,0,5.9,0.3,8.9c2.1-4.4,4.6-8.3,8.5-11.2
	c1-0.7,2-2,3.2-1.6c1.3,0.4,0.9,2.1,1.2,3.3c1,5.9,0.7,11.6-2.5,16.9c-1.9,3.2-4.6,5.5-8.2,6.4c-2.1,0.5-2.7,1.6-2.5,3.6
	c0.1,1.6,0,3.2,0,4.8c0,1.7-0.7,2.5-2.4,2.5c-1.8,0-2.7-0.9-2.4-2.5c0.6-4.9-0.3-8.1-5.9-10c-4.6-1.5-6.4-6.4-7.3-11.3
	c-0.7-3.9-0.5-7.7-0.3-11.6c0.1-2,0.8-2.5,2.8-1.4c4.7,2.7,7.8,6.8,10.6,11.4c0-2.9,0-5.8,0-8.7c0-1.5-0.8-1.9-2-2.2
	c-6.7-1.8-10.3-6.4-11.3-13.1c-0.5-3.3-0.3-6.6-0.1-9.9c0.1-2.1,0.9-2.8,3-1.7c3.8,2,6.3,5.1,8.5,8.7c0.5,0.8,0.6,2,2,2.9
	c0-1.9,0-3.5,0-5.2c-0.3-0.8,0.3-1.1,0.7-0.8C314.2,287.1,315.8,287.2,317,288.3z"/>
<path fill="#F49027" d="M352,292.2c1.5-5.3,5.2-8.7,9.6-11.6c0.9-0.6,1.9-1.1,2.2,0.6c0.8,5.2,1.2,10.5-0.7,15.6
	c-1.6,4.2-4.5,7.3-8.8,8.5c-2.5,0.7-3.2,2.1-3.2,4.3c0,2.4,0,4.7,0.3,7.2c2-4.1,4.4-7.9,8.1-10.5c1.2-0.8,2.4-2.4,3.8-1.9
	c1.2,0.5,0.8,2.5,0.9,3.7c0.6,6.1,0.3,12.1-3.5,17.4c-1.8,2.5-3.9,4.5-6.9,5.3c-1.9,0.5-2.6,1.5-2.4,3.4c0.2,1.7,0,3.4,0,5.1
	c0,1.7-0.9,2.4-2.6,2.5c-1.5,0-2.7-0.7-2.5-2.1c1.2-6.1-2-8.8-7.1-11.3c-4.4-2.2-5.9-7.1-6.3-12c-0.3-3.2-0.2-6.4,0-9.6
	c0.1-3.1,0.7-3.3,3.4-1.4c3.3,2.2,5.9,5.4,9.7,11.8c0-3.5-0.1-6.4,0-9.3c0-1.4-0.7-1.9-1.9-2.4c-8.2-3.2-11.2-7.6-11.3-16.4
	c0-1.5-0.1-3,0-4.5c0.1-1.5-0.5-3.7,1-4.4c1.4-0.6,2.9,1,4.2,1.9c3.5,2.4,5.9,5.6,7.7,10.5c0.1-2.3,0.2-3.6,0.2-5
	c1.5-1,3.3-0.8,4.4,0c1.4,0.9,0.3,2.9,0.7,4.4c0.1,0.2,0.2,0.4,0.4,0.5C351.7,292.5,351.8,292.4,352,292.2z"/>
<path fill="#F38F28" d="M385.6,291.6c1.4-5.1,4.9-8.4,9.1-11.1c1.2-0.8,2.3-0.8,2.4,0.9c0.5,5.6,1.1,11.2-1.3,16.5
	c-1.6,3.5-4.3,6.1-7.9,7.1c-2.6,0.8-3.3,2.2-3.2,4.7c0.2,2.2,0,4.5,0.3,6.8c2.7-5.3,6.2-9.8,11.6-12.5c3.2,8,1,24.8-10,27
	c-1.6,0.3-1.8,1.3-1.8,2.7c0.1,1.8,0,3.7-0.1,5.5c-0.1,1.7-0.9,2.5-2.7,2.4c-1.6-0.1-2.2-0.9-2.2-2.4c0-0.2,0-0.5,0-0.7
	c0.6-4.4,0-7.5-5.3-9c-4.1-1.1-6.2-5.3-7.3-9.4c-1.2-4.3-1.1-8.8-0.8-13.3c0.2-2.4,0.9-3.6,3.5-1.7c3,2.2,5.6,4.7,7.4,8
	c0.5,1,1.1,1.9,2.3,2.7c0-2.9,0-5.8,0-8.7c0-1.3-0.7-1.6-1.8-2.1c-8-3.2-11.6-8.9-11.3-17.6c0-1.1,0.2-2.3,0.3-3.4
	c0.5-5.2,0.9-5.3,5.1-2.3c3.3,2.4,5.8,5.5,6.9,9.5c0.9-1,1-1,0.9-1.4c-0.3-2.3,1.3-2.6,3-2.7c2.4-0.2,1.7,1.5,1.8,2.8
	C384.8,290.7,384.2,291.9,385.6,291.6z"/>
<path fill="#D1EBEA" d="M676.7,57.8c-10.3,0-20.6-0.1-30.9,0.1c-3.2,0.1-3.6-0.9-2.8-3.7c1.9-6.2,6.1-9.7,12.4-10.6
	c2.1-0.3,3-0.9,3.6-3.1c1.7-5.7,6.1-9.9,14.1-9.5c6,0.3,10.8,3.8,12.4,9.9c0.6,2.1,1.4,2.5,3.6,2c8.5-1.8,15.9,1,19.8,7.2
	c0.3,0.5,0.6,1,0.8,1.5c2.3,5.3,1.7,6.3-4,6.3C696.2,57.8,686.5,57.8,676.7,57.8z"/>
<path fill="#D1EBEA" d="M702.5,145.1c-10.3,0-20.6-0.1-30.9,0.1c-3.2,0.1-3.6-0.9-2.8-3.7c1.9-6.2,6.1-9.7,12.4-10.6
	c2.1-0.3,3-0.9,3.6-3.1c1.7-5.7,6.1-9.9,14.1-9.5c6,0.3,10.8,3.8,12.4,9.9c0.6,2.1,1.4,2.5,3.6,2c8.5-1.8,15.9,1,19.8,7.2
	c0.3,0.5,0.6,1,0.8,1.5c2.3,5.3,1.7,6.3-4,6.3C721.9,145.1,712.2,145.1,702.5,145.1z"/>
<path fill="#097A86" d="M344.3,408.5c2.4-2.4,4-5.1,6.9-6.5c1.7-0.8,3.5-1.3,5.2-0.1c1.6,1.2,1.4,3,1.1,4.7
	c-1.7,9.3-13.5,18.7-23.5,18.8c-10.5,0.1-20.7-7.9-22.6-17.9c-0.2-0.9-0.3-1.8-0.2-2.7c0.3-3.8,2.4-5,5.8-3.4
	c2.8,1.3,4.3,3.8,6.2,6.6c0.4-5-0.4-9.7,0.8-14.2c2.1-7.7,9.1-11.2,15.5-7.8c4.1,2.2,5.4,6,5.8,10.2
	C345.6,400.3,344.6,404.2,344.3,408.5z"/>
<path fill="#03546B" d="M415.1,489.2c-1.7,2.3-4.1,4-5.1,6.8c-2.2,2.4-4.4,4.9-6.7,7.3c-1.7,1.9-3.6,3.5-6,4.4c-2.8,1-5.5,0.2-7-2.1
	c-1.6-2.4-1.6-5.2,0.1-7.8c1.2-1.9,2.8-3.2,4.7-4.1c2-0.9,2.8-2.6,3.2-4.6c1.3-7.1,2.4-8.4,8.9-9.2c2.3-0.3,2.9-1.4,3.5-3.4
	c1.6-5.8,5.2-8.4,10.8-8.2c3.6,0.1,5.5,1.6,6.6,5.4c0.2,1.1-0.4,1.8-1.3,2.3c-1.4,0.8-2.9,1.7-4.5,2c-3.4,0.8-5.3,2.9-5.5,6.6
	C416.6,486.3,416.5,488.1,415.1,489.2z"/>
<path fill="#0FB0A8" d="M769.9,581.6c0.2-6.3,0.8-11.8,3.6-16.8c3.1-5.5,7-7.5,12.3-6.4c2.3,0.5,4.4,1.6,5.2,4
	c0.8,2.4-0.5,4.2-2.1,5.8c-3.4,3.4-7.4,6-11.8,7.3c-3,0.9-3.9,2.7-4.3,5.3c-0.6,3.9-0.7,7.7-0.6,11.6c0.1,5.4,0,10.7-0.1,16.1
	c0,0.8,0.5,2-1,2.1c-1.2,0.1-2-0.6-2.1-1.8c-0.1-2.2-0.1-4.3,0-6.5c0.5-7,0-13.9-2.5-20.6c-0.6-1.5-1-2-2.9-1.6
	c-9.5,2-20.2-4.9-21.4-13.6c-0.3-2.2-0.3-4.5,1.6-6c1.9-1.5,3.9-0.6,5.8,0.2c2.9,1.2,5.5,2.9,7.6,5.1c2.2,2.2,4.2,4.5,6.2,6.8
	c0.5-6.9,0.2-8-3.5-13.8c-2.2-3.5-3.2-7.3-2.1-11.4c0.9-3.3,2.6-6,6.2-6.6c3.9-0.6,7.3,1,9.7,4c2.3,2.8,2.3,6.1,0.8,9.4
	c-1.4,3-4,5-6.4,7c-1.4,1.2-1.9,2.4-1.8,4.1C767.1,570.5,767.2,576,769.9,581.6z"/>
<path fill="#075E84" d="M917.4,324c-1,5.3-4.6,8.5-9.3,10.1c-13.1,4.4-26.4,5-38.9-1.3c-5.4-2.8-10.3-6.1-16.8-5.7
	c-1.7,0.1-3.5-0.9-5-1.9c-1.2-0.9-2.5-1.9-2.3-3.6c0.2-1.7,1.4-2.9,3.1-3.3c3.3-0.8,5.2-2.9,6.8-5.7c5-8.8,7.4-9.2,15.7-3.1
	c-0.1,1.5-1.4,1.7-2.3,2.2c-1.7,0.8-3.4,1.3-5,2.2c-0.9,0.5-2.3,0.5-2.4,1.7c0,1.5,1.5,1.9,2.6,2.3c3.9,1.3,7.7,0.2,11.4-0.8
	c1.5-0.4,3-1.2,4.6-1.1c2.5,0.4,4.6,1.9,7,2.8c9.2,3.6,18.7,5.9,28.7,5C916,323.4,916.8,323.3,917.4,324z"/>
<path fill="#F15E43" d="M917.4,324c-13.6,1.9-26.2-1.7-38.1-8c0-2.1,1.8-3.1,3-4.3c6.3-6.1,11.4-13,14-21.5c0.7-2.5,1.2-5.1,1.5-7.7
	c0.2-2.4-0.3-3.7-3.2-3.2c-1.8,0.3-3.7,0.4-5-1.4c0.2-0.7,0.5-1.3,0.7-2c2.3-3,5.3-1.3,8-1.3c5.2,3,8.7,7.6,11.2,13
	c4.1,10.1,6.4,20.6,7.9,31.3C917.6,320.6,917.8,322.3,917.4,324z"/>
<path fill="#22B8AC" d="M115.4,377.9c-0.1,1.7,0.2,3.1,0.8,4.4c1.3,2.8,3.5,4.2,6.5,4.1c3-0.1,4.9-1.8,6-4.4c0.9-2.2,1-4.4,0.3-6.7
	c-1.1-3.4-3.9-5.2-7.5-4.7c-3.4,0.4-5.9,3.2-6.1,6.7C115.4,377.6,115.4,377.9,115.4,377.9z"/>
<path fill="#22B8AC" d="M595,120.5c0,0.9,0.1,1.5,0.4,2.2c0.7,1.4,1.8,2.1,3.2,2c1.5-0.1,2.4-0.9,3-2.2c0.4-1.1,0.5-2.2,0.1-3.3
	c-0.6-1.7-1.9-2.6-3.7-2.4c-1.7,0.2-2.9,1.6-3,3.3C595,120.4,595,120.5,595,120.5z"/>
<path fill="#22B8AC" d="M586.5,136.8c0,0.9,0.1,1.5,0.4,2.2c0.7,1.4,1.8,2.1,3.2,2c1.5-0.1,2.4-0.9,3-2.2c0.4-1.1,0.5-2.2,0.1-3.3
	c-0.6-1.7-1.9-2.6-3.7-2.4c-1.7,0.2-2.9,1.6-3,3.3C586.5,136.6,586.5,136.8,586.5,136.8z"/>
<path fill="#22B8AC" d="M617.4,135.6c0,0.9,0.1,1.5,0.4,2.2c0.7,1.4,1.8,2.1,3.2,2c1.5-0.1,2.4-0.9,3-2.2c0.4-1.1,0.5-2.2,0.1-3.3
	c-0.6-1.7-1.9-2.6-3.7-2.4c-1.7,0.2-2.9,1.6-3,3.3C617.4,135.4,617.4,135.6,617.4,135.6z"/>
<path fill="#22B8AC" d="M610.2,110.7c0,0.9,0.1,1.5,0.4,2.2c0.7,1.4,1.8,2.1,3.2,2c1.5-0.1,2.4-0.9,3-2.2c0.4-1.1,0.5-2.2,0.1-3.3
	c-0.6-1.7-1.9-2.6-3.7-2.4c-1.7,0.2-2.9,1.6-3,3.3C610.2,110.5,610.2,110.7,610.2,110.7z"/>
<path fill="#055261" d="M422.1,186c0.2,0,0.4,0,0.6,0c0.2-0.3,0.5-0.4,0.7-0.1c5.8,0,11.6,0,17.4,0c0,11-0.1,22-0.1,33
	c-3.4,1.7-6.9,1.6-10.3,0c-11.3-10.8-22.5-21.6-33.8-32.3c1-1.1,2.4-0.6,3.6-0.6C407.5,186,414.8,186,422.1,186z"/>
<path fill="#075E85" d="M842,88.9c-7.3,1.4-16.3-6.6-10.6-6.6c2.3,0,3.2-1.4,3.2-3.6c0-1.6,0.1-3.2,0-4.8c-0.4-4.9,2-8,6.2-10
	c3-1.4,6.3-2.1,9.6-2c7,0.2,11.4,6.3,9.6,13c-0.2,0.8-0.6,1.2-1.4,1.3c-2.6-3.2-4.6-3.1-7.8-0.3c-3,2.6-4.9,5.4-5.3,9.4
	C845.4,87.3,844.2,88.8,842,88.9z"/>
<path fill="#0FAFA8" d="M476.9,434.9c5.9,3.4,9.9,8.1,14.1,13c0.5-10.2-0.7-20,1.5-29.8c5.2,9.4,7.8,19.4,8.7,30.2
	c1.5-0.5,1.8-2,2.4-3.1c2.7-5.1,6.2-9.6,10.3-13.6c1.4-1.4,1.9-1.2,2.3,0.8c2.1,10.8-3.5,24.2-12.7,30.3c-4.9,3.2-9.4,2.7-13.9-1.6
	c-4.6-4.4-7.7-9.9-9.9-15.8C478.5,442,477,438.9,476.9,434.9z"/>
<path fill="#075E84" d="M800.3,282.1c1.5-5.3,3.5-7.1,9.3-7.3c4.6-0.2,7.3-2.6,9.5-6.1c1.4-2.3,2.8-4.7,4.6-6.8
	c5.8-6.7,14.4-5.3,17.3,3c1.4,4,2.8,5.9,7.3,6.2c5.4,0.3,7.4,3.4,8.6,8.7c0.6,2.9-1,2.4-2.5,2.4c-15.4,0-30.8,0-46.3,0
	C805.6,282.1,803.1,282.1,800.3,282.1z"/>
<path fill="#085E81" d="M716.5,371.3c-5,0.3-9.3-1.6-13.1-4.5c-6.8-5.1-13.4-5-20.1-0.1c-8.3,6.1-16.9,6-25.6,0.8
	c-5.7-3.5-11.7-5.8-18.5-3.7c-4.7,1.5-8.7,4.2-11.7,8c-1.9,2.4-2.9,0.7-4.3-0.3c-2.2-1.5-0.5-2.4,0.5-3.3
	c6.9-7.2,14.9-11.7,25.3-10.1c3.8,0.6,7.2,2.4,10.3,4.4c7.8,5,15.2,4.8,22.8-0.8c7.2-5.3,14.8-5.2,22.4-0.4c1.1,0.7,2.1,1.4,3.1,2.1
	c6,4,11.9,4,17.8-0.2c5.1-3.7,10.6-6.2,17.2-5c7,1.2,11.5,5.9,15.2,11.3c1.2,1.8-1.5,2-2.3,3.1c-0.9,1.2-1.5,0.3-2-0.4
	c-0.9-1.2-1.8-2.4-2.8-3.5c-6.2-6.8-13.6-7.6-21.2-2.4C725.5,369,721.5,371.6,716.5,371.3z"/>
<path fill="#BBD36E" d="M332.3,503.2c-0.3-3.4-1-5.6-3.2-7.6c-4.2-4-5.5-9.1-4.2-14.7c0.2-0.9,0.5-2.2,1.8-2.2c1,0,1.3,1.2,1.5,2
	c1.3,3.8,2.6,7.7,4.2,12.4c0.8-4.3,1.7-7.9,3.9-10.9c0.6-0.9,1.3-2.1,2.6-1.9c1.5,0.2,1.8,1.7,2,2.9c0.6,5.2-0.3,10.1-4.6,13.7
	c-1.6,1.3-2,2.4-1.5,4.3c0.8,2.9,1.7,5.6,3.4,9c0.8-5.4,2.2-10,5.3-13.8c0.9-1.2,1.9-3.3,3.5-2.7c1.7,0.6,1.6,2.9,1.5,4.6
	c-0.3,5.1-2.1,9.7-5.7,13.2c-2.3,2.2-2.2,4.3-1.1,6.7c1.1,2.5,2.5,4.8,4.3,8.2c0.5-5.3,1.4-9.4,3.6-13.1c0.9-1.6,1.8-4.3,3.8-3.6
	c1.9,0.6,1.5,3.4,1.2,5.3c-0.7,4.7-2.1,9.2-6,12.3c-2,1.6-1.1,3.8-1.4,5.7c-0.1,0.8,0.3,2.1-1,2.1c-1.3,0.1-1.1-1.2-1.3-2
	c-0.5-1.8,0-3.7-0.9-5.4c-2-3.8-3.7-7.3-9.5-6.4c-5.4,0.9-9.9-2.2-13.2-6.5c-0.7-1-1.5-2.2-0.7-3.5c0.7-1.2,2-0.8,3.1-0.8
	c4.3,0.1,7.8,2.2,11.3,4.4c0.9,0.6,1.8,1.2,3.2,2.2c-1-3.5-2.7-5.9-4-8.4c-0.6-1.2-1.8-0.7-2.8-0.8c-5.1-0.7-9.8-2.2-13-6.6
	c-0.7-1-1.7-2.1-0.9-3.4c0.7-1.3,2.1-1.2,3.4-1.2c2.8-0.1,5,1.3,7.1,3C329.5,500.6,330.7,501.7,332.3,503.2z"/>
<path fill="#075D80" d="M645.1,338.3c5.2-0.2,9.9,1.6,14.1,4.5c7.3,5.1,14.2,4.9,21.5-0.1c9-6.2,16.7-6,25.7,0.1
	c7.8,5.3,11.9,5.4,19.7,0.1c11.4-7.9,23-5.7,31.6,6.5c1.2,1.6-0.1,2-0.9,2.6c-0.8,0.6-1.5,2.5-3,0.8c-0.9-1-1.7-2.1-2.6-3.2
	c-5.2-6.5-13.5-8.6-20.1-3.8c-10.3,7.5-19.8,7.6-30-0.1c-5.6-4.2-12-2.8-17.6,1c-4.3,2.9-8.8,5.2-14.2,5c-4.2-0.2-8.1-1.4-11.5-3.8
	c-11.5-8.1-22.8-4.5-30.3,4c-2.2,2.5-3.2,1.2-4.7-0.3c-0.8-0.8-1.1-1.2-0.2-2.2C628.7,342.9,635.7,338.1,645.1,338.3z"/>
<path fill="#D0EBEA" d="M544.9,68.7c-7.9,0-15.8,0-23.7,0c-3.2,0-3.6-0.7-2.6-3.7c2.6-7.1,8-9.6,14.8-6.6c1.5,0.7,1.6,0.1,2.1-1
	c3.5-7.1,7.1-9.2,15-8.6c3.7,0.3,7.3,3.2,8.1,6.8c0.3,1.3,0.3,1.9,2,1.7c7-0.9,9.8,4,11,9.2c0.5,2.2-1.1,2.3-2.7,2.3
	C560.9,68.7,552.9,68.7,544.9,68.7z"/>
<path fill="#075E85" d="M909.4,287.7c-3.5-4.3-6.6-8.9-11-12.4c-3.4-1.4-4.4-4.4-5-7.6c-0.8-5-2.5-6.7-7.5-7.9
	c-1.7-0.4-3.7-0.4-4.7-2.3c-0.6-5.9,1.1-9.1,6-10.8c5.4-1.9,12.4-0.3,14.4,4.5c2.8,6.5,7.1,11,12.6,15.4
	C922.5,273.1,919.6,283.9,909.4,287.7z"/>
<path fill="#075F84" d="M809.8,363.1c-0.7-0.8-0.8-1.9-0.7-2.9c0.1-1.2-0.1-2.2-1.4-2.8c-2.3-1.1-2.9-3.1-2.9-5.4c0-1,0-2,0-3.1
	c-0.1-4-0.8-4.4-4.4-2.9c-3.6,1.5-6.1,0.8-8.3-2.1c-2.6-4.3-2.1-7.3,2.2-10c4.6-2.9,9.6-3.6,14.6-1c4.9,2.5,7.3,6.8,7.1,12.3
	c-0.1,3.2-0.4,6,3.3,7.9c2.4,1.2,2.5,4.4,2.9,7"/>
<path fill="#F16345" d="M455.1,374.7c7.1-8.5,15.2-16.1,22.7-24.3c0.8-0.9,1.5-1.3,2.5-0.2c7.4,8.3,15.9,15.7,22.9,24.5
	C487.1,374.7,471.1,374.7,455.1,374.7z"/>
<path fill="#0E8393" d="M717.9,464.5c-0.7-5.6-1.2-10.2,0-14.8c1.2-4.4,4-6.8,7.6-6.3c3.5,0.4,6,3.6,6.1,7.9c0.1,1.9,0,3.9-0.1,5.8
	c-0.1,1.9-0.4,3.8-0.7,6.7c1.5-2.1,2.4-3.5,3.4-4.8c1.4-1.8,3.2-4.2,5.5-2.8c2.6,1.5,1.3,4.4,0.2,6.5c-3.3,6.1-8.4,9.9-15.5,10.2
	c-7.4,0.3-12.6-3.4-16.1-9.6c-0.3-0.6-0.6-1.2-0.8-1.9c-0.6-1.5-1.3-3.2,0.2-4.4c1.7-1.4,3.2-0.1,4.6,0.8
	C714.6,459.1,715.7,461.6,717.9,464.5z"/>
<path fill="#E8403A" d="M889.6,278c1.9,0.5,3.8,1.2,5.7,0.4c3.3-1.3,3.7,1.2,3.5,3.1c-0.7,8.7-3.8,16.5-9.1,23.4
	c-3.1,4.1-7,7.4-10.5,11.2c-2.9,1.1-5.7,2.3-8.8,2.8c-4.6,0.7-8.6,0.2-11.9-3.5c3.5-3,8.3-3.6,12.1-6c5.3-1.2,8-5.1,9.8-9.9
	c2.2-5.9,4.6-11.8,7-17.7C888,280.5,888.9,279.3,889.6,278z"/>
<path fill="#056B7D" d="M781,166.6c1.7-2.5,2.9-4.4,4.3-6.1c1-1.2,2.3-2.5,4.1-1.8c1.9,0.8,1.6,2.6,1.4,4.2
	c-1.1,10.6-14.3,17.7-23.7,12.8c-4.4-2.3-7.6-5.8-9.2-10.6c-0.5-1.7-0.7-3.6,1-4.6c1.7-1,3.1,0.3,4.2,1.5c1.8,2,3.4,4.3,5.4,6.9
	c-0.7-4.5-0.7-8.3,0.1-12.2c0.8-4.1,3.4-6.8,6.3-6.7c3.1,0.1,5.5,3,6.3,7.1C781.8,159.9,780.8,162.8,781,166.6z"/>
<path fill="#F48F1C" d="M602.5,555.9c-2-1.2-4.2-1.6-6.5-1.7c-2.2-0.1-4.4-0.5-6.3-1.8c-0.7-0.5-1.3-1-1.6-1.8
	c-0.3-0.8-0.9-1.6-0.3-2.5c0.6-0.9,1.6-0.4,2.4-0.4c0.7,0,1.3,0.2,2,0.3c2.2,0.3,4.5,1.1,4.8-2.6c0.1-1.4,1.8-2.2,3.4-2.3
	c2.2-0.2,4.1,0.6,5.9,1.6c1.9,1.1,3.8,2.3,5.4,3.8c0,1.4-1,2.3-1.9,3.1c-1.6,1.5-3.3,2.9-5.2,4C603.9,555.9,603.2,556.2,602.5,555.9
	z"/>
<path fill="#0A5D6D" d="M143.4,301.3c0-5.1-0.1-10.3,0.1-15.4c0.1-2-0.6-3.2-2.2-4.2c-3-1.8-5.2-4.4-7.1-7.3c-0.8-1.3-2-3.2-0.5-4.3
	c1.5-1.1,2.5,1,3.4,2.1c1.8,2.3,3.3,4.9,6.3,7.1c0-2.1,0-3.7,0-5.3c0-6.7,0-13.5,0-20.2c0-0.8,0-1.6,0-2.4c0.1-1.5,0.8-2.8,2.4-2.7
	c1.7,0.1,1.6,1.6,1.6,2.9c0,6.7,0,13.5,0,20.2c0,2.3,0,4.7,0,7.5c3.2-2,4.7-5,6.8-7.3c0.6-0.7,1.1-1.4,1.8-2.1
	c0.8-0.8,1.8-1.2,2.7-0.3c0.7,0.7,0.3,1.6-0.2,2.5c-2.4,4.1-5.7,7.4-9.3,10.4c-1,0.9-1.8,1.5-1.8,3c0.1,5.4,0.1,10.7,0.2,16.1
	c0.1,5.1,0.2,10.3,0.2,15.4c0,1.8,0.2,4.1-2.4,4.1c-2.3-0.1-2.2-2.2-2.2-3.9C143.5,311.8,143.4,306.6,143.4,301.3z"/>
<path fill="#777420" d="M44.6,453c4.4-0.3,8.8-0.2,13.1,0c0,8.9-0.1,17.8,0.1,26.7c0,2.2-0.6,3-2.8,2.8c-3.3-0.2-7.6,1-9.6-0.6
	c-2.2-1.7-0.6-6.2-0.7-9.4C44.5,466,44.6,459.5,44.6,453z"/>
<path fill="#FDBC37" d="M385.6,291.6c0,0.5-0.1,1.1-0.6,1c-1.1-0.2-0.7-1.2-0.7-1.9c-0.2-2.4-1.6-3.4-3.4-2.3
	c-1.3,0.8-0.6,2-0.8,3.1c-0.4,2.2-0.8,0.9-1.3,0c1.3-2.4,0.7-4.5-0.7-6.6c-2.2-3.1-3.9-6.4-4.3-10.3c-0.5-5.6,0.9-10.4,5.6-13.9
	c1.8-2,3.7-1.9,5.5,0c9,6.1,7.5,17.4,1.4,24.2C384.5,287.1,384.3,289.2,385.6,291.6z"/>
<path fill="#FDBD37" d="M352,292.2c-0.3,0.6-1.2,0.8-1,0.1c0.7-4.2-2.1-4.4-4.9-4.7c-0.3-1.8-1.5-3-2.5-4.4
	c-6-7.8-4.3-17.8,3.8-23.3c1-0.7,1.7-0.7,2.8-0.1c8.3,4.5,10.4,17.3,3.7,24.2C351.4,286.5,350.4,289,352,292.2z"/>
<path fill="#FDBD38" d="M317,288.3c-1.7,0.1-3.4,0.1-4.8-1.3c-0.6-1.2-1.4-2.3-2.3-3.4c-6.6-7.5-5.1-17.9,3.1-23.5
	c1.3-0.9,1.9-0.4,2.9,0.2c10.3,5.9,8.7,18.7,2.9,24.9C318.1,286.1,317,286.9,317,288.3z"/>
<path fill="#0A5C6D" d="M894.1,458.4c0.1-7.3,0.1-14.6,0.2-21.9c0-1.4-0.7-2-1.6-2.8c-2.2-2-4.3-4.1-5.8-6.7
	c-0.4-0.7-1.1-1.7-0.1-2.4c1-0.8,1.7,0.1,2.3,0.8c1.4,1.6,2.8,3.3,4.2,4.9c0.4-0.2,0.7-0.4,1.1-0.6c0-3.7,0-7.4,0-11
	c0-1.8-0.2-4.4,2-4.5c2.2-0.1,2,2.5,2.1,4.3c0,3.6,0,7.3,0,11.2c1.9-0.5,2.6-2.1,3.8-3c0.8-0.6,1.7-1,2.5-0.5
	c1.1,0.8,0.2,1.6-0.2,2.3c-0.7,1-1.4,2.2-2.4,2.9c-3.3,2.3-4,5.3-3.8,9.1c0.3,5.7,0.1,11.4,0.2,17.1c0,6.2,0,12.3-0.1,18.4
	c0,1.7,0.6,4.2-2.1,4.3c-2.9,0-2.2-2.6-2.2-4.4C894,470.3,894.1,464.3,894.1,458.4z"/>
<path fill="#2AA94D" d="M66,208.4c4.1,0,8.2,0,12.3,0c0,7.9-0.1,15.7,0,23.5c0,2.1-0.4,3.2-2.8,2.9c-3-0.3-6.9,1.2-8.9-0.6
	c-2-1.8-0.6-5.8-0.7-8.8C65.9,219.8,66,214.1,66,208.4z"/>
<path fill="#12AFA8" d="M604.7,173.1c0.4-13.8,0.9-27.5,0.8-41.3c0-2.3,0.4-4.5,0.6-6.8c0.1-1.1,0.5-2.1,1.8-2
	c1.6,0.2,1.6,1.3,1.5,2.6c-0.9,10.1-0.7,20.2,0,30.4c0.4,5.7,0.1,11.4,0.2,17.1c0,6.5,0,12.9-0.1,19.4c0,1.1,0.4,2.6-1.2,2.8
	c-1.4,0.2-2.7-0.6-3-2.2c-0.3-1.4-0.5-2.9-0.5-4.4C604.6,183.5,604.7,178.3,604.7,173.1z"/>
<path fill="#FDAA90" d="M792.1,343.9c3.1,2.2,6.2,3,9.6,0.2c1.6-1.3,3-0.5,3.7,1.4c0.8,2.1,0.6,4.2,0.4,6.4
	c-0.2,2.5,0.5,4.6,3.4,4.9c1.3,0.1,1.4,0.8,1.2,1.8c-0.2,1.4-0.4,2.9-0.6,4.4c-3.3-0.2-6.2,0.6-8.7,2.8c-1.2-2.5-2.4-4.7-5.6-5.7
	c-2.9-0.9-4-3.9-4.2-6.8C791.2,350.2,791.2,347,792.1,343.9z"/>
<path fill="#FDAA8D" d="M785.8,403.5c0.1,1.5,1.3,1.8,2.4,2c1.8,0.4,3.6,0.8,5.3,1.2c1.9,0.4,3.1,1,1.1,3c-1,1-1.8,2.3-2.7,3.5
	c-3.8,2.9-8,4.2-12.8,4.1c-3.1-0.1-6.2,0.1-9.3,0.1c-2.8,0-4.6-1-4.7-4.1c-0.1-2.8,1.1-4.1,4-4.4c4.2-0.5,8.3-1.3,12.5-2
	C783.6,406.5,785.2,405.7,785.8,403.5z"/>
<path fill="#FDAB92" d="M415.1,489.2c0.8-1.8,1.2-3.9,1.2-5.8c0-3.6,2.2-4.8,4.8-5.6c2.1-0.7,4.1-1.8,6.1-2.6
	c0.7-0.3,0.7-0.9,0.9-1.4c1,4.2-0.1,8-1.8,11.6c-0.5,1-1.3,1.8-2.3,1.6c-2.8-0.4-3.7,1.5-4.4,3.7C418.1,490,416.6,489.5,415.1,489.2
	z"/>
<path fill="#FDAC93" d="M842,88.9c2-1.2,3.2-2.7,3.2-5.2c-0.1-3.1,1.1-5.3,3.9-7c1.9-1.1,2.7-3.7,5.5-3.9c2.7-0.2,4.4,0.3,4.1,3.5
	c-1,2.2-1.1,4.6-1.4,6.9c-0.3,2.5-1.5,3.9-3.8,4c-2.4,0.1-3.4,1.5-3.9,3.5C847.1,90.1,844.5,89.5,842,88.9z"/>
<path fill="#FCAB91" d="M881.3,257.5c2.2,0.6,4.4,1.2,6.6,1.8c4,1,6.3,3.5,6.4,7.7c0.1,3.5,2,5.9,4.2,8.3c-2.7,0.6-5.6-0.8-8.2,0.7
	c-0.7-2.7-1.4-5.1-4.8-5.7c-2.1-0.4-2.9-2.4-3.3-4.4C881.6,263.1,880.9,260.3,881.3,257.5z"/>
<path fill="#FCC555" d="M510.6,535.9c12.3,8,25.6,6.6,38.9,5.9c7.8-0.5,13.7-3.7,16.9-12.1c2.9-7.5,3.9,8.1-5.6,12.4
	c5.2,5.9,5.7,13.6,6.4,21.1c0.6,5.5,2.5,9.8,5.9,13.6c4.1,4.6,5.9,10.3,5.5,16.9c-0.1,1.2-0.2,2.3-0.9,3.2c-0.9,1.2-2.1,1.6-3.5,1.1
	c-1.2-0.4-1.2-1.7-1-2.8c1.3-8.1-2.3-12.6-8.2-15.5c-2.7-1.4-5.3-3-7.9-4.4c-2-1.1-3.7-2.5-4.8-5.8c-0.6,4.3-0.4,7.6-0.2,10.9
	c0.4,6.8-2.3,11.7-6.7,15.8c-0.8,0.7-1.6,1.3-2.5,1.7c-1.7,0.8-3.8,1.7-5-0.6c-1.1-2.1,1.1-3,2.1-4.2c0.9-1.1,1.9-1.9,2.8-2.9
	c2.3-2.6,2.9-5.5,1.5-9c-2.2-5.2-4.1-10.5-4.7-16.6c-5.3,2.4-10.5,4.8-16.2,5.5c0.5,2,1.8,3.3,2.8,4.8c3.8,5.9,4.8,12.5,3.6,19.6
	c-0.6,3.7-2.7,4.9-5.3,3.2c-1-0.6-1.4-1.4-0.9-2.8c2.7-7.8-0.4-13.3-5.3-18.1c-1.7-1.7-3.6-3.1-5.4-4.7c-5.7,8-12.2,15.4-16.7,24.6
	c-1.2,2.5-3.2,2.1-4.1-0.6c-1.2-3.4-0.1-6.5,1.6-9.2c2.4-4,5.2-7.7,7.1-12c3.2-7,3.8-14-0.5-20.8c-1-1.6-2.2-3.2-3.3-4.8
	c-0.2-1,0.5-1.4,1.1-1.8c4.3-2.9,8.4-6.2,11.4-10.9C509.7,536.3,510.1,535.9,510.6,535.9z"/>
<path fill="#FCC555" d="M497.3,546.5c-2.7-1.8-5.6-2.4-8.6-2.6c-3-0.1-5.7,1.1-8.2-0.9c-0.9-0.7-1.8-1.5-2.1-2.7
	c-0.4-1.2-1.2-2.5-0.4-3.9c0.8-1.4,2.1-0.7,3.2-0.6c0.9,0,1.7,0.3,2.6,0.5c2.9,0.5,5.9-0.3,6.2-5.9c0.2-2.2,2.4-3.4,4.5-3.6
	c2.9-0.3,5.4,0.9,7.8,2.4c2.6,1.6,5,3.5,7.2,5.8c0,2.2-1.3,3.5-2.5,4.7c-2.1,2.3-4.4,4.4-6.9,6.1C499.2,546.5,498.3,547,497.3,546.5
	z"/>
<path fill="#096189" d="M449,537.8c0.3-0.6-0.3-2.3,1.2-1.2c1,0.7,1.8,1.7,2.7,2.6c12.6,11.6,26.3,16.2,41.9,8.9
	c0.9-0.4,1.7-1.1,2.6-1.6c4.9-2.6,8.9-6.5,12.2-11.5c0.4,0.3,0.8,0.6,1.1,0.9c-3.3,6.3-8.5,9.9-13.7,13.4
	c-16.5,8.1-31.2,4.1-44.8-8.5C451.1,539.9,450,538.8,449,537.8z"/>
<path fill="#F58E1D" d="M207.4,198.9c2.5,0.1,5,0.1,7.4,0.2c0,6,0,12,0,18.1c0,1.7-0.4,2.4-2.3,2.4c-5.4,0.2-5.4,0.3-5.4-5
	C207.3,209.3,207.3,204.1,207.4,198.9z"/>
<path fill="#FCAA8F" d="M392.4,593.5c2.3,0,4.6,0.1,6.9,0.1c-0.9,4.6-2.4,8.9-4.6,13c-1.9,0.5-3.4-0.4-4.7-1.7
	C391.2,601.2,391.5,597.3,392.4,593.5z"/>
<path fill="#FCA98C" d="M429.3,593.7c2.5,0,4.9-0.1,7.4-0.1c-0.2,3.4,1,6.5,1.3,9.9c0.1,0.8,0.1,1.7,0.1,2.6c-1.5,1.1-3,1.8-4.7,0.5
	C431.8,602.3,431.1,597.8,429.3,593.7z"/>
<path fill="#075973" d="M834.5,494c2.8-1.4,5.4-3.2,8.4-4.1c0.4,0.2,0.8,0.4,1.1,0.8c4.1,4.3,3.8,5.7-1.6,8
	c-4.4,1.9-8.9,3.5-13.5,4.7c-1.1,0.3-2.4,0.9-3.2-0.2c-0.9-1.4,0.4-2.3,1.3-3.2C829.2,497.6,831.8,495.8,834.5,494z"/>
<path fill="#0B5A71" d="M433.3,606.5c1.6-0.2,3.2-0.4,4.7-0.5c2.8,0.3,5.6,0.3,8.3,1.1c0.9,0.3,1.9,0.7,1.9,1.7c0,1-1,1.2-1.8,1.5
	c-3.5,1.3-7.1,2-10.8,2c-3,0-3.3-0.4-2.8-3.5C432.9,608,433.2,607.3,433.3,606.5z"/>
<path fill="#09A5BC" d="M806.1,199.8c2.3,1.6,4.7,3.2,7,4.8c1.5,2.1,3,4.2,4.5,6.3c0.6,0.9,1,2,0.3,2.9c-0.7,0.8-1.9,0.5-2.9,0.3
	c-4-1-7.8-2.3-11.3-4.5c-3-1.9-3.3-3.6-1-6.4C803.7,202,805,200.9,806.1,199.8z"/>
<path fill="#0A5970" d="M390,604.9c1.6,0.6,3.1,1.1,4.7,1.7c2,1.4,3.9,2.7,5.9,4.1c0.7,0.5,1.3,1.1,1.8,1.8c0.4,0.5,0.7,1.2,0.3,1.9
	c-0.4,0.8-1.1,0.4-1.7,0.3c-3.6-0.8-7-2.2-10.5-3.6c-2.8-1.1-2.6-1.4-1.6-4.4C389.2,606,389.7,605.5,390,604.9z"/>
<path fill="#FCA380" d="M441.6,531.7c0.8-1.9,1.3-4,2.5-5.8c2.2,1.7,4.1,3.7,5.3,6.4c0.6,1.3,0.9,2.6,0.4,4c-0.4,1.1-1,2-2.2,2.2
	c-1.3,0.2-2.3-0.3-3-1.4C443.6,535.3,442.6,533.5,441.6,531.7z"/>
<path fill="#09586C" d="M262,528.5c1.7,0,3.4,0,5.1,0c0,6.2-0.1,12.3-0.1,18.5c0,2-0.1,4-2.6,3.9c-2.2-0.1-2.3-2-2.3-3.8
	C262.1,540.8,262.1,534.7,262,528.5z"/>
<path fill="#0791B0" d="M857.4,208.6c2.3-1,5-0.1,7.2-1.2c2.5,1.2,5.5,1.5,7.8,3.2c1,0.7,2.2,1.5,2,3c-0.4,1.8-2,1.2-3.1,1.2
	c-3.1,0.1-6.1,0-9.2-0.5C857.1,213.7,857.1,213.8,857.4,208.6z"/>
<path fill="#E55B40" d="M429.4,511.1c-2.1-2-3.5-4.6-4.5-7.3c-1.6-4.3-4.1-8.1-4.9-12.7c1.3,0.3,2.2,1.2,2.9,2.3
	C426.3,498.8,428.8,504.6,429.4,511.1z"/>
<path fill="#CCC7C3" d="M866.7,118.7c-1.3-1.1-2.6-2.3-3.2-4c2.6-3.1,5.4-6,8.9-8.2c2.2,1.7,2.4,3.8,0.7,7.5
	C871.2,116,869.1,117.5,866.7,118.7z"/>
<path fill="#157297" d="M853.7,130.6c-3.9-0.1-6.6-1.9-8.7-5.1c-4-6.1-5.8-12.8-6.1-20.3c1.6,1.4,1.5,3.3,1.8,4.8
	c0.9,3.7,2.3,7.1,3.9,10.5c2,4.2,4.7,7.5,9.5,8.7C854,129.7,853.8,130.2,853.7,130.6z"/>
<path fill="#075476" d="M873,114c-0.5-2.5,0.4-5.1-0.7-7.5c1.1-1.7,2.3-3.5,4.6-2c2.3,1.5,2.6,4.2,0.7,6
	C876.2,111.9,874.9,113.3,873,114z"/>
<path fill="#178A91" d="M423.4,186c-0.2,0-0.5,0-0.7,0.1c0.1-6.7,0.1-13.4,0.2-20.1c0.7,5.4,0.1,10.9,0.3,16.3
	C423.3,183.5,423.3,184.8,423.4,186z"/>
<path fill="#0B5962" d="M548.8,235.5c8.9,8.3,18.5,15.7,28.3,24.2c0-5.1,0-9.3,0-13.6c0-6,0-12.1,0.1-18.1c0-1-0.2-2.5,1.1-2.5
	c1.4,0,0.9,1.6,0.9,2.5c0.1,10,0.2,20.1,0,30.1c0,3.2,1.2,5.1,4.2,6.2l0,0c0.7,1.5,2.1,2.3,3.3,3.2c1.2,0.9,2.4,1.7,2.1,3.5
	c-16,0.1-32,0.2-48,0.3c-7.2-6.1-14.5-12.1-21.7-18.3c-12.1-10.4-24.2-20.8-36.2-31.2c-0.9-0.8-2.1-1.4-2.5-2.7
	c15.1,0,30.1,0.1,45.2,0c2.2,0,3.8,0.6,5.5,2C537,225.9,542.6,231.1,548.8,235.5z"/>
<path fill="#F7E3C1" d="M490.2,283.7c0,3.3,0,6.6,0,9.9c0,2.4-0.8,3.6-3.4,3.6c-5.4-0.1-10.8-0.1-16.1,0c-2.5,0-3.5-1.1-3.5-3.6
	c0.1-6.6,0.1-13.3,0-19.9c0-2.5,1-3.5,3.5-3.5c5.3,0.1,10.5,0.1,15.8,0c2.6,0,3.7,1.3,3.7,3.8C490.1,277.3,490.2,280.5,490.2,283.7
	C490.2,283.7,490.2,283.7,490.2,283.7z"/>
<path fill="#188B91" d="M430.4,219c3.4,0,6.9,0,10.3,0c0,7.5,0.1,14.9,0.1,22.4c0,3.1,0.2,6.1,0.3,9.2c-3,3.3-6.8,5.8-10.1,8.8
	c0-12.1,0-24.2-0.1-36.3C430.9,221.6,431.2,220.2,430.4,219z"/>
<path fill="#0A596C" d="M307.2,174c-0.3,4,1.2,8.1-0.7,10.1c-1.9,2-6.1,0.6-9.2,0.6c-6.1,0.1-6.1,0-6.1-6c0-3.9,0.1-7.8,0-11.6
	c-0.1-1.8,0.6-2.3,2.4-2.3c3.9,0.1,7.8,0.1,11.6,0c1.7,0,2.2,0.6,2.1,2.2C307.1,169.5,307.2,172.2,307.2,174z"/>
<path fill="#0A596C" d="M478.5,190c-0.3,2.3,1.2,5.9-0.6,7.7c-1.8,1.8-5.4,0.4-8.3,0.6c-0.7,0-1.4-0.1-2,0c-2.7,0.4-3.6-0.6-3.4-3.4
	c0.2-3.6,0.1-7.3,0-10.9c-0.1-2.1,0.4-3.2,2.8-3c2.9,0.2,5.9,0.2,8.9,0c2.1-0.1,2.9,0.6,2.7,2.7C478.4,185.6,478.5,187.6,478.5,190z
	"/>
<path fill="#0A596C" d="M505.2,189.7c0,2.7,1.1,6.3-0.3,7.9c-1.6,1.9-5.3,0.6-8.2,0.6c-5.5,0.1-5.5,0-5.5-5.3c0-3.2,0.1-6.4,0-9.6
	c-0.1-1.8,0.6-2.5,2.4-2.3c1,0.1,2.1,0,3.1,0C505.4,181,505.4,181,505.2,189.7z"/>
<path fill="#09586C" d="M532,189.6c0,8.7,0,8.7-8.6,8.7c-5.4,0-5.4,0-5.4-5.4c0-3.2,0.1-6.4-0.1-9.6c-0.1-1.9,0.6-2.3,2.3-2.3
	c3.1,0.1,6.2,0.2,9.2,0c2.3-0.2,2.7,0.8,2.6,2.8C531.9,185.7,532,187.6,532,189.6z"/>
<path fill="#085B6E" d="M648.4,268.9c0-2.8,0.1-5.7,0-8.5c-0.1-1.8,0.6-2.3,2.4-2.3c3.5,0.1,7.1,0.1,10.6,0c1.8-0.1,2.4,0.6,2.3,2.3
	c-0.1,5.6-0.1,11.2,0,16.8c0,1.6-0.4,2.3-2.1,2.2c-3.8-0.1-7.5-0.1-11.3,0c-1.5,0-2-0.5-2-2C648.5,274.6,648.4,271.8,648.4,268.9z"
	/>
<path fill="#F8E1BB" d="M748.9,281.9c0,0.7,0.1,1.4,0,2.1c-0.3,2.1,1.3,5.4-0.8,6.2c-3.3,1.2-7.2,0.7-10.9,0.3
	c-0.9-0.1-0.8-1-0.8-1.7c0-4.6,0-9.1,0-13.7c0-1.5,0.6-2,2-1.9c2.9,0.1,5.7,0.2,8.6,0.1c1.6,0,1.9,0.7,1.9,2.1
	C748.8,277.6,748.9,279.8,748.9,281.9z"/>
<path fill="#F8E0B8" d="M708.9,281.9c0.1-2.7-0.7-6.3,0.7-7.9c1.7-1.9,5.4-0.3,8.1-0.6c2.9-0.4,4,0.4,3.7,3.6
	c-0.3,3.6-0.2,7.3,0,10.9c0.1,2.1-0.6,2.8-2.7,2.7c-2.4-0.1-4.8,0-7.2,0.2c-2.1,0.2-2.8-0.8-2.6-2.8c0.2-2,0-4.1,0-6.1
	C709,281.9,709,281.9,708.9,281.9z"/>
<path fill="#118891" d="M390.6,233.4c0-7.7,0-7.7,7.8-7.7c6.2,0,6.2,0,6,6.4c-0.1,2.7,0.8,6-0.5,8c-1.3,2.2-4.8,0.7-7.3,0.8
	c-6.1,0.2-6.1,0.1-6.1-6.2C390.6,234.3,390.6,233.8,390.6,233.4z"/>
<path fill="#09606F" d="M583.4,264.3c-0.6-1-0.5-1.8,0.2-2.8c2.5-3.8,5.4-7.3,8.6-10.5c0.6-0.6,1.4-1.5,2.3-0.8
	c1,0.7,0.2,1.7-0.2,2.4C591.9,257.6,588.1,261.3,583.4,264.3C583.4,264.2,583.4,264.3,583.4,264.3z"/>
<path fill="#065670" d="M503.1,148.6c0,5.2,0,5.2-4.9,5.2c-4.9,0-4.9,0-4.8-5.2c0.1-5.7,0.1-5.7,5-5.7
	C503.1,142.9,503.1,142.9,503.1,148.6z"/>
<path fill="#DF6A3A" d="M426.9,525.9c-2.5-0.4-4.4-1.9-5.8-4c-2.7-4.1-5.1-8.3-7.6-12.4c-0.4-0.6-0.6-1.4-0.7-2.1
	C418.1,513.1,421.1,520.7,426.9,525.9C427,525.9,426.9,525.9,426.9,525.9z"/>
<path fill="#F16445" d="M456.8,318c14.8,0,28.8,0,42.9,0c0.3,1.5-1,2.2-1.8,3c-5.9,6.4-11.9,12.6-17.8,19c-0.9,0.9-1.3,1.3-2.4,0.2
	C470.9,332.9,464.1,325.7,456.8,318z"/>
<path fill="#F16344" d="M502.9,325c0,13.4,0,26.8,0,40.6c-2.8-2.7-5.4-5.1-7.9-7.7c-3.6-3.7-7.1-7.4-10.6-11.2
	c-0.6-0.7-1.8-1.3-0.7-2.5c6.2-6.5,12.3-13.1,18.4-19.6C502.5,324.7,502.7,324.8,502.9,325z"/>
<path fill="#F16344" d="M455.1,366.4c0-14.4,0-27.7,0-41.1c0.3-0.2,0.5-0.5,0.8-0.7c1.9,2.2,3.8,4.4,5.8,6.5
	c3.9,4.2,7.9,8.3,11.9,12.4c0.8,0.8,1.8,1.5,0.6,2.8C468,352.7,461.9,359.2,455.1,366.4z"/>
<g>
	<path fill="#10AEA7" d="M102,557c4.7-7,10.4-13.3,14.1-21c0.9-1.9,1.1-3.2-0.1-5.4c-2.2-4.2-3-9-3.1-13.9c0.9-0.8,1.9-1.1,3.1-1.1
		c5.4,0,10.8-0.3,16.2,0.2c1,0.2,2,0.6,2.6,1.5c5.9,8.4,11.4,17.1,9.7,28c-0.8,5-2,9.9-3,14.8c-0.9,4.2-1.8,8.5-2.5,12.8
		c-1.7,5.4-4.5,6.5-8.5,3.2c-2.4-5.7-1.3-11.7-1-17.6c0.2-4.2,0.9-8.3,1-12.8c-2,0.4-2.8,1.7-3.8,2.7c-4.7,5-9.8,9.6-16.3,12.3
		c-1.5,0.6-2,2.1-3.4,2.8C105.7,561.1,104.2,558.8,102,557z"/>
	<path fill="#F7A42E" d="M132.9,516.5c-6.6,0.1-13.3,0.2-19.9,0.3c0.3-8.1,3.4-15.4,6.8-22.7c0.7-1.6,2.1-1.5,3.5-1.6
		c6.3-0.6,11.2-3.8,12.2-10c1.2-7.6,6.3-12.7,10.2-18.6c1-1.6,2.4-3.1,4.8-2.6c0.2,3.7,2,7.3,0,11c-0.9,1.7-1.7,3.4-3.9,4
		c-2,0.5-2.7,2.6-4.1,4c-0.5,0.5-0.3,1,0.1,1.5c3,3,3.4,7.1,3.2,10.8c-0.5,10.8,4.4,17.1,14.6,19.9c0.9,0.2,1.7,0.7,2.5,1
		c1.6,0.4,2.9,1.1,3.9,2.5c0.6,0.8,1.2,1.7,0.6,2.8c-0.6,1.2-1.7,1.4-2.9,1.3c-1.2-0.1-2.4-0.7-3.7-0.6
		c-10.4-1.5-19.8-4.5-24.1-16.1c-0.8,3.7-1.7,6.7-2.3,9.8C134.2,514.4,134,515.7,132.9,516.5z"/>
	<path fill="#075C83" d="M160.9,518.9c1.2-1.3,2.3,0.1,3.4,0.3c0.9,0.2,1.8,0.6,2.4-0.4c0.6-1,0.1-1.7-0.6-2.4c-1-1-2.1-2-3.2-3
		c3.9-0.4,5.3,0.8,6.5,5.2c0.8,3,0,5-3.2,5.5c-1.4,0.2-0.9,1-0.9,1.7c1.4,12,2.9,24,4.2,36c0.2,2,1,2.7,3.1,3.1
		c5.1,0.9,8.1,4.9,8.3,9.9c0.2,4.8-2.9,9.4-7.3,10.9c-4.8,1.7-9.9,0.1-12.6-4.2c-1-1.5-2-2-3.8-2c-13.8,0.1-27.7,0.2-41.5,0.2
		c-1.3,0-2.5-0.1-3.6,1.3c-3.4,4.5-7.4,5.8-11.5,4.2c-4.6-1.8-8-7.4-7.4-12.4c0.4-3.8,6.3-14.4,8.9-15.9c2.9,1,5.2,2.5,4.9,6.1
		c3.4,2.7,6.8,5.3,7.8,9.9c0.3,1.6,1.7,1.6,3,1.6c3.1,0.1,6.1,0,9.2,0c1.4,0,2.7-0.1,3.9,0.9c4,2.7,5.2,2.3,7.7-2.9
		c0.3-0.1,0.7-0.3,1-0.1c4.8,3.1,10.1,1.9,15.3,2.1c1.8,0.1,3-0.6,3.5-2.5c0.6-2.6,2.1-4.8,4.3-6.4c1.8-1.3,2.3-2.9,2.1-5
		c-1.6-12.6-3-25.3-4.3-38C160.2,521.5,159.9,520.1,160.9,518.9z"/>
	<path fill="#075F84" d="M150.4,461.4c-2.4,0.8-4.1,2.4-5.2,4.6c-0.1,0.2-0.2,0.4-0.4,0.6c-4.8,5.1-7.2,11.2-9.1,17.8
		c-1.6,5.6-6.1,8.9-12.3,9c-1.3,0-2.5,0-3.6,0.7c-3.1-0.1-6.2,0.4-9.2-0.7c-2.4-0.9-3.4-2.2-1.6-4.6c0.4-0.5,0.9-1.2,0.9-1.8
		c0.7-6,4.8-7.8,10.1-8.7c7.5-1.2,9.2-3.3,10.2-11c0.2-1.5,0.3-2.9,0.6-4.4c0.7-3.9,2.9-6.7,6.7-7.9c4.1-1.3,8.1-1.3,11.5,1.9
		C150.2,458,151.5,459.4,150.4,461.4z"/>
	<path fill="#FEFEFE" d="M160.9,518.9c1.6,14.1,3.2,28.2,4.8,42.4c0.3,2.4,0.2,4.1-2.5,5.4c-2.6,1.3-4.2,3.9-4.2,7
		c0,1.8-0.7,2.1-2.2,2c-1.7-0.1-3.4,0-5.1,0c-4.6,0-9.3,0.7-13.2-2.9c0.2-6.9,2.5-13.4,3.7-20.1c0.9-5,3-10.1,1.6-15.2
		c-2-7.8-5.5-14.9-10.9-21c1.1-4.9,2.2-9.7,3.3-14.6C140.4,513.7,150.3,516.8,160.9,518.9z"/>
	<path fill="#FDFDFE" d="M130.8,575.6c-4.9,0-9.8,0.1-14.7,0.1c-1.3,0-2.4,0.2-2.5-1.8c-0.1-3.8-2.2-6.6-5.5-8.4
		c-1.2-0.6-1.4-1.3-1.2-2.4c0.8-0.7,0.1-2.1,1.6-2.7c8.2-2.9,14.3-8.7,20-14.9c0.7-0.7,1.5-1.4,3-2.7
		C131.4,554.3,128.8,564.9,130.8,575.6z"/>
	<path fill="#FDFDFD" d="M110.2,575.2c0,4-2.7,6.9-6.1,6.9c-3.7-0.1-7-3.8-6.9-7.9c0-2.9,2.1-6,4-6
		C106.8,568,110.2,570.8,110.2,575.2z"/>
	<path fill="#FAFBFC" d="M170.6,568.5c3.9,0.5,6,2.4,6.4,5.7c0.4,3.5-1.5,6.7-4.7,7.9c-3,1.1-6.6-0.2-8.4-3c-1.6-2.6-1.2-6.3,1-8.5
		c0.5-0.5,0.9-1.2,1.7-1c0.9,0.2,0.5,1.1,0.6,1.7c0.3,1.7,0.4,3.4,0.8,5.1c0.3,1.3,1.4,1.9,2.6,1.6c1.2-0.3,1-1.3,0.9-2.3
		C171.2,573.3,170.9,571,170.6,568.5z"/>
</g>
<path fill="#FDFDFD" d="M492,609.5c-3.8-0.1-6.7-3-6.6-6.8c0.1-3.8,3.1-6.6,6.9-6.5c3.6,0.1,6.8,3.4,6.7,6.8
	C498.8,606.8,495.8,609.6,492,609.5z"/>
<path fill="#FDFDFD" d="M531,609.4c-3.8-0.1-6.7-3-6.6-6.7c0.1-3.8,3-6.5,6.9-6.3c3.6,0.1,6.4,2.9,6.5,6.5
	C537.9,606.5,534.8,609.4,531,609.4z"/>
<g>
	<path fill="#0C6475" d="M217.5,363.2c-1,1.2-2.5,2-3.2,3.4c-0.9,1.8-0.5,2.6,1.6,2.7c2.3,0.1,4.4-0.1,6-1.9
		c0.8-0.1,1.6,0.4,2.4,0.2c1.8-0.6,1.2-2.6,2.6-3.7c1.7,2.9,2.1,6,3.1,8.9c0.2,0.4,0.4,0.8,0.8,1c1.2,2.4,0.3,3.5-2.3,4.1
		c-1.7,0.4-3.3,1.4-4.6,2.5c-0.7,0.5-1.1,1.2-0.8,2c0.3,0.9,1.2,1,2,1.1c2.2,0.2,4.5-0.2,6.4-1.1c1.6-0.7,3.2-1.1,4.9-1.2
		c1.4-0.1,2.8-0.3,3.4-1.7c0.5-2.9-0.2-5.6-1.1-8.3c-0.3-0.6-0.5-1.2,0.5-1.4c0.6-0.1,1.3-0.1,1.8-0.5c1-2,0.9-4.3,1.9-6.3
		c1.5-3,3.3-5.7,5.9-8c0.7-0.6,1.3-1.1,1.7-1.9c0.3-1.1-0.2-1.9-1.3-2.4c-0.8-0.1-1.5,0.2-2,0.6c-4.2,3.3-7.2,7.3-8.7,12.2
		c-0.1,0.2,0,0.5,0,0.5c-0.1-4.3,0.3-8.7-0.2-13.1c-0.4-2.5,0-5,0.8-7.4c1.1-2.9,2.9-5.5,5.2-7.8c2.7-0.2,5.4,0.2,8-0.6
		c1.7-0.6,4-1,3.8-3.3c-0.2-2.2-2.1-3.1-4.2-3.6c-1.3-0.3-2.6,0-4.2,0c3.1-5,2.5-9.8,0.4-14.7c-0.7-0.3-1.3-0.1-1.9,0.1
		c-6.1,2-12.1,4.3-18.2,6.4c-0.3,0.1-0.6,0.3-0.7,0.6c-0.1,0.9,0.2,1.7,0.7,2.4c1.8,2.3,1.7,4.6,0.3,7.1c-0.4,0.8-0.8,1.7-1.1,2.5
		c-0.1,0.8-0.2,1.5-0.4,2.2c-0.1,0.9-0.6,1.7-0.9,2.6c-2.2,6.3-2.7,12.7-1,19.2c0.2,0.7,0.4,1.3,0.3,2c-0.1,1-0.5,1.7-1.8,1.6
		c-1.7,0-3.1,0.6-4.4,1.6C218.6,362.3,217.6,362.3,217.5,363.2z"/>
	<path fill="#10AEA7" d="M227.5,320.9c6.9-2.5,13.8-4.9,20.7-7.4c-4.1-10.7-10.2-20.2-19.9-27.3c-3.1-2.2-6.6-3.7-10.6-3.6
		c-0.2-0.1-0.5-0.1-0.7,0c-2.2,2.5-3.3,5.5-4.3,8.5c-2.4,8.1-6.5,15.5-11.4,22.6c-2.1,3.1-4.6,5.9-6.9,8.9c0.2,2.2,2.1,2.8,3.9,3.5
		c8.1-4.9,15.2-10.9,21.2-18.3c2.6,4.5,5.8,8.4,7.6,13C227.2,321,227.4,321,227.5,320.9z"/>
	<path fill="#07536A" d="M192.9,347.2c-15.5-4.2-28.8,5.9-31.9,17.2c-3.7,13.3,4.9,27.1,18.8,30.4c15.4,3.7,31.4-7.3,32-22.1
		c0.5-11-5-19.4-15.8-24.2c-1.7,0.7-1.6,1.8-0.7,3c5.7,3.1,10.2,7.2,12.3,13.2c4.6,13.3-6.9,27.5-21.3,27.5
		c-10.8,0-21.1-7.6-22.5-18.7c-1.5-11.3,6.4-21.6,18-23.7c2.6-0.5,5.2-0.3,7.8-0.1c0.9,0.1,1.8,0.4,2.7,0
		C193.1,349,193.9,348.3,192.9,347.2z"/>
	<path fill="#075269" d="M237.9,371.1c1.5,2.6,0.8,5.7,1.9,8.4c5.7,13.3,20.7,19.4,34.1,13.8c13.5-5.6,19.3-20.9,12.8-33.5
		c-6.4-12.3-22.3-16.9-35.6-10.3c-0.3,1.3,0.4,2.1,1.7,2.4c1.1-0.2,2.2-0.7,3.3-1c9.3-3.1,19.6-0.4,25.2,6.7
		c6.2,7.8,6.5,18.1,0.6,25.5c-5.7,7.3-14.6,10.5-23.3,8.4c-9.1-2.2-15.9-9.5-17-18.3c-0.1-0.9,0.1-1.9-0.9-2.5
		C239.7,370.4,238.7,370.3,237.9,371.1z"/>
	<path fill="#F78A21" d="M192.9,347.2c-0.1,0.9-0.2,1.7-0.9,2.4c-0.9,0.6-1.2,1.5-1.4,2.3c-1.3,4.2-2.9,8.3-4.2,12.4
		c-0.4,1.1-1,2.3-0.4,3.6c0.7,0.7,1.6,1,2.6,0.8c1-0.3,1.4-1.1,1.6-1.9c1.7-4.7,3.4-9.4,5.1-14.1c0.2-0.5,0.2-1,0-1.6
		c-0.3-1,0.1-1.8,0.7-2.7c0.1-1.4,1-2.5,1.4-3.7c6.7,6.2,13.4,12.3,20.1,18.4c0.5-0.5,1.4-0.1,1.8-0.9c0.2-0.5-0.1-0.9-0.4-1.3
		c-6.1-5.5-11.6-11.4-17.6-17c-0.5-0.5-1.1-0.9-1.5-1.5c-1.1-1.7,0-3.9,2.1-4c1.7-0.1,3.4,0,5.2,0.1c4.2,0.2,8.4-0.7,12.6-0.5
		c2.4-0.1,4.9,0,7.1-1.2c0.4-0.7,0.8-1.3,0.7-2.1c-1.3-1.3-2.9-0.6-4.4-0.7c-4.6,0.3-9.1,0.7-13.7,0.8c-1.2,0-2.5-0.1-3.5,0.7
		c-5.3,0.3-5.3,0.3-3.8-4.3c0.3-0.8,0.5-1.6,0.7-2.4c0.3-1.1,0.2-2.1-1.1-2.4c-1.3-0.3-1.9,0.6-2.2,1.6c-1.3,3.9-2.6,7.9-3.9,11.8
		C194.7,342.3,193.8,344.7,192.9,347.2z"/>
	<path fill="#0C5A61" d="M205.8,335.6c5.8,0.1,11.5-0.1,17.3-0.8c1.5-0.7,3.5-0.3,4.5-2c2.8-3,3.3-6.7,1.2-9.9
		c-0.4-0.6-0.8-1.3-1.2-1.9c-0.1,0-0.3,0-0.4-0.1c-7.1,3.2-13.6,7.2-19.6,12.1C206.7,333.6,206,334.5,205.8,335.6z"/>
	<path fill="#FDAB93" d="M212.7,291.2c1.5-2.8,3-5.6,4.6-8.4c-1.6-1.8-3.5-3.3-3.7-5.9c-0.1-0.9-1-0.9-1.7-0.5
		c-1.6,0.9-2.4,0.2-2.8-1.2c-0.1-0.4-0.3-1.1-0.7-1.1c-2.3-0.3-3.9-1.7-5.9-2.6c-2.2,3.1-1.6,6.4-0.9,9.7c0.2,1,1,1.8,1.8,2.4
		c0.9,0.7,1.7,1.4,2.1,2.5c0.4,1.1,1.3,1.9,2.6,1.7c2.4-0.3,3.7,0.6,4.1,2.7C212.3,290.7,212.5,290.9,212.7,291.2z"/>
	<path fill="#F4E5CF" d="M202.5,271.3c1.3,1.5,2.5,3.1,5.1,2.7c0.7-0.1,0.8,0.7,1,1.2c1.3,3.1,1.3,3.1,4.6,1c0.1,3,1,5.5,4.2,6.5
		c0.2,0,0.3,0,0.4-0.1c0-2.9-0.1-5.8,0-8.7c0.1-2.2-0.9-3.7-2.6-4.9C211.6,266.6,204.7,265.5,202.5,271.3z"/>
	<path fill="#F58821" d="M252.6,351.7c-0.5-0.7-1.3-1.3-1.5-2.2c-2.2-3.4-4.4-6.9-6.7-10.3c-0.9-1.3,0.1-2.3,0.1-3.5
		c-0.5-0.4-1-0.5-1.5,0.1c-3.1,4.4-5.8,9-5.4,14.6c0,0.1,0.1,0.3,0.2,0.4c1.2-0.2,1.4-1.2,1.9-2c1.2-2.3,2.1-4.6,3.1-7.2
		c1.5,2.2,2.8,4.3,4.1,6.4c0.6,1,1,2.1,2.2,2.7c0.6,0.7,1.2,1.4,1.3,2.3c1,3.3,3.5,5.7,5.2,8.7c1.3,2.3,3.4,4.3,4.1,6.9
		c0.2,0.4,0.2,0.9,0.4,1.3c0.4,1.2,1.3,1.8,2.6,1.4c1.4-0.4,1.2-1.4,0.9-2.5c-0.2-0.4-0.3-0.9-0.4-1.3
		C260.1,362.1,256.6,356.7,252.6,351.7z"/>
	<path fill="#F78D21" d="M191.6,323.2c-3.4,0.1-6.3,1.3-7.7,4.3c-1.2,2.5-1.1,5.1,0.8,7.4c1.2,1.5,2.9,2.4,4.8,3
		c1.2,0.4,1.8,0.2,2.3-1c0.5-1.3,0-1.5-1.1-1.9c-2.1-0.7-4-1.7-4.2-4c-0.1-1.8,0.6-3.5,2.7-4.2c2.2-0.3,3.2-1.4,3.2-3
		C192.3,323.4,192.2,323,191.6,323.2z"/>
	<path fill="#F99B72" d="M191.6,323.2c0.9,2.2-1,2.8-2.5,3.6c1,0.9,2.3,1.4,3.2,2.6c0.8,1.2,1.9,1.1,2.7-0.1
		c0.9-1.3,1.7-2.6,3.3-3.2c-1.3-1.2-2.9-2-3.9-3.5C193.4,322.8,192.4,322.4,191.6,323.2z"/>
	<path fill="#F0801F" d="M223.9,367.3c-0.7-0.4-1.4-0.6-2,0.1c2.2,2.1,4.3,4.1,6.5,6.2c0.7,0.7,1.4,1.4,2.4,0.2
		c-0.1-0.2-0.2-0.5-0.2-0.7C228.5,371,226.7,368.6,223.9,367.3z"/>
	<path fill="#0C5B62" d="M218.7,361.4c0.2,0.3,0.3,0.6,0.5,0.9c1.5-0.9,2.9-1.9,4.9-1.5c0.9,0.2,2-0.2,1.5-1.6
		c-1.2-6.6-2.6-13.1-4.7-19.6c-0.3-0.8-0.6-1.6-1.3-2.2c-4.5,0.2-9,0.4-13.5,0.5c-0.5,1,0.1,1.8,0.5,2.6
		C209.8,348,214.6,354.6,218.7,361.4z"/>
	<path fill="#FEFEFD" d="M260.2,368.2c-0.1-1.6-1.3-2.6-2.1-3.8c-2.5-3.8-5.1-7.6-7.7-11.4c-5.6,4.1-9,9.4-9.5,16.1
		c0.5,0.6,1.2,0.8,1.9,0.8c5.3,0,10.5,0.3,15.8-0.2C259.4,369.5,260,369,260.2,368.2z"/>
	<path fill="#FDFDFD" d="M249.1,350.7c-2-3.3-4.1-6.6-6.3-10.2c-2,3.6-2.9,7.3-5.1,10.4c0,4.9,0,9.8,0,14.6c0.2,0,0.5,0.1,0.7,0.1
		C240.2,359.5,243.5,354.4,249.1,350.7z"/>
	<path fill="#FAFBFB" d="M219.6,337.5c2.1,6.7,3.8,13.5,5.2,20.4c0.1,0.5,0.1,1.1,0.8,1.3c0.8-0.2,0.6-0.9,0.4-1.3
		c-2-7-1.6-14,0.7-20.9C224.4,337.1,222,337.3,219.6,337.5z"/>
	<path fill="#F48724" d="M258.9,369.3c-6-0.1-12-0.1-18-0.2c-0.5,0-1.1,0.1-1.6,0.1c-1.7-0.1-2.2,0.5-1.3,1.9c1,0,2,0,3,0
		c0.4,0.3,0.8,0.5,1.3,0.6c5.3,0.1,10.6,0.4,16-0.2C259.1,371,259.3,370.3,258.9,369.3z"/>
	<path fill="#F9FAF9" d="M223.9,367.3c2.2,2,4.1,4.2,6.7,5.8c-0.4-3.1-1.8-6-2.6-9c-0.2-0.7-0.8-1.3-1.6-1.2c-0.9,0-0.6,0.9-0.8,1.4
		C225.2,365.4,225.4,366.8,223.9,367.3z"/>
	<path fill="#F1F6F4" d="M227.6,332.7c-1.5,0.7-3,1.4-4.5,2c1.5,0,2.9,0.1,4.4,0.1C227.4,334.1,228.7,333.5,227.6,332.7z"/>
	<path fill="#FEFEFE" d="M186.1,367.8c2-6.1,4-12.1,5.9-18.2c-12.1-1.8-21,1.8-26.3,10.7c-4.4,7.4-3.5,17.3,2.2,24.2
		c5.7,6.8,15.5,10.1,24.2,7.6c9.4-2.8,15.2-8.8,16.7-18c1.6-9.8-4-19.1-13.5-23c-1.9,5.2-3.8,10.4-5.8,15.6
		c-0.2,0.6-0.6,1.2-0.9,1.9c-0.2,0.9,0.4,1.6,0.6,2.4c0.3,1.6-0.3,2.7-1.8,3.4c-1.7,0.7-3-0.1-4-1.4c-1-1.3-0.5-2.4,0.6-3.5
		C184.7,368.9,185.7,368.6,186.1,367.8z"/>
	<path fill="#FEFEFE" d="M258.6,370.8c-4.8,0.4-9.7,0.1-14.6,0.2c-1.1,0-2.1,0.1-3.2,0.1c0.1,9.7,7.1,18.4,16.9,21
		c9.8,2.5,20.3-1.5,25.6-9.9c5.5-8.7,4.1-19.6-3.4-26.9c-7.1-6.9-18.1-8.3-27.3-3.6c3.3,5.2,6.7,10.5,10,15.7
		c0.6,0.6,1.4,0.8,2.1,1.2c1.4,0.7,1.9,1.9,1.6,3.3c-0.2,1.2-1,2.1-2.3,2.5c-1.5,0.4-2.7-0.1-3.7-1.1
		C259.6,372.5,259.5,371.4,258.6,370.8z"/>
	<path fill="#FDFDFD" d="M218.7,361.4c-0.2-2-1.5-3.6-2.6-5.2c-3.8-5.9-7.4-11.8-10-18.2c-1.2,0-2.5-0.2-3.7,0
		c-1.1,0.1-2.6-0.7-3.2,1.1c-0.6,1.7-1,3,0.7,4.6c5.7,5.3,11.2,10.9,16.9,16.3C217.4,360.6,217.9,361.3,218.7,361.4z"/>
	<path fill="#085977" d="M186.1,367.8c-2.8,0.9-4.2,2.4-3.8,4.3c0.4,1.9,2.4,3.4,4.4,3.1c3.3-0.3,4.2-3.6,1.9-6.7
		C187.8,368.3,186.9,368,186.1,367.8z"/>
	<path fill="#095873" d="M258.6,370.8c0.4,1.8,1,3.6,3.1,4.3c2.1,0.7,4.4-0.4,5.1-2.4c0.8-2.2-0.3-4.2-2.6-4.9
		c-0.5-0.2-1.1-0.2-1.7-0.3c-0.1,0.6-0.2,1.2,0.3,1.7c0.7,0.7,0.6,1.4-0.4,1.8c-1.1,0.4-1.7-0.2-1.9-1.1c-0.1-0.5,0.3-1.2-0.4-1.6
		c-0.4,0.4-0.8,0.7-1.3,1.1C258.8,369.8,258.7,370.3,258.6,370.8z"/>
</g>
<path fill="#08596E" d="M472.6,283.9c0-7.6,0-7.6,7.5-7.6c0.7,0,1.4,0.1,2,0c2.4-0.4,3.2,0.6,3,3c-0.2,3.1-0.2,6.2-0.1,9.2
	c0.1,2.3-0.6,3.4-3.1,3.2c-2.1-0.2-4.3-0.2-6.5,0c-2.5,0.2-3.2-0.8-3-3.1C472.8,287.1,472.6,285.5,472.6,283.9z"/>
</svg>
