<?xml version="1.0" encoding="utf-8"?>
<!-- Generator: Adobe Illustrator 24.1.2, SVG Export Plug-In . SVG Version: 6.00 Build 0)  -->
<svg version="1.1" id="Layer_1" xmlns="http://www.w3.org/2000/svg" xmlns:xlink="http://www.w3.org/1999/xlink" x="0px" y="0px"
	 viewBox="0 0 238.2 229.8" enable-background="new 0 0 238.2 229.8" xml:space="preserve">
<g>
	<path fill="#0D4D5C" d="M219,187.8c-1.7,4.6-4.3,8.6-7.4,12.3c-5.8,6.7-13,11-21.7,12.7c-2-0.1-3.8,0.6-5.8,0.7
		c-1.4,0.1-2.8,0.2-4.1,0.2c-19.8,0-39.6,0-59.4,0c-0.6,0-1.2,0-1.9,0c-1.1-0.4-0.6-1.2-0.3-1.8c1.8-3.3,4-6.2,7.6-7.7
		c2.9-1.2,5.9-2.3,9.3-2.2c-1.3-2.3-1.8-4.6-1.6-7.1c0-8.2,4.6-13.8,12.7-15.7c3.6-1,7.1-0.4,10.6,1.2c-0.1-1.1-0.3-1.9-0.3-2.7
		c0.3-3.3,0.9-6.6,3.5-9c2.5-2.3,5.4-3.2,8.7-2.8c0.4,0.1,0.9,0.1,1.3,0.2c1.2,0.4,2,0,2.8-1.1c1.9-2.6,4.7-3.7,7.8-4.1
		c10.3-1.3,15.5,6.4,15.8,13.3c0.1,1.2,0.5,0.9,1.2,0.7c5.1-2.2,11.9,1,14,6.1c0.8,1.8,1.1,3.7,0.7,5.8
		C214.8,186.5,217.1,186.3,219,187.8z"/>
	<path fill="#FCBC2F" d="M15.1,144.9c0-2.4,0-4.7,0.1-7.1c0.4-0.5,1-0.6,1.6-0.6c7.4,0.1,14.7-0.6,22.1-0.3c1.4,0.2,2.8,0.3,4.2,0.3
		c4.2-0.1,8.3-0.2,12.4,0.4c5.8,0.9,11.6,1.3,17.3,2.3c0.9,0.2,1.3-0.2,1.3-1.1c-0.1-2.7,0.1-5.3-0.2-8c-0.3-3.5-0.2-7,0-10.5
		c0.4-4.1,0.2-8.2,0.2-12.3c0-0.8,0.3-1.4,0.8-1.9c6.4-6.5,12.6-13.1,19.1-19.4c0.2-0.2,0.4-0.4,0.7-0.5c0.6-0.2,0.9,0.2,1.2,0.6
		c3.9,4.5,7.8,8.9,11.8,13.3c2,2.2,3.9,4.5,5.9,6.6c0.8,0.9,1.7,1.7,2,2.9c0.1,0.7,0.1,1.3,0.1,2c0,11.5,0,22.9,0,34.4
		c0,0.7,0,1.3-0.1,2c-0.3,0.9-1.1,0.9-1.8,1.1c-1.2,0.3-2.5,0.3-3.9,0.7c0.6,0.6,1.3,0.7,1.9,1c6.1,2.3,12,5.1,17.6,8.2
		c0.5,0.3,1.2,0.4,1.2,1.3c-0.4,0.7-1.1,0.9-1.8,0.9c-1.7,0.1-3.4,0.4-5.2,0.4c-2.6-0.1-5.2,0.3-7.7,0.2c-5.3-0.2-10.7-0.3-16-0.9
		c-8.2-0.8-15.9-3.3-23.5-6.3c-8.4-3.3-17.2-5.1-26.2-6.3c-6.3-0.8-12.6-1.5-19-1.9c-4.3-0.3-8.7-0.7-13-0.7
		C17.1,145.6,16,145.8,15.1,144.9z"/>
	<path fill="#418F86" d="M130.7,159.9c-6.2-3.4-12.6-6.5-19.2-9c-0.8-0.3-2.3-0.5-2.2-1.2c0.1-0.9,1.6-0.6,2.5-0.8
		c1.2-0.3,2.5-0.4,3.7-0.6c1.4-0.8,2.9-0.8,4.4-0.9c7-0.7,14.1-1.5,21.1-1.9c1.6-0.1,3.1-0.3,4.7-0.2c4-0.1,8-0.1,11.9,0
		c2.2-0.1,4.4-0.1,6.6,0c4.2,0,8.4,0.2,12.6,0.6c3.5,0,6.9,0.4,10.4,0.7c2.5,0.2,5,0.4,7.5,0.7c3.8,0.8,7.7,1.1,11.5,1.7
		c4.9,0.7,9.7,1.5,14.6,2.2c1.7,0.2,1.9,0.4,1.9,2.2c0,4.3-0.1,8.6,0,12.9c0.1,2-0.2,4,0.1,6c-0.1,4.1-1.2,8.1-2.4,11.9
		c-0.4,1.3-0.8,2.5-1.5,3.6c-2.3-0.7-4.6-1.3-7.1-0.3c1-4.6-0.5-8.3-4.2-10.9c-3.6-2.5-7.5-2.8-11.6-0.6c0.2-5.2-1.6-9.3-5.6-12.5
		c-4.9-3.9-15-2.8-17.9,2.7c-0.5,0.9-1.1,0.7-1.8,0.5c-2.8-0.7-5.5-0.7-8.1,0.7c-3.2,1.6-4.7,4.4-5.3,7.9c-0.1,0.8-0.2,1.7-0.3,2.6
		c-1.2-0.1-1.8-1-2.6-1.7c-7-5.9-14.7-10.7-22.6-15.2C131.4,160.6,130.9,160.5,130.7,159.9z"/>
	<path fill="#F79019" d="M130.7,159.9c8.7,4.6,17,9.9,24.5,16.3c0.6,0.5,1.3,1,1.9,1.5c0,1.1,0.3,2.2,0.7,3.5
		c-3.7-1.9-7.4-2.7-11.3-1.6c-1.2-0.2-2.3,0.2-3.4,0.2c-6.2-0.1-12.3-0.6-18.5-1.1c-10.5-0.7-20.9-2.3-31.4-3.5
		c-6.6-0.8-12.8-2.7-18.9-5.3c-7.9-3.3-16-6.3-24.3-8.3c-6-1.5-12.2-2.1-18.3-2.8c-4.4-0.5-8.7-1.1-13.1-1.5c-1.2-0.1-2.3-0.5-2.9,1
		c-0.1,0.2-0.4,0.2-0.6,0.1c0-4.5,0-9,0-13.5c3,0.6,6.1,0.3,9.1,0.5c5.1,0.4,10.2,0.7,15.2,1.2c6.7,0.6,13.4,1.4,20.1,2.7
		c6.5,1.2,12.9,3.1,19,5.6c5.8,2.3,11.6,4.3,17.8,5.1c5.4,0.7,10.8,1,16.2,1.2c4.3,0.2,8.7-0.2,13-0.2
		C127.3,160.9,129.2,161.3,130.7,159.9z"/>
	<path fill="#428F86" d="M95.1,86.2c-6.5,6.6-12.9,13.2-19.4,19.7c-0.9,0.9-1.2,1.8-1.3,3c0,3.7,0.2,7.5-0.1,11.2
		c-0.3,0.4-0.6,0.4-1,0.4c-9.3,1.4-14.7,6.9-17,15.8c-0.2,0.6-0.1,1.4-0.8,1.7c-4.2-0.5-8.4-0.3-12.5-0.5c-0.2-0.4-0.2-0.8-0.2-1.3
		c0-4.3,0-8.5,0-12.8c0-1.4,0.4-2.3,1.8-2.9c4.6-2,7.2-5.6,8.3-10.4c0.1-0.6,0.2-1.3,0.6-1.9c0.4,0,0.4-0.2,0.4-0.6
		c-0.2-2.7,1-4.2,3.5-5.5c3.5-1.8,6.7-4.3,9.8-7c5.6-5,11-10.2,16.8-15c0.4-0.3,0.7-0.6,1.1-1C81,78.4,77,77.9,73,78.4
		c-0.6,0.1-1.4,0.4-1.8-0.5c1.2-0.1,2.4-0.5,3.6-0.4c1.3-0.2,2.6-0.2,4,0c2.2,0.2,4.5,0.3,6.6,1c0.7,0.2,1.2,0.1,1.8-0.4
		c4.5-3.6,9.2-7,14.4-9.6c9.2-4.6,18.1-4.1,26.9,1.1c4,2.4,7.7,5.3,11.1,8.8c0.2-2.4-0.1-4.7,0.3-6.9c0.5,0.4,0.5,0.9,0.5,1.4
		c0,1.9,0.1,3.9,0,5.8c-0.2,0.9-0.2,1.8-0.2,2.7c0,6,0,12,0,18.1c0,0.8,0.1,1.5-0.2,2.3c-0.9,0.9-1.3,0-1.7-0.5
		c-1.4-1.6-2.8-3.1-4.2-4.7c-2.8-3.2-5.7-6.3-8.4-9.4c-0.7-0.7-1.5-1.1-2.4-1c-4,0.5-8,0.2-12.1,0.2c-4.5,0.1-9,0-13.5,0
		C96.7,86.4,95.9,86.3,95.1,86.2z"/>
	<path fill="#F7901A" d="M134.1,195c0,2.7,0.4,5.3,2.2,7.7c-4-0.9-7.4,0.8-10.7,2.2c-3.5,1.5-5.6,4.5-7.1,7.9
		c-0.1,0.2-0.1,0.4-0.1,0.6c0,0.2-0.1,0.4-0.3,0.5c-2.1,0.2-4.2,0.1-6.4,0.1c-0.4-0.2-0.9-0.3-1.3-0.6c-7-5.2-14.9-7.8-23.5-8.8
		c-6.3-0.7-12.7-1.2-18.9-2.3c-4.6-0.8-8.9-2-13.1-4.2c-7.9-4.2-16.1-7.8-24.5-10.9c-3.4-1.2-6.9-2.4-10.4-3.3c-1-0.3-1.6,0-2.3,0.7
		c-1.6-4.4-2.5-8.9-2.6-13.6c-0.1-3.2,0-6.4,0-9.6c0.6,0,0.6,0.4,0.6,0.8c0.1,1.2,0.5,2.4,0.3,3.6c-0.2,1.1,0.4,1.6,1.4,1.7
		c3.1,0.4,6.1,1.1,9.2,1.7c9.5,2,18.7,5,27.5,9.2c5,2.4,9.8,5.1,14.9,7.1c5.3,2.1,10.7,3.1,16.4,3.4c6,0.3,12.1,0.1,18.1,0.6
		c7.4,0.5,14.8,1.4,22,3.2c2.4,0.6,4.8,1.1,7.1,1.7C133.1,194.5,133.7,194.5,134.1,195z"/>
	<path fill="#FCBC31" d="M134.1,195c-2.2-0.2-4.3-1-6.4-1.5c-5.3-1.1-10.6-2.3-16-2.9c-8-0.9-16-1-24-1.1
		c-9.4-0.2-18.3-2.7-26.6-7.2c-9.3-5-19.1-9.1-29.5-11.6c-5-1.2-10-2.4-15.1-3c-1-0.1-1.1-0.5-0.9-1.4c0.3-1.6-0.1-3.3-0.4-4.9
		c0-1,0-2,0-2.9c0.2-0.1,0.4-0.2,0.4-0.3c-0.1-1.8,1.2-1.5,2.2-1.4c5.2,0.6,10.5,1.4,15.7,1.9c7.1,0.7,14.2,1.7,21,3.8
		c6.7,2,13.3,4.4,19.8,7.1c6.2,2.6,12.5,4.5,19.2,5.3c5,0.6,9.9,1.2,14.9,1.9c4.1,0.5,8.2,1,12.4,1.3c4.2,0.2,8.3,0.9,12.5,1.1
		c3.9,0.1,7.8,0.5,11.7,0.4c0.5,0,1.1-0.2,1.5,0.2C139,181.5,134.2,186.3,134.1,195z"/>
	<path fill="#0A414E" d="M53.8,108.3c-0.4,1.5-0.7,3.1-1.2,4.5c-1.5,4-4.2,6.9-8.2,8.5c-1,0.4-1.2,0.9-1.2,1.9c0,4.3,0,8.6,0,12.9
		c0,0.5,0.1,1.1-0.2,1.5c-1.3,0.1-2.6,0.1-4-0.2c-0.5-0.2-0.3-0.6-0.3-1c0.1-4.1,0-8.1,0.1-12.2c0-1.3-0.4-2-1.6-2.4
		c-4.6-1.7-7.4-5-8.8-9.7c-0.7-2.4-1.2-4.7-1-7.2c0.5-1.3,0.3-2.7,0.3-4.1c-0.1-9.1,0.1-18.1,2-27.1c0.4-1.9,1-3.7,1.5-5.5
		c0.2-0.6,0.5-1.1,0.4-1.8c1.1-3.3,2.7-6.2,5.2-8.6c2.5-2.4,5.4-2.4,7.9,0c3.3,3.1,4.9,7.1,6.1,11.3c1.4,4.8,2.2,9.7,2.7,14.6
		c0,0.5,0.2,1,0.3,1.6c0.7,1.4,0.7,3,0.7,4.5c0.2,4.3,0.6,8.6,0,12.9C54.4,104.6,54.4,106.5,53.8,108.3z"/>
	<path fill="#F78F19" d="M183.9,106.9c-2.9-10.2-2.1-20.2,1.4-30.1c1-2.8,2.5-5.4,4.7-7.5c5-5,11.9-4.6,16.3,1
		c3.3,4.3,5.1,9.3,6.2,14.5c1.4,6.8,1.5,13.7-0.4,20.5c-0.6,2.2-1.5,4.2-2.6,6.2c-2.1,3.6-5.5,5.3-9.4,6.1c-0.3,0.1-0.6,0-0.9,0
		c-0.6-0.6-0.5-1.4-0.5-2.2c0-5.7,0-11.5,0-17.2c0-0.7,0-1.3-0.2-2c-0.2-0.5-0.4-1-1-1c-0.6,0-0.8,0.6-0.9,1.1
		c-0.1,0.6-0.1,1.1-0.1,1.7c0,5.6,0,11.3,0,16.9c0,0.8,0.1,1.5-0.3,2.3c-0.7,0.7-1.3,0.2-1.8-0.3c-1.1-1-2.3-2.1-3.2-3.2
		c-1.6-2-3.7-3.6-5.2-5.7C185.3,107.2,184.4,107.5,183.9,106.9z"/>
	<path fill="#FDBC31" d="M17.7,184.6c0.5-0.5,0-1,0.1-1.6c3.1,0.6,6.2,1.6,9.2,2.6c6,2,11.8,4.3,17.5,7c3.6,1.7,7.3,3.4,10.8,5.3
		c4.5,2.4,9.3,3.5,14.3,4.3c5.8,0.9,11.7,1.4,17.6,2c8.2,0.9,15.8,3.4,22.6,8.2c0.7,0.5,1.3,1,1.9,1.5c-10.6,0-21.2,0-31.8,0
		c-7.2,0-14.4,0-21.6,0c-16.4,0-28.5-7.4-36.9-21.2C19.9,190.2,18.5,187.5,17.7,184.6z"/>
	<path fill="#FFD84A" d="M98.3,35.5c0,9.9-7.8,17.4-18,17.4c-9.7,0-17.3-7.7-17.4-17.4c0-10.1,7.7-17.7,17.9-17.7
		C90.6,17.6,98.6,25.9,98.3,35.5z"/>
	<path fill="#418F86" d="M27.8,104.9c0.1,3.4,0.6,6.7,2.1,9.8c1.6,3.4,4.3,5.7,7.9,6.8c1.2,0.3,1.4,0.9,1.4,2
		c-0.1,4.6,0.1,9.3-0.1,13.9c-8,0.1-15.9,0.3-23.9,0.4c0.1-7.6,0.1-15.2,0.2-22.8c0.1-3.2,1.7-5.7,4.1-7.7c2.4-2,5.2-3.2,8.2-3.9
		C28,103.9,27.8,104.4,27.8,104.9z"/>
	<path fill="#083D4A" d="M139.8,78.8c0-2.4,0-4.8,0-7.2c0-4.8,0-9.7,0-14.5c0.1-8.4,6.2-15.2,14.9-16.1c8.3-0.9,15.9,4.4,17.9,12.2
		c0.4,1.5,0.6,3,0.6,4.5c0,6.8,0.1,13.7,0.1,20.5c0,0.4,0,0.9-0.1,1.3c0.2,0.5,0.1,1,0.1,1.6c0,7.7,0,15.5,0,23.2
		c0,0.5-0.1,1.1,0.1,1.6c0,0.5,0,0.9,0.1,1.4c-0.2,0.2-0.5,0.2-0.7,0c-0.5-0.7-0.3-1.6-0.3-2.4c0-8-0.1-16.1,0-24.1
		c0.1-6.2-0.4-12.3-0.3-18.5c0-1.7-0.1-1.9-1.9-1.9c-7.5,0.1-15-0.1-22.5,0.1c-1.8,0-3.6,0.2-5.4,0.2c-1.5,0-1.6,0.1-1.6,1.7
		c0,4.8,0,9.7,0,14.5C140.6,77.4,141,78.4,139.8,78.8z"/>
	<path fill="#E15726" d="M172.9,107.1c0.2,0,0.4,0,0.6,0c3.4-0.1,6.9-0.2,10.3-0.3c1.2-0.1,1.9,0.4,2.8,1.3c2.6,2.9,5.3,5.6,8,8.4
		c0.3,0.3,0.7,0.5,1.1,0.7c1.2,1.1,2.5,2.2,3.3,3.8c1.2,1.3,2.5,2.6,3.7,3.9c0.2,0.2,0.6,0.4,0.5,0.8c-0.1,0.5-0.7,0.2-1,0.4
		c-0.5,0.5-1,0.4-1.6,0.4c-7.6,0-15.3,0-22.9,0c-0.2,0-0.3,0-0.5-0.1c-2.2-1.8-3.9-4-5.8-6.1c-2.8-3-5.5-6-8.2-9
		c-1.1-1.1-2-2.4-3.3-3.4c-0.2-0.8,0.4-0.9,0.9-0.9c3.7-0.1,7.4-0.6,11.1-0.3C172.4,106.8,172.7,106.9,172.9,107.1z"/>
	<path fill="#C3D3BB" d="M177,126.1c0.1,0,0.2,0,0.2,0.1c0.5,0.3,1,0.1,1.5,0.1c7.3,0,14.6,0,21.9,0c0.5,0,1-0.1,1.5,0.1
		c0,3.2,0.3,6.4-0.2,9.6c0,0.4-0.2,0.6-0.5,0.8c-2.9,2.2-4.5,5.3-5.8,8.6c-0.3,0.6-0.3,1.4-1,1.9c-0.2,0.1-0.4,0.3-0.6,0.2
		c-5.7-0.7-11.4-1-17.2-1.5c-0.5-0.5-0.5-1.2-0.5-1.9c0-5.4,0-10.9,0-16.3C176.5,127.4,176.4,126.6,177,126.1z"/>
	<path fill="#539F8D" d="M53.8,108.3c0.3-4.3,0.6-8.6,0.5-12.9c-0.1-3.4-0.3-6.8-0.5-10.1c5.2-3.8,11-6.2,17.3-7.4
		c0.6,0.5,1.3,0.2,1.9,0.1c4.2-0.5,8.3,0,12.3,0.9c0.1,0,0.1,0.1,0.3,0.3c-1.4,1.6-3.2,2.8-4.8,4.2c-2.2,2-4.6,3.9-6.7,6
		c-3.7,3.5-7.4,7.1-11.6,10c-2.3,1.6-4.4,3.6-7.1,4.4c-0.8,0.2-1,0.8-1,1.5c0.1,1.1-0.2,2.2-0.3,3.3c0,0-0.1,0.1-0.1,0
		C54,108.5,53.9,108.4,53.8,108.3z"/>
	<path fill="#0D4A59" d="M194.8,147.5c1.3-4.5,3.4-8.5,7.3-11.3c4.3-2.6,8.9-3.3,13.7-1.4c3.9,1.6,7.5,6,7.4,11
		c-0.2,8.5-0.1,17-0.1,25.4c0,0.3-0.1,0.7-0.1,1c-0.4-0.5-0.2-1-0.2-1.5c0-5.7-0.1-11.5,0-17.2c0-1.3-0.5-1.7-1.6-1.9
		c-4.2-0.6-8.4-1.2-12.6-1.8c-4.2-0.6-8.5-1.2-12.7-1.8C195.4,148,195,147.9,194.8,147.5z"/>
	<path fill="#0C4350" d="M199,121.1c-1.2-1.2-2.5-2.3-3.3-3.8c0.5-0.4,0.3-1,0.3-1.5c0-6.4,0-12.7,0-19.1c0-0.4,0-0.8,0.1-1.1
		c0.2-0.7,0.6-1.2,1.3-1.3c0.8-0.1,1.2,0.5,1.5,1.1c0.2,0.5,0.2,1,0.2,1.6c0,6.3,0,12.5,0,18.8c0,0.6,0,1.1,0.1,1.7
		C199.1,118.7,199.1,119.9,199,121.1z"/>
	<path fill="#00283D" d="M118,213.9c0.1-0.2,0.2-0.3,0.3-0.5c21.3,0,42.7,0,64,0c2,0,4-0.3,5.9-0.7c0.6-0.1,1.1-0.3,1.6,0.1
		c-3.7,0.8-7.4,1.1-11.2,1.1c-19.8,0-39.7,0-59.5,0C118.8,213.9,118.4,213.9,118,213.9z"/>
	<path fill="#0C2736" d="M27.8,104.9c0-0.5-0.1-1-0.1-1.5c-0.5-6.6-0.2-13.1,0.4-19.7c0.5-5.9,1.5-11.8,3.7-17.4
		c0.4,1.5-0.5,2.7-0.9,4c-1.2,4.2-1.8,8.4-2.3,12.8c-0.7,6.8-0.5,13.6-0.6,20.3C28,104,28.1,104.5,27.8,104.9z"/>
	<path fill="#0B5263" d="M173.5,105.8c-0.1-0.2-0.2-0.4-0.2-0.7c0-8.6,0-17.1,0-25.7c0.1,3,0.1,6,0.2,9
		C173.5,94.2,173.5,100,173.5,105.8z"/>
	<path fill="#B0F9ED" d="M202.2,126.5c-7.8,0-15.6,0-23.4,0c-0.5,0-1.2,0.2-1.6-0.3c8.3,0,16.7,0,25,0
		C202.2,126.3,202.2,126.4,202.2,126.5z"/>
	<path fill="#539F8D" d="M78.7,77.6c-1.3,0-2.6,0-4,0C76.1,77.2,77.4,77.3,78.7,77.6z"/>
	<path fill="#083D4A" d="M145.6,145.8c-6,0.2-11.9,0.7-17.8,1.4c-4.1,0.4-8.2,0.8-12.4,1.2c0-13.1,0-26.3,0-39.4
		c0.4-0.5,1-0.5,1.6-0.5c9.1,0,18.1,0,27.2,0c0.3,0,0.7,0.1,1,0.1c1,0.4,0.9,1.4,0.9,2.2c0,3.8,0,7.6,0,11.4c0,1,0,1.9,0.6,2.7
		c-0.5,1.3-0.5,2.6-0.5,3.9c0,4.9,0,9.8,0,14.7C146.1,144.4,146.2,145.2,145.6,145.8z"/>
	<path fill="#E65B25" d="M145.3,108.9c-10,0-19.9,0-29.9,0c-2.6-2.9-5.3-5.8-7.9-8.7c-3.4-3.8-6.8-7.7-10.1-11.5
		c-0.8-0.9-1.5-1.7-2.3-2.6c0.4-0.5,1-0.2,1.5-0.2c7.7,0,15.3,0,23,0c0.4,0,0.8,0.1,1.1,0c3.2-0.9,5.1,0.7,7,3
		c3.8,4.5,7.8,8.8,11.8,13.1c1.3,0.4,1.8,1.8,2.7,2.6c1,0.9,1.8,2.1,2.8,3.1C145.3,108,145.8,108.4,145.3,108.9z"/>
	<path fill="#0D4A59" d="M101.3,147.1c-4.1-1.4-8.2-2.4-12.3-3.3c-0.6-0.1-0.7-0.4-0.7-0.9c0-5.3-0.1-10.6,0-16
		c0.1-3.3,2.7-5.9,5.9-6.2c3.1-0.3,6,1.8,6.8,4.8c0.1,0.3,0.2,0.6,0.2,1C101.3,133.3,101.3,140.1,101.3,147.1z"/>
	<path fill="#0D4958" d="M55.5,138.1c0.8-3.2,1.6-6.4,3.4-9.2c3.6-5.5,8.8-8.4,15.4-8.8c0,6.6,0.1,13.1,0.1,19.7
		c0,0.9-0.5,0.9-1.1,0.8c-3.6-0.5-7.3-1-10.9-1.6C60.2,138.7,57.8,138.7,55.5,138.1z"/>
	<path fill="#FBF2DE" d="M145.6,145.8c0-6.1,0-12.3,0-18.4c0-1,0.2-1.8,0.9-2.5c0.8-2,2.5-3.4,3.8-5c2.9-3.5,5.8-7,8.8-10.4
		c0.4-0.5,0.8-0.9,1.4-1.2c1.6,1.1,2.7,2.7,4,4c4.1,4.4,8.1,8.8,12.1,13.2c0.2,0.2,0.3,0.5,0.5,0.7c0,6.3,0,12.7-0.1,19
		c0,0.4,0,0.8,0,1.1c-4.2-0.2-8.4-0.3-12.6-0.5c-0.6-0.5-0.5-1.3-0.5-2c0-2.9,0-5.8,0-8.7c0-1.6-0.2-1.7-1.7-1.7c-0.7,0-1.4,0-2.1,0
		c-1.6,0-1.8,0.1-1.8,1.8c0,2.9,0,5.7,0,8.6c0,0.7,0.1,1.5-0.5,2C153.6,145.8,149.6,145.8,145.6,145.8z"/>
	<path fill="#0A5062" d="M157.7,145.8c0-3.9,0.1-7.8,0-11.8c0-1,0.2-1.3,1.3-1.2c1.4,0.1,2.8,0.1,4.2,0.1c0.9,0,1.2,0.2,1.2,1.2
		c0,3.9,0,7.8,0,11.8C162.2,145.8,159.9,145.8,157.7,145.8z"/>
	<path fill="#0B5263" d="M160.4,108.1c-1.7,2.5-3.9,4.7-5.8,7.1c-2.7,3.2-5.4,6.4-8.1,9.6c-0.6,0-1,0-1-1c0.1-4.7,0.1-9.4,0.1-14.2
		c0-0.3-0.1-0.6-0.3-0.8c-0.7-1.5-2.1-2.5-3.1-3.8c-0.8-1.1-1.8-2.1-2.7-3.1c0-7.2,0-14.4,0.1-21.6c0-0.5-0.2-1.1,0.2-1.6
		c0.6-0.4,0.3-1.1,0.3-1.6c0-5.3,0-10.5,0-15.8c0-1,0.3-1.3,1.3-1.3c9.9-0.4,19.9-0.2,29.8-0.3c1,0,1.4,0.1,1.5,1.3
		c0.3,15.4,0.3,30.7,0.3,46.1c-4,0.1-8,0.2-12.1,0.4C160.6,107.5,159.5,107.1,160.4,108.1z"/>
</g>
</svg>
