<?xml version="1.0" encoding="utf-8"?>
<!-- Generator: Adobe Illustrator 24.1.2, SVG Export Plug-In . SVG Version: 6.00 Build 0)  -->
<svg version="1.1" id="Layer_1" xmlns="http://www.w3.org/2000/svg" xmlns:xlink="http://www.w3.org/1999/xlink" x="0px" y="0px"
	 viewBox="0 0 238.2 229.8" style="enable-background:new 0 0 238.2 229.8;" xml:space="preserve">
<style type="text/css">
	.st0{fill:#163C54;}
	.st1{fill:#FCECD3;}
	.st2{fill:#FBECD3;}
	.st3{fill:#FFFFFF;}
</style>
<path class="st0" d="M90.4,168.3c-0.8,0.8-1.8,1.2-2.9,1.3c-0.9,0.1-1.9,0.6-2.4,1.4c-0.8,1.3-2,1.5-3.1,1.9
	c-0.8,0.3-1.4,0.5-1.8,1.3c-1.4,3.1-4,3.6-6.7,3.3c-1.1-0.1-1.9-0.8-2.6-1.7c-1.2-1.4-2.9-1.2-3.7,0.5c-3.3,6.8-6.3,13.8-8.8,21
	c-0.8,2.4-1.5,4.9-2.6,7.2c-0.6,1.3-0.5,1.5,0.9,1.3c2.8-0.4,5.8-1,8.6-1.2c5.8-0.3,11.6-0.3,17.3,0.5c4.7,0.5,9.4,1.4,14.2,2.3
	c4.6,0.9,8.8,2.6,13.2,4.3c0.2,0.1,0.5,0.3,0.7,0.1c0.4-4.2,0.6-8.6,0.9-12.8c0.4-5.4,0.8-10.9,1.3-16.2c0.1-2.2,0.4-4.5,0.5-6.6
	c0.1-0.9-0.1-1.4-0.9-1.8c-2.5-1-5-2.2-7.5-2.7c-0.6-0.1-1.1-0.4-1.1-1c-0.1-0.8-0.5-1.5-0.7-2.3c-0.4-1.8-0.4-1.8,1.4-1.4
	c3.9,0.9,7.5,2.3,11.1,4c0.5,0.3,1.1,0.3,1.5,0c4.4-1.8,9-2.9,13.4-3.7c0.7-0.1,1.1-0.4,0.9-1.3c-0.4-3.2,0-6.4,0-9.6
	c0-0.6,0-1.3,0-2c0-0.8-0.4-1-0.9-1.3c-2.6-0.8-3.3-3.1-1.5-5.1c4.2-4.7,7.9-10.2,12.6-14.4c1.4-1.3,3.1-1.9,4.6-0.3
	c2.5,2.7,5.1,5.5,7.5,8.2c0.2,0.3,0.5,0.9,0.9,0.8c0.6-0.3,0.1-0.8,0.2-1.2c0-2.4-0.1-4.9,0.4-7.3c0.2-1.4,1.2-1.8,2.2-1.8
	c1.1,0.1,1.8,0.9,1.8,2.2c0,1,0,1.9-0.2,2.8c-0.6,2.9,0.1,5.9-0.2,8.8c-0.1,1,0.6,1.8,1.3,2.4c0.6,0.8,1.2,1.5,0.8,2.6
	c-0.5,1.2-1.1,2-2.4,2c-0.6,0-0.8,0.1-0.8,0.9c0.1,2.6,0.2,5.1,0,7.9c2.8-2.3,5.7-4.1,8.8-5.1c0.6-0.1,0.5-0.6,0.6-0.9
	c0.6-1.5,0.9-3.2,1.7-4.7c0.7-1.9,2.5-2.7,4-1.9c0.7,0.3,1.1,1.8,0.6,2.8c-0.5,1-0.9,2-1.5,3.1s-0.2,1.3,0.7,1.3
	c1.1,0,2.1-0.3,3.3,0.3c1.5,0.8,2.2,1.8,1.9,3.1c-0.4,1.4-1.5,1.9-3.1,1.5c-4.1-1-7.8-0.1-11.4,2.2c2.5,0.4,4.5,1.7,6.5,2.9
	c3.9,2.4,6.4,6.1,7.4,10.9c0.6,2.4,0.6,4.9,0.6,7.3c0,0.8,0.1,1,0.8,0.8c6-2.2,10.1-6.4,12-13.2c1.1-3.8,0.7-7.7,0-11.5
	c-0.9-5.1-3.1-9.7-5.5-14.2c-2.8-5.2-6.4-10-10-14.6c-5.5-7-12-12.9-19.3-17.8c-1.1-0.8-2.1-1.4-3.3-2c-0.5-0.3-0.7-0.8-0.7-1.3
	s0.6-0.3,0.9-0.5c1.8-0.9,3.3-0.8,5.2,0.3c4.7,2.8,9.2,6,13.1,10c7,6.9,13,14.6,18,23.1c2.1,3.6,4,7.4,5.1,11.5
	c2.1,7.3,2.8,14.6-0.1,21.9c-1.7,4.1-4.2,7.2-7.5,9.6c-2.8,2-6,3.5-9.4,3.8c-0.6,0.1-0.9,0.4-1.2,0.9c-0.7,1.2-1.5,2.3-2.7,3.1
	c-0.7,0.5-0.4,1-0.1,1.4c1.4,3.7,2,7.7,3.9,11.2c0.6,1.3,0.5,2.3-0.6,3.2c-0.8,0.6-0.5,1.4,0,1.9c0.8,0.8,0.8,1.7,0.4,2.6
	c-0.5,1-1.3,1.3-2.2,1.2c-3.5-0.8-7-1.4-10.5-1.8c-4.8-0.6-9.7-0.9-14.5-0.9c-3.4,0-6.8,0-10.3,0.3c-3.3,0.3-6.6,0.3-9.9,0.8
	c-3.9,0.5-7.8,1-11.6,2.3c-1.4,0.5-2.9,0.5-4.4,1.7c-0.6,0.5-1.4-0.1-2.1-0.4c-3.7-1.4-7.4-1.9-11.2-2.6c-5.9-1-11.8-1.4-17.7-1.8
	c-4.6-0.3-9.2-0.1-13.8,0.4c-4.4,0.4-8.8,0.9-13.2,1.7c-0.8,0.1-1.7,0.4-2.5,0.5c-1.1,0.3-2.1,0.1-2.7-1.2c-0.5-1.2-0.8-2.3,0.6-3.2
	c0.4-0.3,0.7-0.6,0.1-1.3c-1.1-1.2-1.2-2.6-0.5-4c1.3-2.9,2.1-6.1,3.2-9.1c1.5-4.2,3.2-8.4,5.1-12.7c-4.1,0.9-8.1,0.6-12-0.9
	c-4.7-1.9-8.3-5.2-10.5-10.1c-2.7-6-2.2-12-0.4-18.2c2-6.3,5.4-11.5,9.2-16.7c4-5.6,8.7-10.6,13.6-15.5c2.6-2.6,5.2-5.4,8.1-7.4
	c3.1-2.2,5.9-4.9,9.3-6.4c0.5-0.1,0.5-0.3,0.2-0.8c-0.6-0.8-0.9-1.7-1.5-2.7c-2.5,2.6-5.2,2.8-8.1,1c-1.5-1-2.5-2.6-2.9-4.3
	c-0.6-2.2-0.6-4.5-0.2-6.8c0.4-2-0.2-4-1.7-5.4c-4-4.1-4.7-9.2-4.2-14.8c0.4-3.6,1.5-6.9,3.5-9.7c2.6-3.7,5.3-7.3,7.5-11.1
	c1.8-2.9,3.1-6.1,4-9.6c1.5-5.9,4.2-11.1,8.4-15.5c1.4-1.5,2.8-3.1,4.2-4.6c2.5-2.4,5.4-4.1,8.5-5.6c5.2-2.4,10.6-3.5,16.3-3.5
	c4.8,0,9.8,0.1,14.3,2.2c3.5,1.5,6.8,3.2,10.7,3.6c2.1,0.3,4.1,1.5,6,2.9c0.9,0.6,1.4,1.8,2.2,2.4c2.1,1.7,3.9,3.6,5.3,5.9
	c1.7,2.6,2.5,5.5,3.5,8.4c1.2,3.5,1.7,7,2.5,10.6c0.8,4.2,3.1,7.9,5.3,11.5c2.4,3.8,4.8,7.7,5.8,12.3c1.1,5.5,0,10.4-3.2,14.7
	c-0.5,0.6-1.1,1.3-1.5,1.9c-0.8,1.2-1.4,2.4-1.4,4.1c0,3.1-0.2,6.3-1.9,8.9c-1.5,2.6-5.4,4.1-8,3.1c-0.7-0.3-1.4-0.6-1.7-1.3
	c-0.5-1.2-0.9-0.8-1.5-0.1c-2.8,2.9-6.1,3.1-9.7,1.9c-0.7-0.3-1.5-0.5-2.2-0.8c-0.9-0.3-1.5,0.4-1.3,1.4c0.7,2.7-0.2,5.1-1.4,7.3
	c-2.6,5-6.1,9.1-11.2,11.2c-3.2,1.4-6.6,1.7-10,1.4c-4.6-0.5-8.7-2.2-12.3-5.5c-2.9-2.7-4.8-6.1-5.8-10.1c-0.1-0.4-0.2-1-0.1-1.3
	c0.9-1.5,0-2.2-0.9-2.8c-0.5-0.4-1.1-0.9-1.4-1.5c-0.8-1.5-1.8-1.3-3.1-0.5c-5.9,3.5-11.7,7-17.1,11.4c-3.7,2.8-7.3,5.6-10.4,9.2
	c-3.1,3.6-6.4,6.9-9.2,10.6c-1.9,2.4-3.5,5-5.2,7.7c-1.7,2.6-2.9,5.2-4.2,8.1c-2.2,5.4-3.3,10.9-0.9,16.5c1.8,4.2,5,6.6,8.8,8.2
	s7.8,1,11.7-0.3c1.2-0.4,1.4-1.4,1.7-2.4c0.2-1-0.1-1.8-0.9-2.3c-1.9-1-2.9-2.7-3.7-4.9c-0.9-2.7-0.9-5.2-0.1-7.9
	c0.8-2.8,2-5.5,4-7.5c0.5-0.5,0.2-0.6-0.4-0.8c-3.4-0.6-6.8-0.5-9.8,1.7c-0.8,0.6-1.7,0.6-2.5-0.1c-0.7-0.8-0.8-1.9-0.1-2.8
	c1.2-1.7,2.7-2.8,4.8-2.6c1.3,0.1,2.5-0.8,3.8-1c2.5-0.3,4.8,0,7.1,0.8c0.6,0.3,0.9,0.1,1.3-0.3c2.7-2.4,5.4-4.9,8.8-6.3
	c0.7-0.3,2-0.1,2-1.2c0.1-0.8-0.7-1.5-1.1-2.3c-1.2-2.7-2.8-5.1-4.1-7.8c-1.2-2.3-1.1-3.5,0.9-5.1c0.8-0.6,1.5-1.4,2.5-1.7
	c1.3-0.4,2.2,0,2.9,1c2.5,3.5,4.6,7.3,6.4,11.2c1.1,2.2,2.4,4.3,3.5,6.4c0.2,0.5,0.6,0.9,1.2,1c2,0.9,3.7,2.4,4.8,4.3
	c0.4,0.5,0.5,0.9,1.3,0.9c3.7-0.1,7,3.2,7.1,7.2c0.1,2.2-0.1,4.2-2,5.6c-0.6,0.4-0.5,0.9-0.2,1.5c1.4,4,2.2,8.1,3.4,12
	c0.2,0.8,0.1,1.5,0.2,2.3c0.1,0.9,0.1,1.7-0.7,2.2s-1.7,0.4-2.4-0.3c-1.3-1.2-2.6-2.4-3.9-3.7C94.1,173.8,92,171.4,90.4,168.3z
	 M105.7,43.7c-0.6,0.9-0.9,1.5-1.4,2c-0.5,0.6-0.9,1.2-1.3,1.8c-5,8.2-12,13.5-20.1,17.6c-1.1,0.5-2.1,1-2.4,2.6
	c-0.2,1.2-0.9,1.5-2,0.6c-0.8-0.8-1.8-1.2-2.7-1.5c-1.3-0.5-2.4-0.1-3.2,1.2c-1.1,1.7-1.4,3.5-1.3,5.5c0.4,4,2.1,6.9,5.2,9.1
	c1.4,1,1.8,0.9,2.6-0.8c0.6-1.2,1.3-1.3,2.4-0.9c0.9,0.4,1.4,1,1.7,2c0.4,2.2,0.6,4.6,1.3,6.6c0.8,2.3,1.7,4.6,2.8,6.8
	c3.1,5.8,6.8,10.6,12.5,13.5c3.9,2,8.1,2.9,12.4,2.9c5.9-0.1,11.3-1.9,16-5.9c4.1-3.5,7-7.8,9.2-12.7c1.4-3.1,2.4-6.4,2.8-9.8
	c0.5-3.2,2.1-3.8,4.8-2.6c0.4,0.1,0.7,0.4,1.3,0.1c4.5-2.4,6.7-6.4,6.6-11.9c-0.1-3.6-1.9-5.1-5.1-4.2c-0.9,0.3-1.9,0.8-2.7,1.2
	c-0.7,0.3-1.4,0.4-1.5-0.8c-0.2-2.4-1.3-4-3.7-4.3c-0.1,0-0.2-0.1-0.4-0.1c-4-2.4-7.4-5.8-10.4-9.5c-2.7-3.3-4.1-7.4-5.5-11.5
	c-0.4-1.2-0.2-2.6-1.3-3.7c-0.4,1.4-0.9,2.4-1.4,3.6c-2.8,7.3-7.8,12.4-14,16.1c-1.7,0.9-3.4,1.4-5.3,1.4c-1.4,0-2.4-1.4-1.8-2.8
	c0.8-2.3,2.2-4.1,3.7-5.9C104.5,47.8,105.4,46.1,105.7,43.7z M115.2,212.2c2.6-1.5,5.3-2.6,7.9-3.3c4.1-1.2,8.4-2.4,12.6-3.1
	c4.7-0.8,9.4-1.2,14.2-1.4c5.1-0.3,10.1,0.6,15.3,0.6c1.5,0,3.1,0.3,4.6,0.6c0.4,0.1,0.8,0.5,1.2,0.1c0.4-0.4,0.1-0.9-0.1-1.4
	c-2-5.9-4-11.6-6.3-17.3c-0.9-2.3-1.8-4.7-2.6-7c-0.5-1.3-1.1-1.5-2.1-0.9c-0.5,0.4-1.1,0.8-1.5,1c-1.8,0.9-3.5,2-5.5,2.6
	c-3.8,0.9-6.8-2.4-6.3-6.8c0.2-1.8,0.6-3.6,1.7-5.4c-2.7,0.3-5.2,0.3-7.7,0.6c-3.7,0.4-7.3,0.8-10.9,1.4c-3.3,0.6-6.7,1.5-10,2.3
	c-0.8,0.3-1.5,0.4-1.7,1.7c-0.1,1.3-0.4,2.6-0.5,4c-0.4,5.1-0.7,10.1-1.1,15.2c-0.1,0.9-0.4,1.8-0.4,2.7c0.1,2.4-0.1,4.7-0.5,7
	C115.3,207.6,115.3,209.8,115.2,212.2z M80.8,169.7c0.6-0.5,0.9-0.9,1.4-1.2c0.6-0.4,0.8-1,0.5-1.7c-1.2-2.3-1.9-4.9-3.9-6.6
	c-1.2-1-1.2-2.2-0.4-3.1c0.7-0.8,2.2-0.9,3.1,0.1c1.8,2.3,3.8,4.5,4.6,7.7c0.1,0.4,0,1.2,0.6,1c0.5,0,0.9-0.3,1.3-0.9
	c0.4-0.6,0.5-1.4,0.1-1.9c-0.9-1.9-1.3-4.1-2.6-5.8c-0.8-1.2-1.7-2.2-2.5-3.3c-0.9-1.4-0.8-2.7,0-3.5c1.1-0.9,2.4-0.6,3.3,0.8
	c1.1,1.7,2,3.3,3.1,5c1.1,1.7,1.7,3.6,2.5,5.5c0.5,1.2,1.3,1.2,2.2,1c0.6-0.1,0.8-0.6,0.8-1.3c0-0.6-0.1-1.3-0.4-1.9
	c-1.8-4.6-3.9-9.1-7.9-11.9c-2.4-1.8-5-2.9-8-2.2c-1.9,0.5-3.4,1.5-5,2.6c-4.2,2.9-8.1,6.1-10.6,11c-1.1,2-2.1,4.2-1.8,6.8
	c0.2,2.6,2.2,4.1,4.6,3.3c1.1-0.4,2-0.6,2.9-1.3c1.8-1,2.9-0.6,3.9,1.4c0.4,0.8,0.9,1.5,1.3,2.4c0.6,1.2,1.3,1.9,2.6,1.3
	c0.8-0.4,1.2-1.9,0.7-3.1c-0.7-1.9-2.1-3.5-3.4-5c-0.8-1-0.8-2.4-0.1-3.2c0.9-0.9,2.2-1,3.1,0C78.1,164.2,80.1,166.5,80.8,169.7z
	 M173.4,182.4c0-2.7-0.1-5.1-1.2-7c-2.4-4.6-6.3-7-11-7.8c-3.2-0.5-5.3,1.5-7.5,3.3c-1.5,1.3-2.7,2.9-2.9,5.1c-0.2,2,0.6,2.7,2.4,2
	c1.3-0.5,2.6-1.3,3.7-2.2c1.2-1,2.5-1.5,3.9-2c1.4-0.4,3.3,0,4.1,1.8c0.8,1.9,1.7,3.7,2.5,5.6c0.9,2.3,1.9,4.6,2.9,6.9
	c0.1,0.4,0.2,0.9,0.8,0.9c0.5,0,0.7-0.3,0.8-0.6C172.4,186.2,173.8,184.4,173.4,182.4z M96.5,113.8c3.9,9.2,12.7,11.9,19.8,10.5
	c5.8-1.2,11.6-7.3,12.2-11.5C117.9,119.4,107.3,119.4,96.5,113.8z M145.6,153.3L145.6,153.3c-1.7,0-3.2,0-4.8,0
	c-1.7,0.1-3.2,0-4.8,0.1c-0.5,0.1-0.7,0-0.7,0.6c0.1,1.9-0.1,3.8,0.1,5.8c0.2,2-0.5,4.1,0.1,6c0.1,0.3,0,0.6,0.5,0.5
	c1.4-0.1,2.8-0.4,4.2-0.5c0.4,0,0.6-0.1,0.5-0.5c-0.5-1.7-0.1-3.3-0.1-4.9c0-2.3,1.1-3.2,3.2-3.3c0.8,0,1.7,0,2.6,0
	c2.5,0.1,3.7,1.7,3.5,4.2c-0.1,1.2-0.1,2.3-0.1,3.3c0,0.4-0.1,0.9,0.5,1c0.9,0.1,1.9,0.3,2.8,0c0.6-0.1,1.3-0.8,1.2-1.7
	c-0.4-3.3,0-6.6,0-10c0-0.9-0.1-1-0.9-0.9C150.7,153.3,148.2,153.3,145.6,153.3z M134.4,149.3c6.8-0.3,13.3,0,19.9-0.1
	c-0.7-1.4-1.7-2.2-2.5-3.1c-2.4-2.7-4.6-5.4-7-8.1c-0.4-0.4-0.6-0.9-1.3-0.3C140.6,141.4,137.6,145.2,134.4,149.3z M146,164.2
	c0-0.8-0.1-1.4-0.1-2c0-0.4,0-0.9-0.5-0.9c-0.5,0-0.9,0.1-0.9,0.9c0,0.8,0,1.5-0.1,2.3c-0.1,1.2,0.5,1.5,1.4,1.2
	C146.5,165.3,145.8,164.6,146,164.2z M96.1,153.8c0.6,1.5,1.3,3.2,1.9,4.7C98.7,156.3,97.6,154.9,96.1,153.8z"/>
<path class="st0" d="M212.2,93.6c-6.5,0-13-0.1-19.5,0c-5.3,0.1-10.5,0.1-15.8,0.1c-2.7,0-5.4,0-8.1,0c-1.7,0-2.4-0.8-2.5-2.6
	c-0.1-2.2,0.1-4.3,0.6-6.5c0.8-3.5,0.8-6.8,0-10.2c-0.8-3.5-0.6-6.9-0.6-10.4c0-6.9,0-13.9,0.1-20.8c0-1.5-0.1-3.1-0.1-4.6
	c0-2.9,0.8-3.8,3.5-3.7c3.7,0.1,7.4,0.1,11.1,0.1c0.7,0,1.2-0.4,1.5-0.9c3.8-4.3,7.7-8.6,11.2-13.2c1.7-2,4.6-2.3,6.3-0.3
	c3.5,4.3,7.2,8.3,10.9,12.5c0.8,0.9,1.7,1.5,2.9,1.4c3.2-0.1,6.3,0.3,9.4,0c0.8-0.1,1.7,0.1,2.4,0.3c0.8,0.3,1.3,0.8,1.5,1.8
	c0.4,2,0.1,4.2,0.1,6.3c0,2.4,0.1,4.7,0.1,7.2c0,3.6-0.2,7.3-0.1,10.9c0.1,3.2,0.1,6.4,0,9.5c-0.1,6.5,0,13-0.1,19.6
	c0,2.3-1.1,3.2-3.2,3.1c-4-0.1-7.9,0-11.9,0C212.2,93.7,212.2,93.7,212.2,93.6z M170.9,74c0,1.4,0,2.8,0,4.3c0,1.2,0.4,1.7,1.5,1.3
	c2-0.5,3.9-1.3,5.9-1.9c3.1-0.9,6-2.6,8.5-4.5c4.8-3.7,9-8.4,12.9-13.4c1.7-2,3.1-4.3,5.1-6.1c1.2-1,2.2-2.2,3.8-2.6
	c2.9-0.8,5.1,1,7,3.1c2,2.2,3.8,4.7,5.9,6.8c0.4,0.3,0.6,0.8,1.1,0.6c0.5-0.3,0.1-0.9,0.1-1.3c0-2-0.2-4.2-0.1-6.3
	c0.2-4.1,0-8.2,0.2-12.1c0-0.9-0.1-1.2-0.9-1.2c-3.3,0-6.6,0-9.9-0.1c-5.7-0.1-11.2,0-16.9,0c-2,0-3.9-0.1-5.9,0
	c-2.6,0-5.2,0.3-7.8,0.1c-3.2-0.3-6.3,0-9.4-0.1c-0.8,0-1.1,0.3-1.1,1.2c0.1,2.8,0,5.6,0,8.4C170.9,57.9,171,66,170.9,74z
	 M211.7,75.2c-2.1,4-7,3.3-8.7,0.8c-0.7-1-1.2-1-2-0.1c-1.8,1.9-5.5,2.9-7.8,1c-1.9-1.8-3.1-0.5-4.5,0.5c-0.4,0.3-0.6,0.6-1.1,0.8
	c-5.1,2.9-10.1,5.5-16,5.6c-0.6,0-0.8,0.1-0.7,0.8c0.1,0.9,0.1,1.8,0,2.7c-0.1,0.9,0.1,1.3,1.2,1.3c4.7-0.1,9.4,0,14.2,0
	c4.8,0,9.7,0.1,14.5,0.1c6.7,0,13.6,0,20.3,0c1.3,0,1.7-0.4,1.7-1.8c0-2.2-0.2-4.5,0-6.8c0.2-2.3,0.1-2.4-2.2-2.3
	c-0.4,0-0.7,0-0.9,0C216.7,77.8,213.8,77.6,211.7,75.2z M218.9,73.9c0.8,0,1.4,0,2,0c1.9-0.3,2-0.4,1.9-2.3c-0.1-1-0.2-2,0.1-3.1
	c0.2-0.6-0.1-1.2-0.6-1.4c-3.5-2.8-6.5-6.4-9.3-10c-1.7-2-3.5-2.3-5.3-0.1c-0.8,1-1.8,1.9-2.5,2.9c-3.1,4.3-6.4,8.6-10.3,12.1
	c-0.8,0.8,0.1,1.3,0.5,1.4c1.4,0.3,2.8,0.1,3.9-1c0.8-0.9,1.7-1.8,2.6-2.6c1.1-1,2-0.8,2.6,0.6c0.2,0.6,0.5,1.3,0.8,1.9
	c0.4,0.8,0.9,1.5,1.9,1.4c0.9-0.1,1.9-0.4,2.2-1.7c0.2-0.6,0.5-1.4,0.7-1.9c0.6-1.2,1.5-1.3,2.5-0.4c0.4,0.4,0.7,0.8,0.9,1.2
	C214.8,73.1,216.7,74.1,218.9,73.9z M188,35.1c6.1-0.3,12,0.1,18.2,0.3c-0.9-1-1.5-1.7-2.1-2.4c-2.1-2.4-4.1-4.7-6.3-7.2
	c-0.4-0.4-0.6-1-1.2-0.4C193.9,28.6,191.1,31.8,188,35.1z"/>
<path class="st0" d="M197.6,125c-1.5,0.3-2.9-0.3-4.4-0.5c-0.8-0.1-1.8-0.5-1.9-1.5c-0.1-1.3-0.1-2.4,0.9-3.3c1.4-1.2,2.8-2.4,4-3.8
	c2-2.7,4-5.4,5.7-8.3c1.2-2.2,2.4-4.2,4.2-5.8c1.1-0.9,2.1-0.9,3.2,0.1c1.5,1.5,2.2,3.6,3.3,5.2c2.8,4.5,6.3,8.6,10,12.3
	c0.8,0.8,1.7,1.5,1.3,2.8c-0.2,1.4-1.3,1.9-2.5,2.2c-1.2,0.4-2.5,0.5-4.2,0.1c1.9,2.4,3.2,4.7,5.1,6.5c1.5,1.5,3.1,2.9,4.5,4.5
	c1.7,1.7,1.1,3.8-1.2,4.5c-0.9,0.3-2,0.5-3.2,0.8c2.4,3.2,4.6,6.4,7.5,8.8c2.4,1.9,1.9,3.3,0.7,4.5c-0.7,0.8-1.8,1-2.8,1.3
	c-5.1,1.2-10.3,1-15.5,0.9c-1.1,0-1.7,0.1-1.5,1.5c0.1,0.6-0.1,1.2-0.1,1.8c-0.1,1.5,0.5,2,1.9,1.8c1.2-0.3,2.2-0.3,3.4-0.3
	c0.9,0,1.1,0.5,1.1,1.4c-0.1,3.8-0.6,7.7-1.1,11.6c-0.1,1.4-0.9,2.2-2.2,2.2c-3.5,0-7.2,0-10.7,0c-1.2,0-2.1-0.5-2.4-2.2
	c-0.6-3.6-0.6-7.2-1.3-10.6c-0.2-1.3,1.1-2.6,2.5-2.4c1.1,0,2.1,0,3.3,0.1c0.7,0,1.1-0.1,0.8-1c-0.2-1-0.2-2.2-0.4-3.2
	c0-0.6-0.5-0.6-0.9-0.6c-2.6,0-5.1,0-7.7,0.1c-0.9,0-1.4-0.3-1.7-1.2c-0.9-4-2.5-7.5-4.2-11.1c-0.7-1.3-0.5-2,0.6-2.8
	c0.2-0.1,0.4-0.3,0.6-0.5c-0.2-0.6-0.7-0.5-1.1-0.5c-0.7,0-1.3-0.1-1.9-0.3c-1.3-0.4-1.8-1.5-2.1-2.7s0.5-1.8,1.3-2.3
	c3.3-2.6,6.1-5.6,8.6-9.2C197.4,125.8,197.7,125.5,197.6,125z M208.4,165.7L208.4,165.7c-1.2,0-2.2,0.1-3.4,0
	c-0.7,0-0.9,0.1-0.8,0.9c0.1,1.4,0.2,2.8,0.4,4.2c0,1,0.5,1.3,1.3,1.3c1.9,0,3.9-0.1,5.8,0c0.7,0,0.8-0.4,0.9-1
	c0.2-1.5-0.1-3.2,0.4-4.7c0.2-0.8-0.4-0.8-0.8-0.8C210.9,165.5,209.6,165.7,208.4,165.7z M211.9,128.2c0-1.8-1.1-3.1-2.7-3.1
	c-1.8-0.1-3.2,1.3-3.2,3.2c0,1.5,1.2,3.1,2.7,2.9C210.5,131.3,211.8,130.5,211.9,128.2z M215.2,138.8c-1.7,0-2.8,1.2-2.9,2.8
	c-0.1,1.9,1.2,3.3,2.9,3.3c1.3,0,2.7-1.4,2.8-2.7C218.1,140.1,217,138.8,215.2,138.8z M205,144.6c0.1-1.9-1.2-3.5-3.1-3.6
	c-1.2-0.1-2.4,1.3-2.6,2.9c-0.1,1.4,1.4,3.3,2.8,3.3C203.6,147.4,204.9,146.1,205,144.6z"/>
<path class="st0" d="M18.4,117.3c1.8-1.7,4-0.8,6-1c1.3-0.1,2.6,0,3.9,0.1c1.2,0.1,1.5-0.4,1.4-1.5c-0.1-0.5,0-1.2,0-1.7
	c0-2.2,0-2.2-2-2.3c-2.4-0.1-4.8-0.3-7.1-1c-5.4-1.9-9.7-6.3-9.6-13.3c0.1-2.9,1.3-5.5,3.4-7.3c0.8-0.6,0.7-1.3,0.5-2.2
	c-1.3-3.2-1.7-6.4-0.2-9.7c1.4-3.5,3.9-5.6,7.1-6.8c0.8-0.3,1.2-0.6,1.1-1.5c-0.7-5.8,4.7-11.4,10-11.9C39,56.7,42.5,63,42,67.6
	c-0.1,1.2-0.1,1.9,1.3,2.3c6.1,1.7,8.1,8.7,6,14.6c0,0.1-0.1,0.3-0.2,0.4c-0.8,2-0.9,2,0.7,3.3c3.3,2.6,3.9,7.2,2.9,11
	c-1.9,7.3-8.5,10.9-14,11.4c-1.3,0.1-2.5,0.3-3.8,0.3c-0.8,0-0.8,0.4-0.8,1c0,0.6,0.1,1.3,0.1,1.9c0,2.4,0,2.3,2.1,2.3
	c2.5-0.1,5.1-0.1,7.5-0.1c2.1,0,2.8,1,2.6,3.3c-0.5,4.9-0.9,9.7-1.3,14.4c-0.1,1,0.1,1.9-0.4,2.9c-0.7,1.4-1.5,2.4-3.3,2.4
	c-11.3-0.1-22.6,0-34,0c-1.7,0-2.4-0.6-2.5-2.2c-0.1-1.3,0.8-2.4,2.2-2.8c4.1,0,8.3,0,12.4,0c-0.1-1.7-0.4-3.2-0.5-4.7
	c-0.2-2.2-0.5-4.5-1.1-6.6l0,0c0.2-1.5-0.4-3.1,0.1-4.5c0,0,0,0-0.1-0.1c0,0,0,0,0.1,0.1c0.1-0.1,0.2-0.4,0.2-0.5l0.1-0.1
	C18.2,117.6,18.4,117.5,18.4,117.3z M33.9,98.5c0.5-0.4,0.7-0.5,0.9-0.6c1.2-0.8,2-2,3.5-2.4c0.8-0.3,1.5-0.1,1.9,0.8
	c0.4,0.8,0.5,1.5-0.2,2.2c-1.8,1.7-3.2,3.8-5.7,4.7c-1.1,0.4-0.5,1.5-0.5,2.3c-0.1,0.8,0.5,0.6,0.9,0.8c2.4,0.3,4.5-0.5,6.6-1.2
	c4.2-1.2,7-5.2,6.5-10c-0.2-2-1.1-3.7-3.1-4.5c-2.1-0.8-2.6-2.6-1.4-4.6c0.6-1.2,1.2-2.3,1.5-3.6c1.3-4.6-0.9-7.9-5.3-8.1
	c-1.9,0-3.1-1.8-2.7-3.8c0.4-1.4,0.4-2.8,0.2-4.2c-0.4-2.7-3.3-5.6-6.4-4.1c-2.8,1.5-4.5,4.1-4.4,7.4c0.2,3.1,0,3.5-2.6,4.5
	c-1.7,0.6-3.3,1.3-4.5,2.7c-2.6,3.2-1.9,6.6-0.4,10c0.9,2,0.7,3.2-0.9,4.5c-1.2,0.9-2.2,1.9-2.6,3.5c-1.1,3.8,0.5,7.5,3.7,9.5
	c2.8,1.7,5.8,2,8.8,2c1.4,0,1.9-0.6,1.4-2.2c-0.1-0.5-0.5-0.9-0.9-1.3c-1.4-1.4-3.2-2.3-4.7-3.7c-0.9-0.9-1.1-2.2-0.2-3.1
	c0.8-1,1.8-0.6,2.5,0c0.8,0.6,1.7,1.3,2.6,1.8c0.2,0.1,0.5,0.4,0.7,0c0.2-0.3,0-3.3-0.4-3.7c-1.8-1.4-2.9-3.3-4.4-5
	c-0.8-0.9-1.3-1.8-0.5-2.9c0.6-0.9,1.8-0.9,2.9-0.1c0.9,0.6,1.4,1.7,2.6,2.3c0-1.5,0-2.8,0-4.1c0-1.2,0-2.4,0.7-3.3
	c0.4-0.5,0.8-1.2,1.5-0.9s1.4,0.5,1.5,1.4c0.1,0.6,0.2,1.4,0.2,2.2c0,1.7,0,3.3,0,5.1c1.1-0.5,1.5-1.4,2.1-2c0.8-1,1.7-2,2.8-1
	c1.2,0.9,0.4,2.2,0,3.2c-0.7,2.4-2.7,3.6-4.2,5.2c-0.4,0.4-0.7,0.6-0.6,1.3C33.9,96.1,33.9,97.3,33.9,98.5z M30.9,120.9
	c-3.2,0.1-5.4,0.3-7.7,0.4c-0.8,0-1.1,0.3-0.9,1.2c0.4,3.3,0.8,6.8,1.1,10.1c0.1,1.3,0.6,1.8,1.8,1.7c2.6-0.1,5.1,0,7.7-0.3
	c2.2-0.1,4.5,0,6.6,0c0.8,0,1.4-0.1,1.4-1.4c0.2-3.6,0.7-7.3,1.1-10.9c0.1-0.9-0.4-0.8-0.8-0.8C37.4,120.9,33.6,121,30.9,120.9z"/>
<path class="st0" d="M70.9,189c0.1-3.2,2.5-7.4,5.8-7.9c2.2-0.4,3.5-1.9,5.2-3.1c2.8-2.2,7.3-2.7,9.9,0c0.1,0.1,0.4,0.1,0.4,0.3
	c0.7,2.6,2.8,2.3,4.5,2.7c3.3,0.9,5.2,5.2,3.8,8.4c-0.6,1.2-0.9,2.3-0.4,3.7c0.6,1.3,0.1,2.7-0.5,4c-0.9,1.9-1.9,4-4.2,4
	s-5,0-7.1-1.3c-0.9-0.5-1.5-0.8-2.2,0.5c-0.5,1-1.2,1.8-2.2,2.3c-0.7,0.4-1.5,0.5-2-0.4c-0.5-0.8-0.7-1.5-0.2-2.4
	c0.1-0.1,0.1-0.3,0.2-0.4c0.4-0.5,1.1-1,0.6-1.7c-0.5-0.6-1.2-0.1-1.8,0c-2,0.3-4.2,0.8-5.9-0.4C72,195.6,70.6,193,70.9,189z
	 M84.5,193.1c0.5-1.2,0.8-2.2,1.3-3.2c0.5-1,1.3-1.5,2.4-1.2c0.9,0.4,1.2,1.4,0.9,2.4c-0.2,0.8-0.5,1.5-0.8,2.3
	c-0.2,0.5-0.7,1.5-0.1,1.8c1.5,0.6,2.8,1.8,4.6,1.9c1.7,0.1,3.7-1.9,3.1-3.1c-1.2-2-0.2-3.3,0.7-4.9c1.2-2,0.6-3.5-1.4-4.3
	c-0.7-0.3-1.4-0.3-2.1-0.3c-2.2,0.1-2.6,0-3.4-2.3c-0.5-1.3-1.3-1.8-2.5-1.9c-2.2-0.1-3.9,1-5.3,2.6c-1.1,1.3-2.4,1.8-3.8,2
	c-1.4,0.3-2.6,0.9-3.2,2.4c-0.6,1.9-0.5,3.8,0.9,5.4c1.3,1.4,2.7,1.4,4.4,0.8c-0.5-0.6-0.8-1-1.2-1.7c-0.4-0.6-0.6-1.4,0-2.2
	c0.5-0.8,1.2-0.5,1.8-0.3C82.4,190.3,83.5,191.6,84.5,193.1z"/>
<path class="st1" d="M17.8,122.7c0.6,2.2,0.8,4.3,1.1,6.6c0.2,1.5,0.4,3.1,0.5,4.7c-4.1,0-8.3,0-12.4,0c2.5-0.4,5-0.9,7.5-0.4
	c1.4,0.3,2.7-0.4,4,0c0.4,0.1,0.4-0.4,0.4-0.6c-0.4-2.4-0.6-5-0.9-7.4C17.7,124.6,17.8,123.7,17.8,122.7z"/>
<path class="st1" d="M32.6,115.3c-0.4,1.2,0.1,2.4-0.1,3.5C32.3,117.7,31.3,116.5,32.6,115.3z"/>
<path class="st1" d="M32.8,115c-0.1,0.1-0.2,0.3-0.2,0.4C32.5,115.1,32.5,114.9,32.8,115z"/>
<path class="st1" d="M33,114.6c0,0.1-0.1,0.2-0.1,0.3C32.8,114.7,32.9,114.6,33,114.6z"/>
<path class="st2" d="M146,164.2c-0.2,0.4,0.4,1-0.4,1.4c-0.9,0.4-1.4,0-1.4-1.2c0-0.8,0.1-1.5,0.1-2.3s0.5-0.9,0.9-0.9
	c0.6,0,0.5,0.4,0.5,0.9C145.9,162.8,146,163.5,146,164.2z"/>
<path class="st2" d="M96.1,153.8c1.5,1.2,2.6,2.6,1.9,4.7C97.4,157,96.7,155.4,96.1,153.8z"/>
<path class="st0" d="M124.8,80.9c-2.1-0.3-3.7-0.6-5-1.5c-0.4-0.3-0.6-0.5-0.8-0.8c-0.4-0.6-0.6-1.4-0.1-2c0.6-0.6,1.3-0.5,1.9-0.3
	c0.9,0.5,1.9,0.9,2.9,1c2,0.3,3.9,0,5.3-1.8c0.2-0.4,0.6-0.6,1.1-0.8c0.9-0.3,1.7,0.3,1.5,1.3c0,1.5-0.9,2.4-2,3.2
	C128.1,80.5,126.2,81,124.8,80.9z"/>
<path class="st0" d="M112,99.6c-2.1-0.3-3.7-0.6-5-1.5c-0.4-0.3-0.6-0.5-0.8-0.8c-0.4-0.6-0.6-1.4-0.1-2c0.6-0.6,1.3-0.5,1.9-0.3
	c0.9,0.5,1.9,0.9,2.9,1c2,0.3,3.9,0,5.3-1.8c0.2-0.4,0.6-0.6,1.1-0.8c0.9-0.3,1.7,0.3,1.5,1.3c0,1.5-0.9,2.4-2,3.2
	C115.3,99.2,113.4,99.7,112,99.6z"/>
<path class="st0" d="M97.9,81.2c-2.2-0.3-3.7-0.5-5.1-1.5c-0.4-0.3-0.6-0.5-0.8-0.8c-0.4-0.6-0.6-1.4-0.1-2c0.6-0.6,1.3-0.5,1.9-0.3
	c0.9,0.5,1.9,0.9,2.9,1c2,0.3,3.9,0,5.3-1.8c0.2-0.4,0.6-0.6,1.1-0.8c0.9-0.3,1.7,0.3,1.5,1.3c0,1.5-0.9,2.4-2,3.2
	C101.1,80.8,99.2,81.2,97.9,81.2z"/>
<path class="st0" d="M151.9,197.6c-3.4-0.6-6.8-0.3-10.3,0.1c-4.2,0.5-8.5,0.5-12.7,1.4c-1.2,0.3-2.2,0.8-3.5,0.9
	c-1.3,0.1-2.2-0.1-3.1-1.4c-0.7-1.3-0.6-2.4,0-3.6c0.8-1.7,2-3.1,3.5-4.1c0.7-0.4,0.8-0.9,0.2-1.5c-0.5-0.6-0.9-1.3-1.3-2.2
	c-0.7-1.9-0.4-3.3,1.2-4.6c1.3-1.2,2.8-2.7,4.5-2.2c2,0.5,3.1-0.1,4.7-1.4c2.8-2.3,6.6-0.9,8.1,2.4c0.4,0.8,0.5,0.5,1.1,0.4
	c1.4-0.3,2.9-0.8,4.2,0.4c1.9,1.5,2.4,2.8,1.7,5.2c-0.2,0.8-0.2,1,0.6,1.5c1.8,0.8,3.2,2,4.2,3.8c0.6,1,1.1,2,0.4,3.2
	c-0.6,1.2-1.5,1.5-2.6,1.3C152.5,197.5,152.1,197.6,151.9,197.6z"/>
<path class="st0" d="M192.1,59.2c0.1,4.2-3.4,7.2-5.9,7.2c-3.5,0.1-5.9-2.4-6.1-6.5c-0.2-3.7,2.5-6.5,6.3-6.6
	C189.5,53,192,55.6,192.1,59.2z M189.2,59.3c0-1.7-0.9-2.7-2.7-2.8c-1.5-0.1-3.1,1.8-3.1,3.6c0,1.7,1.2,3.1,2.6,3.1
	C187.5,63,189.1,61.2,189.2,59.3z"/>
<path class="st0" d="M192.1,52.1c0-1.4,2.7-3.7,3.9-3.3c0.7,0.3,1.1,0.6,0.7,1.5c-0.5,1.5-1.5,2.6-2.8,3.2
	C193.1,53.9,192.1,53.2,192.1,52.1z"/>
<path class="st0" d="M187.6,48.6c0,0.4,0,0.8,0,1.3c0.1,0.9-0.4,1.5-1.2,1.5c-0.9,0-1.8-0.4-1.8-1.5c0-1,0.1-2,0.2-3.1
	c0.1-0.9,0.6-1.3,1.4-1.3s1.1,0.8,1.2,1.4C187.8,47.4,187.8,48.1,187.6,48.6C187.8,48.6,187.6,48.6,187.6,48.6z"/>
<path class="st0" d="M181.2,52.7c0,1-1.2,1.7-2,1.2c-0.8-0.6-1.5-1.3-2.2-2c-0.7-0.6-0.5-1.5,0-2.2c0.5-0.6,1.1-0.5,1.7,0
	c0.8,0.6,1.8,1.2,2.4,2.2C180.9,52,181.2,52.3,181.2,52.7z"/>
<path class="st0" d="M175.3,61.9c-0.7,0.1-1.4-0.3-1.5-1.4c-0.1-0.8,1.7-1.8,3.2-1.9c0.9,0,1.3,0.6,1.4,1.5c0.1,1.5-1.1,1.3-1.8,1.5
	C176.2,61.9,175.8,61.9,175.3,61.9z"/>
<rect x="110.9" class="st3" width="16.3" height="10.6"/>
<rect x="110.9" y="218.8" class="st3" width="16.3" height="10.6"/>
<rect x="221.9" y="108.2" class="st3" width="16.3" height="10.6"/>
<rect y="108.2" class="st3" width="16.3" height="10.6"/>
</svg>
