<?xml version="1.0" encoding="utf-8"?>
<!-- Generator: Adobe Illustrator 24.1.2, SVG Export Plug-In . SVG Version: 6.00 Build 0)  -->
<svg version="1.1" id="Layer_1" xmlns="http://www.w3.org/2000/svg" xmlns:xlink="http://www.w3.org/1999/xlink" x="0px" y="0px"
	 viewBox="0 0 238.2 229.8" style="enable-background:new 0 0 238.2 229.8;" xml:space="preserve">
<style type="text/css">
	.st0{fill:#163C54;}
	.st1{fill:#FCECD3;}
	.st2{fill:#FBECD3;}
</style>
<path class="st0" d="M92,166.4c-0.7,0.6-1.5,0.9-2.5,1c-0.8,0.1-1.6,0.5-2,1.1c-0.7,1-1.7,1.2-2.6,1.5c-0.7,0.2-1.2,0.4-1.5,1
	c-1.2,2.4-3.4,2.8-5.7,2.6c-0.9-0.1-1.6-0.6-2.2-1.3c-1-1.1-2.5-0.9-3.1,0.4c-2.8,5.3-5.3,10.8-7.5,16.4c-0.7,1.9-1.3,3.8-2.2,5.6
	c-0.5,1-0.4,1.2,0.8,1c2.4-0.3,4.9-0.8,7.3-0.9c4.9-0.2,9.8-0.2,14.7,0.4c4,0.4,8,1.1,12,1.8c3.9,0.7,7.5,2,11.2,3.4
	c0.2,0.1,0.4,0.2,0.6,0.1c0.3-3.3,0.5-6.7,0.8-10c0.3-4.2,0.7-8.5,1.1-12.7c0.1-1.7,0.3-3.5,0.4-5.2c0.1-0.7-0.1-1.1-0.8-1.4
	c-2.1-0.8-4.2-1.7-6.4-2.1c-0.5-0.1-0.9-0.3-0.9-0.8c-0.1-0.6-0.4-1.2-0.6-1.8c-0.3-1.4-0.3-1.4,1.2-1.1c3.3,0.7,6.4,1.8,9.4,3.1
	c0.4,0.2,0.9,0.2,1.3,0c3.7-1.4,7.6-2.3,11.4-2.9c0.6-0.1,0.9-0.3,0.8-1c-0.3-2.5,0-5,0-7.5c0-0.5,0-1,0-1.6c0-0.6-0.3-0.8-0.8-1
	c-2.2-0.6-2.8-2.4-1.3-4c3.6-3.7,6.7-8,10.7-11.3c1.2-1,2.6-1.5,3.9-0.2c2.1,2.1,4.3,4.3,6.4,6.4c0.2,0.2,0.4,0.7,0.8,0.6
	c0.5-0.2,0.1-0.6,0.2-0.9c0-1.9-0.1-3.8,0.3-5.7c0.2-1.1,1-1.4,1.9-1.4c0.9,0.1,1.5,0.7,1.5,1.7c0,0.8,0,1.5-0.2,2.2
	c-0.5,2.3,0.1,4.6-0.2,6.9c-0.1,0.8,0.5,1.4,1.1,1.9c0.5,0.6,1,1.2,0.7,2c-0.4,0.9-0.9,1.6-2,1.6c-0.5,0-0.7,0.1-0.7,0.7
	c0.1,2,0.2,4,0,6.2c2.4-1.8,4.8-3.2,7.5-4c0.5-0.1,0.4-0.5,0.5-0.7c0.5-1.2,0.8-2.5,1.4-3.7c0.6-1.5,2.1-2.1,3.4-1.5
	c0.6,0.2,0.9,1.4,0.5,2.2c-0.4,0.8-0.8,1.6-1.3,2.4c-0.5,0.8-0.2,1,0.6,1c0.9,0,1.8-0.2,2.8,0.2c1.3,0.6,1.9,1.4,1.6,2.4
	c-0.3,1.1-1.3,1.5-2.6,1.2c-3.5-0.8-6.6-0.1-9.7,1.7c2.1,0.3,3.8,1.3,5.5,2.3c3.3,1.9,5.4,4.8,6.3,8.5c0.5,1.9,0.5,3.8,0.5,5.7
	c0,0.6,0.1,0.8,0.7,0.6c5.1-1.7,8.6-5,10.2-10.3c0.9-3,0.6-6,0-9c-0.8-4-2.6-7.6-4.7-11.1c-2.4-4.1-5.4-7.8-8.5-11.4
	c-4.7-5.5-10.2-10.1-16.4-13.9c-0.9-0.6-1.8-1.1-2.8-1.6c-0.4-0.2-0.6-0.6-0.6-1s0.5-0.2,0.8-0.4c1.5-0.7,2.8-0.6,4.4,0.2
	c4,2.2,7.8,4.7,11.1,7.8c5.9,5.4,11,11.4,15.3,18.1c1.8,2.8,3.4,5.8,4.3,9c1.8,5.7,2.4,11.4-0.1,17.1c-1.4,3.2-3.6,5.6-6.4,7.5
	c-2.4,1.6-5.1,2.7-8,3c-0.5,0.1-0.8,0.3-1,0.7c-0.6,0.9-1.3,1.8-2.3,2.4c-0.6,0.4-0.3,0.8-0.1,1.1c1.2,2.9,1.7,6,3.3,8.8
	c0.5,1,0.4,1.8-0.5,2.5c-0.7,0.5-0.4,1.1,0,1.5c0.7,0.6,0.7,1.3,0.3,2c-0.4,0.8-1.1,1-1.9,0.9c-3-0.6-5.9-1.1-8.9-1.4
	c-4.1-0.5-8.2-0.7-12.3-0.7c-2.9,0-5.8,0-8.7,0.2c-2.8,0.2-5.6,0.2-8.4,0.6c-3.3,0.4-6.6,0.8-9.8,1.8c-1.2,0.4-2.5,0.4-3.7,1.3
	c-0.5,0.4-1.2-0.1-1.8-0.3c-3.1-1.1-6.3-1.5-9.5-2c-5-0.8-10-1.1-15-1.4c-3.9-0.2-7.8-0.1-11.7,0.3c-3.7,0.3-7.5,0.7-11.2,1.3
	c-0.7,0.1-1.4,0.3-2.1,0.4c-0.9,0.2-1.8,0.1-2.3-0.9c-0.4-0.9-0.7-1.8,0.5-2.5c0.3-0.2,0.6-0.5,0.1-1c-0.9-0.9-1-2-0.4-3.1
	c1.1-2.3,1.8-4.8,2.7-7.1c1.3-3.3,2.7-6.6,4.3-9.9c-3.5,0.7-6.9,0.5-10.2-0.7c-4-1.5-7-4.1-8.9-7.9c-2.3-4.7-1.9-9.4-0.3-14.2
	c1.7-4.9,4.6-9,7.8-13.1c3.4-4.4,7.4-8.3,11.5-12.1c2.2-2,4.4-4.2,6.9-5.8c2.6-1.7,5-3.8,7.9-5c0.4-0.1,0.4-0.2,0.2-0.6
	c-0.5-0.6-0.8-1.3-1.3-2.1c-2.1,2-4.4,2.2-6.9,0.8c-1.3-0.8-2.1-2-2.5-3.4c-0.5-1.7-0.5-3.5-0.2-5.3c0.3-1.6-0.2-3.1-1.4-4.2
	c-3.4-3.2-4-7.2-3.6-11.6c0.3-2.8,1.3-5.4,3-7.6c2.2-2.9,4.5-5.7,6.4-8.7c1.5-2.3,2.6-4.8,3.4-7.5c1.3-4.6,3.6-8.7,7.1-12.1
	c1.2-1.2,2.4-2.4,3.6-3.6c2.1-1.9,4.6-3.2,7.2-4.4c4.4-1.9,9-2.7,13.8-2.7c4.1,0,8.3,0.1,12.1,1.7c3,1.2,5.8,2.5,9.1,2.8
	c1.8,0.2,3.5,1.2,5.1,2.3c0.8,0.5,1.2,1.4,1.9,1.9c1.8,1.3,3.3,2.8,4.5,4.6c1.4,2,2.1,4.3,3,6.6c1,2.7,1.4,5.5,2.1,8.3
	c0.7,3.3,2.6,6.2,4.5,9c2,3,4.1,6,4.9,9.6c0.9,4.3,0,8.1-2.7,11.5c-0.4,0.5-0.9,1-1.3,1.5c-0.7,0.9-1.2,1.9-1.2,3.2
	c0,2.4-0.2,4.9-1.6,7c-1.3,2-4.6,3.2-6.8,2.4c-0.6-0.2-1.2-0.5-1.4-1c-0.4-0.9-0.8-0.6-1.3-0.1c-2.4,2.3-5.2,2.4-8.2,1.5
	c-0.6-0.2-1.3-0.4-1.9-0.6c-0.8-0.2-1.3,0.3-1.1,1.1c0.6,2.1-0.2,4-1.2,5.7c-2.2,3.9-5.2,7.1-9.5,8.8c-2.7,1.1-5.6,1.3-8.5,1.1
	c-3.9-0.4-7.4-1.7-10.4-4.3c-2.5-2.1-4.1-4.8-4.9-7.9c-0.1-0.3-0.2-0.8-0.1-1c0.8-1.2,0-1.7-0.8-2.2c-0.4-0.3-0.9-0.7-1.2-1.2
	c-0.7-1.2-1.5-1-2.6-0.4c-5,2.7-9.9,5.5-14.5,8.9c-3.1,2.2-6.2,4.4-8.8,7.2c-2.6,2.8-5.4,5.4-7.8,8.3c-1.6,1.9-3,3.9-4.4,6
	c-1.4,2-2.5,4.1-3.6,6.3c-1.9,4.2-2.8,8.5-0.8,12.9c1.5,3.3,4.2,5.2,7.5,6.4s6.6,0.8,9.9-0.2c1-0.3,1.2-1.1,1.4-1.9
	c0.2-0.8-0.1-1.4-0.8-1.8c-1.6-0.8-2.5-2.1-3.1-3.8c-0.8-2.1-0.8-4.1-0.1-6.2c0.7-2.2,1.7-4.3,3.4-5.9c0.4-0.4,0.2-0.5-0.3-0.6
	c-2.9-0.5-5.8-0.4-8.3,1.3c-0.7,0.5-1.4,0.5-2.1-0.1c-0.6-0.6-0.7-1.5-0.1-2.2c1-1.3,2.3-2.2,4.1-2c1.1,0.1,2.1-0.6,3.2-0.8
	c2.1-0.2,4.1,0,6,0.6c0.5,0.2,0.8,0.1,1.1-0.2c2.3-1.9,4.6-3.8,7.5-4.9c0.6-0.2,1.7-0.1,1.7-0.9c0.1-0.6-0.6-1.2-0.9-1.8
	c-1-2.1-2.4-4-3.5-6.1c-1-1.8-0.9-2.7,0.8-4c0.7-0.5,1.3-1.1,2.1-1.3c1.1-0.3,1.9,0,2.5,0.8c2.1,2.7,3.9,5.7,5.4,8.8
	c0.9,1.7,2,3.4,3,5c0.2,0.4,0.5,0.7,1,0.8c1.7,0.7,3.1,1.9,4.1,3.4c0.3,0.4,0.4,0.7,1.1,0.7c3.1-0.1,5.9,2.5,6,5.6
	c0.1,1.7-0.1,3.3-1.7,4.4c-0.5,0.3-0.4,0.7-0.2,1.2c1.2,3.1,1.9,6.3,2.9,9.4c0.2,0.6,0.1,1.2,0.2,1.8c0.1,0.7,0.1,1.3-0.6,1.7
	s-1.4,0.3-2-0.2c-1.1-0.9-2.2-1.9-3.3-2.9C95.1,170.7,93.3,168.8,92,166.4z M104.9,68.9c-0.5,0.7-0.8,1.2-1.2,1.6
	c-0.4,0.5-0.8,0.9-1.1,1.4c-4.2,6.4-10.2,10.6-17,13.8c-0.9,0.4-1.8,0.8-2,2c-0.2,0.9-0.8,1.2-1.7,0.5c-0.7-0.6-1.5-0.9-2.3-1.2
	c-1.1-0.4-2-0.1-2.7,0.9c-0.9,1.3-1.2,2.7-1.1,4.3c0.3,3.1,1.8,5.4,4.4,7.1c1.2,0.8,1.5,0.7,2.2-0.6c0.5-0.9,1.1-1,2-0.7
	c0.8,0.3,1.2,0.8,1.4,1.6c0.3,1.7,0.5,3.6,1.1,5.2c0.7,1.8,1.4,3.6,2.4,5.3c2.6,4.5,5.8,8.3,10.6,10.6c3.3,1.6,6.9,2.3,10.5,2.3
	c5-0.1,9.6-1.5,13.6-4.6c3.5-2.7,5.9-6.1,7.8-9.9c1.2-2.4,2-5,2.4-7.7c0.4-2.5,1.8-3,4.1-2c0.3,0.1,0.6,0.3,1.1,0.1
	c3.8-1.9,5.7-5,5.6-9.3c-0.1-2.8-1.6-4-4.3-3.3c-0.8,0.2-1.6,0.6-2.3,0.9c-0.6,0.2-1.2,0.3-1.3-0.6c-0.2-1.9-1.1-3.1-3.1-3.4
	c-0.1,0-0.2-0.1-0.3-0.1c-3.4-1.9-6.3-4.5-8.8-7.4c-2.3-2.6-3.5-5.8-4.7-9c-0.3-0.9-0.2-2-1.1-2.9c-0.3,1.1-0.8,1.9-1.2,2.8
	c-2.4,5.7-6.6,9.7-11.9,12.6c-1.4,0.7-2.9,1.1-4.5,1.1c-1.2,0-2-1.1-1.5-2.2c0.7-1.8,1.9-3.2,3.1-4.6
	C103.9,72.1,104.7,70.8,104.9,68.9z M113,200.7c2.2-1.2,4.5-2,6.7-2.6c3.5-0.9,7.1-1.9,10.7-2.4c4-0.6,8-0.9,12-1.1
	c4.3-0.2,8.6,0.5,13,0.5c1.3,0,2.6,0.2,3.9,0.5c0.3,0.1,0.7,0.4,1,0.1c0.3-0.3,0.1-0.7-0.1-1.1c-1.7-4.6-3.4-9.1-5.3-13.5
	c-0.8-1.8-1.5-3.7-2.2-5.5c-0.4-1-0.9-1.2-1.8-0.7c-0.4,0.3-0.9,0.6-1.3,0.8c-1.5,0.7-3,1.6-4.7,2c-3.2,0.7-5.8-1.9-5.3-5.3
	c0.2-1.4,0.5-2.8,1.4-4.2c-2.3,0.2-4.4,0.2-6.5,0.5c-3.1,0.3-6.2,0.6-9.2,1.1c-2.8,0.5-5.7,1.2-8.5,1.8c-0.7,0.2-1.3,0.3-1.4,1.3
	s-0.3,2-0.4,3.1c-0.3,4-0.6,7.9-0.9,11.9c-0.1,0.7-0.3,1.4-0.3,2.1c0.1,1.9-0.1,3.7-0.4,5.5C113.1,197.1,113.1,198.8,113,200.7z
	 M83.8,167.5c0.5-0.4,0.8-0.7,1.2-0.9c0.5-0.3,0.7-0.8,0.4-1.3c-1-1.8-1.6-3.8-3.3-5.2c-1-0.8-1-1.7-0.3-2.4
	c0.6-0.6,1.9-0.7,2.6,0.1c1.5,1.8,3.2,3.5,3.9,6c0.1,0.3,0,0.9,0.5,0.8c0.4,0,0.8-0.2,1.1-0.7c0.3-0.5,0.4-1.1,0.1-1.5
	c-0.8-1.5-1.1-3.2-2.2-4.5c-0.7-0.9-1.4-1.7-2.1-2.6c-0.8-1.1-0.7-2.1,0-2.7c0.9-0.7,2-0.5,2.8,0.6c0.9,1.3,1.7,2.6,2.6,3.9
	c0.9,1.3,1.4,2.8,2.1,4.3c0.4,0.9,1.1,0.9,1.9,0.8c0.5-0.1,0.7-0.5,0.7-1s-0.1-1-0.3-1.5c-1.5-3.6-3.3-7.1-6.7-9.3
	c-2-1.4-4.2-2.3-6.8-1.7c-1.6,0.4-2.9,1.2-4.2,2c-3.6,2.3-6.9,4.8-9,8.6c-0.9,1.6-1.8,3.3-1.5,5.3c0.2,2,1.9,3.2,3.9,2.6
	c0.9-0.3,1.7-0.5,2.5-1c1.5-0.8,2.5-0.5,3.3,1.1c0.3,0.6,0.8,1.2,1.1,1.9c0.5,0.9,1.1,1.5,2.2,1c0.7-0.3,1-1.5,0.6-2.4
	c-0.6-1.5-1.8-2.7-2.9-3.9c-0.7-0.8-0.7-1.9-0.1-2.5c0.8-0.7,1.9-0.8,2.6,0C81.5,163.2,83.2,165,83.8,167.5z M162.3,177.4
	c0-2.1-0.1-4-1-5.5c-2-3.6-5.3-5.5-9.3-6.1c-2.7-0.4-4.5,1.2-6.4,2.6c-1.3,1-2.3,2.3-2.5,4c-0.2,1.6,0.5,2.1,2,1.6
	c1.1-0.4,2.2-1,3.1-1.7c1-0.8,2.1-1.2,3.3-1.6c1.2-0.3,2.8,0,3.5,1.4c0.7,1.5,1.4,2.9,2.1,4.4c0.8,1.8,1.6,3.6,2.5,5.4
	c0.1,0.3,0.2,0.7,0.7,0.7c0.4,0,0.6-0.2,0.7-0.5C161.5,180.4,162.7,179,162.3,177.4z M97.1,123.7c3.3,7.2,10.8,9.3,16.8,8.2
	c4.9-0.9,9.8-5.7,10.3-9C115.3,128.1,106.3,128.1,97.1,123.7z M138.8,154.6L138.8,154.6c-1.4,0-2.7,0-4.1,0c-1.4,0.1-2.7,0-4.1,0.1
	c-0.4,0.1-0.6,0-0.6,0.5c0.1,1.5-0.1,3,0.1,4.5c0.2,1.6-0.4,3.2,0.1,4.7c0.1,0.2,0,0.5,0.4,0.4c1.2-0.1,2.4-0.3,3.6-0.4
	c0.3,0,0.5-0.1,0.4-0.4c-0.4-1.3-0.1-2.6-0.1-3.8c0-1.8,0.9-2.5,2.7-2.6c0.7,0,1.4,0,2.2,0c2.1,0.1,3.1,1.3,3,3.3
	c-0.1,0.9-0.1,1.8-0.1,2.6c0,0.3-0.1,0.7,0.4,0.8c0.8,0.1,1.6,0.2,2.4,0c0.5-0.1,1.1-0.6,1-1.3c-0.3-2.6,0-5.2,0-7.8
	c0-0.7-0.1-0.8-0.8-0.7C143.1,154.6,141,154.6,138.8,154.6z M129.3,151.5c5.8-0.2,11.3,0,16.9-0.1c-0.6-1.1-1.4-1.7-2.1-2.4
	c-2-2.1-3.9-4.2-5.9-6.3c-0.3-0.3-0.5-0.7-1.1-0.2C134.5,145.3,132,148.3,129.3,151.5z M139.1,163.2c0-0.6-0.1-1.1-0.1-1.6
	c0-0.3,0-0.7-0.4-0.7s-0.8,0.1-0.8,0.7c0,0.6,0,1.2-0.1,1.8c-0.1,0.9,0.4,1.2,1.2,0.9C139.5,164,138.9,163.5,139.1,163.2z M96.8,155
	c0.5,1.2,1.1,2.5,1.6,3.7C99,157,98.1,155.9,96.8,155z"/>
<path class="st0" d="M195.2,107.9c-5.5,0-11-0.1-16.5,0c-4.5,0.1-8.9,0.1-13.4,0.1c-2.3,0-4.6,0-6.9,0c-1.4,0-2-0.6-2.1-2
	c-0.1-1.7,0.1-3.4,0.5-5.1c0.7-2.7,0.7-5.3,0-8c-0.7-2.7-0.5-5.4-0.5-8.1c0-5.4,0-10.9,0.1-16.3c0-1.2-0.1-2.4-0.1-3.6
	c0-2.3,0.7-3,3-2.9c3.1,0.1,6.3,0.1,9.4,0.1c0.6,0,1-0.3,1.3-0.7c3.2-3.4,6.5-6.7,9.5-10.3c1.4-1.6,3.9-1.8,5.3-0.2
	c3,3.4,6.1,6.5,9.2,9.8c0.7,0.7,1.4,1.2,2.5,1.1c2.7-0.1,5.3,0.2,8,0c0.7-0.1,1.4,0.1,2,0.2c0.7,0.2,1.1,0.6,1.3,1.4
	c0.3,1.6,0.1,3.3,0.1,4.9c0,1.9,0.1,3.7,0.1,5.6c0,2.8-0.2,5.7-0.1,8.5c0.1,2.5,0.1,5,0,7.4c-0.1,5.1,0,10.2-0.1,15.3
	c0,1.8-0.9,2.5-2.7,2.4c-3.4-0.1-6.7,0-10.1,0C195.2,108,195.2,108,195.2,107.9z M160.2,92.6c0,1.1,0,2.2,0,3.4c0,0.9,0.3,1.3,1.3,1
	c1.7-0.4,3.3-1,5-1.5c2.6-0.7,5.1-2,7.2-3.5c4.1-2.9,7.6-6.6,10.9-10.5c1.4-1.6,2.6-3.4,4.3-4.8c1-0.8,1.9-1.7,3.2-2
	c2.5-0.6,4.3,0.8,5.9,2.4c1.7,1.7,3.2,3.7,5,5.3c0.3,0.2,0.5,0.6,0.9,0.5c0.4-0.2,0.1-0.7,0.1-1c0-1.6-0.2-3.3-0.1-4.9
	c0.2-3.2,0-6.4,0.2-9.5c0-0.7-0.1-0.9-0.8-0.9c-2.8,0-5.6,0-8.4-0.1c-4.8-0.1-9.5,0-14.3,0c-1.7,0-3.3-0.1-5,0
	c-2.2,0-4.4,0.2-6.6,0.1c-2.7-0.2-5.3,0-8-0.1c-0.7,0-0.9,0.2-0.9,0.9c0.1,2.2,0,4.4,0,6.6C160.2,80,160.3,86.3,160.2,92.6z
	 M194.8,93.5c-1.8,3.1-5.9,2.6-7.4,0.6c-0.6-0.8-1-0.8-1.7-0.1c-1.5,1.5-4.7,2.3-6.6,0.8c-1.6-1.4-2.6-0.4-3.8,0.4
	c-0.3,0.2-0.5,0.5-0.9,0.6c-4.3,2.3-8.6,4.3-13.6,4.4c-0.5,0-0.7,0.1-0.6,0.6c0.1,0.7,0.1,1.4,0,2.1s0.1,1,1,1c4-0.1,8,0,12,0
	c4.1,0,8.2,0.1,12.3,0.1c5.7,0,11.5,0,17.2,0c1.1,0,1.4-0.3,1.4-1.4c0-1.7-0.2-3.5,0-5.3s0.1-1.9-1.9-1.8c-0.3,0-0.6,0-0.8,0
	C199,95.6,196.6,95.4,194.8,93.5z M200.9,92.5c0.7,0,1.2,0,1.7,0c1.6-0.2,1.7-0.3,1.6-1.8c-0.1-0.8-0.2-1.6,0.1-2.4
	c0.2-0.5-0.1-0.9-0.5-1.1c-3-2.2-5.5-5-7.9-7.8c-1.4-1.6-3-1.8-4.5-0.1c-0.7,0.8-1.5,1.5-2.1,2.3c-2.6,3.4-5.4,6.7-8.7,9.5
	c-0.7,0.6,0.1,1,0.4,1.1c1.2,0.2,2.4,0.1,3.3-0.8c0.7-0.7,1.4-1.4,2.2-2c0.9-0.8,1.7-0.6,2.2,0.5c0.2,0.5,0.4,1,0.7,1.5
	c0.3,0.6,0.8,1.2,1.6,1.1c0.8-0.1,1.6-0.3,1.9-1.3c0.2-0.5,0.4-1.1,0.6-1.5c0.5-0.9,1.3-1,2.1-0.3c0.3,0.3,0.6,0.6,0.8,0.9
	C197.4,91.9,199,92.7,200.9,92.5z M174.7,62.2c5.2-0.2,10.2,0.1,15.4,0.2c-0.8-0.8-1.3-1.3-1.8-1.9c-1.8-1.9-3.5-3.7-5.3-5.6
	c-0.3-0.3-0.5-0.8-1-0.3C179.7,57.1,177.3,59.6,174.7,62.2z"/>
<path class="st0" d="M182.8,132.5c-1.3,0.2-2.5-0.2-3.7-0.4c-0.7-0.1-1.5-0.4-1.6-1.2c-0.1-1-0.1-1.9,0.8-2.6c1.2-0.9,2.4-1.9,3.4-3
	c1.7-2.1,3.4-4.2,4.8-6.5c1-1.7,2-3.3,3.6-4.5c0.9-0.7,1.8-0.7,2.7,0.1c1.3,1.2,1.9,2.8,2.8,4.1c2.4,3.5,5.3,6.7,8.5,9.6
	c0.7,0.6,1.4,1.2,1.1,2.2c-0.2,1.1-1.1,1.5-2.1,1.7c-1,0.3-2.1,0.4-3.6,0.1c1.6,1.9,2.7,3.7,4.3,5.1c1.3,1.2,2.6,2.3,3.8,3.5
	c1.4,1.3,0.9,3-1,3.5c-0.8,0.2-1.7,0.4-2.7,0.6c2,2.5,3.9,5,6.4,6.9c2,1.5,1.6,2.6,0.6,3.5c-0.6,0.6-1.5,0.8-2.4,1
	c-4.3,0.9-8.7,0.8-13.1,0.7c-0.9,0-1.4,0.1-1.3,1.2c0.1,0.5-0.1,0.9-0.1,1.4c-0.1,1.2,0.4,1.6,1.6,1.4c1-0.2,1.9-0.2,2.9-0.2
	c0.8,0,0.9,0.4,0.9,1.1c-0.1,3-0.5,6-0.9,9.1c-0.1,1.1-0.8,1.7-1.9,1.7c-3,0-6.1,0-9.1,0c-1,0-1.8-0.4-2-1.7
	c-0.5-2.8-0.5-5.6-1.1-8.3c-0.2-1,0.9-2,2.1-1.9c0.9,0,1.8,0,2.8,0.1c0.6,0,0.9-0.1,0.7-0.8c-0.2-0.8-0.2-1.7-0.3-2.5
	c0-0.5-0.4-0.5-0.8-0.5c-2.2,0-4.3,0-6.5,0.1c-0.8,0-1.2-0.2-1.4-0.9c-0.8-3.1-2.1-5.9-3.6-8.7c-0.6-1-0.4-1.6,0.5-2.2
	c0.2-0.1,0.3-0.2,0.5-0.4c-0.2-0.5-0.6-0.4-0.9-0.4c-0.6,0-1.1-0.1-1.6-0.2c-1.1-0.3-1.5-1.2-1.8-2.1c-0.3-0.9,0.4-1.4,1.1-1.8
	c2.8-2,5.2-4.4,7.3-7.2C182.7,133.1,182.9,132.9,182.8,132.5z M192,164.3L192,164.3c-1,0-1.9,0.1-2.9,0c-0.6,0-0.8,0.1-0.7,0.7
	c0.1,1.1,0.2,2.2,0.3,3.3c0,0.8,0.4,1,1.1,1c1.6,0,3.3-0.1,4.9,0c0.6,0,0.7-0.3,0.8-0.8c0.2-1.2-0.1-2.5,0.3-3.7
	c0.2-0.6-0.3-0.6-0.7-0.6C194.1,164.2,193,164.3,192,164.3z M195,135c0-1.4-0.9-2.4-2.3-2.4c-1.5-0.1-2.7,1-2.7,2.5
	c0,1.2,1,2.4,2.3,2.3C193.8,137.4,194.9,136.8,195,135z M197.8,143.3c-1.4,0-2.4,0.9-2.5,2.2c-0.1,1.5,1,2.6,2.5,2.6
	c1.1,0,2.3-1.1,2.4-2.1C200.2,144.3,199.3,143.3,197.8,143.3z M189.1,147.8c0.1-1.5-1-2.7-2.6-2.8c-1-0.1-2,1-2.2,2.3
	c-0.1,1.1,1.2,2.6,2.4,2.6C187.9,150,189,149,189.1,147.8z"/>
<path class="st0" d="M30.9,126.5c1.5-1.3,3.4-0.6,5.1-0.8c1.1-0.1,2.2,0,3.3,0.1c1,0.1,1.3-0.3,1.2-1.2c-0.1-0.4,0-0.9,0-1.3
	c0-1.7,0-1.7-1.7-1.8c-2-0.1-4.1-0.2-6-0.8c-4.6-1.5-8.2-4.9-8.1-10.4c0.1-2.3,1.1-4.3,2.9-5.7c0.7-0.5,0.6-1,0.4-1.7
	c-1.1-2.5-1.4-5-0.2-7.6c1.2-2.7,3.3-4.4,6-5.3c0.7-0.2,1-0.5,0.9-1.2c-0.6-4.5,4-8.9,8.5-9.3c5.2-0.4,8.2,4.5,7.7,8.1
	c-0.1,0.9-0.1,1.5,1.1,1.8c5.2,1.3,6.9,6.8,5.1,11.4c0,0.1-0.1,0.2-0.2,0.3c-0.7,1.6-0.8,1.6,0.6,2.6c2.8,2,3.3,5.6,2.5,8.6
	c-1.6,5.7-7.2,8.5-11.9,8.9c-1.1,0.1-2.1,0.2-3.2,0.2c-0.7,0-0.7,0.3-0.7,0.8s0.1,1,0.1,1.5c0,1.9,0,1.8,1.8,1.8
	c2.1-0.1,4.3-0.1,6.4-0.1c1.8,0,2.4,0.8,2.2,2.6c-0.4,3.8-0.8,7.6-1.1,11.3c-0.1,0.8,0.1,1.5-0.3,2.3c-0.6,1.1-1.3,1.9-2.8,1.9
	c-9.6-0.1-19.2,0-28.8,0c-1.4,0-2-0.5-2.1-1.7c-0.1-1,0.7-1.9,1.9-2.2c3.5,0,7,0,10.5,0c-0.1-1.3-0.3-2.5-0.4-3.7
	c-0.2-1.7-0.4-3.5-0.9-5.2l0,0c0.2-1.2-0.3-2.4,0.1-3.5c0,0,0,0-0.1-0.1c0,0,0,0,0.1,0.1c0.1-0.1,0.2-0.3,0.2-0.4l0.1-0.1
	C30.8,126.7,30.9,126.6,30.9,126.5z M44.1,111.8c0.4-0.3,0.6-0.4,0.8-0.5c1-0.6,1.7-1.6,3-1.9c0.7-0.2,1.3-0.1,1.6,0.6
	c0.3,0.6,0.4,1.2-0.2,1.7c-1.5,1.3-2.7,3-4.8,3.7c-0.9,0.3-0.4,1.2-0.4,1.8c-0.1,0.6,0.4,0.5,0.8,0.6c2,0.2,3.8-0.4,5.6-0.9
	c3.6-0.9,5.9-4.1,5.5-7.8c-0.2-1.6-0.9-2.9-2.6-3.5c-1.8-0.6-2.2-2-1.2-3.6c0.5-0.9,1-1.8,1.3-2.8c1.1-3.6-0.8-6.2-4.5-6.3
	c-1.6,0-2.6-1.4-2.3-3c0.3-1.1,0.3-2.2,0.2-3.3c-0.3-2.1-2.8-4.4-5.4-3.2c-2.4,1.2-3.8,3.2-3.7,5.8c0.2,2.4,0,2.7-2.2,3.5
	c-1.4,0.5-2.8,1-3.8,2.1c-2.2,2.5-1.6,5.2-0.3,7.8c0.8,1.6,0.6,2.5-0.8,3.5c-1,0.7-1.9,1.5-2.2,2.7c-0.9,3,0.4,5.9,3.1,7.4
	c2.4,1.3,4.9,1.6,7.5,1.6c1.2,0,1.6-0.5,1.2-1.7c-0.1-0.4-0.4-0.7-0.8-1c-1.2-1.1-2.7-1.8-4-2.9c-0.8-0.7-0.9-1.7-0.2-2.4
	c0.7-0.8,1.5-0.5,2.1,0c0.7,0.5,1.4,1,2.2,1.4c0.2,0.1,0.4,0.3,0.6,0c0.2-0.2,0-2.6-0.3-2.9c-1.5-1.1-2.5-2.6-3.7-3.9
	c-0.7-0.7-1.1-1.4-0.4-2.3c0.5-0.7,1.5-0.7,2.5-0.1c0.8,0.5,1.2,1.3,2.2,1.8c0-1.2,0-2.2,0-3.2c0-0.9,0-1.9,0.6-2.6
	c0.3-0.4,0.7-0.9,1.3-0.7c0.6,0.2,1.2,0.4,1.3,1.1c0.1,0.5,0.2,1.1,0.2,1.7c0,1.3,0,2.6,0,4c0.9-0.4,1.3-1.1,1.8-1.6
	c0.7-0.8,1.4-1.6,2.4-0.8c1,0.7,0.3,1.7,0,2.5c-0.6,1.9-2.3,2.8-3.6,4.1c-0.3,0.3-0.6,0.5-0.5,1C44.1,109.9,44.1,110.8,44.1,111.8z
	 M41.5,129.3c-2.7,0.1-4.6,0.2-6.5,0.3c-0.7,0-0.9,0.2-0.8,0.9c0.3,2.6,0.7,5.3,0.9,7.9c0.1,1,0.5,1.4,1.5,1.3
	c2.2-0.1,4.3,0,6.5-0.2c1.9-0.1,3.8,0,5.6,0c0.7,0,1.2-0.1,1.2-1.1c0.2-2.8,0.6-5.7,0.9-8.5c0.1-0.7-0.3-0.6-0.7-0.6
	C47,129.3,43.8,129.4,41.5,129.3z"/>
<path class="st0" d="M75.4,182.6c0.1-2.5,2.1-5.8,4.9-6.2c1.9-0.3,3-1.5,4.4-2.4c2.4-1.7,6.2-2.1,8.4,0c0.1,0.1,0.3,0.1,0.3,0.2
	c0.6,2,2.4,1.8,3.8,2.1c2.8,0.7,4.4,4.1,3.2,6.6c-0.5,0.9-0.8,1.8-0.3,2.9c0.5,1,0.1,2.1-0.4,3.1c-0.8,1.5-1.6,3.1-3.6,3.1
	s-4.2,0-6-1c-0.8-0.4-1.3-0.6-1.9,0.4c-0.4,0.8-1,1.4-1.9,1.8c-0.6,0.3-1.3,0.4-1.7-0.3c-0.4-0.6-0.6-1.2-0.2-1.9
	c0.1-0.1,0.1-0.2,0.2-0.3c0.3-0.4,0.9-0.8,0.5-1.3s-1-0.1-1.5,0c-1.7,0.2-3.6,0.6-5-0.3C76.4,187.7,75.2,185.7,75.4,182.6z
	 M87,185.8c0.4-0.9,0.7-1.7,1.1-2.5s1.1-1.2,2-0.9c0.8,0.3,1,1.1,0.8,1.9c-0.2,0.6-0.4,1.2-0.7,1.8c-0.2,0.4-0.6,1.2-0.1,1.4
	c1.3,0.5,2.4,1.4,3.9,1.5c1.4,0.1,3.1-1.5,2.6-2.4c-1-1.6-0.2-2.6,0.6-3.8c1-1.6,0.5-2.7-1.2-3.4c-0.6-0.2-1.2-0.2-1.8-0.2
	c-1.9,0.1-2.2,0-2.9-1.8c-0.4-1-1.1-1.4-2.1-1.5c-1.9-0.1-3.3,0.8-4.5,2c-0.9,1-2,1.4-3.2,1.6c-1.2,0.2-2.2,0.7-2.7,1.9
	c-0.5,1.5-0.4,3,0.8,4.2c1.1,1.1,2.3,1.1,3.7,0.6c-0.4-0.5-0.7-0.8-1-1.3s-0.5-1.1,0-1.7c0.4-0.6,1-0.4,1.5-0.2
	C85.2,183.6,86.1,184.6,87,185.8z"/>
<path class="st1" d="M30.4,130.7c0.5,1.7,0.7,3.4,0.9,5.2c0.2,1.2,0.3,2.4,0.4,3.7c-3.5,0-7,0-10.5,0c2.1-0.3,4.2-0.7,6.4-0.3
	c1.2,0.2,2.3-0.3,3.4,0c0.3,0.1,0.3-0.3,0.3-0.5c-0.3-1.9-0.5-3.9-0.8-5.8C30.3,132.2,30.4,131.5,30.4,130.7z"/>
<path class="st1" d="M30.5,127.2c-0.4,1.2,0.1,2.4-0.1,3.5C30.2,129.6,29.2,128.4,30.5,127.2z"/>
<path class="st1" d="M30.7,126.9c-0.1,0.1-0.2,0.3-0.2,0.4C30.4,127,30.4,126.8,30.7,126.9z"/>
<path class="st1" d="M30.9,126.5c0,0.1-0.1,0.2-0.1,0.3C30.7,126.6,30.8,126.5,30.9,126.5z"/>
<path class="st2" d="M139.1,163.2c-0.2,0.3,0.3,0.8-0.3,1.1c-0.8,0.3-1.2,0-1.2-0.9c0-0.6,0.1-1.2,0.1-1.8s0.4-0.7,0.8-0.7
	c0.5,0,0.4,0.3,0.4,0.7C139,162.1,139.1,162.6,139.1,163.2z"/>
<path class="st2" d="M96.8,155c1.3,0.9,2.2,2,1.6,3.7C97.9,157.5,97.3,156.3,96.8,155z"/>
<path class="st0" d="M121.1,98c-1.8-0.2-3.1-0.5-4.2-1.2c-0.3-0.2-0.5-0.4-0.7-0.6c-0.3-0.5-0.5-1.1-0.1-1.6
	c0.5-0.5,1.1-0.4,1.6-0.2c0.8,0.4,1.6,0.7,2.5,0.8c1.7,0.2,3.3,0,4.5-1.4c0.2-0.3,0.5-0.5,0.9-0.6c0.8-0.2,1.4,0.2,1.3,1
	c0,1.2-0.8,1.9-1.7,2.5C123.9,97.7,122.3,98.1,121.1,98z"/>
<path class="st0" d="M110.3,112.6c-1.8-0.2-3.1-0.5-4.2-1.2c-0.3-0.2-0.5-0.4-0.7-0.6c-0.3-0.5-0.5-1.1-0.1-1.6
	c0.5-0.5,1.1-0.4,1.6-0.2c0.8,0.4,1.6,0.7,2.5,0.8c1.7,0.2,3.3,0,4.5-1.4c0.2-0.3,0.5-0.5,0.9-0.6c0.8-0.2,1.4,0.2,1.3,1
	c0,1.2-0.8,1.9-1.7,2.5C113.1,112.3,111.5,112.7,110.3,112.6z"/>
<path class="st0" d="M98.3,98.2C96.4,98,95.2,97.8,94,97c-0.3-0.2-0.5-0.4-0.7-0.6c-0.3-0.5-0.5-1.1-0.1-1.6
	c0.5-0.5,1.1-0.4,1.6-0.2c0.8,0.4,1.6,0.7,2.5,0.8c1.7,0.2,3.3,0,4.5-1.4c0.2-0.3,0.5-0.5,0.9-0.6c0.8-0.2,1.4,0.2,1.3,1
	c0,1.2-0.8,1.9-1.7,2.5C101,97.9,99.4,98.2,98.3,98.2z"/>
<path class="st0" d="M144.1,189.3c-2.9-0.5-5.8-0.2-8.7,0.1c-3.6,0.4-7.2,0.4-10.8,1.1c-1,0.2-1.9,0.6-3,0.7
	c-1.1,0.1-1.9-0.1-2.6-1.1c-0.6-1-0.5-1.9,0-2.8c0.7-1.3,1.7-2.4,3-3.2c0.6-0.3,0.7-0.7,0.2-1.2c-0.4-0.5-0.8-1-1.1-1.7
	c-0.6-1.5-0.3-2.6,1-3.6c1.1-0.9,2.4-2.1,3.8-1.7c1.7,0.4,2.6-0.1,4-1.1c2.4-1.8,5.6-0.7,6.9,1.9c0.3,0.6,0.4,0.4,0.9,0.3
	c1.2-0.2,2.5-0.6,3.6,0.3c1.6,1.2,2,2.2,1.4,4.1c-0.2,0.6-0.2,0.8,0.5,1.2c1.5,0.6,2.7,1.6,3.6,3c0.5,0.8,0.9,1.6,0.3,2.5
	c-0.5,0.9-1.3,1.2-2.2,1C144.6,189.2,144.3,189.3,144.1,189.3z"/>
<path class="st0" d="M178.2,81c0.1,3.3-2.9,5.6-5,5.6c-3,0.1-5-1.9-5.2-5.1c-0.2-2.9,2.1-5.1,5.3-5.2C176,76.2,178.1,78.2,178.2,81z
	 M175.7,81.1c0-1.3-0.8-2.1-2.3-2.2c-1.3-0.1-2.6,1.4-2.6,2.8c0,1.3,1,2.4,2.2,2.4C174.3,84,175.6,82.6,175.7,81.1z"/>
<path class="st0" d="M178.2,75.5c0-1.1,2.3-2.9,3.3-2.6c0.6,0.2,0.9,0.5,0.6,1.2c-0.4,1.2-1.3,2-2.4,2.5
	C179,76.9,178.2,76.3,178.2,75.5z"/>
<path class="st0" d="M174.4,72.7c0,0.3,0,0.6,0,1c0.1,0.7-0.3,1.2-1,1.2c-0.8,0-1.5-0.3-1.5-1.2c0-0.8,0.1-1.6,0.2-2.4
	c0.1-0.7,0.5-1,1.2-1s0.9,0.6,1,1.1C174.5,71.8,174.5,72.3,174.4,72.7C174.5,72.7,174.4,72.7,174.4,72.7z"/>
<path class="st0" d="M168.9,75.9c0,0.8-1,1.3-1.7,0.9c-0.7-0.5-1.3-1-1.9-1.6c-0.6-0.5-0.4-1.2,0-1.7s0.9-0.4,1.4,0
	c0.7,0.5,1.5,0.9,2,1.7C168.7,75.4,168.9,75.6,168.9,75.9z"/>
<path class="st0" d="M163.9,83.1c-0.6,0.1-1.2-0.2-1.3-1.1c-0.1-0.6,1.4-1.4,2.7-1.5c0.8,0,1.1,0.5,1.2,1.2c0.1,1.2-0.9,1-1.5,1.2
	C164.7,83.1,164.4,83.1,163.9,83.1z"/>
</svg>
