<?xml version="1.0" encoding="utf-8"?>
<!-- Generator: Adobe Illustrator 24.1.2, SVG Export Plug-In . SVG Version: 6.00 Build 0)  -->
<svg version="1.1" id="Layer_1" xmlns="http://www.w3.org/2000/svg" xmlns:xlink="http://www.w3.org/1999/xlink" x="0px" y="0px"
	 viewBox="0 0 238.2 229.8" enable-background="new 0 0 238.2 229.8" xml:space="preserve">
<rect fill="#FFFFFF" width="238.2" height="230"/>
<g>
	<path fill="#163C54" d="M92.2,169.3c-0.7,0.7-1.6,1-2.5,1.1c-0.8,0.1-1.6,0.5-2.1,1.2c-0.7,1.1-1.7,1.2-2.7,1.6
		c-0.7,0.2-1.2,0.4-1.6,1.1c-1.2,2.6-3.5,3-5.8,2.7c-1-0.1-1.6-0.7-2.3-1.4c-1-1.2-2.5-1-3.2,0.4c-2.9,5.6-5.5,11.4-7.6,17.4
		c-0.7,2-1.3,4-2.3,6c-0.5,1.1-0.4,1.2,0.8,1.1c2.4-0.3,5-0.8,7.5-1c5-0.2,10.1-0.2,15,0.4c4.1,0.4,8.2,1.2,12.3,1.9
		c4,0.7,7.6,2.1,11.5,3.6c0.2,0.1,0.4,0.2,0.6,0.1c0.3-3.5,0.5-7.1,0.8-10.6c0.3-4.5,0.7-9,1.1-13.4c0.1-1.8,0.3-3.7,0.4-5.5
		c0.1-0.7-0.1-1.2-0.8-1.5c-2.2-0.8-4.3-1.8-6.5-2.2c-0.5-0.1-1-0.3-1-0.8c-0.1-0.7-0.4-1.2-0.6-1.9c-0.3-1.5-0.3-1.5,1.2-1.2
		c3.4,0.7,6.5,1.9,9.6,3.3c0.4,0.2,1,0.2,1.3,0c3.8-1.5,7.8-2.4,11.6-3.1c0.6-0.1,1-0.3,0.8-1.1c-0.3-2.6,0-5.3,0-7.9
		c0-0.5,0-1.1,0-1.7c0-0.7-0.3-0.8-0.8-1.1c-2.3-0.7-2.9-2.6-1.3-4.2c3.6-3.9,6.9-8.4,10.9-11.9c1.2-1.1,2.7-1.6,4-0.2
		c2.2,2.2,4.4,4.5,6.5,6.8c0.2,0.2,0.4,0.7,0.8,0.7c0.5-0.2,0.1-0.7,0.2-1c0-2-0.1-4,0.3-6c0.2-1.2,1-1.5,1.9-1.5
		c1,0.1,1.6,0.7,1.6,1.8c0,0.8,0,1.6-0.2,2.3c-0.5,2.4,0.1,4.9-0.2,7.3c-0.1,0.8,0.5,1.5,1.1,2c0.5,0.7,1,1.2,0.7,2.1
		c-0.4,1-1,1.7-2.1,1.7c-0.5,0-0.7,0.1-0.7,0.7c0.1,2.1,0.2,4.2,0,6.5c2.4-1.9,4.9-3.4,7.6-4.2c0.5-0.1,0.4-0.5,0.5-0.7
		c0.5-1.2,0.8-2.6,1.5-3.9c0.6-1.6,2.2-2.2,3.5-1.6c0.6,0.2,1,1.5,0.5,2.3c-0.4,0.8-0.8,1.7-1.3,2.6s-0.2,1.1,0.6,1.1
		c1,0,1.8-0.2,2.9,0.2c1.3,0.7,1.9,1.5,1.6,2.6c-0.3,1.2-1.3,1.6-2.7,1.2c-3.6-0.8-6.8-0.1-9.9,1.8c2.2,0.3,3.9,1.4,5.6,2.4
		c3.4,2,5.6,5,6.4,9c0.5,2,0.5,4,0.5,6c0,0.7,0.1,0.8,0.7,0.7c5.2-1.8,8.8-5.3,10.4-10.9c1-3.1,0.6-6.4,0-9.5
		c-0.8-4.2-2.7-8-4.8-11.7c-2.4-4.3-5.6-8.3-8.7-12.1c-4.8-5.8-10.4-10.7-16.7-14.7c-1-0.7-1.8-1.2-2.9-1.7
		c-0.4-0.2-0.6-0.7-0.6-1.1s0.5-0.2,0.8-0.4c1.6-0.7,2.9-0.7,4.5,0.2c4.1,2.3,8,5,11.4,8.3c6.1,5.7,11.3,12.1,15.6,19.1
		c1.8,3,3.5,6.1,4.4,9.5c1.8,6,2.4,12.1-0.1,18.1c-1.5,3.4-3.6,6-6.5,7.9c-2.4,1.7-5.2,2.9-8.2,3.1c-0.5,0.1-0.8,0.3-1,0.7
		c-0.6,1-1.3,1.9-2.3,2.6c-0.6,0.4-0.3,0.8-0.1,1.2c1.2,3.1,1.7,6.4,3.4,9.3c0.5,1.1,0.4,1.9-0.5,2.6c-0.7,0.5-0.4,1.2,0,1.6
		c0.7,0.7,0.7,1.4,0.3,2.1c-0.4,0.8-1.1,1.1-1.9,1c-3-0.7-6.1-1.2-9.1-1.5c-4.2-0.5-8.4-0.7-12.6-0.7c-2.9,0-5.9,0-8.9,0.2
		c-2.9,0.2-5.7,0.2-8.6,0.7c-3.4,0.4-6.8,0.8-10.1,1.9c-1.2,0.4-2.5,0.4-3.8,1.4c-0.5,0.4-1.2-0.1-1.8-0.3c-3.2-1.2-6.4-1.6-9.7-2.1
		c-5.1-0.8-10.2-1.2-15.4-1.5c-4-0.2-8-0.1-12,0.3c-3.8,0.3-7.6,0.7-11.5,1.4c-0.7,0.1-1.5,0.3-2.2,0.4c-1,0.2-1.8,0.1-2.3-1
		c-0.4-1-0.7-1.9,0.5-2.6c0.3-0.2,0.6-0.5,0.1-1.1c-1-1-1-2.1-0.4-3.3c1.1-2.4,1.8-5,2.8-7.5c1.3-3.5,2.8-6.9,4.4-10.5
		c-3.6,0.7-7,0.5-10.4-0.7c-4.1-1.6-7.2-4.3-9.1-8.3c-2.3-5-1.9-9.9-0.3-15c1.7-5.2,4.7-9.5,8-13.8c3.5-4.6,7.5-8.8,11.8-12.8
		c2.3-2.1,4.5-4.5,7-6.1c2.7-1.8,5.1-4,8.1-5.3c0.4-0.1,0.4-0.2,0.2-0.7c-0.5-0.7-0.8-1.4-1.3-2.2c-2.2,2.1-4.5,2.3-7,0.8
		c-1.3-0.8-2.2-2.1-2.5-3.6c-0.5-1.8-0.5-3.7-0.2-5.6c0.3-1.7-0.2-3.3-1.5-4.5c-3.5-3.4-4.1-7.6-3.6-12.2c0.3-3,1.3-5.7,3-8
		c2.3-3.1,4.6-6,6.5-9.2c1.6-2.4,2.7-5,3.5-7.9c1.3-4.9,3.6-9.2,7.3-12.8c1.2-1.2,2.4-2.6,3.6-3.8c2.2-2,4.7-3.4,7.4-4.6
		c4.5-2,9.2-2.9,14.1-2.9c4.2,0,8.5,0.1,12.4,1.8c3,1.2,5.9,2.6,9.3,3c1.8,0.2,3.6,1.2,5.2,2.4c0.8,0.5,1.2,1.5,1.9,2
		c1.8,1.4,3.4,3,4.6,4.9c1.5,2.1,2.2,4.5,3,6.9c1,2.9,1.5,5.8,2.2,8.8c0.7,3.5,2.7,6.5,4.6,9.5c2.1,3.1,4.2,6.4,5,10.2
		c1,4.5,0,8.6-2.8,12.1c-0.4,0.5-1,1.1-1.3,1.6c-0.7,1-1.2,2-1.2,3.4c0,2.6-0.2,5.2-1.6,7.4c-1.3,2.1-4.7,3.4-6.9,2.6
		c-0.6-0.2-1.2-0.5-1.5-1.1c-0.4-1-0.8-0.7-1.3-0.1c-2.4,2.4-5.3,2.6-8.4,1.6c-0.6-0.2-1.3-0.4-1.9-0.7c-0.8-0.2-1.3,0.3-1.1,1.2
		c0.6,2.2-0.2,4.2-1.2,6c-2.3,4.1-5.3,7.5-9.7,9.3c-2.8,1.2-5.7,1.4-8.7,1.2c-4-0.4-7.5-1.8-10.7-4.5c-2.5-2.2-4.2-5-5-8.3
		c-0.1-0.3-0.2-0.8-0.1-1.1c0.8-1.2,0-1.8-0.8-2.3c-0.4-0.3-1-0.7-1.2-1.2c-0.7-1.2-1.6-1.1-2.7-0.4c-5.1,2.9-10.2,5.8-14.8,9.4
		c-3.2,2.3-6.3,4.6-9,7.6c-2.7,3-5.6,5.7-8,8.8c-1.6,2-3,4.1-4.5,6.4c-1.5,2.1-2.5,4.3-3.6,6.7c-1.9,4.5-2.9,9-0.8,13.6
		c1.6,3.5,4.3,5.5,7.6,6.8c3.3,1.3,6.8,0.8,10.2-0.2c1-0.3,1.2-1.2,1.5-2c0.2-0.8-0.1-1.5-0.8-1.9c-1.6-0.8-2.5-2.2-3.2-4
		c-0.8-2.2-0.8-4.3-0.1-6.5c0.7-2.3,1.7-4.5,3.5-6.2c0.4-0.4,0.2-0.5-0.3-0.7c-2.9-0.5-5.9-0.4-8.5,1.4c-0.7,0.5-1.5,0.5-2.2-0.1
		c-0.6-0.7-0.7-1.6-0.1-2.3c1-1.4,2.3-2.3,4.2-2.1c1.1,0.1,2.2-0.7,3.3-0.8c2.2-0.2,4.2,0,6.2,0.7c0.5,0.2,0.8,0.1,1.1-0.2
		c2.3-2,4.7-4,7.6-5.2c0.6-0.2,1.7-0.1,1.7-1c0.1-0.7-0.6-1.2-1-1.9c-1-2.2-2.4-4.2-3.6-6.4c-1-1.9-1-2.9,0.8-4.2
		c0.7-0.5,1.3-1.2,2.2-1.4c1.1-0.3,1.9,0,2.5,0.8c2.2,2.9,4,6,5.6,9.3c1,1.8,2.1,3.6,3,5.3c0.2,0.4,0.5,0.7,1,0.8
		c1.7,0.7,3.2,2,4.2,3.6c0.3,0.4,0.4,0.7,1.1,0.7c3.2-0.1,6.1,2.6,6.2,6c0.1,1.8-0.1,3.5-1.7,4.6c-0.5,0.3-0.4,0.7-0.2,1.2
		c1.2,3.3,1.9,6.7,2.9,9.9c0.2,0.7,0.1,1.2,0.2,1.9c0.1,0.7,0.1,1.4-0.6,1.8c-0.7,0.4-1.5,0.3-2.1-0.2c-1.1-1-2.3-2-3.4-3.1
		C95.4,173.8,93.6,171.8,92.2,169.3z M105.5,66.3c-0.5,0.7-0.8,1.2-1.2,1.7c-0.4,0.5-0.8,1-1.1,1.5C98.8,76.2,92.7,80.6,85.7,84
		c-1,0.4-1.8,0.8-2.1,2.1c-0.2,1-0.8,1.2-1.7,0.5c-0.7-0.7-1.6-1-2.3-1.2c-1.1-0.4-2.1-0.1-2.8,1c-1,1.4-1.2,2.9-1.1,4.5
		c0.3,3.3,1.8,5.7,4.5,7.5c1.2,0.8,1.6,0.7,2.3-0.7c0.5-1,1.1-1.1,2.1-0.7c0.8,0.3,1.2,0.8,1.5,1.7c0.3,1.8,0.5,3.8,1.1,5.5
		c0.7,1.9,1.5,3.8,2.4,5.6c2.7,4.8,5.9,8.8,10.8,11.2c3.4,1.7,7,2.4,10.8,2.4c5.1-0.1,9.8-1.6,13.9-4.9c3.6-2.9,6.1-6.4,8-10.5
		c1.2-2.6,2.1-5.3,2.4-8.1c0.4-2.6,1.8-3.1,4.2-2.1c0.3,0.1,0.6,0.3,1.1,0.1c3.9-2,5.8-5.3,5.7-9.8c-0.1-3-1.6-4.2-4.4-3.5
		c-0.8,0.2-1.6,0.7-2.3,1c-0.6,0.2-1.2,0.3-1.3-0.7c-0.2-2-1.1-3.3-3.2-3.6c-0.1,0-0.2-0.1-0.3-0.1c-3.5-2-6.4-4.8-9-7.9
		c-2.3-2.7-3.6-6.1-4.8-9.5c-0.3-1-0.2-2.1-1.1-3.1c-0.3,1.2-0.8,2-1.2,3c-2.4,6-6.8,10.2-12.1,13.3c-1.5,0.7-2.9,1.2-4.6,1.2
		c-1.2,0-2.1-1.2-1.6-2.3c0.7-1.9,1.9-3.4,3.2-4.9C104.4,69.7,105.2,68.3,105.5,66.3z M113.7,205.6c2.3-1.2,4.6-2.1,6.9-2.7
		c3.6-1,7.3-2,10.9-2.6c4.1-0.7,8.2-1,12.3-1.2c4.4-0.2,8.8,0.5,13.3,0.5c1.3,0,2.7,0.2,4,0.5c0.3,0.1,0.7,0.4,1,0.1
		c0.3-0.3,0.1-0.7-0.1-1.2c-1.7-4.9-3.5-9.6-5.5-14.3c-0.8-1.9-1.6-3.9-2.3-5.8c-0.4-1.1-1-1.2-1.8-0.7c-0.4,0.3-1,0.7-1.3,0.8
		c-1.6,0.7-3,1.7-4.8,2.1c-3.3,0.7-5.9-2-5.5-5.6c0.2-1.5,0.5-3,1.5-4.5c-2.3,0.2-4.5,0.2-6.7,0.5c-3.2,0.3-6.3,0.7-9.5,1.2
		c-2.9,0.5-5.8,1.2-8.7,1.9c-0.7,0.2-1.3,0.3-1.5,1.4c-0.1,1.1-0.3,2.1-0.4,3.3c-0.3,4.2-0.6,8.3-1,12.6c-0.1,0.7-0.3,1.5-0.3,2.2
		c0.1,2-0.1,3.9-0.4,5.8C113.8,201.8,113.8,203.6,113.7,205.6z M83.9,170.4c0.5-0.4,0.8-0.7,1.2-1c0.5-0.3,0.7-0.8,0.4-1.4
		c-1-1.9-1.6-4-3.4-5.5c-1-0.8-1-1.8-0.3-2.6c0.6-0.7,1.9-0.7,2.7,0.1c1.6,1.9,3.3,3.7,4,6.4c0.1,0.3,0,1,0.5,0.8
		c0.4,0,0.8-0.2,1.1-0.7c0.3-0.5,0.4-1.2,0.1-1.6c-0.8-1.6-1.1-3.4-2.3-4.8c-0.7-1-1.5-1.8-2.2-2.7c-0.8-1.2-0.7-2.2,0-2.9
		c1-0.7,2.1-0.5,2.9,0.7c1,1.4,1.7,2.7,2.7,4.1c1,1.4,1.5,3,2.2,4.5c0.4,1,1.1,1,1.9,0.8c0.5-0.1,0.7-0.5,0.7-1.1
		c0-0.5-0.1-1.1-0.3-1.6c-1.6-3.8-3.4-7.5-6.9-9.8c-2.1-1.5-4.3-2.4-6.9-1.8c-1.6,0.4-2.9,1.2-4.3,2.1c-3.6,2.4-7,5-9.2,9.1
		c-1,1.7-1.8,3.5-1.6,5.6c0.2,2.1,1.9,3.4,4,2.7c1-0.3,1.7-0.5,2.5-1.1c1.6-0.8,2.5-0.5,3.4,1.2c0.3,0.7,0.8,1.2,1.1,2
		c0.5,1,1.1,1.6,2.3,1.1c0.7-0.3,1-1.6,0.6-2.6c-0.6-1.6-1.8-2.9-2.9-4.1c-0.7-0.8-0.7-2-0.1-2.6c0.8-0.7,1.9-0.8,2.7,0
		C81.5,165.9,83.2,167.8,83.9,170.4z M164.2,180.9c0-2.2-0.1-4.2-1-5.8c-2.1-3.8-5.5-5.8-9.5-6.4c-2.8-0.4-4.6,1.2-6.5,2.7
		c-1.3,1.1-2.3,2.4-2.5,4.2c-0.2,1.7,0.5,2.2,2.1,1.7c1.1-0.4,2.3-1.1,3.2-1.8c1-0.8,2.2-1.2,3.4-1.7c1.2-0.3,2.9,0,3.6,1.5
		c0.7,1.6,1.5,3.1,2.2,4.6c0.8,1.9,1.6,3.8,2.5,5.7c0.1,0.3,0.2,0.7,0.7,0.7c0.4,0,0.6-0.2,0.7-0.5
		C163.3,184.1,164.5,182.6,164.2,180.9z M97.5,124.2c3.4,7.6,11,9.8,17.2,8.7c5-1,10.1-6,10.6-9.5C116,128.9,106.8,128.9,97.5,124.2
		z M140.1,156.9L140.1,156.9c-1.5,0-2.8,0-4.2,0c-1.5,0.1-2.8,0-4.2,0.1c-0.4,0.1-0.6,0-0.6,0.5c0.1,1.6-0.1,3.1,0.1,4.8
		c0.2,1.7-0.4,3.4,0.1,5c0.1,0.2,0,0.5,0.4,0.4c1.2-0.1,2.4-0.3,3.6-0.4c0.3,0,0.5-0.1,0.4-0.4c-0.4-1.4-0.1-2.7-0.1-4
		c0-1.9,1-2.6,2.8-2.7c0.7,0,1.5,0,2.3,0c2.2,0.1,3.2,1.4,3,3.5c-0.1,1-0.1,1.9-0.1,2.7c0,0.3-0.1,0.7,0.4,0.8
		c0.8,0.1,1.6,0.2,2.4,0c0.5-0.1,1.1-0.7,1-1.4c-0.3-2.7,0-5.5,0-8.3c0-0.7-0.1-0.8-0.8-0.7C144.5,156.9,142.3,156.9,140.1,156.9z
		 M130.4,153.6c5.9-0.2,11.5,0,17.3-0.1c-0.6-1.2-1.5-1.8-2.2-2.6c-2.1-2.2-4-4.5-6.1-6.7c-0.3-0.3-0.5-0.7-1.1-0.2
		C135.7,147.1,133.1,150.2,130.4,153.6z M140.4,165.9c0-0.7-0.1-1.2-0.1-1.7c0-0.3,0-0.7-0.4-0.7c-0.4,0-0.8,0.1-0.8,0.7
		c0,0.7,0,1.2-0.1,1.9c-0.1,1,0.4,1.2,1.2,1C140.9,166.8,140.2,166.2,140.4,165.9z M97.1,157.3c0.5,1.2,1.1,2.6,1.6,3.9
		C99.4,159.4,98.4,158.2,97.1,157.3z"/>
	<path fill="#163C54" d="M197.9,107.5c-5.6,0-11.3-0.1-16.9,0c-4.6,0.1-9.1,0.1-13.7,0.1c-2.3,0-4.7,0-7,0c-1.5,0-2.1-0.7-2.2-2.1
		c-0.1-1.8,0.1-3.6,0.5-5.4c0.7-2.9,0.7-5.6,0-8.4c-0.7-2.9-0.5-5.7-0.5-8.6c0-5.7,0-11.5,0.1-17.2c0-1.2-0.1-2.6-0.1-3.8
		c0-2.4,0.7-3.1,3-3.1c3.2,0.1,6.4,0.1,9.6,0.1c0.6,0,1-0.3,1.3-0.7c3.3-3.6,6.7-7.1,9.7-10.9c1.5-1.7,4-1.9,5.5-0.2
		c3,3.6,6.2,6.9,9.5,10.3c0.7,0.7,1.5,1.2,2.5,1.2c2.8-0.1,5.5,0.2,8.2,0c0.7-0.1,1.5,0.1,2.1,0.2c0.7,0.2,1.1,0.7,1.3,1.5
		c0.3,1.7,0.1,3.5,0.1,5.2c0,2,0.1,3.9,0.1,6c0,3-0.2,6-0.1,9c0.1,2.6,0.1,5.3,0,7.9c-0.1,5.4,0,10.7-0.1,16.2c0,1.9-1,2.6-2.8,2.6
		c-3.5-0.1-6.9,0-10.3,0C197.9,107.6,197.9,107.6,197.9,107.5z M162,91.3c0,1.2,0,2.3,0,3.6c0,1,0.3,1.4,1.3,1.1
		c1.7-0.4,3.4-1.1,5.1-1.6c2.7-0.7,5.2-2.1,7.4-3.7c4.2-3.1,7.8-6.9,11.2-11.1c1.5-1.7,2.7-3.6,4.4-5c1-0.8,1.9-1.8,3.3-2.1
		c2.5-0.7,4.4,0.8,6.1,2.6c1.7,1.8,3.3,3.9,5.1,5.6c0.3,0.2,0.5,0.7,1,0.5c0.4-0.2,0.1-0.7,0.1-1.1c0-1.7-0.2-3.5-0.1-5.2
		c0.2-3.4,0-6.8,0.2-10c0-0.7-0.1-1-0.8-1c-2.9,0-5.7,0-8.6-0.1c-4.9-0.1-9.7,0-14.7,0c-1.7,0-3.4-0.1-5.1,0c-2.3,0-4.5,0.2-6.8,0.1
		c-2.8-0.2-5.5,0-8.2-0.1c-0.7,0-1,0.2-1,1c0.1,2.3,0,4.6,0,6.9C162,78,162.1,84.7,162,91.3z M197.4,92.3c-1.8,3.3-6.1,2.7-7.5,0.7
		c-0.6-0.8-1-0.8-1.7-0.1c-1.6,1.6-4.8,2.4-6.8,0.8c-1.6-1.5-2.7-0.4-3.9,0.4c-0.3,0.2-0.5,0.5-1,0.7c-4.4,2.4-8.8,4.5-13.9,4.6
		c-0.5,0-0.7,0.1-0.6,0.7c0.1,0.7,0.1,1.5,0,2.2c-0.1,0.7,0.1,1.1,1,1.1c4.1-0.1,8.2,0,12.3,0c4.2,0,8.4,0.1,12.6,0.1
		c5.8,0,11.8,0,17.6,0c1.1,0,1.5-0.3,1.5-1.5c0-1.8-0.2-3.7,0-5.6c0.2-1.9,0.1-2-1.9-1.9c-0.3,0-0.6,0-0.8,0
		C201.8,94.5,199.2,94.3,197.4,92.3z M203.7,91.3c0.7,0,1.2,0,1.7,0c1.6-0.2,1.7-0.3,1.6-1.9c-0.1-0.8-0.2-1.7,0.1-2.6
		c0.2-0.5-0.1-1-0.5-1.2c-3-2.3-5.6-5.3-8.1-8.3c-1.5-1.7-3-1.9-4.6-0.1c-0.7,0.8-1.6,1.6-2.2,2.4c-2.7,3.6-5.6,7.1-8.9,10
		c-0.7,0.7,0.1,1.1,0.4,1.2c1.2,0.2,2.4,0.1,3.4-0.8c0.7-0.7,1.5-1.5,2.3-2.1c1-0.8,1.7-0.7,2.3,0.5c0.2,0.5,0.4,1.1,0.7,1.6
		c0.3,0.7,0.8,1.2,1.6,1.2c0.8-0.1,1.6-0.3,1.9-1.4c0.2-0.5,0.4-1.2,0.6-1.6c0.5-1,1.3-1.1,2.2-0.3c0.3,0.3,0.6,0.7,0.8,1
		C200.1,90.6,201.8,91.4,203.7,91.3z M176.9,59.2c5.3-0.2,10.4,0.1,15.8,0.2c-0.8-0.8-1.3-1.4-1.8-2c-1.8-2-3.6-3.9-5.5-6
		c-0.3-0.3-0.5-0.8-1-0.3C182,53.8,179.5,56.5,176.9,59.2z"/>
	<path fill="#163C54" d="M185.2,133.5c-1.3,0.2-2.5-0.2-3.8-0.4c-0.7-0.1-1.6-0.4-1.6-1.2c-0.1-1.1-0.1-2,0.8-2.7
		c1.2-1,2.4-2,3.5-3.1c1.7-2.2,3.5-4.5,4.9-6.9c1-1.8,2.1-3.5,3.6-4.8c1-0.7,1.8-0.7,2.8,0.1c1.3,1.2,1.9,3,2.9,4.3
		c2.4,3.7,5.5,7.1,8.7,10.2c0.7,0.7,1.5,1.2,1.1,2.3c-0.2,1.2-1.1,1.6-2.2,1.8c-1,0.3-2.2,0.4-3.6,0.1c1.6,2,2.8,3.9,4.4,5.4
		c1.3,1.2,2.7,2.4,3.9,3.7c1.5,1.4,1,3.1-1,3.7c-0.8,0.2-1.7,0.4-2.8,0.7c2.1,2.6,4,5.3,6.5,7.3c2.1,1.6,1.6,2.7,0.6,3.7
		c-0.6,0.7-1.6,0.8-2.4,1.1c-4.4,1-8.9,0.8-13.4,0.7c-1,0-1.5,0.1-1.3,1.2c0.1,0.5-0.1,1-0.1,1.5c-0.1,1.2,0.4,1.7,1.6,1.5
		c1-0.2,1.9-0.2,2.9-0.2c0.8,0,1,0.4,1,1.2c-0.1,3.1-0.5,6.4-1,9.6c-0.1,1.2-0.8,1.8-1.9,1.8c-3,0-6.2,0-9.3,0c-1,0-1.8-0.4-2.1-1.8
		c-0.5-3-0.5-6-1.1-8.8c-0.2-1.1,1-2.1,2.2-2c1,0,1.8,0,2.9,0.1c0.6,0,1-0.1,0.7-0.8c-0.2-0.8-0.2-1.8-0.3-2.6
		c0-0.5-0.4-0.5-0.8-0.5c-2.3,0-4.4,0-6.7,0.1c-0.8,0-1.2-0.2-1.5-1c-0.8-3.3-2.2-6.2-3.6-9.2c-0.6-1.1-0.4-1.7,0.5-2.3
		c0.2-0.1,0.3-0.2,0.5-0.4c-0.2-0.5-0.6-0.4-1-0.4c-0.6,0-1.1-0.1-1.6-0.2c-1.1-0.3-1.6-1.2-1.8-2.2c-0.3-1,0.4-1.5,1.1-1.9
		c2.9-2.1,5.3-4.6,7.5-7.6C185,134.2,185.3,133.9,185.2,133.5z M194.6,167.1L194.6,167.1c-1,0-1.9,0.1-2.9,0c-0.6,0-0.8,0.1-0.7,0.7
		c0.1,1.2,0.2,2.3,0.3,3.5c0,0.8,0.4,1.1,1.1,1.1c1.6,0,3.4-0.1,5,0c0.6,0,0.7-0.3,0.8-0.8c0.2-1.2-0.1-2.6,0.3-3.9
		c0.2-0.7-0.3-0.7-0.7-0.7C196.7,167,195.6,167.1,194.6,167.1z M197.6,136.1c0-1.5-1-2.6-2.3-2.6c-1.6-0.1-2.8,1.1-2.8,2.6
		c0,1.2,1,2.6,2.3,2.4C196.4,138.7,197.5,138,197.6,136.1z M200.5,144.9c-1.5,0-2.4,1-2.5,2.3c-0.1,1.6,1,2.7,2.5,2.7
		c1.1,0,2.3-1.2,2.4-2.2C203,146,202,144.9,200.5,144.9z M191.6,149.7c0.1-1.6-1-2.9-2.7-3c-1-0.1-2.1,1.1-2.3,2.4
		c-0.1,1.2,1.2,2.7,2.4,2.7C190.4,152,191.5,150.9,191.6,149.7z"/>
	<path fill="#163C54" d="M29.7,127.1c1.6-1.4,3.5-0.7,5.2-0.8c1.1-0.1,2.3,0,3.4,0.1c1,0.1,1.3-0.3,1.2-1.2c-0.1-0.4,0-1,0-1.4
		c0-1.8,0-1.8-1.7-1.9c-2.1-0.1-4.2-0.2-6.2-0.8c-4.7-1.6-8.4-5.2-8.3-11c0.1-2.4,1.1-4.5,2.9-6c0.7-0.5,0.6-1.1,0.4-1.8
		c-1.1-2.6-1.5-5.3-0.2-8c1.2-2.9,3.4-4.6,6.2-5.6c0.7-0.2,1-0.5,1-1.2c-0.6-4.8,4.1-9.4,8.7-9.8c5.3-0.4,8.3,4.8,7.9,8.6
		c-0.1,1-0.1,1.6,1.1,1.9c5.3,1.4,7,7.2,5.2,12.1c0,0.1-0.1,0.2-0.2,0.3c-0.7,1.7-0.8,1.7,0.6,2.7c2.9,2.1,3.4,6,2.5,9.1
		c-1.6,6-7.4,9-12.1,9.4c-1.1,0.1-2.2,0.2-3.3,0.2c-0.7,0-0.7,0.3-0.7,0.8s0.1,1.1,0.1,1.6c0,2,0,1.9,1.8,1.9
		c2.2-0.1,4.4-0.1,6.5-0.1c1.8,0,2.4,0.8,2.3,2.7c-0.4,4-0.8,8-1.1,11.9c-0.1,0.8,0.1,1.6-0.3,2.4c-0.6,1.2-1.3,2-2.9,2
		c-9.8-0.1-19.6,0-29.5,0c-1.5,0-2.1-0.5-2.2-1.8c-0.1-1.1,0.7-2,1.9-2.3c3.6,0,7.2,0,10.8,0c-0.1-1.4-0.3-2.6-0.4-3.9
		c-0.2-1.8-0.4-3.7-1-5.5l0,0c0.2-1.2-0.3-2.6,0.1-3.7c0,0,0,0-0.1-0.1c0,0,0,0,0.1,0.1c0.1-0.1,0.2-0.3,0.2-0.4l0.1-0.1
		C29.5,127.4,29.7,127.3,29.7,127.1z M43.2,111.6c0.4-0.3,0.6-0.4,0.8-0.5c1-0.7,1.7-1.7,3-2c0.7-0.2,1.3-0.1,1.6,0.7
		c0.3,0.7,0.4,1.2-0.2,1.8c-1.6,1.4-2.8,3.1-4.9,3.9c-1,0.3-0.4,1.2-0.4,1.9c-0.1,0.7,0.4,0.5,0.8,0.7c2.1,0.2,3.9-0.4,5.7-1
		c3.6-1,6.1-4.3,5.6-8.3c-0.2-1.7-1-3.1-2.7-3.7c-1.8-0.7-2.3-2.1-1.2-3.8c0.5-1,1-1.9,1.3-3c1.1-3.8-0.8-6.5-4.6-6.7
		c-1.6,0-2.7-1.5-2.3-3.1c0.3-1.2,0.3-2.3,0.2-3.5c-0.3-2.2-2.9-4.6-5.6-3.4c-2.4,1.2-3.9,3.4-3.8,6.1c0.2,2.6,0,2.9-2.3,3.7
		c-1.5,0.5-2.9,1.1-3.9,2.2c-2.3,2.6-1.6,5.5-0.3,8.3c0.8,1.7,0.6,2.6-0.8,3.7c-1,0.7-1.9,1.6-2.3,2.9c-1,3.1,0.4,6.2,3.2,7.9
		c2.4,1.4,5,1.7,7.6,1.7c1.2,0,1.6-0.5,1.2-1.8c-0.1-0.4-0.4-0.7-0.8-1.1c-1.2-1.2-2.8-1.9-4.1-3.1c-0.8-0.7-1-1.8-0.2-2.6
		c0.7-0.8,1.6-0.5,2.2,0c0.7,0.5,1.5,1.1,2.3,1.5c0.2,0.1,0.4,0.3,0.6,0c0.2-0.2,0-2.7-0.3-3.1c-1.6-1.2-2.5-2.7-3.8-4.1
		c-0.7-0.7-1.1-1.5-0.4-2.4c0.5-0.7,1.6-0.7,2.5-0.1c0.8,0.5,1.2,1.4,2.3,1.9c0-1.2,0-2.3,0-3.4c0-1,0-2,0.6-2.7
		c0.3-0.4,0.7-1,1.3-0.7s1.2,0.4,1.3,1.2c0.1,0.5,0.2,1.2,0.2,1.8c0,1.4,0,2.7,0,4.2c1-0.4,1.3-1.2,1.8-1.7c0.7-0.8,1.5-1.7,2.4-0.8
		c1,0.7,0.3,1.8,0,2.6c-0.6,2-2.3,3-3.6,4.3c-0.3,0.3-0.6,0.5-0.5,1.1C43.2,109.6,43.2,110.6,43.2,111.6z M40.6,130.1
		c-2.8,0.1-4.7,0.2-6.7,0.3c-0.7,0-1,0.2-0.8,1c0.3,2.7,0.7,5.6,1,8.3c0.1,1.1,0.5,1.5,1.6,1.4c2.3-0.1,4.4,0,6.7-0.2
		c1.9-0.1,3.9,0,5.7,0c0.7,0,1.2-0.1,1.2-1.2c0.2-3,0.6-6,1-9c0.1-0.7-0.3-0.7-0.7-0.7C46.2,130.1,42.9,130.2,40.6,130.1z"/>
	<path fill="#163C54" d="M75.3,186.4c0.1-2.6,2.2-6.1,5-6.5c1.9-0.3,3-1.6,4.5-2.6c2.4-1.8,6.3-2.2,8.6,0c0.1,0.1,0.3,0.1,0.3,0.2
		c0.6,2.1,2.4,1.9,3.9,2.2c2.9,0.7,4.5,4.3,3.3,6.9c-0.5,1-0.8,1.9-0.3,3.1c0.5,1.1,0.1,2.2-0.4,3.3c-0.8,1.6-1.6,3.3-3.6,3.3
		c-2,0-4.3,0-6.2-1.1c-0.8-0.4-1.3-0.7-1.9,0.4c-0.4,0.8-1,1.5-1.9,1.9c-0.6,0.3-1.3,0.4-1.7-0.3c-0.4-0.7-0.6-1.2-0.2-2
		c0.1-0.1,0.1-0.2,0.2-0.3c0.3-0.4,1-0.8,0.5-1.4c-0.4-0.5-1-0.1-1.6,0c-1.7,0.2-3.6,0.7-5.1-0.3C76.2,191.9,75,189.7,75.3,186.4z
		 M87.1,189.8c0.4-1,0.7-1.8,1.1-2.6s1.1-1.2,2.1-1c0.8,0.3,1,1.2,0.8,2c-0.2,0.7-0.4,1.2-0.7,1.9c-0.2,0.4-0.6,1.2-0.1,1.5
		c1.3,0.5,2.4,1.5,4,1.6c1.5,0.1,3.2-1.6,2.7-2.6c-1-1.7-0.2-2.7,0.6-4c1-1.7,0.5-2.9-1.2-3.6c-0.6-0.2-1.2-0.2-1.8-0.2
		c-1.9,0.1-2.3,0-2.9-1.9c-0.4-1.1-1.1-1.5-2.2-1.6c-1.9-0.1-3.4,0.8-4.6,2.1c-1,1.1-2.1,1.5-3.3,1.7c-1.2,0.2-2.3,0.7-2.8,2
		c-0.5,1.6-0.4,3.1,0.8,4.5c1.1,1.2,2.3,1.2,3.8,0.7c-0.4-0.5-0.7-0.8-1-1.4c-0.3-0.5-0.5-1.2,0-1.8c0.4-0.7,1-0.4,1.6-0.2
		C85.2,187.5,86.2,188.5,87.1,189.8z"/>
	<path fill="#FCECD3" d="M29.2,131.6c0.5,1.8,0.7,3.6,1,5.5c0.2,1.2,0.3,2.6,0.4,3.9c-3.6,0-7.2,0-10.8,0c2.2-0.3,4.3-0.7,6.5-0.3
		c1.2,0.2,2.3-0.3,3.5,0c0.3,0.1,0.3-0.3,0.3-0.5c-0.3-2-0.5-4.1-0.8-6.1C29.1,133.2,29.2,132.4,29.2,131.6z"/>
	<path fill="#FCECD3" d="M42,125.5c-0.3,1,0.1,2-0.1,2.9C41.8,127.5,40.9,126.5,42,125.5z"/>
	<path fill="#FCECD3" d="M42.2,125.2c-0.1,0.1-0.2,0.2-0.2,0.3C42,125.3,42,125.2,42.2,125.2z"/>
	<path fill="#FCECD3" d="M42.4,124.9c0,0.1-0.1,0.2-0.1,0.2C42.2,125,42.3,124.9,42.4,124.9z"/>
	<path fill="#FBECD3" d="M140.4,165.9c-0.2,0.3,0.3,0.8-0.3,1.2c-0.8,0.3-1.2,0-1.2-1c0-0.7,0.1-1.2,0.1-1.9s0.4-0.7,0.8-0.7
		c0.5,0,0.4,0.3,0.4,0.7C140.3,164.7,140.4,165.3,140.4,165.9z"/>
	<path fill="#FBECD3" d="M97.1,157.3c1.3,1,2.3,2.1,1.6,3.9C98.3,159.9,97.7,158.6,97.1,157.3z"/>
	<path fill="#163C54" d="M122,97c-1.8-0.2-3.2-0.5-4.3-1.2c-0.3-0.2-0.5-0.4-0.7-0.7c-0.3-0.5-0.5-1.2-0.1-1.7
		c0.5-0.5,1.1-0.4,1.6-0.2c0.8,0.4,1.6,0.7,2.5,0.8c1.7,0.2,3.4,0,4.6-1.5c0.2-0.3,0.5-0.5,1-0.7c0.8-0.2,1.5,0.2,1.3,1.1
		c0,1.2-0.8,2-1.7,2.6C124.9,96.7,123.2,97.1,122,97z"/>
	<path fill="#163C54" d="M110.9,112.5c-1.8-0.2-3.2-0.5-4.3-1.2c-0.3-0.2-0.5-0.4-0.7-0.7c-0.3-0.5-0.5-1.2-0.1-1.7
		c0.5-0.5,1.1-0.4,1.6-0.2c0.8,0.4,1.6,0.7,2.5,0.8c1.7,0.2,3.4,0,4.6-1.5c0.2-0.3,0.5-0.5,1-0.7c0.8-0.2,1.5,0.2,1.3,1.1
		c0,1.2-0.8,2-1.7,2.6C113.8,112.2,112.1,112.6,110.9,112.5z"/>
	<path fill="#163C54" d="M98.7,97.3c-1.9-0.2-3.2-0.4-4.4-1.2c-0.3-0.2-0.5-0.4-0.7-0.7c-0.3-0.5-0.5-1.2-0.1-1.7
		c0.5-0.5,1.1-0.4,1.6-0.2c0.8,0.4,1.6,0.7,2.5,0.8c1.7,0.2,3.4,0,4.6-1.5c0.2-0.3,0.5-0.5,1-0.7c0.8-0.2,1.5,0.2,1.3,1.1
		c0,1.2-0.8,2-1.7,2.6C101.5,97,99.8,97.3,98.7,97.3z"/>
	<path fill="#163C54" d="M145.5,193.5c-2.9-0.5-5.9-0.2-8.9,0.1c-3.6,0.4-7.4,0.4-11,1.2c-1,0.2-1.9,0.7-3,0.7
		c-1.1,0.1-1.9-0.1-2.7-1.2c-0.6-1.1-0.5-2,0-3c0.7-1.4,1.7-2.6,3-3.4c0.6-0.3,0.7-0.7,0.2-1.2c-0.4-0.5-0.8-1.1-1.1-1.8
		c-0.6-1.6-0.3-2.7,1-3.8c1.1-1,2.4-2.2,3.9-1.8c1.7,0.4,2.7-0.1,4.1-1.2c2.4-1.9,5.7-0.7,7,2c0.3,0.7,0.4,0.4,1,0.3
		c1.2-0.2,2.5-0.7,3.6,0.3c1.6,1.2,2.1,2.3,1.5,4.3c-0.2,0.7-0.2,0.8,0.5,1.2c1.6,0.7,2.8,1.7,3.6,3.1c0.5,0.8,1,1.7,0.3,2.6
		c-0.5,1-1.3,1.2-2.3,1.1C146.1,193.4,145.7,193.5,145.5,193.5z"/>
	<path fill="#163C54" d="M180.4,79.1c0.1,3.5-2.9,6-5.1,6c-3,0.1-5.1-2-5.3-5.4c-0.2-3.1,2.2-5.4,5.5-5.5
		C178.2,74,180.3,76.1,180.4,79.1z M177.9,79.2c0-1.4-0.8-2.2-2.3-2.3c-1.3-0.1-2.7,1.5-2.7,3c0,1.4,1,2.6,2.3,2.6
		C176.4,82.3,177.8,80.8,177.9,79.2z"/>
	<path fill="#163C54" d="M180.4,73.2c0-1.2,2.3-3.1,3.4-2.7c0.6,0.2,1,0.5,0.6,1.2c-0.4,1.2-1.3,2.1-2.4,2.6
		C181.3,74.7,180.4,74.2,180.4,73.2z"/>
	<path fill="#163C54" d="M176.5,70.4c0,0.3,0,0.7,0,1.1c0.1,0.7-0.3,1.2-1,1.2c-0.8,0-1.6-0.3-1.6-1.2c0-0.8,0.1-1.7,0.2-2.6
		c0.1-0.7,0.5-1.1,1.2-1.1c0.7,0,1,0.7,1,1.2C176.7,69.4,176.7,69.9,176.5,70.4C176.7,70.4,176.5,70.4,176.5,70.4z"/>
	<path fill="#163C54" d="M171,73.7c0,0.8-1,1.4-1.7,1c-0.7-0.5-1.3-1.1-1.9-1.7c-0.6-0.5-0.4-1.2,0-1.8c0.4-0.5,1-0.4,1.5,0
		c0.7,0.5,1.6,1,2.1,1.8C170.7,73.2,171,73.4,171,73.7z"/>
	<path fill="#163C54" d="M165.8,81.3c-0.6,0.1-1.2-0.2-1.3-1.2c-0.1-0.7,1.5-1.5,2.8-1.6c0.8,0,1.1,0.5,1.2,1.2
		c0.1,1.2-1,1.1-1.6,1.2C166.6,81.3,166.3,81.3,165.8,81.3z"/>
</g>
</svg>
