<?xml version="1.0" encoding="utf-8"?>
<!-- Generator: Adobe Illustrator 24.1.2, SVG Export Plug-In . SVG Version: 6.00 Build 0)  -->
<svg version="1.1" id="Layer_1" xmlns="http://www.w3.org/2000/svg" xmlns:xlink="http://www.w3.org/1999/xlink" x="0px" y="0px"
	 viewBox="0 0 238.2 229.8" style="enable-background:new 0 0 238.2 229.8;" xml:space="preserve">
<style type="text/css">
	.st0{fill:#163C54;}
	.st1{fill:#FCECD3;}
	.st2{fill:#FBECD3;}
</style>
<path class="st0" d="M92,135.4c-0.7,0.6-1.5,0.9-2.5,1c-0.8,0.1-1.6,0.5-2,1.1c-0.7,1-1.7,1.2-2.6,1.5c-0.7,0.2-1.2,0.4-1.5,1
	c-1.2,2.4-3.4,2.8-5.7,2.6c-0.9-0.1-1.6-0.6-2.2-1.3c-1-1.1-2.5-0.9-3.1,0.4c-2.8,5.3-5.3,10.8-7.5,16.4c-0.7,1.9-1.3,3.8-2.2,5.6
	c-0.5,1-0.4,1.2,0.8,1c2.4-0.3,4.9-0.8,7.3-0.9c4.9-0.2,9.8-0.2,14.7,0.4c4,0.4,8,1.1,12,1.8c3.9,0.7,7.5,2,11.2,3.4
	c0.2,0.1,0.4,0.2,0.6,0.1c0.3-3.3,0.5-6.7,0.8-10c0.3-4.2,0.7-8.5,1.1-12.7c0.1-1.7,0.3-3.5,0.4-5.2c0.1-0.7-0.1-1.1-0.8-1.4
	c-2.1-0.8-4.2-1.7-6.4-2.1c-0.5-0.1-0.9-0.3-0.9-0.8c-0.1-0.6-0.4-1.2-0.6-1.8c-0.3-1.4-0.3-1.4,1.2-1.1c3.3,0.7,6.4,1.8,9.4,3.1
	c0.4,0.2,0.9,0.2,1.3,0c3.7-1.4,7.6-2.3,11.4-2.9c0.6-0.1,0.9-0.3,0.8-1c-0.3-2.5,0-5,0-7.5c0-0.5,0-1,0-1.6c0-0.6-0.3-0.8-0.8-1
	c-2.2-0.6-2.8-2.4-1.3-4c3.6-3.7,6.7-8,10.7-11.3c1.2-1,2.6-1.5,3.9-0.2c2.1,2.1,4.3,4.3,6.4,6.4c0.2,0.2,0.4,0.7,0.8,0.6
	c0.5-0.2,0.1-0.6,0.2-0.9c0-1.9-0.1-3.8,0.3-5.7c0.2-1.1,1-1.4,1.9-1.4c0.9,0.1,1.5,0.7,1.5,1.7c0,0.8,0,1.5-0.2,2.2
	c-0.5,2.3,0.1,4.6-0.2,6.9c-0.1,0.8,0.5,1.4,1.1,1.9c0.5,0.6,1,1.2,0.7,2c-0.4,0.9-0.9,1.6-2,1.6c-0.5,0-0.7,0.1-0.7,0.7
	c0.1,2,0.2,4,0,6.2c2.4-1.8,4.8-3.2,7.5-4c0.5-0.1,0.4-0.5,0.5-0.7c0.5-1.2,0.8-2.5,1.4-3.7c0.6-1.5,2.1-2.1,3.4-1.5
	c0.6,0.2,0.9,1.4,0.5,2.2c-0.4,0.8-0.8,1.6-1.3,2.4c-0.5,0.8-0.2,1,0.6,1c0.9,0,1.8-0.2,2.8,0.2c1.3,0.6,1.9,1.4,1.6,2.4
	c-0.3,1.1-1.3,1.5-2.6,1.2c-3.5-0.8-6.6-0.1-9.7,1.7c2.1,0.3,3.8,1.3,5.5,2.3c3.3,1.9,5.4,4.8,6.3,8.5c0.5,1.9,0.5,3.8,0.5,5.7
	c0,0.6,0.1,0.8,0.7,0.6c5.1-1.7,8.6-5,10.2-10.3c0.9-3,0.6-6,0-9c-0.8-4-2.6-7.6-4.7-11.1c-2.4-4.1-5.4-7.8-8.5-11.4
	c-4.7-5.5-10.2-10.1-16.4-13.9c-0.9-0.6-1.8-1.1-2.8-1.6c-0.4-0.2-0.6-0.6-0.6-1c0-0.4,0.5-0.2,0.8-0.4c1.5-0.7,2.8-0.6,4.4,0.2
	c4,2.2,7.8,4.7,11.1,7.8c5.9,5.4,11,11.4,15.3,18.1c1.8,2.8,3.4,5.8,4.3,9c1.8,5.7,2.4,11.4-0.1,17.1c-1.4,3.2-3.6,5.6-6.4,7.5
	c-2.4,1.6-5.1,2.7-8,3c-0.5,0.1-0.8,0.3-1,0.7c-0.6,0.9-1.3,1.8-2.3,2.4c-0.6,0.4-0.3,0.8-0.1,1.1c1.2,2.9,1.7,6,3.3,8.8
	c0.5,1,0.4,1.8-0.5,2.5c-0.7,0.5-0.4,1.1,0,1.5c0.7,0.6,0.7,1.3,0.3,2c-0.4,0.8-1.1,1-1.9,0.9c-3-0.6-5.9-1.1-8.9-1.4
	c-4.1-0.5-8.2-0.7-12.3-0.7c-2.9,0-5.8,0-8.7,0.2c-2.8,0.2-5.6,0.2-8.4,0.6c-3.3,0.4-6.6,0.8-9.8,1.8c-1.2,0.4-2.5,0.4-3.7,1.3
	c-0.5,0.4-1.2-0.1-1.8-0.3c-3.1-1.1-6.3-1.5-9.5-2c-5-0.8-10-1.1-15-1.4c-3.9-0.2-7.8-0.1-11.7,0.3c-3.7,0.3-7.5,0.7-11.2,1.3
	c-0.7,0.1-1.4,0.3-2.1,0.4c-0.9,0.2-1.8,0.1-2.3-0.9c-0.4-0.9-0.7-1.8,0.5-2.5c0.3-0.2,0.6-0.5,0.1-1c-0.9-0.9-1-2-0.4-3.1
	c1.1-2.3,1.8-4.8,2.7-7.1c1.3-3.3,2.7-6.6,4.3-9.9c-3.5,0.7-6.9,0.5-10.2-0.7c-4-1.5-7-4.1-8.9-7.9c-2.3-4.7-1.9-9.4-0.3-14.2
	c1.7-4.9,4.6-9,7.8-13.1c3.4-4.4,7.4-8.3,11.5-12.1c2.2-2,4.4-4.2,6.9-5.8c2.6-1.7,5-3.8,7.9-5c0.4-0.1,0.4-0.2,0.2-0.6
	c-0.5-0.6-0.8-1.3-1.3-2.1c-2.1,2-4.4,2.2-6.9,0.8c-1.3-0.8-2.1-2-2.5-3.4c-0.5-1.7-0.5-3.5-0.2-5.3c0.3-1.6-0.2-3.1-1.4-4.2
	c-3.4-3.2-4-7.2-3.6-11.6c0.3-2.8,1.3-5.4,3-7.6c2.2-2.9,4.5-5.7,6.4-8.7c1.5-2.3,2.6-4.8,3.4-7.5c1.3-4.6,3.6-8.7,7.1-12.1
	c1.2-1.2,2.4-2.4,3.6-3.6c2.1-1.9,4.6-3.2,7.2-4.4c4.4-1.9,9-2.7,13.8-2.7c4.1,0,8.3,0.1,12.1,1.7c3,1.2,5.8,2.5,9.1,2.8
	c1.8,0.2,3.5,1.2,5.1,2.3c0.8,0.5,1.2,1.4,1.9,1.9c1.8,1.3,3.3,2.8,4.5,4.6c1.4,2,2.1,4.3,3,6.6c1,2.7,1.4,5.5,2.1,8.3
	c0.7,3.3,2.6,6.2,4.5,9c2,3,4.1,6,4.9,9.6c0.9,4.3,0,8.1-2.7,11.5c-0.4,0.5-0.9,1-1.3,1.5c-0.7,0.9-1.2,1.9-1.2,3.2
	c0,2.4-0.2,4.9-1.6,7c-1.3,2-4.6,3.2-6.8,2.4c-0.6-0.2-1.2-0.5-1.4-1c-0.4-0.9-0.8-0.6-1.3-0.1c-2.4,2.3-5.2,2.4-8.2,1.5
	c-0.6-0.2-1.3-0.4-1.9-0.6c-0.8-0.2-1.3,0.3-1.1,1.1c0.6,2.1-0.2,4-1.2,5.7c-2.2,3.9-5.2,7.1-9.5,8.8c-2.7,1.1-5.6,1.3-8.5,1.1
	c-3.9-0.4-7.4-1.7-10.4-4.3c-2.5-2.1-4.1-4.8-4.9-7.9c-0.1-0.3-0.2-0.8-0.1-1c0.8-1.2,0-1.7-0.8-2.2c-0.4-0.3-0.9-0.7-1.2-1.2
	c-0.7-1.2-1.5-1-2.6-0.4c-5,2.7-9.9,5.5-14.5,8.9c-3.1,2.2-6.2,4.4-8.8,7.2c-2.6,2.8-5.4,5.4-7.8,8.3c-1.6,1.9-3,3.9-4.4,6
	c-1.4,2-2.5,4.1-3.6,6.3c-1.9,4.2-2.8,8.5-0.8,12.9c1.5,3.3,4.2,5.2,7.5,6.4c3.3,1.2,6.6,0.8,9.9-0.2c1-0.3,1.2-1.1,1.4-1.9
	c0.2-0.8-0.1-1.4-0.8-1.8c-1.6-0.8-2.5-2.1-3.1-3.8c-0.8-2.1-0.8-4.1-0.1-6.2c0.7-2.2,1.7-4.3,3.4-5.9c0.4-0.4,0.2-0.5-0.3-0.6
	c-2.9-0.5-5.8-0.4-8.3,1.3c-0.7,0.5-1.4,0.5-2.1-0.1c-0.6-0.6-0.7-1.5-0.1-2.2c1-1.3,2.3-2.2,4.1-2c1.1,0.1,2.1-0.6,3.2-0.8
	c2.1-0.2,4.1,0,6,0.6c0.5,0.2,0.8,0.1,1.1-0.2c2.3-1.9,4.6-3.8,7.5-4.9c0.6-0.2,1.7-0.1,1.7-0.9c0.1-0.6-0.6-1.2-0.9-1.8
	c-1-2.1-2.4-4-3.5-6.1c-1-1.8-0.9-2.7,0.8-4c0.7-0.5,1.3-1.1,2.1-1.3c1.1-0.3,1.9,0,2.5,0.8c2.1,2.7,3.9,5.7,5.4,8.8
	c0.9,1.7,2,3.4,3,5c0.2,0.4,0.5,0.7,1,0.8c1.7,0.7,3.1,1.9,4.1,3.4c0.3,0.4,0.4,0.7,1.1,0.7c3.1-0.1,5.9,2.5,6,5.6
	c0.1,1.7-0.1,3.3-1.7,4.4c-0.5,0.3-0.4,0.7-0.2,1.2c1.2,3.1,1.9,6.3,2.9,9.4c0.2,0.6,0.1,1.2,0.2,1.8c0.1,0.7,0.1,1.3-0.6,1.7
	c-0.7,0.4-1.4,0.3-2-0.2c-1.1-0.9-2.2-1.9-3.3-2.9C95.1,139.7,93.3,137.8,92,135.4z M104.9,37.9c-0.5,0.7-0.8,1.2-1.2,1.6
	c-0.4,0.5-0.8,0.9-1.1,1.4c-4.2,6.4-10.2,10.6-17,13.8c-0.9,0.4-1.8,0.8-2,2c-0.2,0.9-0.8,1.2-1.7,0.5c-0.7-0.6-1.5-0.9-2.3-1.2
	c-1.1-0.4-2-0.1-2.7,0.9c-0.9,1.3-1.2,2.7-1.1,4.3c0.3,3.1,1.8,5.4,4.4,7.1c1.2,0.8,1.5,0.7,2.2-0.6c0.5-0.9,1.1-1,2-0.7
	c0.8,0.3,1.2,0.8,1.4,1.6c0.3,1.7,0.5,3.6,1.1,5.2c0.7,1.8,1.4,3.6,2.4,5.3c2.6,4.5,5.8,8.3,10.6,10.6c3.3,1.6,6.9,2.3,10.5,2.3
	c5-0.1,9.6-1.5,13.6-4.6c3.5-2.7,5.9-6.1,7.8-9.9c1.2-2.4,2-5,2.4-7.7c0.4-2.5,1.8-3,4.1-2c0.3,0.1,0.6,0.3,1.1,0.1
	c3.8-1.9,5.7-5,5.6-9.3c-0.1-2.8-1.6-4-4.3-3.3c-0.8,0.2-1.6,0.6-2.3,0.9c-0.6,0.2-1.2,0.3-1.3-0.6c-0.2-1.9-1.1-3.1-3.1-3.4
	c-0.1,0-0.2-0.1-0.3-0.1c-3.4-1.9-6.3-4.5-8.8-7.4c-2.3-2.6-3.5-5.8-4.7-9c-0.3-0.9-0.2-2-1.1-2.9c-0.3,1.1-0.8,1.9-1.2,2.8
	c-2.4,5.7-6.6,9.7-11.9,12.6c-1.4,0.7-2.9,1.1-4.5,1.1c-1.2,0-2-1.1-1.5-2.2c0.7-1.8,1.9-3.2,3.1-4.6
	C103.9,41.1,104.7,39.8,104.9,37.9z M113,169.7c2.2-1.2,4.5-2,6.7-2.6c3.5-0.9,7.1-1.9,10.7-2.4c4-0.6,8-0.9,12-1.1
	c4.3-0.2,8.6,0.5,13,0.5c1.3,0,2.6,0.2,3.9,0.5c0.3,0.1,0.7,0.4,1,0.1c0.3-0.3,0.1-0.7-0.1-1.1c-1.7-4.6-3.4-9.1-5.3-13.5
	c-0.8-1.8-1.5-3.7-2.2-5.5c-0.4-1-0.9-1.2-1.8-0.7c-0.4,0.3-0.9,0.6-1.3,0.8c-1.5,0.7-3,1.6-4.7,2c-3.2,0.7-5.8-1.9-5.3-5.3
	c0.2-1.4,0.5-2.8,1.4-4.2c-2.3,0.2-4.4,0.2-6.5,0.5c-3.1,0.3-6.2,0.6-9.2,1.1c-2.8,0.5-5.7,1.2-8.5,1.8c-0.7,0.2-1.3,0.3-1.4,1.3
	c-0.1,1-0.3,2-0.4,3.1c-0.3,4-0.6,7.9-0.9,11.9c-0.1,0.7-0.3,1.4-0.3,2.1c0.1,1.9-0.1,3.7-0.4,5.5
	C113.1,166.1,113.1,167.8,113,169.7z M83.8,136.5c0.5-0.4,0.8-0.7,1.2-0.9c0.5-0.3,0.7-0.8,0.4-1.3c-1-1.8-1.6-3.8-3.3-5.2
	c-1-0.8-1-1.7-0.3-2.4c0.6-0.6,1.9-0.7,2.6,0.1c1.5,1.8,3.2,3.5,3.9,6c0.1,0.3,0,0.9,0.5,0.8c0.4,0,0.8-0.2,1.1-0.7
	c0.3-0.5,0.4-1.1,0.1-1.5c-0.8-1.5-1.1-3.2-2.2-4.5c-0.7-0.9-1.4-1.7-2.1-2.6c-0.8-1.1-0.7-2.1,0-2.7c0.9-0.7,2-0.5,2.8,0.6
	c0.9,1.3,1.7,2.6,2.6,3.9c0.9,1.3,1.4,2.8,2.1,4.3c0.4,0.9,1.1,0.9,1.9,0.8c0.5-0.1,0.7-0.5,0.7-1c0-0.5-0.1-1-0.3-1.5
	c-1.5-3.6-3.3-7.1-6.7-9.3c-2-1.4-4.2-2.3-6.8-1.7c-1.6,0.4-2.9,1.2-4.2,2c-3.6,2.3-6.9,4.8-9,8.6c-0.9,1.6-1.8,3.3-1.5,5.3
	c0.2,2,1.9,3.2,3.9,2.6c0.9-0.3,1.7-0.5,2.5-1c1.5-0.8,2.5-0.5,3.3,1.1c0.3,0.6,0.8,1.2,1.1,1.9c0.5,0.9,1.1,1.5,2.2,1
	c0.7-0.3,1-1.5,0.6-2.4c-0.6-1.5-1.8-2.7-2.9-3.9c-0.7-0.8-0.7-1.9-0.1-2.5c0.8-0.7,1.9-0.8,2.6,0C81.5,132.2,83.2,134,83.8,136.5z
	 M162.3,146.4c0-2.1-0.1-4-1-5.5c-2-3.6-5.3-5.5-9.3-6.1c-2.7-0.4-4.5,1.2-6.4,2.6c-1.3,1-2.3,2.3-2.5,4c-0.2,1.6,0.5,2.1,2,1.6
	c1.1-0.4,2.2-1,3.1-1.7c1-0.8,2.1-1.2,3.3-1.6c1.2-0.3,2.8,0,3.5,1.4c0.7,1.5,1.4,2.9,2.1,4.4c0.8,1.8,1.6,3.6,2.5,5.4
	c0.1,0.3,0.2,0.7,0.7,0.7c0.4,0,0.6-0.2,0.7-0.5C161.5,149.4,162.7,148,162.3,146.4z M97.1,92.7c3.3,7.2,10.8,9.3,16.8,8.2
	c4.9-0.9,9.8-5.7,10.3-9C115.3,97.1,106.3,97.1,97.1,92.7z M138.8,123.6C138.8,123.6,138.8,123.6,138.8,123.6c-1.4,0-2.7,0-4.1,0
	c-1.4,0.1-2.7,0-4.1,0.1c-0.4,0.1-0.6,0-0.6,0.5c0.1,1.5-0.1,3,0.1,4.5c0.2,1.6-0.4,3.2,0.1,4.7c0.1,0.2,0,0.5,0.4,0.4
	c1.2-0.1,2.4-0.3,3.6-0.4c0.3,0,0.5-0.1,0.4-0.4c-0.4-1.3-0.1-2.6-0.1-3.8c0-1.8,0.9-2.5,2.7-2.6c0.7,0,1.4,0,2.2,0
	c2.1,0.1,3.1,1.3,3,3.3c-0.1,0.9-0.1,1.8-0.1,2.6c0,0.3-0.1,0.7,0.4,0.8c0.8,0.1,1.6,0.2,2.4,0c0.5-0.1,1.1-0.6,1-1.3
	c-0.3-2.6,0-5.2,0-7.8c0-0.7-0.1-0.8-0.8-0.7C143.1,123.6,141,123.6,138.8,123.6z M129.3,120.5c5.8-0.2,11.3,0,16.9-0.1
	c-0.6-1.1-1.4-1.7-2.1-2.4c-2-2.1-3.9-4.2-5.9-6.3c-0.3-0.3-0.5-0.7-1.1-0.2C134.5,114.3,132,117.3,129.3,120.5z M139.1,132.2
	c0-0.6-0.1-1.1-0.1-1.6c0-0.3,0-0.7-0.4-0.7c-0.4,0-0.8,0.1-0.8,0.7c0,0.6,0,1.2-0.1,1.8c-0.1,0.9,0.4,1.2,1.2,0.9
	C139.5,133,138.9,132.5,139.1,132.2z M96.8,124c0.5,1.2,1.1,2.5,1.6,3.7C99,126,98.1,124.9,96.8,124z"/>
<path class="st0" d="M195.2,76.9c-5.5,0-11-0.1-16.5,0c-4.5,0.1-8.9,0.1-13.4,0.1c-2.3,0-4.6,0-6.9,0c-1.4,0-2-0.6-2.1-2
	c-0.1-1.7,0.1-3.4,0.5-5.1c0.7-2.7,0.7-5.3,0-8c-0.7-2.7-0.5-5.4-0.5-8.1c0-5.4,0-10.9,0.1-16.3c0-1.2-0.1-2.4-0.1-3.6
	c0-2.3,0.7-3,3-2.9c3.1,0.1,6.3,0.1,9.4,0.1c0.6,0,1-0.3,1.3-0.7c3.2-3.4,6.5-6.7,9.5-10.3c1.4-1.6,3.9-1.8,5.3-0.2
	c3,3.4,6.1,6.5,9.2,9.8c0.7,0.7,1.4,1.2,2.5,1.1c2.7-0.1,5.3,0.2,8,0c0.7-0.1,1.4,0.1,2,0.2c0.7,0.2,1.1,0.6,1.3,1.4
	c0.3,1.6,0.1,3.3,0.1,4.9c0,1.9,0.1,3.7,0.1,5.6c0,2.8-0.2,5.7-0.1,8.5c0.1,2.5,0.1,5,0,7.4c-0.1,5.1,0,10.2-0.1,15.3
	c0,1.8-0.9,2.5-2.7,2.4c-3.4-0.1-6.7,0-10.1,0C195.2,77,195.2,77,195.2,76.9z M160.2,61.6c0,1.1,0,2.2,0,3.4c0,0.9,0.3,1.3,1.3,1
	c1.7-0.4,3.3-1,5-1.5c2.6-0.7,5.1-2,7.2-3.5c4.1-2.9,7.6-6.6,10.9-10.5c1.4-1.6,2.6-3.4,4.3-4.8c1-0.8,1.9-1.7,3.2-2
	c2.5-0.6,4.3,0.8,5.9,2.4c1.7,1.7,3.2,3.7,5,5.3c0.3,0.2,0.5,0.6,0.9,0.5c0.4-0.2,0.1-0.7,0.1-1c0-1.6-0.2-3.3-0.1-4.9
	c0.2-3.2,0-6.4,0.2-9.5c0-0.7-0.1-0.9-0.8-0.9c-2.8,0-5.6,0-8.4-0.1c-4.8-0.1-9.5,0-14.3,0c-1.7,0-3.3-0.1-5,0
	c-2.2,0-4.4,0.2-6.6,0.1c-2.7-0.2-5.3,0-8-0.1c-0.7,0-0.9,0.2-0.9,0.9c0.1,2.2,0,4.4,0,6.6C160.2,49,160.3,55.3,160.2,61.6z
	 M194.8,62.5c-1.8,3.1-5.9,2.6-7.4,0.6c-0.6-0.8-1-0.8-1.7-0.1c-1.5,1.5-4.7,2.3-6.6,0.8c-1.6-1.4-2.6-0.4-3.8,0.4
	c-0.3,0.2-0.5,0.5-0.9,0.6c-4.3,2.3-8.6,4.3-13.6,4.4c-0.5,0-0.7,0.1-0.6,0.6c0.1,0.7,0.1,1.4,0,2.1c-0.1,0.7,0.1,1,1,1
	c4-0.1,8,0,12,0c4.1,0,8.2,0.1,12.3,0.1c5.7,0,11.5,0,17.2,0c1.1,0,1.4-0.3,1.4-1.4c0-1.7-0.2-3.5,0-5.3c0.2-1.8,0.1-1.9-1.9-1.8
	c-0.3,0-0.6,0-0.8,0C199,64.6,196.6,64.4,194.8,62.5z M200.9,61.5c0.7,0,1.2,0,1.7,0c1.6-0.2,1.7-0.3,1.6-1.8
	c-0.1-0.8-0.2-1.6,0.1-2.4c0.2-0.5-0.1-0.9-0.5-1.1c-3-2.2-5.5-5-7.9-7.8c-1.4-1.6-3-1.8-4.5-0.1c-0.7,0.8-1.5,1.5-2.1,2.3
	c-2.6,3.4-5.4,6.7-8.7,9.5c-0.7,0.6,0.1,1,0.4,1.1c1.2,0.2,2.4,0.1,3.3-0.8c0.7-0.7,1.4-1.4,2.2-2c0.9-0.8,1.7-0.6,2.2,0.5
	c0.2,0.5,0.4,1,0.7,1.5c0.3,0.6,0.8,1.2,1.6,1.1c0.8-0.1,1.6-0.3,1.9-1.3c0.2-0.5,0.4-1.1,0.6-1.5c0.5-0.9,1.3-1,2.1-0.3
	c0.3,0.3,0.6,0.6,0.8,0.9C197.4,60.9,199,61.7,200.9,61.5z M174.7,31.2c5.2-0.2,10.2,0.1,15.4,0.2c-0.8-0.8-1.3-1.3-1.8-1.9
	c-1.8-1.9-3.5-3.7-5.3-5.6c-0.3-0.3-0.5-0.8-1-0.3C179.7,26.1,177.3,28.6,174.7,31.2z"/>
<path class="st0" d="M182.8,101.5c-1.3,0.2-2.5-0.2-3.7-0.4c-0.7-0.1-1.5-0.4-1.6-1.2c-0.1-1-0.1-1.9,0.8-2.6c1.2-0.9,2.4-1.9,3.4-3
	c1.7-2.1,3.4-4.2,4.8-6.5c1-1.7,2-3.3,3.6-4.5c0.9-0.7,1.8-0.7,2.7,0.1c1.3,1.2,1.9,2.8,2.8,4.1c2.4,3.5,5.3,6.7,8.5,9.6
	c0.7,0.6,1.4,1.2,1.1,2.2c-0.2,1.1-1.1,1.5-2.1,1.7c-1,0.3-2.1,0.4-3.6,0.1c1.6,1.9,2.7,3.7,4.3,5.1c1.3,1.2,2.6,2.3,3.8,3.5
	c1.4,1.3,0.9,3-1,3.5c-0.8,0.2-1.7,0.4-2.7,0.6c2,2.5,3.9,5,6.4,6.9c2,1.5,1.6,2.6,0.6,3.5c-0.6,0.6-1.5,0.8-2.4,1
	c-4.3,0.9-8.7,0.8-13.1,0.7c-0.9,0-1.4,0.1-1.3,1.2c0.1,0.5-0.1,0.9-0.1,1.4c-0.1,1.2,0.4,1.6,1.6,1.4c1-0.2,1.9-0.2,2.9-0.2
	c0.8,0,0.9,0.4,0.9,1.1c-0.1,3-0.5,6-0.9,9.1c-0.1,1.1-0.8,1.7-1.9,1.7c-3,0-6.1,0-9.1,0c-1,0-1.8-0.4-2-1.7
	c-0.5-2.8-0.5-5.6-1.1-8.3c-0.2-1,0.9-2,2.1-1.9c0.9,0,1.8,0,2.8,0.1c0.6,0,0.9-0.1,0.7-0.8c-0.2-0.8-0.2-1.7-0.3-2.5
	c0-0.5-0.4-0.5-0.8-0.5c-2.2,0-4.3,0-6.5,0.1c-0.8,0-1.2-0.2-1.4-0.9c-0.8-3.1-2.1-5.9-3.6-8.7c-0.6-1-0.4-1.6,0.5-2.2
	c0.2-0.1,0.3-0.2,0.5-0.4c-0.2-0.5-0.6-0.4-0.9-0.4c-0.6,0-1.1-0.1-1.6-0.2c-1.1-0.3-1.5-1.2-1.8-2.1c-0.3-0.9,0.4-1.4,1.1-1.8
	c2.8-2,5.2-4.4,7.3-7.2C182.7,102.1,182.9,101.9,182.8,101.5z M192,133.3C192,133.3,192,133.3,192,133.3c-1,0-1.9,0.1-2.9,0
	c-0.6,0-0.8,0.1-0.7,0.7c0.1,1.1,0.2,2.2,0.3,3.3c0,0.8,0.4,1,1.1,1c1.6,0,3.3-0.1,4.9,0c0.6,0,0.7-0.3,0.8-0.8
	c0.2-1.2-0.1-2.5,0.3-3.7c0.2-0.6-0.3-0.6-0.7-0.6C194.1,133.2,193,133.3,192,133.3z M195,104c0-1.4-0.9-2.4-2.3-2.4
	c-1.5-0.1-2.7,1-2.7,2.5c0,1.2,1,2.4,2.3,2.3C193.8,106.4,194.9,105.8,195,104z M197.8,112.3c-1.4,0-2.4,0.9-2.5,2.2
	c-0.1,1.5,1,2.6,2.5,2.6c1.1,0,2.3-1.1,2.4-2.1C200.2,113.3,199.3,112.3,197.8,112.3z M189.1,116.8c0.1-1.5-1-2.7-2.6-2.8
	c-1-0.1-2,1-2.2,2.3c-0.1,1.1,1.2,2.6,2.4,2.6C187.9,119,189,118,189.1,116.8z"/>
<path class="st0" d="M30.9,95.5c1.5-1.3,3.4-0.6,5.1-0.8c1.1-0.1,2.2,0,3.3,0.1c1,0.1,1.3-0.3,1.2-1.2c-0.1-0.4,0-0.9,0-1.3
	c0-1.7,0-1.7-1.7-1.8c-2-0.1-4.1-0.2-6-0.8c-4.6-1.5-8.2-4.9-8.1-10.4c0.1-2.3,1.1-4.3,2.9-5.7c0.7-0.5,0.6-1,0.4-1.7
	c-1.1-2.5-1.4-5-0.2-7.6c1.2-2.7,3.3-4.4,6-5.3c0.7-0.2,1-0.5,0.9-1.2c-0.6-4.5,4-8.9,8.5-9.3c5.2-0.4,8.2,4.5,7.7,8.1
	c-0.1,0.9-0.1,1.5,1.1,1.8c5.2,1.3,6.9,6.8,5.1,11.4c0,0.1-0.1,0.2-0.2,0.3c-0.7,1.6-0.8,1.6,0.6,2.6c2.8,2,3.3,5.6,2.5,8.6
	c-1.6,5.7-7.2,8.5-11.9,8.9c-1.1,0.1-2.1,0.2-3.2,0.2c-0.7,0-0.7,0.3-0.7,0.8c0,0.5,0.1,1,0.1,1.5c0,1.9,0,1.8,1.8,1.8
	c2.1-0.1,4.3-0.1,6.4-0.1c1.8,0,2.4,0.8,2.2,2.6c-0.4,3.8-0.8,7.6-1.1,11.3c-0.1,0.8,0.1,1.5-0.3,2.3c-0.6,1.1-1.3,1.9-2.8,1.9
	c-9.6-0.1-19.2,0-28.8,0c-1.4,0-2-0.5-2.1-1.7c-0.1-1,0.7-1.9,1.9-2.2c3.5,0,7,0,10.5,0c-0.1-1.3-0.3-2.5-0.4-3.7
	c-0.2-1.7-0.4-3.5-0.9-5.2c0,0,0,0,0,0c0.2-1.2-0.3-2.4,0.1-3.5c0,0,0,0-0.1-0.1c0,0,0,0,0.1,0.1c0.1-0.1,0.2-0.3,0.2-0.4
	c0,0,0.1-0.1,0.1-0.1C30.8,95.7,30.9,95.6,30.9,95.5z M44.1,80.8c0.4-0.3,0.6-0.4,0.8-0.5c1-0.6,1.7-1.6,3-1.9
	c0.7-0.2,1.3-0.1,1.6,0.6c0.3,0.6,0.4,1.2-0.2,1.7c-1.5,1.3-2.7,3-4.8,3.7c-0.9,0.3-0.4,1.2-0.4,1.8c-0.1,0.6,0.4,0.5,0.8,0.6
	c2,0.2,3.8-0.4,5.6-0.9c3.6-0.9,5.9-4.1,5.5-7.8c-0.2-1.6-0.9-2.9-2.6-3.5c-1.8-0.6-2.2-2-1.2-3.6c0.5-0.9,1-1.8,1.3-2.8
	c1.1-3.6-0.8-6.2-4.5-6.3c-1.6,0-2.6-1.4-2.3-3c0.3-1.1,0.3-2.2,0.2-3.3c-0.3-2.1-2.8-4.4-5.4-3.2c-2.4,1.2-3.8,3.2-3.7,5.8
	c0.2,2.4,0,2.7-2.2,3.5c-1.4,0.5-2.8,1-3.8,2.1c-2.2,2.5-1.6,5.2-0.3,7.8c0.8,1.6,0.6,2.5-0.8,3.5c-1,0.7-1.9,1.5-2.2,2.7
	c-0.9,3,0.4,5.9,3.1,7.4c2.4,1.3,4.9,1.6,7.5,1.6c1.2,0,1.6-0.5,1.2-1.7c-0.1-0.4-0.4-0.7-0.8-1c-1.2-1.1-2.7-1.8-4-2.9
	c-0.8-0.7-0.9-1.7-0.2-2.4c0.7-0.8,1.5-0.5,2.1,0c0.7,0.5,1.4,1,2.2,1.4c0.2,0.1,0.4,0.3,0.6,0c0.2-0.2,0-2.6-0.3-2.9
	c-1.5-1.1-2.5-2.6-3.7-3.9c-0.7-0.7-1.1-1.4-0.4-2.3c0.5-0.7,1.5-0.7,2.5-0.1c0.8,0.5,1.2,1.3,2.2,1.8c0-1.2,0-2.2,0-3.2
	c0-0.9,0-1.9,0.6-2.6c0.3-0.4,0.7-0.9,1.3-0.7c0.6,0.2,1.2,0.4,1.3,1.1c0.1,0.5,0.2,1.1,0.2,1.7c0,1.3,0,2.6,0,4
	c0.9-0.4,1.3-1.1,1.8-1.6c0.7-0.8,1.4-1.6,2.4-0.8c1,0.7,0.3,1.7,0,2.5c-0.6,1.9-2.3,2.8-3.6,4.1c-0.3,0.3-0.6,0.5-0.5,1
	C44.1,78.9,44.1,79.8,44.1,80.8z M41.5,98.3c-2.7,0.1-4.6,0.2-6.5,0.3c-0.7,0-0.9,0.2-0.8,0.9c0.3,2.6,0.7,5.3,0.9,7.9
	c0.1,1,0.5,1.4,1.5,1.3c2.2-0.1,4.3,0,6.5-0.2c1.9-0.1,3.8,0,5.6,0c0.7,0,1.2-0.1,1.2-1.1c0.2-2.8,0.6-5.7,0.9-8.5
	c0.1-0.7-0.3-0.6-0.7-0.6C47,98.3,43.8,98.4,41.5,98.3z"/>
<path class="st0" d="M118.6,192.8c-1.2,3.4-2.3,6.7-3.5,10.1c-0.3,0.9-0.7,1.8-1.3,2.6c-0.7,0.9-4.6,1.3-5.5,0.5
	c-0.5-0.4-0.8-0.8-0.9-1.5c-1.7-7-3.3-13.9-5-20.9c-0.3-1.3-0.7-2.6-0.9-3.9c-0.2-1.5,0.5-2.5,2-2.7c0.6-0.1,1.2-0.2,1.8-0.1
	c1,0.1,1.8,0.6,2.1,1.7c1.1,4.7,2.4,9.3,3.4,14c0.2,1.1,0.6,2.2,0.9,3.5c0.6-0.9,0.6-1.8,0.9-2.6c1.3-3.1,2.2-6.4,3.3-9.6
	c0.7-2.1,1.4-2.6,3.6-2.6c1,0,1.4,0.5,1.8,1.3c1.4,3.3,2.5,6.7,3.6,10.1c0.3,0.9,0.7,1.9,1.1,3c0.8-2.5,1.3-4.8,1.8-7.2
	c0.8-3.3,1.6-6.7,2.5-10c0.5-1.9,2-2.4,4.3-1.7c1.1,0.3,1.5,1.5,1.2,3.1c-1.1,5.1-2.5,10.1-3.5,15.2c-0.6,2.9-1.5,5.8-2.1,8.7
	c-0.4,1.7-1.2,2.3-3,2.4c-0.7,0-1.4,0-2.2-0.1c-1.1-0.2-1.7-0.9-2.1-1.9c-1.2-3.6-2.4-7.2-3.7-10.7C119,193.4,119,193,118.6,192.8z"
	/>
<path class="st0" d="M146.7,200.5c0,1.2,0.1,2.5,0,3.7c-0.1,1.4-0.8,2-2.1,2c-0.2,0-0.3,0-0.5,0c-2.8,0.3-3.4-0.9-3.3-3.4
	c0-3.6,0.1-7.2,0.1-10.9c0-4.2,0-8.5,0.1-12.7c0-1.2,0.8-2.2,2-2.3c4.3-0.4,8.6-1.1,12.9,0.4c3.3,1.1,5.5,3.2,6.1,6.7
	c0.6,3.7-0.3,6.9-3.5,9.3c-1.5,1.1-1.5,1.1-0.6,2.7c1.3,2.4,3,4.4,4.5,6.6c0.5,0.7,0.8,1.5,0.4,2.3c-0.5,0.9-1.3,1.3-2.3,1.3
	c-1.5,0-3.1,0.1-4-1.4c-0.5-0.9-1.1-1.8-1.6-2.8c-1.1-2-2.5-3.8-3.5-5.9c-0.2-0.5-0.7-0.6-1.2-0.5c-0.2,0-0.5,0.2-0.7,0.2
	c-0.9,0.1-2.2-0.3-2.6,0.4c-0.4,0.7-0.2,1.8-0.2,2.8C146.7,199.5,146.7,200,146.7,200.5C146.7,200.5,146.7,200.5,146.7,200.5z
	 M146.7,186.2C146.7,186.2,146.8,186.2,146.7,186.2c0.1,1.2,0.2,2.4,0,3.6c-0.1,0.8,0.3,0.9,0.8,0.9c1.7,0,3.4-0.2,5.1-0.6
	c2-0.5,3.3-2.2,3.2-4.2c-0.1-2-1-3.1-3.3-3.8c-1.6-0.4-3.3-0.1-4.9-0.3c-1-0.2-1,0.2-1,0.9C146.7,183.9,146.7,185,146.7,186.2z"/>
<path class="st0" d="M60.2,200.4c0,0.9,0.1,1.8,0,2.6c-0.2,2.7-0.3,2.9-2.9,3.2c-2,0.2-3.1-0.8-3.1-2.9c-0.2-7.2,0.3-14.5,0.2-21.7
	c0-0.7,0-1.4,0-2c0.1-1.6,0.8-2.3,2.3-2.5c2.7-0.3,5.4-0.7,8.1-0.4c5.6,0.7,10,4.2,9.5,10.3c-0.2,2.7-1.5,5-3.9,6.5
	c-1.8,1.2-1.8,1.2-0.5,3c1.4,2.1,2.8,4.2,4.1,6.4c0.9,1.5-0.1,3.1-2,3.3c-1.8,0.1-3.2-0.3-4.2-2.1c-1.3-2.4-2.9-4.8-4.4-7.2
	c-0.4-0.6-2.7-1-3.2-0.5c-0.2,0.2-0.2,0.5-0.2,0.8C60.2,198.3,60.2,199.3,60.2,200.4C60.2,200.4,60.2,200.4,60.2,200.4z M60.2,186.5
	C60.2,186.5,60.2,186.5,60.2,186.5c0,1.2,0,2.5,0,3.7c0,0.6,0.1,0.9,0.8,0.8c1-0.1,1.9,0,2.9-0.1c3.1-0.5,4.7-2.3,4.5-5.4
	c-0.1-1.6-1.5-3.3-3.1-3.5c-1.4-0.2-2.9-0.2-4.4-0.1c-0.6,0-0.7,0.2-0.7,0.8C60.3,183.9,60.2,185.2,60.2,186.5z"/>
<path class="st0" d="M28.1,198c0.1-6.1,0.4-12.3,0.1-18.4c-0.1-1.8,1-3,2.9-3c3.1,0,6.2,0,9.2,0.9c4.4,1.3,7.5,4.1,9,8.6
	c1.8,5.6,0.6,10.6-2.9,15.1c-2,2.5-4.9,3.7-8,4.3c-2.8,0.6-5.7,0.8-8.5,0.3c-0.1-0.1-0.2-0.1-0.3-0.2c0-0.1-0.1-0.1-0.1-0.1
	c-0.2-0.1-0.4-0.2-0.5-0.3c0,0,0,0,0,0c-0.7-0.7-0.5-1.6-0.8-2.4c0-0.2,0-0.3,0-0.5C28.2,200.9,28.3,199.5,28.1,198z M34.2,194.8
	C34.2,194.8,34.2,194.8,34.2,194.8c0,1.6,0,3.2,0,4.8c0,0.8,0.4,1.1,1,1c1.3-0.1,2.5-0.1,3.7-0.7c5.3-2.6,6.2-8.4,4.1-13.3
	c-1.5-3.5-4.4-4.7-8-4.7c-0.6,0-0.8,0.2-0.8,0.8C34.2,186.7,34.2,190.7,34.2,194.8z"/>
<path class="st0" d="M183,181.2c0-0.7,0-1.4,0-2c0.1-1.4,0.9-2.3,2.3-2.3c4.9,0,9.7,0,14.6,0.1c1.7,0,2.9,1.5,2.8,3.2
	c-0.1,1.3-1.6,2.8-3.3,2.3c-1-0.3-2.2,0-3.3,0c-2.1,0.1-4.2,0.1-6.3,0.2c-0.5,0-0.8,0.1-0.8,0.6c0,1.5,0,3,0,4.6
	c0,0.5,0.2,0.7,0.7,0.7c2.2,0,4.5,0,6.7,0c1.4,0,2.6,1,2.9,2.6c0.2,1.5-0.5,2.5-2,2.9c-1.6,0.3-3.2,0.1-4.8,0.2
	c-0.8,0-1.7,0-2.5-0.1c-0.9,0-1.2,0.3-1.2,1.2c0.1,1.3,0.1,2.5-0.1,3.8c-0.1,1,0.2,1.1,1,1.1c2.5-0.2,5.1,0.3,7.6-0.3
	c1.5-0.3,2.6,0.8,4,0.8c0,0,0,0,0,0c0.1,0.1,0.2,0.2,0.3,0.3c0,0.1,0.1,0.1,0.1,0.1c0,0,0,0,0,0c1,2.3,0.2,4.7-3,4.8
	c-2.1,0-4.2,0-6.3,0c-2.2,0-4.4-0.1-6.5,0.1c-1.7,0.1-2.5-0.3-3-1.7c-0.1-0.4-0.2-0.8-0.2-1.2c0-0.2,0-0.3,0-0.5c0-0.1,0-0.2,0-0.2
	c0-0.2,0-0.3,0-0.5c0-3.5,0.1-7,0.1-10.5C183.1,188,183,184.6,183,181.2z"/>
<path class="st0" d="M98.3,206.1c-2.2-0.1-2.9-0.7-3.6-3.3c-0.1-0.3-0.2-0.7-0.3-1c-0.8-2.8-0.9-2.9-3.8-2.9c-1.4,0-2.8,0-4.2,0
	c-1,0-1.4,0.4-1.7,1.3c-0.4,1.6-1,3.2-1.6,4.8c-0.4,1-1.1,1.5-2.2,1.4c-0.4,0-0.9,0-1.3,0c-1.8,0-2.7-1.3-2.1-3.1
	c0.9-2.7,2-5.4,2.8-8.1c1.6-4.9,3.4-9.8,4.6-14.8c0.9-3.7,3.9-4.5,6.4-3.5c1.3,0.5,1.7,1.6,2,2.6c1.8,5.4,3.6,10.9,5.4,16.4
	c0.8,2.4,1.5,4.9,2.5,7.3c0.6,1.6-0.5,3-2.2,3C98.8,206.1,98.5,206.1,98.3,206.1z M89.1,185.1c-0.8,2.8-1.6,5.5-2.4,8.3
	c-0.1,0.3,0,0.5,0.3,0.5c1.4,0,2.8,0.2,4.3-0.1c0.7-0.1,0.7-0.4,0.5-1C91.2,190.2,90.3,187.7,89.1,185.1z"/>
<path class="st0" d="M75.4,151.6c0.1-2.5,2.1-5.8,4.9-6.2c1.9-0.3,3-1.5,4.4-2.4c2.4-1.7,6.2-2.1,8.4,0c0.1,0.1,0.3,0.1,0.3,0.2
	c0.6,2,2.4,1.8,3.8,2.1c2.8,0.7,4.4,4.1,3.2,6.6c-0.5,0.9-0.8,1.8-0.3,2.9c0.5,1,0.1,2.1-0.4,3.1c-0.8,1.5-1.6,3.1-3.6,3.1
	c-2,0-4.2,0-6-1c-0.8-0.4-1.3-0.6-1.9,0.4c-0.4,0.8-1,1.4-1.9,1.8c-0.6,0.3-1.3,0.4-1.7-0.3c-0.4-0.6-0.6-1.2-0.2-1.9
	c0.1-0.1,0.1-0.2,0.2-0.3c0.3-0.4,0.9-0.8,0.5-1.3c-0.4-0.5-1-0.1-1.5,0c-1.7,0.2-3.6,0.6-5-0.3C76.4,156.7,75.2,154.7,75.4,151.6z
	 M87,154.8c0.4-0.9,0.7-1.7,1.1-2.5c0.4-0.8,1.1-1.2,2-0.9c0.8,0.3,1,1.1,0.8,1.9c-0.2,0.6-0.4,1.2-0.7,1.8
	c-0.2,0.4-0.6,1.2-0.1,1.4c1.3,0.5,2.4,1.4,3.9,1.5c1.4,0.1,3.1-1.5,2.6-2.4c-1-1.6-0.2-2.6,0.6-3.8c1-1.6,0.5-2.7-1.2-3.4
	c-0.6-0.2-1.2-0.2-1.8-0.2c-1.9,0.1-2.2,0-2.9-1.8c-0.4-1-1.1-1.4-2.1-1.5c-1.9-0.1-3.3,0.8-4.5,2c-0.9,1-2,1.4-3.2,1.6
	c-1.2,0.2-2.2,0.7-2.7,1.9c-0.5,1.5-0.4,3,0.8,4.2c1.1,1.1,2.3,1.1,3.7,0.6c-0.4-0.5-0.7-0.8-1-1.3c-0.3-0.5-0.5-1.1,0-1.7
	c0.4-0.6,1-0.4,1.5-0.2C85.2,152.6,86.1,153.6,87,154.8z"/>
<path class="st0" d="M175,182.9c0,3.5-0.1,7,0,10.5c0.1,3.5,0.1,6.9,0.1,10.4c0,1.7-1,2.5-2.6,2.4c-3-0.2-3.4-0.7-3.4-3.7
	c0.1-4.6-0.1-9.1,0-13.7c0.1-2.9,0-5.8-0.1-8.7c-0.1-2.9,2.4-4.3,4.9-3c0.7,0.4,1.1,0.9,1.1,1.7C175.3,180.1,175.3,181.5,175,182.9z
	"/>
<path class="st1" d="M201.6,200.7c-1.4,0-2.5-1.1-4-0.8c-2.5,0.6-5.1,0.1-7.6,0.3c-0.8,0.1-1.2-0.1-1-1.1c0.2-1.2,0.1-2.5,0.1-3.8
	c0-0.9,0.3-1.2,1.2-1.2c0.8,0,1.7,0,2.5,0.1c-0.6,0.5-1.3,0.5-1.9,0.4c-1.2-0.2-1.5,0.2-1.5,1.3c0.1,1,0,2,0,3c0,0.8,0.3,1.2,1,1
	c2.7-0.6,5.5,0,8.3-0.4C199.6,199.4,200.9,199.7,201.6,200.7z"/>
<path class="st1" d="M30.4,99.7c0.5,1.7,0.7,3.4,0.9,5.2c0.2,1.2,0.3,2.4,0.4,3.7c-3.5,0-7,0-10.5,0c2.1-0.3,4.2-0.7,6.4-0.3
	c1.2,0.2,2.3-0.3,3.4,0c0.3,0.1,0.3-0.3,0.3-0.5c-0.3-1.9-0.5-3.9-0.8-5.8C30.3,101.2,30.4,100.5,30.4,99.7z"/>
<path class="st1" d="M183,181.2c0,3.4,0.1,6.8,0.1,10.2c0,3.5,0,7-0.1,10.5c-0.3-0.3-0.2-0.7-0.2-1c0-6.2,0-12.4,0-18.6
	C182.8,181.9,182.7,181.5,183,181.2z"/>
<path class="st1" d="M30.5,96.2c-0.4,1.2,0.1,2.4-0.1,3.5C30.2,98.6,29.2,97.4,30.5,96.2z"/>
<path class="st1" d="M28.1,198c0.2,1.4,0,2.9,0,4.3C27.8,200.9,27.8,199.5,28.1,198z"/>
<path class="st1" d="M28.1,202.9c0.3,0.8,0.1,1.7,0.8,2.4C27.7,204.8,27.8,203.8,28.1,202.9z"/>
<path class="st1" d="M183,203.1c0.1,0.4,0.2,0.8,0.2,1.2C182.6,204,182.8,203.6,183,203.1z"/>
<path class="st1" d="M28.9,205.3c0.2,0.1,0.4,0.2,0.5,0.3C29.1,205.8,29,205.6,28.9,205.3z"/>
<path class="st1" d="M30.7,95.9c-0.1,0.1-0.2,0.3-0.2,0.4C30.4,96,30.4,95.8,30.7,95.9z"/>
<path class="st1" d="M201.9,201c-0.1-0.1-0.2-0.2-0.3-0.3C201.8,200.7,202,200.7,201.9,201z"/>
<path class="st1" d="M29.6,205.6c0.1,0.1,0.2,0.1,0.3,0.2c-0.1,0-0.2,0.1-0.3,0.1C29.6,205.8,29.6,205.7,29.6,205.6z"/>
<path class="st1" d="M30.9,95.5c0,0.1-0.1,0.2-0.1,0.3C30.7,95.6,30.8,95.5,30.9,95.5z"/>
<path class="st1" d="M202.1,201.2C202.1,201.2,202,201.1,202.1,201.2C202,201.1,202.1,201.1,202.1,201.2
	C202.1,201.1,202.1,201.1,202.1,201.2C202.1,201.1,202.1,201.1,202.1,201.2z"/>
<path class="st1" d="M183,202.4c0,0.1,0,0.2,0,0.2C183,202.6,183,202.5,183,202.4C182.9,202.4,183,202.4,183,202.4z"/>
<path class="st2" d="M139.1,132.2c-0.2,0.3,0.3,0.8-0.3,1.1c-0.8,0.3-1.2,0-1.2-0.9c0-0.6,0.1-1.2,0.1-1.8c0-0.6,0.4-0.7,0.8-0.7
	c0.5,0,0.4,0.3,0.4,0.7C139,131.1,139.1,131.6,139.1,132.2z"/>
<path class="st2" d="M96.8,124c1.3,0.9,2.2,2,1.6,3.7C97.9,126.5,97.3,125.3,96.8,124z"/>
<path class="st0" d="M121.1,67c-1.8-0.2-3.1-0.5-4.2-1.2c-0.3-0.2-0.5-0.4-0.7-0.6c-0.3-0.5-0.5-1.1-0.1-1.6
	c0.5-0.5,1.1-0.4,1.6-0.2c0.8,0.4,1.6,0.7,2.5,0.8c1.7,0.2,3.3,0,4.5-1.4c0.2-0.3,0.5-0.5,0.9-0.6c0.8-0.2,1.4,0.2,1.3,1
	c0,1.2-0.8,1.9-1.7,2.5C123.9,66.7,122.3,67.1,121.1,67z"/>
<path class="st0" d="M110.3,81.6c-1.8-0.2-3.1-0.5-4.2-1.2c-0.3-0.2-0.5-0.4-0.7-0.6c-0.3-0.5-0.5-1.1-0.1-1.6
	c0.5-0.5,1.1-0.4,1.6-0.2c0.8,0.4,1.6,0.7,2.5,0.8c1.7,0.2,3.3,0,4.5-1.4c0.2-0.3,0.5-0.5,0.9-0.6c0.8-0.2,1.4,0.2,1.3,1
	c0,1.2-0.8,1.9-1.7,2.5C113.1,81.3,111.5,81.7,110.3,81.6z"/>
<path class="st0" d="M98.3,67.2C96.4,67,95.2,66.8,94,66c-0.3-0.2-0.5-0.4-0.7-0.6c-0.3-0.5-0.5-1.1-0.1-1.6
	c0.5-0.5,1.1-0.4,1.6-0.2c0.8,0.4,1.6,0.7,2.5,0.8c1.7,0.2,3.3,0,4.5-1.4c0.2-0.3,0.5-0.5,0.9-0.6c0.8-0.2,1.4,0.2,1.3,1
	c0,1.2-0.8,1.9-1.7,2.5C101,66.9,99.4,67.2,98.3,67.2z"/>
<path class="st0" d="M144.1,158.3c-2.9-0.5-5.8-0.2-8.7,0.1c-3.6,0.4-7.2,0.4-10.8,1.1c-1,0.2-1.9,0.6-3,0.7
	c-1.1,0.1-1.9-0.1-2.6-1.1c-0.6-1-0.5-1.9,0-2.8c0.7-1.3,1.7-2.4,3-3.2c0.6-0.3,0.7-0.7,0.2-1.2c-0.4-0.5-0.8-1-1.1-1.7
	c-0.6-1.5-0.3-2.6,1-3.6c1.1-0.9,2.4-2.1,3.8-1.7c1.7,0.4,2.6-0.1,4-1.1c2.4-1.8,5.6-0.7,6.9,1.9c0.3,0.6,0.4,0.4,0.9,0.3
	c1.2-0.2,2.5-0.6,3.6,0.3c1.6,1.2,2,2.2,1.4,4.1c-0.2,0.6-0.2,0.8,0.5,1.2c1.5,0.6,2.7,1.6,3.6,3c0.5,0.8,0.9,1.6,0.3,2.5
	c-0.5,0.9-1.3,1.2-2.2,1C144.6,158.2,144.3,158.3,144.1,158.3z"/>
<path class="st0" d="M178.2,50c0.1,3.3-2.9,5.6-5,5.6c-3,0.1-5-1.9-5.2-5.1c-0.2-2.9,2.1-5.1,5.3-5.2C176,45.2,178.1,47.2,178.2,50z
	 M175.7,50.1c0-1.3-0.8-2.1-2.3-2.2c-1.3-0.1-2.6,1.4-2.6,2.8c0,1.3,1,2.4,2.2,2.4C174.3,53,175.6,51.6,175.7,50.1z"/>
<path class="st0" d="M178.2,44.5c0-1.1,2.3-2.9,3.3-2.6c0.6,0.2,0.9,0.5,0.6,1.2c-0.4,1.2-1.3,2-2.4,2.5
	C179,45.9,178.2,45.3,178.2,44.5z"/>
<path class="st0" d="M174.4,41.7c0,0.3,0,0.6,0,1c0.1,0.7-0.3,1.2-1,1.2c-0.8,0-1.5-0.3-1.5-1.2c0-0.8,0.1-1.6,0.2-2.4
	c0.1-0.7,0.5-1,1.2-1c0.7,0,0.9,0.6,1,1.1C174.5,40.8,174.5,41.3,174.4,41.7C174.5,41.7,174.4,41.7,174.4,41.7z"/>
<path class="st0" d="M168.9,44.9c0,0.8-1,1.3-1.7,0.9c-0.7-0.5-1.3-1-1.9-1.6c-0.6-0.5-0.4-1.2,0-1.7c0.4-0.5,0.9-0.4,1.4,0
	c0.7,0.5,1.5,0.9,2,1.7C168.7,44.4,168.9,44.6,168.9,44.9z"/>
<path class="st0" d="M163.9,52.1c-0.6,0.1-1.2-0.2-1.3-1.1c-0.1-0.6,1.4-1.4,2.7-1.5c0.8,0,1.1,0.5,1.2,1.2c0.1,1.2-0.9,1-1.5,1.2
	C164.7,52.1,164.4,52.1,163.9,52.1z"/>
</svg>
