<?xml version="1.0" encoding="utf-8"?>
<!-- Generator: Adobe Illustrator 24.1.2, SVG Export Plug-In . SVG Version: 6.00 Build 0)  -->
<svg version="1.1" id="Layer_1" xmlns="http://www.w3.org/2000/svg" xmlns:xlink="http://www.w3.org/1999/xlink" x="0px" y="0px"
	 viewBox="0 0 238.2 229.8" enable-background="new 0 0 238.2 229.8" xml:space="preserve">
<path fill="#1E495A" d="M0.23,231.77c0.06-3,0.14-6.01,0.16-9.01c0.04-6.03-0.1-12.07,0.03-18.11c0.1-4.73-0.08-9.47-0.1-14.21
	c-0.01-3.15,0-6.29,0.07-9.44c0.03-1.44-0.33-2.89,0.1-4.32c0.78,0.09,1.57,0.12,2.34,0.27c4.67,0.89,9.42,1.17,14.14,1.72
	c3.26,0.38,6.52,0.79,9.78,1.18c2.66,0.32,5.34,0.54,8,0.86c3.63,0.44,7.24,1.01,10.87,1.43c5.47,0.64,10.96,1.2,16.44,1.8
	c3.5,0.38,7.01,0.77,10.51,1.16c0,4.37,0.02,8.73-0.01,13.1c-0.01,1.22,0.3,1.98,1.8,2.14c1.56,0.16,3.08,0.64,4.63,0.92
	c7.33,1.36,14.61,2.89,21.84,4.66c4.5,1.1,9.08,1.79,13.6,2.8c5.38,1.2,10.75,2.43,16.18,3.43c0.86,0.16,1.64,0.68,2.57,0.47
	c0.54,0.04,1.07,0.08,1.61,0.12c0.17,0.07,0.33,0.17,0.51,0.2c4.72,0.98,9.42,2.02,14.15,2.93c8.83,1.69,17.57,3.75,26.44,5.3
	c3.65,0.64,7.22,1.61,10.88,2.24c5.89,1.02,11.69,2.47,17.55,3.64c5.63,1.13,11.26,2.32,16.88,3.49c1.94,0.4,3.96,0.44,5.81,1.22
	C151.4,231.77,75.81,231.77,0.23,231.77z"/>
<path fill="#0D3543" d="M226.98,231.77c-1.85-0.78-3.87-0.82-5.81-1.22c-5.63-1.17-11.25-2.37-16.88-3.49
	c-5.86-1.17-11.66-2.63-17.55-3.64c-3.66-0.63-7.23-1.61-10.88-2.24c-8.86-1.54-17.61-3.61-26.44-5.3
	c-4.73-0.91-9.44-1.94-14.15-2.93c-0.18-0.04-0.34-0.13-0.51-0.2c0.47-0.52,1.21-0.35,1.8-0.6c2.64-1.09,5.3-2.14,7.99-3.1
	c11.18-4.02,22.59-7.47,33.67-11.74c2.28,0.35,4.55,0.72,6.83,1.05c5.83,0.83,11.66,1.68,17.5,2.45c4.51,0.6,9.07,0.94,13.56,1.67
	c6.69,1.09,13.45,1.71,20.16,2.66c0.52,0.99,0.08,2.07,0.27,3.09c-0.02,0.09-0.04,0.18-0.07,0.27c-0.39,0.42-0.23,0.93-0.23,1.4
	c0,3.15-0.07,6.31,0.3,9.46c-0.02,0.09-0.02,0.17,0.01,0.25c-0.06,0.07-0.17,0.13-0.17,0.2c0.28,4,0.05,8,0.13,12
	C233.34,231.77,230.16,231.77,226.98,231.77z"/>
<path fill="#E89704" d="M72.55,185.11c-3.5-0.39-7.01-0.78-10.51-1.16c-5.48-0.6-10.96-1.16-16.44-1.8
	c-3.63-0.42-7.24-0.99-10.87-1.43c-2.66-0.32-5.33-0.54-8-0.86c-3.26-0.4-6.52-0.8-9.78-1.18c-4.71-0.55-9.47-0.84-14.14-1.72
	c-0.77-0.15-1.56-0.18-2.34-0.27c-0.04-3.79-0.11-7.58-0.1-11.36c0.01-7,0.09-14.01,0.09-21.01c0-9.34-0.07-18.67-0.06-28.01
	C0.41,106.27,0.5,96.23,0.49,86.2c0-8.37-0.11-16.73-0.12-25.1c-0.01-6.07,0.11-12.13,0.09-18.2c-0.03-7.66-0.12-15.31-0.22-22.97
	c-0.05-3.84-0.29-7.68-0.24-11.51c0.03-1.92,0.26-3.85,0.22-5.78C0.21,1.84,0.83,1.99,1.31,2C4.9,2.07,8.49,2.22,12.08,2.23
	c12.47,0.03,24.93,0.01,37.4,0.01c10.36,0,20.73,0.08,31.09-0.03c6.61-0.07,13.22-0.13,19.83-0.12c8.53,0,17.07-0.06,25.6-0.04
	c4.8,0.01,9.6-0.09,14.41,0.12c3.71,0.16,7.44-0.21,11.15-0.12c8.43,0.22,16.86,0,25.29,0.05c19.42,0.1,38.84-0.03,58.27-0.12
	c1.33-0.01,1.72,0.28,1.71,1.57c-0.07,13.99-0.09,27.98-0.1,41.97c-0.01,8.42,0.03,16.85,0.03,25.27c0,9.87-0.03,19.74-0.03,29.61
	c0,8.48,0.04,16.96,0.04,25.43c0,13.5-0.02,26.99-0.04,40.49c-0.52-0.37-1.07-0.71-1.55-1.12c-2.96-2.49-5.86-5.05-8.86-7.5
	c-5.4-4.4-10.85-8.75-16.31-13.09c-0.57-0.46-0.76-0.91-0.74-1.58c0.18-7.73-0.22-15.46,0-23.2c0.26-9.35-0.14-18.71,0.26-28.06
	c0.23-5.24,0.04-10.49,0.04-15.74c0-6.31,0.01-12.63,0.02-18.94c0-5.56,0-11.13,0.01-16.69c0-0.73-0.05-1.38-1.11-1.24
	c-3.66,0.49-7.35,0.16-11.03,0.38c-4.32,0.27-8.66,0.39-12.99,0.54c-6.1,0.22-12.2,0.53-18.29,0.86c-1.25,0.07-2.5,0.2-3.76,0.22
	c-2.88,0.06-5.75-0.02-8.63,0.24c-2.22,0.2-4.47,0.32-6.7,0.28c-1.98-0.04-3.07,0.74-3.06,2.56c0.01,2.32-0.02,4.64,0.01,6.96
	c0.04,2.98,0.31,5.97,0.14,8.95c-0.13,2.38-0.14,4.76-0.16,7.14c-0.06,7.33-0.08,14.66-0.11,21.99c-0.53-0.36-1.07-0.71-1.59-1.08
	c-6.94-4.99-13.87-10-20.83-14.97c-8-5.72-16.13-11.27-24.53-16.45c-1.77-1.09-3.37-2.42-5.54-3.46c0,4.08,0.01,7.91,0,11.74
	c-0.04,9.29-0.11,18.59-0.13,27.88c-0.02,10.07,0.01,20.14-0.03,30.21c0,0.93,0.28,1.55,1.06,2.11c6.14,4.39,12.25,8.8,18.37,13.22
	c2.18,1.58,4.43,3.06,6.47,4.8c-0.38,0.31-0.87,0.26-1.32,0.34c-2.47,0.44-4.96,0.85-7.37,1.53c-0.6,0.9-0.57,1.93-0.58,2.93
	c-0.03,3.57-0.02,7.15-0.03,10.72c-0.87,0.13-1.75,0.25-2.61,0.4c-4.33,0.77-8.67,1.48-12.92,2.6c-0.81-0.07-1.52-0.03-1.46,1.03
	c0.25,4.67,0.32,9.34-0.14,14c-0.26,0.29-0.63,0.3-1,0.38c-5.19,1.13-10.37,2.27-15.56,3.41c-0.99-0.09-1.26,0.53-1.36,1.27
	C72.69,182.96,72.46,184.02,72.55,185.11z M83.98,54.39c0.02,0,0.03,0,0.05,0c0-1.63-0.05-3.27,0.02-4.9
	c0.04-0.99-0.31-1.62-1.16-2.21c-4.93-3.42-10.03-6.59-15.02-9.93c-9.18-6.13-18.31-12.32-27.91-17.87
	c-0.5-0.29-1.02-0.86-1.61-0.57c-0.62,0.32-0.29,1.05-0.3,1.59c-0.02,8.98,0,17.97-0.01,26.95c0,4.53-0.07,9.06-0.06,13.59
	c0.01,4.03,0.01,8.05-0.09,12.08c-0.09,4.05,0.01,8.1-0.07,12.14c-0.01,0.69,0.19,1.03,0.73,1.4c2.98,2.05,5.97,4.09,8.9,6.2
	c4.97,3.58,9.96,7.13,14.9,10.74c6.72,4.9,13.5,9.72,20.16,14.7c0.28,0.21,0.5,0.64,0.91,0.5c0.52-0.18,0.3-0.68,0.3-1.05
	c0.02-4.02,0.01-8.05,0.06-12.07c0.1-8.64,0-17.28,0.16-25.92C84.1,71.32,83.98,62.85,83.98,54.39z"/>
<path fill="#C74809" d="M143.93,89.27c0.03-7.33,0.05-14.66,0.11-21.99c0.02-2.38,0.03-4.76,0.16-7.14c0.16-2.97-0.1-5.96-0.14-8.95
	c-0.03-2.32,0-4.64-0.01-6.96c-0.01-1.82,1.08-2.6,3.06-2.56c2.23,0.04,4.47-0.08,6.7-0.28c2.88-0.26,5.75-0.18,8.63-0.24
	c1.25-0.03,2.5-0.16,3.76-0.22c6.09-0.33,12.19-0.64,18.29-0.86c4.33-0.15,8.67-0.28,12.99-0.54c3.68-0.23,7.37,0.11,11.03-0.38
	c1.06-0.14,1.11,0.52,1.11,1.24c-0.01,5.56-0.01,11.13-0.01,16.69c0,6.31-0.01,12.63-0.02,18.94c0,5.25,0.18,10.5-0.04,15.74
	c-0.4,9.35,0,18.71-0.26,28.06c-0.21,7.74,0.18,15.47,0,23.2c-0.02,0.67,0.17,1.13,0.74,1.58c5.46,4.34,10.91,8.69,16.31,13.09
	c3,2.45,5.9,5,8.86,7.5c0.48,0.41,1.03,0.75,1.55,1.12c-0.39,0.8,0.06,1.59,0.04,2.38c-0.05,2.68-0.25,5.36-0.25,8.05
	c0,3.29,0.2,6.58,0.22,9.87c0.03,6.16-0.01,12.33-0.02,18.49c-0.15,0.01-0.31,0.02-0.46,0.03c-6.71-0.95-13.47-1.57-20.16-2.66
	c-4.49-0.73-9.04-1.07-13.56-1.67c-5.84-0.77-11.67-1.62-17.5-2.45c-2.28-0.33-4.55-0.7-6.83-1.05c-0.02-5.33,0-10.66-0.07-15.98
	c-0.11-8.76-0.3-17.52-0.43-26.28c-0.03-2.06,0.34-4.13,0.09-6.2c0.17-0.24,0.44-0.29,0.71-0.36c4.84-1.06,9.67-2.13,14.51-3.19
	c3.83-0.84,7.66-1.69,11.49-2.53c0.48-0.27,0.27-0.71,0.26-1.08c-0.01-3-0.09-6.01-0.06-9.01c0.1-10.77,0.29-21.54,0.33-32.31
	c0.07-16.29-0.2-32.58,0.18-48.87c0.03-1.43-0.34-1.76-1.87-1.77c-7.93-0.05-15.86,0.23-23.79,0.47c-2.57,0.08-5.14,0.01-7.7,0.11
	c-4.69,0.18-9.38,0.43-14.08,0.26c-1-0.04-1.71,0.19-1.74,1.37c-0.03,1.28,0.01,2.55-0.01,3.82c-0.12,6.79,0.02,13.58-0.16,20.37
	c-0.31,11.72,0.04,23.46-0.32,35.19c-0.27,8.95,0.2,17.91-0.33,26.86c-2.19,0.25-4.38,0.59-6.59,0.72
	c-1.53,0.09-3.01,0.88-4.58,0.31c-0.45-3.54-0.36-7.09-0.13-10.64c0.01-0.57,0.05-1.14,0.02-1.71c-0.14-2.89,0.22-5.79-0.15-8.68
	c0-0.24-0.01-0.49-0.01-0.73c0.05-0.17,0.14-0.33,0.14-0.5c0-5.17,0-10.35,0-15.52C143.94,97.37,143.93,93.32,143.93,89.27z"/>
<path fill="#E89704" d="M14.81,205.85c1.2,0,2.41,0,3.61,0c0.36,0,0.72-0.02,1.08-0.09c0.48-0.1,0.84,0.02,0.81,0.61
	c-0.03,0.58,0.32,1.31-0.07,1.7c-0.38,0.39-1.12-0.01-1.7-0.03c-0.83-0.04-1.66,0.07-2.5,0.03c-0.92-0.04-1.84-0.04-2.76-0.05
	c-0.36,0-0.45,0.1-0.47,0.45c-0.04,0.69,0.14,1.37,0.1,2.06c-0.02,0.26,0.13,0.32,0.36,0.29c1.2-0.18,2.4,0.09,3.61-0.05
	c0.52-0.06,1.06,0.06,1.6,0.02c0.62-0.04,0.79,0.22,0.77,0.82c-0.06,1.4-0.02,1.41-1.49,1.4c-1.48-0.01-2.95-0.03-4.42-0.07
	c-0.45-0.01-0.62,0.05-0.47,0.54c0.22,0.73-0.03,1.49-0.08,2.23c-0.04,0.55,0.13,0.68,0.7,0.64c1.9-0.14,3.81,0.08,5.71-0.12
	c1.01-0.11,1.1,0.03,1.1,0.96c0,0.1,0,0.2,0,0.31c0.02,1.23,0.02,1.2-1.27,1.17c-1.27-0.04-2.54-0.01-3.8-0.02
	c-1.52-0.01-3.04-0.03-4.56-0.04c-0.42,0-0.59-0.14-0.63-0.56c-0.12-1.26-0.03-2.52-0.04-3.78c-0.02-2.35-0.04-4.7-0.06-7.05
	c0-0.12-0.03-0.24-0.03-0.36c0.03-0.99,0.08-1.02,1.11-1.01C12.27,205.86,13.54,205.85,14.81,205.85
	C14.81,205.85,14.81,205.85,14.81,205.85z"/>
<path fill="#E89704" d="M39.15,216.98c-1.09,1.29-2.49,1.57-4.03,1.25c-1.72-0.36-2.56-1.62-2.93-3.13
	c-0.38-1.54-0.1-3.03,0.91-4.33c1.25-1.61,4.13-2.18,5.83-0.06c0.19-0.13,0.16-0.35,0.13-0.48c-0.18-0.74,0.27-0.81,0.86-0.77
	c0.28,0.02,0.56,0.04,0.84,0.02c0.98-0.08,1-0.09,0.98,0.81c-0.03,1.36-0.13,2.72-0.09,4.07c0.03,0.99,0.12,1.99,0.08,2.98
	c-0.02,0.62-0.07,1.26-0.23,1.87c-0.41,1.55-1.54,2.42-3.15,2.73c-1.42,0.28-2.81,0.16-4.17-0.34c-1.14-0.42-1.73-1.29-2.12-2.3
	c-0.1-0.27-0.1-0.53,0.43-0.45c0.58,0.09,1.2,0.04,1.8,0c0.34-0.02,0.52,0.06,0.58,0.38c0.11,0.55,0.51,0.8,1.05,0.95
	c1.46,0.39,2.91-0.24,3.08-1.39C39.1,218.2,39.11,217.59,39.15,216.98z M34.72,213.97c0.02,0.31,0.03,0.72,0.16,1.11
	c0.37,1.08,1.04,1.45,2.5,1.39c0.75-0.03,1.46-0.66,1.63-1.5c0.18-0.9,0.08-1.79-0.32-2.63c-0.56-1.21-2.03-1.51-3.09-0.65
	C34.88,212.27,34.71,213.04,34.72,213.97z"/>
<path fill="#E89704" d="M86.61,210.62c0-1.38,0.01-2.75-0.01-4.11c-0.01-0.47,0.09-0.72,0.68-0.66c0.59,0.06,1.2,0.02,1.8,0.01
	c0.32-0.01,0.47,0.07,0.41,0.42c-0.21,1.25-0.07,2.51-0.06,3.77c0.01,1.17-0.1,2.35-0.11,3.52c-0.01,1.56,0.02,3.12,0.06,4.68
	c0.01,0.32-0.1,0.44-0.44,0.43c-0.41-0.02-0.82-0.01-1.23,0c-0.89,0.01-0.9,0.01-0.84-0.83c0.01-0.14,0.1-0.3-0.08-0.37
	c-0.18-0.07-0.28,0.1-0.35,0.2c-1.05,1.71-3.09,1.54-4.54,0.84c-1.69-0.81-2.24-2.29-2.34-3.93c-0.08-1.29,0.08-2.56,0.91-3.69
	c1.1-1.49,3.22-2.07,4.96-1.32C85.98,209.8,86.25,210.27,86.61,210.62z M82.34,214.15c-0.07,0.72,0.11,1.38,0.51,1.98
	c0.52,0.77,1.33,0.89,2.2,0.79c0.79-0.1,1.32-0.53,1.56-1.26c0.3-0.9,0.33-1.81,0.15-2.74c-0.17-0.85-0.68-1.36-1.53-1.61
	c-0.76-0.22-1.43-0.09-2.05,0.4C82.33,212.37,82.4,213.27,82.34,214.15z"/>
<path fill="#E89704" d="M28.21,210.69c-0.12-1.47-0.12-2.85-0.07-4.24c0.02-0.45,0.12-0.61,0.62-0.58c0.64,0.04,1.28,0,1.92-0.01
	c0.25,0,0.34,0.11,0.31,0.34c-0.16,1.38-0.03,2.76-0.05,4.14c-0.02,1.56-0.03,3.13-0.06,4.7c-0.02,1.04-0.03,2.08,0.01,3.11
	c0.02,0.46-0.15,0.58-0.58,0.53c-0.26-0.02-0.52-0.01-0.77,0c-1.05,0.01-1.04,0.01-1.11-0.94c-0.01-0.09,0.05-0.21-0.07-0.27
	c-0.16-0.07-0.23,0.07-0.32,0.14c-0.28,0.22-0.4,0.57-0.7,0.79c-1.33,0.98-3.82,0.65-5-0.68c-1.62-1.83-1.6-5.2-0.24-6.94
	C23.66,208.78,26.29,208.72,28.21,210.69z M28.45,214.09c-0.05-0.33-0.1-0.67-0.14-1.01c-0.15-1.09-0.97-1.87-1.99-1.88
	c-1.3-0.01-2.11,0.62-2.34,1.79c-0.11,0.54-0.15,1.1-0.1,1.64c0.07,0.82,0.23,1.65,1.14,2.06c0.82,0.37,1.67,0.44,2.42-0.12
	C28.27,215.96,28.31,215.01,28.45,214.09z"/>
<path fill="#E89704" d="M72.53,214.62c-1.55,0-3.09,0.02-4.64-0.01c-0.42-0.01-0.45,0.17-0.41,0.47c0.11,0.97,0.71,1.66,1.6,1.83
	c1.15,0.22,1.97-0.09,2.51-1.01c0.12-0.21,0.24-0.3,0.49-0.29c0.58,0.03,1.16,0.07,1.74,0.08c0.38,0.01,0.5,0.13,0.34,0.48
	c-1,2.17-3.11,3.13-5.75,2.61c-2.12-0.42-3.63-2.32-3.65-4.52c-0.01-1.67,0.56-3.08,1.95-4.15c1.45-1.11,3.07-1.13,4.74-0.57
	c2.24,0.75,2.95,2.48,3.1,4.53c0.01,0.19,0.01,0.41-0.31,0.43C73.66,214.56,73.12,214.84,72.53,214.62z M67.72,213.1
	c1.26-0.03,2.53-0.06,3.79,0.03c0.07,0.03,0.1,0,0.1-0.06c0.16-1.44-1.54-2.36-2.96-1.84c-0.79,0.29-1.29,1.26-1.03,1.87
	C67.65,213.16,67.68,213.16,67.72,213.1z"/>
<path fill="#E89704" d="M50.86,214.6c-1.46,0-2.92,0-4.38,0c-0.77,0-0.83,0.08-0.65,0.8c0.21,0.82,0.68,1.39,1.59,1.54
	c1.09,0.18,1.84-0.14,2.39-0.99c0.06-0.09,0.1-0.18,0.17-0.25c0.08-0.08,2.32,0,2.42,0.08c0.14,0.12,0.09,0.26,0.02,0.39
	c-1.09,2.17-2.86,3.14-5.42,2.71c-2.33-0.39-3.93-2.22-3.97-4.44c-0.04-1.96,0.64-3.6,2.46-4.65c2.42-1.4,6.75-0.2,7.12,3.33
	c0.01,0.06,0.02,0.12,0.03,0.18c0.25,1.3,0.13,1.43-1.26,1.4c-0.17,0-0.34,0-0.52,0C50.86,214.66,50.86,214.63,50.86,214.6z
	 M49.53,213.13c0.07,0.06,0.14,0.06,0.21,0c0.11-0.05,0.14-0.13,0.14-0.24c-0.03-0.96-0.89-1.74-1.99-1.78
	c-1.12-0.04-2.02,0.64-2.14,1.6c-0.04,0.29,0.05,0.38,0.37,0.38C47.25,213.1,48.39,213.01,49.53,213.13z"/>
<path fill="#E89704" d="M57.25,212.65c-0.08,1.88-0.05,3.77,0.14,5.64c0.03,0.25-0.05,0.38-0.35,0.38c-0.71-0.01-1.42-0.01-2.13,0
	c-0.4,0.01-0.44-0.27-0.35-0.5c0.26-0.67,0-1.32-0.02-1.98c-0.02-0.79,0.01-1.58,0.07-2.37c0.05-0.71,0.02-1.43,0.01-2.15
	c0-0.3-0.13-0.45-0.49-0.4c-0.21,0.03-0.43,0.02-0.64,0c-0.24-0.02-0.41-0.13-0.37-0.39c0-0.02-0.01-0.04,0-0.06
	c0.1-0.4-0.31-0.84-0.03-1.18c0.28-0.33,0.77-0.1,1.17-0.14c0.23-0.02,0.29-0.11,0.28-0.31c-0.01-0.2,0.01-0.41,0-0.61
	c-0.08-1.79,1.01-2.82,3.06-2.9c0.39-0.01,0.78,0.04,1.16,0.02c0.72-0.03,0.73,0.41,0.7,0.89c-0.04,0.64-0.32,0.95-0.88,0.86
	c-1-0.17-1.29,0.35-1.33,1.11c0,0.02,0,0.04,0,0.06c-0.03,0.93-0.03,0.91,0.97,0.89c0.32-0.01,0.78-0.22,0.94,0.15
	c0.19,0.42,0.18,0.93,0.06,1.38c-0.08,0.3-0.47,0.23-0.74,0.24c-1.21,0.06-1.21,0.05-1.22,1.21
	C57.25,212.57,57.25,212.61,57.25,212.65z"/>
<path fill="#E89704" d="M78.33,213.83c-0.04,1.06,0.07,2.31-0.06,3.55c-0.03,0.26,0.05,0.52,0.05,0.78c0,0.46-0.28,0.73-0.75,0.61
	c-0.53-0.14-1.05-0.14-1.58-0.11c-0.26,0.01-0.48-0.01-0.44-0.35c0.13-1.24,0.06-2.48,0.07-3.72c0.02-1.71,0.13-3.42,0.07-5.13
	c-0.03-0.99-0.02-1.99-0.08-2.98c-0.03-0.44,0.14-0.55,0.58-0.53c0.58,0.03,1.16-0.01,1.74-0.04c0.28-0.02,0.4,0.08,0.39,0.34
	c-0.05,1.15,0,2.31-0.07,3.47c-0.05,0.77,0.07,1.57,0.07,2.35C78.33,212.6,78.33,213.13,78.33,213.83z"/>
<path fill="#E89704" d="M63.47,213.27c0,1.38,0,2.76,0,4.14c0,0.02,0,0.04,0,0.06c0.09,1.29,0.09,1.28-1.3,1.16
	c-0.3-0.03-0.61-0.05-0.9,0.01c-0.49,0.1-0.58-0.12-0.57-0.5c0.03-2.03,0.08-4.06,0.08-6.09c0-0.73-0.03-1.45,0.07-2.18
	c0.06-0.38,0.18-0.41,0.51-0.41c0.56,0.01,1.11,0.07,1.67-0.07c0.42-0.11,0.44,0.17,0.44,0.46
	C63.47,210.99,63.48,212.13,63.47,213.27C63.47,213.27,63.47,213.27,63.47,213.27z"/>
<path fill="#E89704" d="M62.16,208.04c-0.41,0-0.87,0.12-1.21-0.03c-0.49-0.21-0.06-0.68-0.1-1.03c-0.13-1.04-0.36-1.46,1.3-1.16
	c0.27,0.05,0.58,0.09,0.83,0.02c0.54-0.15,0.66,0.01,0.56,0.5c-0.07,0.34-0.03,0.68,0.03,1.03c0.12,0.65-0.03,0.76-0.71,0.71
	c-0.23-0.02-0.47,0-0.71,0C62.16,208.05,62.16,208.04,62.16,208.04z"/>
<path fill="#091918" d="M177.82,148.84c0.25,2.07-0.12,4.13-0.09,6.2c0.13,8.76,0.31,17.52,0.43,26.28
	c0.07,5.33,0.05,10.65,0.07,15.98c-11.08,4.27-22.49,7.72-33.67,11.74c-2.69,0.97-5.35,2.02-7.99,3.1c-0.59,0.24-1.33,0.08-1.8,0.6
	c-0.54-0.04-1.07-0.08-1.61-0.12c-0.02-1.96-0.22-3.94-0.01-5.87c0.38-3.51,0.11-7.02,0.23-10.52c0.05-1.56,0.03-3.12,0.04-4.67
	c1.36-0.46,2.74-0.87,4.08-1.38c3.44-1.32,6.95-2.4,10.57-3.17c0.79-0.02,0.98-0.46,1.01-1.13c0.04-0.89-0.29-1.75-0.26-2.61
	c0.14-4.23-0.4-8.47,0.28-12.69c1.74-0.45,3.48-0.9,5.23-1.35c2.98-0.76,6.09-1.05,8.9-2.38c0.98,0.07,1.27-0.31,1.18-1.26
	c-0.4-4.11-0.26-8.24-0.08-12.35c0.05-1.19-0.21-1.52-1.22-1.72c2.64,0.25,5-0.87,7.47-1.43
	C172.96,149.54,175.33,148.87,177.82,148.84z"/>
<path fill="#0D3543" d="M133.41,191.56c-0.01,1.56,0.01,3.12-0.04,4.67c-0.11,3.5,0.16,7.01-0.23,10.52
	c-0.21,1.94-0.01,3.91,0.01,5.87c-0.93,0.22-1.72-0.31-2.57-0.47c-5.43-1-10.8-2.22-16.18-3.43c-4.51-1.01-9.1-1.7-13.6-2.8
	c-7.23-1.77-14.52-3.29-21.84-4.66c-1.55-0.29-3.07-0.76-4.63-0.92c-1.5-0.16-1.81-0.92-1.8-2.14c0.03-4.37,0.01-8.73,0.01-13.1
	c-0.1-1.09,0.13-2.15,0.27-3.22c0.1-0.74,0.37-1.36,1.36-1.27c1.08,0.28,2.14,0.62,3.23,0.84c4.36,0.86,8.73,1.72,13.11,2.51
	c5.39,0.97,10.79,1.83,16.18,2.8c6.07,1.09,12.13,2.27,18.21,3.34C127.74,190.6,130.53,191.32,133.41,191.56z"/>
<path fill="#F8E9CB" d="M143.93,89.27c0.01,4.05,0.02,8.1,0.02,12.15c-0.33,5.34-0.09,10.68-0.14,16.02c0,0.24,0.01,0.49,0.01,0.73
	c-0.02,1.18-0.08,2.37-0.06,3.56c0.05,2.28-0.15,4.57,0.19,6.84c-0.23,3.55-0.33,7.1,0.13,10.64c-2.48,0.38-4.84,1.2-7.4,1.4
	c-3.77,0.29-7.51,1.01-11.26,1.53c-2.74,0.38-5.49,0.75-8.24,1.12c-2.04-1.74-4.29-3.23-6.47-4.8c-6.11-4.42-12.23-8.83-18.37-13.22
	c-0.78-0.56-1.07-1.18-1.06-2.11c0.04-10.07,0-20.14,0.03-30.21c0.02-9.29,0.09-18.59,0.13-27.88c0.02-3.83,0-7.66,0-11.74
	c2.17,1.04,3.78,2.37,5.54,3.46c8.4,5.19,16.53,10.74,24.53,16.45c6.96,4.97,13.89,9.98,20.83,14.97
	C142.86,88.56,143.4,88.91,143.93,89.27z"/>
<path fill="#F8E9CB" d="M83.98,54.39c0,8.46,0.12,16.93-0.03,25.39c-0.16,8.64-0.05,17.28-0.16,25.92
	c-0.05,4.02-0.03,8.05-0.06,12.07c0,0.37,0.22,0.87-0.3,1.05c-0.41,0.15-0.63-0.28-0.91-0.5c-6.66-4.98-13.44-9.8-20.16-14.7
	c-4.95-3.61-9.93-7.17-14.9-10.74c-2.93-2.11-5.92-4.15-8.9-6.2c-0.54-0.37-0.74-0.71-0.73-1.4c0.07-4.05-0.02-8.1,0.07-12.14
	c0.09-4.03,0.1-8.05,0.09-12.08c-0.01-4.53,0.05-9.06,0.06-13.59c0.01-8.98-0.01-17.97,0.01-26.95c0-0.54-0.33-1.27,0.3-1.59
	c0.58-0.3,1.1,0.28,1.61,0.57c9.6,5.54,18.73,11.73,27.91,17.87c4.99,3.33,10.09,6.51,15.02,9.93c0.86,0.59,1.2,1.22,1.16,2.21
	c-0.07,1.63-0.02,3.27-0.02,4.9C84.01,54.39,83.99,54.39,83.98,54.39z"/>
<path fill="#0D3543" d="M149.09,170.58c-0.68,4.22-0.14,8.46-0.28,12.69c-0.03,0.86,0.3,1.72,0.26,2.61
	c-0.03,0.67-0.23,1.11-1.01,1.13c-1.73-0.66-3.6-0.74-5.4-1.06c-4.34-0.77-8.76-1.15-13.06-2.06c-5.04-1.07-10.15-1.75-15.21-2.69
	c-7.2-1.34-14.47-2.36-21.71-3.55c-0.68-0.11-1.55-0.02-1.94-0.82c0.46-4.66,0.4-9.33,0.14-14c-0.06-1.06,0.65-1.1,1.46-1.03
	c1.17,0.87,2.62,0.94,3.98,1.04c5.76,0.45,11.42,1.5,17.11,2.31c3.95,0.56,7.86,1.46,11.82,1.91c5.5,0.62,10.92,1.63,16.4,2.38
	C144.14,169.78,146.61,170.2,149.09,170.58z"/>
<path fill="#0D3543" d="M163.09,151.51c1.01,0.2,1.27,0.54,1.22,1.72c-0.19,4.11-0.32,8.24,0.08,12.35c0.09,0.95-0.2,1.33-1.18,1.26
	c-1.85-0.36-3.69-0.87-5.57-1.06c-4.44-0.44-8.83-1.21-13.26-1.73c-7.56-0.88-15.05-2.24-22.62-3.11
	c-4.66-0.54-9.31-1.15-13.89-2.16c0.01-3.57,0-7.15,0.03-10.72c0.01-1-0.02-2.02,0.58-2.93c1.62,0.1,3.24,0.14,4.86,0.31
	c3.69,0.39,7.37,0.88,11.07,1.26c4.8,0.5,9.62,0.89,14.42,1.4c5.31,0.56,10.6,1.26,15.91,1.8
	C157.59,150.17,160.34,150.83,163.09,151.51z"/>
<path fill="#1E495A" d="M163.09,151.51c-2.75-0.67-5.5-1.33-8.35-1.62c-5.31-0.53-10.61-1.23-15.91-1.8
	c-4.8-0.51-9.62-0.9-14.42-1.4c-3.69-0.38-7.37-0.87-11.07-1.26c-1.61-0.17-3.24-0.21-4.86-0.31c2.42-0.68,4.9-1.1,7.37-1.53
	c0.45-0.08,0.94-0.03,1.32-0.34c2.75-0.37,5.49-0.74,8.24-1.12c3.75-0.52,7.49-1.25,11.26-1.53c2.56-0.2,4.92-1.02,7.4-1.4
	c1.57,0.57,3.05-0.22,4.58-0.31c2.2-0.13,4.39-0.47,6.59-0.72c1.39,0.46,2.85,0.27,4.28,0.42c3.58,0.38,7.19,0.58,10.79,0.86
	c3.76,0.29,7.53,0.32,11.28,0.78c3.45,0.42,6.91,0.93,10.38,1.08c4.24,0.18,8.41,0.76,12.58,1.45c-3.83,0.84-7.66,1.69-11.49,2.53
	c-4.84,1.07-9.67,2.13-14.51,3.19c-0.28,0.06-0.55,0.11-0.71,0.36c-2.49,0.03-4.86,0.7-7.25,1.24
	C168.09,150.63,165.74,151.75,163.09,151.51z"/>
<path fill="#1E495A" d="M90.73,176.82c0.4,0.8,1.26,0.71,1.94,0.82c7.23,1.2,14.5,2.22,21.71,3.55c5.06,0.94,10.17,1.63,15.21,2.69
	c4.3,0.91,8.72,1.3,13.06,2.06c1.8,0.32,3.67,0.4,5.4,1.06c-3.62,0.77-7.13,1.85-10.57,3.17c-1.34,0.51-2.72,0.92-4.08,1.38
	c-2.88-0.23-5.67-0.96-8.5-1.46c-6.08-1.06-12.13-2.25-18.21-3.34c-5.39-0.96-10.79-1.83-16.18-2.8c-4.38-0.79-8.74-1.65-13.11-2.51
	c-1.09-0.22-2.15-0.55-3.23-0.84c5.18-1.14,10.37-2.28,15.55-3.41C90.1,177.12,90.47,177.11,90.73,176.82z"/>
<path fill="#1E495A" d="M107.88,158.78c4.58,1.02,9.23,1.62,13.89,2.16c7.57,0.88,15.06,2.23,22.62,3.11
	c4.43,0.52,8.82,1.3,13.26,1.73c1.87,0.18,3.71,0.7,5.57,1.06c-2.81,1.33-5.92,1.62-8.9,2.38c-1.74,0.45-3.48,0.9-5.23,1.35
	c-2.48-0.38-4.95-0.8-7.44-1.14c-5.47-0.75-10.9-1.77-16.4-2.38c-3.97-0.45-7.87-1.35-11.82-1.91c-5.7-0.81-11.36-1.86-17.11-2.31
	c-1.36-0.11-2.8-0.18-3.98-1.04c4.25-1.13,8.59-1.84,12.92-2.6C106.13,159.03,107,158.92,107.88,158.78z"/>
<path fill="#091918" d="M204.54,142.76c-4.17-0.69-8.33-1.28-12.58-1.45c-3.47-0.14-6.92-0.66-10.38-1.08
	c-3.75-0.45-7.52-0.48-11.28-0.78c-3.6-0.28-7.2-0.48-10.79-0.86c-1.42-0.15-2.89,0.03-4.28-0.42c0.53-8.95,0.06-17.91,0.33-26.87
	c0.35-11.73,0.01-23.46,0.32-35.19c0.18-6.79,0.05-13.58,0.16-20.37c0.02-1.27-0.01-2.55,0.01-3.82c0.02-1.18,0.74-1.41,1.74-1.37
	c4.7,0.17,9.39-0.08,14.08-0.26c2.56-0.1,5.14-0.03,7.7-0.11c7.93-0.23,15.85-0.52,23.79-0.47c1.53,0.01,1.91,0.34,1.87,1.77
	c-0.38,16.29-0.11,32.58-0.18,48.87c-0.05,10.77-0.23,21.54-0.33,32.31c-0.03,3,0.05,6.01,0.06,9.01
	C204.8,142.04,205.01,142.48,204.54,142.76z"/>
<path fill="#E89704" d="M143.81,117.44c0.05-5.34-0.19-10.68,0.14-16.02c0,5.18,0.01,10.35,0,15.52
	C143.95,117.11,143.86,117.27,143.81,117.44z"/>
<path fill="#E89704" d="M143.95,128.56c-0.33-2.27-0.13-4.56-0.19-6.84c-0.03-1.18,0.03-2.37,0.06-3.56
	c0.37,2.89,0.01,5.79,0.15,8.68C144,127.42,143.96,127.99,143.95,128.56z"/>
<path fill="#E89704" d="M71.61,213.07c-0.04,0.01-0.08,0.03-0.1,0.06c-1.26-0.09-2.52-0.06-3.79-0.03c-0.03-0.03-0.07-0.03-0.1,0"/>
<path fill="#E89704" d="M71.51,213.13c0.03-0.03,0.06-0.05,0.1-0.06C71.6,213.13,71.58,213.16,71.51,213.13z"/>
<path fill="#E89704" d="M67.62,213.1c0.03-0.03,0.07-0.03,0.1,0C67.68,213.16,67.65,213.16,67.62,213.1z"/>
<path fill="#E89704" d="M49.53,213.13c0.07,0,0.14,0,0.21,0C49.67,213.19,49.6,213.19,49.53,213.13z"/>
</svg>
