<?xml version="1.0" encoding="utf-8"?>
<!-- Generator: Adobe Illustrator 24.1.2, SVG Export Plug-In . SVG Version: 6.00 Build 0)  -->
<svg version="1.1" id="Layer_1" xmlns="http://www.w3.org/2000/svg" xmlns:xlink="http://www.w3.org/1999/xlink" x="0px" y="0px"
	 viewBox="0 0 949.8 824.2" enable-background="new 0 0 949.8 824.2" xml:space="preserve">
<g>
	<text transform="matrix(1 0 0 1 633.9438 948.7972)" fill="#EFEFED" font-family="'MyriadPro-Regular'" font-size="12px">Author: openillust_penpen</text>
	<text transform="matrix(1 0 0 1 633.9438 963.1971)" fill="#EFEFED" font-family="'MyriadPro-Regular'" font-size="12px">Copyright: © 2025 openillust. All rights reserved.</text>
	<text transform="matrix(1 0 0 1 633.9438 977.5972)" fill="#EFEFED" font-family="'MyriadPro-Regular'" font-size="12px">License: Commercial use allowed. Redistribution and resale prohibited.</text>
</g>
<g>
	<path fill="#F6E7CF" d="M90.13,824.13c-29.08,0-58.16-0.04-87.23,0.07c-2.4,0.01-2.88-0.48-2.88-2.88
		C0.09,548.5,0.09,275.68,0,2.86C0-0.1,1.14,0,3.3,0c64.32,0.05,128.64,0.04,192.96,0.04c-0.44,2.41-2.48,2.16-4.08,2.24
		c-14.26,0.76-28.51,1.72-42.77,2.54c-18.53,1.06-37.07,1.76-55.61,2.43c-1.21,0.04-2.41,0.12-3.47,0.78
		c-1.44,0.79-1.39,2.18-1.39,3.52c-0.05,59.63-0.01,119.27-0.02,178.9c-0.01,41.42-0.02,82.83,0.03,124.25c0,1.8-0.6,3.8,1.09,5.27
		c2.33,0.95,4.78,0.59,7.17,0.57c27.87-0.27,55.73-0.08,83.6-0.04c10.57,0.02,21.15,0.28,31.72,0.43c7.46,0.11,14.96-0.5,22.46-0.38
		c16.99,0.28,33.99-0.37,50.98,0.2c1.73,0.06,3.51,0.2,4.99-1c1.4-1.28,1.07-2.99,1.05-4.55c-0.45-40.88,0.32-81.76-0.01-122.63
		c-0.11-13.39-0.08-26.78,0-40.17c0.25-40.08-0.4-80.16,0.09-120.24c0.09-6.96-1.55-13.86-0.39-20.87c0.39-2.38-1.03-4.03-3.8-4.06
		c-2.95-0.03-5.9-0.17-8.84,0.03C267.85,8,256.64,7.64,245.41,7.54c-7.88-0.07-15.77,0.82-23.66-0.23c-1.72-0.23-3.5-0.21-4.91-1.47
		c-1.28-2.01-1.26-3.95,0.32-5.8c43.68,0,87.37,0,131.05,0c2.42,3.34,1.56,7.2,1.67,10.89c0.6,21.29-0.86,42.58,0.07,63.88
		c0.31,7.2-0.2,14.51,0.18,21.69c0.96,18.09-1.91,36.16,0.09,54.24c0.54,4.91-0.3,9.89-0.3,14.86c-0.03,19.83-0.13,39.65-0.07,59.47
		c-0.35,12.5-0.64,25.01-0.38,37.52c0.22,10.37,0.77,20.72,0.56,31.1c-0.11,5.58,0.29,11.17-0.2,16.75
		c-0.45,1.3-0.48,2.63-0.32,3.97c0.67,5.52,1.11,6.01,6.74,6.05c29.84,0.22,59.69-0.22,89.53,0.05c26.35,0.24,52.7,0.05,79.06,0.36
		c13.07,0.15,26.2-0.09,39.3-0.22c6.02-0.29,12.04-0.05,18.07-0.11c2.3-0.02,3.58-0.45,3.74-3.32c0.33-6.04-0.42-11.99-0.81-17.97
		c-0.29-4.43,0.63-8.91,0.36-13.11c-0.39-6.07,1.1-12.11-0.06-18.07c-0.97-4.99,0.15-9.88,0.3-14.79
		c0.56-18.82,0.67-37.63,0.66-56.45c0-2.68,0.01-5.35-0.98-7.93c-0.54-1.39-0.56-2.88-0.36-4.37c2.2-16.26,1.35-32.61,1.12-48.92
		c-0.07-4.89-1.15-9.67,0.04-14.66c1.12-4.71-0.7-9.54-0.6-14.33c0.08-3.71,1.14-7.41-0.22-11.11c-0.36-0.99-0.06-2.13,0.02-3.2
		c1.34-16.42,1.01-32.84,0.63-49.29c-0.15-6.39,0.46-12.84,0.31-19.26c-0.14-6.15-0.25-12.29,0.05-18.44
		c0.09-1.87-0.08-3.79,1.41-5.28c120.33,0,240.66,0,360.99,0c0.75,1.39,0.38,2.9,0.38,4.34c0.02,271.8,0.02,543.6,0,815.4
		c0,1.45,0.37,2.95-0.38,4.34c-28.94,0-57.89,0-86.83,0c-1.35-1.35-1.48-3.11-1.55-4.86c-0.7-16.74-1.16-33.49-0.1-50.23
		c0.35-5.5-0.45-11-0.25-16.47c0.38-10.17,0.17-20.35,0.27-30.52c0.12-12.18-0.14-24.36-0.35-36.55
		c-0.18-10.28-0.13-20.58,0.23-30.87c0.21-5.98-0.58-12-0.2-18.04c0.19-3.06-0.07-6.14,0.25-9.22c0.41-3.89-0.55-4.72-4.42-4.88
		c-11.1-0.46-22.21-0.44-33.32-0.45c-18.09-0.02-36.17-0.05-54.26,0c-54.1,0.16-108.21-0.1-162.31-0.01
		c-23.04,0.04-46.08-0.03-69.12,0c-7.81,0.01-7.82,0.01-7.82,8.01c0,55.92-0.01,111.84,0.02,167.76c0,2.68-0.26,5.35-0.11,8.03
		c0.3,4.5,0.11,9.01,0.1,13.51c0,1.74-0.2,3.45-1.54,4.79c-21.98,0-43.95,0-65.93,0c-1.57-1.61-1.46-3.67-1.45-5.66
		c0.03-12.3-0.06-24.6-0.19-36.89c-0.16-15.64,0.88-31.29,0.04-46.89c-0.7-13.09,0.62-26.15-0.15-39.21
		c0.24-15.93,0.26-31.86-0.13-47.8c-0.17-6.96,0.46-13.92,0.34-20.9c-0.05-3.14-1.11-4.39-4.19-4.24c-10.84,0.55-21.69,0.28-32.53,0
		c-11.51-0.3-23.01-0.66-34.52-0.32c-4.67,0.14-9.31,0.65-14.03,0.42c-17.25-0.86-34.51-0.15-51.76-0.36
		c-17.53-0.21-35.06,0.02-52.59-0.17c-11.64-0.12-23.25,0.78-34.91,0.61c-15.11-0.21-30.23-0.35-45.35-0.48
		c-9.61-0.08-19.23,0.49-28.83,0.45c-16.58-0.07-33.16-0.26-49.74-0.17c-5.34,0.03-10.68-0.73-16.05-0.54
		c-4.26,0.16-4.79,0.45-4.69,4.62c0.35,15.27-0.43,30.54,0.02,45.8c0.59,19.96-0.28,39.91-0.15,59.88
		c0.12,17.15,0.12,34.31,0.19,51.46c0.04,9.35,0.02,18.71,0.4,28.07C91.47,815.89,91.3,820.1,90.13,824.13z"/>
	<path fill="#F1AA09" d="M348.89,225.53c-0.86-4.2-0.41-8.45-0.41-12.67c0.01-19.72,0.43-39.44,0.2-59.15
		c-0.11-9.49-0.75-19.02-0.29-28.48c0.81-16.37,0.58-32.75,0.22-49.08c-0.53-24.32,0.56-48.62-0.1-72.92
		c-0.03-1.06-0.2-2.12-0.3-3.18c79.86,0,159.73,0,239.59,0c-0.01,11.54-0.01,23.08-0.02,34.62c-0.01,12.35,0.16,24.7-0.17,37.03
		c-0.11,3.96,0.14,7.88,0.2,11.82c0.06,3.53-0.44,6.95-1.3,10.35c-0.18,0.72-0.28,1.9,0.13,2.27c1.49,1.34,1.28,3.05,0.89,4.47
		c-1.82,6.78,0.26,13.49,0.13,20.25c-0.32,16.05,0.23,32.11-0.08,48.16c-0.1,5.15,0.79,10.45-1.05,15.56
		c-0.96,2.67,1.16,5.06,1.12,7.72c-0.15,11.34,0.13,22.69-0.25,34.04c-0.14,4.3,0.17,8.72,0.27,13.08c0.05,2.07-0.08,4.01-0.94,6.15
		c-1.17,2.9-0.22,6.65,0.52,9.36c0.67,2.45-0.18,4.76-0.53,6.05c-1.38,5.12,2.68,10.14-0.21,15.04c-0.3,0.5-0.19,1.34-0.07,1.98
		c1.5,8.19-1.01,16.37-0.12,24.49c0.59,5.38,1.12,10.71,1.28,16.13c0.07,2.56-0.47,3.38-2.89,3.36c-6.69-0.05-13.38-0.02-20.08-0.02
		c-12.07-3.68-23.18-9.63-34.65-14.73c-19.59-8.7-39.13-17.5-58.7-26.23c-11.49-5.13-23.1-10.02-34.58-15.17
		c-27.49-12.35-54.99-24.69-82.68-36.61c-1.23-0.53-2.42-1.15-3.51-1.94C349.79,226.87,349.4,226.14,348.89,225.53z"/>
	<path fill="#F1AA0A" d="M527.88,805.14c-0.86-11.63-0.32-23.28-0.34-34.92c-0.07-48.38,0.02-96.77-0.12-145.15
		c-0.01-4.01,1.45-4.64,4.9-4.57c21,0.43,42.01,0.12,63.02,0.32c35.17,0.34,70.35-0.07,105.53-0.14
		c14.71-0.03,29.42,0.01,44.13,0.01c33.65-0.01,67.31-0.04,100.96-0.02c4.12,0,8.25,0.19,12.37,0.35c2.44,0.09,3.56,0.88,3.49,3.87
		c-0.34,15.22-0.43,30.44-0.41,45.67c0.03,16.03,0.43,32.06,0.4,48.1c-0.03,23.46-0.39,46.92-0.42,70.38
		c-0.02,11.7,0.36,23.4,0.56,35.1c-33.23,0-66.46,0-99.69,0c-1.69-1.24-2.03-3-2.09-4.96c-0.19-6.83,0.62-13.67,0.15-20.48
		c-0.79-11.51,0.56-23-0.18-34.5c-0.29-4.55-0.08-9.13,0.2-13.65c0.48-7.78,0.23-15.53-0.26-23.27c-0.38-5.92,0.69-11.76,0.58-17.67
		c-0.1-5.09-0.04-10.17-0.36-15.26c-0.69-11.24,1.2-22.47,0.26-33.73c-0.17-1.98-0.41-4.01-0.22-6.01c0.61-6.33-0.02-5.97-5.99-6.47
		c-2.81-0.24-5.61-0.35-8.42-0.35c-25.98,0.03-51.97,0.05-77.95-0.06c-8.82-0.04-17.63-0.47-26.46,0.01
		c-5.44,0.3-5.57,0.18-5.58,5.75c-0.04,48,0.02,96-0.05,144c0,2.86,0.78,5.96-1.5,8.46c-1.26,0.61-2.62,0.48-3.95,0.48
		c-32.13-0.07-64.26,0.07-96.39-0.03C531.92,806.38,529.72,806.61,527.88,805.14z"/>
	<path fill="#27596B" d="M90.13,824.13c-1.43-1.63-0.88-3.61-0.78-5.41c1.01-17.49,0.14-34.98,0.13-52.47
		c-0.01-22.86,0.11-45.73,0-68.59c-0.08-15.59-0.28-31.18,0.02-46.76c0.17-8.82-0.21-17.62-0.25-26.43c-0.01-2.71,0.6-3.73,3.5-3.69
		c14,0.2,28.01,0.31,42.02,0.23c16.83-0.1,33.65,0.2,50.48-0.19c15.44-0.36,30.9,0.39,46.35,0.31c10.94-0.06,21.87,0.12,32.82-0.25
		c13.72-0.46,27.47-0.63,41.19-0.24c17.32,0.5,34.64-0.53,51.94,0.13c20.92,0.8,41.83-0.6,62.76,0.21
		c12.64,0.49,25.31,0.03,37.97-0.19c2.64-0.05,3.18,0.9,3.17,3.24c-0.03,12.92,0.42,25.85-0.05,38.75
		c-0.35,9.62,0.49,19.21,0.1,28.81c-0.05,1.33,0.14,2.7-0.67,3.9c-1.58,2.61-4.37,3.49-6.9,4.57c-17.49,7.46-35.1,14.62-52.55,22.16
		c-15.85,6.85-31.76,13.55-47.6,20.41c-28.63,12.38-57.37,24.5-85.96,36.96c-26.63,11.61-53.5,22.64-80.19,34.11
		c-4.18,1.79-8.4,3.52-12.41,5.67c-4.27,2.29-8.86,3.63-13.53,4.75C137.84,824.13,113.98,824.13,90.13,824.13z"/>
	<path fill="#DF4D12" d="M89.38,6.56c1.34-0.72,2.79-0.83,4.27-0.89c22.42-0.96,44.85-1.89,67.27-2.95
		c11.05-0.52,22.1-1.3,33.14-1.96c0.79-0.05,1.63,0.03,2.19-0.71c6.97,0,13.94,0,20.9,0c0.03,1.92,0.06,3.84,0.09,5.76
		c2.46,3.14,1.12,6.83,1.47,10.27c0.15,1.44-0.16,2.88-0.23,4.32c0.32,1.73,0.28,3.47,0.28,5.22c0,75.64,0,151.28-0.01,226.92
		c0,1.74,0.14,3.49-0.25,5.21c-0.18,2.79,1,5.67-0.57,8.37c-1.42,1.36-3.22,1.1-4.94,1.1c-39.02,0.05-78.04-0.03-117.06-0.02
		c-2,0-4.02,0.1-5.92-0.71c-2.66-1.89-1.51-4.7-1.38-7.04c0.52-9.45-0.08-18.89,0.01-28.33c0.08-8,0.12-16.02,0.14-24.01
		c0.05-17.59-0.27-35.2-0.12-52.79c0.11-12.41-0.43-24.83,0.19-37.25c0.32-6.39-0.37-12.79-0.19-19.19
		c0.44-5.73,0.53-11.45-0.11-17.18c-0.08-23.45,0-46.9-0.01-70.35C88.54,9.04,88.24,7.63,89.38,6.56z"/>
	<path fill="#DF4D12" d="M161.69,824.13c7.85-3.6,15.65-7.34,23.57-10.78c13.33-5.78,26.75-11.35,40.12-17.04
		c19.36-8.24,38.82-16.25,58.02-24.84c19.34-8.66,39.11-16.3,58.37-25.15c14.76-6.78,29.96-12.61,44.92-18.96
		c15.22-6.45,30.39-13,45.58-19.53c9.53-4.1,19.04-8.23,28.57-12.35c1.13,5.94,0.35,11.93,0.42,17.9
		c0.17,16.4,0.13,32.79,0.08,49.19c-0.04,12.92-0.59,25.85-0.21,38.76c0.22,7.6-0.2,15.21,0.46,22.79
		C361.61,824.13,261.65,824.13,161.69,824.13z"/>
	<path fill="#F6E8CF" d="M634.13,805.17c0.13-17.43,0.36-34.85,0.38-52.28c0.03-22.51-0.1-45.02-0.13-67.53
		c-0.02-11.78,0.13-23.56-0.02-35.34c-0.04-2.91,0.65-3.96,3.69-3.98c9.22-0.08,18.42-0.01,27.64,0.14
		c19.14,0.3,38.29,0.05,57.43,0.11c11.51,0.04,23.03,0.31,34.54,0.36c3.21,0.01,4.63,0.65,4.42,4.53c-0.43,7.72,0.03,15.49,0,23.24
		c-0.07,16.29-0.32,32.59-0.32,48.88c0,24.18,0.21,48.36,0.23,72.53c0.01,8.13-0.22,16.27-0.43,24.4c-0.04,1.4,0.38,2.62,0.72,3.91
		c-4.82,0-9.65,0-14.47,0c-1.88-1.98-1.52-4.49-1.54-6.87c-0.12-16.09,0-32.19-0.01-48.28c-0.01-32.32-0.02-64.64-0.01-96.96
		c0-1.48-0.1-2.96,0-4.42c0.23-3.28-1.16-4.66-4.47-4.46c-5.75,0.35-11.45,1.18-17.17,1.76c-7.59,0.77-15.2,1.37-22.77,2.27
		c-1.99,0.24-4.02,0.27-5.63,1.7c-1.16,1.33-1.13,2.93-1.12,4.56c0.11,30.04,0.13,60.09,0,90.13c-0.05,12.29-0.14,24.57,0.05,36.85
		c0.03,1.74-0.17,3.5,0.78,5.08c1.73,2.08,4.3,2.63,6.65,3.42c11.99,4.02,23.82,8.5,35.76,12.68c1.25,0.44,3.06,0.44,3.06,2.51
		c-18.76,0-37.52,0-56.28,0c-15.99-4.46-31.47-10.41-47.04-16.09C636.51,807.48,634.55,807.32,634.13,805.17z"/>
	<path fill="#183746" d="M693.92,667.19c1.69-1.65,4-1.14,5.93-1.36c14.34-1.65,28.72-2.94,43.07-4.49c3.63-0.39,5,0.4,4.98,4.51
		c-0.2,41.4-0.19,82.8-0.21,124.2c-0.01,11.36,0.07,22.72,0.1,34.08c-2.14,0-4.29,0-6.43,0c-15.56-5.62-31.12-11.24-46.69-16.86
		c-0.83-8.67-0.43-17.37-0.41-26.05c0.09-36.83,0.05-73.67,0.05-110.5C694.32,669.54,694.63,668.31,693.92,667.19z"/>
	<path fill="#183645" d="M634.13,805.17c14.93,5.62,29.94,11.01,45.1,16.02c2.05,0.68,4.29,1.2,5.86,2.94
		c-52.53,0-105.05,0-157.58,0c0.11-6.33-0.43-12.67,0.38-18.99c26.06-0.04,52.12-0.06,78.18-0.12
		C615.42,805,624.77,804.51,634.13,805.17z"/>
	<path fill="#FEFEFE" d="M948.79,824.13c0-274.7,0-549.39,0-824.09c0.25,0.18,0.84-0.41,0.81,0.4c-0.03,1.07-0.01,2.15-0.01,3.22
		c0,272.28,0,544.57-0.05,816.85C949.54,821.69,950.47,823.24,948.79,824.13z"/>
	<path fill="#D6441E" d="M891.48,521.71c-0.56,7.91,0.12,15.81-0.41,23.77c-0.65,9.77,0.88,19.68,0.57,29.55
		c-0.06,2.01,0,4.02-0.03,6.03c-0.09,6.47-0.1,6.52-6.39,6.52c-16.86-0.01-33.73-0.07-50.59-0.11c-1.5-1.45-1.47-3.35-1.59-5.23
		c-1.09-17.92-0.83-35.86-0.79-53.79c0.01-5.89-0.35-11.78,0.25-17.65c-0.4-16.62,1.1-33.21,0.66-49.84
		c-0.48-18.46-0.19-36.93-0.16-55.4c0.04-23.96-0.93-47.92-0.68-71.89c0.02-1.74-0.02-3.49,0.23-5.21
		c-0.43-4.01-0.31-8.05-0.16-12.05c0.13-3.4-1.23-4.41-4.49-4.3c-8.84,0.3-17.61,1.39-26.42,2.06c-12.81,0.97-25.63,1.76-38.44,2.8
		c-5.61,0.46-11.2,1.01-16.79,1.63c-1.43,0.16-2.59,0.6-3.19,2.02c-0.56,2.13-0.08,4.28-0.08,6.4
		c-0.04,65.53-0.03,131.06-0.03,196.6c0,1.74,0.1,3.49-0.24,5.2c0.38,2.35-0.96,3.69-2.76,4.86c-13.33,8.66-26.51,17.55-39.72,26.39
		c-11.77,7.87-23.42,15.91-35.15,23.83c-2.23,1.51-4.46,2.88-7.1,3.46c-10.31,0.08-20.62,0.1-30.93,0.28
		c-2.42,0.04-2.95-1-2.93-3.11c0.16-16.07,0.39-32.14,0.37-48.2c-0.03-18.39-0.34-36.79-0.44-55.18
		c-0.09-16.94-0.06-33.89-0.07-50.83c-0.01-24.9-0.01-49.8-0.01-74.69c0-25.17,0.08-50.35-0.04-75.52
		c-0.02-3.19,0.86-4.14,4.05-4.12c15.88,0.07,31.76-0.08,47.64-0.15c14.12-0.06,28.25-0.47,42.36-0.11
		c24.33,0.64,48.65,0.19,72.97,0.29c31.97,0.14,63.94-0.05,95.91-0.22c3.88-0.02,5.08,0.98,5.02,5.2
		c-0.31,25.84-0.15,51.69-0.36,77.54c-0.04,5.68-0.36,11.39-1.18,17.06c-0.33,2.27,1.29,4.41,1.28,6.88
		c-0.08,19.34,0.04,38.68,0.04,58.02c0,16.35-0.07,32.71-0.1,49.06c-0.01,8.49,0,16.97,0,25.46
		C890.51,517.22,890.66,519.46,891.48,521.71z"/>
	<path fill="#28596B" d="M348.34,542.5c-0.04-23.72-0.11-47.44-0.13-71.17c-0.02-36.32,0.05-72.64-0.11-108.97
		c-0.02-3.77,0.71-4.92,4.7-4.86c16.67,0.24,33.34-0.27,50,0.12c21.46,0.5,42.91,0.07,64.37-0.07c23.91-0.15,47.81,0,71.72,0.01
		c14.39,0,28.78,0.01,43.18-0.09c3.12-0.02,4.41,0.73,4.36,4.33c-0.18,12.07-0.16,24.15,0.28,36.21c0.34,9.27-0.69,18.49-0.38,27.74
		c0.08,2.37,2.21,4.78-0.01,7.14c0.92,1.69,0.86,3.39,0.07,5.1c0.17,0.88,1.78,0.95,1.26,2.2c-1.98,4.69-1.1,9.65-1.14,14.47
		c-0.21,24.73-0.19,49.47-0.27,74.21c0,1.07-0.1,2.14-0.16,3.2c-0.63,2.5-0.37,5.06-0.25,7.56c0.16,3.26-1.38,4.88-4.39,4.89
		c-7.87,0.01-15.73,0.57-23.6,0.18c-1.75-0.09-3.48-0.34-4.59-1.98c-1.07-2.08-1.35-4.32-1.37-6.63
		c-0.3-36.59-0.36-73.19-0.06-109.78c0.05-5.62-0.1-11.26-0.22-16.89c-0.04-1.76,0.43-4-2.56-4.01c-2.94-0.01-3.94,1.49-3.92,4.29
		c0.04,5.76,0.07,11.53-0.02,17.29c-0.1,6.36-1.19,7.45-7.56,7.54c-24.89,0.35-49.78-0.15-74.67,0.06
		c-20.6,0.17-41.19-0.09-61.79-0.06c-7.42,0.01-8.13-0.76-9.16-8.03c-0.77-5.4,0.52-10.69,0.52-16.04c0-2.24-0.38-3.94-3.2-4.05
		c-3.35-0.13-4.12,0.46-4.12,4.17c0,12.87-0.14,25.74,0.05,38.61c0.11,7.39-1.02,14.7-0.91,22.09c0.1,6.3,0.8,12.6,0.71,18.86
		c-0.22,15.66-0.63,31.32-0.72,46.98c-0.01,1.21-0.14,2.41-0.57,3.56c-0.95,2.29-2.87,3.17-5.14,3.14
		c-8.42-0.09-16.82,0.71-25.23,0.75C351.41,544.6,349.63,544.12,348.34,542.5z"/>
	<path fill="#28596A" d="M871.75,180.26c1.54,2.5,3.75,2.87,6.55,2.62c3.58-0.32,7.22,0,10.84-0.04c2-0.02,2.7,0.69,2.69,2.84
		c-0.06,17.93-0.05,35.86,0.11,53.8c0.03,3.72-1.39,4.61-4.92,4.59c-32.26-0.15-64.52-0.14-96.78-0.14
		c-54.16-0.01-108.32-0.03-162.47,0.1c-3.33,0.01-3.91-1.04-3.89-4.02c0.14-17.62,0.22-35.24,0.02-52.86
		c-0.04-3.55,1.48-4.37,4.32-4.39c3.61-0.02,7.23,0.1,10.84,0.12c1.27,0.01,2.72,0.57,3.61-0.93c6.71-1.54,13.49-0.57,20.25-0.55
		c1.86-0.38,3.74-0.27,5.61-0.27c33.48,0,66.96-0.03,100.44,0c25.04,0.02,50.08-0.05,75.12,0c2.41,0,4.82-0.09,7.21,0.33
		C858.09,180.95,865.01,182.12,871.75,180.26z"/>
	<path fill="#28596C" d="M135.93,531.19c-11.13,5.92-21.44,13.18-32.15,19.79c-14.33,8.84-28.28,18.3-42.92,26.64
		c-2.69,1.53-3.8,1.75-3.8-2.07c0.12-63.12,0.12-126.24,0.15-189.37c0-8.04,0.22-16.1-0.16-24.12c-0.18-3.84,1.65-4.43,4.57-4.44
		c6.13-0.02,12.26,0.01,18.39-0.04c17.29-0.13,34.58,0.52,51.87-0.11c1.32-0.05,2.66,0.18,3.99,0.28c2.14,1.85,1.66,4.4,1.67,6.75
		c0.05,17.81,0.03,35.62,0.03,53.43c0,35.35,0.01,70.71-0.03,106.06C137.53,526.48,138.08,529.15,135.93,531.19z"/>
	<path fill="#183645" d="M553.95,542.42c1.06,1.14,2.46,0.8,3.76,0.81c7.8,0.02,15.59-0.04,23.39,0.03
		c3.21,0.03,4.53-1.28,4.38-4.57c-0.1-2.18-0.74-4.52,0.62-6.6c0.15,4.99,0.37,9.99,0.42,14.98c0.02,2.02,0.31,3.92,1.1,5.76
		c-0.83,1.41-0.84,2.81,0.01,4.21c-0.77,8.43-0.08,16.87,0.17,25.29c0.12,3.95-0.98,5.33-5.09,5.31
		c-24.72-0.11-49.44,0.06-74.16,0.08c-29.01,0.01-58.02-0.03-87.04-0.07c-23.28-0.03-46.56-0.13-69.83-0.05
		c-2.73,0.01-3.42-0.82-3.4-3.37c0.09-13.91,0.06-27.82,0.07-41.73c10.58,1.65,21.16-0.83,31.74-0.03c1.25,0.1,1.85-0.89,2.68-1.52
		c1.6-0.12,3.21-0.12,4.82-0.06c4.81,0.18,4.84,0.15,4.88-4.87c0.05-6.16-0.11-12.33,0.07-18.49c0.14-4.91,1.42-6.15,6.26-6.38
		c2.94-0.14,5.89-0.05,8.83-0.05c42.3,0,84.61-0.01,126.91,0c9.21,0,9.8,0.6,9.82,9.76c0.01,4.96-0.04,9.92,0.02,14.87
		c0.06,4.52,0.27,4.74,4.65,5.17C550.78,541.09,552.48,541.34,553.95,542.42z"/>
	<path fill="#D6441E" d="M652.86,94.4c-3.73-0.07-7.47-0.29-11.2-0.14c-2.23,0.09-2.63-0.88-2.67-2.78
		c-0.38-16.18,0.22-32.34,0.32-48.51c0.02-2.66,1.17-3.45,3.68-3.44c22.05,0.09,44.1,0.12,66.15,0.12c18.21,0,36.42-0.11,54.63-0.12
		c36.21-0.03,72.42,0,108.63-0.1c2.97-0.01,4.09,0.87,4.02,3.84c-0.19,9.5-0.27,19-0.32,28.5c-0.03,5.87-0.15,11.76,0.2,17.61
		c0.25,4.06-1.34,5.1-5.06,4.75c-2.77-0.26-5.61,0.09-8.41,0.17c-1.8,1.55-3.95,1.43-6.03,1.07c-3.82-0.67-7.61-0.49-11.42,0.03
		c-12.57,0.55-25.14,0.06-37.69,0.16c-9.19,0.08-18.37-0.45-27.57-0.35c-11.59,0.13-23.22,1.51-34.81-0.03
		c-5.36-0.71-10.68,0.24-16.01,0.41c-5.36,0.16-10.69,0.17-16.03-0.37c-4.8-0.48-9.6-0.42-14.41,0.17
		c-6.93,0.85-13.89,0.1-20.84,0.1c-2.8,0-5.61,0.27-8.41,0C663.99,95.51,658.3,96.94,652.86,94.4z"/>
	<path fill="#28596B" d="M217.85,265.62c-1.2-2.32-0.62-4.78-0.55-7.21c3.87-2.85,8.31-1.72,12.43-1.35
		c8.19,0.74,16.29-0.86,24.45-0.34c2.49,0.16,3.43-1.28,2.63-3.63c-1.14-3.38-1.02-6.87-1.02-10.36
		c-0.02-35.54,0.04-71.08-0.01-106.61c-0.05-36.07,0.07-72.13,0.01-108.2c-0.01-6.16-0.03-6.17-6.3-6.18
		c-8.71-0.02-17.42,0.02-26.13-0.02c-2.12-0.01-4.33,0.22-6.09-1.42c0-4.83-0.01-9.67-0.01-14.5c14.14,0.14,28.28,0.37,42.42,0.39
		c9.48,0.01,18.96-0.32,28.44-0.44c4.53-0.06,5.41,0.87,5.4,5.25c-0.04,14.69-0.09,29.39-0.09,44.08c0,34.2,0.26,68.4-0.04,102.6
		c-0.22,25.54,0.47,51.07,0.24,76.6c-0.15,16.39-0.42,32.78-0.13,49.18c0.21,11.62,0.08,23.26,0.02,34.88
		c-0.01,1.19,0.81,2.69-0.78,3.58c-4.5-0.87-9.08-0.6-13.55-0.25c-4.81,0.37-8.24-1.49-11.26-4.79c-8.04-8.79-16.48-17.2-25.01-25.5
		c-7.67-7.46-15.14-15.12-22.88-22.51C219.06,267.94,218,267.09,217.85,265.62z"/>
	<path fill="#183645" d="M350.61,226.19c18.24,8.03,36.51,16.01,54.72,24.1c15.03,6.68,29.98,13.55,45.02,20.21
		c17.11,7.58,34.31,14.96,51.41,22.57c11.41,5.08,22.7,10.43,34.08,15.58c8.82,4,17.69,7.87,26.53,11.82
		c0.82,0.37,1.82,0.51,2.26,1.49c-18.9,0.06-37.8,0.16-56.7,0.17c-34.41,0-68.82-0.06-103.23-0.08c-17.6-0.01-35.2-0.06-52.8,0.11
		c-2.75,0.03-3.53-0.8-3.34-3.34c0.23-3.02-0.98-6.1,0.34-9.09c1.8-3.78,0.79-7.81,0.83-11.7c0.2-20.19-0.63-40.37-0.2-60.55
		C349.63,233.75,348.66,229.79,350.61,226.19z"/>
	<path fill="#28596B" d="M241.86,358.05c7.72-1.15,15.49-0.48,23.23-0.52c16.12-0.08,32.24,0.15,48.35,0
		c3.36-0.03,4.33,0.83,4.3,4.21c-0.17,15.93-0.19,31.87,0.01,47.8c0.05,3.5-1.47,5.58-4.07,7.16c-11.9,7.24-23.2,15.42-34.97,22.85
		c-13.23,8.36-25.91,17.55-39.36,25.57c-9.45,5.63-18.54,11.86-27.79,17.82c-1.83-0.68-2.07-2.31-2.28-3.92
		c-0.24-1.86-0.14-3.75-0.14-5.62c0-35.1,0-70.2,0-105.3c0-0.8,0-1.61,0.01-2.41c0.08-6.96,0.27-6.78,7.23-7.2
		c15.36-0.92,30.69,0.64,46.03,0.05c0.54,0.05-0.13-0.77,0.05-0.26c0.07,0.19-0.02,0.31-0.27,0.3
		C255.42,358.21,248.61,359.23,241.86,358.05z"/>
	<path fill="#F0A808" d="M135.93,531.19c0.02-26.76,0.06-53.53,0.05-80.29c-0.01-31.05-0.07-62.1-0.11-93.15
		c13.06,0,26.13,0.01,39.19,0c3.85,0,7.7-0.02,11.55-0.03c2.02,1.92,1.58,4.45,1.58,6.81c0.04,22.39,0.02,44.77,0.02,67.16
		c0,34.85,0,69.7,0.01,104.56c0,2.29-0.08,4.55-0.51,6.8c-0.12,0.82-0.4,1.57-0.99,2.18c-1.61,1.19-3.5,1.21-5.37,1.22
		c-11.09,0.05-22.18,0.03-33.27,0.01c-2.96-0.01-5.84-0.56-8.66-1.44c-2.72-0.58-3.51-2.4-3.43-4.99
		C136.08,537.08,135.96,534.13,135.93,531.19z"/>
	<path fill="#193645" d="M833.87,510.26c0.03,18.01,0,36.02,0.12,54.02c0.05,7.73,0.42,15.46,0.64,23.18
		c-11.85,1.04-23.71,0.3-35.57,0.32c-36.87,0.08-73.74-0.14-110.6-0.26c-10.16-0.03-20.32-0.12-30.48-0.18
		c8.88-5.99,17.7-12.08,26.58-18.08c7.26-4.91,14.58-9.77,21.79-14.77c8.61-5.98,17.48-11.59,26.2-17.4
		c3.19-2.12,6.3-4.37,9.44-6.57c0.24-1.3,1.18-2.02,2.2-2.72c11.58-7.93,23.44-15.43,35.09-23.25c1.45-0.98,3.05-1.67,4.87-1.71
		c15.04,1.44,29.98,3.56,44.94,5.57C830.81,508.66,832.55,508.94,833.87,510.26z"/>
	<path fill="#183545" d="M217.85,265.62c4.98,3.37,8.64,8.12,12.87,12.28c5.19,5.11,10.61,9.99,15.64,15.25
		c5.22,5.45,10.99,10.33,15.87,16.16c3.37,4.03,7.54,7.39,11.33,11.09c1.13,1.11,2.5,0.67,3.78,0.77c5.12,0.4,10.33-0.84,15.39,0.77
		c-14.28,0.15-28.56,0.37-42.85,0.43c-19.59,0.08-39.19,0.09-58.78,0.05c-27.48-0.06-54.96-0.2-82.43-0.31
		c-6.27-0.03-12.55-0.09-18.82-0.13c-1.21-0.26-1.29-1.23-1.27-2.16c0.39-17.63-0.14-35.27,0.2-52.9c0.01-0.59,0.28-1,0.84-1.21
		c30.21-0.01,60.42-0.2,90.64,0.27C192.78,266.15,205.31,265.75,217.85,265.62z"/>
	<path fill="#183645" d="M139.41,545.02c14.93-0.03,29.85-0.07,44.78-0.1c0.8,0,1.6-0.06,2.39-0.1c1.91-1.59,4.23-1.49,6.49-1.47
		c9.48,0.06,18.97,0.67,28.42,0.33c10.43-0.37,20.85-0.52,31.25-0.22c9.34,0.27,18.66-0.18,27.99-0.11
		c5.87,0.04,11.73-0.08,17.61,0.63c4.22,0.5,8.53,0.33,12.79-0.28c2.33-0.33,4.9-0.74,6.38,1.98c0.05,16.61,0.07,33.22,0.2,49.82
		c0.02,2.25-0.67,3.04-2.96,3c-5.21-0.09-10.42,0.09-15.63,0.11c-6.83,0.03-13.68-0.34-20.48,0.1c-8.19,0.53-15.44-2.05-22.75-5.17
		c-15.64-6.66-31.38-13.08-47.06-19.63c-15.3-6.39-30.55-12.89-45.87-19.23c-6.51-2.7-13.14-5.1-19.72-7.65
		C141.9,546.49,140.44,546.17,139.41,545.02z"/>
	<path fill="#D6441E" d="M862.8,115.03c7.2,0.68,14.41,0.25,21.62,0.28c1.33,0,2.66,0.01,3.99,0.09c2.99,0.18,4.31,1.03,3.64,4.72
		c-0.77,4.27-0.34,8.78-0.19,13.18c0.07,2.05-0.49,2.82-2.59,2.95c-5.32,0.32-10.64,0.58-15.97,0.25c-2.06,1.28-4.36,1.08-6.62,1.08
		c-4.4,0-8.81-0.04-13.2,0.4c-11.09-0.44-22.17,0.21-33.26,0.25c-21.54,0.06-43.07-1.12-64.63-0.71
		c-16.86,0.32-33.73-0.21-50.58,0.08c-14.17,0.24-28.34-0.52-42.51,0.15c-4.9-0.32-9.81-0.16-14.71-0.19
		c-1.86-0.01-3.71-0.02-5.43-0.91c-4.66-0.82-9.35-0.57-13.99-0.1c-3.33,0.34-4.4-1.07-4.4-3.98c0-4.28,0.35-8.58,0.02-12.84
		c-0.25-3.32,1.25-3.84,3.96-3.82c7.09,0.07,14.18,0.01,21.28-0.02c1.17-0.01,2.43,0.31,3.46-0.59c5.66-1.2,11.4-1.49,17.17-1.44
		c11.73-1.47,23.5-0.44,35.24-0.43c21.25,0.03,42.51,0.18,63.77,0.19c22.6,0.01,45.2,0,67.8,0c2.81,0,5.62,0.05,8.38-0.62
		c4.02,0.8,8.09,0.6,12.15,0.65C859.18,113.67,861.19,113.57,862.8,115.03z"/>
	<path fill="#183545" d="M186.72,543.3c-0.06-21.96-0.16-43.92-0.16-65.89c-0.01-39.9,0.03-79.8,0.05-119.69
		c11.43,0.12,22.87,0.23,34.3,0.34c6.35-0.48,12.69-0.49,19.04,0c0.64-0.01,1.28-0.01,1.91-0.02c8.27,0,16.55,0,24.82,0
		c0,0.3,0,0.59,0.01,0.89c-1.36,0-2.71,0-4.07,0c-15.93,0-31.86,0.06-47.79-0.06c-3.04-0.02-4.18,0.7-4.17,4.02
		c0.12,38.59,0.08,77.18,0.07,115.77c0,1.49,0.06,2.95,0.82,4.28c-0.23,0.34-0.46,0.67-0.69,1.01c-1.48,0.9-0.9,2.38-0.92,3.62
		c-0.07,4.78-0.03,9.57-0.03,14.35c0.01-4.71-0.02-9.43,0.02-14.14c0.01-1.02-0.25-2.19,0.98-2.8c0.46,11.17,1.18,22.35-0.11,33.52
		c-1.27-0.82-0.73-2.14-0.88-3.12c-0.26,1.85-0.03,3.89,0.13,5.85c0.29,3.74-1.14,6.41-3.92,8.62c-5.2,4.12-10.41,8.24-15.55,12.44
		C189.52,543.15,188.38,544.38,186.72,543.3z"/>
	<path fill="#172123" d="M186.72,543.3c2.21-0.25,3.26-2.22,4.81-3.39c4.95-3.74,9.68-7.78,14.53-11.67
		c2.36-1.89,3.3-4.18,3.16-7.29c-0.14-3.32-0.6-6.75,1.22-10.07c0.13,2.54,0.25,5.07,0.38,7.61c0.79,6.37,0.79,6.37,7.77,6.38
		c32.05,0.06,64.1,0.19,96.14,0.06c2.88-0.01,3.02,0.89,2.97,3.07c-0.13,5.89-0.13,11.77-0.18,17.66c-1.84-1.14-3.96-1.11-5.84-0.64
		c-4.51,1.14-9.09,0.91-13.55,0.53c-10.79-0.92-21.52-0.46-32.31-0.14c-6.98,0.2-14.09-0.64-21.15-0.48
		c-7.85,0.17-15.74,0.33-23.57,0.39c-11.49,0.08-23.02-0.21-34.52-0.5C186.63,544.31,186.68,543.81,186.72,543.3z"/>
	<path fill="#112A35" d="M853.05,136.78c6.74-1.03,13.5-0.89,20.26-0.29c-0.08,9.52-0.17,19.03-0.25,28.55
		c-1.23,2.39-0.42,4.97-0.64,7.45c-0.14,1.57,0.3,3.21-0.65,4.66c-0.01,1.04-0.01,2.07-0.02,3.11c0.01,1.82-0.79,2.57-2.69,2.54
		c-5.58-0.11-11.16-0.06-16.74-0.07c-1.46-1.46-1.57-3.33-1.57-5.21c-0.03-10.67-0.12-21.34,0.05-32
		C850.84,142.47,850.94,139.34,853.05,136.78z"/>
	<path fill="#122B37" d="M642.38,136.64c6.78-0.99,13.56-0.59,20.35-0.12c1.42,1.5,1.41,3.39,1.42,5.26
		c0.03,11.86,0.03,23.73,0.01,35.59c0,1.87-0.03,3.76-1.38,5.29c-5.57,0.02-11.14,0.04-16.71,0.06c-1.2,0.01-2.4,0.03-3.41-0.77
		c-0.03-13.5-0.06-27.01-0.1-40.51C642.55,139.85,642.44,138.24,642.38,136.64z"/>
	<path fill="#F8F5E6" d="M89.61,265.68c-0.01,12.82-0.06,25.65-0.03,38.47c0.01,5.93,0.17,11.87,0.27,17.8
		c-3.03-0.3-2.09-2.67-2.09-4.33c-0.06-19.31-0.04-38.62-0.04-57.92c0-79.51,0-159.02,0-238.53c0-4.27-0.05-8.55,0.04-12.82
		c0.02-0.83-0.68-2.8,1.61-1.8c0.01,24.87,0.01,49.75,0.02,74.62c0.58,5.75,0.5,11.5,0.02,17.25c0.77,11.94,0.31,23.88,0.15,35.83
		c-0.17,12.81,0.72,25.65,0.23,38.44c-0.5,13.21,0.48,26.39-0.24,39.6c-0.54,9.91,0.17,19.88,0.21,29.82
		C89.8,249.97,89.67,257.82,89.61,265.68z"/>
	<path fill="#122B37" d="M862.8,115.03c-4.8,0.04-9.59,0.08-14.39,0.11c-1.16,0.01-2.48,0.31-3.01-1.25
		c-0.33-0.2-0.79-0.35-0.85-0.77c-0.83-6.28-0.87-12.52,1.15-18.63c5.68-1.91,11.4-0.39,17.11-0.2
		C863.64,101.21,862.8,108.12,862.8,115.03z"/>
	<path fill="#122C38" d="M669.85,114.91c-5.71,0.29-11.39,1.99-17.14,0.38c0.05-6.96,0.1-13.92,0.15-20.89
		c5.67-0.47,11.34-0.36,17.02-0.19c0.85,0.9,1.31,2,1.37,3.22c0.23,4.76,0.24,9.53,0,14.29
		C671.18,112.93,670.85,114.08,669.85,114.91z"/>
	<path fill="#0D2132" d="M350.61,226.19c0,29.03,0,58.06,0,87.74c-2.15-1.55-1.24-3.06-1.7-4.21c-0.09-10.45-0.18-20.9-0.26-31.34
		c-0.1-13.14-0.24-26.29-0.26-39.43c-0.01-4.47,0.31-8.94,0.48-13.41C349.49,225.67,350.22,225.5,350.61,226.19z"/>
	<path fill="#172123" d="M210.92,484.98c0,7.67,0,15.34,0,22.98c-1.74,0.06-1.74-0.69-1.75-1.32c-0.03-7.07-0.05-14.13-0.02-21.2
		c0-0.97-0.38-2.76,1.71-1.49C210.89,484.3,210.91,484.64,210.92,484.98z"/>
	<path fill="#28596A" d="M871.77,177.15c-0.03-3.07-0.1-6.14-0.09-9.21c0-1.15-0.29-2.52,1.38-2.9c0.03,3.11,0.1,6.23,0.09,9.34
		C873.15,175.49,873.45,176.84,871.77,177.15z"/>
	<path fill="#28596B" d="M239.95,358.07c-6.35,0-12.69,0-19.04,0C227.25,357.06,233.6,357.32,239.95,358.07z"/>
	<path fill="#EC9C78" d="M891.48,521.71c-2.41-2.28-1.76-4.51,0.1-6.72C891.54,517.23,891.51,519.47,891.48,521.71z"/>
	<path fill="#899B97" d="M586.4,438c-0.02-1.7-0.05-3.4-0.07-5.1C588.44,434.57,588.61,436.27,586.4,438z"/>
	<path fill="#697475" d="M587.62,557.03c-2.05-1.4-2.36-2.8-0.01-4.21C587.61,554.23,587.61,555.63,587.62,557.03z"/>
	<path fill="#F6E8D0" d="M456.72,118.36c0,9.51-0.1,19.02,0.07,28.53c0.05,2.49-0.55,3.06-3.04,3.04
		c-11.9-0.11-23.81-0.02-35.71,0.09c-4.26,0.04-8.52,0.31-12.78,0.48c-3.49,0.13-5.2-1.07-5.16-5.04
		c0.17-16.55,0.06-33.1,0.02-49.65c-0.01-2.4-0.26-4.79-0.3-7.19c-0.04-2.27,0.95-3.27,3.42-3.26c16.69,0.07,33.37,0.07,50.06-0.07
		c2.92-0.02,3.59,1.01,3.55,3.74c-0.15,9.77-0.06,19.55-0.06,29.33C456.77,118.36,456.75,118.36,456.72,118.36z"/>
	<path fill="#F5E8D0" d="M523.46,117.74c0,9.38-0.15,18.77,0.08,28.14c0.08,3.3-1.05,3.89-4.09,3.91
		c-16.19,0.1-32.39-0.58-48.58,0.44c-2.92,0.18-4.17-0.57-4.17-4.28c0.01-13.19,0.52-26.38,0.16-39.58
		c-0.17-6.23,0.09-12.49-0.28-18.72c-0.11-1.82,0.6-2.31,2.28-2.31c17.27,0.01,34.54,0.01,51.81-0.09c2.41-0.01,2.87,1,2.85,3.14
		c-0.08,9.78-0.04,19.57-0.04,29.36C523.48,117.74,523.47,117.74,523.46,117.74z"/>
	<path fill="#F6E8D1" d="M456.76,43.5c0,9.38-0.08,18.76,0.05,28.14c0.03,2.58-0.72,3.46-3.37,3.42
		c-10.11-0.14-20.23-0.38-30.32,0.04c-6.68,0.28-13.34,0.43-20.02,0.45c-1.95,0.01-2.87-0.03-2.87-2.74
		c0.01-18.29-0.32-36.57-0.56-54.86c-0.07-5.76,0.05-5.74,5.59-5.72c15.76,0.07,31.53,0.11,47.29-0.14c3.65-0.06,4.45,1,4.35,4.47
		c-0.26,8.97-0.09,17.95-0.09,26.93C456.81,43.5,456.78,43.5,456.76,43.5z"/>
	<path fill="#F5E8D0" d="M494.78,74.91c-8.3,0-16.61-0.07-24.91,0.05c-2.09,0.03-2.87-0.11-2.85-2.69
		c0.07-8.41-0.83-16.85-0.41-25.23c0.43-8.44,0.48-16.86,0.45-25.29c0-0.27,0.01-0.54,0-0.8c-0.06-8.46-0.07-8.64,8.58-8.73
		c14.86-0.16,29.72-0.05,44.58-0.12c1.93-0.01,2.73,0.38,2.93,2.59c0.34,3.76,0.21,7.5,0.09,11.24
		c-0.44,13.22,0.98,26.45-0.32,39.67c-0.03,0.27-0.06,0.54-0.05,0.8c0.45,8.51,0.45,8.51-8.02,8.52c-6.7,0-13.39,0-20.09,0
		C494.78,74.9,494.78,74.91,494.78,74.91z"/>
	<path fill="#F6E8CF" d="M138.53,745.82c0-9.22,0.11-18.44-0.07-27.66c-0.05-2.78,1.07-3.5,3.51-3.49
		c13.09,0.06,26.18,0.07,39.27,0.08c3.74,0,7.49,0.14,11.21-0.14c2.41-0.18,2.79,0.6,2.78,2.83c-0.09,19.07-0.08,38.14,0,57.2
		c0.01,2.06-0.47,2.81-2.64,2.8c-17.1-0.07-34.2-0.07-51.3-0.01c-2.41,0.01-2.41-1.36-2.41-3.1c0.04-9.5,0.02-19.01,0.02-28.51
		C138.78,745.82,138.65,745.82,138.53,745.82z"/>
	<path fill="#F6E8CF" d="M205.12,746.08c0-9.5,0.06-19.01-0.04-28.51c-0.02-2.19,0.44-2.98,2.86-2.96
		c16.72,0.13,33.45,0.16,50.17,0.03c3.09-0.02,2.65,1.19,2.63,3.54c-0.14,18.38-0.1,36.75,0.12,55.13c0.04,3.54-0.99,4.36-4.44,4.29
		c-14.04-0.27-28.09-0.26-42.14-0.25c-9.21,0-9.16,0.08-9.05-9.21c0.09-7.35,0.02-14.71,0.02-22.06
		C205.21,746.08,205.16,746.08,205.12,746.08z"/>
	<path fill="#F6E7CE" d="M138.5,674.44c0-8.82,0.05-17.65-0.04-26.47c-0.02-2.04,0.17-3.32,2.69-3.3
		c17.12,0.12,34.24,0.22,51.36,0.14c2.79-0.01,2.95,1.22,2.95,3.38c-0.04,18.06-0.04,36.12,0.06,54.18
		c0.01,2.27-0.63,3.03-2.91,3.01c-17.24-0.13-34.49-0.21-51.73-0.18c-2.44,0-2.44-1.25-2.43-3.01c0.04-9.25,0.02-18.5,0.02-27.75
		C138.47,674.44,138.48,674.44,138.5,674.44z"/>
	<path fill="#F6E8CF" d="M261.15,672.75c0,11.29-0.1,19.98,0.06,28.68c0.05,2.69-0.51,3.69-3.47,3.67
		c-16.44-0.14-32.89-0.12-49.33,0.03c-2.78,0.03-3.33-0.92-3.23-3.43c0.71-17.76,0.14-35.53,0.12-53.3c0-1.8-0.48-3.75,2.63-3.72
		c16.58,0.15,33.16,0.23,49.74,0.11c2.98-0.02,3.66,1.08,3.57,3.68C260.95,657.43,260.71,666.39,261.15,672.75z"/>
	<path fill="#172223" d="M217.26,20.3c12.19-0.03,24.38,0,36.57-0.15c2.84-0.03,3.63,0.98,3.62,3.75
		c-0.11,30.04-0.09,60.07-0.12,90.11c-0.02,25.56-0.09,51.12-0.07,76.68c0.01,19.29,0.12,38.59,0.15,57.88
		c0,1.53,0.62,2.78,1.15,4.16c1.53,4.02,0.31,5.68-3.99,5.69c-12.42,0.03-24.84,0-37.27,0c-0.05-22.52-0.14-45.04-0.15-67.56
		c-0.02-56.05,0.01-112.1,0.02-168.14C217.17,21.91,217.23,21.1,217.26,20.3z"/>
	<path fill="#F6E7CF" d="M89.42,98.42c-0.01-5.75-0.02-11.5-0.02-17.25C89.94,86.93,90.75,92.67,89.42,98.42z"/>
	<path fill="#071727" d="M693.92,667.19c1.33,1.34,0.78,3.05,0.78,4.59c0.03,43.05,0.03,86.11,0.03,129.16
		c0,2.11-0.04,4.21-0.06,6.32c-1.73-1.29-0.94-3.15-0.94-4.74c-0.09-43.13-0.13-86.26-0.15-129.38
		C693.59,671.16,693.81,669.18,693.92,667.19z"/>
	<path fill="#172123" d="M833.87,510.26c-7.36-0.88-14.72-1.75-22.08-2.66c-7.75-0.96-15.48-2.06-23.24-2.9
		c-1.86-0.2-3.67-0.49-5.47-0.94c-1.46-1.32-1.41-3.12-1.43-4.84c-0.36-44.27,0.05-88.55,0.05-132.83
		c-0.16-9.22-0.14-18.44-0.11-27.66c0.02-7.98,1.14-8.86,8.96-9.26c11.05-0.58,22.11-1.22,33.15-2.08
		c3.38-0.27,6.95-1.21,10.02,1.31c0.1,10.59,0.22,21.18,0.29,31.76c0.16,22.87,0.32,45.74,0.42,68.6
		c0.08,19.02,0.15,38.03,0.08,57.05C834.48,493.96,834.1,502.11,833.87,510.26z"/>
	<path fill="#F1A808" d="M783.13,366.29c-0.01,45.82-0.03,91.64-0.04,137.47c-12.1,7.76-24.27,15.41-36.01,23.72
		c-1.61,1.14-3.38,2.04-5.08,3.04c-0.95-1.47-0.58-3.12-0.58-4.69c-0.03-67.37-0.04-134.74-0.04-202.11c0-1.45-0.32-2.95,0.43-4.34
		c2.28,0.04,3.58,1.69,4.81,3.2c11.17,13.75,23.49,26.5,34.65,40.25C782.14,363.91,782.61,365.08,783.13,366.29z"/>
	<path fill="#183645" d="M783.13,366.29c-3.77-2.41-6.11-6.27-8.75-9.6c-9.07-11.39-19.53-21.57-28.38-33.13
		c-1.19-1.55-2.78-2.79-4.19-4.18c-0.61-1.39-0.52-2.16,1.35-2.29c13.85-1.01,27.7-2.09,41.54-3.19
		c11.98-0.95,23.96-1.96,35.94-2.91c3.86-0.3,7.73-0.43,11.59-0.71c2.15-0.15,1.54,1.47,1.55,2.46c0.05,5.22-0.02,10.43-0.05,15.65
		c-15.84,0.82-31.69,1.66-47.53,2.42c-2.94,0.14-3.02,1.97-3.02,4.13C783.17,345.39,783.14,355.84,783.13,366.29z"/>
	<path fill="#F0A808" d="M553.95,542.42c-3.02,0.9-6.07,0.02-9.11,0.07c-2.23,0.03-1.78-1.97-1.79-3.33c-0.09-7.5-0.3-15-0.07-22.49
		c0.1-3.17-0.7-4.08-3.92-4.06c-27.69,0.15-55.39,0.14-83.08,0.15c-19.13,0-38.26,0.03-57.38-0.15c-3.59-0.03-4.93,0.84-4.74,4.69
		c0.37,7.62,0.13,15.26,0.33,22.89c0.06,2.33-0.52,3.13-2.89,2.77c-1.84-0.28-3.74-0.07-5.6-0.21c-1.23-0.09-2.86,0.27-2.95-1.79
		c0.51-9.37,0.19-18.74,0.21-28.11c0.07-35.09,0.3-70.17,0.36-105.26c0-2.22,0.59-2.81,2.66-2.74c9.56,0.32,7.63-1.61,7.76,7.73
		c0.08,5.88-0.52,11.76,0.03,17.67c0.23,2.52,1.19,3.08,3.48,3.07c33.19-0.11,66.39-0.37,99.58-0.1c14.17,0.12,28.33-0.19,42.5-0.05
		c3.44,0.03,4.24-1.05,4.15-4.32c-0.19-7.23,0.19-14.48,0.07-21.71c-0.09-5.46,4.07-2.76,6.33-3.42c2.51-0.74,3.35,0.64,3.35,3.32
		c-0.06,30.27-0.14,60.55,0.11,90.82C553.47,512.7,552.82,527.57,553.95,542.42z"/>
	<path fill="#F6E8D1" d="M662.78,182.66c-0.02-15.38-0.03-30.76-0.05-46.14c10.28-0.61,20.57-0.06,30.85-0.08
		c18.16-0.03,36.32-0.32,54.48-0.29c18.19,0.03,36.37,0.39,54.55,0.47c11.76,0.05,23.51-0.24,35.27-0.19
		c5.05,0.02,10.13-0.5,15.17,0.34c-1.17,15.3-0.56,30.63-0.73,45.94c-23.12,0.04-46.23,0.12-69.35,0.11
		c-34.85-0.01-69.71-0.09-104.56-0.14C673.2,182.69,667.99,182.67,662.78,182.66z"/>
	<path fill="#F6E8D0" d="M669.85,114.91c0.01-6.9,0.02-13.79,0.03-20.69c18.81-0.54,37.62-0.1,56.42-0.43
		c14.38-0.25,28.75,0.72,43.14-0.13c10.2-0.6,20.47,0.26,30.71,0.31c14,0.07,28.01-0.01,42.02,0.01c1.18,0,2.36,0.33,3.54,0.51
		c-0.1,6.47-0.2,12.93-0.3,19.4c-0.76,1.92-2.5,1.28-3.81,1.28c-35.04-0.11-70.08-0.3-105.12-0.42c-15.7-0.05-31.4,0.25-47.09-0.1
		C682.86,114.5,676.37,115.43,669.85,114.91z"/>
	<path fill="#173544" d="M464.41,446.46c21.42,0,42.85-0.03,64.27,0.03c4.01,0.01,7.96-0.94,12.01-0.39
		c1.67,0.23,2.29,0.69,2.28,2.42c-0.04,16.08-0.05,32.17,0.06,48.25c0.02,2.75-1.81,2.6-3.41,2.68c-3.44,0.17-6.89,0.11-10.33,0.12
		c-16.58,0.06-33.17,0.45-49.74,0.08c-25.42-0.57-50.84,0.4-76.25,0.06c-9.35-0.12-9.26-0.06-9.34-9.51
		c-0.12-13.09-0.36-26.19-0.6-39.28c-0.06-3.08,0.04-4.74,4.38-4.67c22.22,0.38,44.44,0.18,66.67,0.18
		C464.41,446.44,464.41,446.45,464.41,446.46z"/>
</g>
</svg>
