<?xml version="1.0" encoding="utf-8"?>
<!-- Generator: Adobe Illustrator 24.1.2, SVG Export Plug-In . SVG Version: 6.00 Build 0)  -->
<svg version="1.1" id="Layer_1" xmlns="http://www.w3.org/2000/svg" xmlns:xlink="http://www.w3.org/1999/xlink" x="0px" y="0px"
	 viewBox="0 0 238.2 229.8" enable-background="new 0 0 238.2 229.8" xml:space="preserve">
<g>
	<path fill="#FEFEFE" d="M42.5,110.9c0-36.7,0-73.4,0-110.1c0-0.6,0.2-0.7,0.7-0.7c50.6,0,101.1,0,151.7,0c0.6,0,0.7,0.1,0.7,0.7
		c0,34.9,0,69.8,0,104.8c-0.4,0.2-0.5-0.1-0.7-0.3c-2.1-1.9-4.3-3.7-6.8-5.1c-3.7-2.1-7.7-3.8-11.8-5c-2.5-0.8-5.1-1.4-7.7-2
		c-0.3-0.1-0.6-0.1-0.8-0.4c0-4.3-0.1-8.6,0-12.9c0.1-3,0.3-6,0.4-9c0-0.1,0-0.3,0.1-0.4c0.2-1.1,0.2-1.1,1.3-1.2
		c1.2,0,2.2-0.4,3.2-0.9c4.3-2.2,6.7-7.3,5.8-11.9c-0.6-3-3.1-5.3-6.5-4.9c-0.2,0-0.4,0-0.6-0.1c-0.3-0.2-0.2-0.6-0.1-0.8
		c0.8-3.9,0.9-7.8,0.7-11.8c-0.2-3.9-1-7.6-3.5-10.7c-2.4-3.1-5.6-5-9.5-5.7c-2.7-0.5-5.4-0.6-8.2-0.8c-3.8-0.2-7.4-1.2-10.7-3.1
		c-1.9-1.1-3.8-2.3-5.9-3c-3.6-1.2-7.2-1.5-10.9,0c-6,2.5-6.6,8.6-4,12.8c1.3,2.2,3.2,3.8,5.4,5.2c0.4,0.3,1,0.5,1.2,1.1
		c-0.1,1.7-0.6,3.4-0.7,5.1c-0.1,1.3-0.2,2.6-0.3,3.8c-0.1,0.4-0.5,0.6-0.8,0.8c-2.7,2-4.2,4.6-4.1,7.9c0,3,1.3,5.6,3.6,7.5
		c0.4,0.3,0.8,0.5,1,1c0.1,0.3,0.1,0.5,0.1,0.8c-0.3,2.1-0.2,4.2-0.1,6.3c0.1,3.8,0.9,7.4,2.4,10.9c0.7,1.6,1.4,3.1,2.5,4.5
		c2,2.6,4.3,4.9,7.5,6.1c0.3,0.1,0.6,0.2,0.7,0.6c0.1,1.3,0.3,2.7,0.2,4c0,0.3,0,0.6-0.1,0.9c-0.1,0.3-0.5,0.4-0.7,0.5
		c-3.2,1-6.3,2.2-9.3,3.7c-4,2-7.5,4.5-10.5,7.9c-0.2,0.2-0.3,0.4-0.6,0.4c-0.3-0.1-0.4-0.2-0.6-0.4c-2.6-2-5.5-3.5-8.4-4.7
		c-0.5-0.2-1-0.4-1.4-0.7c-0.2-0.1-0.4-0.3-0.3-0.6c0.1-0.2,0.3-0.2,0.5-0.3c1.1-0.2,2.2-0.4,3.2-0.8c4.4-1.8,7.2-5.1,8.5-9.6
		c0.9-2.9,0.8-5.9,0.6-8.9c-0.4-4.5-1.6-8.8-2.6-13.1c-0.9-4-1.6-8-2-12.1c-0.4-3.6-0.7-7.3-1.7-10.8c-1-3.6-2.7-6.8-5.2-9.7
		c-1.9-2.2-4-4-6.6-5.5c-2.7-1.5-5.5-2.4-8.5-2.8c-1.8-0.3-3.6-0.5-5.4-0.5c-7.3,0.2-13.7,2.6-19.1,7.6c-3.8,3.4-6.3,7.7-8.1,12.4
		c-1.8,4.7-2.9,9.6-3.9,14.5c-1.3,6.6-2.9,13.1-5,19.5c-0.9,2.7-1.3,5.4-1.2,8.2c0.1,2.5,0.8,4.9,2.2,7c1.6,2.4,4,3.4,6.7,3.8
		c0.3,0,0.8-0.1,0.9,0.3c0.1,0.4-0.5,0.4-0.8,0.6c-3.5,1.4-7,3.1-10.1,5.3c-1.9,1.4-3.8,2.8-5.4,4.6C43.2,110.6,43,111.1,42.5,110.9
		z"/>
	<path fill="#0E8686" d="M195.7,190.9c0,12.8,0,25.5,0,38.3c0,0.5-0.1,0.6-0.6,0.6c-24.5,0-49,0-73.4,0c-0.4-0.7-0.3-1.6-0.2-2.3
		c0.2-1.8,0.1-3.6,0.2-5.4c0.2-2.5,0.4-5,0.7-7.5c0.1-1.1,0.2-2.2,0.3-3.5c-0.4,0.4-0.5,0.7-0.6,1.1c-0.8,2.4-1.1,4.9-1.3,7.3
		c-0.3,3.1-0.5,6.3-0.5,9.5c0,0.3,0,0.7-0.2,0.9c-4.1,0-8.2,0-12.3,0c-0.2-0.2-0.2-0.5-0.2-0.8c0.4-4.1,0.8-8.2,1.5-12.2
		c0.8-5.1,1.9-10,3.7-14.8c1.4-3.7,3.4-7,6.3-9.7c1.4-1.2,2.7-2.6,4.3-3.7c2.9-2.2,6.2-3.5,9.6-4.6c2.3-0.8,4.7-1.4,7.1-1.8
		c0.3-0.1,0.6-0.2,1,0c0.2,0.8,0,1.6-0.1,2.4c-0.3,2,0.5,3.6,1.9,4.8c2.2,1.9,4.8,2.9,7.7,3.3c3.6,0.5,7.1-0.1,10.5-1.3
		c3.8-1.3,7.1-3.3,9.9-6.1c1.2-1.1,2.2-2.4,2.9-3.8c0.2-0.3,0.3-0.7,0.7-0.9c0.3-0.1,0.6,0,0.9,0.1c4,1.2,8.1,2.5,12,4.2
		c0.9,0.4,1.7,0.9,2.6,1.2c2.1,1.1,3.8,2.6,5.4,4.2C195.4,190.3,195.5,190.6,195.7,190.9z"/>
	<path fill="#D2244B" d="M119.3,192.3c-2.6,2.6-4.6,5.5-6,8.9c-1,2.5-1.7,5-2.4,7.6c-1.3,4.9-2,9.9-2.6,15c-0.2,2-0.4,4.1-0.6,6.1
		c-21.5,0-43,0-64.6,0c-0.5,0-0.7-0.1-0.7-0.6c0-13.9,0-27.7,0-41.6c1.2-1.2,2.7-2,4.1-2.9c0.7-0.5,1.5-0.9,2.3-1.3
		c3.6-1.8,7.3-3,11.1-4.2c0.7-0.2,1.4-0.4,2.1-0.6c0.3-0.1,0.6-0.2,0.9-0.1c0.9,1.3,1.8,2.7,3,3.9c3.9,3.9,8.5,6.3,14,7.1
		c3.3,0.5,6.6,0.6,9.9-0.6c1.8-0.7,3.4-1.5,4.6-3.1c0.8-1,1.1-2.1,1.2-3.3c0.1-1,0.3-2.1,0.3-3.1c0-0.2,0.1-0.4,0.3-0.5
		c0.3-0.1,0.6,0,0.9,0.1c4.9,1.5,9.6,3.4,14,6.2c2.3,1.4,4.4,3.1,6.4,5c0.6,0.5,1,1.2,1.5,1.7C119.3,191.9,119.3,192.1,119.3,192.3z
		"/>
	<path fill="#090908" d="M48.8,183.6c-2.1,1.3-4.2,2.6-6.3,4c0-25.6,0-51.2,0-76.7c0.2,0,10.6-8.2,16.8-10.6
		c0.2-0.1,0.3-0.1,0.4-0.3c-2.5-0.2-4.9-0.9-6.7-2.8c-1.7-1.9-2.7-4.1-3-6.6c-0.6-4,0.4-7.8,1.6-11.6c2-6,3.3-12.1,4.6-18.3
		c1.1-5.2,2.3-10.4,4.3-15.3c3.6-8.6,9.7-14.7,18.7-17.6c3.9-1.2,7.9-1.5,11.9-1c3.5,0.4,6.9,1.1,9.9,2.9
		c6.4,3.7,10.6,9.1,12.4,16.3c0.7,3,1.1,6,1.4,9c0.5,5.2,1.4,10.3,2.6,15.4c0.8,3.2,1.6,6.4,2,9.7c0.4,4.2,0.6,8.5-1.3,12.4
		c-2.1,4.4-5.5,7.2-10.4,8.1c-0.2,0-0.4,0.1-0.6,0.1c-0.2,0-0.4-0.1-0.6,0.2c0.4,0.5,0.9,0.7,1.4,0.9c2.8,1.2,5.5,2.5,8,4.3
		c0.5,0.4,0.9,0.7,1.4,1.1c0.1,0.4-0.2,0.6-0.4,0.8c-1.7,1.9-2.9,4.1-4,6.4c-0.2,0.3-0.2,0.8-0.8,0.8c-0.1,0-0.1-0.1-0.2-0.1
		c-0.2-0.4-0.4-0.8-0.7-1.1c0-0.1-0.1-0.1-0.1-0.2c-0.3-0.5-0.6-1-1-1.4c-0.2-0.2-0.4-0.4-0.5-0.7c-1.1-1.7-2.6-3-4.2-4.2
		c-2.4-1.9-5.1-3.3-8.1-4.3c-0.3-0.1-0.7-0.2-1-0.5c-0.1-0.9,0.1-1.7,0.2-2.6c0.1-1.2,0.2-2.4,0.3-3.5c-0.1-0.1-0.2-0.1-0.2,0
		c-1.8,0.8-3.8,0.9-5.7,0.6c-2-0.3-3.9-0.9-5.8-1.8c-1.1-0.6-2.1-1.4-3-2.2c-2.1-1.8-4-3.8-5.1-6.4c-0.1-0.2-0.2-0.4-0.2-0.6
		c-0.1-0.3-0.3-0.6,0-0.8c0.3-0.2,0.5,0.1,0.7,0.3c0.4,0.3,0.7,0.7,1.1,1.1c1.9,1.9,3.9,3.4,6.4,4.5c3.5,1.6,7.2,2.5,11,2.2
		c2.1-0.1,4.1-0.9,6.1-1.8c3.7-1.6,6.1-4.5,8-7.9c1.4-2.4,2.4-4.8,3-7.5c0.3-1.5,0.5-3,0.6-4.6c0-0.7,0.1-1.3,0.2-2
		c0.1-4.5-0.5-8.8-1.3-13.2c-0.5-2.7-1-5.3-1.7-7.9c-0.1-0.5-0.3-0.9-0.7-1.3c-3.7-3.7-7.4-7.4-11.5-10.7c-0.3-0.2-0.6-0.4-0.8-0.6
		c-0.3-0.2-0.4-0.1-0.6,0.2c-0.8,1.8-2.2,3.2-3.5,4.7c-0.9,0.9-1.7,1.9-2.6,2.8c-2.4,2.5-5.1,4.6-8,6.6c-3.3,2.3-6.7,4.5-10,6.8
		c-0.1,0.1-0.2,0.1-0.3,0.2c-1.8,1.2-1.9,1.2-3.5-0.2c-2.4-2.1-6.4-1.9-8.3,0.3c-1,1.2-1.4,2.6-1.6,4c-0.3,2.8,0.3,5.4,1.9,7.7
		c1.6,2.2,3.7,3.3,6.3,3.5c0.1,0,0.2,0,0.3,0c1.2-0.1,1.2-0.1,1.3,1.1c0.1,2.7,0.2,5.3,0.1,8c-0.2,4-0.1,8-0.7,11.9
		c-0.4,2.2-1.2,4-3.1,5.3c-0.5,0.3-0.5,0.6-0.2,1.1c1.5,2.2,3.3,4.2,5.6,5.6c0.3,0.2,0.7,0.4,0.9,0.7c-0.1,0.3-0.4,0.5-0.6,0.6
		c-4.6,2.9-8,6.8-10.5,11.6c-2.3,4.3-3.7,9-5,13.7c-2.5,9.3-4.2,18.8-5.9,28.2c-0.6,3.2-1.1,6.4-1.6,9.7c-0.4,3-0.6,6.1-0.5,9.2
		c0.1,1.2,0.2,2.4,0.5,3.5C48.7,182.9,48.9,183.2,48.8,183.6z"/>
	<path fill="#FDC013" d="M112.1,114.9c0.3,0.3,0.3,0,0.4-0.2c1.3-2.7,2.8-5.3,4.8-7.6c1.6-1.7,3.3-3.5,5.2-4.9
		c2.8-2.1,5.8-3.7,9.1-5c2.2-0.8,4.3-1.8,6.6-2.4c0.3,0.2,0.2,0.6,0.2,0.9c0,0.7,0,1.3,0.1,2c0.2,1.5,1.3,2.6,2.4,3.5
		c1.8,1.5,4,2.3,6.3,2.6c5.7,1,10.9-0.2,15.6-3.6c2-1.4,3.6-3.3,4.6-5.6c0.2-0.4,0.3-0.9,0.4-1.4c0-0.2,0-0.5,0.3-0.6
		c4.2,0.9,8.4,2,12.4,3.5c5.5,2.1,10.8,4.9,15,9.2c0,0,0.1,0,0.2,0.1c0,28.5,0,56.9,0,85.4c-1.7-1.9-3.6-3.5-5.8-4.8
		c-0.2-0.3-0.1-0.6,0-0.9c1.1-4,1-8.1,0.7-12.2c-0.7-10.2-2.8-20.2-4.9-30.2c-1.2-5.5-2.6-11-4.9-16.1c-1.5-3.4-3.2-6.6-5.6-9.3
		c-4.4-5.1-9.9-8.3-16.7-9.3c-2.1-0.3-4.2-0.7-6.3-0.6c-4.1,0.3-8.2,0.7-12.1,2.2c-6.2,2.5-10.8,6.8-14,12.7
		c-2.4,4.4-3.5,9.2-4.3,14.2c-0.6,3.8-1.1,7.6-1.4,11.4c-0.2,2.5-0.3,4.9-0.4,7.4c-0.2,3.2-0.4,6.5-0.5,9.7c-0.1,3.3-0.1,6.7,0.1,10
		c0.2,2.5,0.4,5,1.1,7.4c0.5,2,1.2,3.9,2.5,5.5c0.2,0.2,0.3,0.4,0.2,0.7c-1.5,1-2.7,2.4-4.1,3.6c-2.2-2.6-4.8-4.8-7.7-6.6
		c-0.1-0.1-0.3-0.2-0.4-0.3c0.7-0.9,0.8-2.1,1.1-3.1c0.3-1.2,0.7-2.5,1.1-3.7c0.6-1.5,0.8-3.1,1.1-4.7c0.4-2.3,0.9-4.6,1.2-6.9
		c0.4-2.8,0.7-5.6,0.9-8.4c0.3-4.6,0.5-9.1,0.4-13.7c0-5.7-0.6-11.4-1.6-17.1c-0.5-2.5-0.9-5-1.6-7.5c-0.4-1.6-1-3.1-1.7-4.5
		C112.1,115.4,111.9,115.2,112.1,114.9z"/>
	<path fill="#050403" d="M120,229.8c0-3.6,0.1-7.1,0.5-10.7c0.2-2.4,0.5-4.8,1.3-7.2c0.2-0.6,0.4-1.2,1.1-1.5c0.2,0.4,0,0.8-0.1,1.2
		c-0.6,6-1.2,11.9-1.2,17.9c0,0.1,0,0.1,0,0.2C121.1,229.8,120.5,229.8,120,229.8z"/>
	<path fill="#050403" d="M188.4,229.8c0.1-7.1,0.3-1.5-0.4-10.7c-0.2-2.4-0.5-4.8-1.1-7.2c-0.2-0.6-0.4-1.2-0.9-1.5
		c-0.2,0.4,0,0.8,0,1.2c0.5,6,1,11.9,1,17.9c0,0.1,0,0.1,0,0.2C187.5,229.8,188,229.8,188.4,229.8z"/>
	<path fill="#E97446" d="M168.1,92.7c-0.2,2.8-1.9,4.9-3.9,6.7c-2.9,2.6-6.3,4.3-10.2,4.8c-4.4,0.6-8.7,0.3-12.6-2.3
		c-1.5-1-2.8-2.2-3.1-4.1c-0.2-1,0-2-0.1-3c0-0.3,0-0.6,0.1-0.9c0.2-0.2,0.5-0.1,0.7,0c3.1,1,6.2,0.6,9.3-0.4c3.1-1,5.7-2.8,8-5
		c1.3-1.3,2.5-2.7,3.3-4.4c0.1-0.2,0.2-0.3,0.3-0.4c-1.2,1.2-2.5,2.3-3.9,3.2c-2.7,1.8-5.5,3-8.7,3.5c-2.8,0.4-5.5,0.3-8.2-0.3
		c-0.3-0.1-0.6-0.1-0.8-0.4c-0.7-0.3-1.3-0.5-2-0.9c-3.7-1.9-6.2-5-8-8.6c-2.1-4.2-3.2-8.8-3.2-13.5c0-2,0-4.1,0.2-6.1
		c0.4-0.2,0.6,0.1,0.9,0.2c3.1,1.5,6.2,1.3,9.1-0.3c0.4-0.2,0.7-0.5,1.2-0.4c0.2,0.4-0.1,0.6-0.2,0.9c-0.4,0.8-0.8,1.6-1.1,2.4
		c-0.5,1.3-0.3,2.1,0.9,2.8c1.9,1.3,4,1.6,6.2,1.1c0.4-0.1,0.8-0.2,0.7-0.7c-0.1-0.5-0.5-0.5-0.9-0.5c-1.5-0.1-2.9-0.3-4.3-0.8
		c-1.2-0.4-1.4-0.9-1-2.1c0.4-1.1,0.9-2.2,1.4-3.3c0.9-2.1,1.9-4.1,2.6-6.3c0.2-0.7,0.3-1.4,0-2.1c0.5-0.6,1.1-0.2,1.6-0.1
		c0.5,0.1,0.5,0.6,0.5,1c0.1,2.7,0.9,5.1,2.9,6.9c3.9,3.8,9.1,3.3,12.6,0.1c1.8-1.6,2.9-3.7,3.4-6.1c0.1-0.7,0.3-0.8,1-0.7
		c1,0.2,1.9,0.4,2.9,0.5c0.2,0,0.4,0.1,0.5,0.2c0.3,0.5,0,1.1,0.3,1.7c0.8-0.9,1.7-1.7,2.6-2.5c0.8-0.8,1.7-1.5,2.9-1.6
		c1.6-0.3,3.1-0.1,4.5,0.8c1.9,1.2,2.7,3.1,2.9,5.3c0.4,5.6-3.4,10.9-8.5,12c-0.4,0.1-0.7,0.2-1.1,0.1c-0.7-0.1-0.9,0.3-1,0.9
		c-0.1,1.9-0.2,3.9-0.3,5.8c-0.2,5.2-0.2,10.5-0.2,15.8C168.1,92.2,168.1,92.5,168.1,92.7z"/>
	<path fill="#AA381D" d="M171.8,51.3c-2.4,0.8-3.9,2.8-5.7,4.4c-0.2-0.7-0.1-1.3-0.1-2c0.1-0.2,0.3-0.2,0.5-0.2c0.5-0.1,1-0.9,1-1.4
		c0-0.3-0.3-0.4-0.5-0.4c-0.4-0.1-0.8-0.1-1.1-0.4c-0.2-1.2-0.2-2.3-0.2-3.5c0-2-0.1-4-0.3-6c-0.4-3.7-3.2-6.5-6.9-7
		c-1.8-0.2-3.5,0-5.2,0.5c-1.9,0.5-3.8,1.1-5.7,1.8c-4.9,1.7-9.8,1.5-14.8,0.1c-2-0.6-4-1.4-5.9-2.3c-0.2-0.1-0.4-0.2-0.5-0.4
		c-1.2-0.9-2.5-1.6-3.6-2.6c-1.9-1.7-3.5-3.7-4.2-6.3c-1-3.8,0.5-7.6,3.9-9.6c2.5-1.5,5.3-1.9,8.2-1.7c3.8,0.3,7.1,2.1,10.3,4
		c3.5,2,7.3,3,11.3,3.1c3.3,0.1,6.6,0.3,9.8,1.4c5.5,2,8.8,5.9,10.1,11.6c0.8,3.7,0.7,7.4,0.5,11.1
		C172.4,47.5,172.1,49.4,171.8,51.3z"/>
	<path fill="#E97446" d="M126.2,34.4c1.8,0.6,3.5,1.6,5.3,2.2c3.4,1.1,6.9,1.6,10.4,1.4c2.5-0.2,4.8-0.9,7.1-1.7c2-0.6,4-1.3,6-1.7
		c3.1-0.5,5.9,0,8.2,2.3c1.3,1.4,2,3,2.2,4.9c0.4,3.1,0.3,6.3,0.5,9.4c-1.5,0.1-2.8-0.2-4.2-0.7c-0.3-0.1-0.3-0.4-0.4-0.7
		c-0.2-0.7-0.5-1.4-0.9-2.1c-1.8-3.5-5.6-5.5-9.5-4.9c-3.6,0.5-6.1,2.4-7.7,5.6c-0.2,0.5-0.5,0.6-1,0.6c-0.9,0-1.7-0.2-2.6-0.2
		c-0.5,0-0.7-0.3-0.9-0.7c-0.9-1.6-2.1-3.1-3.6-4.1c-2.8-1.8-5.7-1.9-8.7-0.8c-0.4,0.1-0.7,0.4-1.1,0.2
		C125.3,40.5,125.6,37.4,126.2,34.4z"/>
	<path fill="#FDBF12" d="M125.2,43.6c1.8-0.7,3.6-1.3,5.6-1.1c2.6,0.3,4.8,1.3,6.4,3.3c0.7,0.9,1.4,1.7,1.9,2.7
		c0.1,0.2,0.2,0.3,0.5,0.3c1,0,2,0.1,3.1,0.2c0.3,0,0.4-0.1,0.5-0.3c1.9-4.3,6-6.4,10.3-5.9c3.9,0.4,6.7,2.6,8,6.4
		c0.4,1.2,1,1.8,2.3,1.8c0.8,0,1.6,0.3,2.4,0.4c0.1,0,0.3,0,0.4,0.1c0.5,0.2,1.4-0.1,1.4,0.8c0,1.1-0.6,1.5-1.7,1.6
		c-1.3-0.3-2.5-0.5-3.8-0.8c-0.3-0.1-0.4,0.1-0.4,0.4c-0.5,3-1.9,5.4-4.4,7.1c-6,4.3-13.2,0.7-14.6-5.6c-0.2-0.8-0.4-1.7-0.3-2.5
		c0-0.5-0.2-0.7-0.6-0.7c-0.4,0-0.8-0.2-1.2-0.1c-0.9,0.3-1.3,1.1-1.5,1.9c-0.6,2-1.4,4-2.3,6c-0.1,0.3-0.2,0.6-0.5,0.7
		c-0.7,0.2-1.3,0.7-2,1c-2.8,1.1-5.5,1.2-8.3-0.1c-0.3-0.1-0.6-0.3-0.9-0.5c-2.5-1.7-4.1-3.9-4.6-6.8
		C119.7,49.6,121.6,45.8,125.2,43.6z"/>
	<path fill="#050404" d="M138.1,89.8c1.9,0.5,3.8,0.8,5.8,0.8c5.1,0,9.6-1.7,13.5-4.9c0.9-0.7,1.8-1.5,2.7-2.5
		c-0.6,1.8-1.6,3.1-2.7,4.4c-3.1,3.5-6.9,6-11.6,6.9c-2.5,0.5-5.1,0.5-7.6-0.5C138.2,92.6,138.2,91.2,138.1,89.8z"/>
	<path fill="#00542F" d="M123.3,188.7c-2-2.5-2.9-5.5-3.5-8.7c-0.6-3.6-0.7-7.2-0.6-10.9c0-4.5,0.3-9,0.6-13.5
		c0.2-2.8,0.3-5.7,0.5-8.5c0.3-4,0.8-7.9,1.5-11.9c0.7-3.8,1.6-7.6,3.2-11.1c3.4-7.3,8.6-12.5,16.4-15.1c2.5-0.8,5-1.2,7.6-1.5
		c1.4-0.1,2.7-0.4,4.1-0.3c4.6,0.3,9.1,0.9,13.3,3c5.5,2.8,9.7,6.9,12.6,12.4c2.8,5.2,4.5,10.8,6,16.4c1.7,6.7,2.9,13.5,4,20.3
		c0.6,3.5,1.1,7.1,1.5,10.6c0.3,3.4,0.5,6.8,0.3,10.1c-0.1,2-0.6,3.9-1,5.9c-1.6-0.7-3.2-1.4-4.8-2.1c-3.3-1.4-6.8-2.4-10.3-3.4
		c-0.1,0-0.2,0-0.4-0.1c-2.3-0.3-4.1-2.1-4.8-4.6c-0.4-1.8-0.7-3.6-0.7-5.4c0-1.1-0.2-2.2-0.2-3.4c0-3.1,0.4-6.1,0.7-9.2
		c0-0.2,0.1-0.4,0.1-0.6c0.1-0.5,0.3-0.6,0.8-0.6c3.7,0.3,6.4-1.3,8.2-4.4c1.5-2.6,1.9-5.3,1.2-8.2c-0.6-2.4-2.7-4-4.9-3.9
		c-1,0-1.8,0.4-2.5,1c-0.5,0.4-1,0.7-1.5,1.1c-0.7,0.6-1.2,0.5-1.7-0.3c-0.4-0.6-0.6-1.3-0.9-2c-0.5-1.2-1.3-2.2-2.5-2.8
		c-4.9-2.6-9.6-5.6-13.8-9.1c-3.1-2.5-5.8-5.5-7.2-9.4c0-0.1-0.1-0.2-0.3-0.3c-0.3,0.4-0.4,0.8-0.7,1.2c-2.4,4-5.6,7.2-9.4,9.8
		c-2.1,1.4-4.3,2.7-6.6,3.9c-0.5,0.3-0.8,0.7-0.9,1.3c-0.5,3.7-1.2,7.4-1.4,11.1c-0.1,1.5-0.3,2.9-0.3,4.4
		c0.1,5.8,1.4,11.4,4.4,16.4c1.7,2.8,3.8,5.2,6.5,7.1c0.9,0.6,1.8,1,2.8,1.3c0.4,0.1,0.7,0.2,1,0.4c1,1.1,1.3,2.4,1.4,3.8
		c-0.1,0.8-0.1,1.6-0.3,2.4c0,0.2,0,0.5-0.3,0.6c-2.4,0.5-4.9,1.1-7.3,1.8C130,185,126.4,186.4,123.3,188.7z"/>
	<path fill="#F79A65" d="M139.9,175.3c-1.8-0.6-3.6-1.4-5.1-2.6c-3.6-3-6.1-6.8-7.7-11.2c-1.6-4.4-2.2-8.9-2-13.5
		c0.2-4.8,1-9.4,1.7-14.1c0.1-0.4,0.3-0.5,0.6-0.7c2.7-1.4,5.4-2.9,7.9-4.8c3.8-2.8,6.9-6.3,9.1-10.5c0-0.1,0.1-0.1,0.2-0.2
		c0.4,0.9,0.6,1.8,1.1,2.6c1.8,3.4,4.4,6.1,7.5,8.4c4.3,3.2,8.8,6.2,13.5,8.7c0.6,0.3,0.9,0.9,1.2,1.4c0.5,0.9,0.9,1.8,1.3,2.7
		c0.5,1.1,0.8,1.1,1.7,0.4c0.5-0.4,1-0.8,1.6-1.1c2.5-1.8,5.4-0.7,6.7,1.5c1.1,1.7,1.3,3.5,1.1,5.4c-0.3,3-1.6,5.6-4,7.6
		c-1.7,1.4-3.7,1.8-5.9,1.6c-0.4,0-0.6,0-0.6,0.5c-0.4,3.9-0.9,7.9-0.6,11.8c0.1,2,0.3,4.1,0.6,6.1c0.4,2.4,1.7,4,4,4.8
		c0.3,0.1,0.5,0.2,0.7,0.4c-1,1.8-2.1,3.5-3.6,4.9c-3.8,3.7-8.4,6-13.6,7.1c-3.7,0.8-7.3,0.7-10.8-0.7c-1.3-0.5-2.5-1.1-3.6-2
		c-2-1.6-2.7-3.7-2.2-6.2c0.1-0.5,0.1-1,0.2-1.5c0.1-1.1,0.2-2.1,0.4-3.2c0.1-0.1,0.3-0.1,0.4-0.1c5.1,1.1,9.6-0.5,13.7-3.4
		c1.6-1.2,3-2.5,4.3-4.1c0.3-0.4,0.6-0.9,0.8-1.4c-3.1,2.7-6.7,4.7-10.7,5.6c-2.9,0.6-5.8,0.7-8.7,0.2
		C140.6,175.7,140.2,175.6,139.9,175.3z"/>
	<path fill="#E97446" d="M96.4,178.9c-0.3,0.7-0.2,1.5-0.3,2.2c-0.1,0.6-0.1,1.3-0.2,1.9c-0.3,2.3-1.7,3.8-3.6,4.9
		c-3.2,1.9-6.8,2.3-10.4,2c-3.6-0.3-7-1.2-10.1-3c-3.3-1.8-6.1-4.3-8.2-7.5c-0.2-0.3-0.3-0.6-0.4-0.9c0-0.2,0.2-0.3,0.3-0.4
		c1.7-1.1,2.5-2.8,3-4.6c0.5-1.9,0.7-3.8,0.8-5.8c0.4-4.8,0.3-9.7,0.3-14.6c0-0.8,0.2-1.1-1-1.2c-3.3-0.2-5.5-2.1-6.9-4.9
		c-1.4-2.6-1.8-5.4-1.1-8.3c0.6-2.5,2.4-4.3,4.8-4.7c1.3-0.2,2.4,0.2,3.5,0.7c0.6,0.3,1.1,0.6,1.6,1c0.5,0.3,0.9,0.3,1.3,0
		c0.7-0.5,1.4-0.8,2.1-1.3c3.7-2.7,7.6-5,11.3-7.7c2.3-1.6,4.4-3.5,6.5-5.4c1.7-1.6,3.3-3.2,4.8-4.9c0.9-1.1,1.6-2.2,2.2-3.5
		c0.4-0.8,0.4-0.8,1.2-0.3c1.1,0.7,2,1.6,3,2.5c2.6,2.4,5.1,4.9,7.9,7.2c0.1,0.1,0.2,0.1,0.3,0.2c0.3,0.3,0.6,0.6,1,0.8
		c1.5,0.9,2.1,2.4,2.3,4.1c0.6,4.4,1.5,8.7,2,13.1c0.3,2.9,0.5,5.8,0.2,8.7c-0.4,5.3-2.1,10.2-5,14.6c-2.2,3.3-4.9,5.9-8.4,7.6
		c-1.3,0.6-2.5,1.1-3.9,1.4c-2.5,0.3-5.1,0.2-7.6-0.3c-4.8-0.9-8.7-3.4-12.2-6.5c0.6,1.6,1.7,3.3,3.8,5.3c2.2,2.1,4.7,3.8,7.7,4.6
		c2.4,0.7,4.8,1,7.2,0.3c0.2-0.1,0.4-0.2,0.6,0.1C96.5,177.3,96.4,178.1,96.4,178.9z"/>
	<path fill="#FBED60" d="M108.5,122.6c-1.1-0.6-1.9-1.6-2.8-2.4c-1.7-1.6-3.4-3.2-5.1-4.8c-1-0.9-2-1.8-3.1-2.7
		c-0.3-0.2-0.5-0.4-0.7,0.2c-1.2,2.9-3.5,5.1-5.7,7.3c-1.6,1.6-3.2,3.1-5,4.5c-2.4,2-5.1,3.7-7.7,5.4c-2.8,1.9-5.6,3.7-8.3,5.6
		c-0.7,0.5-1.3,0.6-2.1,0c-0.7-0.6-1.5-1-2.4-1.2c-3.3-1.1-6.2,1.1-7,4.2c-0.9,3.5-0.2,6.8,1.9,9.8c1.6,2.2,3.7,3.4,6.5,3.4
		c0.5,0,0.7,0.2,0.7,0.7c0,3.4,0.1,6.7,0,10.1c-0.1,3.1-0.1,6.3-0.7,9.4c-0.3,1.7-0.8,3.4-1.9,4.9c-0.5,0.7-1.2,1.3-2,1.7
		c-4.9,1.3-9.6,3-14.2,5.1c-0.6-1.5-0.8-3-0.9-4.6c-0.2-4.2,0.3-8.3,1-12.5c0.8-5.2,1.8-10.3,2.8-15.4c1.8-9.4,3.7-18.9,7-28
		c2-5.4,4.9-10.2,9.3-14c1.3-1.1,2.8-2.1,4.2-3.1c0.2-0.4,0.6-0.5,0.9-0.7c3.8-2.1,7.9-3.3,12.3-3.7c3.5-0.3,6.9-0.2,10.3,0.5
		c0.3,0.1,0.7,0.1,0.8,0.4c4.7,1.4,8.7,3.8,12.1,7.4c0.5,0.5,1,1,1.3,1.6c-0.2,0.1-0.3,0-0.4-0.1c-0.6-0.4-1.1-0.2-1.4,0.5
		c-0.1,0.3-0.1,0.6,0,1c0.2,0.7,0.2,1.3,0,2c-0.1,0.6-0.1,1.1,0.1,1.7c0.2,0.5,0,1-0.1,1.5c-0.1,0.6-0.1,1.1,0.1,1.7
		C108.5,120.7,108.6,121.6,108.5,122.6z"/>
	<path fill="#FBED60" d="M108.5,122.6c-0.5-0.5,0-1.2-0.3-1.8c-0.1-0.2-0.1-0.4-0.2-0.6c-0.4-0.8-0.3-1.6-0.1-2.5
		c0.1-0.4,0.1-0.9-0.1-1.3c-0.3-0.5,0-1.1,0.1-1.6c0.1-0.6,0-1.2-0.1-1.8c-0.2-0.8,0.2-1.7,0.9-2.1c0.2-0.1,0.3,0,0.4,0.1
		c0.2,0.2,0.5,0.4,0.7,0.6c0.1,0.2,0.3,0.4,0.4,0.5c0.3,0.6,0.6,1.1,1.1,1.5l0,0c0.2,0.4,0.4,0.8,0.8,1.2c0,0,0,0,0,0
		c0.6,1.2,1.1,2.4,1.5,3.7c0.7,2.1,1.2,4.2,1.6,6.4c0.4,2.3,0.8,4.6,1.1,6.9c0.3,2,0.5,4.1,0.7,6.1c0.3,4.1,0.3,8.2,0.3,12.3
		c-0.1,3.1-0.2,6.3-0.5,9.4c-0.3,3.5-0.7,7.1-1.4,10.6c-0.5,2.4-0.8,4.8-1.4,7.1c-0.3,1.1-0.8,2.1-1.1,3.2c-0.3,1.3-0.7,2.6-1,3.9
		c-0.1,0.4-0.2,0.7-0.7,0.7c-4.6-2.9-9.6-4.9-14.8-6.4c-0.4-0.8,0-1.7,0-2.5c-0.2-0.2-0.2-0.4-0.2-0.6c0.1-0.8,0.2-1.6,0.3-2.4
		c0-0.2,0.2-0.4,0.3-0.6c3.1-0.7,5.8-2.1,8.1-4.2c4.1-3.6,6.5-8.1,8.1-13.3c1.1-3.7,1.4-7.5,1.1-11.3c-0.3-4.6-1-9.1-1.9-13.6
		c-0.3-1.5-0.5-2.9-0.7-4.4c-0.1-0.9-0.6-1.4-1.2-1.9c-0.3-0.2-0.6-0.5-0.8-0.8c-0.3-0.3-0.5-0.6-0.9-0.8
		C108.6,122.6,108.5,122.6,108.5,122.6z"/>
	<path fill="#843212" d="M96.5,102.6c-3.9-1-7.8-1-11.8-0.6c-4.4,0.4-8.4,1.9-12.2,4c-0.1,0-0.2,0.1-0.3,0.1
		c-1.8-0.9-3.4-2.1-4.8-3.7c-0.8-0.9-1.6-1.9-2.2-2.9c-0.1-0.3-0.3-0.4,0.1-0.6c2.4-1.6,3.2-4,3.5-6.8c0.6-5.2,0.5-10.4,0.5-15.6
		c0-1.2-0.1-2.3-0.1-3.5c0-0.4-0.1-0.5-0.5-0.5c-3.2,0.3-5.7-1-7.4-3.6c-2.1-3.1-2.6-6.5-1.3-10c1.6-4.3,6.9-4.5,9.6-2
		c0.2,0.2,0.4,0.4,0.5,0.5c0.7,0.6,1,0.7,1.8,0.2c2-1.2,3.8-2.6,5.7-3.9c3.2-2.2,6.5-4.3,9.5-6.8c2.7-2.2,5.1-4.7,7.5-7.3
		c0.6-0.6,1.1-1.3,1.6-2c0.5-0.7,0.9-1.4,1.1-2.3c1.2,0.7,2.2,1.7,3.3,2.5c3.5,2.9,6.6,6.2,9.8,9.3c0.4,0.4,0.5,0.9,0.6,1.3
		c0.8,3,1.4,6,1.9,9c0.7,4,1.1,8.1,1.1,12.2c-0.1,5.9-1.7,11.3-5.1,16.3c-2.9,4.3-7,6.6-12,7.6c-3,0.6-5.8-0.1-8.7-0.8
		c-4.1-1.1-7.5-3.3-10.4-6.4c-0.3-0.3-0.6-0.7-1-1c0.4,1.9,1.4,3.5,2.7,5c1.3,1.5,2.8,2.8,4.3,4c2.1,1.6,4.5,2.1,7,2.6
		c1.9,0.4,3.9,0.3,5.7-0.5c0.5-0.2,0.6,0,0.5,0.5C97,98.7,96.7,100.6,96.5,102.6z"/>
	<path fill="#FDC013" d="M111.4,113.7c-0.6-0.4-0.9-0.9-1.1-1.5C110.7,112.6,111.1,113.1,111.4,113.7z"/>
	<path fill="#FDC013" d="M112.1,114.9c-0.4-0.3-0.7-0.7-0.8-1.2C111.7,114,111.9,114.4,112.1,114.9z"/>
	<path fill="#FEFEFE" d="M134.7,72.1c1.1,0.1,2.1,0.3,3.2,0.4c3.2,0.4,6.4,0.1,9.6-0.3c1.6-0.2,3.2-0.4,4.9-0.5
		c-0.1,0.7-0.6,1.2-1,1.8c-2.7,3.5-8.2,5.1-12.4,3.5c-2.1-0.8-3.4-2.3-4.2-4.3C134.7,72.5,134.6,72.3,134.7,72.1z"/>
	<path fill="#050404" d="M134.7,72.1c0.5,0.9,0.8,1.9,1.5,2.7c1.5,1.8,3.4,2.5,5.6,2.6c4.3,0.1,7.7-1.5,10.1-5.1
		c0.1-0.2,0.3-0.4,0.5-0.6c0.6-0.2,1,0.1,1.3,0.6c0.4,0.5,0.1,1-0.2,1.4c-1.4,1.8-3.1,3.3-5.1,4.4c-1.8,1-3.8,1.7-5.8,1.8
		c-3.4,0.3-7.9-1.8-9.2-6.2C133,72.5,133.5,71.9,134.7,72.1z"/>
	<path fill="#050404" d="M136.3,60.2c1.1-2.2,1.9-4.6,2.7-6.9c0.1-0.2,0.2-0.5,0.3-0.7c0.2-0.6,0.6-1.1,1.4-0.9
		c0.5,0.5,0.4,1.1,0.2,1.6c-0.6,2.5-1.8,4.8-2.8,7.1c-0.5,1-1,2-1.3,3.1c-0.3,1.1-0.2,1.4,0.9,1.8c1.4,0.5,2.9,0.7,4.5,0.8
		c0.6,0,1,0.1,1,0.8c0,0.3-0.1,0.5-0.4,0.6c-2.1,0.9-5.9,0.2-7.5-1.4c-0.7-0.7-0.8-1.4-0.6-2.3C135,62.5,135.7,61.4,136.3,60.2z"/>
	<path fill="#E97446" d="M151.7,59.7c-3.8,0.2-6.9-3.3-6.8-6.9c0.1-3.8,3-7.1,7.1-7.3c4.1-0.1,6.8,3.1,6.9,6.7
		C158.9,56.1,155.2,60,151.7,59.7z"/>
	<path fill="#E97446" d="M125.2,47.5c1.4-1.5,3-2.7,5.2-2.4c2.6,0.3,4.4,1.8,5.6,4.1c1.3,2.7,1.1,5.2-0.8,7.5
		c-2.2,2.8-6.6,3.2-9.3,0.9c-0.3-0.3-0.7-0.4-0.9-0.9c-0.4-1.4-0.2-2.9-0.2-4.3c0.1-1.2,0.1-2.4,0.1-3.6
		C125,48.4,125,47.9,125.2,47.5z"/>
	<path fill="#FDFDFC" d="M125.2,47.5c0.1,2.1-0.1,4.2-0.2,6.4c0,0.9,0,1.9,0,2.8c-1.1-1.1-1.5-2.6-1.6-4.1
		C123.4,50.7,123.9,49,125.2,47.5z"/>
	<path fill="#040404" d="M139.9,175.3c2.1,0.4,4.1,0.6,6.2,0.5c4.5-0.3,8.5-1.8,12.1-4.4c0.9-0.6,1.7-1.3,2.6-2
		c-0.3,1.1-0.9,2-1.6,2.8c-3.1,3.5-6.9,6-11.5,6.9c-2.1,0.4-4.3,0.4-6.4-0.2C141,177.6,140.7,176.4,139.9,175.3z"/>
	<path fill="#040303" d="M143,167c-3.2,0.1-6-2.7-7.4-6.6c-0.4-1.2,0.4-2.2,1.8-1.9c1.9,0.4,3.8,0.3,5.7,0.2c3-0.2,6-0.7,8.9-1.4
		c0.5-0.1,0.9-0.3,1.4-0.2c1.1,0.2,1.6,1,1.4,2.2c-0.3,1.4-1.1,2.6-2.1,3.6C150.4,165.5,147.6,166.9,143,167z"/>
	<path fill="#040304" d="M144.2,153.8c-0.2,1-0.9,1.4-1.7,1.4c-1.7,0.1-3.4,0-5-0.7c-1.4-0.6-1.9-1.7-1.5-3.2
		c0.2-0.9,0.7-1.7,1.1-2.5c1-1.9,2-3.7,2.6-5.7c0.1-0.4,0.4-0.7,0.9-0.7c0.5,0,0.7,0.3,0.8,0.7c0.2,0.6,0,1.1-0.3,1.6
		c-0.7,1.6-1.5,3.1-2.3,4.7c-0.5,0.9-0.7,1.8-0.8,2.8c0,0.5,0.1,0.8,0.6,0.9c1,0.3,1.9,0.5,2.9,0.5
		C142.4,153.6,143.3,153.8,144.2,153.8z"/>
	<path fill="#040404" d="M136.1,141.9c0,0.9-0.1,1.8-0.6,2.6c-0.4,0.7-1,1.1-1.9,1.1c-0.8,0-1.3-0.5-1.6-1.1
		c-0.6-1.3-0.7-2.6-0.2-3.9c0.4-1.1,1.5-1.8,2.4-1.7c1.1,0.2,1.8,1.1,1.9,2.5C136.1,141.5,136.1,141.7,136.1,141.9z"/>
	<path fill="#050404" d="M154.7,142.4c0,0.7-0.1,1.4-0.4,2.1c-0.3,0.7-0.8,1.4-1.6,1.3c-1-0.1-1.9-0.4-2.3-1.5c-0.4-1-0.4-2.1,0-3.1
		c0.5-1.3,1.3-1.9,2.6-1.8c0.8,0.1,1.7,1.2,1.8,2.3C154.7,142,154.7,142.2,154.7,142.4z"/>
	<path fill="#01552F" d="M152.1,132.4c2,0.1,3.9,0.8,5.6,1.9c0.3,0.2,0.5,0.5,0.7,0.9c0.2,0.4,0.1,0.8-0.3,1.1c-0.3,0.3-0.7,0.3-1,0
		c-1.4-1-2.9-1.6-4.6-1.8c-1.2-0.1-2.3,0.1-3.4,0.5c-0.3,0.1-0.8,0.5-1,0c-0.3-0.5-0.1-1,0.3-1.4c0.2-0.1,0.4-0.2,0.6-0.3
		C149.9,132.6,151,132.4,152.1,132.4z"/>
	<path fill="#01552F" d="M134.6,132.2c0.7-0.1,1.4,0.1,2,0.3c0.3,0.1,0.6,0.2,0.8,0.5c0.4,0.4,0.6,0.8,0.4,1.3
		c-0.3,0.5-0.7,0.6-1.2,0.5c-2.3-0.6-4.4-0.5-6.4,0.9c-0.3,0.2-0.6,0.4-1,0.1c-0.4-0.3-0.4-0.8-0.2-1.2c0.1-0.3,0.4-0.5,0.6-0.7
		C131.2,132.8,132.8,132.3,134.6,132.2z"/>
	<path fill="#040404" d="M93.8,163.5c-2.9,0-5.9-2-8.2-5c-0.9-1.1-1.6-2.3-1.7-3.7c0-1.7,1.2-2.5,2.7-2c4.3,1.6,8.8,2.3,13.4,2.1
		c0.7,0,1.4-0.1,2.1-0.2c1.1-0.2,2.1,0.1,2.5,0.9c0.5,0.9,0.4,1.8-0.2,2.6C101.8,161.4,99.1,163.5,93.8,163.5z"/>
	<path fill="#050404" d="M96.8,172.8c-0.1,1.2-0.3,2.4-0.4,3.6c-3.2,1.1-6.4,0.6-9.4-0.7c-4.7-2-8.2-5.2-10.3-10.1
		c0.6,0.3,0.9,0.7,1.3,1c0.4,0.3,0.8,0.7,1.3,1c3.8,3,8.1,4.8,13,5.2C93.7,173,95.3,173.1,96.8,172.8z"/>
	<path fill="#050404" d="M97.4,151.2c-0.5,0-1,0-1.5-0.2c-0.4-0.2-0.7-0.4-0.6-0.9c0.1-0.5,0.5-0.6,0.9-0.6c1.6,0,3.1-0.5,4.5-1.1
		c1-0.4,1.3-1.1,0.9-2.1c-0.6-1.7-1.5-3.2-2.2-4.8c-0.3-0.7-0.8-1.4-1-2.1c-0.3-0.9,0.1-1.5,0.9-1.4c0.4,0,0.6,0.2,0.7,0.6
		c0.2,1,0.9,1.9,1.4,2.8c0.8,1.6,1.8,3.2,2.2,4.9c0.5,2.3-0.3,3.7-2.5,4.4C99.9,151,98.6,151.2,97.4,151.2z"/>
	<path fill="#FDC112" d="M81.8,131.7c0-0.4,0.2-0.7,0.5-0.9c2.2-1.7,6-3,9-1.4c0.5,0.3,1,0.7,1.5,1.1c0.2,0.3,0.3,0.6,0.1,0.9
		c-0.2,0.3-0.5,0.5-0.9,0.3c-2.6-1.5-5.1-0.7-7.6,0.3c-0.4,0.2-0.8,0.4-1.2,0.5C82.4,132.9,81.8,132.4,81.8,131.7z"/>
	<path fill="#060505" d="M85.2,139.3c0.1-0.7,0.2-1.3,0.3-2c0.2-1,1.1-1.6,2.1-1.5c1.2,0.1,1.8,0.7,2,1.8c0.1,0.8,0.1,1.5,0,2.3
		c-0.2,1.5-1.4,2.3-2.8,2c-0.8-0.2-1.4-1-1.5-2.1C85.3,139.7,85.3,139.5,85.2,139.3C85.3,139.3,85.3,139.3,85.2,139.3z"/>
	<path fill="#060505" d="M103.4,138.6c-0.1-1.2,0.2-2.2,1.6-2.8c0.9-0.3,1.8-0.1,2.3,0.7c0.7,1.1,0.6,3.2-0.2,4.2
		c-0.6,0.7-1.6,1.1-2.4,0.8c-0.9-0.3-1.4-1-1.4-2C103.4,139.3,103.4,139.1,103.4,138.6z"/>
	<path fill="#FDC011" d="M106.1,130.8c-1.4,0-2.3,0.3-3.2,0.5c-0.4,0.1-0.9,0.1-1.1-0.3c-0.2-0.4-0.1-0.9,0.2-1.3
		c0.3-0.4,0.8-0.7,1.2-0.8c2.5-0.6,4.9-0.5,7.1,1c0.5,0.3,0.7,0.8,0.6,1.3c-0.2,0.5-0.7,0.5-1.1,0.5c-0.4,0-0.7-0.1-1.1-0.2
		C107.7,131,106.7,130.8,106.1,130.8z"/>
	<path fill="#FDC013" d="M108.6,122.7c0.5,0.1,0.7,0.4,0.9,0.8C109.1,123.3,108.9,123,108.6,122.7z"/>
	<path fill="#060505" d="M94.9,84.7c-3.7-0.3-7.3-1.6-9.7-5.2c-0.7-1-1.2-2-1.2-3.2c-0.1-1.7,1.4-2.8,3-2.2c3,1,6.1,1.6,9.2,1.8
		c2.2,0.2,4.4,0.2,6.6-0.1c1.9-0.2,2.9,1.2,2.2,3.1c-0.9,2.3-2.7,3.7-4.8,4.7C98.6,84.4,96.9,84.6,94.9,84.7z"/>
	<path fill="#070606" d="M97.4,72.8c-0.5,0-0.9-0.1-1.3-0.3c-0.6-0.2-0.7-0.7-0.6-1.2c0.1-0.5,0.5-0.5,1-0.4
		c1.9,0.2,3.7-0.2,5.5-1.1c0.5-0.2,0.6-0.6,0.5-1.2c-0.5-1.8-1.3-3.4-2-5c-0.4-1-0.9-1.9-1.2-2.9c-0.1-0.5-0.2-1,0.4-1.2
		c0.6-0.2,1-0.1,1.2,0.6c0.7,1.7,1.8,3.1,2.5,4.7c0.4,0.9,0.8,1.8,1.1,2.8c0.5,1.9,0,3.1-1.7,4c-1.1,0.6-2.4,0.8-3.6,1
		C98.4,72.8,97.9,72.8,97.4,72.8z"/>
	<path fill="#070706" d="M90.8,60.4c0.1,0.7-0.1,1.4-0.4,2.1c-0.4,1-1.2,1.5-2.1,1.5c-0.7,0-1.5-0.7-1.9-1.5
		c-0.4-1.2-0.4-2.4,0.1-3.6c0.4-1.1,1.5-1.7,2.5-1.5c1.1,0.2,1.7,1,1.7,2.3C90.8,59.9,90.8,60.1,90.8,60.4z"/>
	<path fill="#070706" d="M103.8,60.9c-0.1-1.1,0.1-2.3,1.3-3.1c1.1-0.8,2.5-0.4,3,0.9c0.5,1.4,0.4,2.7-0.2,4c-0.5,1-2.6,1.4-3.5,0.8
		c-0.5-0.4-0.5-0.9-0.6-1.5C103.8,61.8,103.8,61.4,103.8,60.9z"/>
	<path fill="#070707" d="M89.1,51c1.1,0,2.3,0.2,3.4,0.8c0.3,0.2,0.5,0.4,0.8,0.6c0.4,0.4,0.6,0.8,0.2,1.2c-0.4,0.4-0.7,0.9-1.5,0.4
		c-2.3-1.4-4.6-1.1-6.9-0.1c-0.2,0.1-0.4,0.2-0.6,0.3c-0.4,0.2-0.8,0.4-1.1,0c-0.3-0.4-0.2-0.9,0.1-1.3c0.6-0.8,1.5-1.1,2.3-1.4
		C86.9,51.2,88,51,89.1,51z"/>
	<path fill="#070707" d="M106.5,50.9c1.6,0.1,2.9,0.5,4,1.6c0.4,0.4,0.6,0.8,0.3,1.3c-0.3,0.7-0.9,0.8-1.6,0.3
		c-0.6-0.5-1.3-0.9-2-1.2c-1.2-0.4-2.2-0.3-3.3,0.4c-0.4,0.2-0.7,0.5-1.1,0.7c-0.4,0.2-0.7,0.2-1-0.1c-0.3-0.3-0.2-0.7,0-1
		c0.4-0.5,0.8-0.8,1.4-1.1C104.3,51.2,105.4,51,106.5,50.9z"/>
	<path fill="#050404" d="M154.8,52.4c0,0.8-0.2,1.6-0.4,2.3c-0.3,0.8-0.8,1.5-1.8,1.6c-1,0.1-1.6-0.6-2.1-1.3
		c-0.9-1.4-0.5-4,0.7-5.1c1-1,2.8-0.6,3.3,0.7C154.8,51.1,154.9,51.8,154.8,52.4z"/>
	<path fill="#060504" d="M134.3,51.8c-0.1,0.9-0.3,1.8-0.6,2.6c-0.4,0.8-1,1.2-1.9,1.2c-0.9,0-1.6-0.4-1.9-1.2
		c-0.7-1.8-0.6-3.5,0.6-5.1c0.4-0.6,1-0.7,1.7-0.5c0.9,0.3,1.7,0.7,1.9,1.8C134.3,51,134.3,51.4,134.3,51.8z"/>
	<path fill="#FEFEFE" d="M138,160.4c5,0.4,9.9,0.3,14.8-1.3c-0.4,1.1-1.1,1.9-1.9,2.7c-2,1.8-4.3,2.9-7,2.9
		C141.2,164.7,138.7,162.9,138,160.4z"/>
	<path fill="#FEFEFE" d="M103.2,156.6c-1.2,2-2.8,3.3-4.9,4.1c-3.7,1.4-7,0.7-9.8-2c-0.8-0.8-1.6-1.6-2.1-2.6
		c-0.1-0.3-0.2-0.5-0.3-0.8c-0.1-0.3,0-0.6,0.2-0.7c0.2-0.2,0.4,0.1,0.6,0.1c2.8,1.2,5.6,1.9,8.6,2.2c2.5,0.2,5,0.2,7.5-0.3
		C103,156.6,103,156.6,103.2,156.6z"/>
	<path fill="#FEFEFE" d="M86.7,76.2c0.9,0,1.7,0.4,2.6,0.7c4.1,1.1,8.2,1.2,12.3,1.1c0.6,0,1.3-0.2,2-0.3c-1.3,2.6-3.3,4.2-6.1,4.8
		c-4.4,0.9-9.4-1.6-11.4-5.5c0,0,0-0.1,0-0.1C86.2,76.5,86.4,76.3,86.7,76.2z"/>
	<path fill="#737576" d="M86.7,76.2c0,0.4-0.4,0.4-0.6,0.6C85.7,76,86.2,76.1,86.7,76.2z"/>
</g>
<path fill="#090908" d="M42.5,110.9c0,0-0.3,0.6-0.8,1.7c-0.3,0.6-0.6,1.4-1,2.2c-3.6,8.3-11.6,28.1-11.9,40.6
	c-0.3,13.2-0.1,27.1,0,31.7c0,1,0,1.6,0,1.6l13.4-1.1L42.5,110.9z"/>
<path fill="#D2244B" d="M22,226.2"/>
<path fill="#D2244B" d="M41.9,229.8H28.2c0,0,5.5-41.4,14.1-42.2S41.9,229.8,41.9,229.8z"/>
<path fill="#090908" d="M29.9,193c0.1,0.2,0.2,0.4,0.2,0.6c1.5,3.4,4.5,2.7,4.5,2.7l0.9,0.3l2.6-5.5l3.3-3.3l0.8-0.2l-10.3,0
	l-3.1,1.1"/>
<path fill="#FDC013" d="M195.5,105.4c0,0,9.8,9.9,12.4,21.3s2.9,44.6,2.9,44.6l-2.2,12.3l-5.5,9.4l-7.4-2.1L195.5,105.4z"/>
<path fill="#0E8686" d="M192.9,229.8l17.9,0c0,0-3.5-41.1-17.3-38.9C179.7,193.1,192.9,229.8,192.9,229.8z"/>
</svg>
