<?xml version="1.0" encoding="utf-8"?>
<!-- Generator: Adobe Illustrator 24.1.2, SVG Export Plug-In . SVG Version: 6.00 Build 0)  -->
<svg version="1.1" id="Layer_1" xmlns="http://www.w3.org/2000/svg" xmlns:xlink="http://www.w3.org/1999/xlink" x="0px" y="0px"
	 width="238.2px" height="229.8px" viewBox="0 0 238.2 229.8" style="enable-background:new 0 0 238.2 229.8;" xml:space="preserve"
	>
<style type="text/css">
	.st0{fill:#010101;}
	.st1{fill:#0A0A09;}
	.st2{fill:#020202;}
	.st3{fill:#0C0C0B;}
	.st4{fill:#0A0B0A;}
	.st5{fill:#FEFEFE;}
	.st6{fill:#FEFEFD;}
</style>
<g>
	<g>
		<path class="st0" d="M168,130.9c-4.1,2.5-8.5,3.8-13.2,4.3c-2.8,0.3-5.6,0.4-8.4,0.3c-8.2-0.3-15.7-2.8-22.5-7.5
			c-4.4-3.1-8.2-6.9-12.3-10.4c-6.1-5.2-12.4-10.1-19.6-13.8c-1.7-0.8-3.4-1.5-5.4-1.7c0.2,0.9,0.2,1.8,0.5,2.6c0.5,1.6,1,3,2.8,4
			c5,2.8,9.8,6,13.9,10.1c2.5,2.6,4,5.7,4.1,9.4c0.1,3-2.2,5.4-5.3,5.5c-3.1,0.1-5.5-1.2-7.5-3.4c-0.7-0.7-1.1-0.9-2-0.3
			c-2.1,1.3-4.3,0.7-6.4-0.2c-3.3-1.5-5.9-3.9-7.6-7.2c-2.4,3.7-5.9,5.1-9.5,3.7c-2.6-1-3.9-2.9-4.6-5.4c-1.6-5.6-2.7-11.4-1.9-17.3
			c0.1-0.4,0-0.9,0-1.5c-0.8,0.7-1.6,1.3-2.2,2c-3.6,3.6-7.4,7-11.1,10.6c-4,3.8-8.8,6.1-14.1,7.4c-5.7,1.4-11.2,3.3-16.1,6.5
			c-4.8,3.2-6.9,7.8-7.7,13.2c-0.5,3.8,0.2,7.5,2,11c0.1,0.4-0.2,0.3-0.4,0.2c-0.4-0.2-0.6-0.6-0.8-1c-1.7-3.8-2.1-7.7-1.5-11.8
			c0.1-0.3,0.3-0.6,0.3-0.8c-0.8,1.1-0.5,2.6-1.1,4.1c-0.5-0.7-0.3-1.2-0.3-1.7c0.1-3.3,1.5-6.2,3.2-9c2.5-4,5.5-7.6,8.3-11.4
			c3.1-4.3,6.1-8.7,9.4-12.8c1.9-2.5,4.6-4.1,6.9-6.2c3.8-3.5,8.5-5.6,12.3-9c0.2-0.1,0.3-0.3,0.5-0.5c-1.7,0.4-3.3,0.8-5,0.8
			c-1.2,0-2.3-0.2-3.3-0.7c-3.8-1.5-5.1-5.8-2.8-9.5c1.6-2.6,3.4-5.1,5.4-7.4c4-4.6,7.1-9.9,10.6-14.9c3.5-5.1,6.8-10.5,10.1-15.8
			c1.7-2.8,3.8-5.3,6-7.7c4-4.3,9.1-6,14.9-6c6.6-0.1,13.2-0.2,19.8-0.3c3.8,0,7.6,0.4,11.4,1c1.9,0.3,3.8,0.4,5.6,0.6
			c0.6,0.1,1.1-0.1,1.6-0.5c5.5-4.2,11-8.4,16.7-12.3c3-2.1,6.2-3.8,9.8-4.7c1.9-0.5,3.7-0.2,5.4,0.6c2,1,2.8,3.2,2.3,5.6
			c-0.6,2.9-2.3,5.1-4.5,6.9c-4.5,3.7-9.7,5.8-15.4,6.5c-0.7,0.1-1.4,0.2-2,0.3c9.9,3.8,17,11,23,19.5c1.6,2.3,3,4.8,4.5,7.1
			c-0.1,0.7-0.5,0.2-0.6,0.1c-0.5-0.5-0.9-1.2-1.3-1.8c-0.3-0.6-0.6-1.2-1.2-1.6c0.2,0.8,0.7,1.4,1,2.1c0.1,0.4,0.5,1-0.4,1
			c-0.5-0.3-0.7-0.8-1-1.2c-3.3-5.6-7.2-10.6-12-15.1c-5-4.7-10.8-7.9-17.5-9.4c-1.7-0.4-3.5-0.5-5.2-0.7c-1.1-0.1-2.1,0.2-3.1,0.9
			c-7.7,5.6-15,11.7-22.3,17.9c-1.2,1-2.5,1.8-3.7,3.2c2.3,0.4,4.5,0.7,6.6,1.1c2.7,0.5,5.4,0.1,8,0.7c3.2,0.8,5.6,2.4,7.3,5.2
			c1.5,2.4,1.1,2.5,3.7,0.7c1.9-1.4,3.3-3.1,4.3-5.3c0.3-0.8,0.7-1.5,1.6-1.8c0.9-0.3,1.3,0,1.3,1c0,1-0.3,1.9-0.8,2.7
			c-1.5,2.5-3.7,4.5-6,6.2c-1.2,0.9-1.2,0.9-0.5,2.2c2.7,4.6,5.6,9.1,8.5,13.5c1,1.5,2.1,2.2,3.9,2c1.3-0.1,2.6,0,4,0
			c0.8,0,1.7,0.1,1.8,1c0.1,1-0.8,1.3-1.6,1.4c-2.3,0.2-4.7,0.2-7,0c-11.1-1-21.6-4.2-32.2-7.3C93,78.8,85.6,77.3,78,77.6
			c-6,0.2-11.9,1-17.1,4.2c-1.3,0.8-2.5,1.8-3.4,3.1c-1.6,2.4-1.5,4.8-0.1,7.2c1.9,3.2,5,4.6,8.4,5.6c3,0.9,6.1,1.2,9.1,1.3
			c3,0.1,5.9,0.2,8.8,0.4c4.1,0.2,7.9,1.5,11.4,3.5c6.8,3.9,12.9,8.7,18.7,13.8c3.1,2.7,6,5.5,9.2,8c6.5,5.2,14.1,7.9,22.4,8.6
			c6.2,0.5,12-0.3,17.8-2.5c1.3-0.5,2.4-1.4,3.9-1.7c0.7,0.2,0.5,0.6,0.2,1c-0.3,0.4-0.7,0.5-1.1,0.7
			C167.4,130.3,167.4,130.3,168,130.9z"/>
		<path class="st1" d="M168,130.9c-0.5-0.4-1-0.3-1.4,0c-0.4,0.2-0.7,0.6-1.4,0.4c0.3-0.5,0.7-0.7,1.2-0.9c0.4-0.2,1-0.3,0.8-1
			c0-0.5,0.5-0.7,0.8-1c5.8-4,9.7-9.7,12.6-16c3.2-6.9,5.4-14.2,7.9-21.5c0.3-1,0.2-1.6-0.9-2c-5.8-2.6-10.5-6.7-14.7-11.4
			c-3.8-4.4-7.1-9.2-10.2-14.1c-0.3-0.4-0.7-0.8-0.4-1.4c0.4-0.8-0.4-1.2-0.6-1.9c-0.1-0.3-0.4-0.6-0.5-0.9c-0.2-0.3-0.4-0.8,0-1
			c0.4-0.2,0.6,0.2,0.8,0.5c0.7,1.1,1.4,2.2,2.1,3.3c0.1,0.2,0.2,0.6,0.5,0.2c2.7,3.9,5.2,7.9,8.1,11.6c4.3,5.6,9.4,10.3,15.9,13.3
			c1,0.4,1.3,0.4,1.7-0.8c2.5-8,5.5-15.8,10.7-22.6c3.6-4.6,8-8.2,13.9-9.2c6.3-1.1,11.8,0.8,13.6,7.5c1,3.8,0.4,7.5-1.2,11
			c-4.6,10-12.3,16.2-23.2,18.1c-4,0.7-7.9,0.2-11.7-0.9c-1.1-0.3-1.3,0-1.6,0.9c-2.1,6.6-4.2,13.2-6.9,19.6
			c-2.7,6.3-6.1,12.1-11.1,16.8C171.3,128.8,169.7,129.9,168,130.9z"/>
		<path class="st2" d="M179.7,174c-4.4,4.3-10,6.2-15.9,7.4c-6.4,1.3-12.9,2-19.4,2.5c-6,0.4-12.1,0.4-18.1,0.8
			c-7,0.4-14.1,0.4-20.9,2.1c-3.8,1-7.4,2.2-10.4,4.9c-0.5,0.4-0.9,0.9-1.4,1.4c-2.4,2.8-0.7,5.6,1.4,6.7c2.6,1.5,5.5,1.9,8.5,2
			c4.3,0.2,8.6-0.6,12.8-1.2c5.5-0.9,10.9-1.8,16.5-1.4c3.6,0.3,7,1.1,9.9,3.4c0.5,0.4,1.6,0.8,0.8,1.8c-0.4,0.4-0.8,0.6-1.3,0.1
			c-4.6-3.9-10-4-15.6-3.6c-6,0.5-11.9,1.8-17.9,2.4c-4.4,0.4-8.8,0.3-13-1.3c-5.7-2.1-6.7-7.6-2-11.6c3-2.6,6.5-4,10.2-5.1
			c5.1-1.4,10.3-1.8,15.6-2.2c6.8-0.5,13.6-0.5,20.3-1c4.1-0.3,8.3-0.4,12.4-0.9c7.5-0.8,14.9-1.8,21.7-5.3c2.1-1.1,3.9-2.6,5.6-4.2
			c0.4,0.5,0.5,0.6,0.1,1C178.9,173.5,179.5,173.7,179.7,174z"/>
		<path class="st0" d="M33.3,167.2c7.1,1.7,14.2,2.7,21.5,2.4c6.3-0.2,12.5-0.9,18.7-2c15.1-2.6,29.5-7.6,44-12.4
			c7.5-2.5,15-5,22.8-6.6c6.3-1.3,12.7-2,19.1-1.7c3.1,0.2,6.2,0.7,9.1,1.6c-0.4,0.9-1.1,0.4-1.7,0.3c-3.7-0.8-7.4-1.2-11.3-1.3
			c3,0.4,5.8,0.2,8.6,0.9c0.5,0.1,1,0.2,1.4,0.5c0.1,0.1,0.3,0.2,0.1,0.4c-0.1,0.2-0.3,0.1-0.5,0c-2.6-0.2-5.1-0.8-7.7-0.8
			c-7.9-0.1-15.5,1.3-23.1,3.3c-10.8,2.9-21.3,6.8-31.9,10.3c-9.5,3.1-19.2,5.6-29.1,7.4c-8.9,1.6-17.9,2.3-26.9,1.8
			c-5.2-0.3-10.4-1.2-15.4-2.9c0.3-0.8,0.9-0.4,1.4-0.3c1,0.2,1.9,0.6,3.1,0.7c-0.9-0.7-2.1-0.3-2.6-1.2c0-0.1,0-0.2,0.1-0.2
			C33.2,167.1,33.3,167.1,33.3,167.2z"/>
		<path class="st3" d="M165.1,149.2c0,0,0.1,0,0.1,0c0.1,0,0.2-0.2,0.1-0.2c-1.5-0.3-3.1-0.7-4.6-0.8c-1.7-0.1-3.4-0.2-5.1-0.3
			c-0.4,0-1.1,0.2-1-0.4c0-0.5,0.7-0.3,1.1-0.4c4,0,7.9,0.5,11.7,1.4c0.4,0.1,0.8,0.4,1.2,0c4.8,1.4,9,3.6,12.4,7.4
			c4.2,4.8,4.4,11.4,0.4,16.4c-0.5,0.6-0.9,1.4-1.7,1.8c-0.1-0.2-0.3-0.2-0.5-0.1c-0.2,0.1-0.4,0.5-0.6,0.1c-0.2-0.3,0-0.5,0.2-0.7
			c0.3-0.5,1.2-0.6,0.7-1.4c1.5-1.7,2.5-3.6,2.9-5.9c0.7-3.8-0.6-6.8-3.1-9.5c-3.7-3.9-8.4-6-13.6-7.2
			C165.5,149.4,165.3,149.3,165.1,149.2z"/>
		<path class="st4" d="M33.3,167.2c0.4,0.4,0.4,0.4,1.9,0.8c0.4,0.1,1.1,0.1,1,0.6c-0.1,0.6-0.8,0.5-1.3,0.3
			c-0.9-0.3-1.8-0.5-2.7-0.7c-0.4-0.1-0.8-0.3-1.1,0.1c-7.9-2.6-14.5-6.9-18.7-14.3c-1.9-3.4-2.9-7-2.7-10.9c0-0.4,0-0.9,0.2-1.3
			c0,0.4,0.1,0.8,0.1,1.1c-0.2-1.8,1-3.3,1.5-4.9c0.5,0.2,0.3,0.5,0.2,0.8c-1.2,4.4-0.7,8.7,1,12.9c0.3,0.7,0.3,0.7,0.9,1
			c4.5,7.5,11.2,12,19.5,14.4C33.2,167,33.3,167.1,33.3,167.2z"/>
		<path class="st5" d="M162.2,61.8c4.7,7.7,9.7,15.2,16.7,21.1c2.8,2.4,5.9,4.5,9.4,5.8c0.7,0.3,0.8,0.6,0.6,1.3
			c-2.3,7.3-4.7,14.7-7.8,21.7c-3.1,7-7.3,13.2-14,17.5c-3.5,1.8-7.1,3.2-11,3.8c-3.6,0.6-7.2,0.8-10.9,0.5c-5-0.5-9.9-1.6-14.5-3.7
			c-4.7-2.2-8.6-5.3-12.4-8.8c-7-6.4-14.2-12.5-22.3-17.3c-4.4-2.6-9-4-14.1-4.2c-5-0.1-10.1,0-15.1-1.3c-3.2-0.8-6.2-2-8.6-4.5
			c-3.2-3.4-3.1-8.1,0.7-11.2c3.2-2.5,6.9-3.8,10.9-4.5c5.3-1,10.6-1.1,16-0.6c8,0.8,15.5,3.5,23.2,5.6c6.3,1.7,12.6,3.3,19.1,4.3
			c3.7,0.6,7.4,0.7,11.1,0.6c0.1,0,0.2,0,0.3,0c0.6-0.3,1.6-0.2,1.5-1.1c-0.1-0.7-0.9-0.7-1.6-0.7c-1.8,0-3.6,0-5.4,0
			c-0.7,0-1.2-0.2-1.7-0.8c-3.7-5.2-7-10.6-10.3-16c-0.4-0.6-0.1-0.7,0.3-1c2.5-1.7,4.8-3.6,6.5-6.1c0.6-0.9,1.3-1.8,1.2-3
			c0-0.4,0.4-1-0.2-1c-0.4,0-1.1-0.2-1.4,0.4c-0.2,0.4-0.5,0.8-0.7,1.3c-1.3,3.1-3.8,5.1-6.5,6.9c-0.5,0.3-0.7,0.1-0.9-0.3
			c-0.7-1-1.4-2-2-3.1c-1.8-2.6-4.5-3.6-7.5-4.1c-2.9-0.5-5.9-0.1-8.8-0.8c-1.8-0.4-3.6-0.6-5.6-1c1.6-1.3,3-2.5,4.5-3.7
			c5.1-4.2,10.1-8.7,15.4-12.7c2.5-1.9,5.1-3.7,7.6-5.7c1-0.8,2.1-0.5,3.2-0.4c8.9,0.8,16.5,4.5,22.9,10.7c4.6,4.5,8.5,9.5,11.7,15
			C161.8,61.2,162,61.5,162.2,61.8z"/>
		<path class="st5" d="M121.4,34.7c-2.1,1.6-4.1,3.1-6,4.7c-4.2,3.5-8.4,7-12.6,10.5c-2.7,2.3-5.4,4.7-8.1,7
			c-0.5,0.4-0.9,0.6-1.6,0.5c-2.4-0.3-4.7-0.6-7.1-0.8c-0.4,0-0.4-0.3-0.5-0.6c-0.2-1-0.7-1-1.3-0.3c-0.3,0.3-0.6,0.7-0.7,1.1
			c-1.5,3.8-4.4,6.6-7,9.6c-2.7,3.1-5.7,6-8.3,9.2c-1,1.2-2.1,1.7-3.4,2.2c-3,1.1-5.9,2.3-8.2,4.8c-1.2,1.3-2.2,2.8-2.3,4.6
			c0,1-0.8,1.6-1.5,2c-2.9,1.9-6,3.2-9.6,2.4c-2.9-0.7-4.3-3.9-2.8-6.6c1.7-3,3.8-5.7,6-8.3c5.2-6.1,9.5-12.9,14-19.5
			c3.2-4.6,5.7-9.7,9.2-14.2c2.4-3.2,4.9-6.2,8.8-7.9c3-1.2,6.1-1.4,9.2-1.4c7.9-0.1,15.9-0.1,23.8,0c2.6,0,5.1,0.6,7.7,0.9
			C119.9,34.5,120.6,34.6,121.4,34.7z"/>
		<path class="st5" d="M20.3,125.9c2.5-3.2,4.8-6.5,7-9.9c3.7-5.5,8.2-10,13.5-13.9c3.6-2.6,7.5-4.8,10.9-7.9
			c0.8-0.7,1.7-1.4,2.5-2.2c0.5-0.5,0.7-0.4,1,0.2c1.6,3.3,4.2,5.4,7.8,6.5c-4,3.7-7.3,8-11.4,11.6c-2,1.8-4,3.8-6.1,5.5
			c-3,2.5-6.8,3.4-10.5,4.5c-4.2,1.3-8.5,2.3-12.4,4.3C21.8,125,21,125.4,20.3,125.9z"/>
		<path class="st5" d="M75.1,75.6c4.4-4.3,9.1-7.7,13.5-11.4c1.6-1.4,3.2-2.7,4.8-4.1c0.6-0.5,1.1-0.7,2-0.6c4.5,0.7,9,1.5,13.6,1.7
			c1.6,0.1,3.1,0.5,4.6,0.9c1.4,0.4,2.3,1.5,3.2,2.6c0.6,0.7,1,1.6,1.6,2.2c0.8,0.9,0.7,1.4-0.4,2.1c-6,3.6-12.3,6.1-19.2,7
			c-1.2,0.2-2.4,0.3-3.6,0.8c-0.9,0.4-1.7,0-2.5-0.2c-5.2-1-10.4-1.6-15.7-1.4C76.4,75.4,75.9,75.5,75.1,75.6z"/>
		<path class="st5" d="M79.6,107.7c0.1,4.3,0.1,8.6-1.6,12.7c-0.7,1.8-1.6,3.6-3.5,4.2c-3.4,1.1-6.6,0-7.8-3.8
			c-2-6.4-2.6-13-1.9-19.7c0.1-1,0.4-1.1,1.4-0.9c4,0.9,8.1,1.2,12.2,1.1c1.1,0,1.3,0.3,1.3,1.3C79.5,104.3,79.6,106,79.6,107.7z"/>
		<path class="st5" d="M127.4,33.2c6.2-4.6,12-9.3,18.4-13.2c2.5-1.5,5.1-2.8,8.2-2.6c2.3,0.1,3.5,1.7,3,3.9
			c-0.6,3.1-2.6,5.2-5.1,6.9c-5.8,4.2-12.3,5.9-19.4,5.4C130.9,33.5,129.2,33.4,127.4,33.2z"/>
		<path class="st5" d="M81.4,107.5c0-2,0.1-3.6,0-5.1c-0.1-1,0.3-1.2,1.2-1c0.1,0,0.3,0.1,0.4,0.1c1.1,0,1.6,0.4,1.7,1.6
			c0.3,2.2,1.4,4.3,2.5,6.3c1.9,3.6,4,7.1,5.6,10.9c0.8,1.8,1,3.7,0.9,5.6c-0.2,2.3-2.5,3.5-5.1,2.8c-4.1-1.2-6.6-4.2-8.6-7.7
			c-0.2-0.3-0.1-0.5,0-0.7C81.4,116,81.5,111.6,81.4,107.5z"/>
		<path class="st5" d="M98.1,78.2c7.7-1.2,14.5-3.4,20.7-7.5c1-0.7,1.5-0.7,2.1,0.5c2.8,5,5.9,9.8,9,14.6
			C119.1,84.5,108.8,81.2,98.1,78.2z"/>
		<path class="st5" d="M89.7,110.6c4.6,2.8,9.2,5.4,12.9,9.3c2,2.2,3.3,4.8,3.5,7.8c0.2,2.9-2.3,4.9-5.2,4.1c-2-0.5-3.5-1.7-5-3.1
			c-0.7-0.7-1.1-1.3-0.7-2.4c0.9-2.7-0.2-5.1-1.2-7.6c-1-2.4-2.3-4.6-3.5-6.8C90.2,111.5,89.9,111.1,89.7,110.6z"/>
		<path class="st6" d="M69.9,76.2c2.5-2.8,4.9-5.4,7.3-8.1c2.7-3,5.5-5.9,7.5-9.5c0.2-0.4,0.4-0.4,0.8-0.3c2.1,0.3,4.2,0.6,6.4,1
			c-2.2,1.8-4.2,3.5-6.3,5.2c-3.8,3.2-7.7,6.3-11.4,9.6c-0.2,0.2-0.5,0.3-0.6,0.6C72.9,76.3,71.5,76.1,69.9,76.2z"/>
		<path class="st5" d="M200.1,89.1c-2.5,0.2-5-0.3-7.4-0.8c-0.5-0.1-1.1-0.2-0.8-1.1c2.7-7.7,5.6-15.3,10.4-22
			c3-4.1,6.8-7.3,11.8-8.7c2-0.6,4.1-0.6,6.1-0.2c4.2,0.8,6.2,4.6,6.5,8c0.4,5.5-2,10.1-5.3,14.3c-4.7,6.1-11,9.5-18.6,10.5
			C202,89.2,201.1,89.1,200.1,89.1z"/>
	</g>
</g>
</svg>
